<?xml version="1.0"?>
<svg xmlns="http://www.w3.org/2000/svg" id="Outline" viewBox="0 0 512 512" width="512" height="512"><path d="M465.029,192.69a39.8,39.8,0,0,0-33.706-7.846q-.354.078-.7.189l-56.792,18.149L398.146,112H440a8,8,0,0,0,0-16H392a8,8,0,0,0-7.729,5.938l-47.627,170.6a69.832,69.832,0,0,0-17.351.008A40.11,40.11,0,0,0,288,240.805V232a24.028,24.028,0,0,0-24-24H200a24.028,24.028,0,0,0-24,24v8.805A40.068,40.068,0,0,0,144,280v6.694L127.663,288a40.271,40.271,0,0,0-32.118,16.521A55.96,55.96,0,0,0,48.861,400H24a8,8,0,0,0,0,16H456a8,8,0,0,0,0-16H373.185A71.883,71.883,0,0,0,400,344h40a40.045,40.045,0,0,0,40-40V223.892A39.81,39.81,0,0,0,465.029,192.69ZM192,232a8.009,8.009,0,0,1,8-8h64a8.009,8.009,0,0,1,8,8v8H192Zm-32,48a24.028,24.028,0,0,1,24-24h96a24.043,24.043,0,0,1,23.228,17.956L160,285.414Zm-32,24c.213,0,.426-.009.638-.025L278.275,292a71.831,71.831,0,0,0-21.82,44H138.586a56.36,56.36,0,0,0-26.1-26.353A24.236,24.236,0,0,1,128,304Zm15.419,48H256.455a71.442,71.442,0,0,0,3.673,16H143.419a55.368,55.368,0,0,0,0-16ZM88,400a40,40,0,1,1,40-40A40.045,40.045,0,0,1,88,400Zm39.139,0a56.268,56.268,0,0,0,11.447-16H268.167a72.571,72.571,0,0,0,14.648,16ZM328,400a56,56,0,0,1-9.128-111.244l9.371-.75A56,56,0,0,1,328,400Zm136-96a24.028,24.028,0,0,1-24,24H398.186a72.26,72.26,0,0,0-45.961-51.8L366.6,222.289l68.52-21.9A24,24,0,0,1,464,223.892Z"/><path d="M88,336a24,24,0,1,0,24,24A24.028,24.028,0,0,0,88,336Zm0,32a8,8,0,1,1,8-8A8.009,8.009,0,0,1,88,368Z"/><path d="M328,304a40,40,0,1,0,40,40A40.045,40.045,0,0,0,328,304Zm0,64a24,24,0,1,1,24-24A24.028,24.028,0,0,1,328,368Z"/><path d="M440,264H416a8,8,0,0,0,0,16h24a8,8,0,0,0,0-16Z"/><path d="M440,296H416a8,8,0,0,0,0,16h24a8,8,0,0,0,0-16Z"/></svg>
