<?xml version="1.0"?>
<svg xmlns="http://www.w3.org/2000/svg" id="Outline" viewBox="0 0 512 512" width="512" height="512"><path d="M368,64H344V56a8,8,0,0,0-6.629-7.882l-184-32a8,8,0,0,0-8.231,3.766C144.114,21.6,120,62.446,120,120s24.114,98.405,25.14,100.116a7.989,7.989,0,0,0,8.559,3.7L280,196.361V272a8,8,0,0,0-8,8V456a40,40,0,0,0,80,0V280a8,8,0,0,0-8-8V176h24a24.028,24.028,0,0,0,24-24V88A24.028,24.028,0,0,0,368,64ZM156.2,206.9A200.494,200.494,0,0,1,136,120a201.351,201.351,0,0,1,20.327-87.127l31.08,5.405C179.926,53.31,168,83.057,168,120c0,35.786,11.192,64.823,18.694,80.271Zm46.669-10.145C196.389,184.159,184,155.452,184,120c0-37.571,13.915-67.573,19.966-78.842L328,62.729V169.553ZM328,185.926V272H296V192.882ZM336,456a24,24,0,0,1-48,0V288h48Zm40-304a8.009,8.009,0,0,1-8,8H344V80h24a8.009,8.009,0,0,1,8,8Z"/><circle cx="312" cy="440" r="8"/></svg>
