<?xml version="1.0"?>
<svg xmlns="http://www.w3.org/2000/svg" id="Outline" viewBox="0 0 512 512" width="512" height="512"><path d="M488,472H408V200h8.214a23.708,23.708,0,0,0,22.826-30.322l-17.531-69.2a8,8,0,0,0-3.911-5.052L259.844,8.984a8,8,0,0,0-7.688,0L94.4,95.425a8,8,0,0,0-3.911,5.052l-17.531,69.2A23.708,23.708,0,0,0,95.786,200H104V472H24a8,8,0,0,0,0,16H488a8,8,0,0,0,0-16ZM176,296V280H336v16Zm135.118,16L256,379.366,200.882,312ZM192,326.412,245.663,392,192,457.588ZM200.882,472,256,404.634,311.118,472ZM320,457.588,266.337,392,320,326.412ZM392,472H336V312h8a8,8,0,0,0,8-8V272a8,8,0,0,0-8-8H168a8,8,0,0,0-8,8v32a8,8,0,0,0,8,8h8V472H120V195.582l14.953-60.962L256,65.222l121.047,69.4L392,195.582Zm-.23-344.521a8,8,0,0,0-3.791-5.035l-128-73.384a8,8,0,0,0-7.958,0l-128,73.384a8,8,0,0,0-3.791,5.035L106.367,184H95.786a7.731,7.731,0,0,1-6.266-3.137,7.561,7.561,0,0,1-1.185-6.753c.035-.114.066-.23.1-.346l16.715-65.981L256,25.122l150.854,82.661,16.715,65.981c.03.116.061.232.1.346a7.561,7.561,0,0,1-1.185,6.753A7.731,7.731,0,0,1,416.214,184H405.633Z"/><path d="M256,128a48,48,0,1,0,48,48A48.055,48.055,0,0,0,256,128Zm-8,78.987A32.115,32.115,0,0,1,225.013,184H248ZM248,168H225.013A32.115,32.115,0,0,1,248,145.013Zm16,38.987V184h22.987A32.115,32.115,0,0,1,264,206.987ZM264,168V145.013A32.115,32.115,0,0,1,286.987,168Z"/><circle cx="344" cy="240" r="8"/><circle cx="168" cy="240" r="8"/></svg>
