<?xml version="1.0"?>
<svg xmlns="http://www.w3.org/2000/svg" id="Outline" viewBox="0 0 512 512" width="512" height="512"><path d="M32,272a32.036,32.036,0,0,0,32,32h4.305A31.976,31.976,0,0,0,96,352h4.305A31.976,31.976,0,0,0,128,400h4.305A31.976,31.976,0,0,0,160,448h16v8a40.045,40.045,0,0,0,40,40h16a40.045,40.045,0,0,0,40-40v-8h16A31.976,31.976,0,0,0,315.7,400H320A31.976,31.976,0,0,0,347.7,352H352A31.976,31.976,0,0,0,379.7,304H384a32,32,0,0,0,0-64H379.7A31.976,31.976,0,0,0,352,192H347.7a31.881,31.881,0,0,0,2.992-25.054A39.812,39.812,0,0,0,376,176h48A40.068,40.068,0,0,0,463.2,144H472a8,8,0,0,0,0-16H463.2a40.1,40.1,0,0,0-16.827-25.146A31.977,31.977,0,0,0,408.011,52.3a31.982,31.982,0,0,0-42.79,45.188,39.985,39.985,0,0,0-26.72,52.428A31.813,31.813,0,0,0,320,144H315.7A31.976,31.976,0,0,0,288,96H272V88a40.045,40.045,0,0,0-40-40V24a8,8,0,0,0-16,0V48a40.045,40.045,0,0,0-40,40v8H160a31.976,31.976,0,0,0-27.695,48H128a31.976,31.976,0,0,0-27.695,48H96a31.976,31.976,0,0,0-27.695,48H64A32.036,32.036,0,0,0,32,272ZM448,136a24.039,24.039,0,0,1-16,22.624V113.376A24.039,24.039,0,0,1,448,136ZM424,64a16,16,0,1,1-16,16A16.019,16.019,0,0,1,424,64Zm-24,48h16v48H400Zm-8-48a16.023,16.023,0,0,1,4.006.52,31.9,31.9,0,0,0,.3,31.48H392a16,16,0,0,1,0-32Zm-39.449,66.9a8.014,8.014,0,1,0,5.325-10.607A23.946,23.946,0,0,1,376,112h8v48h-8a23.987,23.987,0,0,1-23.449-29.1ZM96,336a16,16,0,0,1,0-32h72v32H96Zm32,48a16,16,0,0,1,0-32h40v32Zm128,72a24.027,24.027,0,0,1-24,24H216a24.027,24.027,0,0,1-24-24v-8h64Zm32-24H160a16,16,0,0,1,0-32H288a16,16,0,0,1,0,32ZM184,384V280a40,40,0,0,1,80,0V384Zm136,0H280V352h40a16,16,0,0,1,0,32Zm32-48H280V304h72a16,16,0,0,1,0,32Zm32-80a16,16,0,0,1,0,32H280v-8a55.662,55.662,0,0,0-5.414-24ZM192,88a24.027,24.027,0,0,1,24-24h16a24.027,24.027,0,0,1,24,24v8H192Zm-32,24H288a16,16,0,0,1,0,32H160a16,16,0,0,1,0-32Zm-32,48H320a16,16,0,0,1,0,32H128a16,16,0,0,1,0-32ZM96,208H352a16,16,0,0,1,0,32H263.138a55.868,55.868,0,0,0-78.276,0H96a16,16,0,0,1,0-32Zm77.414,48A55.662,55.662,0,0,0,168,280v8H64a16,16,0,0,1,0-32Z"/></svg>
