<?xml version="1.0"?>
<svg xmlns="http://www.w3.org/2000/svg" id="Outline" viewBox="0 0 512 512" width="512" height="512"><path d="M24,496H336a8,8,0,0,0,5-1.753l27-21.6V488a8,8,0,0,0,8,8h96a8,8,0,0,0,8-8V256.276L495.981,24.55A8,8,0,0,0,488,16H200a8,8,0,0,0-7.987,8.457L208,304.221A56.064,56.064,0,0,1,152,360H88a72.081,72.081,0,0,0-72,72v56A8,8,0,0,0,24,496Zm440-16H448a8,8,0,0,0-16,0H416a8,8,0,0,0-16,0H384V456a8,8,0,0,0-13-6.247L335.73,477.971A8,8,0,0,0,320,480H304a8,8,0,0,0-16,0H272a8,8,0,0,0-16,0H240a8,8,0,0,0-16,0H208a8,8,0,0,0-16,0H176a8,8,0,0,0-16,0H144V456H328a8,8,0,0,0,4.8-1.6l59.733-44.8a8.051,8.051,0,0,1,4.8-1.6H400a8.009,8.009,0,0,1,8,8v32a8,8,0,0,0,8,8h48Zm0-40H424V416a23.922,23.922,0,0,0-7.184-17.1,97.212,97.212,0,0,1,11.95-22.6c9.776-13.534,21.606-21.444,35.234-23.641ZM479.429,32l-2.207,32H322.3L320.47,32ZM304.444,32l1.829,32H210.3L208.47,32ZM224,304c0-.152,0-.3-.013-.457L211.213,80h95.974L320,304.221A56.064,56.064,0,0,1,264,360H200c-.976,0-1.943.035-2.909.074A71.887,71.887,0,0,0,224,304Zm-24,72h64a72.081,72.081,0,0,0,72-72c0-.152,0-.3-.013-.457L323.213,80H476.119l-12.1,175.45c-.013.183-.019.366-.019.55v80.48c-18.99,2.3-35.639,12.85-48.51,30.87a112.97,112.97,0,0,0-13.221,24.76c-.747-.07-1.5-.11-2.269-.11h-2.667a24.151,24.151,0,0,0-14.4,4.8l-57.6,43.2H144v-8A56.064,56.064,0,0,1,200,376ZM32,432a56.064,56.064,0,0,1,56-56h64c.976,0,1.943-.035,2.909-.074A71.887,71.887,0,0,0,128,432v8H32Zm0,24h96v24a8,8,0,0,0-16,0H96a8,8,0,0,0-16,0H64a8,8,0,0,0-16,0H32Z"/></svg>
