<?xml version="1.0"?>
<svg xmlns="http://www.w3.org/2000/svg" id="Outline" viewBox="0 0 512 512" width="512" height="512"><path d="M193.059,133.91c-12.7,14.262-18.761,32.857-16.636,51.071l33.549,271.446c2.589,22.19,22.8,39.573,46.02,39.573,23.506,0,44.7-17.752,47.244-39.554l32.333-271.519a66.351,66.351,0,0,0-16.59-51.669,63.726,63.726,0,0,0-28.068-18.4L322.321,75.6a26.5,26.5,0,0,0-.933-34.006l-.654-.722a22.655,22.655,0,0,0-18.118-7.659,23.067,23.067,0,0,0-17.451,9.833L280,50.4V41.23C280,27.318,269.233,16,256,16s-24,11.318-24,25.23V50.4l-5.216-7.419a23.019,23.019,0,0,0-17.4-9.762,22.654,22.654,0,0,0-18.1,7.641l-.691.763a26.488,26.488,0,0,0-.918,33.977l31.63,39.533A65.809,65.809,0,0,0,193.059,133.91Zm9.1-68.315a10.614,10.614,0,0,1,.307-13.253l.686-.757a6.721,6.721,0,0,1,5.354-2.393,6.972,6.972,0,0,1,5.237,3.059l19.71,28.04A8,8,0,0,0,248,75.69V41.23c0-4.917,3.738-9.23,8-9.23s8,4.313,8,9.23V75.69a8,8,0,0,0,14.545,4.6L298.2,52.322a7.028,7.028,0,0,1,5.288-3.13,6.739,6.739,0,0,1,5.37,2.411l.649.715a10.623,10.623,0,0,1,.322,13.284L272.709,112s-33.056.023-33.4.029ZM240.333,128h32.543c12.9,0,25.027,5.646,34.151,15.9a50.333,50.333,0,0,1,12.652,39.158L313.85,232H256a8,8,0,0,0,0,16h55.945l-11.432,96H256a8,8,0,0,0,0,16h42.608l-11.262,94.573C285.738,468.355,271.38,480,255.992,480c-14.976,0-28.492-11.406-30.135-25.481L221.1,416H264a8,8,0,0,0,0-16H219.119l-11.865-96H264a8,8,0,0,0,0-16H205.277l-11.865-96H248a8,8,0,0,0,0-16H192.048a50.422,50.422,0,0,1,12.962-31.452C214.371,134.031,227.246,128,240.333,128Z"/><circle cx="280" cy="184" r="8"/></svg>
