<?xml version="1.0"?>
<svg xmlns="http://www.w3.org/2000/svg" id="Outline" viewBox="0 0 512 512" width="512" height="512"><path d="M56.029,279.262q-.029.339-.029.683c0,16.351,6.95,31.946,19.57,43.909a74.247,74.247,0,0,0,20.448,13.693c.378,17.162,6.827,32.82,18.257,44.236C126.038,393.53,142.276,400,160,400h25.754l12,48H192a8,8,0,0,0-8,8v32a8,8,0,0,0,8,8H352a8,8,0,0,0,8-8,40.045,40.045,0,0,0-40-40h-9.754l-12-48h26.988c20.787,0,39.641-6.807,54.523-19.686,14.644-12.673,24.366-30.268,28.114-50.883A7.983,7.983,0,0,0,408,328V260.982a71.858,71.858,0,0,1,3.695-22.768l19.715-59.145c3.017-6.039,5.676-11.428,7.944-16.283l51.455-19.295a8,8,0,0,0,0-14.982l-47.4-17.773a72.113,72.113,0,0,0-14-22.965,32,32,0,0,0-25.546-55.5,32,32,0,0,0-55.728,0,31.988,31.988,0,0,0-23,57.559c-11.69,14.605-17.777,31.817-20.861,44.1L288.308,189.8q-.037.129-.069.258C285.43,201.293,277.5,208,267.015,208H24a8,8,0,0,0-8,8c0,17.53,8.12,35.687,22.278,49.813A80.889,80.889,0,0,0,56.029,279.262ZM447.687,129.427,465.216,136l-18.148,6.805A29.356,29.356,0,0,0,448,136C448,133.783,447.884,131.593,447.687,129.427ZM200,480V464h56a24.042,24.042,0,0,1,22.629,16Zm2.246-80h15.508l12,48H214.246Zm32,0h15.508l12,48H246.246Zm32,0h15.508l12,48H278.246ZM320,464a24.042,24.042,0,0,1,22.629,16H295.2a39.835,39.835,0,0,0-7.217-16ZM344,48a15.916,15.916,0,0,1,5.894,1.126,8,8,0,0,0,10.67-5.337,16,16,0,0,1,30.872,0,8,8,0,0,0,10.67,5.337,15.995,15.995,0,0,1,15.148,27.917A71.582,71.582,0,0,0,376,64a61.455,61.455,0,0,0-39.392,14.188A16,16,0,0,1,344,48Zm-24.308,90.2q.037-.129.069-.258C333.2,84.178,366.205,80,376,80a56.064,56.064,0,0,1,56,56c0,6.111-8.759,23.63-15.155,36.422a7.841,7.841,0,0,0-.434,1.048l-6.827,20.48-29.721,11.888-12.708-25.416a8,8,0,0,0-10.733-3.577l-26.028,13.014-18.438-24.584ZM272,223.681V224a56.064,56.064,0,0,1,56,56v8a56.066,56.066,0,0,1-56,56H232c-17.5,0-28.575-8.636-31.327-24h6.184a7.975,7.975,0,0,0,1.143-.091V320h16a8,8,0,0,0,0-16H208v.091a7.975,7.975,0,0,0-1.143-.091c-17.351,0-33.879-14.669-37.92-32h5.92a7.975,7.975,0,0,0,1.143-.091V272h48a8,8,0,0,0,0-16H176v.091a7.975,7.975,0,0,0-1.143-.091c-17.35,0-33.87-14.67-37.912-32C136.945,224,270.372,223.891,272,223.681ZM120.645,224a58.9,58.9,0,0,0,31.415,42.431c.648,13.217,6.546,26.413,16.406,36.539a58.307,58.307,0,0,0,15.578,11.453C185.062,342.2,203.656,360,232,360h40a72.084,72.084,0,0,0,72-72v-8a72.112,72.112,0,0,0-49.362-68.333,41.912,41.912,0,0,0,9.089-17.591l2.712-9.491L321.6,204.8a8,8,0,0,0,9.978,2.355l24.844-12.422,12.423,24.845a8,8,0,0,0,10.126,3.85l23.985-9.594-6.44,19.32A87.856,87.856,0,0,0,392,260.982v66.281C385.436,361.755,359.3,384,325.234,384H160c-25.055,0-43.92-16.4-47.417-40.006,1.8.006,3.549.007,4.907,0,.88,0,1.715-.007,2.51-.056V344h16a8,8,0,0,0,0-16H120.919c-.011,0-.021,0-.032-.006-21.542-2.4-43.747-17.682-48.116-40.029L87.762,288H104a8,8,0,0,0,0-16H87.8c-25-.125-50.373-23.149-55.036-48Z"/><circle cx="392" cy="120" r="8"/></svg>
