<?xml version="1.0"?>
<svg xmlns="http://www.w3.org/2000/svg" id="Outline" viewBox="0 0 512 512" width="512" height="512"><path d="M119.423,366.573C132.525,367.52,146.177,368,160,368a513.688,513.688,0,0,0,73.165-4.933,8,8,0,0,0-2.33-15.83A497.238,497.238,0,0,1,160,352c-13.44,0-26.7-.466-39.423-1.386a8,8,0,0,0-1.154,15.959Z"/><path d="M184.335,407.5a8,8,0,1,0-.67-15.986c-7.744.325-15.706.49-23.665.49-35.642,0-69.087-3.239-94.174-9.122a8,8,0,0,0-3.652,15.578C88.422,404.61,123.165,408,160,408,168.182,408,176.37,407.83,184.335,407.5Z"/><path d="M215.153,429.215A524.148,524.148,0,0,1,160,432a515.435,515.435,0,0,1-63-3.695,8,8,0,1,0-2,15.875A531.818,531.818,0,0,0,160,448a540.083,540.083,0,0,0,56.847-2.875,8,8,0,0,0-1.694-15.91Z"/><path d="M62,478.415C88.271,484.6,123.074,488,160,488s71.729-3.4,98-9.585c30.954-7.284,46-17.232,46-30.415V288c0-10.245-9.033-18.456-27.615-25.1-9.654-3.451-21.771-6.415-35.711-8.775a121.548,121.548,0,0,0,11.935-10.18,8,8,0,0,0,1.639-8.829l-34.44-78.736L472.489,86.857a32,32,0,0,0-16.989-61.7L189.878,98.236,190,98.7a8,8,0,0,0-2.8.255l-11.019,3.034-2.124-7.713A24.027,24.027,0,0,0,144.554,77.5L113.7,86a24,24,0,0,0-16.768,29.51l2.124,7.713L88.04,126.256a8,8,0,0,0-5.814,8.711L96.885,251.593c-21.43,2.595-39.757,6.475-53.27,11.306C25.033,269.544,16,277.755,16,288V448C16,461.183,31.047,471.131,62,478.415ZM237.293,236.279a151.083,151.083,0,0,1-20.356,14.606l-.09-.01-.008.069A148.144,148.144,0,0,1,180.1,266.862c-28.294,7.79-54.1,4.842-64.791,2.992l-1.96-15.588a194.77,194.77,0,0,0,25.46,1.7c11.4,0,24.486-1.071,37.043-4.529,24.132-6.646,45.432-21.862,55.142-29.564ZM459.746,40.58a16,16,0,0,1,8.5,30.852L360.254,101.143l-8.5-30.852ZM336.332,74.536l8.5,30.852-131.5,36.18-12.958-29.624ZM117.949,101.425,148.8,92.93a8.012,8.012,0,0,1,9.837,5.59l2.123,7.712-46.277,12.742-2.124-7.713A8.008,8.008,0,0,1,117.949,101.425Zm66.827,14.79,39.556,90.433c-5.828,4.9-28,22.554-52.73,29.363-24.632,6.782-52.788,2.986-60.328,1.764l-12.31-97.932ZM32,288.031c.683-3.546,17.883-14.645,66.88-20.564l1.267,10.08a8,8,0,0,0,5.928,6.745c.918.238,14.722,3.727,34.826,3.727a164.221,164.221,0,0,0,43.444-5.731,162.839,162.839,0,0,0,36.073-14.908c49.584,5.9,66.925,17.1,67.585,20.58-.3,1.606-7.215,8.915-35.607,15.327C227.515,308.9,194.7,312,160,312s-67.515-3.1-92.4-8.713C39.266,296.887,32.323,289.6,32,288.05Zm0,140.1c7.426,3.916,17.461,7.346,30.174,10.327a8,8,0,1,0,3.652-15.578C38.863,416.556,32.283,409.5,32,408V348.147q17.709,9.438,54.835,14.92a8.09,8.09,0,0,0,1.175.086,8,8,0,0,0,1.155-15.916C43.873,340.574,32.408,330.177,32,328V308.129q11.088,5.847,30,10.286C88.271,324.6,123.074,328,160,328s71.729-3.4,98-9.585q18.945-4.458,30-10.286v19.84c-.063.2-2.456,6.337-26.149,12.946a8,8,0,1,0,4.3,15.412A111.954,111.954,0,0,0,288,348.107v19.862c-.439,2.235-11.93,12.614-57.165,19.268a8,8,0,0,0,1.155,15.916,8.09,8.09,0,0,0,1.175-.086q37.088-5.456,54.835-14.92V407.97c-.363,1.835-8.434,9.961-41.568,16.585a8,8,0,1,0,3.136,15.689Q274.446,435.271,288,428.03v19.94c-.323,1.625-7.266,8.917-35.6,15.317C227.515,468.905,194.7,472,160,472s-67.515-3.1-92.4-8.713C39.212,456.875,32.3,449.566,32,448Z"/><path d="M450.692,67.967a8,8,0,1,0-9.837-5.59A8,8,0,0,0,450.692,67.967Z"/></svg>
