<svg id="Outline" height="512" viewBox="0 0 512 512" width="512" xmlns="http://www.w3.org/2000/svg"><circle cx="256" cy="288" r="8"/><path d="m360 449.376v-41.376c0-.176-.006-.352-.018-.527-3.934-59.546-29.863-111.329-66.267-132.781a39.837 39.837 0 0 0 -3.049-6.609c20.593-16.513 45.52-44.819 58.646-90.605 23.763-82.889.882-153.069-.1-156.015a8 8 0 0 0 -15.173 0l-75.79 226.6c-.744-.042-1.491-.067-2.245-.067s-1.5.025-2.245.067l-75.79-226.6a8 8 0 0 0 -15.173 0c-.986 2.946-23.867 73.126-.1 156.015 13.126 45.784 38.052 74.09 58.646 90.605a39.837 39.837 0 0 0 -3.049 6.609c-36.4 21.452-62.333 73.235-66.267 132.781-.012.175-.018.351-.018.527v41.376a24 24 0 0 0 7.992 46.624h32a24 24 0 0 0 8-46.624v-41.09c2.739-37.81 15.885-71.167 33.956-86.931a39.887 39.887 0 0 0 44.088 0c18.071 15.764 31.217 49.121 33.956 86.931v41.09a24 24 0 0 0 8 46.624h32a24 24 0 0 0 8-46.624zm-192-17.376h16v16h-16zm24 48h-32a8 8 0 0 1 0-16h32a8 8 0 0 1 0 16zm-7.98-72.566c-.013.188-.02.377-.02.566v8h-16v-7.733c3.269-48.611 21.914-91.148 48.674-113a39.759 39.759 0 0 0 5.963 14.76c-21.037 18.98-35.637 55.401-38.617 97.407zm-5.951-234.367c-13.8-48.125-10.677-92.439-6.221-119.452l66.407 198.55a40.063 40.063 0 0 0 -6.317 3.906c-18.772-14.893-41.749-40.726-53.869-83.004zm77.931 138.933a24 24 0 1 1 24-24 24.028 24.028 0 0 1 -24 24zm24.063-55.929a40.118 40.118 0 0 0 -6.318-3.906l66.427-198.609c4.47 26.965 7.6 71.242-6.241 119.511-12.12 42.281-35.097 68.112-53.868 83.004zm9.3 53.96a39.759 39.759 0 0 0 5.963-14.76c26.76 21.848 45.4 64.385 48.674 113v7.729h-16v-8c0-.189-.007-.378-.02-.566-2.98-42.006-17.58-78.427-38.617-97.403zm54.637 121.969v16h-16v-16zm8 48h-32a8 8 0 0 1 0-16h32a8 8 0 0 1 0 16z"/></svg>