<?xml version="1.0"?>
<svg xmlns="http://www.w3.org/2000/svg" id="Outline" viewBox="0 0 512 512" width="512" height="512"><circle cx="344" cy="128" r="8"/><circle cx="392" cy="128" r="8"/><path d="M488,56H440a24.039,24.039,0,0,0-22.624,16H318.624A24.039,24.039,0,0,0,296,56H248a8,8,0,0,0-8,8V83.508a23.967,23.967,0,0,0,18.179,23.283L272,110.246V160c0,2.692.129,5.36.371,8H168a88.143,88.143,0,0,0-81.991,56.04c-16.621.415-29.83,6.02-39.265,16.709C33.6,255.642,31.573,276.5,31.6,288.192a16.124,16.124,0,0,0-9.753,4.44C17.805,296.616,16,302.59,16,312c0,22.8,10.318,40,24,40s24-17.2,24-40c0-9.41-1.8-15.384-5.851-19.368a16.475,16.475,0,0,0-10.511-4.523c.006-9.29,1.508-25.9,11.1-36.771,5.533-6.268,12.987-9.885,22.654-10.977A88.114,88.114,0,0,0,80,256v65.837a39.8,39.8,0,0,0,2.861,14.855l5.665,14.164A39.808,39.808,0,0,0,125.665,376H128v72a8,8,0,0,0,8,8h80a8,8,0,0,0,8-8V432a24.039,24.039,0,0,0-16-22.624V376h72v72a8,8,0,0,0,8,8h80a8,8,0,0,0,8-8V432a24.039,24.039,0,0,0-16-22.624V367.922c11.239-5.843,21.726-14.754,30.866-26.419C406.6,321.416,416,295.434,416,272V248h8v-.247a40.289,40.289,0,0,0,4.373.247h15.254a39.981,39.981,0,0,0,39.355-32.845l4.364-24A40,40,0,0,0,448,144V114.246l29.822-7.455A23.967,23.967,0,0,0,496,83.508V64A8,8,0,0,0,488,56ZM48,312c0,15.488-6.009,24-8,24s-8-8.512-8-24c0-5.315.757-7.307,1.03-7.852.911-.23,13.029-.23,13.94,0C47.243,304.693,48,306.685,48,312ZM320,91.508V88h96v3.508a23.852,23.852,0,0,0,9.229,18.917A24.112,24.112,0,0,0,432,114.142V144h-7.991a40,40,0,0,0-39.355,47.155l4.364,24A39.874,39.874,0,0,0,396.375,232H368V192a40.045,40.045,0,0,0-40-40H288V114.246l2.179.545a24.187,24.187,0,0,0,5.875.728A24.02,24.02,0,0,0,320,91.508ZM352,192v39.544c-.656-.073-5.267-.761-6.382-.989l-.011,0-.016,0A72.189,72.189,0,0,1,288.464,168H328A24.028,24.028,0,0,1,352,192ZM262.061,91.27A7.99,7.99,0,0,1,256,83.508V72h40a8.009,8.009,0,0,1,8,8V91.508a8,8,0,0,1-9.94,7.762ZM176,184h72v8a24.027,24.027,0,0,1-24,24H200a24.027,24.027,0,0,1-24-24ZM96,320V272h40a24,24,0,1,1,0,48Zm80,120H144V424h24a8.009,8.009,0,0,1,8,8Zm32,0H192v-8a23.885,23.885,0,0,0-1.376-8H200a8.009,8.009,0,0,1,8,8Zm-32-32V376h16v32Zm152,32H296V424h24a8.009,8.009,0,0,1,8,8Zm32,0H344v-8a23.885,23.885,0,0,0-1.376-8H352a8.009,8.009,0,0,1,8,8Zm-32-32V376a66.232,66.232,0,0,0,16-1.982V408Zm63.5-98.456a15.982,15.982,0,0,1,8.076-29.523A98.064,98.064,0,0,1,391.5,309.544ZM400,264a32,32,0,0,0-16.1,59.654c-1.757,2.748-3.627,5.423-5.631,7.981-8.9,11.358-19.157,19.544-29.984,24.121C354.824,346.163,360,332.194,360,312a8,8,0,0,0-16,0c0,40.667-24.961,47.97-26.023,48.261v.007A8,8,0,0,0,312,368v40H296V368a8,8,0,0,0-8-8H193.087C201.051,350.442,208,335.4,208,312a8,8,0,0,0-16,0c0,40.667-24.961,47.97-26.024,48.261l0,.007A8,8,0,0,0,160,368v40H144V368a8,8,0,0,0-8-8H125.665a23.886,23.886,0,0,1-22.284-15.086L99.816,336H136a40,40,0,0,0,0-80H96a72.1,72.1,0,0,1,64-71.545V192a40.045,40.045,0,0,0,40,40h24a40.045,40.045,0,0,0,40-40v-8h11.373A87.9,87.9,0,0,0,360,248h40Zm66.417-95.378a23.941,23.941,0,0,1,5.187,19.672l-4.364,24A23.989,23.989,0,0,1,443.627,232H428.373a23.989,23.989,0,0,1-23.613-19.706l-4.364-24A24,24,0,0,1,424.009,160h23.982A23.939,23.939,0,0,1,466.417,168.622ZM480,83.508a7.99,7.99,0,0,1-6.06,7.762l-32,8A8,8,0,0,1,432,91.508V80a8.009,8.009,0,0,1,8-8h40Z"/><path d="M288,256H264a40,40,0,0,0,0,80h24a40,40,0,0,0,0-80Zm0,64H264a24,24,0,0,1,0-48h24a24,24,0,0,1,0,48Z"/><circle cx="451.333" cy="184" r="8"/><circle cx="419.333" cy="184" r="8"/><path d="M443.333,200h-16a8,8,0,0,0,0,16h16a8,8,0,1,0,0-16Z"/></svg>
