<svg id="Outline" enable-background="new 0 0 512 512" height="512" viewBox="0 0 512 512" width="512" xmlns="http://www.w3.org/2000/svg"><path d="m488 136h-56.336c-4.423-52.835-50.839-92.08-103.674-87.657s-92.08 50.839-87.657 103.674c1.317 15.733 6.494 30.899 15.073 44.153-1.798 7.853-6.968 11.83-15.406 11.83h-144c-49.124 0-63.716-48.167-64.308-50.2-1.214-4.248-5.642-6.708-9.89-5.494-3.435.982-5.802 4.121-5.802 7.694v72c0 87.239 66.842 159.15 152 167.234v16.766h-8c-4.418 0-8 3.582-8 8v32c0 4.418 3.582 8 8 8h160c4.418 0 8-3.582 8-8-.025-22.081-17.919-39.975-40-40h-8v-16h55.756c48.594.011 87.997-39.373 88.009-87.967.001-2.282-.088-4.564-.265-6.84-2.751-35.122-17.282-62.4-40.628-77.376 12.297-6.87 22.927-16.368 31.133-27.817h26c30.914-.035 55.965-25.086 56-56 0-4.418-3.582-8-8-8-.002 0-.003 0-.005 0zm-264 88c30.914.035 55.965 25.086 56 56v8c-.036 30.913-25.087 55.964-56 56h-40c-17.5 0-28.575-8.636-31.326-24h6.183c.383-.003 17.143 0 17.143 0 4.418 0 8-3.582 8-8s-3.582-8-8-8c0 0-16.76.003-17.143 0-17.351 0-33.879-14.669-37.92-32h5.92c.383-.003 49.143 0 49.143 0 4.418 0 8-3.582 8-8s-3.582-8-8-8c0 0-48.76.003-49.143 0-17.447 0-34.06-14.833-37.984-32.289 2.342.189 135.127.289 135.127.289zm-56 224v-16h56c10.167.012 19.228 6.418 22.629 16zm16-32v-16h16v16zm32 0v-16h16v16zm72 16c10.167.012 19.228 6.418 22.629 16h-47.429c-1.186-5.804-3.652-11.27-7.217-16zm-40-16v-16h16v16zm113.437-196.129c-4.188 1.407-6.444 5.942-5.037 10.131.784 2.336 2.601 4.18 4.925 4.998 26.942 9.471 43.357 34.842 46.223 71.44 3.077 39.639-26.561 74.267-66.2 77.344-1.86.144-3.726.216-5.592.216h-151.756c-83.813 0-152-68.187-152-152v-39.972c.233.305.469.61.709.914 10.734 13.661 24.147 22.985 39.515 27.632 1.348 12.979 7.077 25.112 16.242 34.4 4.523 4.663 9.794 8.536 15.594 11.461.649 13.217 6.546 26.414 16.406 36.539 4.519 4.658 9.784 8.529 15.578 11.453 1.018 27.773 19.612 45.573 47.956 45.573h40c39.745-.046 71.954-32.255 72-72v-8c-.019-25.708-13.739-49.457-36-62.316 7.148-5.606 10.787-14.161 11.772-22.383.233-1.952-.26-3.922-1.386-5.534-25.262-36.243-16.361-86.103 19.882-111.365s86.103-16.361 111.365 19.882 16.361 86.103-19.882 111.365c-6.249 4.356-13.088 7.797-20.31 10.218zm78.563-35.871h-16.706c4.62-10.102 7.45-20.929 8.362-32h47.544c-3.827 18.612-20.199 31.976-39.2 32z"/><circle cx="376" cy="136" r="8"/></svg>