<svg id="Outline" enable-background="new 0 0 512 512" height="512" viewBox="0 0 512 512" width="512" xmlns="http://www.w3.org/2000/svg"><path d="m472 280h-.76l-15.24-152.42c-.255-21.917-18.082-39.556-40-39.58h-320c-21.918.024-39.745 17.663-40 39.58l-15.24 152.42h-.76c-13.255 0-24 10.745-24 24s10.745 24 24 24h9.223l12.658 75.945c1.899 11.589 11.929 20.087 23.673 20.055h70.914c10.333.009 19.509-6.605 22.768-16.411l2.53-7.589h20.468l2.53 7.59c3.259 9.806 12.435 16.419 22.768 16.41h56.936c10.333.009 19.509-6.605 22.768-16.411l2.53-7.589h20.468l2.53 7.59c3.259 9.806 12.435 16.419 22.768 16.41h70.914c11.744.032 21.774-8.465 23.673-20.054l12.658-75.946h9.223c13.255 0 24-10.745 24-24s-10.745-24-24-24zm-400-152c.015-13.249 10.751-23.985 24-24h320c13.249.015 23.985 10.751 24 24 0 .267 15.16 152 15.16 152h-15.986c.549-4.412.825-8.854.826-13.3 0-20.028-5.568-40.419-15.276-55.944-10.789-17.256-25.252-26.756-40.724-26.756-6.277.033-12.452 1.584-18 4.521-10.534-22.748-27.61-36.521-46-36.521s-35.466 13.773-46 36.521c-11.239-6.028-24.751-6.028-35.99 0-10.544-22.748-27.62-36.521-46.01-36.521s-35.466 13.773-46 36.521c-5.548-2.937-11.723-4.488-18-4.521-15.472 0-29.935 9.5-40.724 26.756-9.708 15.525-15.276 35.916-15.276 55.944.001 4.446.277 8.888.826 13.3h-15.986s15.16-151.733 15.16-152zm256.826 152h-17.652c.549-4.412.825-8.854.826-13.3 0-20.028-5.568-40.419-15.276-55.944-2.748-4.443-5.967-8.578-9.6-12.333 7.719-18.623 20.325-30.423 32.876-30.423s25.157 11.8 32.881 30.423c-3.633 3.755-6.852 7.89-9.6 12.333-9.713 15.525-15.281 35.916-15.281 55.944.001 4.446.277 8.888.826 13.3zm-128 0h-17.652c.549-4.412.825-8.854.826-13.3 0-20.028-5.568-40.419-15.276-55.944-2.748-4.443-5.967-8.578-9.6-12.333 7.719-18.623 20.325-30.423 32.876-30.423s25.157 11.8 32.881 30.423c-3.633 3.755-6.852 7.89-9.6 12.333-9.713 15.525-15.281 35.916-15.281 55.944.001 4.446.277 8.888.826 13.3zm-32.826-13.3c.001 4.451-.324 8.896-.97 13.3h-78.06c-.646-4.404-.971-8.849-.97-13.3 0-34.908 19.065-66.7 40-66.7s40 31.792 40 66.7zm88-66.7c20.935 0 40 31.792 40 66.7.001 4.451-.324 8.896-.97 13.3h-78.06c-.646-4.404-.971-8.849-.97-13.3 0-34.908 19.065-66.7 40-66.7zm128 0c20.935 0 40 31.792 40 66.7.001 4.451-.324 8.896-.97 13.3h-78.06c-.646-4.404-.971-8.849-.97-13.3 0-34.908 19.065-66.7 40-66.7zm50.337 201.315c-.634 3.863-3.977 6.695-7.891 6.685h-70.914c-3.445.003-6.504-2.201-7.59-5.47l-4.353-13.06c-1.089-3.267-4.146-5.47-7.589-5.47h-32c-3.443 0-6.5 2.203-7.589 5.47l-4.353 13.059c-1.086 3.269-4.145 5.474-7.59 5.471h-56.936c-3.445.003-6.504-2.201-7.59-5.47l-4.353-13.06c-1.089-3.267-4.146-5.47-7.589-5.47h-32c-3.443 0-6.5 2.203-7.589 5.47l-4.353 13.059c-1.086 3.269-4.145 5.474-7.59 5.471h-70.914c-3.914.01-7.257-2.822-7.891-6.685l-12.219-73.315h381.112zm37.663-89.315h-432c-4.418 0-8-3.582-8-8s3.582-8 8-8h432c4.418 0 8 3.582 8 8s-3.582 8-8 8z"/></svg>