<?xml version="1.0"?>
<svg xmlns="http://www.w3.org/2000/svg" id="Outline" viewBox="0 0 512 512" width="512" height="512"><path d="M495.155,196.422l-48-96A8,8,0,0,0,440,96H296a8,8,0,0,0-6.656,3.562l-63.967,95.95-.023.035-.01.015h0A7.962,7.962,0,0,0,224,200v88H208V72a8,8,0,0,0-3.562-6.656l-72-48a8,8,0,0,0-8.876,0l-72,48A8,8,0,0,0,48,72V288H24a8,8,0,0,0-8,8V488a8,8,0,0,0,8,8H488a8,8,0,0,0,8-8V200a7.949,7.949,0,0,0-.851-3.575ZM435.056,112l40,80H364.281l-53.333-80ZM296,118.422,345.052,192h-98.1ZM240,208H352V352H336V248a8,8,0,0,0-8-8H264a8,8,0,0,0-8,8V352H240Zm80,48v96H304V256Zm-32,0v96H272V256Zm-80,48h16v16H208Zm0,32h16v16H208ZM64,76.281l64-42.666,64,42.666V160H64ZM64,176H192V288H152V264a8,8,0,0,0-8-8H112a8,8,0,0,0-8,8v24H64ZM176,320V304h16v16Zm16,16v16H176V336ZM96,320V304h64v16Zm64,16v16H96V336Zm-40-48V272h16v16ZM64,304H80v16H64Zm0,32H80v16H64ZM32,304H48v16H32Zm0,32H48v16H32Zm0,144V448H184A40.067,40.067,0,0,1,223.2,480Zm152-48H32V400H195.071a87.677,87.677,0,0,1,50.59,24.546,103.861,103.861,0,0,0-16.343,30.612A55.952,55.952,0,0,0,184,432Zm56.541-32h32.1a104.722,104.722,0,0,0-16.251,12.654A104.189,104.189,0,0,0,240.541,400ZM480,480H288.805A40.067,40.067,0,0,1,328,448H480Zm0-48H328a56.078,56.078,0,0,0-55.419,48H240.367A88.118,88.118,0,0,1,328,400H480Zm0-48H32V368H480Zm0-32H368V208H480Z"/><path d="M392,320h64a8,8,0,0,0,8-8V248a8,8,0,0,0-8-8H392a8,8,0,0,0-8,8v64A8,8,0,0,0,392,320Zm8-64h48v48H400Z"/><path d="M128,64a40,40,0,1,0,40,40A40.045,40.045,0,0,0,128,64Zm0,64a24,24,0,1,1,24-24A24.028,24.028,0,0,1,128,128Z"/><path d="M112,240h32a8,8,0,0,0,8-8V200a8,8,0,0,0-8-8H112a8,8,0,0,0-8,8v32A8,8,0,0,0,112,240Zm8-32h16v16H120Z"/></svg>
