<?xml version="1.0"?>
<svg xmlns="http://www.w3.org/2000/svg" id="Outline" viewBox="0 0 512 512" width="512" height="512"><path d="M488.922,38.5A24.043,24.043,0,0,0,464.969,16H456a8,8,0,0,0-8,8V144H432V40a24,24,0,0,0-48,0V144H368V24a8,8,0,0,0-8-8h-8.969a24.043,24.043,0,0,0-23.953,22.5l-7.062,113c-.011.166-.016.333-.016.5v16a40.045,40.045,0,0,0,40,40h24V488a8,8,0,0,0,8,8h32a8,8,0,0,0,8-8V208h24a40.045,40.045,0,0,0,40-40V152c0-.166,0-.333-.016-.5ZM416,480H400V384h16Zm0-112H400V208h16Zm64-200a24.028,24.028,0,0,1-24,24H360a24.028,24.028,0,0,1-24-24V152.25L343.047,39.5a8.014,8.014,0,0,1,7.984-7.5H352V152a8,8,0,0,0,8,8h32a8,8,0,0,0,8-8V40a8,8,0,0,1,16,0V152a8,8,0,0,0,8,8h32a8,8,0,0,0,8-8V32h.969a8.014,8.014,0,0,1,7.984,7.5L480,152.25Z"/><path d="M24,496H328a8,8,0,0,0,8-8V328a40.045,40.045,0,0,0-40-40H268.674a39.815,39.815,0,0,0-6.931-10.747,40.136,40.136,0,0,0,1.994-8.754l.547.428A112.489,112.489,0,0,0,277.233,248H280a39.986,39.986,0,0,0,23.972-72H312a8,8,0,0,0,7.761-9.94L317.82,158.3a39.933,39.933,0,0,0-30.765-29.484L274.309,39.589C272.355,25.921,262.4,16,250.647,16H101.353C89.6,16,79.645,25.921,77.692,39.589L64.945,128.815A39.936,39.936,0,0,0,34.179,158.3l-1.94,7.761A8,8,0,0,0,40,176h8.028A39.986,39.986,0,0,0,72,248h2.767a112.436,112.436,0,0,0,12.949,20.927l.547-.428a40.136,40.136,0,0,0,1.994,8.754A39.815,39.815,0,0,0,83.326,288H56a40.045,40.045,0,0,0-40,40V488A8,8,0,0,0,24,496ZM304,305.376A24.039,24.039,0,0,1,320,328V480H304ZM216,480H136V464h80Zm56-176h16v96H272Zm32-96a24.035,24.035,0,0,1-20.535,23.747A112.267,112.267,0,0,0,288,200V185.376A24.039,24.039,0,0,1,304,208ZM93.531,41.853C94.32,36.327,97.756,32,101.353,32H250.647c3.6,0,7.033,4.327,7.822,9.853L266.205,96H85.8ZM83.51,112H268.49l2.286,16H81.224ZM48,208a24.039,24.039,0,0,1,16-22.624V200a112.267,112.267,0,0,0,4.535,31.747A24.036,24.036,0,0,1,48,208Zm2.356-48a23.961,23.961,0,0,1,22.629-16H279.016a23.964,23.964,0,0,1,22.628,16ZM80,200V176H272v24a95.046,95.046,0,0,1-12.015,46.548A40.021,40.021,0,0,0,209.793,226.6,40.067,40.067,0,0,0,176,208v-8a8,8,0,0,0-16,0v11.368A40.109,40.109,0,0,0,142.207,226.6a40.021,40.021,0,0,0-50.192,19.949A95.046,95.046,0,0,1,80,200ZM232,328a24.1,24.1,0,0,1-6.376-.862,8,8,0,0,0-10.038,6.581,40,40,0,0,1-79.172,0,8,8,0,0,0-10.038-6.581,24,24,0,0,1-21.507-41.763,8,8,0,0,0,1.992-10A23.685,23.685,0,0,1,104,264a24,24,0,0,1,37.346-19.948,8,8,0,0,0,12.006-4,24,24,0,0,1,45.3,0,8,8,0,0,0,12.006,4,24,24,0,0,1,34.485,31.32,8,8,0,0,0,1.992,10A24,24,0,0,1,232,328Zm24,7.978V400H184V383.408a56.392,56.392,0,0,0,45.684-39.475Q230.841,344,232,344A39.788,39.788,0,0,0,256,335.978Zm-88,47.43V400H96V335.978A39.788,39.788,0,0,0,120,344q1.159,0,2.316-.067A56.392,56.392,0,0,0,168,383.408ZM64,304H80v96H64Zm0,112H288v64H232V456a8,8,0,0,0-8-8H128a8,8,0,0,0-8,8v24H64ZM32,328a24.039,24.039,0,0,1,16-22.624V480H32Z"/><circle cx="216" cy="200" r="8"/><circle cx="136" cy="200" r="8"/><path d="M192,256H160a8,8,0,0,0,0,16h32a8,8,0,0,0,0-16Z"/></svg>
