<?xml version="1.0"?>
<svg xmlns="http://www.w3.org/2000/svg" id="Outline" viewBox="0 0 512 512" width="512" height="512"><path d="M24,496H472a8,8,0,0,0,7.892-6.685l16-96A8,8,0,0,0,488,384h-1.812l9.118-48.628a40.034,40.034,0,0,0-14.961-39.108l9.364-28.091A21.386,21.386,0,0,0,456,244.741a21.392,21.392,0,0,0-33.709,23.432L431.1,294.6a39.958,39.958,0,0,0-17.946,31.472A39.929,39.929,0,0,0,360,336.028a40.05,40.05,0,0,0-24.683-15.345,40.122,40.122,0,0,0-26.926-30.709c.956-.614,1.886-1.23,2.764-1.848C328.661,275.8,335.118,260.64,335.385,260a8,8,0,0,0-11.045-10.19c-3.575,1.841-13.548,6.972-25.012-6.805a39.967,39.967,0,0,0,4.644-67H312a8,8,0,0,0,7.761-9.94L317.82,158.3a39.933,39.933,0,0,0-30.765-29.484L274.309,39.59C272.356,25.921,262.4,16,250.646,16H101.354C89.6,16,79.644,25.921,77.691,39.589L64.945,128.815A39.933,39.933,0,0,0,34.18,158.3l-1.941,7.761A8,8,0,0,0,40,176h8.028a39.97,39.97,0,0,0,4.742,67.062c-5.077,6.287-13.379,12.784-25.11,6.748A8,8,0,0,0,16.615,260c.249.6,6.293,14.8,22.5,26.872,1.482,1.1,2.99,2.12,4.508,3.1A40.064,40.064,0,0,0,16,328V488A8,8,0,0,0,24,496Zm192-16H136V464h80Zm16,0V456a8,8,0,0,0-8-8H128a8,8,0,0,0-8,8v24H64V416H259.889l10.667,64ZM64,400V304H80v96Zm192.108-6.685L257.222,400H184V318l43.2,32.4A8,8,0,0,0,240,344V302.906a137.06,137.06,0,0,0,16,1.046S255.9,392.04,256.108,393.315Zm-56.725-83.778A111.107,111.107,0,0,0,224,301.179V328ZM176,296a96.108,96.108,0,0,1-96-96V176H272v24A96.108,96.108,0,0,1,176,296Zm-23.383,13.537L128,328V301.179A111.107,111.107,0,0,0,152.617,309.537ZM112,302.908V344a8,8,0,0,0,12.8,6.4L168,318v82H96V303.941A138.306,138.306,0,0,0,112,302.908ZM296,360a24.028,24.028,0,0,1,24,24H272A24.028,24.028,0,0,1,296,360Zm-24-7.978V304h16v40.805A39.841,39.841,0,0,0,272,352.022ZM465.223,480H286.777l-8-48H473.223Zm10.667-64H276.11l-2.667-16H478.557Zm-15.24-48h12.258l-3,16H464A39.759,39.759,0,0,0,460.65,368ZM464,261.4a5.409,5.409,0,0,1,5.4-5.4,5.4,5.4,0,0,1,5.126,7.112l-8.707,26.122c-.6-.152-1.21-.292-1.822-.416Zm-25.787-3.159A5.346,5.346,0,0,1,442.6,256a5.409,5.409,0,0,1,5.4,5.4v26.934q-1.016.129-2.018.308l-8.511-25.533A5.342,5.342,0,0,1,438.213,258.244ZM446.548,320H430.48a24,24,0,0,1,22.625-16h2.885a24,24,0,0,1,23.589,28.423L475.908,352h-21.36a7.954,7.954,0,0,0-4.683,1.523,39.885,39.885,0,0,0-18.032-8.748L430.187,336h16.361a8,8,0,0,0,0-16ZM424,360a24.028,24.028,0,0,1,24,24H400A24.028,24.028,0,0,1,424,360Zm-32-24a23.979,23.979,0,0,1,19.486,10.016A40.16,40.16,0,0,0,392,360.028a40.16,40.16,0,0,0-19.486-14.012A23.979,23.979,0,0,1,392,336Zm-32,24a24.028,24.028,0,0,1,24,24H336A24.028,24.028,0,0,1,360,360Zm-32-24a23.979,23.979,0,0,1,19.486,10.016A40.16,40.16,0,0,0,328,360.028a40.16,40.16,0,0,0-19.486-14.012A23.979,23.979,0,0,1,328,336Zm-9.032-14.959A39.843,39.843,0,0,0,304,328.022V305.376A24.11,24.11,0,0,1,318.968,321.041Zm-8.583-53.159c-10.547,10.561-30.373,22.71-64.5,19.569A112.7,112.7,0,0,0,277.179,248H280c1.023,0,2.033-.051,3.037-.127C290.909,259.441,300.3,266.231,310.385,267.882ZM304,208a24.035,24.035,0,0,1-20.592,23.754A111.652,111.652,0,0,0,288,200V185.376A24.039,24.039,0,0,1,304,208ZM93.531,41.852C94.32,36.327,97.756,32,101.354,32H250.646c3.6,0,7.034,4.327,7.823,9.853L266.2,96H85.8ZM83.51,112H268.49l2.286,16H81.224ZM72.984,144H279.016a23.964,23.964,0,0,1,22.628,16H50.356A23.964,23.964,0,0,1,72.984,144ZM48,208a24.039,24.039,0,0,1,16-22.624V200a111.652,111.652,0,0,0,4.592,31.754A24.035,24.035,0,0,1,48,208Zm-6.528,59.892c10.14-1.617,19.6-8.406,27.5-20.018,1,.075,2.01.126,3.03.126h2.821a112.693,112.693,0,0,0,31.3,39.461C71.743,290.685,51.944,278.5,41.472,267.892ZM32,328a24.039,24.039,0,0,1,16-22.624V480H32Z"/><circle cx="216" cy="200" r="8"/><circle cx="136" cy="200" r="8"/><path d="M219.077,224.615a8,8,0,0,0-10.462,4.308C208.536,229.114,200.385,248,176,248c-24.03,0-32.3-18.353-32.615-19.077a8,8,0,0,0-14.77,6.154C129.107,236.258,141.068,264,176,264s46.893-27.742,47.385-28.923A8,8,0,0,0,219.077,224.615Z"/><path d="M168,224h16a8,8,0,0,0,0-16h-8v-8a8,8,0,0,0-16,0v16A8,8,0,0,0,168,224Z"/></svg>
