<?xml version="1.0"?>
<svg xmlns="http://www.w3.org/2000/svg" id="Outline" viewBox="0 0 512 512" width="512" height="512"><path d="M204.983,176a26.514,26.514,0,0,0,22.659-13.075,30.168,30.168,0,0,0,1-29.374L175.1,30.048a26.016,26.016,0,0,0-46.2,0l-53.539,103.5a30.168,30.168,0,0,0,1,29.374A26.514,26.514,0,0,0,99.017,176H128V384H112a8,8,0,0,0-7.428,5.029l-16,40A8,8,0,0,0,88,432v40a24.028,24.028,0,0,0,24,24h80a24.028,24.028,0,0,0,24-24V432a8,8,0,0,0-.572-2.971l-16-40A8,8,0,0,0,192,384H176V176Zm-18.4,224L200,433.541V472a8.009,8.009,0,0,1-8,8H112a8.009,8.009,0,0,1-8-8V433.541L117.416,400H136a8,8,0,0,0,8-8V320h16v72a8,8,0,0,0,8,8ZM160,288v16H144V288Zm-16-16V136a8,8,0,0,1,8.4-7.991,8.328,8.328,0,0,1,7.6,8.443V272Zm9.149-159.973a23.817,23.817,0,0,0-17.713,6.606A24.109,24.109,0,0,0,128,136v24H99.017c-5.153,0-8-3.771-8.991-5.393a14.077,14.077,0,0,1-.454-13.705L143.111,37.4a10.017,10.017,0,0,1,17.778,0l53.539,103.5a14.075,14.075,0,0,1-.454,13.7c-.987,1.622-3.838,5.393-8.991,5.393H176V136.452A24.2,24.2,0,0,0,153.149,112.027Z"/><path d="M120,424v32a8,8,0,0,0,8,8h48a8,8,0,0,0,8-8V424a8,8,0,0,0-8-8H128A8,8,0,0,0,120,424Zm16,8h32v16H136Z"/><path d="M320,424v32a8,8,0,0,0,8,8h48a8,8,0,0,0,8-8V424a8,8,0,0,0-8-8H328A8,8,0,0,0,320,424Zm16,8h32v16H336Z"/><path d="M304,16h-8.969a24.043,24.043,0,0,0-23.953,22.5l-7.062,113c-.011.166-.016.332-.016.5v16a40.045,40.045,0,0,0,40,40h24V384H312a8,8,0,0,0-7.428,5.029l-16,40A8,8,0,0,0,288,432v40a24.027,24.027,0,0,0,24,24h80a24.027,24.027,0,0,0,24-24V432a8,8,0,0,0-.572-2.971l-16-40A8,8,0,0,0,392,384H376V208h24a40.045,40.045,0,0,0,40-40V152c0-.167,0-.333-.016-.5l-7.062-113A24.042,24.042,0,0,0,408.969,16H400a8,8,0,0,0-8,8V144H376V40a24,24,0,0,0-48,0V144H312V24A8,8,0,0,0,304,16Zm82.584,384L400,433.541V472a8.009,8.009,0,0,1-8,8H312a8.009,8.009,0,0,1-8-8V433.541L317.416,400H336a8,8,0,0,0,8-8V352h16v40a8,8,0,0,0,8,8ZM360,320v16H344V320Zm-16-16V208h16v96Zm-8-144a8,8,0,0,0,8-8V40a8,8,0,0,1,16,0V152a8,8,0,0,0,8,8h32a8,8,0,0,0,8-8V32h.969a8.014,8.014,0,0,1,7.984,7.5L424,152.25V168a24.028,24.028,0,0,1-24,24H304a24.028,24.028,0,0,1-24-24V152.25L287.047,39.5a8.014,8.014,0,0,1,7.984-7.5H296V152a8,8,0,0,0,8,8Z"/></svg>
