<?xml version="1.0"?>
<svg xmlns="http://www.w3.org/2000/svg" id="Outline" viewBox="0 0 512 512" width="512" height="512"><path d="M488,152H464V112a8,8,0,0,0-1.344-4.438l-32-48a8,8,0,0,0-13.312,0l-32,48A8,8,0,0,0,384,112v40H352V112a8,8,0,0,0-1.344-4.438l-32-48a8,8,0,0,0-13.312,0l-32,48A8,8,0,0,0,272,112v40H240V112a8,8,0,0,0-1.344-4.438l-32-48a8,8,0,0,0-13.312,0l-32,48A8,8,0,0,0,160,112v40H128V112a7.993,7.993,0,0,0-1.344-4.438l-32-48a8,8,0,0,0-13.312,0l-32,48A7.993,7.993,0,0,0,48,112v40H24a8,8,0,0,0-8,8v64a8,8,0,0,0,8,8H48v32H24a8,8,0,0,0-8,8v64a8,8,0,0,0,8,8H48v32H24a8,8,0,0,0-8,8v64a8,8,0,0,0,8,8H488a8,8,0,0,0,8-8V384a8,8,0,0,0-8-8H464V344h24a8,8,0,0,0,8-8V272a8,8,0,0,0-8-8H464V232h24a8,8,0,0,0,8-8V160A8,8,0,0,0,488,152ZM48,440H32V392H48Zm0-112H32V280H48Zm0-112H32V168H48Zm64-56V440H64V114.422l24-36,24,36Zm48,280H128V392h32Zm0-64H128V344h32Zm0-48H128V280h32Zm0-64H128V232h32Zm0-48H128V168h32Zm64,224H176V114.422l24-36,24,36Zm48,0H240V392h32Zm0-64H240V344h32Zm0-48H240V280h32Zm0-64H240V232h32Zm0-48H240V168h32Zm64,224H288V114.422l24-36,24,36Zm48,0H352V392h32Zm0-64H352V344h32Zm0-48H352V280h32Zm0-64H352V232h32Zm0-48H352V168h32Zm64,224H400V114.422l24-36,24,36Zm32-48v48H464V392Zm0-112v48H464V280Zm0-64H464V168h16Z"/><circle cx="88" cy="128" r="8"/><circle cx="200" cy="128" r="8"/><circle cx="312" cy="128" r="8"/><circle cx="424" cy="128" r="8"/><circle cx="88" cy="400" r="8"/><circle cx="200" cy="400" r="8"/><circle cx="312" cy="400" r="8"/><circle cx="424" cy="400" r="8"/></svg>
