<?xml version="1.0"?>
<svg xmlns="http://www.w3.org/2000/svg" id="Outline" viewBox="0 0 512 512" width="512" height="512"><path d="M494.1,258.818l-136-160A8,8,0,0,0,347,97.753l-111.8,89.437-62.768-41.846a7.993,7.993,0,0,0-9.349.342l-144,112,0,0A7.98,7.98,0,0,0,16,264V488a8,8,0,0,0,8,8H488a8,8,0,0,0,8-8V264a7.962,7.962,0,0,0-1.908-5.178ZM350.934,115.1,470.7,256H338.422l-89.245-59.5ZM168.36,161.854l141.267,94.179a87.585,87.585,0,0,0-53.608,20.118A87.419,87.419,0,0,0,200,256H47.316ZM160,480H32V416H152a8.009,8.009,0,0,1,8,8Zm64,0H176V424a24.028,24.028,0,0,0-24-24H32V352H200a24.028,24.028,0,0,1,24,24Zm0-135.978A39.788,39.788,0,0,0,200,336H32V272H200a71.518,71.518,0,0,1,44.6,15.486A87.6,87.6,0,0,0,224,344ZM480,480H384V424a8.009,8.009,0,0,1,8-8h88Zm0-80H392a24.028,24.028,0,0,0-24,24v56H320V376a24.028,24.028,0,0,1,24-24H480Zm0-64H344a40.045,40.045,0,0,0-40,40V480H240V344a72.081,72.081,0,0,1,72-72H480Z"/><path d="M192,64a48,48,0,1,0,48-48A48.053,48.053,0,0,0,192,64Zm80,0a32,32,0,1,1-32-32A32.036,32.036,0,0,1,272,64Z"/></svg>
