<svg id="Outline" height="512" viewBox="0 0 512 512" width="512" xmlns="http://www.w3.org/2000/svg"><path d="m160 248h56a8 8 0 0 0 0-16h-56a8 8 0 0 0 0 16z"/><path d="m456 296h-3.757c7.294-10.091 11.757-24.179 11.757-40 0-31.4-17.57-56-40-56a30.29 30.29 0 0 0 -3.955.264c7.409-10.108 11.955-24.303 11.955-40.264 0-31.4-17.57-56-40-56h-272c-22.43 0-40 24.6-40 56 0 15.821 4.463 29.909 11.757 40h-3.757c-22.43 0-40 24.6-40 56 0 15.821 4.463 29.909 11.757 40h-3.757c-22.43 0-40 24.6-40 56s17.57 56 40 56h400c22.43 0 40-24.6 40-56s-17.57-56-40-56zm-32-80c13.01 0 24 18.317 24 40s-10.99 40-24 40-24-18.317-24-40 10.99-40 24-40zm-32-96c13.01 0 24 18.317 24 40s-10.99 40-24 40-24-18.317-24-40 10.99-40 24-40zm0 102.017a53.463 53.463 0 0 0 -3.955-6.281 29.757 29.757 0 0 0 7.91 0 53.463 53.463 0 0 0 -3.955 6.281zm3.757 73.983h-7.514a53.645 53.645 0 0 0 3.757-6.017 53.645 53.645 0 0 0 3.757 6.017zm-11.757-40c0 21.683-10.99 40-24 40s-24-18.317-24-40 10.99-40 24-40 24 18.317 24 40zm-264-136h243.757c-7.294 10.091-11.757 24.179-11.757 40 0 2.723.141 5.391.4 8h-56.4a8 8 0 0 0 0 16h59.732a58.675 58.675 0 0 0 8.223 16.264 30.29 30.29 0 0 0 -3.955-.264h-240c-7.051 0-14.4-5.955-19.078-16h35.078a8 8 0 0 0 0-16h-39.512a65.5 65.5 0 0 1 -.488-8c0-23.927 12.409-40 24-40zm-32 96h243.757c-7.294 10.091-11.757 24.179-11.757 40 0 2.723.141 5.391.4 8h-56.4a8 8 0 0 0 0 16h59.732a58.675 58.675 0 0 0 8.223 16.264 30.29 30.29 0 0 0 -3.955-.264h-240c-7.051 0-14.4-5.955-19.078-16h35.078a8 8 0 0 0 0-16h-39.512a65.5 65.5 0 0 1 -.488-8c0-23.927 12.409-40 24-40zm200.4 144h-56.4a8 8 0 0 0 0 16h59.732a58.884 58.884 0 0 0 8.025 16h-243.757c-7.051 0-14.4-5.955-19.078-16h35.078a8 8 0 0 0 0-16h-39.512a65.5 65.5 0 0 1 -.488-8c0-23.927 12.409-40 24-40h243.757c-7.294 10.091-11.757 24.179-11.757 40 0 2.723.141 5.391.4 8zm39.6 32c-13.01 0-24-18.317-24-40s10.99-40 24-40 24 18.317 24 40-10.99 40-24 40zm28.243 0a58.884 58.884 0 0 0 8.025-16h55.464a58.884 58.884 0 0 0 8.025 16zm59.757-40c0 2.723.141 5.391.4 8h-48.8c.255-2.609.4-5.277.4-8s-.141-5.391-.4-8h24.4a8 8 0 0 0 0-16h-27.732a58.884 58.884 0 0 0 -8.025-16h71.514c-7.294 10.091-11.757 24.179-11.757 40zm40 40c-13.01 0-24-18.317-24-40s10.99-40 24-40 24 18.317 24 40-10.99 40-24 40z"/><path d="m264 328h-48a8 8 0 0 0 0 16h48a8 8 0 0 0 0-16z"/><path d="m112 336a8 8 0 0 0 -8-8h-40a8 8 0 0 0 0 16h40a8 8 0 0 0 8-8z"/><path d="m136 344h48a8 8 0 0 0 0-16h-48a8 8 0 0 0 0 16z"/><path d="m200 360h-96a8 8 0 0 0 0 16h96a8 8 0 0 0 0-16z"/><path d="m248 248h48a8 8 0 0 0 0-16h-48a8 8 0 0 0 0 16z"/><path d="m96 248h40a8 8 0 0 0 0-16h-40a8 8 0 0 0 0 16z"/><path d="m136 264h-8a8 8 0 0 0 0 16h104a8 8 0 0 0 0-16z"/><path d="m280 152h48a8 8 0 0 0 0-16h-48a8 8 0 0 0 0 16z"/><path d="m128 152h40a8 8 0 0 0 0-16h-40a8 8 0 0 0 0 16z"/><path d="m200 152h48a8 8 0 0 0 0-16h-48a8 8 0 0 0 0 16z"/><path d="m160 176a8 8 0 0 0 8 8h96a8 8 0 0 0 0-16h-96a8 8 0 0 0 -8 8z"/></svg>