<svg id="Outline" enable-background="new 0 0 512 512" height="512" viewBox="0 0 512 512" width="512" xmlns="http://www.w3.org/2000/svg"><path d="m436.655 172.655c1.298-2.957.691-6.405-1.54-8.741-.689-.721-13-13.385-30.465-18.023 10.391-14.78 11.689-32.379 11.753-33.373.209-3.225-1.542-6.258-4.439-7.69-.893-.442-16.787-8.121-34.783-6.51 4.714-17.442-.093-34.428-.373-35.384-.909-3.098-3.591-5.346-6.8-5.7-.991-.113-18.549-1.9-34.91 5.769-1.54-18-11.863-32.321-12.453-33.124-1.912-2.603-5.202-3.8-8.34-3.036-.969.236-18.086 4.565-30.837 17.364-7.605-16.387-22.2-26.306-23.033-26.859-2.687-1.791-6.187-1.791-8.874 0-.829.553-15.425 10.47-23.031 26.864-12.752-12.8-29.87-17.133-30.839-17.369-3.138-.763-6.427.434-8.34 3.036-.59.8-10.914 15.12-12.454 33.123-16.36-7.666-33.918-5.88-34.908-5.768-3.209.354-5.891 2.602-6.8 5.7-.28.956-5.086 17.943-.372 35.385-18-1.611-33.89 6.067-34.784 6.509-2.897 1.432-4.648 4.465-4.439 7.69.064.994 1.362 18.6 11.755 33.376-17.466 4.638-29.779 17.3-30.467 18.02-2.231 2.335-2.839 5.783-1.541 8.741.4.913 7.636 17.012 22.456 27.345-14.819 10.333-22.055 26.432-22.456 27.345-1.298 2.958-.689 6.407 1.543 8.742.689.721 13 13.385 30.461 18.025-10.39 14.779-11.687 32.376-11.751 33.37-.209 3.225 1.542 6.258 4.439 7.69 9.336 4.296 19.466 6.593 29.742 6.743 1.654 0 3.338-.074 5.04-.227-4.71 17.44.094 34.422.374 35.378.907 3.1 3.589 5.35 6.8 5.705 1.934.187 3.876.273 5.819.259 6.7 0 18.164-.9 29.091-6.019 1.542 18 11.862 32.312 12.452 33.115 1.911 2.604 5.202 3.802 8.34 3.036.969-.236 18.086-4.565 30.837-17.364 5.449 11.741 14.475 20.157 19.47 24.189v34.637c-9.698-9.385-22.667-14.629-36.162-14.624h-19.836c-4.418 0-8 3.582-8 8v35.836c.033 28.796 23.368 52.132 52.164 52.164h39.672c28.796-.032 52.132-23.368 52.164-52.164v-35.836c0-4.418-3.582-8-8-8h-19.836c-13.496-.006-26.465 5.239-36.164 14.624v-34.638c4.994-4.032 14.018-12.447 19.467-24.192 12.752 12.8 29.871 17.133 30.84 17.368 3.138.766 6.429-.432 8.34-3.036.59-.8 10.909-15.115 12.453-33.113 10.926 5.119 22.387 6.018 29.089 6.017 1.944.014 3.886-.072 5.821-.259 3.211-.355 5.893-2.605 6.8-5.705.28-.956 5.084-17.938.373-35.378 1.7.153 3.387.227 5.041.227 10.276-.151 20.406-2.448 29.742-6.743 2.897-1.432 4.648-4.465 4.439-7.69-.064-.994-1.362-18.59-11.751-33.369 17.465-4.639 29.774-17.307 30.463-18.027 2.231-2.336 2.838-5.784 1.54-8.741-.4-.913-7.636-17.013-22.457-27.346 14.818-10.333 22.055-26.431 22.455-27.344zm-188.655 293.245-25.854-31.025c-2.761-3.449-7.796-4.007-11.245-1.246s-4.007 7.796-1.246 11.245c.065.082.201.241.201.241l29.064 34.885h-2.756c-19.965-.02-36.144-16.199-36.164-36.164v-27.836h11.836c19.965.02 36.144 16.199 36.164 36.164zm118.939-348.385c11.515-5.933 25.244-2.872 32.62-.415-1.581 7.632-5.847 21.1-16.716 28.072-.731.157-1.451.338-2.165.532-4.104-9.383-9.254-18.273-15.352-26.5.549-.548 1.089-1.104 1.613-1.689zm-34.962-32.869c8.791-9.588 22.781-11.432 30.572-11.645 1.126 7.715 1.727 21.84-6.12 32.1-.645.405-1.27.829-1.884 1.262-7.055-7.417-14.919-14.021-23.445-19.688.313-.663.6-1.343.877-2.029zm-44.006-19.1c5-11.982 17.5-18.484 24.735-21.341 3.7 6.834 9.106 19.808 5.281 32.177-.484.619-.945 1.251-1.389 1.89-9.161-4.58-18.814-8.103-28.772-10.5.066-.739.118-1.479.145-2.226zm-31.984-31.325c5.811 5.173 15.354 15.561 15.981 28.417-.242.74-.461 1.483-.658 2.229-10.174-1.156-20.447-1.156-30.621 0-.2-.746-.414-1.489-.656-2.228.632-12.926 10.143-23.267 15.954-28.418zm-56.695 9.985c7.245 2.86 19.741 9.362 24.737 21.34.027.747.079 1.488.144 2.224-9.958 2.397-19.61 5.92-28.771 10.5-.444-.639-.9-1.27-1.388-1.889-3.826-12.371 1.586-25.351 5.278-32.175zm-49.861 28.813c7.8.229 21.839 2.093 30.59 11.625.279.687.565 1.368.877 2.032-8.529 5.67-16.395 12.277-23.452 19.7-.592-.418-1.206-.814-1.827-1.2-7.943-10.322-7.333-24.44-6.188-32.157zm-4.369 44.5c.524.582 1.063 1.141 1.611 1.686-6.1 8.231-11.252 17.125-15.356 26.513-.688-.187-1.388-.346-2.092-.5-10.979-6.988-15.232-20.453-16.8-28.094 7.395-2.445 21.175-5.511 32.637.392zm-52.328 53.709c6.111-4.829 18.014-12.43 30.806-10.792.674.357 1.353.689 2.036 1.006-2.907 9.825-4.689 19.948-5.31 30.175-.739.063-1.48.141-2.223.245-12.662-2.838-21.235-14.004-25.309-20.634zm-.007 57.558c4.076-6.638 12.654-17.815 25.327-20.65.739.103 1.477.187 2.212.251.621 10.226 2.403 20.348 5.31 30.171-.683.317-1.363.649-2.038 1.007-12.859 1.635-24.723-5.946-30.811-10.779zm52.334 53.7c-11.525 5.943-25.265 2.869-32.636.411 1.565-7.648 5.817-21.122 16.8-28.112.7-.153 1.4-.311 2.091-.5 4.105 9.388 9.257 18.283 15.358 26.515-.549.544-1.088 1.1-1.613 1.684zm34.961 32.871c-8.8 9.594-22.8 11.434-30.587 11.644-1.146-7.707-1.76-21.788 6.134-32.105.646-.405 1.271-.829 1.886-1.262 7.055 7.418 14.919 14.023 23.445 19.691-.313.664-.6 1.344-.878 2.03zm44.007 19.1c-5 11.982-17.5 18.484-24.735 21.341-3.7-6.833-9.106-19.81-5.28-32.178.484-.619.944-1.25 1.388-1.889 9.161 4.58 18.814 8.103 28.772 10.5-.066.736-.118 1.476-.145 2.223zm76.135 81.543h11.836v27.836c-.02 19.965-16.199 36.144-36.164 36.164h-2.756l29.066-34.879c2.894-3.338 2.534-8.391-.804-11.285s-8.391-2.534-11.285.804c-.069.079-26.057 31.26-26.057 31.26v-13.74c.022-19.963 16.201-36.14 36.164-36.16zm-44.164-50.21c-5.819-5.154-15.345-15.5-15.968-28.426.242-.741.461-1.484.658-2.231 10.174 1.156 20.447 1.156 30.621 0 .2.745.414 1.489.656 2.228-.632 12.939-10.157 23.282-15.967 28.429zm56.708-10c-7.245-2.86-19.741-9.362-24.737-21.34-.027-.747-.079-1.488-.144-2.224 9.958-2.397 19.61-5.92 28.771-10.5.444.638.9 1.269 1.388 1.888 3.827 12.376-1.586 25.355-5.278 32.18zm49.861-28.813c-7.8-.229-21.842-2.093-30.591-11.627-.28-.686-.565-1.366-.876-2.03 8.529-5.67 16.395-12.278 23.452-19.7.592.418 1.206.814 1.826 1.2 7.944 10.327 7.334 24.444 6.189 32.161zm-106.569-6.977c-66.274 0-120-53.726-120-120s53.726-120 120-120 120 53.726 120 120c-.075 66.243-53.757 119.925-120 120zm110.938-37.517c-.524-.582-1.064-1.14-1.612-1.685 6.099-8.227 11.249-17.117 15.352-26.5.715.194 1.435.375 2.166.532 10.926 7 15.166 20.425 16.728 28.049-7.391 2.442-21.172 5.508-32.634-.396zm52.328-53.711c-6.111 4.829-18.022 12.426-30.807 10.791-.674-.356-1.353-.688-2.035-1 2.907-9.823 4.689-19.945 5.31-30.171.733-.063 1.471-.146 2.212-.251 12.669 2.829 21.244 13.999 25.32 20.631zm-25.31-36.91c-.743-.1-1.483-.182-2.222-.245-.621-10.227-2.403-20.35-5.31-30.175.682-.316 1.36-.648 2.033-1 12.865-1.645 24.73 5.939 30.816 10.774-4.073 6.633-12.648 17.807-25.317 20.646z"/><circle cx="256" cy="112" r="8"/><circle cx="256" cy="160" r="8"/><circle cx="256" cy="288" r="8"/><circle cx="256" cy="240" r="8"/><circle cx="296" cy="200" r="8"/><circle cx="216" cy="200" r="8"/><circle cx="312" cy="144" r="8"/><circle cx="200" cy="256" r="8"/><circle cx="312" cy="256" r="8"/><circle cx="200" cy="144" r="8"/><circle cx="344" cy="200" r="8"/><circle cx="168" cy="200" r="8"/></svg>