<?xml version="1.0"?>
<svg xmlns="http://www.w3.org/2000/svg" id="Outline" viewBox="0 0 512 512" width="512" height="512"><path d="M488,272H469.737c30.925-52.757,26.3-114.151,25.734-120.373V120a8,8,0,0,0-8-8H478.9c-10.5-26.676-29.959-50.481-55.29-67.488C395.826,25.859,362.766,16,328,16c-.837,0-1.67.017-2.5.029-.5-.012-1-.029-1.5-.029-1.891,0-3.771.1-5.641.269C234.607,20.772,168,83.511,168,160c0,.026,0,.051,0,.077a61.742,61.742,0,0,0-12.328.829,23.635,23.635,0,0,0-12.4,6.593,34.97,34.97,0,0,1-6.207,4.773c1.842-12.718,6.866-32.89,20.59-46.615a8,8,0,0,0-11.314-11.314,82.347,82.347,0,0,0-17.634,27.34A35,35,0,0,0,100.955,128H88a8,8,0,0,0-8,8v20.955a35.114,35.114,0,0,0,.19,3.645c-8.109,1.038-18.709,3.767-27.939,10.642C35.514,183.71,32,203.1,32,217.179A188.644,188.644,0,0,0,40.161,272H24a8,8,0,0,0-8,8V488a8,8,0,0,0,8,8H488a8,8,0,0,0,8-8V280A8,8,0,0,0,488,272ZM463.471,128h16v16h-16ZM414.687,57.8C435.445,71.734,451.741,90.7,461.492,112h-6.021a8,8,0,0,0-8,8v30.584c-1.837,4.779-10.1,24.206-29.658,43.759q-2.568,2.57-5.247,4.989A222.878,222.878,0,0,0,416,160c0-37.791-9.161-73.437-25.8-100.37a116.427,116.427,0,0,0-16.4-21.046A150.1,150.1,0,0,1,414.687,57.8ZM336,33.632c15.105,4.122,29.208,15.977,40.591,34.405C391.687,92.479,400,125.138,400,160a200.1,200.1,0,0,1-7.134,53.847l.583.163Q368.213,230.258,336,236.377Zm93.128,172.025A152.921,152.921,0,0,0,460.89,160h19c.533,18.791-.906,70.635-29.094,112H302.2a72.054,72.054,0,0,0,1.8-16c0-.054,0-.106,0-.16C367.8,253.688,407.127,227.657,429.128,205.657ZM319.645,32.221,320,32.2V238.722q-8.7.93-17.838,1.177a72.231,72.231,0,0,0-52.538-53.709A211.181,211.181,0,0,1,248,160c0-34.862,8.313-67.521,23.409-91.963C284.693,46.53,301.682,33.974,319.645,32.221ZM288,256a55.9,55.9,0,0,1-2.317,16H178.317A56.007,56.007,0,1,1,288,256ZM270.274,42.748A121.061,121.061,0,0,0,257.8,59.63C241.161,86.563,232,122.209,232,160a228.159,228.159,0,0,0,1.269,24.032c-.424-.007-.843-.032-1.269-.032a71.943,71.943,0,0,0-15.46,1.689c-7.813-13.679-20.432-20.436-32.5-23.471-.014-.74-.036-1.481-.036-2.218C184,107.66,219.531,62.564,270.274,42.748ZM96,144h4.955A19.067,19.067,0,0,1,120,163.045V176h-4.955A19.067,19.067,0,0,1,96,156.955ZM85.727,176.12A35.037,35.037,0,0,0,115.045,192s12.4.161,12.943.162H128v.006c9.132,0,21.047-7.811,26.591-13.357a7.687,7.687,0,0,1,4.019-2.176c.307-.059,28.872-4.737,42.378,14.4A71.977,71.977,0,0,0,161.8,272H57a170.458,170.458,0,0,1-9-54.821C48,183.982,70.59,177.042,85.727,176.12ZM480,480H32V448H480Zm0-48H32V416H480Zm0-32H32V368H480Zm0-48H32V336H480Zm0-32H32V288H480Z"/></svg>
