<svg id="Outline" height="512" viewBox="0 0 512 512" width="512" xmlns="http://www.w3.org/2000/svg"><path d="m368 256h-24.046c.03-2.76.046-5.529.046-8.286 0-64.082-8.5-122.462-23.924-164.385-14.767-40.13-35.328-63.579-58.367-66.9a15.02 15.02 0 0 0 -5.709-.56 15 15 0 0 0 -5.7.557c-23.041 3.321-43.6 26.77-58.372 66.9-15.428 41.926-23.928 100.306-23.928 164.388 0 2.757.016 5.526.046 8.286h-24.046a8 8 0 0 0 -8 8v112a120 120 0 0 0 240 0v-112a8 8 0 0 0 -8-8zm-141.964-204.554q-2.942 9.5-5.435 21.609c-.463 2.247-.912 4.57-1.349 6.945h-8.9c4.828-11.52 10.118-21.077 15.684-28.554zm-21.676 44.554h12.276q-2.133 14.708-3.745 32h-17.27a318.887 318.887 0 0 1 8.739-32zm-11.934 48h19.129q-1.127 15.139-1.9 32h-21.855q1.9-16.9 4.626-32zm-6.186 48h22.779q-.526 15.36-.779 32h-23.849q.552-16.636 1.849-32zm-2.2 48h24.014q-.054 7.873-.054 16v1.815a71.924 71.924 0 0 0 -16-1.815h-7.951c-.032-2.76-.031-13.447-.004-16zm63.96 239.7a104.139 104.139 0 0 1 -96-103.7v-104h40a56.063 56.063 0 0 1 56 56zm0-196.88a72.451 72.451 0 0 0 -23.984-19.279q-.016-3.734-.016-7.541 0-8.2.059-16h23.941zm0-58.82h-23.759q.264-16.977.793-32h22.966zm0-48h-22.317c.538-11.569 1.189-22.21 1.932-32h20.385zm0-48h-19.025c1.151-12.128 2.448-22.73 3.833-32h15.192zm0-48h-12.481c4.206-21.9 8.824-33.893 12.481-40.44zm79.951 176h-7.951a71.924 71.924 0 0 0 -16 1.815c0-.609 0-1.2 0-1.815q0-8.135-.059-16h24.014c.027 2.553.028 13.24-.004 16zm-.342-32h-23.849q-.253-16.627-.779-32h22.779q1.283 15.36 1.849 32zm-3.409-48h-21.86q-.771-16.844-1.895-32h19.129q2.712 15.092 4.626 32zm-7.819-48h-17.27q-1.609-17.3-3.745-32h12.274a318.887 318.887 0 0 1 8.739 32zm-14.729-48h-8.9c-.437-2.375-.886-4.7-1.349-6.945q-2.5-12.126-5.435-21.609c5.562 7.477 10.852 17.034 15.684 28.554zm-37.652-40.282c3.428 6.2 7.736 17.182 11.729 36.565q.377 1.828.741 3.717h-12.47zm0 56.282h15.2q2.2 14.609 3.846 32h-19.046zm0 48h20.406q1.143 15.106 1.925 32h-22.331zm0 48h22.975q.529 15.341.785 32h-23.76zm0 48h23.941q.057 7.871.059 16 0 3.813-.016 7.536a72.451 72.451 0 0 0 -23.984 19.279zm96 136a104.139 104.139 0 0 1 -96 103.7v-151.7a56.063 56.063 0 0 1 56-56h40z"/></svg>