<?xml version="1.0"?>
<svg xmlns="http://www.w3.org/2000/svg" id="Outline" viewBox="0 0 512 512" width="512" height="512"><path d="M184,136a23.853,23.853,0,0,0-8.846,1.7A24,24,0,0,0,128,144v17.376A23.992,23.992,0,0,0,96,184v41.376A23.992,23.992,0,0,0,64,248V368c0,20.461,9.616,37.157,24,44.28V488a8,8,0,0,0,8,8H208a8,8,0,0,0,8-8V412.28c14.384-7.123,24-23.819,24-44.28V208a23.992,23.992,0,0,0-32-22.624V160A24.028,24.028,0,0,0,184,136Zm16,344H104V416h96Zm16-280a8.009,8.009,0,0,1,8,8V368c0,18.542-10.093,32-24,32H104c-13.907,0-24-13.458-24-32V248a8,8,0,0,1,16,0v48a8,8,0,0,0,8.992,7.938c.275-.036,27.975-3.054,43.671,10.8C156.292,321.473,160,331.045,160,344a8,8,0,0,0,16,0c0-17.565-5.635-31.445-16.749-41.256C144.469,289.694,123.8,287.6,112.057,287.6H112V184a8,8,0,0,1,16,0v72a8,8,0,0,0,16,0V144a8,8,0,0,1,16,0V256a8,8,0,0,0,16,0V160a8,8,0,0,1,16,0v96a8,8,0,0,0,16,0V208A8.009,8.009,0,0,1,216,200Z"/><path d="M416,16H304a8,8,0,0,0-8,8V99.72c-14.384,7.123-24,23.819-24,44.28V304a23.992,23.992,0,0,0,32,22.624V352a23.985,23.985,0,0,0,32.846,22.3A24,24,0,0,0,384,368V350.624A23.992,23.992,0,0,0,416,328V286.624A23.992,23.992,0,0,0,448,264V144c0-20.461-9.616-37.157-24-44.28V24A8,8,0,0,0,416,16ZM312,32h96V96H312ZM432,144V264a8,8,0,0,1-16,0V216a8,8,0,0,0-8.992-7.938c-.277.033-27.977,3.054-43.671-10.8C355.708,190.527,352,180.955,352,168a8,8,0,0,0-16,0c0,17.565,5.635,31.445,16.749,41.256,14.782,13.05,35.454,15.143,47.194,15.143H400V328a8,8,0,0,1-16,0V256a8,8,0,0,0-16,0V368a8,8,0,0,1-16,0V256a8,8,0,0,0-16,0v96a8,8,0,0,1-16,0V256a8,8,0,0,0-16,0v48a8,8,0,0,1-16,0V144c0-18.542,10.093-32,24-32h96C421.907,112,432,125.458,432,144Z"/></svg>
