<?xml version="1.0"?>
<svg xmlns="http://www.w3.org/2000/svg" id="Outline" viewBox="0 0 512 512" width="512" height="512"><path d="M488,400a8,8,0,0,0,0-16h-8V368a8,8,0,0,0-16,0v16H432V368a8,8,0,0,0-16,0v16H400V227.314l11.029,11.03a24.031,24.031,0,0,0,33.942,0l1.373-1.373a24.029,24.029,0,0,0,0-33.942L261.657,18.343a8,8,0,0,0-11.314,0L65.657,203.029a24.028,24.028,0,0,0,0,33.942l1.373,1.373a24.027,24.027,0,0,0,33.94,0L112,227.314V384H96V368a8,8,0,0,0-16,0v16H48V368a8,8,0,0,0-16,0v16H24a8,8,0,0,0,0,16h8v16H24a8,8,0,0,0,0,16h8v16H24a8,8,0,0,0-8,8v32a8,8,0,0,0,8,8H488a8,8,0,0,0,8-8V456a8,8,0,0,0-8-8h-8V432h8a8,8,0,0,0,0-16h-8V400Zm-56,0h32v16H432Zm0,32h32v16H432Zm-16-32v16H400V400Zm0,32v16H400V432ZM89.657,227.029a8,8,0,0,1-11.314,0l-1.373-1.373a8.007,8.007,0,0,1,0-11.312L256,35.313,435.029,214.344a8.007,8.007,0,0,1,0,11.312l-1.373,1.373a8,8,0,0,1-11.312,0L261.657,66.343a8,8,0,0,0-11.314,0ZM368,416V400h16v16Zm16,16v16H368V432Zm-16-48V368a8,8,0,0,0-16,0v80H312V320h16a8,8,0,0,0,8-8V280a8,8,0,0,0-8-8H184a8,8,0,0,0-8,8v32a8,8,0,0,0,8,8h16V448H160V368a8,8,0,0,0-16,0v16H128V211.314l128-128,128,128V384ZM192,304V288H320v16Zm104,16V448H216V320ZM128,416V400h16v16Zm16,16v16H128V432ZM96,400h16v16H96Zm0,32h16v16H96ZM48,400H80v16H48Zm0,32H80v16H48Zm432,48H32V464H480Z"/><path d="M256,144a48,48,0,1,0,48,48A48.054,48.054,0,0,0,256,144Zm0,80a32,32,0,1,1,32-32A32.036,32.036,0,0,1,256,224Z"/><path d="M240,400a8,8,0,0,0,8-8V376a8,8,0,0,0-16,0v16A8,8,0,0,0,240,400Z"/></svg>
