<?xml version="1.0"?>
<svg xmlns="http://www.w3.org/2000/svg" id="Outline" viewBox="0 0 512 512" width="512" height="512"><path d="M164.215,143.261l-8.951-8.951a31.787,31.787,0,0,0-44.954,44.954l22.426,22.426a31.887,31.887,0,0,0,5.529,4.418A72.468,72.468,0,0,0,136,224V455.919A40.086,40.086,0,0,0,176,496H336a40.086,40.086,0,0,0,40-40.081V224a72.468,72.468,0,0,0-2.265-17.892,31.887,31.887,0,0,0,5.529-4.418l22.426-22.426a31.787,31.787,0,0,0-44.954-44.954l-8.951,8.951L344,134.368V96h16a8,8,0,0,0,7.766-9.923l-1.922-7.761A39.7,39.7,0,0,0,327.324,48H288a32,32,0,0,0-64,0H184.676a39.7,39.7,0,0,0-38.52,30.316l-1.922,7.761A8,8,0,0,0,152,96h16v38.368ZM144.13,190.449c-.026-.025-.054-.048-.079-.073l-22.427-22.427a15.786,15.786,0,1,1,22.325-22.325l13.51,13.509ZM336,480H176a24.045,24.045,0,0,1-22.606-16H358.606A24.045,24.045,0,0,1,336,480Zm24-32H152V224a56.5,56.5,0,0,1,2.33-16H357.67A56.5,56.5,0,0,1,360,224Zm8.051-302.376a15.786,15.786,0,0,1,22.325,22.325l-22.427,22.427c-.025.025-.053.048-.079.073l-13.329-31.316ZM256,32a16.019,16.019,0,0,1,16,16H240A16.019,16.019,0,0,1,256,32ZM162.33,80a23.689,23.689,0,0,1,22.346-16H327.324A23.686,23.686,0,0,1,349.67,80ZM328,96v32H184V96ZM181.289,144H330.711l20.43,48H160.859Z"/></svg>
