<?xml version="1.0"?>
<svg xmlns="http://www.w3.org/2000/svg" id="Outline" viewBox="0 0 512 512" width="512" height="512"><path d="M288,416a24,24,0,1,0-24-24A24.027,24.027,0,0,0,288,416Zm0-32a8,8,0,1,1-8,8A8.009,8.009,0,0,1,288,384Z"/><path d="M392,464a32,32,0,1,0-32-32A32.036,32.036,0,0,0,392,464Zm0-48a16,16,0,1,1-16,16A16.019,16.019,0,0,1,392,416Z"/><circle cx="424" cy="376" r="8"/><circle cx="320" cy="448" r="8"/><path d="M480,424a8,8,0,0,0,8-8V344a8,8,0,0,0-8-8H392a8,8,0,0,0-8,8,16,16,0,0,1-32,0V232c0-19.414-10.742-39.06-23.181-61.809-14.3-26.145-30.354-55.536-32.555-90.191H310a10.011,10.011,0,0,0,10-10V26a10.011,10.011,0,0,0-10-10H170a10.011,10.011,0,0,0-10,10V70a10.011,10.011,0,0,0,10,10h13.736c-2.2,34.655-18.26,64.046-32.555,90.191-10.735,19.632-20.2,36.953-22.593,53.809H32a8,8,0,0,0-7.965,8.747l24,256A8,8,0,0,0,56,496H480a8,8,0,0,0,8-8V448a8,8,0,0,0-8-8,8,8,0,0,1,0-16ZM176,64V32H304V64Zm23.769,16h80.462c1.351,23.6,8.5,44.932,17.166,64H182.6C191.267,124.932,198.418,103.6,199.769,80ZM40.785,240h142.43l-4.5,48H45.285Zm119.93,240H63.285l-16.5-176h130.43ZM232,344V480H176.785l23.18-247.253A8,8,0,0,0,192,224H144.808c2.566-13.486,10.949-28.828,20.411-46.133,3.1-5.671,6.351-11.639,9.571-17.867H305.21c3.22,6.228,6.47,12.2,9.571,17.867C326.167,198.691,336,216.675,336,232V336H240A8,8,0,0,0,232,344Zm240,65.371a24,24,0,0,0,0,45.258V480H248V352h89.013a32,32,0,0,0,61.974,0H472Z"/></svg>
