<?xml version="1.0"?>
<svg xmlns="http://www.w3.org/2000/svg" id="Outline" viewBox="0 0 512 512" width="512" height="512"><path d="M76.127,266.505,77.3,287.627a88.379,88.379,0,0,0,36.55,66.562l5.109,71.521A24.085,24.085,0,0,0,142.9,448h50.2a24.085,24.085,0,0,0,23.939-22.29l2.526-35.367A141.808,141.808,0,0,0,240,392a157.351,157.351,0,0,0,28.339-2.979l2.62,36.689A24.085,24.085,0,0,0,294.9,448h50.2a24.085,24.085,0,0,0,23.939-22.29l5.607-78.5a88.423,88.423,0,0,0,27.295-52.081A104.332,104.332,0,0,0,442,263.957c29.953-.909,54-22.066,54-47.957,0-20.446-15-37.938-36.056-44.842a104.166,104.166,0,0,0-12.736-27.821A40.059,40.059,0,0,0,480,104V72a8,8,0,0,0-8-8H436.492a23.966,23.966,0,0,0-23.283,18.179l-6.253,25.013a104.1,104.1,0,0,0-100.937,3.9l-7.228-28.91A23.966,23.966,0,0,0,275.508,64H240a8,8,0,0,0-8,8v32a40.045,40.045,0,0,0,40,40h.386a103.792,103.792,0,0,0-11.513,24.571c-7.7-.378-14.714-.571-20.873-.571-20.486,0-49.383,2.079-85.89,6.18a87.97,87.97,0,0,0-71.625,54.288c-9.745-5.322-22.262-14.182-25.623-24.3a28.411,28.411,0,0,0,11.217-.618A17.379,17.379,0,0,0,79.2,194.3c3.464-7.137,2.516-14.925-2.475-20.326a19.319,19.319,0,0,0-21.134-4.608c-3.24,1.269-9.449,4.8-12.974,13.883a122.032,122.032,0,0,1-14.408-7.488,8,8,0,0,0-8.412,13.611A136.47,136.47,0,0,0,40,199.555c.213,12.621,8.273,24.968,23.343,35.743a116.785,116.785,0,0,0,14.428,8.731A87.948,87.948,0,0,0,76.127,266.505ZM167.98,424.569A8.029,8.029,0,0,1,160,432H142.9a8.029,8.029,0,0,1-7.98-7.431l-4.352-60.923c.629.27,1.256.544,1.893.8,11.607,4.654,24.964,9.638,38.81,14.07Zm33.1,0A8.029,8.029,0,0,1,193.1,432H182.615a23.794,23.794,0,0,0,1.324-6.29l3.035-42.493c5.611,1.557,11.225,2.976,16.762,4.195ZM294.9,432a8.029,8.029,0,0,1-7.98-7.431l-2.786-39.008c5.206-1.3,10.444-2.74,15.653-4.286l3.174,44.435a23.794,23.794,0,0,0,1.324,6.29Zm58.184-7.431A8.029,8.029,0,0,1,345.1,432H326.9a8.029,8.029,0,0,1-7.98-7.431L315.47,376.3c11.423-3.84,22.36-7.966,32.071-11.86a87.163,87.163,0,0,0,10.184-4.885ZM480,216c0,17.645-17.944,32-40,32s-40-14.355-40-32,17.944-32,40-32S480,198.355,480,216ZM428.731,86.06A7.99,7.99,0,0,1,436.492,80H464v24a24.028,24.028,0,0,1-24,24H418.246ZM272,128a24.028,24.028,0,0,1-24-24V80h27.508a7.99,7.99,0,0,1,7.761,6.06L293.754,128Zm20.139,16H304a8,8,0,0,0,7.761-9.94l-1.638-6.551a88.025,88.025,0,0,1,92.835-4.327l-2.719,10.878A8,8,0,0,0,408,144h19.879a88.464,88.464,0,0,1,14.131,24.044c-.668-.021-1.336-.044-2.01-.044-30.878,0-56,21.533-56,48,0,21.313,16.3,39.417,38.764,45.663A87.984,87.984,0,0,1,292.139,144ZM155.9,190.08c35.916-4.034,64.213-6.08,84.1-6.08,5.126,0,10.889.14,17.194.417A103.921,103.921,0,0,0,384.439,301.068a72.364,72.364,0,0,1-42.853,48.526C298.5,366.869,263.375,376,240,376s-58.5-9.131-101.586-26.406A72.3,72.3,0,0,1,93.276,286.74L92.1,265.618A72.008,72.008,0,0,1,155.9,190.08Zm-94.478-5.817a3.359,3.359,0,0,1,3.553.565c.186.2.679.735-.168,2.48-.159.329-.3.613-1.184.871a13.8,13.8,0,0,1-5.755.047A7.2,7.2,0,0,1,61.418,184.263Z"/><circle cx="456" cy="216" r="8"/><circle cx="424" cy="216" r="8"/><circle cx="336" cy="168" r="8"/><circle cx="384" cy="168" r="8"/></svg>
