<?xml version="1.0"?>
<svg xmlns="http://www.w3.org/2000/svg" id="Outline" viewBox="0 0 512 512" width="512" height="512"><path d="M416,176h48a8,8,0,0,0,0-16H424V144a8,8,0,0,0-8-8H392V96h24a8,8,0,0,0,7.155-11.578l-32-64A8,8,0,0,0,384,16H80a8,8,0,0,0-7.155,4.422l-32,64A8,8,0,0,0,48,96H72V337.376A24.039,24.039,0,0,0,56,360v16a24.039,24.039,0,0,0,16,22.624V488a8,8,0,0,0,8,8H384a8,8,0,0,0,8-8V398.624A24.039,24.039,0,0,0,408,376V360a24.039,24.039,0,0,0-16-22.624V152h16v16A8,8,0,0,0,416,176ZM104,480H88V400h16Zm40,0H120V448h24Zm-24-48V400h64v32Zm104,48H160V448h64Zm-24-48V400h64v32Zm104,48H240V448h64Zm40,0H320V448h24Zm0-48H280V400h64Zm32,48H360V400h16Zm16-104a8.009,8.009,0,0,1-8,8H80a8.009,8.009,0,0,1-8-8V360a8.009,8.009,0,0,1,8-8H384a8.009,8.009,0,0,1,8,8ZM88,336V96h16V336ZM303.5,112h-143c-11.616,0-21.1,10.049-23.757,24H120V96H344v40H327.257C324.6,122.049,315.116,112,303.5,112Zm8.5,32c0,9.011-4.569,16-8.5,16H240V128h63.5C307.431,128,312,134.989,312,144ZM254.569,284.739,249.754,304H214.246l-12-48H221.04ZM245.626,256h16.128l-2.846,11.384ZM224,160H160.5c-3.931,0-8.5-6.989-8.5-16s4.569-16,8.5-16H224Zm-87.257-8c2.655,13.951,12.141,24,23.757,24H224v64H192a8,8,0,0,0-7.761,9.94l16,64A8,8,0,0,0,208,320h48a8,8,0,0,0,7.761-6.06l4.39-17.559,6.642,5.693,0,0A7.995,7.995,0,1,0,285.2,289.93l0,0-12.717-10.9,7.271-29.086A8,8,0,0,0,272,240H240V176h63.5c11.616,0,21.1-10.049,23.757-24H344V336H120V152ZM360,336V96h16V336ZM60.944,80l24-48H379.056l24,48Z"/></svg>
