<?xml version="1.0"?>
<svg xmlns="http://www.w3.org/2000/svg" id="Outline" viewBox="0 0 512 512" width="512" height="512"><path d="M24,72h90.672A232.115,232.115,0,0,0,24,256,232.059,232.059,0,0,0,371.858,457.043a233.305,233.305,0,0,0,60.2-50A8.039,8.039,0,0,0,432,408v32a7.974,7.974,0,0,0,.414,2.528l0,0,16,48A8,8,0,0,0,456,496h16a8,8,0,0,0,7.59-5.47l16-48,0,0A7.974,7.974,0,0,0,496,440V408a8,8,0,0,0-8-8V256A232.022,232.022,0,0,0,288,26.2V24a8,8,0,0,0-8-8H232a8,8,0,0,0-8,8H24a8,8,0,0,0-8,8V64A8,8,0,0,0,24,72ZM466.234,480h-4.468L451.1,448h25.8ZM480,432H448V416h32ZM288,42.363A216.037,216.037,0,0,1,472,256V400H456V256c0-98.322-71.737-181.968-168-197.439Zm0,32.412C375.271,90.058,440,166.41,440,256c0,101.458-82.542,184-184,184S72,357.458,72,256c0-89.59,64.729-165.942,152-181.225V91.052A168.044,168.044,0,0,0,88,256c0,92.636,75.364,168,168,168s168-75.364,168-168A168.044,168.044,0,0,0,288,91.052ZM240,32h32v72a8.009,8.009,0,0,1-8,8H248a8.009,8.009,0,0,1-8-8Zm-15.763,75.333A24.033,24.033,0,0,0,248,128h16a24.033,24.033,0,0,0,23.763-20.667A152.046,152.046,0,0,1,408,256c0,83.813-68.187,152-152,152S104,339.813,104,256A152.046,152.046,0,0,1,224.237,107.333ZM224,58.561C127.737,74.032,56,157.678,56,256c0,110.28,89.72,200,200,200,82.482,0,153.457-50.193,184-121.636v34.787A215.771,215.771,0,0,1,256,472,216,216,0,0,1,95.772,111.142,216.774,216.774,0,0,1,142.821,72H144v-.725a214.894,214.894,0,0,1,80-28.912ZM32,40H171.214A231.169,231.169,0,0,0,138.37,56H32Z"/></svg>
