<svg id="Outline" height="512" viewBox="0 0 512 512" width="512" xmlns="http://www.w3.org/2000/svg"><path d="m440 488v-31.156c1.8-8.588 16-79.034 16-168.844 0-91.476-28.319-188.911-32-201.184v-62.816a8 8 0 0 0 -8-8h-320a8 8 0 0 0 -8 8v62.816c-3.681 12.273-32 109.708-32 201.184 0 89.81 14.2 160.256 16 168.844v31.156a8 8 0 0 0 8 8h352a8 8 0 0 0 8-8zm-336-456h304v48h-304zm320 448h-336v-16h336zm-337.456-32c-3.752-19.461-14.544-82.2-14.544-160 0-80.815 23.5-169.136 30-192h308c6.5 22.854 30 111.124 30 192 0 77.711-10.794 140.523-14.546 160z"/><path d="m308.233 185.278c-24.236-23.827-52.957-40.355-81.055-46.6-29.884-6.639-55.652-.981-72.566 15.932-16.072 16.073-22.019 40.433-16.746 68.593 4.758 25.4 18.318 51.93 38.345 75.179a136.3 136.3 0 0 0 -5.531 18.438c-6.64 29.879-.981 55.649 15.933 72.563 12.3 12.3 29.269 18.644 49.1 18.643a108.377 108.377 0 0 0 23.464-2.709c28.581-6.351 57.811-23.34 82.307-47.835s41.484-53.727 47.835-82.308c6.64-29.879.981-55.649-15.933-72.563-15.498-15.496-38.434-21.539-65.153-17.333zm-142.306-19.351c12.908-12.909 33.427-17.039 57.78-11.627 22.427 4.983 45.461 17.426 65.848 35.426-24.9 7.9-49.757 23.506-71.04 44.789-.442.441-.875.888-1.311 1.332-29.604-20.647-24.648-48.537-24.419-49.731a8 8 0 0 0 -15.67-3.232c-.339 1.647-7.37 38.254 29.25 64.9a185.382 185.382 0 0 0 -22.9 34.256c-33.665-42.54-41.694-91.957-17.538-116.113zm207.773 105.78c-5.7 25.647-21.158 52.093-43.53 74.464s-48.816 37.829-74.463 43.529c-24.352 5.411-44.87 1.28-57.779-11.628s-17.04-33.429-11.629-57.78c5.7-25.647 21.158-52.093 43.53-74.464s48.817-37.828 74.464-43.528a92.1 92.1 0 0 1 19.92-2.32c15.576 0 28.653 4.742 37.859 13.948 12.91 12.909 17.04 33.428 11.628 57.779z"/><circle cx="256" cy="56" r="8"/><path d="m345.114 225.111c-.6-.124-14.843-2.945-31.934 3.466-27.957 10.484-41.937 37.016-48.741 57.427-8.434 25.305-20.043 42.117-33.574 48.619-10.733 5.157-19.139 2.163-19.492 2.034l.1.038-.036.088a7.994 7.994 0 1 0 -5.28 15 38.447 38.447 0 0 0 12.058 1.82 44.867 44.867 0 0 0 18.971-4.265c18.062-8.377 32.339-27.982 42.435-58.269 19.254-57.764 60.457-50.627 62.31-50.273a8 8 0 0 0 3.185-15.68z"/></svg>