<svg id="Outline" enable-background="new 0 0 512 512" height="512" viewBox="0 0 512 512" width="512" xmlns="http://www.w3.org/2000/svg"><circle cx="344" cy="168" r="8"/><circle cx="392" cy="168" r="8"/><path d="m400 192c-3.029.001-5.797 1.714-7.149 4.425h-.006l.053-.1c-.215.4-4.647 8.332-16.9 10.891v-7.216c4.418 0 8-3.582 8-8s-3.582-8-8-8h-15.998c-4.418 0-8 3.582-8 8s3.582 8 8 8v7.208c-12.251-2.559-16.683-10.49-16.9-10.891l.053.1h-.006c-1.974-3.949-6.776-5.549-10.725-3.575s-5.549 6.776-3.575 10.725h-.006c.016.033.053.1.1.191.014.027.029.054.044.08 1.338 2.488 11.825 20.162 39.015 20.162s37.677-17.674 39.012-20.151c.015-.026.03-.053.044-.08.046-.088.083-.158.1-.191h-.006c1.983-3.94.397-8.742-3.543-10.725-1.119-.563-2.354-.855-3.607-.853z"/><path d="m482.756 154.29c3.46-6.53 5.261-13.81 5.244-21.2 0-21.851-15.305-39.94-35.019-42.578-6.09-15.873-20.575-26.512-36.981-26.512-8.746.032-17.217 3.062-24 8.584-13.953-11.445-34.047-11.445-48 0-6.783-5.522-15.254-8.552-24-8.584-16.4 0-30.891 10.64-36.982 26.513-18.094 2.422-32.463 17.862-34.7 37.276-8.289-5.139-17.859-7.839-27.612-7.789-14.06-.151-27.551 5.544-37.25 15.724-7.645-4.107-16.19-6.252-24.868-6.243-12.47-.078-24.542 4.387-33.959 12.561-5.715-2.038-11.737-3.08-17.805-3.079-24.5 0-44.894 16.66-48.755 38.432-23.776 3.305-42.069 22.415-42.069 45.419.043 11.871 4.881 23.221 13.416 31.473-2.018 5.071-3.058 10.478-3.063 15.936 0 23 18.293 42.114 42.069 45.42 2.282 12.081 9.341 22.731 19.578 29.539v94.818c0 4.418 3.582 8 8 8h32c4.418 0 8-3.582 8-8v-69.275c4.746 3.932 10.168 6.97 16 8.964v60.311c0 4.418 3.582 8 8 8h32c4.418 0 8-3.582 8-8v-58.173c8.973 6.675 19.876 10.246 31.059 10.173 5.759.006 11.481-.927 16.941-2.761v50.761c0 4.418 3.582 8 8 8h32c4.418 0 8-3.582 8-8v-57.564c5.477-.284 10.876-1.425 16-3.381v60.945c0 4.418 3.582 8 8 8h32c4.418 0 8-3.582 8-8v-92.489c14.284-8 23.885-22.509 23.993-39.082 5.073-2.371 9.599-5.77 13.292-9.98 5.711 3.225 12.156 4.925 18.715 4.936 19.722 0 36.156-15.231 39.414-35.194 18.526-3.7 32.586-21 32.586-41.729-.001-5.211-.911-10.382-2.691-15.28 15.017-16.146 14.103-41.408-2.043-56.426-.168-.156-.339-.312-.51-.466zm-194.756-48.108c.157 0 .721.023.721.023 3.814.128 7.19-2.45 8.069-6.164 2.774-11.8 12.319-20.041 23.21-20.041 6.963.107 13.502 3.366 17.779 8.861 2.778 3.436 7.815 3.969 11.251 1.191.438-.354.837-.753 1.191-1.191 7.404-9.819 21.366-11.777 31.185-4.373 1.654 1.247 3.126 2.719 4.373 4.373 2.778 3.436 7.815 3.969 11.251 1.191.438-.354.837-.753 1.191-1.191 4.277-5.495 10.816-8.754 17.779-8.861 10.891 0 20.436 8.241 23.21 20.041.879 3.713 4.254 6.292 8.068 6.164l.256-.01c.154-.006.309-.013.466-.013 13.234 0 24 12.071 24 26.909s-10.766 26.909-24 26.909c-10.891 0-20.436-8.241-23.21-20.041-.85-3.613-4.073-6.168-7.785-6.169-.094 0-.189 0-.284 0l-.254.01c-.155.006-.31.013-.467.013-6.963-.107-13.502-3.366-17.779-8.861-2.778-3.436-7.815-3.969-11.251-1.191-.438.354-.837.753-1.191 1.191-7.404 9.819-21.366 11.777-31.185 4.373-1.654-1.247-3.126-2.719-4.373-4.373-2.778-3.436-7.815-3.969-11.251-1.191-.438.354-.837.753-1.191 1.191-4.276 5.497-10.815 8.758-17.779 8.866-.157 0-.722-.023-.722-.023-3.813-.127-7.188 2.451-8.068 6.164-2.774 11.8-12.319 20.041-23.21 20.041-13.234 0-24-12.071-24-26.909s10.766-26.909 24-26.909zm143.615 66.065-7.272 46.753c-.01.058-.018.114-.025.172-1.621 11.907-11.773 20.795-23.79 20.828h-65.056c-12.017-.033-22.169-8.921-23.79-20.828-.007-.058-.015-.114-.025-.172l-7.272-46.753c9.518-4.683 16.887-12.826 20.6-22.763 6.973-.961 13.55-3.814 19.015-8.25 13.953 11.445 34.047 11.445 48 0 5.466 4.436 12.043 7.29 19.017 8.25 3.712 9.937 11.081 18.079 20.598 22.763zm-168.326-5.447c6.881 5.908 15.642 9.17 24.711 9.2.259 0 .516-.01.774-.016l4.37 28.092c-11.086 7.255-25.954 4.149-33.209-6.937-6.29-9.611-4.884-22.333 3.354-30.339zm-143.289 265.2h-16v-16h8c4.416.005 7.995 3.584 8 8zm0-30.624c-2.569-.912-5.274-1.377-8-1.376h-8v-47.585c4.305 1.105 8.732 1.662 13.176 1.659.942 0 1.884-.029 2.824-.079zm64 30.624h-16v-16h8c4.416.005 7.995 3.584 8 8zm0-30.624c-2.569-.912-5.274-1.377-8-1.376h-8v-17.5c.314.006.626.018.941.018 5.1-.007 10.172-.751 15.059-2.211zm96 30.624h-16v-16h8c4.416.005 7.995 3.584 8 8zm0-30.624c-2.569-.912-5.274-1.377-8-1.376h-8v-19.669c1.519-1.261 2.958-2.615 4.309-4.055 3.697 1.992 7.623 3.525 11.691 4.567zm64 30.624h-16v-16h8c4.416.005 7.995 3.584 8 8zm0-30.624c-2.569-.912-5.274-1.377-8-1.376h-8v-30.812c4.677-4.279 8.412-9.486 10.966-15.288 1.7-.14 3.383-.367 5.034-.665zm-9.412-63.3c-.234 0-1.082-.027-1.082-.027-3.672-.117-6.947 2.297-7.921 5.84-3.733 13.325-17.061 22.632-32.412 22.632-7.847.042-15.489-2.499-21.75-7.229-3.501-2.695-8.524-2.043-11.219 1.458-.12.156-.234.316-.343.481-6 9.111-17.037 14.771-28.8 14.771s-22.806-5.66-28.805-14.771c-2.43-3.69-7.391-4.712-11.081-2.283-.165.109-.326.223-.482.344-6.26 4.731-13.903 7.271-21.75 7.229-15.7 0-29.442-9.977-32.683-23.721-1.013-4.301-5.321-6.965-9.621-5.952-.06.014-.119.029-.179.044-3.033.786-6.153 1.184-9.286 1.184-18.423 0-33.411-13.425-33.411-29.926 0-4.418-3.582-8-8-8-18.424 0-33.412-13.424-33.412-29.925-.003-4.901 1.322-9.712 3.836-13.92 2.072-3.519 1.162-8.033-2.112-10.474-7.675-5.723-12.075-14.11-12.075-23.017 0-16.5 14.988-29.925 33.412-29.925 4.418 0 8-3.582 8-8 0-16.5 14.988-29.926 33.412-29.926 5.575-.012 11.078 1.254 16.087 3.7 3.231 1.597 7.131.836 9.525-1.858 6.703-7.332 16.219-11.451 26.152-11.323 7.847-.042 15.49 2.498 21.751 7.229 3.501 2.695 8.524 2.043 11.219-1.458.12-.156.234-.316.343-.481 6-9.111 17.037-14.771 28.8-14.771s22.806 5.66 28.805 14.771c.835 1.261 2.01 2.26 3.39 2.88.111.216.23.425.343.639-14.239 12.793-17.396 33.891-7.527 50.293-3.757 6.679-5.725 14.215-5.712 21.878 0 23.413 17.944 42.461 40 42.461.237 0 .474-.002.711-.007 3.533 19.605 19.807 34.469 39.289 34.469 6.559-.011 13.004-1.711 18.715-4.936 7.299 8.435 17.847 13.36 29 13.543-2.115 14.691-16.158 26.082-33.127 26.082zm113.412-85.153c-4.418 0-8 3.582-8 8 0 14.591-10.766 26.462-24 26.462-5.646-.014-11.078-2.16-15.209-6.008-3.275-2.966-8.334-2.715-11.3.56-.404.446-.756.936-1.05 1.461-4.418 7.891-12.06 12.602-20.441 12.602s-16.023-4.711-20.441-12.6c-2.159-3.855-7.034-5.23-10.889-3.071-.525.294-1.015.646-1.461 1.05-4.132 3.847-9.564 5.992-15.209 6.006-13.234 0-24-11.871-24-26.462 0-.193.022-.868.022-.868.125-4.417-3.354-8.098-7.771-8.223-.8-.023-1.6.075-2.371.29-1.915.532-3.893.801-5.88.8-13.234 0-24-11.87-24-26.461-.002-3.188.525-6.354 1.559-9.369 11.264 7.665 25.663 9.046 38.179 3.664l.1.621c2.742 19.803 19.642 34.567 39.634 34.623h65.056c19.992-.055 36.895-14.818 39.637-34.622l.094-.6c9.956 4.261 21.214 4.302 31.2.114.358 1.836.538 3.703.538 5.574.003 14.587-10.763 26.457-23.997 26.457zm8-44.923c-4.671-.005-9.239-1.376-13.141-3.943l4.367-28.073c.258.006.515.016.774.016 9.07-.031 17.831-3.295 24.711-9.205 9.51 9.221 9.745 24.406.524 33.916-4.521 4.663-10.74 7.293-17.235 7.289z"/></svg>