<?xml version="1.0"?>
<svg xmlns="http://www.w3.org/2000/svg" id="Outline" viewBox="0 0 512 512" width="512" height="512"><path d="M376,159.986c0-52.681-27.669-95.979-77.911-121.919a203.888,203.888,0,0,0-86.573-22c-29.655-.751-55.279,5.411-72.149,17.393a8,8,0,0,0,3.659,14.463c.329.041,33.364,4.259,65.744,20.611C250.727,89.718,272,120.488,272,159.986c0,40.112-14.978,72.5-44.518,96.27A137.256,137.256,0,0,1,182,280.478a8,8,0,0,0-6,7.745V464a32,32,0,0,0,64,0V334.715a184.179,184.179,0,0,0,64.5-27.41C337.116,285.138,376,241.585,376,159.986ZM224,464a16,16,0,0,1-32,0V448h32Zm0-32H192V336h32Zm7.443-112H192V294.089a156.736,156.736,0,0,0,44.986-24.945C260.259,250.593,288,216.6,288,159.986c0-45.514-25.039-82.147-72.41-105.936a235.274,235.274,0,0,0-46.308-17.113c12.009-3.556,26.359-5.281,41.821-4.879a187.569,187.569,0,0,1,79.646,20.226c20.923,10.8,37.516,24.883,49.317,41.85C353.293,113.151,360,135.308,360,159.986c0,32.942-6.742,61.8-20.04,85.784a140.36,140.36,0,0,1-43.933,47.943C265.988,314.309,235.389,319.412,231.443,320Z"/></svg>
