<?xml version="1.0"?>
<svg xmlns="http://www.w3.org/2000/svg" id="Outline" viewBox="0 0 512 512" width="512" height="512"><path d="M352,232a32,32,0,1,0,32,32A32.036,32.036,0,0,0,352,232Zm0,48a16,16,0,1,1,16-16A16.019,16.019,0,0,1,352,280Z"/><path d="M488,480H464V283.385a8,8,0,0,0-1.209-4.229l-32-51.385a8.011,8.011,0,0,0-2.353-2.427l-72-48a8,8,0,0,0-8.876,0L288,217.052V144h8a8,8,0,0,0,8-8V104a8,8,0,0,0-4.422-7.155L208,51.056V40a24.027,24.027,0,0,0-24-24H168a24.027,24.027,0,0,0-24,24V51.056L52.422,96.845A8,8,0,0,0,48,104v32a8,8,0,0,0,8,8h8V480H24a8,8,0,0,0,0,16H488a8,8,0,0,0,0-16ZM160,40a8.009,8.009,0,0,1,8-8h16a8.009,8.009,0,0,1,8,8v8H160Zm-6.111,24h44.222l64,32H89.889ZM64,112H288v16H64Zm48,368H80V144h32Zm64,0H128V432h48Zm0-64H128V384h48Zm0-48H128V336h48Zm0-48H128V288h48Zm0-48H128V240h48Zm0-48H128V192h48Zm0-48H128V144h48Zm64,107.385V480H192V144h80v85.712l-30.791,49.444A8,8,0,0,0,240,283.385ZM296,352V336H408v16Zm88,16-32,42.666L320,368Zm-72,16,30,40-30,40Zm8,96,32-42.666L384,480Zm72-16-30-40,30-40Zm56,16H408V368h8a8,8,0,0,0,8-8V328a8,8,0,0,0-8-8H288a8,8,0,0,0-8,8v32a8,8,0,0,0,8,8h8V480H256V285.672L285.877,237.7,352,193.615,418.123,237.7,448,285.672Z"/></svg>
