<?xml version="1.0"?>
<svg xmlns="http://www.w3.org/2000/svg" id="Outline" viewBox="0 0 512 512" width="512" height="512"><path d="M488,400H404.771a55.619,55.619,0,0,1-36.314-13.379c-23.678-20.395-62.29-33.054-104.457-34.482V303.545A72.1,72.1,0,0,0,328,232V200a8,8,0,0,0-8-8,71.883,71.883,0,0,0-56,26.815V175.7A104.139,104.139,0,0,0,360,72V24a8,8,0,0,0-8-8A104.173,104.173,0,0,0,249.962,99.87,104.057,104.057,0,0,0,160,48a8,8,0,0,0-8,8v48a104.139,104.139,0,0,0,96,103.7v43.12A71.883,71.883,0,0,0,192,224a8,8,0,0,0-8,8v32a72.1,72.1,0,0,0,64,71.545v16.594c-42.168,1.428-80.78,14.087-104.458,34.482A55.615,55.615,0,0,1,107.228,400H24a8,8,0,0,0-8,8v80a8,8,0,0,0,8,8H488a8,8,0,0,0,8-8V408A8,8,0,0,0,488,400ZM264,120a88.12,88.12,0,0,1,80-87.64V72a88.143,88.143,0,0,1-72.089,86.555l38.713-58.069.021-.031.011-.017h0a8,8,0,1,0-13.312-8.874h0L264,141.578Zm0,144a56.086,56.086,0,0,1,48-55.43V232a56.1,56.1,0,0,1-39.372,53.48l22-32.994.021-.031.011-.017h0a8,8,0,1,0-13.312-8.874h0L264,269.578ZM201.344,132.437h0l.011.017.021.031,38.713,58.069A88.143,88.143,0,0,1,168,104V64.36A88.119,88.119,0,0,1,248,152v21.578l-33.344-50.016h0a8,8,0,1,0-13.312,8.874Zm16,152h0l.011.017.021.031,22,32.994A56.1,56.1,0,0,1,200,264V240.57A56.086,56.086,0,0,1,248,296v5.578l-17.344-26.016h0a8,8,0,1,0-13.312,8.874ZM480,480H32V416h75.228a71.625,71.625,0,0,0,46.756-17.256c20.906-18.008,55.627-29.225,94.016-30.6v20.542L236.687,400H224a8,8,0,0,0-8,8v32a8,8,0,0,0,16,0V416h8a8,8,0,0,0,5.657-2.343L256,403.314l8,8V432a8,8,0,0,0,8,8h13.333L315.2,462.4l0-.007a7.991,7.991,0,1,0,9.59-12.786l0-.007-32-24A8,8,0,0,0,288,424h-8V408a8,8,0,0,0-2.343-5.657L264,388.686V368.145c38.389,1.374,73.109,12.591,94.016,30.6A71.622,71.622,0,0,0,404.771,416H480Z"/><circle cx="128" cy="440" r="8"/><circle cx="56" cy="456" r="8"/><circle cx="192" cy="456" r="8"/><circle cx="376" cy="448" r="8"/><circle cx="320" cy="408" r="8"/><circle cx="456" cy="456" r="8"/></svg>
