<svg id="Outline" enable-background="new 0 0 512 512" height="512" viewBox="0 0 512 512" width="512" xmlns="http://www.w3.org/2000/svg"><path d="m96 344c-22.091 0-40 17.909-40 40s17.909 40 40 40 40-17.909 40-40c-.025-22.081-17.919-39.975-40-40zm0 64c-13.255 0-24-10.745-24-24s10.745-24 24-24 24 10.745 24 24c-.015 13.248-10.752 23.985-24 24z"/><path d="m152 256h24c4.418 0 8-3.582 8-8s-3.582-8-8-8h-24c-4.418 0-8 3.582-8 8s3.582 8 8 8z"/><path d="m152 280h24c4.418 0 8-3.582 8-8s-3.582-8-8-8h-24c-4.418 0-8 3.582-8 8s3.582 8 8 8z"/><path d="m152 304h24c4.418 0 8-3.582 8-8s-3.582-8-8-8h-24c-4.418 0-8 3.582-8 8s3.582 8 8 8z"/><path d="m424 275.037v-16.437c9.843 2.144 19.35 5.612 28.261 10.311 3.906 2.065 8.747.572 10.812-3.334s.572-8.747-3.334-10.812c-11.226-5.914-23.272-10.122-35.739-12.485v-186.28c0-4.418-3.582-8-8-8h-222.111c-13.255-.011-24.009 10.726-24.019 23.981-.008 10.168 6.391 19.237 15.973 22.637l-8.643 97.382h-17.2c-1.083 0-2.155.22-3.151.647l-112 48c-2.942 1.261-4.849 4.153-4.849 7.353v78.918c-.2.161-.996.969-1.189 1.214-30.415 31.033-30.415 80.695 0 111.728.193.245 1.076 1.128 1.321 1.321 31.033 30.415 80.695 30.415 111.728 0 .245-.193 1.128-1.076 1.321-1.321 18.557-18.949 26.503-45.871 21.209-71.86h25.61v24c0 4.418 3.582 8 8 8h72c4.418 0 8-3.582 8-8v-24h16c.006 53.019 42.992 95.995 96.011 95.989s95.995-42.992 95.989-96.011c-.005-43.772-29.618-81.998-72-92.941zm-237.267-206.615c1.348-2.717 4.123-4.432 7.156-4.422h214.111v16h-214.111c-4.418 0-8-3.581-8.001-7.999 0-1.243.289-2.468.845-3.579zm221.267 27.578v96h-16v-96zm-32 0v96h-151.449l6.4-96zm-161.084 0-6.4 96h-15.254l8.521-96zm-158.916 160h16v16h-16zm0 32h24c4.418 0 8-3.582 8-8v-32c-.001-2.777-1.443-5.354-3.81-6.806l77.452-33.194h38.358v112h-56v.044c-25.608-19.281-60.27-21.361-88-5.281zm103.485 103.974c-1.426 11.4-5.909 22.202-12.976 31.26-3.319-2.908-8.367-2.574-11.275.745-2.64 3.014-2.64 7.517 0 10.53-9.058 7.067-19.86 11.55-31.26 12.976-.279-4.404-4.075-7.748-8.479-7.469-4.015.254-7.214 3.454-7.469 7.469-11.4-1.426-22.202-5.909-31.26-12.976 2.908-3.319 2.574-8.367-.745-11.275-3.014-2.64-7.517-2.64-10.53 0-7.067-9.058-11.55-19.86-12.976-31.26 4.404-.279 7.748-4.076 7.469-8.479-.254-4.015-3.454-7.214-7.469-7.469 1.426-11.4 5.909-22.202 12.976-31.26 3.319 2.908 8.367 2.574 11.275-.745 2.64-3.014 2.64-7.517 0-10.53 9.058-7.067 19.86-11.55 31.26-12.976.279 4.404 4.075 7.748 8.479 7.469 4.015-.254 7.214-3.454 7.469-7.469 11.4 1.426 22.202 5.909 31.26 12.976-2.908 3.319-2.574 8.367.745 11.275 3.014 2.64 7.517 2.64 10.53 0 7.067 9.058 11.55 19.86 12.976 31.26-4.404.279-7.748 4.076-7.469 8.479.255 4.015 3.454 7.215 7.469 7.469zm112.515-7.974h-56v-16h56zm1-32h-103.7c-2.484-5.677-5.62-11.047-9.344-16h116.094c-1.358 5.263-2.377 10.607-3.05 16zm8.35-32h-65.35v-112h192v32.254c-2.661-.167-5.327-.252-8-.254-52.139.058-99.049 31.687-118.652 80zm23.993 32h-16.195c.777-5.413 1.953-10.761 3.518-16h16.825c-1.845 5.203-3.234 10.556-4.15 16zm-6.52-32c18.564-39.057 57.932-63.959 101.177-64 2.672 0 5.34.108 8 .3v16.037c-2.639-.219-5.306-.336-8-.336-34.285.021-65.96 18.314-83.113 48zm173.177 56h7.6c-1.564 15.634-7.717 30.456-17.686 42.6l-5.345-5.344c-3.159-3.089-8.224-3.032-11.313.128-3.04 3.109-3.04 8.076 0 11.185l5.344 5.345c-12.144 9.969-26.966 16.122-42.6 17.686v-7.6c0-4.418-3.582-8-8-8s-8 3.582-8 8v7.6c-15.634-1.564-30.456-7.717-42.6-17.686l5.344-5.345c3.089-3.159 3.032-8.224-.128-11.313-3.109-3.04-8.076-3.04-11.185 0l-5.345 5.344c-9.969-12.144-16.122-26.966-17.686-42.6h7.6c4.418 0 8-3.582 8-8s-3.582-8-8-8h-7.6c1.564-15.634 7.717-30.456 17.686-42.6l5.345 5.344c3.159 3.089 8.224 3.032 11.313-.128 3.04-3.109 3.04-8.076 0-11.185l-5.344-5.345c12.144-9.969 26.966-16.122 42.6-17.686v7.6c0 4.418 3.582 8 8 8s8-3.582 8-8v-7.6c15.634 1.564 30.456 7.717 42.6 17.686l-5.344 5.345c-3.159 3.089-3.216 8.154-.128 11.313s8.154 3.216 11.313.128c.043-.042.086-.085.128-.128l5.345-5.344c9.969 12.144 16.122 26.966 17.686 42.6h-7.6c-4.418 0-8 3.582-8 8s3.582 8 8 8z"/><path d="m400 320c-26.51 0-48 21.49-48 48s21.49 48 48 48 48-21.49 48-48c-.03-26.497-21.503-47.97-48-48zm0 80c-17.673 0-32-14.327-32-32s14.327-32 32-32 32 14.327 32 32c-.02 17.665-14.335 31.98-32 32z"/><circle cx="400" cy="368" r="8"/><circle cx="96" cy="384" r="8"/></svg>