<?xml version="1.0"?>
<svg xmlns="http://www.w3.org/2000/svg" id="Outline" viewBox="0 0 512 512" width="512" height="512"><path d="M403.484,161.184A51.99,51.99,0,0,0,356,88c-1.252,0-2.507.045-3.758.136C332.107,43.474,295.679,16,256,16c-37.276,0-71.46,23.855-92.36,64.122Q161.812,80,160,80a56.013,56.013,0,0,0-50.156,80.923,56,56,0,0,0-28.468,95.614A87.965,87.965,0,0,0,168,360a87.206,87.206,0,0,0,32.643-6.257A80.4,80.4,0,0,0,224,369.308V448c0,10.794-3.083,19.494-9.164,25.858a27.53,27.53,0,0,1-9.351,6.547A8,8,0,0,0,208,496h96a8,8,0,0,0,2.515-15.6,26.818,26.818,0,0,1-8.861-6.046C291.248,467.961,288,459.092,288,448V369.308a80.4,80.4,0,0,0,23.357-15.565A87.206,87.206,0,0,0,344,360a87.96,87.96,0,0,0,86.623-103.463,55.995,55.995,0,0,0-27.139-95.353ZM273.344,307.562A8,8,0,0,0,272,312V448c0,14.425,4.207,24.743,9.445,32h-50.89c5.238-7.257,9.445-17.575,9.445-32V312a8,8,0,0,0-1.344-4.438L182.948,224h28.618l37.65,60.24a8,8,0,0,0,13.568,0L300.434,224h28.618Zm143.521-60.244a8,8,0,0,0-2.807,8.1A71.977,71.977,0,0,1,344,344a71.331,71.331,0,0,1-31.056-7.026,8,8,0,0,0-9.4,1.858A64.452,64.452,0,0,1,288,351.427v-37l62.656-93.984A8,8,0,0,0,344,208H296a8,8,0,0,0-6.784,3.76L256,264.9,222.784,211.76A8,8,0,0,0,216,208H168a8,8,0,0,0-6.656,12.438L224,314.422v37a64.452,64.452,0,0,1-15.546-12.6,8,8,0,0,0-9.4-1.858A71.331,71.331,0,0,1,168,344a71.977,71.977,0,0,1-70.058-88.584,8,8,0,0,0-2.807-8.1A39.99,39.99,0,0,1,120,176c1.168,0,2.375.058,3.692.178a8,8,0,0,0,6.651-13.338A40,40,0,0,1,160,96a40.377,40.377,0,0,1,6.921.61,8,8,0,0,0,8.6-4.451C193.4,54.489,223.487,32,256,32c34.7,0,66.841,26.011,83.871,67.881a8,8,0,0,0,8.986,4.829,36,36,0,0,1,34.879,58.238,8,8,0,0,0,6.5,13.1c.587-.025,1.176-.046,1.769-.046a39.99,39.99,0,0,1,24.865,71.318Z"/></svg>
