<?xml version="1.0"?>
<svg xmlns="http://www.w3.org/2000/svg" id="Outline" viewBox="0 0 512 512" width="512" height="512"><path d="M488,288H448a24,24,0,0,0-48,0H360a24.027,24.027,0,0,0-24,24v8H298.666L220.8,261.6A87.239,87.239,0,0,0,176,244.369V208h17.91A62.161,62.161,0,0,0,256,145.91V104a8,8,0,0,0-8-8H222.09A62.12,62.12,0,0,0,168,127.659,62.12,62.12,0,0,0,113.91,96H88a8,8,0,0,0-8,8v41.91A62.161,62.161,0,0,0,142.09,208H160v36.369A87.239,87.239,0,0,0,115.2,261.6L37.334,320H24a8,8,0,0,0-8,8v12.648A24.025,24.025,0,0,0,32.072,363.3l144.153,50.453A39.876,39.876,0,0,0,189.438,416H248a72.114,72.114,0,0,0,67.872-48H360a24.027,24.027,0,0,0,24-24v-8h16v16a24,24,0,0,0,48,0h40a8,8,0,0,0,8-8V296A8,8,0,0,0,488,288ZM176,158.09A46.142,46.142,0,0,1,222.09,112H240v33.91A46.142,46.142,0,0,1,193.91,192h-8.829l29.065-34.878a8,8,0,0,0-12.292-10.244L176,177.9Zm-54.146-.968L150.919,192H142.09A46.142,46.142,0,0,1,96,145.91V112h17.91A46.142,46.142,0,0,1,160,158.09V177.9l-25.854-31.025a8,8,0,0,0-12.292,10.244ZM124.8,274.4a72.372,72.372,0,0,1,86.4,0L272,320H64ZM304,344a56.063,56.063,0,0,1-56,56H189.438a23.941,23.941,0,0,1-7.928-1.347L37.357,348.2A8.009,8.009,0,0,1,32,340.648V336H304Zm96-24H376a8,8,0,0,0-8,8v16a8.009,8.009,0,0,1-8,8H319.545a72.383,72.383,0,0,0,.455-8v-8h24a8,8,0,0,0,8-8V312a8.009,8.009,0,0,1,8-8h40Zm32,32a8,8,0,0,1-16,0V288a8,8,0,0,1,16,0Zm48-16H448V304h32Z"/><circle cx="168" cy="288" r="8"/><circle cx="128" cy="304" r="8"/><circle cx="208" cy="304" r="8"/></svg>
