<?xml version="1.0"?>
<svg xmlns="http://www.w3.org/2000/svg" id="Outline" viewBox="0 0 512 512" width="512" height="512"><path d="M152,280h16a8,8,0,0,0,0-16H152a8,8,0,0,0,0,16Z"/><path d="M40,392H77.414a55.983,55.983,0,0,0,101.172,0H325.414a55.983,55.983,0,0,0,101.172,0H488a8,8,0,0,0,8-8V96a8,8,0,0,0-8-8H200a8,8,0,0,0-8,8v24H144.138a40.194,40.194,0,0,0-38.46,29.172L80.872,235.833A72.11,72.11,0,0,0,32,304v41.376A24,24,0,0,0,40,392Zm88,16a40,40,0,1,1,40-40A40.045,40.045,0,0,1,128,408Zm248,0a40,40,0,1,1,40-40A40.045,40.045,0,0,1,376,408Zm104-32H431.419a55.368,55.368,0,0,0,0-16H480Zm0-32H464V328h16ZM208,104H480V264H208Zm0,176H480v32H456a8,8,0,0,0-8,8v24H426.586a55.983,55.983,0,0,0-101.172,0H208Zm112.581,80a55.368,55.368,0,0,0,0,16H183.419a55.368,55.368,0,0,0,0-16ZM116.931,168H160v32H107.771Zm-13.74,48H168a8,8,0,0,0,8-8V160a8,8,0,0,0-8-8H121.577a24.122,24.122,0,0,1,22.561-16H192v96H104c-1.837,0-3.651.092-5.454.228Zm-54.61,80H64v16H48S48.205,298.614,48.581,296ZM48,328H72a8,8,0,0,0,8-8V288a8,8,0,0,0-8-8H53.414A56.069,56.069,0,0,1,104,248h88v96H178.586a55.983,55.983,0,0,0-101.172,0H48Zm-8,32H72.581a55.368,55.368,0,0,0,0,16H40a8,8,0,0,1,0-16Z"/><path d="M128,344a24,24,0,1,0,24,24A24.027,24.027,0,0,0,128,344Zm0,32a8,8,0,1,1,8-8A8.009,8.009,0,0,1,128,376Z"/><path d="M376,344a24,24,0,1,0,24,24A24.027,24.027,0,0,0,376,344Zm0,32a8,8,0,1,1,8-8A8.009,8.009,0,0,1,376,376Z"/><path d="M344,136a8,8,0,0,0-8,8v80a8,8,0,0,0,16,0V144A8,8,0,0,0,344,136Z"/><path d="M296,136a8,8,0,0,0-8,8v80a8,8,0,0,0,16,0V144A8,8,0,0,0,296,136Z"/><path d="M248,136a8,8,0,0,0-8,8v80a8,8,0,0,0,16,0V144A8,8,0,0,0,248,136Z"/><path d="M392,136a8,8,0,0,0-8,8v80a8,8,0,0,0,16,0V144A8,8,0,0,0,392,136Z"/><path d="M440,136a8,8,0,0,0-8,8v80a8,8,0,0,0,16,0V144A8,8,0,0,0,440,136Z"/></svg>
