<svg id="Outline" enable-background="new 0 0 512 512" height="512" viewBox="0 0 512 512" width="512" xmlns="http://www.w3.org/2000/svg"><circle cx="352" cy="152" r="8"/><path d="m24 496h464c4.418 0 8-3.582 8-8v-208c0-4.418-3.582-8-8-8h-15.828c2.134-56.669 23.533-221.222 23.761-222.965.572-4.381-2.517-8.396-6.898-8.968-.343-.045-.689-.067-1.035-.067h-16c-3.096 0-5.914 1.786-7.235 4.586-7.286 15.441-13.9 37.476-19.78 65.855-1.164-31.65-2.777-62.519-5.018-87.165-.374-4.121-3.829-7.276-7.967-7.276h-24c-4.418 0-8 3.582-8 8v248h-20.787l12.4-105.458c3.195-26.998-13.486-52.384-39.535-60.167v-10.375c12.769-.095 23.265-10.1 23.97-22.85.324-6.297-1.864-12.465-6.084-17.15 4.22-4.685 6.408-10.853 6.084-17.15-.721-12.922-11.482-22.99-24.424-22.85h-23.549c-13.249.015-23.985 10.751-24 24v69.386c-21.755 10.254-34.516 33.272-31.685 57.156l5.819 49.5c-.594.019-1.187.043-1.777.081l-33.189-39.223c22.597-32.71 14.398-77.545-18.312-100.142-30.054-20.762-70.893-15.722-94.999 11.722-35.065-18.746-78.687-5.517-97.433 29.548-14.529 27.178-10.15 60.589 10.894 83.103-7.485 11.578-11.443 25.082-11.393 38.869.012 11.102 2.583 22.052 7.513 32h-15.513c-4.418 0-8 3.582-8 8v208c0 4.418 3.582 8 8 8zm423.269-295.606c5.754-49.494 15.293-109.936 29.916-144.394h1.715c-4.6 35.876-20.931 165.929-22.736 216h-15.613c.857-12.067 6.758-69.075 6.718-71.606zm-31.269-168.394h8.662c3.916 47.678 5.74 115.205 6.589 167.4-3.723 32.194-5.853 59.841-6.742 72.6h-8.509zm-95.925 8c.005-4.416 3.584-7.995 8-8h23.549c4.373-.077 8.061 3.243 8.442 7.6.221 4.413-3.177 8.169-7.59 8.39-.134.007-.267.01-.401.01-4.418 0-8 3.582-8 8s3.582 8 8 8c4.418-.001 8 3.581 8.001 7.999 0 .134-.003.267-.01.401-.381 4.357-4.069 7.677-8.442 7.6h-7.549c-4.418 0-8 3.582-8 8v16h-8.1c-2.644.005-5.284.199-7.9.579zm-.075 120c4.418 0 8-3.582 8-8s-3.582-8-8-8h-28.653c6.346-14.574 20.729-23.999 36.625-24h8.056c22.084.011 39.978 17.922 39.968 40.006-.001 1.56-.093 3.118-.276 4.668l-3.213 27.326h-38.46v.25c-4.28 1.073-6.88 5.413-5.806 9.694.717 2.858 2.948 5.09 5.806 5.806v.25h36.579l-7.526 64h-27.1c0-5.419-.788-10.809-2.341-16h10.341c4.418 0 8-3.582 8-8s-3.582-8-8-8h-18.083c-7.545-10.812-18.651-18.626-31.376-22.074l-6.261-53.252c-.179-1.552-.267-3.112-.264-4.674zm-40 72c22.081.025 39.975 17.919 40 40h-80c.025-22.081 17.919-39.975 40-40zm-240-80c.004-30.932 25.082-56.004 56.014-56 11.164.001 22.072 3.339 31.326 9.585 3.599 2.434 8.482 1.551 11-1.989 17.889-25.222 52.837-31.167 78.059-13.278s31.167 52.837 13.278 78.059c-.888 1.252-3.679 4.661-3.679 4.661-10.634 12.049-25.928 18.954-41.998 18.962-4.418 0-8 3.582-8 8s3.582 8 8 8c17.995-.006 35.336-6.745 48.613-18.891l26.265 31.04c-10.668 4.376-19.736 11.922-25.978 21.617-21.072-22.577-56.456-23.798-79.033-2.726-.94.877-1.849 1.786-2.726 2.726-16.7-26.032-51.341-33.597-77.372-16.897-11.303 7.251-19.625 18.323-23.447 31.197-1.548-5.215-2.33-10.626-2.322-16.066-.043-12.659 4.252-24.951 12.168-34.83 2.659-3.344 2.221-8.187-.995-11-12.176-10.632-19.166-26.005-19.173-42.17zm185.671 106.431c-1.11 4.438-1.671 8.995-1.671 13.569h-71.195c4.413-21.641 25.535-35.607 47.176-31.193 10.593 2.16 19.861 8.518 25.69 17.624zm-84.642-1.579c-2.197 4.811-3.695 9.912-4.448 15.148h-72.581c-.011-22.091 17.888-40.009 39.98-40.02 16.256-.008 30.901 9.823 37.049 24.872zm-109.029 31.148h448v32h-448zm0 48h448v16h-448zm0 32h448v32h-448zm0 48h448v16h-448zm0 32h448v32h-448z"/></svg>