<?xml version="1.0"?>
<svg xmlns="http://www.w3.org/2000/svg" id="Outline" viewBox="0 0 512 512" width="512" height="512"><path d="M224,200a8,8,0,0,0-6.946,4.031C211.534,213.69,184,262.878,184,282.667c0,25,17.944,45.333,40,45.333s40-20.336,40-45.333c0-19.789-27.534-68.977-33.054-78.636A8,8,0,0,0,224,200Zm0,112c-13.233,0-24-13.159-24-29.333,0-9.9,12.818-37.126,24.027-58.142C241.355,256.7,248,276.979,248,282.667,248,298.841,237.233,312,224,312Z"/><path d="M454.86,147.884a8,8,0,0,0-14.288,1.145L425.344,187.1l-82.359,66.917-15.034-134.9a8,8,0,0,0-5.423-6.7l0-.007-96-32a8.006,8.006,0,0,0-5.06,0l-96,32,0,.007a8,8,0,0,0-5.423,6.7L115.493,160H77.139a39.817,39.817,0,0,0-38.976,31.006L9.455,315.408A56,56,0,0,0,64.021,384H90.53l-2.394,21.477a23.9,23.9,0,0,0,6,18.485A24.35,24.35,0,0,0,112.226,432H335.774a24.35,24.35,0,0,0,18.091-8.038,23.923,23.923,0,0,0,6-18.523l-5.718-51.31,97.172-121.466,43.371,7.229a8,8,0,0,0,8.175-12.008ZM224,96.433,270.7,112H177.3ZM91.682,373.658V368H64.021a40,40,0,0,1-38.976-48.994L53.753,194.6A23.891,23.891,0,0,1,77.139,176H113.71l-1.783,16H88.517a23.86,23.86,0,0,0-23.429,18.794l-24.888,112A24,24,0,0,0,63.628,352H94.1ZM63.628,336a8,8,0,0,1-7.809-9.735l24.889-112A7.952,7.952,0,0,1,88.517,208h21.627L95.879,336Zm278.338,77.265A8.22,8.22,0,0,1,335.774,416H112.226a8.22,8.22,0,0,1-6.192-2.735,7.755,7.755,0,0,1-1.992-6.054L135.158,128H312.842l31.113,279.174A7.779,7.779,0,0,1,341.966,413.265Zm9.67-81.616-6.545-58.728L429.305,204.5l9.251,18.5Zm101.7-114.871-12.571-25.143,8.676-21.69,30.789,51.316Z"/></svg>
