<?xml version="1.0"?>
<svg xmlns="http://www.w3.org/2000/svg" id="Outline" viewBox="0 0 512 512" width="512" height="512"><circle cx="256" cy="376" r="8"/><path d="M100.206,345.2a8,8,0,0,0-7.784-.35l-48,24a8,8,0,0,0,0,14.31l48,24A8,8,0,0,0,104,400V384H216.805a40.072,40.072,0,0,0,15.223,24H232v80a8,8,0,0,0,8,8h32a8,8,0,0,0,8-8V408h-.028A40.072,40.072,0,0,0,295.2,384h84.524l13.625,20.438A8,8,0,0,0,400,408h64a8,8,0,0,0,6.656-12.438L457.615,376l13.041-19.562A8,8,0,0,0,464,344H400a8,8,0,0,0-6.656,3.562L379.719,368H295.2a40.072,40.072,0,0,0-15.223-24H280V320h56c28.344,0,46.938-17.8,47.956-45.577a58.307,58.307,0,0,0,15.578-11.453c9.86-10.126,15.757-23.322,16.406-36.539a58.3,58.3,0,0,0,15.594-11.461C442,204.223,448,190.019,448,176a8,8,0,0,0-8-8H232a24.028,24.028,0,0,1-24-24V120a55.872,55.872,0,0,0-19.017-42l9.812-9.587a30.3,30.3,0,0,0,0-43.5,31.662,31.662,0,0,0-43.989,0L152,27.657l-2.806-2.741a31.663,31.663,0,0,0-43.989,0,30.3,30.3,0,0,0,0,43.5L115.017,78a56.424,56.424,0,0,0-10.908,13L60.422,112.845a8,8,0,0,0,0,14.31L99.1,146.492l18.056,103.825A83.935,83.935,0,0,0,200,320h32v24h.028a40.072,40.072,0,0,0-15.223,24H104V352A8,8,0,0,0,100.206,345.2ZM88,387.056,65.889,376,88,364.944ZM416,368H398.948l5.333-8h44.771l-7.708,11.562a8,8,0,0,0,0,8.876L449.052,392H404.281l-5.333-8H416a8,8,0,0,0,0-16ZM96,120v7.056L81.889,120l14.6-7.3A56.212,56.212,0,0,0,96,120ZM264,480H248V415.2a40.154,40.154,0,0,0,16,0ZM233.231,184h100.7c-4.4,8.576-15.483,16-29.929,16H272a8,8,0,0,0,0,16h38.452c-4.565,12.3-18.417,24-30.452,24h-8a8,8,0,0,0,0,16h14.931c-2.852,9.933-11.23,16-22.931,16H233.234A41.135,41.135,0,0,1,192,231.059v-6.118A41.133,41.133,0,0,1,233.231,184ZM112,46.665a14.318,14.318,0,0,1,4.385-10.3,15.568,15.568,0,0,1,21.628,0l8.4,8.2a8,8,0,0,0,11.182,0l8.4-8.2a15.567,15.567,0,0,1,21.628,0,14.3,14.3,0,0,1,0,20.608L176.679,67.653a15.125,15.125,0,0,1-1.6,1.345,55.794,55.794,0,0,0-46.162,0,15.226,15.226,0,0,1-1.6-1.344L116.385,56.969A14.322,14.322,0,0,1,112,46.665ZM200,304a67.964,67.964,0,0,1-67.084-56.424L112,127.31V120a40,40,0,0,1,80,0v24a39.926,39.926,0,0,0,14.37,30.68A56.951,56.951,0,0,0,176,224.941v6.118A57.153,57.153,0,0,0,233.234,288H264c23.552,0,40-16.449,40-40v-.037c12.923-8.684,22.9-23.212,23.915-37.569,11.209-5.477,20.241-14.689,23.118-26.394h80.03c-4.041,17.332-20.569,32-37.92,32a7.975,7.975,0,0,0-1.143.091V216H360a8,8,0,0,0,0,16h32v-.091a7.975,7.975,0,0,0,1.143.091h5.92c-4.041,17.332-20.569,32-37.92,32a7.975,7.975,0,0,0-1.143.091V264H328a8,8,0,0,0,0,16h32v-.091a7.975,7.975,0,0,0,1.143.091h6.183C364.575,295.364,353.5,304,336,304Zm64,16v16.805a40.154,40.154,0,0,0-16,0V320Zm-8,32a24,24,0,1,1-24,24A24.028,24.028,0,0,1,256,352Z"/><circle cx="144" cy="104" r="8"/></svg>
