<?xml version="1.0"?>
<svg xmlns="http://www.w3.org/2000/svg" id="Outline" viewBox="0 0 512 512" width="512" height="512"><path d="M66.341,470.894C56.469,465.788,45.279,460,24,460a8,8,0,0,0,0,16c17.386,0,25.544,4.22,34.989,9.105C68.862,490.212,80.052,496,101.331,496s32.469-5.788,42.342-10.895c9.445-4.885,17.6-9.105,34.99-9.105s25.544,4.22,34.989,9.105C223.525,490.212,234.715,496,255.994,496s32.469-5.788,42.342-10.894c9.446-4.886,17.6-9.106,34.991-9.106s25.546,4.22,34.993,9.106C378.192,490.212,389.383,496,410.663,496s32.472-5.788,42.344-10.895C462.454,480.22,470.612,476,488,476a8,8,0,0,0,0-16c-21.28,0-32.471,5.788-42.343,10.894A89.568,89.568,0,0,1,432,477V447.58c22.228-2.332,40.091-14.535,51.973-35.658a105.487,105.487,0,0,0,11.965-34.93A8,8,0,0,0,488,368c-2.275,0-4.461.088-6.608.214a104.367,104.367,0,0,0,14.546-39.222A8,8,0,0,0,488,320c-2.275,0-4.461.088-6.608.214a104.367,104.367,0,0,0,14.546-39.222A8,8,0,0,0,488,272c-2.275,0-4.461.088-6.608.214a104.367,104.367,0,0,0,14.546-39.222A8,8,0,0,0,488,224c-2.275,0-4.461.088-6.608.214a104.367,104.367,0,0,0,14.546-39.222A8,8,0,0,0,488,176c-2.275,0-4.461.088-6.608.214a104.367,104.367,0,0,0,14.546-39.222A8,8,0,0,0,488,128c-2.275,0-4.461.088-6.608.214a104.367,104.367,0,0,0,14.546-39.222A8,8,0,0,0,488,80c-34.9,0-54.551,15.526-64,26.318C414.551,95.526,394.9,80,360,80a8,8,0,0,0-7.938,8.992,104.367,104.367,0,0,0,14.546,39.222c-2.147-.126-4.333-.214-6.608-.214a8,8,0,0,0-7.938,8.992,104.367,104.367,0,0,0,14.546,39.222c-2.147-.126-4.333-.214-6.608-.214a8,8,0,0,0-7.938,8.992,104.367,104.367,0,0,0,14.546,39.222c-2.147-.126-4.333-.214-6.608-.214a8,8,0,0,0-7.938,8.992,104.367,104.367,0,0,0,14.546,39.222c-2.147-.126-4.333-.214-6.608-.214a8,8,0,0,0-7.938,8.992,104.367,104.367,0,0,0,14.546,39.222c-2.147-.126-4.333-.214-6.608-.214a8,8,0,0,0-7.938,8.992,104.367,104.367,0,0,0,14.546,39.222c-2.147-.126-4.333-.214-6.608-.214a8,8,0,0,0-7.938,8.992,105.487,105.487,0,0,0,11.965,34.93c11.882,21.123,29.745,33.326,51.973,35.658v32.266c-1.685.095-3.447.154-5.337.154-17.388,0-25.546-4.22-34.993-9.106C365.8,465.788,354.607,460,333.327,460s-32.47,5.788-42.343,10.895c-7.86,4.065-14.848,7.66-26.984,8.756V431.58c22.228-2.332,40.091-14.535,51.973-35.658a105.487,105.487,0,0,0,11.965-34.93A8,8,0,0,0,320,352c-2.275,0-4.461.088-6.608.214a104.367,104.367,0,0,0,14.546-39.222A8,8,0,0,0,320,304c-2.275,0-4.461.088-6.608.214a104.367,104.367,0,0,0,14.546-39.222A8,8,0,0,0,320,256c-2.275,0-4.461.088-6.608.214a104.367,104.367,0,0,0,14.546-39.222A8,8,0,0,0,320,208c-2.275,0-4.461.088-6.608.214a104.367,104.367,0,0,0,14.546-39.222A8,8,0,0,0,320,160c-2.275,0-4.461.088-6.608.214a104.367,104.367,0,0,0,14.546-39.222A8,8,0,0,0,320,112c-2.275,0-4.461.088-6.608.214a104.367,104.367,0,0,0,14.546-39.222A8,8,0,0,0,320,64c-2.275,0-4.461.088-6.608.214a104.367,104.367,0,0,0,14.546-39.222A8,8,0,0,0,320,16c-34.9,0-54.551,15.526-64,26.318C246.551,31.526,226.9,16,192,16a8,8,0,0,0-7.938,8.992,104.367,104.367,0,0,0,14.546,39.222C196.461,64.088,194.275,64,192,64a8,8,0,0,0-7.938,8.992,104.367,104.367,0,0,0,14.546,39.222c-2.147-.126-4.333-.214-6.608-.214a8,8,0,0,0-7.938,8.992,104.367,104.367,0,0,0,14.546,39.222c-2.147-.126-4.333-.214-6.608-.214a8,8,0,0,0-7.938,8.992,104.367,104.367,0,0,0,14.546,39.222c-2.147-.126-4.333-.214-6.608-.214a8,8,0,0,0-7.938,8.992,104.367,104.367,0,0,0,14.546,39.222c-2.147-.126-4.333-.214-6.608-.214a8,8,0,0,0-7.938,8.992,104.367,104.367,0,0,0,14.546,39.222c-2.147-.126-4.333-.214-6.608-.214a8,8,0,0,0-7.938,8.992,104.367,104.367,0,0,0,14.546,39.222c-2.147-.126-4.333-.214-6.608-.214a8,8,0,0,0-7.938,8.992,105.487,105.487,0,0,0,11.965,34.93c11.882,21.123,29.745,33.326,51.973,35.658v48.072c-12.144-1.094-19.134-4.691-27-8.758C211.132,465.788,199.942,460,178.663,460s-32.469,5.788-42.342,10.895c-9.445,4.885-17.6,9.105-34.99,9.105-1.887,0-3.648-.059-5.331-.153V447.58c22.228-2.332,40.091-14.535,51.973-35.658a105.487,105.487,0,0,0,11.965-34.93A8,8,0,0,0,152,368c-2.275,0-4.461.088-6.608.214a104.367,104.367,0,0,0,14.546-39.222A8,8,0,0,0,152,320c-2.275,0-4.461.088-6.608.214a104.367,104.367,0,0,0,14.546-39.222A8,8,0,0,0,152,272c-2.275,0-4.461.088-6.608.214a104.367,104.367,0,0,0,14.546-39.222A8,8,0,0,0,152,224c-2.275,0-4.461.088-6.608.214a104.367,104.367,0,0,0,14.546-39.222A8,8,0,0,0,152,176c-2.275,0-4.461.088-6.608.214a104.367,104.367,0,0,0,14.546-39.222A8,8,0,0,0,152,128c-2.275,0-4.461.088-6.608.214a104.367,104.367,0,0,0,14.546-39.222A8,8,0,0,0,152,80c-34.9,0-54.551,15.526-64,26.318C78.551,95.526,58.9,80,24,80a8,8,0,0,0-7.938,8.992,104.367,104.367,0,0,0,14.546,39.222C28.461,128.088,26.275,128,24,128a8,8,0,0,0-7.938,8.992,104.367,104.367,0,0,0,14.546,39.222C28.461,176.088,26.275,176,24,176a8,8,0,0,0-7.938,8.992,104.367,104.367,0,0,0,14.546,39.222C28.461,224.088,26.275,224,24,224a8,8,0,0,0-7.938,8.992,104.367,104.367,0,0,0,14.546,39.222C28.461,272.088,26.275,272,24,272a8,8,0,0,0-7.938,8.992,104.367,104.367,0,0,0,14.546,39.222C28.461,320.088,26.275,320,24,320a8,8,0,0,0-7.938,8.992,104.367,104.367,0,0,0,14.546,39.222C28.461,368.088,26.275,368,24,368a8,8,0,0,0-7.938,8.992,105.487,105.487,0,0,0,11.965,34.93C39.909,433.045,57.772,445.248,80,447.58V477A89.554,89.554,0,0,1,66.341,470.894ZM432,122.144c3.3-5.226,16.255-22.38,45.993-25.615-2.614,9.435-8.206,23.958-19.454,34.464-.766.716-1.556,1.4-2.356,2.055A76.844,76.844,0,0,0,432,146.543Zm0,48c3.3-5.226,16.255-22.38,45.993-25.615-2.614,9.435-8.206,23.958-19.454,34.464-.766.716-1.556,1.4-2.356,2.055A76.844,76.844,0,0,0,432,194.543Zm0,48c3.3-5.226,16.255-22.38,45.993-25.615-2.614,9.435-8.206,23.958-19.454,34.464-.766.716-1.556,1.4-2.356,2.055A76.844,76.844,0,0,0,432,242.543Zm0,48c3.3-5.226,16.255-22.38,45.993-25.615-2.614,9.435-8.206,23.958-19.454,34.464-.766.716-1.556,1.4-2.356,2.055A76.844,76.844,0,0,0,432,290.543Zm0,48c3.3-5.226,16.255-22.38,45.993-25.615-2.614,9.435-8.206,23.958-19.454,34.464-.766.716-1.556,1.4-2.356,2.055A76.844,76.844,0,0,0,432,338.543Zm0,48c3.3-5.226,16.255-22.38,45.993-25.615-2.614,9.435-8.206,23.958-19.454,34.464-.766.716-1.556,1.4-2.356,2.055A76.844,76.844,0,0,0,432,386.543Zm0,48c3.3-5.225,16.25-22.374,45.974-25.614a88.7,88.7,0,0,1-8.171,19.943c-8.983,15.744-21.681,24.78-37.8,26.979Zm-16-288v24.4a76.844,76.844,0,0,0-24.183-13.5c-.8-.659-1.59-1.339-2.356-2.055-11.18-10.443-16.791-25-19.428-34.462C399.752,99.774,412.705,116.921,416,122.145Zm0,48v24.4a76.844,76.844,0,0,0-24.183-13.5c-.8-.659-1.59-1.339-2.356-2.055-11.18-10.443-16.791-25-19.428-34.462C399.752,147.774,412.705,164.921,416,170.145Zm0,48v24.4a76.844,76.844,0,0,0-24.183-13.5c-.8-.659-1.59-1.339-2.356-2.055-11.18-10.443-16.791-25-19.428-34.462C399.752,195.774,412.705,212.921,416,218.145Zm0,48v24.4a76.844,76.844,0,0,0-24.183-13.5c-.8-.659-1.59-1.339-2.356-2.055-11.18-10.443-16.791-25-19.428-34.462C399.752,243.774,412.705,260.921,416,266.145Zm0,48v24.4a76.844,76.844,0,0,0-24.183-13.5c-.8-.659-1.59-1.339-2.356-2.055-11.18-10.443-16.791-25-19.428-34.462C399.752,291.774,412.705,308.921,416,314.145Zm0,48v24.4a76.844,76.844,0,0,0-24.183-13.5c-.8-.659-1.59-1.339-2.356-2.055-11.18-10.443-16.791-25-19.428-34.462C399.752,339.774,412.705,356.921,416,362.145Zm-37.8,42.329a88.813,88.813,0,0,1-8.172-19.943c29.725,3.241,42.68,20.389,45.975,25.614v21.308C399.878,429.254,387.18,420.218,378.2,404.474ZM264,58.144c3.3-5.226,16.255-22.38,45.993-25.615-2.614,9.435-8.206,23.958-19.454,34.464-.766.716-1.556,1.4-2.356,2.055A76.844,76.844,0,0,0,264,82.543Zm0,48c3.3-5.226,16.255-22.38,45.993-25.615-2.614,9.435-8.206,23.958-19.454,34.464-.766.716-1.556,1.4-2.356,2.055A76.844,76.844,0,0,0,264,130.543Zm0,48c3.3-5.226,16.255-22.38,45.993-25.615-2.614,9.435-8.206,23.958-19.454,34.464-.766.716-1.556,1.4-2.356,2.055A76.844,76.844,0,0,0,264,178.543Zm0,48c3.3-5.226,16.255-22.38,45.993-25.615-2.614,9.435-8.206,23.958-19.454,34.464-.766.716-1.556,1.4-2.356,2.055A76.844,76.844,0,0,0,264,226.543Zm0,48c3.3-5.226,16.255-22.38,45.993-25.615-2.614,9.435-8.206,23.958-19.454,34.464-.766.716-1.556,1.4-2.356,2.055A76.844,76.844,0,0,0,264,274.543Zm0,48c3.3-5.226,16.255-22.38,45.993-25.615-2.614,9.435-8.206,23.958-19.454,34.464-.766.716-1.556,1.4-2.356,2.055A76.844,76.844,0,0,0,264,322.543Zm0,48c3.3-5.226,16.255-22.38,45.993-25.615-2.614,9.435-8.206,23.958-19.454,34.464-.766.716-1.556,1.4-2.356,2.055A76.844,76.844,0,0,0,264,370.543Zm0,48c3.3-5.225,16.25-22.374,45.974-25.614a88.7,88.7,0,0,1-8.171,19.943c-8.983,15.744-21.681,24.78-37.8,26.979Zm-16-336v24.4a76.844,76.844,0,0,0-24.183-13.5c-.8-.659-1.59-1.339-2.356-2.055-11.18-10.443-16.791-25-19.428-34.462C231.752,35.774,244.705,52.921,248,58.145Zm0,48v24.4a76.844,76.844,0,0,0-24.183-13.5c-.8-.659-1.59-1.339-2.356-2.055-11.18-10.443-16.791-25-19.428-34.462C231.752,83.774,244.705,100.921,248,106.145Zm0,48v24.4a76.844,76.844,0,0,0-24.183-13.5c-.8-.659-1.59-1.339-2.356-2.055-11.18-10.443-16.791-25-19.428-34.462C231.752,131.774,244.705,148.921,248,154.145Zm0,48v24.4a76.844,76.844,0,0,0-24.183-13.5c-.8-.659-1.59-1.339-2.356-2.055-11.18-10.443-16.791-25-19.428-34.462C231.752,179.774,244.705,196.921,248,202.145Zm0,48v24.4a76.844,76.844,0,0,0-24.183-13.5c-.8-.659-1.59-1.339-2.356-2.055-11.18-10.443-16.791-25-19.428-34.462C231.752,227.774,244.705,244.921,248,250.145Zm0,48v24.4a76.844,76.844,0,0,0-24.183-13.5c-.8-.659-1.59-1.339-2.356-2.055-11.18-10.443-16.791-25-19.428-34.462C231.752,275.774,244.705,292.921,248,298.145Zm0,48v24.4a76.844,76.844,0,0,0-24.183-13.5c-.8-.659-1.59-1.339-2.356-2.055-11.18-10.443-16.791-25-19.428-34.462C231.752,323.774,244.705,340.921,248,346.145Zm-37.8,42.329a88.813,88.813,0,0,1-8.172-19.943c29.725,3.241,42.68,20.389,45.975,25.614v21.308C231.878,413.254,219.18,404.218,210.2,388.474ZM96,122.144c3.3-5.226,16.255-22.38,45.993-25.615-2.614,9.435-8.206,23.958-19.454,34.464-.766.716-1.556,1.4-2.356,2.055A76.844,76.844,0,0,0,96,146.543Zm0,48c3.3-5.226,16.255-22.38,45.993-25.615-2.614,9.435-8.206,23.958-19.454,34.464-.766.716-1.556,1.4-2.356,2.055A76.844,76.844,0,0,0,96,194.543Zm0,48c3.3-5.226,16.255-22.38,45.993-25.615-2.614,9.435-8.206,23.958-19.454,34.464-.766.716-1.556,1.4-2.356,2.055A76.844,76.844,0,0,0,96,242.543Zm0,48c3.3-5.226,16.255-22.38,45.993-25.615-2.614,9.435-8.206,23.958-19.454,34.464-.766.716-1.556,1.4-2.356,2.055A76.844,76.844,0,0,0,96,290.543Zm0,48c3.3-5.226,16.255-22.38,45.993-25.615-2.614,9.435-8.206,23.958-19.454,34.464-.766.716-1.556,1.4-2.356,2.055A76.844,76.844,0,0,0,96,338.543Zm0,48c3.3-5.226,16.255-22.38,45.993-25.615-2.614,9.435-8.206,23.958-19.454,34.464-.766.716-1.556,1.4-2.356,2.055A76.844,76.844,0,0,0,96,386.543Zm0,48c3.3-5.225,16.25-22.374,45.974-25.614a88.7,88.7,0,0,1-8.171,19.943c-8.983,15.744-21.681,24.78-37.8,26.979Zm-16-288v24.4a76.844,76.844,0,0,0-24.183-13.5c-.8-.659-1.59-1.339-2.356-2.055-11.18-10.443-16.791-25-19.428-34.462C63.752,99.774,76.705,116.921,80,122.145Zm0,48v24.4a76.844,76.844,0,0,0-24.183-13.5c-.8-.659-1.59-1.339-2.356-2.055-11.18-10.443-16.791-25-19.428-34.462C63.752,147.774,76.705,164.921,80,170.145Zm0,48v24.4a76.844,76.844,0,0,0-24.183-13.5c-.8-.659-1.59-1.339-2.356-2.055-11.18-10.443-16.791-25-19.428-34.462C63.752,195.774,76.705,212.921,80,218.145Zm0,48v24.4a76.844,76.844,0,0,0-24.183-13.5c-.8-.659-1.59-1.339-2.356-2.055-11.18-10.443-16.791-25-19.428-34.462C63.752,243.774,76.705,260.921,80,266.145Zm0,48v24.4a76.844,76.844,0,0,0-24.183-13.5c-.8-.659-1.59-1.339-2.356-2.055-11.18-10.443-16.791-25-19.428-34.462C63.752,291.774,76.705,308.921,80,314.145Zm0,48v24.4a76.844,76.844,0,0,0-24.183-13.5c-.8-.659-1.59-1.339-2.356-2.055-11.18-10.443-16.791-25-19.428-34.462C63.752,339.774,76.705,356.921,80,362.145ZM42.2,404.474a88.813,88.813,0,0,1-8.172-19.943C63.75,387.772,76.705,404.92,80,410.145v21.308C63.878,429.254,51.18,420.218,42.2,404.474Z"/></svg>
