<?xml version="1.0"?>
<svg xmlns="http://www.w3.org/2000/svg" id="Outline" viewBox="0 0 512 512" width="512" height="512"><path d="M128,408a24,24,0,1,0-24-24A24.027,24.027,0,0,0,128,408Zm0-32a8,8,0,1,1-8,8A8.009,8.009,0,0,1,128,376Z"/><path d="M16,432a8,8,0,0,0,8,8H456a8,8,0,0,0,0-16H383.421a32.078,32.078,0,0,0,3.805-10.695L414.559,264H424a24,24,0,0,0,.693-47.982l4-48.018H472a24,24,0,0,0,0-48H424v.009a7.959,7.959,0,0,0-7.963,7.328h-.009L408.639,216H391.9c.061-1,.1-2,.1-3,0-19.737-12.021-37.473-30.373-45.517C356.588,144.656,335.642,128,310.957,128q-.838,0-1.682.027C302.589,107.613,282.558,93,259.826,93q-.792,0-1.6.025a52.921,52.921,0,0,0-84.458,0q-.805-.024-1.6-.025c-22.732,0-42.763,14.613-49.449,35.027q-.843-.027-1.682-.027c-24.685,0-45.631,16.656-50.67,39.483C52.021,175.527,40,193.263,40,213c0,1,.036,2,.1,3H40a24,24,0,0,0-4.5,47.57l54.531,79.318A55.884,55.884,0,0,0,88.862,424H24A8,8,0,0,0,16,432ZM431.361,136H472a8,8,0,0,1,0,16H430.028ZM167.138,424A55.82,55.82,0,0,0,184,384c0-.685-.027-1.363-.052-2.041l98.95-17.991-1.213.943L327.643,424Zm204.306-13.326a15.949,15.949,0,0,1-28.32,7.17l-44.173-56.8,83.288-15.143ZM80.014,180.9a8,8,0,0,0,5.429-6.672c2-17.234,17.305-30.23,35.6-30.23a37.917,37.917,0,0,1,6.441.561,8,8,0,0,0,9.262-6.639c2.6-16.488,17.828-28.922,35.428-28.922a37.711,37.711,0,0,1,4.679.3,7.993,7.993,0,0,0,7.872-3.874,36.778,36.778,0,0,1,62.55,0,7.993,7.993,0,0,0,7.872,3.874,37.711,37.711,0,0,1,4.679-.3c17.6,0,32.83,12.434,35.428,28.922a8,8,0,0,0,9.262,6.639,37.917,37.917,0,0,1,6.441-.561c18.3,0,33.6,13,35.6,30.23a8,8,0,0,0,5.429,6.672C366.35,185.665,376,198.563,376,213c0,1-.063,2-.155,3H56.155c-.092-1-.155-2-.155-3C56,198.563,65.65,185.665,80.014,180.9ZM32,240a8.009,8.009,0,0,1,8-8H424a8,8,0,0,1,0,16H40A8.009,8.009,0,0,1,32,240Zm23.208,24H398.241l-13.02,65.1L181.088,366.216A55.949,55.949,0,0,0,103.2,333.808ZM88,384a40,40,0,1,1,40,40A40.045,40.045,0,0,1,88,384Z"/></svg>
