<svg id="Outline" enable-background="new 0 0 512 512" height="512" viewBox="0 0 512 512" width="512" xmlns="http://www.w3.org/2000/svg"><circle cx="256" cy="208" r="8"/><path d="m447.94 304.978c.301-2.445-.541-4.893-2.283-6.635l-77.657-77.657v-81.372l61.657-61.657c3.124-3.124 3.124-8.189 0-11.314l-24-24c-3.124-3.124-8.189-3.124-11.314 0l-8.755 8.757-18.728-31.216c-2.273-3.789-7.187-5.017-10.976-2.744-.561.337-1.079.741-1.541 1.203l-42.461 42.457-50.714-42.907c-2.983-2.524-7.353-2.524-10.336 0l-81.047 68.578-44.128-44.128c-3.124-3.124-8.189-3.124-11.314 0l-24 24c-3.124 3.124-3.124 8.189 0 11.314l8.757 8.755-31.216 18.728c-3.789 2.273-5.017 7.187-2.744 10.976.337.561.741 1.079 1.203 1.541l77.657 77.657v89.372l-53.657 53.657c-3.124 3.124-3.124 8.189 0 11.314l24 24c3.124 3.124 8.189 3.124 11.314 0l8.755-8.755 9.588 15.981v39.8l-29.657 29.657c-1.504 1.499-2.347 3.537-2.343 5.66v32c0 4.418 3.582 8 8 8h272c4.418 0 8-3.582 8-8v-32c.003-2.122-.84-4.158-2.343-5.656l-29.657-29.658v-65.372l18.343 18.343c3.124 3.124 8.189 3.124 11.314 0l24-24c3.124-3.124 3.124-8.189 0-11.314l-8.755-8.755 31.214-18.728c2.112-1.267 3.523-3.437 3.824-5.882zm-47.94-245.664 12.687 12.686-120.026 120.025c-2.458-5.607-6.164-10.579-10.836-14.536zm-48 96v49.372l-2.343-2.343c-2.597-2.595-6.626-3.09-9.773-1.2l-34.644 20.783-9.492-9.492c.036-.318.064-.639.092-.96zm6.412-118.414 15.514 25.86-84.338 84.34-15.515-25.86zm-102.412 315.1c-25.312 0-32 15.7-32 24v40h-64v-16c2.121 0 4.156-.843 5.656-2.343l96-96c2.595-2.597 3.09-6.626 1.2-9.773l-20.782-34.644 9.492-9.492c2.946.336 5.922.336 8.868 0l91.566 91.566v76.686h-64v-40c0-8.3-6.688-24-32-24zm16 24v.136c0-.089 0-.136 0-.136zm0 .166v39.834h-32v-40c0-.08.183-8 16-8 14.509 0 15.878 6.656 16 8.166zm-125.926-22.926 84.338-84.34 15.515 25.858-84.339 84.342zm109.926-121.24c-13.255 0-24-10.745-24-24s10.745-24 24-24 24 10.745 24 24c-.015 13.248-10.752 23.985-24 24zm0-197.521 44.529 37.678-42.186 42.186c-2.595 2.597-3.09 6.626-1.2 9.773l20.786 34.644-10.821 10.821c-5.04-1.469-10.322-1.92-15.539-1.329l-70.431-70.428zm-136 24.834 114.794 114.8c-5.128 3.221-9.465 7.558-12.686 12.686l-114.795-114.799zm96.252 153.121-56.252 56.252v-57.372l2.343 2.343c2.597 2.595 6.626 3.09 9.773 1.2l34.644-20.786 9.492 9.492c-.336 2.946-.336 5.922 0 8.868zm-131.352-98.846 25.86-15.514 84.34 84.338-25.86 15.514zm35.1 243.1-12.687-12.688 114.8-114.794c3.221 5.128 7.558 9.465 12.686 12.686zm264 123.312h-256v-16h256zm-11.314-32h-233.372l16-16h201.373zm19.314-91.313-114.794-114.8c5.128-3.221 9.465-7.558 12.686-12.686l114.795 114.799zm9.24-38.761-84.34-84.338 25.858-15.514 84.342 84.338z"/></svg>