<?xml version="1.0" encoding="iso-8859-1"?>
<!-- Generator: Adobe Illustrator 19.0.0, SVG Export Plug-In . SVG Version: 6.00 Build 0)  -->
<svg version="1.1" id="Capa_1" xmlns="http://www.w3.org/2000/svg" xmlns:xlink="http://www.w3.org/1999/xlink" x="0px" y="0px"
	 viewBox="0 0 511.871 511.871" style="enable-background:new 0 0 511.871 511.871;" xml:space="preserve">
<g>
	<g>
		<path d="M248.18,471.88h-0.086c-2.202,0-3.952,1.789-3.952,3.999c0,2.21,1.828,3.999,4.038,3.999c2.202,0,3.999-1.789,3.999-3.999
			C252.179,473.669,250.382,471.88,248.18,471.88z"/>
	</g>
</g>
<g>
	<g>
		<path d="M256.178,343.914h-0.086c-2.202,0-3.952,1.788-3.952,3.999c0,2.21,1.828,3.999,4.038,3.999
			c2.202,0,3.999-1.789,3.999-3.999C260.177,345.701,258.38,343.914,256.178,343.914z"/>
	</g>
</g>
<g>
	<g>
		<path d="M192.615,218.164c-2.053-0.246-4.17,1.323-4.42,3.526l-4.483,39.701c-0.242,2.196,1.335,4.175,3.53,4.425
			c0.149,0.015,0.297,0.023,0.453,0.023c2.008,0,3.734-1.507,3.968-3.55l4.483-39.701
			C196.387,220.393,194.81,218.414,192.615,218.164z"/>
	</g>
</g>
<g>
	<g>
		<path d="M173.777,385.317c-2.038-0.211-4.171,1.32-4.421,3.522l-13.371,118.58c-0.242,2.202,1.335,4.179,3.53,4.429
			c0.148,0.015,0.297,0.023,0.453,0.023c2.007,0,3.734-1.508,3.968-3.547l13.371-118.578
			C177.549,387.544,175.972,385.567,173.777,385.317z"/>
	</g>
</g>
<g>
	<g>
		<path d="M221.656,198.93c-1.367-1.745-3.882-2.034-5.616-0.671l-26.345,20.736c-1.734,1.367-2.031,3.882-0.664,5.616
			c0.789,1.004,1.961,1.527,3.14,1.527c0.867,0,1.742-0.282,2.476-0.855l26.345-20.737
			C222.726,203.18,223.023,200.664,221.656,198.93z"/>
	</g>
</g>
<g>
	<g>
		<path d="M375.906,503.873h-239.94c-2.21,0-3.999,1.788-3.999,3.998c0,2.211,1.789,4,3.999,4h239.94c2.21,0,3.999-1.79,3.999-4
			C379.905,505.661,378.116,503.873,375.906,503.873z"/>
	</g>
</g>
<g>
	<g>
		<path d="M355.887,507.419l-21.979-195.045c-0.258-2.186-2.304-3.749-4.421-3.522c-2.195,0.25-3.772,2.227-3.53,4.429
			l21.979,195.044c0.235,2.039,1.961,3.547,3.968,3.547c0.148,0,0.304-0.008,0.453-0.024
			C354.552,511.597,356.129,509.62,355.887,507.419z"/>
	</g>
</g>
<g>
	<g>
		<path d="M318.131,215.801l-22.291-17.542c-1.726-1.352-4.241-1.071-5.616,0.671c-1.367,1.734-1.07,4.249,0.664,5.616
			l22.291,17.542c0.735,0.574,1.61,0.855,2.477,0.855c1.178,0,2.35-0.523,3.139-1.526
			C320.161,219.683,319.864,217.168,318.131,215.801z"/>
	</g>
</g>
<g>
	<g>
		<path d="M242.767,229.38c-1.561-1.562-4.092-1.562-5.654,0L74.826,391.667c-1.562,1.562-1.562,4.093,0,5.655
			c0.781,0.781,1.804,1.172,2.827,1.172c1.023,0,2.046-0.391,2.827-1.172l162.287-162.287
			C244.329,233.472,244.329,230.941,242.767,229.38z"/>
	</g>
</g>
<g>
	<g>
		<path d="M437.046,35.1c-1.562-1.562-4.092-1.562-5.654,0L265.386,201.121c-1.562,1.562-1.562,4.093,0,5.655
			c0.781,0.78,1.805,1.171,2.828,1.171c1.024,0,2.046-0.391,2.827-1.172L437.046,40.754C438.608,39.193,438.608,36.662,437.046,35.1
			z"/>
	</g>
</g>
<g>
	<g>
		<path d="M431.391,29.445L403.117,1.172c-1.562-1.562-4.093-1.562-5.655,0c-1.562,1.562-1.562,4.093,0,5.655L425.737,35.1
			c0.781,0.781,1.804,1.171,2.827,1.171s2.047-0.39,2.827-1.171C432.953,33.539,432.953,31.008,431.391,29.445z"/>
	</g>
</g>
<g>
	<g>
		<path d="M397.462,63.375l-22.619-22.62c-1.562-1.562-4.092-1.562-5.654,0s-1.562,4.093,0,5.655l22.619,22.619
			c0.781,0.781,1.804,1.172,2.827,1.172c1.024,0,2.046-0.391,2.827-1.171C399.024,67.469,399.024,64.938,397.462,63.375z"/>
	</g>
</g>
<g>
	<g>
		<path d="M363.534,97.318l-22.619-22.635c-1.561-1.562-4.093-1.562-5.655,0c-1.562,1.558-1.562,4.093,0,5.655l22.619,22.635
			c0.781,0.781,1.805,1.172,2.828,1.172s2.045-0.391,2.827-1.173C365.096,101.415,365.096,98.88,363.534,97.318z"/>
	</g>
</g>
<g>
	<g>
		<path d="M329.589,131.248l-22.619-22.619c-1.562-1.562-4.093-1.562-5.655,0c-1.562,1.562-1.562,4.092,0,5.654l22.619,22.62
			c0.781,0.78,1.805,1.171,2.828,1.171s2.046-0.391,2.827-1.171C331.151,135.341,331.151,132.81,329.589,131.248z"/>
	</g>
</g>
<g>
	<g>
		<path d="M295.66,165.177l-28.274-28.29c-1.562-1.562-4.092-1.562-5.654,0c-1.562,1.562-1.562,4.093,0,5.655l28.273,28.29
			c0.781,0.78,1.805,1.171,2.828,1.171s2.046-0.391,2.827-1.171C297.222,169.271,297.222,166.74,295.66,165.177z"/>
	</g>
</g>
<g>
	<g>
		<path d="M403.117,1.172c-1.562-1.562-4.093-1.562-5.655,0l-135.73,135.715c-1.562,1.562-1.562,4.093,0,5.655
			c0.78,0.781,1.804,1.172,2.827,1.172s2.046-0.39,2.827-1.172L403.117,6.826C404.679,5.264,404.679,2.733,403.117,1.172z"/>
	</g>
</g>
<g>
	<g>
		<path d="M414.427,23.79c-1.562-1.562-4.092-1.562-5.654,0L284.351,148.212c-1.562,1.562-1.562,4.093,0,5.655
			c0.781,0.781,1.804,1.172,2.827,1.172s2.046-0.391,2.827-1.172L414.427,29.444C415.989,27.883,415.989,25.352,414.427,23.79z"/>
	</g>
</g>
<g>
	<g>
		<path d="M114.41,425.595l-28.274-28.274c-1.562-1.562-4.093-1.562-5.655,0c-1.562,1.562-1.562,4.093,0,5.655l28.274,28.273
			c0.781,0.781,1.804,1.172,2.827,1.172s2.046-0.39,2.828-1.172C115.972,429.688,115.972,427.157,114.41,425.595z"/>
	</g>
</g>
<g>
	<g>
		<path d="M142.7,386.011l-22.635-22.635c-1.562-1.562-4.093-1.562-5.655,0c-1.562,1.562-1.562,4.092,0,5.654l22.635,22.635
			c0.781,0.781,1.804,1.172,2.827,1.172c1.023,0,2.046-0.39,2.828-1.172C144.262,390.104,144.262,387.573,142.7,386.011z"/>
	</g>
</g>
<g>
	<g>
		<path d="M176.628,352.068l-22.62-22.611c-1.561-1.562-4.092-1.562-5.654,0c-1.562,1.561-1.562,4.092,0,5.654l22.619,22.612
			c0.781,0.78,1.804,1.171,2.827,1.171c1.024,0,2.047-0.391,2.828-1.171C178.19,356.16,178.19,353.63,176.628,352.068z"/>
	</g>
</g>
<g>
	<g>
		<path d="M210.557,318.146l-22.62-22.627c-1.562-1.562-4.093-1.562-5.655,0c-1.562,1.561-1.562,4.092,0,5.654l22.619,22.627
			c0.782,0.781,1.805,1.172,2.828,1.172c1.023,0,2.047-0.391,2.828-1.172C212.119,322.238,212.119,319.708,210.557,318.146z"/>
	</g>
</g>
<g>
	<g>
		<path d="M250.14,289.857l-28.273-28.267c-1.562-1.562-4.093-1.562-5.655,0s-1.562,4.093,0,5.655l28.274,28.267
			c0.781,0.78,1.804,1.171,2.827,1.171s2.047-0.391,2.827-1.171C251.702,293.949,251.702,291.419,250.14,289.857z"/>
	</g>
</g>
<g>
	<g>
		<path d="M250.14,289.856c-1.561-1.562-4.092-1.562-5.654,0L108.755,425.595c-1.562,1.562-1.562,4.092,0,5.654
			c0.781,0.781,1.804,1.172,2.827,1.172s2.046-0.39,2.827-1.172L250.14,295.511C251.702,293.949,251.702,291.418,250.14,289.856z"/>
	</g>
</g>
<g>
	<g>
		<path d="M227.521,278.555c-1.561-1.562-4.092-1.562-5.654,0L97.445,402.977c-1.562,1.561-1.562,4.092,0,5.654
			c0.781,0.781,1.804,1.172,2.827,1.172s2.047-0.39,2.828-1.172l124.421-124.422C229.083,282.647,229.083,280.117,227.521,278.555z"
			/>
	</g>
</g>
<g>
	<g>
		<path d="M246.509,201.121L80.48,35.1c-1.561-1.562-4.092-1.562-5.654,0c-1.562,1.562-1.562,4.092,0,5.654l166.028,166.022
			c0.781,0.78,1.804,1.171,2.827,1.171c1.024,0,2.047-0.391,2.828-1.171C248.071,205.214,248.071,202.683,246.509,201.121z"/>
	</g>
</g>
<g>
	<g>
		<path d="M437.046,391.665L274.759,229.379c-1.562-1.562-4.092-1.562-5.654,0c-1.562,1.562-1.562,4.093,0,5.655l162.287,162.287
			c0.78,0.781,1.804,1.172,2.827,1.172s2.046-0.391,2.827-1.173C438.608,395.759,438.608,393.227,437.046,391.665z"/>
	</g>
</g>
<g>
	<g>
		<path d="M470.974,357.731c-1.561-1.562-4.092-1.562-5.654,0l-28.274,28.273c-1.562,1.562-1.562,4.092,0,5.654
			c0.781,0.781,1.805,1.172,2.828,1.172s2.046-0.391,2.827-1.172l28.273-28.273C472.536,361.823,472.536,359.293,470.974,357.731z"
			/>
	</g>
</g>
<g>
	<g>
		<path d="M431.392,329.456c-1.562-1.562-4.093-1.562-5.655,0l-22.619,22.627c-1.562,1.561-1.562,4.093,0,5.655
			c0.781,0.78,1.804,1.171,2.827,1.171s2.047-0.391,2.828-1.171l22.619-22.628C432.954,333.549,432.954,331.018,431.392,329.456z"/>
	</g>
</g>
<g>
	<g>
		<path d="M397.462,295.527c-1.561-1.562-4.092-1.562-5.654,0l-22.635,22.611c-1.562,1.561-1.562,4.092,0,5.654
			c0.781,0.781,1.804,1.172,2.827,1.172c1.024,0,2.046-0.39,2.827-1.172l22.635-22.611
			C399.024,299.628,399.024,297.089,397.462,295.527z"/>
	</g>
</g>
<g>
	<g>
		<path d="M363.518,261.59c-1.561-1.562-4.093-1.562-5.655,0l-22.619,22.611c-1.562,1.562-1.562,4.093,0,5.655
			c0.781,0.781,1.805,1.172,2.828,1.172s2.046-0.391,2.827-1.172l22.619-22.611C365.08,265.683,365.08,263.152,363.518,261.59z"/>
	</g>
</g>
<g>
	<g>
		<path d="M335.259,221.99c-1.561-1.562-4.092-1.562-5.654,0l-28.29,28.29c-1.562,1.562-1.562,4.093,0,5.655
			c0.781,0.781,1.805,1.172,2.827,1.172c1.023,0,2.047-0.391,2.828-1.172l28.289-28.29
			C336.821,226.083,336.821,223.552,335.259,221.99z"/>
	</g>
</g>
<g>
	<g>
		<path d="M470.975,357.73L335.259,221.99c-1.561-1.562-4.092-1.562-5.654,0s-1.562,4.093,0,5.655l135.716,135.739
			c0.78,0.781,1.804,1.172,2.827,1.172c1.023,0,2.047-0.391,2.827-1.172C472.537,361.823,472.537,359.292,470.975,357.73z"/>
	</g>
</g>
<g>
	<g>
		<path d="M448.356,369.039L323.934,244.626c-1.561-1.562-4.092-1.562-5.654,0c-1.562,1.561-1.562,4.092,0,5.654l124.422,124.414
			c0.78,0.781,1.804,1.172,2.827,1.172s2.047-0.391,2.827-1.172C449.918,373.133,449.918,370.602,448.356,369.039z"/>
	</g>
</g>
<g>
	<g>
		<path d="M74.825,40.755c-1.562-1.562-4.093-1.562-5.655,0L40.896,69.029c-1.562,1.563-1.562,4.093,0,5.655
			c0.782,0.781,1.805,1.171,2.828,1.171c1.023,0,2.046-0.39,2.827-1.171L74.825,46.41C76.387,44.849,76.387,42.318,74.825,40.755z"
			/>
	</g>
</g>
<g>
	<g>
		<path d="M108.769,74.685c-1.562-1.562-4.093-1.562-5.655,0L80.487,97.311c-1.562,1.561-1.562,4.092,0,5.654
			c0.782,0.781,1.805,1.172,2.828,1.172c1.023,0,2.047-0.39,2.828-1.172l22.626-22.626
			C110.331,78.777,110.331,76.246,108.769,74.685z"/>
	</g>
</g>
<g>
	<g>
		<path d="M142.698,108.621c-1.561-1.562-4.092-1.562-5.654,0l-22.62,22.619c-1.562,1.562-1.562,4.093,0,5.655
			c0.781,0.78,1.805,1.171,2.828,1.171c1.023,0,2.046-0.391,2.827-1.171l22.619-22.62
			C144.26,112.714,144.26,110.183,142.698,108.621z"/>
	</g>
</g>
<g>
	<g>
		<path d="M176.636,142.542c-1.562-1.562-4.093-1.562-5.655,0l-22.627,22.635c-1.562,1.562-1.562,4.093,0,5.655
			c0.781,0.78,1.804,1.171,2.827,1.171c1.024,0,2.047-0.391,2.828-1.171l22.627-22.635
			C178.198,146.635,178.198,144.104,176.636,142.542z"/>
	</g>
</g>
<g>
	<g>
		<path d="M210.557,176.486c-1.562-1.562-4.093-1.562-5.655,0l-28.274,28.274c-1.562,1.562-1.562,4.093,0,5.655
			c0.781,0.78,1.805,1.171,2.828,1.171c1.022,0,2.045-0.39,2.827-1.171l28.274-28.274
			C212.119,180.579,212.119,178.048,210.557,176.486z"/>
	</g>
</g>
<g>
	<g>
		<path d="M182.282,204.76L46.551,69.029c-1.562-1.562-4.093-1.562-5.655,0c-1.562,1.563-1.562,4.093,0,5.655l135.732,135.731
			c0.781,0.78,1.805,1.171,2.828,1.171c1.022,0,2.045-0.39,2.826-1.171C183.844,208.854,183.844,206.323,182.282,204.76z"/>
	</g>
</g>
<g>
	<g>
		<path d="M193.592,182.141L69.17,57.719c-1.561-1.562-4.092-1.562-5.654,0s-1.562,4.093,0,5.655l124.421,124.421
			c0.781,0.781,1.805,1.172,2.828,1.172c1.023,0,2.046-0.39,2.827-1.172C195.154,186.234,195.154,183.703,193.592,182.141z"/>
	</g>
</g>
<g>
	<g>
		<path d="M255.936,207.948c-6.615,0-11.997,5.382-11.997,11.997s5.382,11.997,11.997,11.997s11.997-5.382,11.997-11.997
			S262.551,207.948,255.936,207.948z M255.936,223.943c-2.202,0-3.999-1.792-3.999-3.999s1.797-3.999,3.999-3.999
			c2.202,0,3.999,1.792,3.999,3.999S258.138,223.943,255.936,223.943z"/>
	</g>
</g>
<g>
	<g>
		<path d="M239.94,439.889c-2.21,0-3.999,1.789-3.999,3.999v55.985c0,2.211,1.789,4,3.999,4c2.21,0,3.999-1.79,3.999-4v-55.985
			C243.939,441.678,242.15,439.889,239.94,439.889z"/>
	</g>
</g>
<g>
	<g>
		<path d="M271.932,439.889c-2.21,0-3.999,1.789-3.999,3.999v55.985c0,2.211,1.789,4,3.999,4c2.21,0,3.999-1.79,3.999-4v-55.985
			C275.931,441.678,274.142,439.889,271.932,439.889z"/>
	</g>
</g>
<g>
	<g>
		<path d="M271.932,439.888H239.94c-2.21,0-3.999,1.789-3.999,3.999c0,2.21,1.789,3.999,3.999,3.999h31.992
			c2.21,0,3.999-1.789,3.999-3.999C275.931,441.677,274.142,439.888,271.932,439.888z"/>
	</g>
</g>
<g>
	<g>
		<path d="M327.917,439.888h-39.989c-2.211,0-3.999,1.789-3.999,3.999c0,2.21,1.788,3.999,3.999,3.999h39.989
			c2.211,0,3.999-1.789,3.999-3.999C331.916,441.677,330.128,439.888,327.917,439.888z"/>
	</g>
</g>
<g>
	<g>
		<path d="M223.944,439.888h-40.677c-2.211,0-3.999,1.789-3.999,3.999c0,2.21,1.788,3.999,3.999,3.999h40.677
			c2.211,0,3.999-1.789,3.999-3.999C227.943,441.677,226.155,439.888,223.944,439.888z"/>
	</g>
</g>
<g>
	<g>
		<path d="M330.417,455.884h-42.489c-2.211,0-3.999,1.789-3.999,3.999c0,2.21,1.788,3.999,3.999,3.999h42.489
			c2.21,0,3.999-1.789,3.999-3.999C334.416,457.673,332.627,455.884,330.417,455.884z"/>
	</g>
</g>
<g>
	<g>
		<path d="M223.944,455.884H181.47c-2.21,0-3.999,1.789-3.999,3.999c0,2.21,1.789,3.999,3.999,3.999h42.474
			c2.211,0,3.999-1.789,3.999-3.999C227.943,457.673,226.155,455.884,223.944,455.884z"/>
	</g>
</g>
<g>
	<g>
		<path d="M332.213,471.88h-44.285c-2.211,0-3.999,1.789-3.999,3.999c0,2.21,1.788,3.999,3.999,3.999h44.285
			c2.211,0,3.999-1.789,3.999-3.999C336.212,473.669,334.424,471.88,332.213,471.88z"/>
	</g>
</g>
<g>
	<g>
		<path d="M223.944,471.88h-44.27c-2.211,0-3.999,1.789-3.999,3.999c0,2.21,1.788,3.999,3.999,3.999h44.27
			c2.211,0,3.999-1.789,3.999-3.999C227.943,473.669,226.155,471.88,223.944,471.88z"/>
	</g>
</g>
<g>
	<g>
		<path d="M334.01,487.876h-46.082c-2.211,0-3.999,1.788-3.999,3.999c0,2.21,1.788,3.999,3.999,3.999h46.082
			c2.21,0,3.999-1.789,3.999-3.999C338.009,489.664,336.22,487.876,334.01,487.876z"/>
	</g>
</g>
<g>
	<g>
		<path d="M223.944,487.876h-46.082c-2.21,0-3.999,1.788-3.999,3.999c0,2.21,1.789,3.999,3.999,3.999h46.082
			c2.211,0,3.999-1.789,3.999-3.999C227.943,489.664,226.155,487.876,223.944,487.876z"/>
	</g>
</g>
<g>
	<g>
		<path d="M207.948,439.888c-2.21,0-3.999,1.789-3.999,3.999v15.996c0,2.21,1.789,3.999,3.999,3.999
			c2.211,0,3.999-1.789,3.999-3.999v-15.996C211.947,441.677,210.159,439.888,207.948,439.888z"/>
	</g>
</g>
<g>
	<g>
		<path d="M303.923,439.888c-2.21,0-3.998,1.789-3.998,3.999v15.996c0,2.21,1.788,3.999,3.998,3.999c2.211,0,4-1.789,4-3.999
			v-15.996C307.923,441.677,306.134,439.888,303.923,439.888z"/>
	</g>
</g>
<g>
	<g>
		<path d="M183.954,455.884c-2.21,0-3.999,1.789-3.999,3.999v15.996c0,2.21,1.789,3.999,3.999,3.999
			c2.211,0,3.999-1.789,3.999-3.999v-15.996C187.953,457.673,186.164,455.884,183.954,455.884z"/>
	</g>
</g>
<g>
	<g>
		<path d="M327.917,455.884c-2.21,0-3.998,1.789-3.998,3.999v15.996c0,2.21,1.788,3.999,3.998,3.999
			c2.211,0,3.999-1.789,3.999-3.999v-15.996C331.916,457.673,330.128,455.884,327.917,455.884z"/>
	</g>
</g>
<g>
	<g>
		<path d="M207.948,471.88c-2.21,0-3.999,1.789-3.999,3.999v15.996c0,2.21,1.789,3.999,3.999,3.999c2.211,0,3.999-1.789,3.999-3.999
			v-15.996C211.947,473.669,210.159,471.88,207.948,471.88z"/>
	</g>
</g>
<g>
	<g>
		<path d="M303.923,471.88c-2.21,0-3.998,1.789-3.998,3.999v15.996c0,2.21,1.788,3.999,3.998,3.999c2.211,0,4-1.789,4-3.999v-15.996
			C307.923,473.669,306.134,471.88,303.923,471.88z"/>
	</g>
</g>
<g>
	<g>
		<path d="M183.954,487.876c-2.21,0-3.999,1.788-3.999,3.999v15.996c0,2.211,1.789,4,3.999,4c2.211,0,3.999-1.79,3.999-4.001
			v-15.995C187.953,489.664,186.164,487.876,183.954,487.876z"/>
	</g>
</g>
<g>
	<g>
		<path d="M327.917,487.876c-2.21,0-3.998,1.788-3.998,3.999v15.996c0,2.211,1.788,4,3.998,4c2.211,0,3.999-1.79,3.999-4.001
			v-15.995C331.916,489.664,330.128,487.876,327.917,487.876z"/>
	</g>
</g>
<g>
	<g>
		<path d="M255.936,327.917c-11.028,0-19.995,8.967-19.995,19.995c0,11.028,8.967,19.995,19.995,19.995s19.995-8.967,19.995-19.995
			C275.931,336.884,266.964,327.917,255.936,327.917z M255.936,359.909c-6.615,0-11.997-5.382-11.997-11.997
			c0-6.615,5.382-11.997,11.997-11.997s11.997,5.382,11.997,11.997C267.933,354.526,262.551,359.909,255.936,359.909z"/>
	</g>
</g>
<g>
</g>
<g>
</g>
<g>
</g>
<g>
</g>
<g>
</g>
<g>
</g>
<g>
</g>
<g>
</g>
<g>
</g>
<g>
</g>
<g>
</g>
<g>
</g>
<g>
</g>
<g>
</g>
<g>
</g>
</svg>
