<?xml version="1.0" encoding="iso-8859-1"?>
<!-- Generator: Adobe Illustrator 19.0.0, SVG Export Plug-In . SVG Version: 6.00 Build 0)  -->
<svg version="1.1" id="Capa_1" xmlns="http://www.w3.org/2000/svg" xmlns:xlink="http://www.w3.org/1999/xlink" x="0px" y="0px"
	 viewBox="0 0 511.855 511.855" style="enable-background:new 0 0 511.855 511.855;" xml:space="preserve">
<g>
	<g>
		<path d="M324.457,111.247c-0.866-2.038-3.225-2.972-5.241-2.124L2.442,243.05c-2.035,0.859-2.984,3.206-2.125,5.241
			c0.645,1.522,2.125,2.44,3.683,2.44c0.52,0,1.051-0.101,1.559-0.316l316.766-133.927
			C324.363,115.629,325.316,113.282,324.457,111.247z"/>
	</g>
</g>
<g>
	<g>
		<path d="M325.801,217.022l-1.031-104.255c-0.023-2.207-1.663-4.124-4.038-3.96c-2.21,0.023-3.983,1.831-3.96,4.038l1.086,104.852
			c1.149,7.135-3.061,16.426-9.193,20.28l-100.439,62.977c-6.533,4.093-18.292,5.748-25.489,3.671L5.313,242.957
			c-2.078-0.719-4.363,0.379-5.089,2.464c-0.726,2.085,0.379,4.365,2.465,5.088l177.623,61.738c2.925,0.844,6.272,1.242,9.751,1.242
			c7.92,0,16.527-2.078,22.407-5.756l100.451-62.98C321.779,239.176,327.417,226.734,325.801,217.022z"/>
	</g>
</g>
<g>
	<g>
		<path d="M187.47,289.34L49.824,241.488c-2.069-0.726-4.361,0.374-5.088,2.464c-0.726,2.085,0.379,4.362,2.464,5.088
			l137.645,47.851c0.433,0.157,0.874,0.227,1.312,0.227c1.657,0,3.203-1.039,3.777-2.685
			C190.66,292.347,189.555,290.067,187.47,289.34z"/>
	</g>
</g>
<g>
	<g>
		<path d="M226.535,360.361c-9.412-22.261-31.109-36.64-55.275-36.64c-8.029,0-15.883,1.602-23.338,4.749
			c-30.461,12.888-44.766,48.144-31.883,78.597c9.404,22.268,31.101,36.655,55.271,36.655c8.029,0,15.883-1.601,23.334-4.757
			C225.105,426.079,239.414,390.822,226.535,360.361z M191.527,431.599c-6.464,2.734-13.263,4.124-20.218,4.124
			c-20.948,0-39.752-12.473-47.906-31.772c-11.165-26.392,1.235-56.947,27.634-68.116c6.464-2.733,13.267-4.116,20.222-4.116
			c20.944,0,39.748,12.466,47.91,31.757C230.33,389.875,217.926,420.43,191.527,431.599z"/>
	</g>
</g>
<g>
	<g>
		<path d="M197.065,372.818c-4.394-10.381-14.516-17.09-25.79-17.09c-3.749,0-7.416,0.75-10.884,2.218
			c-6.885,2.897-12.227,8.31-15.039,15.239c-2.821,6.936-2.766,14.551,0.148,21.432c4.39,10.388,14.52,17.098,25.806,17.098
			c3.745,0,7.404-0.742,10.88-2.211C196.393,403.498,203.068,387.041,197.065,372.818z M179.073,402.14
			c-9.989,4.21-22.025-0.758-26.208-10.638c-2.082-4.913-2.117-10.35-0.105-15.302c2.011-4.944,5.822-8.81,10.747-10.887
			c2.48-1.055,5.097-1.586,7.768-1.586c8.052,0,15.285,4.795,18.424,12.209C193.987,386.089,189.219,397.852,179.073,402.14z"/>
	</g>
</g>
<g>
	<g>
		<path d="M182.329,379.051c-2.499-5.935-9.735-8.92-15.734-6.373c-6.084,2.585-8.938,9.638-6.365,15.715
			c1.878,4.451,6.217,7.326,11.056,7.326c1.614,0,3.187-0.32,4.67-0.953c2.952-1.242,5.24-3.569,6.443-6.537
			C183.606,385.252,183.579,381.988,182.329,379.051z M174.988,385.228c-0.402,0.984-1.16,1.758-2.147,2.172
			c-2.023,0.875-4.409-0.141-5.245-2.125c-0.859-2.022,0.098-4.373,2.124-5.24c0.503-0.211,1.027-0.32,1.562-0.32
			c1.61,0,3.054,0.961,3.683,2.451C175.379,383.151,175.39,384.236,174.988,385.228z"/>
	</g>
</g>
<g>
	<g>
		<path d="M344.719,340.272l-28.524-82.358c-0.734-2.093-2.999-3.175-5.092-2.472c-2.086,0.722-3.187,3.003-2.469,5.088
			l28.407,82.022l-105.949-35.343c-2.121-0.702-4.363,0.437-5.058,2.531c-0.7,2.093,0.433,4.359,2.526,5.053l106.309,35.468
			c2.297,0.758,4.11,0.992,5.468,0.992c1.649,0,2.64-0.344,3.031-0.516c1.101-0.484,1.922-1.444,2.242-2.608
			C345.797,347.434,346.297,344.802,344.719,340.272z"/>
	</g>
</g>
<g>
	<g>
		<path d="M359.841,335.038l-30.102-86.896c-0.727-2.094-2.999-3.18-5.093-2.473c-2.085,0.727-3.187,3.004-2.468,5.089
			l30.102,86.904c2.585,7.428,1.836,13.958-2.062,17.902c-1.07,1.078-2.351,1.938-3.803,2.546
			c-3.836,1.625-8.709,1.524-14.083-0.273l-119.86-39.966c-2.105-0.703-4.359,0.437-5.057,2.53c-0.7,2.093,0.433,4.359,2.526,5.054
			l119.86,39.967c3.655,1.226,7.201,1.835,10.544,1.835c3.288,0,6.374-0.594,9.17-1.774c2.421-1.015,4.57-2.46,6.389-4.296
			C362.029,354.986,363.465,345.449,359.841,335.038z"/>
	</g>
</g>
<g>
	<g>
		<path d="M510.912,75.461c-2.577-6.093-9.599-8.963-15.746-6.374l-60.484,25.946c-14.653,6.21-23.705,18.754-35.257,34.757
			c-13.529,18.73-30.368,42.044-64.266,69.209c-1.726,1.383-1.999,3.898-0.624,5.62c1.397,1.73,3.921,1.996,5.623,0.621
			c34.749-27.845,51.94-51.644,65.835-70.889c10.739-14.871,19.214-26.618,31.828-31.96l60.477-25.947
			c2.047-0.856,4.389,0.105,5.241,2.128c0.859,2.03-0.094,4.385-2.14,5.252l-60.501,25.939
			c-10.536,4.471-17.652,14.336-28.423,29.274c-14.598,20.237-34.584,47.952-76.91,79.866c-1.765,1.332-2.116,3.839-0.789,5.601
			c0.789,1.042,1.984,1.593,3.195,1.593c0.844,0,1.686-0.262,2.406-0.803c43.294-32.644,64.53-62.09,78.582-81.577
			c9.989-13.845,16.581-22.99,25.079-26.595l60.501-25.943C510.623,88.598,513.481,81.545,510.912,75.461z"/>
	</g>
</g>
<g>
	<g>
		<path d="M154.719,334.257l-1.562-3.672c-0.863-2.03-3.218-2.975-5.245-2.108c-2.03,0.859-2.979,3.21-2.112,5.241l1.562,3.671
			c0.649,1.523,2.125,2.437,3.679,2.437c0.524,0,1.055-0.101,1.566-0.321C154.637,338.638,155.586,336.287,154.719,334.257z"/>
	</g>
</g>
<g>
	<g>
		<path d="M196.767,433.724l-1.562-3.687c-0.871-2.039-3.214-2.976-5.245-2.125c-2.03,0.867-2.979,3.21-2.12,5.249l1.562,3.687
			c0.649,1.523,2.129,2.437,3.683,2.437c0.524,0,1.051-0.101,1.562-0.321C196.677,438.105,197.626,435.754,196.767,433.724z"/>
	</g>
</g>
<g>
	<g>
		<path d="M132.223,349.176l-3.187-2.406c-1.774-1.336-4.277-0.992-5.601,0.781c-1.331,1.766-0.98,4.273,0.781,5.6l3.187,2.406
			c0.722,0.546,1.566,0.812,2.406,0.812c1.21,0,2.409-0.546,3.195-1.593C134.336,353.018,133.985,350.503,132.223,349.176z"/>
	</g>
</g>
<g>
	<g>
		<path d="M218.362,414.293l-3.187-2.414c-1.77-1.343-4.281-0.992-5.601,0.773c-1.336,1.758-0.989,4.265,0.773,5.601l3.187,2.413
			c0.722,0.546,1.57,0.812,2.409,0.812c1.211,0,2.406-0.547,3.192-1.585C220.47,418.128,220.123,415.62,218.362,414.293z"/>
	</g>
</g>
<g>
	<g>
		<path d="M120.197,373.349l-3.976-0.499c-2.249-0.273-4.195,1.28-4.468,3.467c-0.277,2.188,1.278,4.188,3.468,4.469l3.976,0.499
			c0.172,0.015,0.34,0.031,0.504,0.031c1.989,0,3.71-1.484,3.964-3.499C123.942,375.622,122.388,373.622,120.197,373.349z"/>
	</g>
</g>
<g>
	<g>
		<path d="M227.342,386.65l-3.982-0.492c-2.156-0.257-4.187,1.289-4.46,3.476c-0.273,2.194,1.285,4.187,3.476,4.46l3.983,0.492
			c0.168,0.023,0.332,0.031,0.496,0.031c1.991,0,3.714-1.484,3.964-3.507C231.092,388.915,229.533,386.916,227.342,386.65z"/>
	</g>
</g>
<g>
	<g>
		<path d="M127.09,402.405c-0.858-2.031-3.202-2.984-5.24-2.125l-3.679,1.555c-2.031,0.859-2.984,3.21-2.125,5.24
			c0.645,1.523,2.125,2.445,3.683,2.445c0.519,0,1.047-0.102,1.558-0.32l3.679-1.555
			C126.996,406.787,127.949,404.443,127.09,402.405z"/>
	</g>
</g>
<g>
	<g>
		<path d="M226.534,360.361c-0.863-2.039-3.225-2.976-5.241-2.125l-3.671,1.555c-2.034,0.866-2.983,3.21-2.124,5.241
			c0.644,1.53,2.128,2.444,3.683,2.444c0.522,0,1.05-0.102,1.557-0.32l3.671-1.555C226.444,364.743,227.392,362.399,226.534,360.361
			z"/>
	</g>
</g>
<g>
	<g>
		<path d="M142.36,421.993c-1.765-1.336-4.276-0.992-5.6,0.78l-2.405,3.188c-1.332,1.765-0.981,4.272,0.78,5.6
			c0.722,0.546,1.566,0.812,2.406,0.812c1.21,0,2.409-0.547,3.195-1.593l2.405-3.187C144.473,425.836,144.122,423.32,142.36,421.993
			z"/>
	</g>
</g>
<g>
	<g>
		<path d="M207.465,335.859c-1.766-1.343-4.277-0.993-5.601,0.773l-2.413,3.187c-1.336,1.758-0.989,4.265,0.772,5.6
			c0.722,0.546,1.57,0.812,2.41,0.812c1.211,0,2.405-0.547,3.191-1.584l2.413-3.187
			C209.574,339.694,209.227,337.187,207.465,335.859z"/>
	</g>
</g>
<g>
	<g>
		<path d="M165.382,431.342c-2.149-0.242-4.187,1.274-4.468,3.469l-0.5,3.951c-0.277,2.188,1.273,4.187,3.468,4.468
			c0.168,0.015,0.336,0.031,0.504,0.031c1.987,0,3.706-1.476,3.964-3.499l0.5-3.952
			C169.127,433.615,167.576,431.615,165.382,431.342z"/>
	</g>
</g>
<g>
	<g>
		<path d="M178.714,324.182c-2.183-0.234-4.191,1.273-4.476,3.46l-0.508,3.96c-0.281,2.188,1.27,4.195,3.46,4.476
			c0.172,0.015,0.344,0.031,0.512,0.031c1.985,0,3.703-1.477,3.964-3.491l0.508-3.96
			C182.455,326.463,180.904,324.463,178.714,324.182z"/>
	</g>
</g>
<g>
	<g>
		<path d="M446.146,111.892l-6.218-14.73c-0.866-2.039-3.218-2.98-5.24-2.129c-2.039,0.855-2.991,3.202-2.133,5.237l6.218,14.73
			c0.649,1.528,2.132,2.445,3.687,2.445c0.523,0,1.046-0.102,1.553-0.316C446.052,116.274,447.005,113.927,446.146,111.892z"/>
	</g>
</g>
<g>
</g>
<g>
</g>
<g>
</g>
<g>
</g>
<g>
</g>
<g>
</g>
<g>
</g>
<g>
</g>
<g>
</g>
<g>
</g>
<g>
</g>
<g>
</g>
<g>
</g>
<g>
</g>
<g>
</g>
</svg>
