<?xml version="1.0" encoding="iso-8859-1"?>
<!-- Generator: Adobe Illustrator 19.0.0, SVG Export Plug-In . SVG Version: 6.00 Build 0)  -->
<svg version="1.1" id="Capa_1" xmlns="http://www.w3.org/2000/svg" xmlns:xlink="http://www.w3.org/1999/xlink" x="0px" y="0px"
	 viewBox="0 0 511.895 511.895" style="enable-background:new 0 0 511.895 511.895;" xml:space="preserve">
<g>
	<g>
		<path d="M256.174,395.935h-0.078c-2.21,0-3.96,1.788-3.96,3.998c0,2.211,1.832,4,4.038,4c2.21,0,3.999-1.789,3.999-4
			C260.173,397.723,258.384,395.935,256.174,395.935z"/>
	</g>
</g>
<g>
	<g>
		<path d="M255.935,383.937c-8.822,0-15.996,7.179-15.996,15.996c0,8.818,7.174,15.996,15.996,15.996c8.823,0,16-7.177,16-15.996
			C271.935,391.116,264.757,383.937,255.935,383.937z M255.935,407.931c-4.409,0-7.998-3.585-7.998-7.998
			c0-4.412,3.589-7.998,7.998-7.998s7.998,3.586,7.998,7.998C263.933,404.346,260.344,407.931,255.935,407.931z"/>
	</g>
</g>
<g>
	<g>
		<path d="M255.935,367.77c-2.21,0-3.999,1.788-3.999,3.999v16.168c0,2.21,1.789,3.998,3.999,3.998c2.21,0,3.999-1.788,3.999-3.998
			v-16.168C259.934,369.558,258.145,367.77,255.935,367.77z"/>
	</g>
</g>
<g>
	<g>
		<path d="M249.004,403.941c-1.113-1.922-3.562-2.571-5.464-1.469l-13.996,8.092c-1.914,1.102-2.57,3.546-1.465,5.459
			c0.742,1.289,2.086,2,3.468,2c0.679,0,1.367-0.172,1.996-0.539l13.996-8.076C249.453,408.298,250.108,405.854,249.004,403.941z"/>
	</g>
</g>
<g>
	<g>
		<path d="M294.57,389.592c-2.765-10.317-9.38-18.94-18.628-24.282c-6.085-3.516-12.994-5.374-19.976-5.374
			c-14.262,0-27.544,7.67-34.667,20.003c-5.339,9.255-6.756,20.026-3.987,30.344c2.769,10.317,9.385,18.94,18.636,24.275
			c6.084,3.514,12.993,5.373,19.979,5.373c14.258,0,27.529-7.654,34.636-19.987C295.913,410.689,297.335,399.909,294.57,389.592z
			 M283.635,415.945c-5.687,9.865-16.301,15.988-27.708,15.988c-5.584,0-11.11-1.484-15.98-4.296
			c-7.4-4.28-12.694-11.17-14.909-19.425c-2.215-8.255-1.082-16.878,3.19-24.275c5.698-9.872,16.324-16.003,27.739-16.003
			c5.581,0,11.11,1.484,15.976,4.296c7.396,4.28,12.692,11.177,14.902,19.432C289.055,399.918,287.915,408.541,283.635,415.945z"/>
	</g>
</g>
<g>
	<g>
		<path d="M282.331,410.549l-14.004-8.061c-1.914-1.109-4.358-0.445-5.46,1.469c-1.104,1.905-0.445,4.357,1.469,5.451l14.004,8.076
			c0.633,0.359,1.32,0.531,1.992,0.531c1.382,0,2.733-0.718,3.468-1.999C284.909,414.095,284.245,411.658,282.331,410.549z"/>
	</g>
</g>
<g>
	<g>
		<path d="M436.229,423.756H291.93c-2.211,0-3.999,1.789-3.999,3.999c0,2.211,1.788,3.999,3.999,3.999h144.299
			c2.211,0,3.999-1.788,3.999-3.999C440.228,425.545,438.44,423.756,436.229,423.756z"/>
	</g>
</g>
<g>
	<g>
		<path d="M243.938,223.806h-95.976c-2.21,0-3.999,1.788-3.999,3.999c0,2.21,1.789,3.999,3.999,3.999h95.976
			c2.211,0,3.999-1.789,3.999-3.999C247.937,225.594,246.148,223.806,243.938,223.806z"/>
	</g>
</g>
<g>
	<g>
		<path d="M415.423,385.883c-2.297-4.312-57.393-105.863-146.127-138.008c-2.062-0.766-4.366,0.324-5.124,2.397
			c-0.75,2.078,0.328,4.37,2.397,5.124c85.815,31.09,141.254,133.229,141.801,134.251c0.717,1.351,2.1,2.116,3.529,2.116
			c0.641,0,1.281-0.148,1.883-0.475C415.728,390.249,416.47,387.828,415.423,385.883z"/>
	</g>
</g>
<g>
	<g>
		<path d="M394.254,397.168c-1.725-3.179-43.005-78.378-108.324-115.244c-1.921-1.086-4.366-0.406-5.444,1.515
			c-1.085,1.922-0.405,4.367,1.516,5.452c63.328,35.741,104.81,111.331,105.224,112.089c0.719,1.336,2.093,2.094,3.515,2.094
			c0.648,0,1.297-0.156,1.905-0.485C394.582,401.534,395.309,399.113,394.254,397.168z"/>
	</g>
</g>
<g>
	<g>
		<path d="M211.946,391.763h-79.979c-2.21,0-3.999,1.789-3.999,4c0,2.21,1.789,3.998,3.999,3.998h79.979
			c2.211,0,3.999-1.788,3.999-3.998C215.945,393.552,214.157,391.763,211.946,391.763z"/>
	</g>
</g>
<g>
	<g>
		<path d="M427.895,343.776c-2.21,0-3.998,1.788-3.998,3.999v15.996c0,2.21,1.788,3.999,3.998,3.999c2.211,0,4-1.789,4-3.999
			v-15.996C431.895,345.564,430.106,343.776,427.895,343.776z"/>
	</g>
</g>
<g>
	<g>
		<path d="M443.891,359.772h-15.996c-2.21,0-3.998,1.788-3.998,3.999c0,2.21,1.788,3.999,3.998,3.999h15.996
			c2.211,0,3.999-1.789,3.999-3.999C447.89,361.56,446.102,359.772,443.891,359.772z"/>
	</g>
</g>
<g>
	<g>
		<path d="M472.119,395.935h-0.078c-2.21,0-3.96,1.788-3.96,3.998c0,2.211,1.836,4,4.038,4c2.21,0,3.999-1.789,3.999-4
			C476.118,397.723,474.329,395.935,472.119,395.935z"/>
	</g>
</g>
<g>
	<g>
		<path d="M471.885,383.937c-8.825,0-15.996,7.179-15.996,15.996c0,8.818,7.171,15.996,15.996,15.996
			c8.818,0,15.996-7.177,15.996-15.996C487.881,391.116,480.703,383.937,471.885,383.937z M471.885,407.931
			c-4.413,0-7.998-3.585-7.998-7.998c0-4.412,3.585-7.998,7.998-7.998c4.405,0,7.998,3.586,7.998,7.998
			C479.883,404.346,476.29,407.931,471.885,407.931z"/>
	</g>
</g>
<g>
	<g>
		<path d="M471.885,367.77c-2.21,0-3.999,1.788-3.999,3.999v16.168c0,2.21,1.789,3.998,3.999,3.998c2.209,0,3.999-1.788,3.999-3.998
			v-16.168C475.884,369.558,474.095,367.77,471.885,367.77z"/>
	</g>
</g>
<g>
	<g>
		<path d="M464.949,403.941c-1.109-1.922-3.554-2.571-5.46-1.469l-13.996,8.092c-1.914,1.102-2.571,3.546-1.469,5.459
			c0.742,1.289,2.086,2,3.469,2c0.679,0,1.366-0.172,1.999-0.539l13.996-8.076C465.402,408.298,466.057,405.854,464.949,403.941z"/>
	</g>
</g>
<g>
	<g>
		<path d="M510.516,389.592c-2.765-10.317-9.38-18.94-18.628-24.282c-6.084-3.516-12.99-5.374-19.972-5.374
			c-14.262,0-27.548,7.67-34.671,20.003c-5.334,9.255-6.755,20.026-3.983,30.344c2.765,10.317,9.381,18.94,18.636,24.275
			c6.084,3.514,12.989,5.373,19.979,5.373c14.255,0,27.524-7.654,34.632-19.987C511.86,410.689,513.281,399.909,510.516,389.592z
			 M499.58,415.945c-5.685,9.865-16.301,15.988-27.704,15.988c-5.584,0-11.114-1.484-15.98-4.296
			c-7.404-4.28-12.7-11.169-14.91-19.425c-2.217-8.255-1.084-16.878,3.187-24.275c5.702-9.872,16.324-16.003,27.743-16.003
			c5.577,0,11.106,1.484,15.972,4.296c7.396,4.28,12.692,11.177,14.902,19.432C505,399.918,503.86,408.541,499.58,415.945z"/>
	</g>
</g>
<g>
	<g>
		<path d="M498.276,410.549l-14.004-8.061c-1.914-1.109-4.358-0.445-5.46,1.469c-1.1,1.905-0.444,4.357,1.469,5.451l14.004,8.076
			c0.633,0.359,1.32,0.531,1.992,0.531c1.382,0,2.733-0.718,3.468-1.999C500.854,414.095,500.19,411.658,498.276,410.549z"/>
	</g>
</g>
<g>
	<g>
		<path d="M211.946,423.756c-2.21,0-3.999,1.789-3.999,3.999v7.998c0,2.211,1.789,3.999,3.999,3.999
			c2.211,0,3.999-1.788,3.999-3.999v-7.998C215.945,425.545,214.157,423.756,211.946,423.756z"/>
	</g>
</g>
<g>
	<g>
		<path d="M195.95,423.756c-2.21,0-3.999,1.789-3.999,3.999v7.998c0,2.211,1.789,3.999,3.999,3.999c2.211,0,3.999-1.788,3.999-3.999
			v-7.998C199.949,425.545,198.16,423.756,195.95,423.756z"/>
	</g>
</g>
<g>
	<g>
		<path d="M179.954,423.756c-2.211,0-3.999,1.789-3.999,3.999v7.998c0,2.211,1.789,3.999,3.999,3.999
			c2.211,0,3.999-1.788,3.999-3.999v-7.998C183.953,425.545,182.165,423.756,179.954,423.756z"/>
	</g>
</g>
<g>
	<g>
		<path d="M163.959,423.756c-2.211,0-3.999,1.789-3.999,3.999v7.998c0,2.211,1.788,3.999,3.999,3.999
			c2.21,0,3.999-1.788,3.999-3.999v-7.998C167.958,425.545,166.169,423.756,163.959,423.756z"/>
	</g>
</g>
<g>
	<g>
		<path d="M147.963,423.756c-2.21,0-3.999,1.789-3.999,3.999v7.998c0,2.211,1.789,3.999,3.999,3.999c2.21,0,3.999-1.788,3.999-3.999
			v-7.998C151.962,425.545,150.173,423.756,147.963,423.756z"/>
	</g>
</g>
<g>
	<g>
		<path d="M131.967,423.756c-2.21,0-3.999,1.789-3.999,3.999v7.998c0,2.211,1.789,3.999,3.999,3.999c2.21,0,3.999-1.788,3.999-3.999
			v-7.998C135.966,425.545,134.177,423.756,131.967,423.756z"/>
	</g>
</g>
<g>
	<g>
		<path d="M115.97,423.756c-2.21,0-3.999,1.789-3.999,3.999v7.998c0,2.211,1.789,3.999,3.999,3.999c2.211,0,3.999-1.788,3.999-3.999
			v-7.998C119.969,425.545,118.18,423.756,115.97,423.756z"/>
	</g>
</g>
<g>
	<g>
		<path d="M99.974,423.756c-2.21,0-3.999,1.789-3.999,3.999v7.998c0,2.211,1.789,3.999,3.999,3.999c2.211,0,3.999-1.788,3.999-3.999
			v-7.998C103.973,425.545,102.185,423.756,99.974,423.756z"/>
	</g>
</g>
<g>
	<g>
		<path d="M83.979,423.756c-2.21,0-3.999,1.789-3.999,3.999v7.998c0,2.211,1.789,3.999,3.999,3.999c2.21,0,3.999-1.788,3.999-3.999
			v-7.998C87.978,425.545,86.189,423.756,83.979,423.756z"/>
	</g>
</g>
<g>
	<g>
		<path d="M67.983,423.756c-2.21,0-3.999,1.789-3.999,3.999v7.998c0,2.211,1.789,3.999,3.999,3.999s3.999-1.788,3.999-3.999v-7.998
			C71.982,425.545,70.193,423.756,67.983,423.756z"/>
	</g>
</g>
<g>
	<g>
		<path d="M51.987,423.756c-2.211,0-3.999,1.789-3.999,3.999v7.998c0,2.211,1.788,3.999,3.999,3.999c2.21,0,3.999-1.788,3.999-3.999
			v-7.998C55.986,425.545,54.197,423.756,51.987,423.756z"/>
	</g>
</g>
<g>
	<g>
		<path d="M35.991,423.756c-2.21,0-3.999,1.789-3.999,3.999v7.998c0,2.211,1.789,3.999,3.999,3.999s3.999-1.788,3.999-3.999v-7.998
			C39.99,425.545,38.201,423.756,35.991,423.756z"/>
	</g>
</g>
<g>
	<g>
		<path d="M19.995,423.756c-2.21,0-3.999,1.789-3.999,3.999v7.998c0,2.211,1.789,3.999,3.999,3.999c2.21,0,3.999-1.788,3.999-3.999
			v-7.998C23.994,425.545,22.205,423.756,19.995,423.756z"/>
	</g>
</g>
<g>
	<g>
		<path d="M3.999,423.756c-2.21,0-3.999,1.789-3.999,3.999v7.998c0,2.211,1.789,3.999,3.999,3.999s3.999-1.788,3.999-3.999v-7.998
			C7.998,425.545,6.209,423.756,3.999,423.756z"/>
	</g>
</g>
<g>
	<g>
		<path d="M219.944,303.786c-2.21,0-3.999,1.789-3.999,3.999v15.996c0,2.211,1.789,3.999,3.999,3.999
			c2.211,0,3.999-1.788,3.999-3.999v-15.996C223.943,305.575,222.155,303.786,219.944,303.786z"/>
	</g>
</g>
<g>
	<g>
		<path d="M235.94,287.791c-3.183,0-6.323,0.538-9.326,1.593c-2.082,0.735-3.179,3.023-2.445,5.101
			c0.735,2.085,3.031,3.171,5.101,2.444c2.148-0.758,4.394-1.14,6.67-1.14c11.024,0,19.995,8.973,19.995,19.994
			s-8.971,19.995-19.995,19.995c-2.303,0-4.557-0.382-6.693-1.148c-2.085-0.757-4.37,0.344-5.108,2.422
			c-0.746,2.077,0.339,4.366,2.421,5.108c2.999,1.077,6.154,1.616,9.38,1.616c15.434,0,27.993-12.56,27.993-27.993
			C263.933,300.35,251.374,287.791,235.94,287.791z"/>
	</g>
</g>
<g>
	<g>
		<path d="M295.054,321.282l-31.996-39.99c-1.386-1.71-3.894-2.007-5.624-0.625c-1.722,1.383-2.003,3.897-0.624,5.624l31.995,39.99
			c0.789,0.983,1.953,1.499,3.125,1.499c0.875,0,1.757-0.289,2.499-0.875C296.147,325.523,296.428,323.008,295.054,321.282z"/>
	</g>
</g>
<g>
	<g>
		<path d="M291.93,319.782c-2.211,0-3.999,1.789-3.999,3.999v48.488c0,2.21,1.788,3.998,3.999,3.998c2.21,0,3.998-1.788,3.998-3.998
			v-48.488C295.928,321.571,294.14,319.782,291.93,319.782z"/>
	</g>
</g>
<g>
	<g>
		<path d="M267.936,327.78c-2.211,0-4.003,1.789-4.003,3.999v24.244c0,2.21,1.792,3.999,4.003,3.999c2.21,0,3.999-1.789,3.999-3.999
			v-24.244C271.935,329.569,270.146,327.78,267.936,327.78z"/>
	</g>
</g>
<g>
	<g>
		<path d="M259.934,239.803c-2.211,0-3.999,1.788-3.999,3.999v39.989c0,2.211,1.788,4,3.999,4c2.21,0,3.999-1.789,3.999-4v-39.989
			C263.933,241.591,262.144,239.803,259.934,239.803z"/>
	</g>
</g>
<g>
	<g>
		<path d="M427.895,383.766h-15.996c-2.21,0-3.998,1.788-3.998,3.999c0,2.21,1.788,3.998,3.998,3.998h15.996
			c2.211,0,4-1.788,4-3.998C431.895,385.554,430.106,383.766,427.895,383.766z"/>
	</g>
</g>
<g>
	<g>
		<path d="M67.983,263.797c-2.21,0-3.999,1.788-3.999,3.999v63.983c0,2.211,1.789,3.999,3.999,3.999s3.999-1.788,3.999-3.999
			v-63.983C71.982,265.585,70.193,263.797,67.983,263.797z"/>
	</g>
</g>
<g>
	<g>
		<path d="M131.967,391.763c-33.078,0-59.985-26.906-59.985-59.984c0-2.21-1.789-3.999-3.999-3.999s-3.999,1.789-3.999,3.999
			c0,37.482,30.497,67.982,67.983,67.982c2.21,0,3.999-1.788,3.999-3.998C135.966,393.552,134.177,391.763,131.967,391.763z"/>
	</g>
</g>
<g>
	<g>
		<path d="M131.967,375.768c-24.256,0-43.989-19.737-43.989-43.989c0-2.21-1.789-3.999-3.999-3.999c-2.21,0-3.999,1.789-3.999,3.999
			c0,28.665,23.322,51.987,51.987,51.987c2.21,0,3.999-1.789,3.999-3.999C135.966,377.556,134.177,375.768,131.967,375.768z"/>
	</g>
</g>
<g>
	<g>
		<path d="M243.938,223.807c-2.21,0-3.999,1.788-3.999,3.999c0,2.21,1.789,3.999,3.999,3.999c6.615,0,11.997,5.381,11.997,11.997
			c0,2.21,1.788,3.999,3.999,3.999c2.21,0,3.999-1.79,3.999-3.999C263.933,232.778,254.962,223.807,243.938,223.807z"/>
	</g>
</g>
<g>
	<g>
		<path d="M182.782,224.979c-1.562-1.562-4.093-1.562-5.655,0l-15.996,15.995c-1.562,1.562-1.562,4.093,0,5.655
			c0.781,0.781,1.805,1.172,2.828,1.172s2.046-0.391,2.827-1.172l15.996-15.996C184.344,229.072,184.344,226.541,182.782,224.979z"
			/>
	</g>
</g>
<g>
	<g>
		<path d="M206.775,224.979c-1.562-1.562-4.093-1.562-5.655,0l-15.996,15.995c-1.562,1.562-1.562,4.093,0,5.655
			c0.782,0.781,1.805,1.172,2.828,1.172s2.047-0.391,2.827-1.172l15.996-15.996C208.337,229.072,208.337,226.541,206.775,224.979z"
			/>
	</g>
</g>
<g>
	<g>
		<path d="M230.77,224.979c-1.562-1.562-4.093-1.562-5.655,0l-15.996,15.995c-1.562,1.562-1.562,4.093,0,5.655
			c0.781,0.781,1.804,1.172,2.827,1.172s2.047-0.391,2.828-1.172l15.996-15.996C232.332,229.072,232.332,226.541,230.77,224.979z"/>
	</g>
</g>
<g>
	<g>
		<path d="M439.893,295.789c-2.211,0-4,1.788-4,3.998c0,2.211,1.789,3.999,4,3.999c8.817,0,15.995,7.179,15.995,15.996
			c0,8.818-7.178,15.996-15.995,15.996c-2.211,0-4,1.788-4,3.999s1.789,3.999,4,3.999c13.231,0,23.993-10.763,23.993-23.994
			S453.123,295.789,439.893,295.789z"/>
	</g>
</g>
<g>
	<g>
		<path d="M439.893,295.789h-83.979c-2.21,0-3.999,1.788-3.999,3.998c0,2.211,1.789,3.999,3.999,3.999h83.979
			c2.21,0,3.998-1.788,3.998-3.999C443.891,297.577,442.103,295.789,439.893,295.789z"/>
	</g>
</g>
<g>
	<g>
		<path d="M439.893,335.778h-43.989c-2.211,0-3.999,1.788-3.999,3.999s1.788,3.999,3.999,3.999h43.989
			c2.21,0,3.998-1.788,3.998-3.999S442.103,335.778,439.893,335.778z"/>
	</g>
</g>
<g>
	<g>
		<path d="M387.906,311.784c-2.21,0-3.999,1.789-3.999,3.999v7.998c0,2.211,1.789,3.999,3.999,3.999c2.21,0,3.999-1.788,3.999-3.999
			v-7.998C391.905,313.573,390.116,311.784,387.906,311.784z"/>
	</g>
</g>
<g>
	<g>
		<path d="M411.899,311.784c-2.21,0-3.998,1.789-3.998,3.999v7.998c0,2.211,1.788,3.999,3.998,3.999c2.211,0,4-1.788,4-3.999v-7.998
			C415.899,313.573,414.11,311.784,411.899,311.784z"/>
	</g>
</g>
<g>
	<g>
		<path d="M435.893,311.784c-2.21,0-3.998,1.789-3.998,3.999v7.998c0,2.211,1.788,3.999,3.998,3.999c2.211,0,4-1.788,4-3.999v-7.998
			C439.893,313.573,438.104,311.784,435.893,311.784z"/>
	</g>
</g>
<g>
	<g>
		<path d="M427.895,279.793c-2.21,0-3.998,1.788-3.998,3.998v7.998c0,2.211,1.788,4,3.998,4c2.211,0,4-1.789,4-4v-7.998
			C431.895,281.581,430.106,279.793,427.895,279.793z"/>
	</g>
</g>
<g>
	<g>
		<path d="M427.895,279.793h-87.978c-2.21,0-3.999,1.788-3.999,3.998c0,2.211,1.789,4,3.999,4h87.978c2.211,0,4-1.789,4-4
			C431.895,281.581,430.106,279.793,427.895,279.793z"/>
	</g>
</g>
<g>
	<g>
		<path d="M411.899,344.026c-2.21,0-3.998,1.788-3.998,3.999v15.746c0,2.21,1.788,3.999,3.998,3.999c2.211,0,4-1.789,4-3.999
			v-15.746C415.899,345.814,414.11,344.026,411.899,344.026z"/>
	</g>
</g>
<g>
	<g>
		<path d="M235.939,303.786h-49.858L21.705,76.797c-3.746-5.155-11.576-6.416-16.75-2.667c-5.354,3.882-6.553,11.399-2.671,16.753
			l167.977,231.968c0.18,0.25,0.504,0.562,0.805,0.828c0.719,0.797,1.581,1.516,2.62,2.172c0.23,0.172,0.964,0.641,1.23,0.766
			c1.656,0.772,3.351,1.163,5.038,1.163h55.986c6.616,0,11.996-5.382,11.996-11.997
			C247.936,309.168,242.555,303.786,235.939,303.786z M235.941,319.781h-55.986c-0.519,0-1.062-0.133-1.339-0.227
			c-0.074-0.062-0.594-0.437-0.676-0.483c-0.445-0.281-0.746-0.523-1.066-0.906c-0.102-0.117-0.262-0.265-0.43-0.406L8.759,86.188
			c-1.293-1.784-0.894-4.291,0.891-5.584c1.737-1.265,4.327-0.847,5.584,0.891l165.569,228.641c0.749,1.031,1.956,1.647,3.237,1.647
			h51.901c2.207,0,3.999,1.789,3.999,3.999C239.94,317.993,238.148,319.781,235.941,319.781z"/>
	</g>
</g>
<g>
	<g>
		<path d="M103.88,249.847c-0.991-1.979-3.397-2.765-5.365-1.788l-32.32,16.16c-1.977,0.991-2.777,3.389-1.789,5.365
			c0.703,1.406,2.113,2.211,3.581,2.211c0.601,0,1.21-0.133,1.785-0.422l32.32-16.16
			C104.068,254.225,104.868,251.824,103.88,249.847z"/>
	</g>
</g>
<g>
	<g>
		<path d="M315.925,419.757c-2.211,0-4,1.789-4,3.999v3.999c0,2.211,1.789,3.999,4,3.999c2.21,0,3.998-1.788,3.998-3.999v-3.999
			C319.923,421.546,318.135,419.757,315.925,419.757z"/>
	</g>
</g>
<g>
	<g>
		<path d="M331.92,419.757c-2.21,0-3.999,1.789-3.999,3.999v3.999c0,2.211,1.789,3.999,3.999,3.999c2.211,0,3.999-1.788,3.999-3.999
			v-3.999C335.919,421.546,334.131,419.757,331.92,419.757z"/>
	</g>
</g>
<g>
	<g>
		<path d="M347.916,419.757c-2.21,0-3.999,1.789-3.999,3.999v3.999c0,2.211,1.789,3.999,3.999,3.999c2.21,0,3.999-1.788,3.999-3.999
			v-3.999C351.915,421.546,350.126,419.757,347.916,419.757z"/>
	</g>
</g>
<g>
	<g>
		<path d="M363.912,419.757c-2.21,0-3.999,1.789-3.999,3.999v3.999c0,2.211,1.789,3.999,3.999,3.999c2.21,0,3.999-1.788,3.999-3.999
			v-3.999C367.911,421.546,366.122,419.757,363.912,419.757z"/>
	</g>
</g>
<g>
	<g>
		<path d="M379.908,419.757c-2.21,0-3.999,1.789-3.999,3.999v3.999c0,2.211,1.789,3.999,3.999,3.999c2.21,0,3.999-1.788,3.999-3.999
			v-3.999C383.907,421.546,382.118,419.757,379.908,419.757z"/>
	</g>
</g>
<g>
	<g>
		<path d="M395.904,419.757c-2.211,0-3.999,1.789-3.999,3.999v3.999c0,2.211,1.788,3.999,3.999,3.999
			c2.21,0,3.999-1.788,3.999-3.999v-3.999C399.903,421.546,398.114,419.757,395.904,419.757z"/>
	</g>
</g>
<g>
	<g>
		<path d="M411.899,419.757c-2.21,0-3.998,1.789-3.998,3.999v3.999c0,2.211,1.788,3.999,3.998,3.999c2.211,0,4-1.788,4-3.999v-3.999
			C415.899,421.546,414.11,419.757,411.899,419.757z"/>
	</g>
</g>
<g>
</g>
<g>
</g>
<g>
</g>
<g>
</g>
<g>
</g>
<g>
</g>
<g>
</g>
<g>
</g>
<g>
</g>
<g>
</g>
<g>
</g>
<g>
</g>
<g>
</g>
<g>
</g>
<g>
</g>
</svg>
