<?xml version="1.0" encoding="iso-8859-1"?>
<!-- Generator: Adobe Illustrator 19.0.0, SVG Export Plug-In . SVG Version: 6.00 Build 0)  -->
<svg version="1.1" id="Capa_1" xmlns="http://www.w3.org/2000/svg" xmlns:xlink="http://www.w3.org/1999/xlink" x="0px" y="0px"
	 viewBox="0 0 511.871 511.871" style="enable-background:new 0 0 511.871 511.871;" xml:space="preserve">
<g>
	<g>
		<path d="M12.236,404.922h-0.078c-2.21,0-3.96,1.789-3.96,3.998c0,2.211,1.831,4,4.038,4c2.21,0,3.999-1.789,3.999-4
			C16.235,406.711,14.446,404.922,12.236,404.922z"/>
	</g>
</g>
<g>
	<g>
		<path d="M36.23,428.917h-0.078c-2.21,0-3.96,1.787-3.96,3.998s1.831,4,4.038,4c2.21,0,3.999-1.789,3.999-4
			S38.44,428.917,36.23,428.917z"/>
	</g>
</g>
<g>
	<g>
		<path d="M12.236,356.934h-0.078c-2.21,0-3.96,1.789-3.96,3.998c0,2.211,1.831,4,4.038,4c2.21,0,3.999-1.789,3.999-4
			C16.235,358.723,14.446,356.934,12.236,356.934z"/>
	</g>
</g>
<g>
	<g>
		<path d="M36.23,380.928h-0.078c-2.21,0-3.96,1.789-3.96,3.998c0,2.211,1.831,4,4.038,4c2.21,0,3.999-1.789,3.999-4
			C40.229,382.717,38.44,380.928,36.23,380.928z"/>
	</g>
</g>
<g>
	<g>
		<path d="M60.223,404.922h-0.078c-2.21,0-3.959,1.789-3.959,3.998c0,2.211,1.831,4,4.038,4c2.21,0,3.999-1.789,3.998-4
			C64.222,406.711,62.433,404.922,60.223,404.922z"/>
	</g>
</g>
<g>
	<g>
		<path d="M84.218,428.917H84.14c-2.21,0-3.96,1.787-3.96,3.998s1.831,4,4.038,4c2.21,0,3.999-1.789,3.999-4
			S86.428,428.917,84.218,428.917z"/>
	</g>
</g>
<g>
	<g>
		<path d="M12.236,308.946h-0.078c-2.21,0-3.96,1.789-3.96,4c0,2.209,1.831,3.998,4.038,3.998c2.21,0,3.999-1.789,3.999-3.998
			C16.235,310.735,14.446,308.946,12.236,308.946z"/>
	</g>
</g>
<g>
	<g>
		<path d="M36.23,332.94h-0.078c-2.21,0-3.96,1.789-3.96,4c0,2.209,1.831,3.998,4.038,3.998c2.21,0,3.999-1.789,3.999-3.998
			C40.229,334.729,38.44,332.94,36.23,332.94z"/>
	</g>
</g>
<g>
	<g>
		<path d="M60.223,356.934h-0.078c-2.21,0-3.959,1.789-3.959,3.998c0,2.211,1.831,4,4.038,4c2.21,0,3.999-1.789,3.998-4
			C64.222,358.723,62.433,356.934,60.223,356.934z"/>
	</g>
</g>
<g>
	<g>
		<path d="M84.218,380.928H84.14c-2.21,0-3.96,1.789-3.96,3.998c0,2.211,1.831,4,4.038,4c2.21,0,3.998-1.789,3.999-4
			C88.217,382.717,86.428,380.928,84.218,380.928z"/>
	</g>
</g>
<g>
	<g>
		<path d="M108.211,404.922h-0.078c-2.21,0-3.96,1.789-3.96,3.998c0,2.211,1.832,4,4.038,4c2.211,0,3.999-1.789,3.999-4
			C112.21,406.711,110.421,404.922,108.211,404.922z"/>
	</g>
</g>
<g>
	<g>
		<path d="M132.206,428.917h-0.078c-2.21,0-3.96,1.787-3.96,3.998s1.831,4,4.038,4c2.21,0,3.999-1.789,3.999-4
			S134.416,428.917,132.206,428.917z"/>
	</g>
</g>
<g>
	<g>
		<path d="M12.236,260.958h-0.078c-2.21,0-3.96,1.789-3.96,4s1.831,3.998,4.038,3.998c2.21,0,3.999-1.787,3.999-3.998
			S14.446,260.958,12.236,260.958z"/>
	</g>
</g>
<g>
	<g>
		<path d="M36.23,284.952h-0.078c-2.21,0-3.96,1.789-3.96,4c0,2.209,1.831,3.998,4.038,3.998c2.21,0,3.999-1.789,3.999-3.998
			C40.229,286.741,38.44,284.952,36.23,284.952z"/>
	</g>
</g>
<g>
	<g>
		<path d="M60.223,308.946h-0.078c-2.21,0-3.959,1.789-3.959,4c0,2.209,1.831,3.998,4.038,3.998c2.21,0,3.999-1.789,3.998-3.998
			C64.222,310.735,62.433,308.946,60.223,308.946z"/>
	</g>
</g>
<g>
	<g>
		<path d="M84.218,332.94H84.14c-2.21,0-3.96,1.789-3.96,4c0,2.209,1.831,3.998,4.038,3.998c2.21,0,3.998-1.789,3.999-3.998
			C88.217,334.729,86.428,332.94,84.218,332.94z"/>
	</g>
</g>
<g>
	<g>
		<path d="M108.211,356.934h-0.078c-2.21,0-3.96,1.789-3.96,3.998c0,2.211,1.832,4,4.038,4c2.211,0,3.999-1.789,3.999-4
			C112.21,358.723,110.421,356.934,108.211,356.934z"/>
	</g>
</g>
<g>
	<g>
		<path d="M132.206,380.928h-0.078c-2.21,0-3.96,1.789-3.96,3.998c0,2.211,1.831,4,4.038,4c2.21,0,3.999-1.789,3.999-4
			C136.205,382.717,134.416,380.928,132.206,380.928z"/>
	</g>
</g>
<g>
	<g>
		<path d="M156.2,404.922h-0.078c-2.211,0-3.96,1.789-3.96,3.998c0,2.211,1.831,4,4.038,4c2.21,0,3.999-1.789,3.999-4
			C160.199,406.711,158.41,404.922,156.2,404.922z"/>
	</g>
</g>
<g>
	<g>
		<path d="M180.193,428.917h-0.078c-2.21,0-3.96,1.787-3.96,3.998s1.831,4,4.038,4c2.211,0,3.999-1.789,3.999-4
			S182.403,428.917,180.193,428.917z"/>
	</g>
</g>
<g>
	<g>
		<path d="M60.223,260.958h-0.078c-2.21,0-3.959,1.789-3.959,4s1.831,3.998,4.038,3.998c2.21,0,3.998-1.787,3.998-3.998
			S62.433,260.958,60.223,260.958z"/>
	</g>
</g>
<g>
	<g>
		<path d="M84.218,284.952H84.14c-2.21,0-3.96,1.789-3.96,4c0,2.209,1.831,3.998,4.038,3.998c2.21,0,3.998-1.789,3.999-3.998
			C88.217,286.741,86.428,284.952,84.218,284.952z"/>
	</g>
</g>
<g>
	<g>
		<path d="M108.211,308.946h-0.078c-2.21,0-3.96,1.789-3.96,4c0,2.209,1.832,3.998,4.038,3.998c2.211,0,3.999-1.789,3.999-3.998
			C112.21,310.735,110.421,308.946,108.211,308.946z"/>
	</g>
</g>
<g>
	<g>
		<path d="M132.206,332.94h-0.078c-2.21,0-3.96,1.789-3.96,4c0,2.209,1.831,3.998,4.038,3.998c2.21,0,3.999-1.789,3.999-3.998
			C136.205,334.729,134.416,332.94,132.206,332.94z"/>
	</g>
</g>
<g>
	<g>
		<path d="M156.2,356.934h-0.078c-2.211,0-3.96,1.789-3.96,3.998c0,2.211,1.831,4,4.038,4c2.21,0,3.999-1.789,3.999-4
			C160.199,358.723,158.41,356.934,156.2,356.934z"/>
	</g>
</g>
<g>
	<g>
		<path d="M180.193,380.928h-0.078c-2.21,0-3.96,1.789-3.96,3.998c0,2.211,1.831,4,4.038,4c2.211,0,3.999-1.789,3.999-4
			C184.192,382.717,182.403,380.928,180.193,380.928z"/>
	</g>
</g>
<g>
	<g>
		<path d="M204.186,404.922h-0.078c-2.209,0-3.959,1.789-3.959,3.998c0,2.211,1.832,4,4.038,4c2.211,0,3.999-1.789,3.998-4
			C208.185,406.711,206.397,404.922,204.186,404.922z"/>
	</g>
</g>
<g>
	<g>
		<path d="M228.181,428.917h-0.078c-2.21,0-3.96,1.787-3.96,3.998s1.832,4,4.038,4c2.211,0,3.999-1.789,3.999-4
			S230.391,428.917,228.181,428.917z"/>
	</g>
</g>
<g>
	<g>
		<path d="M108.211,260.958h-0.078c-2.21,0-3.96,1.789-3.96,4s1.832,3.998,4.038,3.998c2.211,0,3.999-1.787,3.999-3.998
			S110.421,260.958,108.211,260.958z"/>
	</g>
</g>
<g>
	<g>
		<path d="M132.206,284.952h-0.078c-2.21,0-3.96,1.789-3.96,4c0,2.209,1.831,3.998,4.038,3.998c2.21,0,3.999-1.789,3.999-3.998
			C136.205,286.741,134.416,284.952,132.206,284.952z"/>
	</g>
</g>
<g>
	<g>
		<path d="M156.2,308.946h-0.078c-2.211,0-3.96,1.789-3.96,4c0,2.209,1.831,3.998,4.038,3.998c2.21,0,3.999-1.789,3.999-3.998
			C160.199,310.735,158.41,308.946,156.2,308.946z"/>
	</g>
</g>
<g>
	<g>
		<path d="M180.193,332.94h-0.078c-2.21,0-3.96,1.789-3.96,4c0,2.209,1.831,3.998,4.038,3.998c2.211,0,3.999-1.789,3.999-3.998
			C184.192,334.729,182.403,332.94,180.193,332.94z"/>
	</g>
</g>
<g>
	<g>
		<path d="M204.186,356.934h-0.078c-2.209,0-3.959,1.789-3.959,3.998c0,2.211,1.832,4,4.038,4c2.211,0,3.999-1.789,3.998-4
			C208.185,358.723,206.397,356.934,204.186,356.934z"/>
	</g>
</g>
<g>
	<g>
		<path d="M276.165,428.917h-0.078c-2.203,0-3.952,1.787-3.952,3.998s1.827,4,4.03,4c2.218,0,3.999-1.789,3.999-4
			S278.383,428.917,276.165,428.917z"/>
	</g>
</g>
<g>
	<g>
		<path d="M156.2,260.958h-0.078c-2.211,0-3.96,1.789-3.96,4s1.831,3.998,4.038,3.998c2.21,0,3.999-1.787,3.999-3.998
			S158.41,260.958,156.2,260.958z"/>
	</g>
</g>
<g>
	<g>
		<path d="M180.193,284.952h-0.078c-2.21,0-3.96,1.789-3.96,4c0,2.209,1.831,3.998,4.038,3.998c2.211,0,3.999-1.789,3.999-3.998
			C184.192,286.741,182.403,284.952,180.193,284.952z"/>
	</g>
</g>
<g>
	<g>
		<path d="M204.186,308.946h-0.078c-2.209,0-3.959,1.789-3.959,4c0,2.209,1.832,3.998,4.038,3.998c2.211,0,3.999-1.789,3.998-3.998
			C208.185,310.735,206.397,308.946,204.186,308.946z"/>
	</g>
</g>
<g>
	<g>
		<path d="M300.16,404.922h-0.078c-2.203,0-3.953,1.789-3.953,3.998c0,2.211,1.828,4,4.031,4c2.217,0,3.998-1.789,3.998-4
			C304.158,406.711,302.378,404.922,300.16,404.922z"/>
	</g>
</g>
<g>
	<g>
		<path d="M324.153,428.917h-0.078c-2.202,0-3.952,1.787-3.952,3.998s1.828,4,4.03,4c2.219,0,3.999-1.789,3.999-4
			S326.372,428.917,324.153,428.917z"/>
	</g>
</g>
<g>
	<g>
		<path d="M204.186,260.958h-0.078c-2.209,0-3.959,1.789-3.959,4s1.832,3.998,4.038,3.998c2.211,0,3.998-1.787,3.998-3.998
			S206.397,260.958,204.186,260.958z"/>
	</g>
</g>
<g>
	<g>
		<path d="M228.181,284.952h-0.078c-2.21,0-3.96,1.789-3.96,4c0,2.209,1.832,3.998,4.038,3.998c2.211,0,3.999-1.789,3.999-3.998
			C232.18,286.741,230.391,284.952,228.181,284.952z"/>
	</g>
</g>
<g>
	<g>
		<path d="M300.16,356.934h-0.078c-2.203,0-3.953,1.789-3.953,3.998c0,2.211,1.828,4,4.031,4c2.217,0,3.998-1.789,3.998-4
			C304.158,358.723,302.378,356.934,300.16,356.934z"/>
	</g>
</g>
<g>
	<g>
		<path d="M324.153,380.928h-0.078c-2.202,0-3.952,1.789-3.952,3.998c0,2.211,1.828,4,4.03,4c2.219,0,3.999-1.789,3.999-4
			C328.152,382.717,326.372,380.928,324.153,380.928z"/>
	</g>
</g>
<g>
	<g>
		<path d="M348.147,404.922h-0.078c-2.202,0-3.952,1.789-3.952,3.998c0,2.211,1.828,4,4.03,4c2.218,0,3.999-1.789,3.999-4
			C352.146,406.711,350.365,404.922,348.147,404.922z"/>
	</g>
</g>
<g>
	<g>
		<path d="M372.141,428.917h-0.078c-2.202,0-3.952,1.787-3.952,3.998s1.828,4,4.03,4c2.218,0,3.999-1.789,3.999-4
			S374.359,428.917,372.141,428.917z"/>
	</g>
</g>
<g>
	<g>
		<path d="M300.16,308.946h-0.078c-2.203,0-3.953,1.789-3.953,4c0,2.209,1.828,3.998,4.031,3.998c2.217,0,3.998-1.789,3.998-3.998
			C304.158,310.735,302.378,308.946,300.16,308.946z"/>
	</g>
</g>
<g>
	<g>
		<path d="M324.153,332.94h-0.078c-2.202,0-3.952,1.789-3.952,4c0,2.209,1.828,3.998,4.03,3.998c2.219,0,3.999-1.789,3.999-3.998
			C328.152,334.729,326.372,332.94,324.153,332.94z"/>
	</g>
</g>
<g>
	<g>
		<path d="M348.147,356.934h-0.078c-2.202,0-3.952,1.789-3.952,3.998c0,2.211,1.828,4,4.03,4c2.218,0,3.999-1.789,3.999-4
			C352.146,358.723,350.365,356.934,348.147,356.934z"/>
	</g>
</g>
<g>
	<g>
		<path d="M372.141,380.928h-0.078c-2.202,0-3.952,1.789-3.952,3.998c0,2.211,1.828,4,4.03,4c2.218,0,3.999-1.789,3.999-4
			C376.14,382.717,374.359,380.928,372.141,380.928z"/>
	</g>
</g>
<g>
	<g>
		<path d="M396.135,404.922h-0.078c-2.203,0-3.952,1.789-3.952,3.998c0,2.211,1.827,4,4.03,4c2.218,0,3.999-1.789,3.999-4
			C400.134,406.711,398.353,404.922,396.135,404.922z"/>
	</g>
</g>
<g>
	<g>
		<path d="M420.128,428.917h-0.078c-2.202,0-3.951,1.787-3.951,3.998s1.827,4,4.029,4c2.219,0,4-1.789,4-4
			S422.347,428.917,420.128,428.917z"/>
	</g>
</g>
<g>
	<g>
		<path d="M300.16,260.958h-0.078c-2.203,0-3.953,1.789-3.953,4s1.828,3.998,4.031,3.998c2.217,0,3.998-1.787,3.998-3.998
			S302.378,260.958,300.16,260.958z"/>
	</g>
</g>
<g>
	<g>
		<path d="M324.153,284.952h-0.078c-2.202,0-3.952,1.789-3.952,4c0,2.209,1.828,3.998,4.03,3.998c2.219,0,3.999-1.789,3.999-3.998
			C328.152,286.741,326.372,284.952,324.153,284.952z"/>
	</g>
</g>
<g>
	<g>
		<path d="M348.147,308.946h-0.078c-2.202,0-3.952,1.789-3.952,4c0,2.209,1.828,3.998,4.03,3.998c2.218,0,3.999-1.789,3.999-3.998
			C352.146,310.735,350.365,308.946,348.147,308.946z"/>
	</g>
</g>
<g>
	<g>
		<path d="M372.141,332.94h-0.078c-2.202,0-3.952,1.789-3.952,4c0,2.209,1.828,3.998,4.03,3.998c2.218,0,3.999-1.789,3.999-3.998
			C376.14,334.729,374.359,332.94,372.141,332.94z"/>
	</g>
</g>
<g>
	<g>
		<path d="M396.135,356.934h-0.078c-2.203,0-3.952,1.789-3.952,3.998c0,2.211,1.827,4,4.03,4c2.218,0,3.999-1.789,3.999-4
			C400.134,358.723,398.353,356.934,396.135,356.934z"/>
	</g>
</g>
<g>
	<g>
		<path d="M420.128,380.928h-0.078c-2.202,0-3.951,1.789-3.951,3.998c0,2.211,1.827,4,4.029,4c2.219,0,4-1.789,4-4
			C424.128,382.717,422.347,380.928,420.128,380.928z"/>
	</g>
</g>
<g>
	<g>
		<path d="M444.123,404.922h-0.078c-2.202,0-3.952,1.789-3.952,3.998c0,2.211,1.828,4,4.03,4c2.218,0,3.999-1.789,3.999-4
			C448.122,406.711,446.342,404.922,444.123,404.922z"/>
	</g>
</g>
<g>
	<g>
		<path d="M468.117,428.917h-0.078c-2.202,0-3.952,1.787-3.952,3.998s1.828,4,4.03,4c2.218,0,3.999-1.789,3.999-4
			S470.336,428.917,468.117,428.917z"/>
	</g>
</g>
<g>
	<g>
		<path d="M348.147,260.958h-0.078c-2.202,0-3.952,1.789-3.952,4s1.828,3.998,4.03,3.998c2.218,0,3.999-1.787,3.999-3.998
			S350.365,260.958,348.147,260.958z"/>
	</g>
</g>
<g>
	<g>
		<path d="M372.141,284.952h-0.078c-2.202,0-3.952,1.789-3.952,4c0,2.209,1.828,3.998,4.03,3.998c2.218,0,3.999-1.789,3.999-3.998
			C376.14,286.741,374.359,284.952,372.141,284.952z"/>
	</g>
</g>
<g>
	<g>
		<path d="M396.135,308.946h-0.078c-2.203,0-3.952,1.789-3.952,4c0,2.209,1.827,3.998,4.03,3.998c2.218,0,3.999-1.789,3.999-3.998
			C400.134,310.735,398.353,308.946,396.135,308.946z"/>
	</g>
</g>
<g>
	<g>
		<path d="M420.128,332.94h-0.078c-2.202,0-3.951,1.789-3.951,4c0,2.209,1.827,3.998,4.029,3.998c2.219,0,4-1.789,4-3.998
			C424.128,334.729,422.347,332.94,420.128,332.94z"/>
	</g>
</g>
<g>
	<g>
		<path d="M444.123,356.934h-0.078c-2.202,0-3.952,1.789-3.952,3.998c0,2.211,1.828,4,4.03,4c2.218,0,3.999-1.789,3.999-4
			C448.122,358.723,446.342,356.934,444.123,356.934z"/>
	</g>
</g>
<g>
	<g>
		<path d="M468.117,380.928h-0.078c-2.202,0-3.952,1.789-3.952,3.998c0,2.211,1.828,4,4.03,4c2.218,0,3.999-1.789,3.999-4
			C472.116,382.717,470.336,380.928,468.117,380.928z"/>
	</g>
</g>
<g>
	<g>
		<path d="M492.111,404.922h-0.078c-2.203,0-3.952,1.789-3.952,3.998c0,2.211,1.827,4,4.03,4c2.218,0,3.999-1.789,3.999-4
			C496.11,406.711,494.329,404.922,492.111,404.922z"/>
	</g>
</g>
<g>
	<g>
		<path d="M396.135,260.958h-0.078c-2.203,0-3.952,1.789-3.952,4s1.827,3.998,4.03,3.998c2.218,0,3.999-1.787,3.999-3.998
			S398.353,260.958,396.135,260.958z"/>
	</g>
</g>
<g>
	<g>
		<path d="M420.128,284.952h-0.078c-2.202,0-3.951,1.789-3.951,4c0,2.209,1.827,3.998,4.029,3.998c2.219,0,4-1.789,4-3.998
			C424.128,286.741,422.347,284.952,420.128,284.952z"/>
	</g>
</g>
<g>
	<g>
		<path d="M444.123,308.946h-0.078c-2.202,0-3.952,1.789-3.952,4c0,2.209,1.828,3.998,4.03,3.998c2.218,0,3.999-1.789,3.999-3.998
			C448.122,310.735,446.342,308.946,444.123,308.946z"/>
	</g>
</g>
<g>
	<g>
		<path d="M468.117,332.94h-0.078c-2.202,0-3.952,1.789-3.952,4c0,2.209,1.828,3.998,4.03,3.998c2.218,0,3.999-1.789,3.999-3.998
			C472.116,334.729,470.336,332.94,468.117,332.94z"/>
	</g>
</g>
<g>
	<g>
		<path d="M492.111,356.934h-0.078c-2.203,0-3.952,1.789-3.952,3.998c0,2.211,1.827,4,4.03,4c2.218,0,3.999-1.789,3.999-4
			C496.11,358.723,494.329,356.934,492.111,356.934z"/>
	</g>
</g>
<g>
	<g>
		<path d="M444.123,260.958h-0.078c-2.202,0-3.952,1.789-3.952,4s1.828,3.998,4.03,3.998c2.218,0,3.999-1.787,3.999-3.998
			S446.342,260.958,444.123,260.958z"/>
	</g>
</g>
<g>
	<g>
		<path d="M468.117,284.952h-0.078c-2.202,0-3.952,1.789-3.952,4c0,2.209,1.828,3.998,4.03,3.998c2.218,0,3.999-1.789,3.999-3.998
			C472.116,286.741,470.336,284.952,468.117,284.952z"/>
	</g>
</g>
<g>
	<g>
		<path d="M492.111,308.946h-0.078c-2.203,0-3.952,1.789-3.952,4c0,2.209,1.827,3.998,4.03,3.998c2.218,0,3.999-1.789,3.999-3.998
			C496.11,310.735,494.329,308.946,492.111,308.946z"/>
	</g>
</g>
<g>
	<g>
		<path d="M492.111,260.958h-0.078c-2.203,0-3.952,1.789-3.952,4s1.827,3.998,4.03,3.998c2.218,0,3.999-1.787,3.999-3.998
			S494.329,260.958,492.111,260.958z"/>
	</g>
</g>
<g>
	<g>
		<path d="M335.698,55.354c-0.906-2-3.265-2.914-5.295-1.984c-89.482,40.677-82.386,146.846-82.304,147.916
			c0.16,2.093,1.913,3.687,3.983,3.687c0.101,0,0.207,0,0.313-0.008c2.199-0.172,3.847-2.093,3.679-4.296
			c-0.078-1.016-6.806-101.631,77.641-140.02C335.729,59.736,336.612,57.369,335.698,55.354z"/>
	</g>
</g>
<g>
	<g>
		<path d="M394.634,15.068c-2.796-2.796-7.975-4.093-16.293-4.093c-25.086,0-75.113,12.583-91.898,25.447
			c-10.466,8.021-17.183,19.643-18.917,32.718c-1.734,13.075,1.735,26.04,9.764,36.514c9.419,12.294,23.72,19.339,39.224,19.339
			c10.935,0,21.308-3.515,30.008-10.177c18.542-14.215,49.394-68.959,50.791-90.118C397.602,20.317,396.727,17.161,394.634,15.068z
			 M389.223,25.347c-2.436,20.182-31.336,70.678-47.573,83.12c-7.28,5.584-15.973,8.529-25.135,8.529
			c-12.996,0-24.978-5.905-32.882-16.207c-6.717-8.78-9.623-19.644-8.178-30.602s7.084-20.69,15.863-27.415
			c15.394-11.81,63.608-23.799,87.024-23.799c8.78,0,10.568,1.679,10.623,1.743C388.981,20.723,389.668,21.7,389.223,25.347z"/>
	</g>
</g>
<g>
	<g>
		<path d="M218.789,74.754c-6.936-2.952-20.475-4.717-36.217-4.717c-16.859,0-37.451,1.781-39.834,10.271
			c-3.401,12.162,33.652,51.355,48.906,57.892c4.327,1.852,8.888,2.789,13.559,2.789c13.836,0,26.294-8.217,31.742-20.934
			C244.427,102.567,236.285,82.253,218.789,74.754z M229.596,116.909c-4.187,9.771-13.763,16.082-24.393,16.082
			c-3.585,0-7.088-0.718-10.411-2.14c-15.477-6.639-45.02-42.005-44.509-48.035c1.555-1.929,12.895-4.78,32.289-4.78
			c14.281,0,27.262,1.601,33.074,4.077C229.084,87.869,235.34,103.474,229.596,116.909z"/>
	</g>
</g>
<g>
	<g>
		<path d="M197.533,93.899c-2.004-0.984-4.382-0.164-5.362,1.812c-0.98,1.976-0.168,4.374,1.808,5.358
			c30.359,15.043,45.75,35.202,45.75,59.914c0,2.211,1.789,3.999,3.999,3.999c2.21,0,3.999-1.788,3.999-3.999
			C247.727,133.373,230.368,110.176,197.533,93.899z"/>
	</g>
</g>
<g>
	<g>
		<path d="M507.872,460.909H3.999c-2.21,0-3.999,1.787-3.999,3.998s1.789,3.998,3.999,3.998h503.874
			c2.209,0,3.998-1.787,3.998-3.998S510.082,460.909,507.872,460.909z"/>
	</g>
</g>
<g>
	<g>
		<path d="M507.872,228.966H3.999c-2.21,0-3.999,1.788-3.999,3.999c0,2.21,1.789,3.999,3.999,3.999h503.874
			c2.209,0,3.999-1.788,3.998-3.999C511.871,230.754,510.082,228.966,507.872,228.966z"/>
	</g>
</g>
<g>
	<g>
		<path d="M507.872,212.971H3.999c-2.21,0-3.999,1.788-3.999,3.999c0,2.21,1.789,3.999,3.999,3.999h503.874
			c2.209,0,3.999-1.789,3.998-3.999C511.871,214.759,510.082,212.971,507.872,212.971z"/>
	</g>
</g>
<g>
	<g>
		<path d="M54.815,214.135c-1.562-1.562-4.093-1.562-5.655,0l-15.996,15.996c-1.562,1.562-1.562,4.093,0,5.655
			c0.782,0.781,1.805,1.171,2.828,1.171c1.023,0,2.046-0.391,2.827-1.171l15.996-15.996
			C56.377,218.228,56.377,215.697,54.815,214.135z"/>
	</g>
</g>
<g>
	<g>
		<path d="M102.802,214.135c-1.562-1.562-4.093-1.562-5.655,0l-15.996,15.996c-1.562,1.562-1.562,4.093,0,5.655
			c0.782,0.781,1.805,1.171,2.828,1.171c1.023,0,2.047-0.391,2.827-1.171l15.996-15.996
			C104.364,218.228,104.364,215.697,102.802,214.135z"/>
	</g>
</g>
<g>
	<g>
		<path d="M150.791,214.135c-1.562-1.562-4.093-1.562-5.655,0l-15.996,15.996c-1.562,1.562-1.562,4.093,0,5.655
			c0.781,0.781,1.804,1.171,2.827,1.171c1.024,0,2.047-0.391,2.828-1.171l15.996-15.996
			C152.353,218.228,152.353,215.697,150.791,214.135z"/>
	</g>
</g>
<g>
	<g>
		<path d="M198.778,214.135c-1.562-1.562-4.093-1.562-5.655,0l-15.996,15.996c-1.562,1.562-1.562,4.093,0,5.655
			c0.782,0.781,1.805,1.171,2.828,1.171c1.023,0,2.046-0.391,2.827-1.171l15.996-15.996
			C200.34,218.228,200.34,215.697,198.778,214.135z"/>
	</g>
</g>
<g>
	<g>
		<path d="M246.766,214.135c-1.561-1.562-4.092-1.562-5.654,0l-15.996,15.996c-1.562,1.562-1.562,4.093,0,5.655
			c0.781,0.781,1.804,1.171,2.827,1.171s2.047-0.391,2.827-1.171l15.996-15.996C248.328,218.228,248.328,215.697,246.766,214.135z"
			/>
	</g>
</g>
<g>
	<g>
		<path d="M294.754,214.135c-1.562-1.562-4.093-1.562-5.655,0l-15.996,15.996c-1.562,1.562-1.562,4.093,0,5.655
			c0.781,0.781,1.805,1.171,2.828,1.171c1.024,0,2.046-0.391,2.827-1.171l15.996-15.996
			C296.316,218.228,296.316,215.697,294.754,214.135z"/>
	</g>
</g>
<g>
	<g>
		<path d="M342.741,214.135c-1.561-1.562-4.092-1.562-5.654,0l-15.996,15.996c-1.562,1.562-1.562,4.093,0,5.655
			c0.781,0.781,1.805,1.171,2.828,1.171s2.046-0.391,2.827-1.171l15.995-15.996C344.303,218.228,344.303,215.697,342.741,214.135z"
			/>
	</g>
</g>
<g>
	<g>
		<path d="M390.73,214.135c-1.562-1.562-4.092-1.562-5.654,0l-15.996,15.996c-1.562,1.562-1.562,4.093,0,5.655
			c0.781,0.781,1.804,1.171,2.827,1.171s2.046-0.391,2.827-1.171l15.996-15.996C392.292,218.228,392.292,215.697,390.73,214.135z"/>
	</g>
</g>
<g>
	<g>
		<path d="M438.718,214.135c-1.562-1.562-4.093-1.562-5.655,0l-15.996,15.996c-1.562,1.562-1.562,4.093,0,5.655
			c0.781,0.781,1.805,1.171,2.827,1.171c1.023,0,2.047-0.391,2.828-1.171l15.996-15.996
			C440.28,218.228,440.28,215.697,438.718,214.135z"/>
	</g>
</g>
<g>
	<g>
		<path d="M486.705,214.135c-1.561-1.562-4.092-1.562-5.654,0l-15.996,15.996c-1.562,1.562-1.562,4.093,0,5.655
			c0.781,0.781,1.804,1.171,2.827,1.171c1.024,0,2.047-0.391,2.828-1.171l15.995-15.996
			C488.267,218.228,488.267,215.697,486.705,214.135z"/>
	</g>
</g>
<g>
	<g>
		<path d="M14.824,478.075c-1.561-1.561-4.092-1.561-5.654,0l-7.998,7.998c-1.562,1.562-1.562,4.094,0,5.656
			c0.781,0.779,1.804,1.17,2.827,1.17c1.024,0,2.047-0.391,2.827-1.17l7.998-7.998C16.386,482.169,16.386,479.637,14.824,478.075z"
			/>
	</g>
</g>
<g>
	<g>
		<path d="M22.823,486.073l-7.998-7.998c-1.561-1.561-4.092-1.561-5.654,0c-1.562,1.562-1.562,4.094,0,5.656l7.998,7.998
			c0.781,0.779,1.804,1.17,2.827,1.17s2.046-0.391,2.827-1.17C24.385,490.167,24.385,487.635,22.823,486.073z"/>
	</g>
</g>
<g>
	<g>
		<path d="M30.821,478.075c-1.562-1.561-4.092-1.561-5.654,0l-7.998,7.998c-1.562,1.562-1.562,4.094,0,5.656
			c0.781,0.779,1.804,1.17,2.827,1.17s2.046-0.391,2.827-1.17l7.998-7.998C32.383,482.169,32.383,479.637,30.821,478.075z"/>
	</g>
</g>
<g>
	<g>
		<path d="M38.818,486.073l-7.998-7.998c-1.562-1.561-4.092-1.561-5.654,0c-1.562,1.562-1.562,4.094,0,5.656l7.998,7.998
			c0.782,0.779,1.805,1.17,2.828,1.17c1.023,0,2.046-0.391,2.826-1.17C40.38,490.167,40.38,487.635,38.818,486.073z"/>
	</g>
</g>
<g>
	<g>
		<path d="M46.817,478.075c-1.562-1.561-4.093-1.561-5.655,0l-7.998,7.998c-1.562,1.562-1.562,4.094,0,5.656
			c0.782,0.779,1.805,1.17,2.828,1.17c1.023,0,2.046-0.391,2.827-1.17l7.998-7.998C48.379,482.169,48.379,479.637,46.817,478.075z"
			/>
	</g>
</g>
<g>
	<g>
		<path d="M54.815,486.073l-7.998-7.998c-1.562-1.561-4.093-1.561-5.655,0c-1.562,1.562-1.562,4.094,0,5.656l7.998,7.998
			c0.781,0.779,1.805,1.17,2.828,1.17s2.046-0.391,2.827-1.17C56.377,490.167,56.377,487.635,54.815,486.073z"/>
	</g>
</g>
<g>
	<g>
		<path d="M62.813,478.075c-1.563-1.561-4.093-1.561-5.655,0l-7.998,7.998c-1.562,1.562-1.562,4.094,0,5.656
			c0.781,0.779,1.805,1.17,2.828,1.17s2.046-0.391,2.827-1.17l7.998-7.998C64.375,482.169,64.375,479.637,62.813,478.075z"/>
	</g>
</g>
<g>
	<g>
		<path d="M70.81,486.073l-7.998-7.998c-1.563-1.561-4.093-1.561-5.655,0c-1.562,1.562-1.562,4.094,0,5.656l7.998,7.998
			c0.782,0.779,1.805,1.17,2.828,1.17s2.047-0.391,2.827-1.17C72.372,490.167,72.372,487.635,70.81,486.073z"/>
	</g>
</g>
<g>
	<g>
		<path d="M78.808,478.075c-1.562-1.561-4.093-1.561-5.655,0l-7.998,7.998c-1.562,1.562-1.562,4.094,0,5.656
			c0.782,0.779,1.805,1.17,2.828,1.17s2.047-0.391,2.827-1.17l7.998-7.998C80.37,482.169,80.37,479.637,78.808,478.075z"/>
	</g>
</g>
<g>
	<g>
		<path d="M86.806,486.073l-7.998-7.998c-1.562-1.561-4.093-1.561-5.655,0c-1.562,1.562-1.562,4.094,0,5.656l7.998,7.998
			c0.782,0.779,1.805,1.17,2.828,1.17c1.023,0,2.047-0.391,2.827-1.17C88.368,490.167,88.368,487.635,86.806,486.073z"/>
	</g>
</g>
<g>
	<g>
		<path d="M94.804,478.075c-1.562-1.561-4.093-1.561-5.655,0l-7.998,7.998c-1.562,1.562-1.562,4.094,0,5.656
			c0.782,0.779,1.805,1.17,2.828,1.17c1.023,0,2.047-0.391,2.827-1.17l7.998-7.998C96.366,482.169,96.366,479.637,94.804,478.075z"
			/>
	</g>
</g>
<g>
	<g>
		<path d="M102.803,486.073l-7.998-7.998c-1.562-1.561-4.093-1.561-5.655,0c-1.562,1.562-1.562,4.094,0,5.656l7.998,7.998
			c0.781,0.779,1.804,1.17,2.827,1.17s2.047-0.391,2.828-1.17C104.365,490.167,104.365,487.635,102.803,486.073z"/>
	</g>
</g>
<g>
	<g>
		<path d="M110.801,478.075c-1.562-1.561-4.093-1.561-5.655,0l-7.998,7.998c-1.562,1.562-1.562,4.094,0,5.656
			c0.781,0.779,1.804,1.17,2.827,1.17s2.047-0.391,2.828-1.17l7.998-7.998C112.363,482.169,112.363,479.637,110.801,478.075z"/>
	</g>
</g>
<g>
	<g>
		<path d="M118.799,486.073l-7.998-7.998c-1.562-1.561-4.093-1.561-5.655,0c-1.562,1.562-1.562,4.094,0,5.656l7.998,7.998
			c0.781,0.779,1.804,1.17,2.827,1.17c1.024,0,2.047-0.391,2.828-1.17C120.361,490.167,120.361,487.635,118.799,486.073z"/>
	</g>
</g>
<g>
	<g>
		<path d="M126.796,478.075c-1.561-1.561-4.092-1.561-5.654,0l-7.998,7.998c-1.562,1.562-1.562,4.094,0,5.656
			c0.781,0.779,1.804,1.17,2.827,1.17c1.024,0,2.047-0.391,2.827-1.17l7.998-7.998C128.358,482.169,128.358,479.637,126.796,478.075
			z"/>
	</g>
</g>
<g>
	<g>
		<path d="M134.794,486.073l-7.998-7.998c-1.561-1.561-4.092-1.561-5.654,0c-1.562,1.562-1.562,4.094,0,5.656l7.998,7.998
			c0.781,0.779,1.804,1.17,2.827,1.17c1.024,0,2.047-0.391,2.827-1.17C136.356,490.167,136.356,487.635,134.794,486.073z"/>
	</g>
</g>
<g>
	<g>
		<path d="M142.792,478.075c-1.561-1.561-4.092-1.561-5.654,0l-7.998,7.998c-1.562,1.562-1.562,4.094,0,5.656
			c0.781,0.779,1.804,1.17,2.827,1.17c1.024,0,2.047-0.391,2.827-1.17l7.998-7.998C144.354,482.169,144.354,479.637,142.792,478.075
			z"/>
	</g>
</g>
<g>
	<g>
		<path d="M150.789,486.073l-7.998-7.998c-1.561-1.561-4.092-1.561-5.654,0c-1.562,1.562-1.562,4.094,0,5.656l7.998,7.998
			c0.782,0.779,1.805,1.17,2.828,1.17c1.024,0,2.046-0.391,2.826-1.17C152.351,490.167,152.351,487.635,150.789,486.073z"/>
	</g>
</g>
<g>
	<g>
		<path d="M158.788,478.075c-1.562-1.561-4.093-1.561-5.655,0l-7.998,7.998c-1.562,1.562-1.562,4.094,0,5.656
			c0.782,0.779,1.805,1.17,2.828,1.17c1.024,0,2.046-0.391,2.827-1.17l7.998-7.998C160.35,482.169,160.35,479.637,158.788,478.075z"
			/>
	</g>
</g>
<g>
	<g>
		<path d="M166.786,486.073l-7.998-7.998c-1.562-1.561-4.093-1.561-5.655,0c-1.562,1.562-1.562,4.094,0,5.656l7.998,7.998
			c0.781,0.779,1.805,1.17,2.828,1.17s2.046-0.391,2.827-1.17C168.348,490.167,168.348,487.635,166.786,486.073z"/>
	</g>
</g>
<g>
	<g>
		<path d="M174.784,478.075c-1.563-1.561-4.093-1.561-5.655,0l-7.998,7.998c-1.562,1.562-1.562,4.094,0,5.656
			c0.781,0.779,1.805,1.17,2.828,1.17s2.046-0.391,2.827-1.17l7.998-7.998C176.346,482.169,176.346,479.637,174.784,478.075z"/>
	</g>
</g>
<g>
	<g>
		<path d="M182.782,486.073l-7.998-7.998c-1.563-1.561-4.093-1.561-5.655,0c-1.562,1.562-1.562,4.094,0,5.656l7.998,7.998
			c0.782,0.779,1.805,1.17,2.828,1.17c1.023,0,2.046-0.391,2.827-1.17C184.344,490.167,184.344,487.635,182.782,486.073z"/>
	</g>
</g>
<g>
	<g>
		<path d="M190.78,478.075c-1.562-1.561-4.093-1.561-5.655,0l-7.998,7.998c-1.562,1.562-1.562,4.094,0,5.656
			c0.782,0.779,1.805,1.17,2.828,1.17c1.023,0,2.046-0.391,2.827-1.17l7.998-7.998C192.342,482.169,192.342,479.637,190.78,478.075z
			"/>
	</g>
</g>
<g>
	<g>
		<path d="M198.778,486.073l-7.998-7.998c-1.562-1.561-4.093-1.561-5.655,0c-1.562,1.562-1.562,4.094,0,5.656l7.998,7.998
			c0.782,0.779,1.805,1.17,2.828,1.17s2.047-0.391,2.827-1.17C200.34,490.167,200.34,487.635,198.778,486.073z"/>
	</g>
</g>
<g>
	<g>
		<path d="M206.776,478.075c-1.562-1.561-4.093-1.561-5.655,0l-7.998,7.998c-1.562,1.562-1.562,4.094,0,5.656
			c0.782,0.779,1.805,1.17,2.828,1.17s2.047-0.391,2.827-1.17l7.998-7.998C208.338,482.169,208.338,479.637,206.776,478.075z"/>
	</g>
</g>
<g>
	<g>
		<path d="M214.775,486.073l-7.998-7.998c-1.562-1.561-4.093-1.561-5.655,0c-1.562,1.562-1.562,4.094,0,5.656l7.998,7.998
			c0.781,0.779,1.804,1.17,2.827,1.17c1.023,0,2.047-0.391,2.828-1.17C216.337,490.167,216.337,487.635,214.775,486.073z"/>
	</g>
</g>
<g>
	<g>
		<path d="M222.773,478.075c-1.562-1.561-4.093-1.561-5.655,0l-7.998,7.998c-1.562,1.562-1.562,4.094,0,5.656
			c0.781,0.779,1.804,1.17,2.827,1.17c1.023,0,2.047-0.391,2.828-1.17l7.998-7.998C224.335,482.169,224.335,479.637,222.773,478.075
			z"/>
	</g>
</g>
<g>
	<g>
		<path d="M230.771,486.073l-7.998-7.998c-1.562-1.561-4.093-1.561-5.655,0c-1.562,1.562-1.562,4.094,0,5.656l7.998,7.998
			c0.781,0.779,1.804,1.17,2.827,1.17s2.047-0.391,2.828-1.17C232.333,490.167,232.333,487.635,230.771,486.073z"/>
	</g>
</g>
<g>
	<g>
		<path d="M238.769,478.075c-1.562-1.561-4.093-1.561-5.655,0l-7.998,7.998c-1.562,1.562-1.562,4.094,0,5.656
			c0.781,0.779,1.804,1.17,2.827,1.17s2.047-0.391,2.828-1.17l7.998-7.998C240.331,482.169,240.331,479.637,238.769,478.075z"/>
	</g>
</g>
<g>
	<g>
		<path d="M246.767,486.073l-7.998-7.998c-1.562-1.561-4.093-1.561-5.655,0c-1.562,1.562-1.562,4.094,0,5.656l7.998,7.998
			c0.781,0.779,1.804,1.17,2.827,1.17c1.023,0,2.046-0.391,2.828-1.17C248.329,490.167,248.329,487.635,246.767,486.073z"/>
	</g>
</g>
<g>
	<g>
		<path d="M278.758,486.073c-1.561-1.562-4.093-1.562-5.655,0l-7.998,7.998c-1.562,1.562-1.562,4.094,0,5.656
			c0.781,0.779,1.805,1.17,2.828,1.17c1.024,0,2.046-0.391,2.827-1.17l7.998-7.998C280.32,490.167,280.32,487.635,278.758,486.073z"
			/>
	</g>
</g>
<g>
	<g>
		<path d="M286.756,494.071l-7.998-7.998c-1.561-1.562-4.093-1.562-5.655,0s-1.562,4.094,0,5.656l7.998,7.998
			c0.781,0.779,1.805,1.17,2.828,1.17c1.024,0,2.046-0.391,2.827-1.17C288.318,498.165,288.318,495.633,286.756,494.071z"/>
	</g>
</g>
<g>
	<g>
		<path d="M294.754,486.073c-1.562-1.562-4.093-1.562-5.655,0l-7.998,7.998c-1.562,1.562-1.562,4.094,0,5.656
			c0.781,0.779,1.805,1.17,2.828,1.17c1.024,0,2.046-0.391,2.827-1.17l7.998-7.998C296.316,490.167,296.316,487.635,294.754,486.073
			z"/>
	</g>
</g>
<g>
	<g>
		<path d="M302.752,494.071l-7.998-7.998c-1.562-1.562-4.093-1.562-5.655,0s-1.562,4.094,0,5.656l7.998,7.998
			c0.781,0.779,1.805,1.17,2.828,1.17s2.046-0.391,2.827-1.17C304.314,498.165,304.314,495.633,302.752,494.071z"/>
	</g>
</g>
<g>
	<g>
		<path d="M310.75,486.073c-1.562-1.562-4.093-1.562-5.655,0l-7.998,7.998c-1.562,1.562-1.562,4.094,0,5.656
			c0.781,0.779,1.805,1.17,2.828,1.17s2.046-0.391,2.827-1.17l7.998-7.998C312.312,490.167,312.312,487.635,310.75,486.073z"/>
	</g>
</g>
<g>
	<g>
		<path d="M318.748,494.071l-7.998-7.998c-1.562-1.562-4.093-1.562-5.655,0s-1.562,4.094,0,5.656l7.998,7.998
			c0.781,0.779,1.805,1.17,2.828,1.17s2.046-0.391,2.827-1.17C320.31,498.165,320.31,495.633,318.748,494.071z"/>
	</g>
</g>
<g>
	<g>
		<path d="M326.746,486.073c-1.562-1.562-4.093-1.562-5.655,0l-7.998,7.998c-1.562,1.562-1.562,4.094,0,5.656
			c0.781,0.779,1.805,1.17,2.828,1.17s2.046-0.391,2.827-1.17l7.998-7.998C328.308,490.167,328.308,487.635,326.746,486.073z"/>
	</g>
</g>
<g>
	<g>
		<path d="M334.743,494.071l-7.997-7.998c-1.562-1.562-4.093-1.562-5.655,0s-1.562,4.094,0,5.656l7.998,7.998
			c0.781,0.779,1.805,1.17,2.827,1.17c1.024,0,2.047-0.391,2.827-1.17C336.305,498.165,336.305,495.633,334.743,494.071z"/>
	</g>
</g>
<g>
	<g>
		<path d="M342.741,486.073c-1.561-1.562-4.092-1.562-5.654,0l-7.998,7.998c-1.562,1.562-1.562,4.094,0,5.656
			c0.781,0.779,1.805,1.17,2.827,1.17c1.024,0,2.047-0.391,2.827-1.17l7.998-7.998C344.303,490.167,344.303,487.635,342.741,486.073
			z"/>
	</g>
</g>
<g>
	<g>
		<path d="M350.74,494.071l-7.998-7.998c-1.561-1.562-4.092-1.562-5.654,0s-1.562,4.094,0,5.656l7.998,7.998
			c0.781,0.779,1.805,1.17,2.827,1.17c1.023,0,2.046-0.391,2.827-1.17C352.302,498.165,352.302,495.633,350.74,494.071z"/>
	</g>
</g>
<g>
	<g>
		<path d="M358.738,486.073c-1.561-1.562-4.092-1.562-5.654,0l-7.998,7.998c-1.562,1.562-1.562,4.094,0,5.656
			c0.781,0.779,1.805,1.17,2.827,1.17c1.023,0,2.046-0.391,2.827-1.17l7.998-7.998C360.3,490.167,360.3,487.635,358.738,486.073z"/>
	</g>
</g>
<g>
	<g>
		<path d="M366.736,494.071l-7.998-7.998c-1.561-1.562-4.092-1.562-5.654,0s-1.562,4.094,0,5.656l7.998,7.998
			c0.781,0.779,1.804,1.17,2.827,1.17s2.046-0.391,2.827-1.17C368.298,498.165,368.298,495.633,366.736,494.071z"/>
	</g>
</g>
<g>
	<g>
		<path d="M374.734,486.073c-1.561-1.562-4.092-1.562-5.654,0l-7.998,7.998c-1.562,1.562-1.562,4.094,0,5.656
			c0.781,0.779,1.804,1.17,2.827,1.17s2.046-0.391,2.827-1.17l7.998-7.998C376.296,490.167,376.296,487.635,374.734,486.073z"/>
	</g>
</g>
<g>
	<g>
		<path d="M382.732,494.071l-7.998-7.998c-1.561-1.562-4.092-1.562-5.654,0s-1.562,4.094,0,5.656l7.998,7.998
			c0.781,0.779,1.804,1.17,2.827,1.17s2.046-0.391,2.827-1.17C384.294,498.165,384.294,495.633,382.732,494.071z"/>
	</g>
</g>
<g>
	<g>
		<path d="M390.73,486.073c-1.562-1.562-4.092-1.562-5.654,0l-7.998,7.998c-1.562,1.562-1.562,4.094,0,5.656
			c0.781,0.779,1.804,1.17,2.827,1.17s2.046-0.391,2.827-1.17l7.998-7.998C392.292,490.167,392.292,487.635,390.73,486.073z"/>
	</g>
</g>
<g>
	<g>
		<path d="M398.728,494.071l-7.998-7.998c-1.562-1.562-4.092-1.562-5.654,0s-1.562,4.094,0,5.656l7.998,7.998
			c0.78,0.779,1.804,1.17,2.827,1.17c1.022,0,2.046-0.391,2.827-1.17C400.29,498.165,400.29,495.633,398.728,494.071z"/>
	</g>
</g>
<g>
	<g>
		<path d="M406.726,486.073c-1.562-1.562-4.092-1.562-5.654,0l-7.998,7.998c-1.562,1.562-1.562,4.094,0,5.656
			c0.78,0.779,1.804,1.17,2.827,1.17c1.022,0,2.046-0.391,2.827-1.17l7.998-7.998C408.288,490.167,408.288,487.635,406.726,486.073z
			"/>
	</g>
</g>
<g>
	<g>
		<path d="M414.724,494.071l-7.998-7.998c-1.562-1.562-4.092-1.562-5.654,0s-1.562,4.094,0,5.656l7.997,7.998
			c0.781,0.779,1.805,1.17,2.827,1.17c1.023,0,2.047-0.391,2.828-1.17C416.286,498.165,416.286,495.633,414.724,494.071z"/>
	</g>
</g>
<g>
	<g>
		<path d="M422.722,486.073c-1.562-1.562-4.093-1.562-5.655,0l-7.998,7.998c-1.562,1.562-1.562,4.094,0,5.656
			c0.781,0.779,1.805,1.17,2.827,1.17c1.023,0,2.047-0.391,2.828-1.17l7.998-7.998C424.284,490.167,424.284,487.635,422.722,486.073
			z"/>
	</g>
</g>
<g>
	<g>
		<path d="M430.72,494.071l-7.998-7.998c-1.562-1.562-4.093-1.562-5.655,0s-1.562,4.094,0,5.656l7.998,7.998
			c0.781,0.779,1.805,1.17,2.827,1.17c1.023,0,2.047-0.391,2.828-1.17C432.282,498.165,432.282,495.633,430.72,494.071z"/>
	</g>
</g>
<g>
	<g>
		<path d="M438.718,486.073c-1.562-1.562-4.093-1.562-5.655,0l-7.998,7.998c-1.562,1.562-1.562,4.094,0,5.656
			c0.781,0.779,1.805,1.17,2.827,1.17c1.023,0,2.047-0.391,2.828-1.17l7.998-7.998C440.28,490.167,440.28,487.635,438.718,486.073z"
			/>
	</g>
</g>
<g>
	<g>
		<path d="M446.716,494.071l-7.998-7.998c-1.562-1.562-4.093-1.562-5.655,0s-1.562,4.094,0,5.656l7.998,7.998
			c0.781,0.779,1.804,1.17,2.827,1.17c1.024,0,2.047-0.391,2.828-1.17C448.278,498.165,448.278,495.633,446.716,494.071z"/>
	</g>
</g>
<g>
	<g>
		<path d="M454.714,486.073c-1.562-1.562-4.093-1.562-5.655,0l-7.998,7.998c-1.562,1.562-1.562,4.094,0,5.656
			c0.781,0.779,1.804,1.17,2.827,1.17c1.024,0,2.047-0.391,2.828-1.17l7.998-7.998C456.276,490.167,456.276,487.635,454.714,486.073
			z"/>
	</g>
</g>
<g>
	<g>
		<path d="M462.712,494.071l-7.998-7.998c-1.562-1.562-4.093-1.562-5.655,0s-1.562,4.094,0,5.656l7.998,7.998
			c0.781,0.779,1.804,1.17,2.827,1.17c1.024,0,2.047-0.391,2.828-1.17C464.274,498.165,464.274,495.633,462.712,494.071z"/>
	</g>
</g>
<g>
	<g>
		<path d="M470.71,486.073c-1.562-1.562-4.093-1.562-5.655,0l-7.998,7.998c-1.562,1.562-1.562,4.094,0,5.656
			c0.781,0.779,1.804,1.17,2.827,1.17c1.024,0,2.047-0.391,2.828-1.17l7.998-7.998C472.272,490.167,472.272,487.635,470.71,486.073z
			"/>
	</g>
</g>
<g>
	<g>
		<path d="M478.707,494.071l-7.997-7.998c-1.562-1.562-4.093-1.562-5.655,0s-1.562,4.094,0,5.656l7.998,7.998
			c0.78,0.779,1.804,1.17,2.827,1.17c1.024,0,2.047-0.391,2.827-1.17C480.269,498.165,480.269,495.633,478.707,494.071z"/>
	</g>
</g>
<g>
	<g>
		<path d="M486.705,486.073c-1.561-1.562-4.092-1.562-5.654,0l-7.998,7.998c-1.562,1.562-1.562,4.094,0,5.656
			c0.78,0.779,1.804,1.17,2.827,1.17c1.024,0,2.047-0.391,2.827-1.17l7.998-7.998C488.267,490.167,488.267,487.635,486.705,486.073z
			"/>
	</g>
</g>
<g>
	<g>
		<path d="M494.703,494.071l-7.998-7.998c-1.561-1.562-4.092-1.562-5.654,0s-1.562,4.094,0,5.656l7.998,7.998
			c0.78,0.779,1.804,1.17,2.827,1.17c1.024,0,2.047-0.391,2.827-1.17C496.265,498.165,496.265,495.633,494.703,494.071z"/>
	</g>
</g>
<g>
	<g>
		<path d="M502.701,486.073c-1.561-1.562-4.093-1.562-5.655,0l-7.997,7.998c-1.562,1.562-1.562,4.094,0,5.656
			c0.78,0.779,1.804,1.17,2.827,1.17c1.024,0,2.047-0.391,2.827-1.17l7.998-7.998C504.263,490.167,504.263,487.635,502.701,486.073z
			"/>
	</g>
</g>
<g>
	<g>
		<path d="M510.7,494.071l-7.998-7.998c-1.561-1.562-4.093-1.562-5.655,0s-1.562,4.094,0,5.656l7.998,7.998
			c0.781,0.779,1.805,1.17,2.828,1.17s2.045-0.391,2.827-1.17C512.262,498.165,512.262,495.633,510.7,494.071z"/>
	</g>
</g>
<g>
	<g>
		<path d="M251.937,244.962c-2.21,0-3.999,1.789-3.999,3.999v183.954c0,2.211,1.789,4,3.999,4c2.21,0,3.999-1.79,3.999-4.001
			V248.961C255.936,246.751,254.147,244.962,251.937,244.962z"/>
	</g>
</g>
<g>
	<g>
		<path d="M275.931,308.946c-2.211,0-3.999,1.789-3.999,4v79.978c0,2.211,1.788,4,3.999,4c2.21,0,3.999-1.789,3.999-3.999v-79.979
			C279.93,310.735,278.141,308.946,275.931,308.946z"/>
	</g>
</g>
<g>
	<g>
		<path d="M227.943,324.942c-2.21,0-3.999,1.789-3.999,4v39.988c0,2.211,1.789,4,3.999,4c2.211,0,3.999-1.789,3.999-4v-39.988
			C231.942,326.731,230.154,324.942,227.943,324.942z"/>
	</g>
</g>
<g>
	<g>
		<path d="M243.939,308.946c-11.024,0-19.995,8.975-19.995,19.996c0,2.209,1.789,3.998,3.999,3.998c2.211,0,3.999-1.789,3.999-3.998
			c0-6.617,5.382-11.998,11.997-11.998c2.21,0,3.999-1.789,3.999-3.998C247.938,310.735,246.149,308.946,243.939,308.946z"/>
	</g>
</g>
<g>
	<g>
		<path d="M259.935,292.95c-2.211,0-3.999,1.789-3.999,4c0,2.209,1.788,3.998,3.999,3.998c6.615,0,11.997,5.383,11.997,11.998
			c0,2.209,1.788,3.998,3.999,3.998c2.21,0,3.999-1.789,3.999-3.998C279.93,301.925,270.963,292.95,259.935,292.95z"/>
	</g>
</g>
<g>
	<g>
		<path d="M275.931,324.942c-2.211,0-3.999,1.789-3.999,4c0,2.209,1.788,3.998,3.999,3.998c6.615,0,11.997,5.381,11.997,11.998
			c0,2.209,1.788,3.998,3.999,3.998c2.21,0,3.998-1.789,3.998-3.998C295.925,333.917,286.959,324.942,275.931,324.942z"/>
	</g>
</g>
<g>
	<g>
		<path d="M227.943,340.938c-2.21,0-3.999,1.789-3.999,4c0,2.209-1.792,3.998-3.999,3.998c-2.21,0-3.999,1.789-3.999,3.998
			c0,2.211,1.789,4,3.999,4c6.616,0,11.997-5.381,11.997-11.996C231.942,342.727,230.154,340.938,227.943,340.938z"/>
	</g>
</g>
<g>
	<g>
		<path d="M283.929,396.924c-2.203,0-3.999-1.789-3.999-4c0-2.209-1.789-3.998-3.999-3.998c-2.211,0-3.999,1.789-3.999,3.998
			c0,6.615,5.382,11.998,11.997,11.998c2.21,0,3.999-1.789,3.999-4C287.928,398.713,286.139,396.924,283.929,396.924z"/>
	</g>
</g>
<g>
	<g>
		<path d="M227.943,364.932c-2.21,0-3.999,1.789-3.999,3.998c0,2.211-1.792,4-3.999,4c-2.21,0-3.999,1.789-3.999,3.998
			c0,2.211,1.789,4,3.999,4c6.616,0,11.997-5.381,11.997-11.998C231.942,366.721,230.154,364.932,227.943,364.932z"/>
	</g>
</g>
<g>
</g>
<g>
</g>
<g>
</g>
<g>
</g>
<g>
</g>
<g>
</g>
<g>
</g>
<g>
</g>
<g>
</g>
<g>
</g>
<g>
</g>
<g>
</g>
<g>
</g>
<g>
</g>
<g>
</g>
</svg>
