<?xml version="1.0" encoding="iso-8859-1"?>
<!-- Generator: Adobe Illustrator 19.0.0, SVG Export Plug-In . SVG Version: 6.00 Build 0)  -->
<svg version="1.1" id="Capa_1" xmlns="http://www.w3.org/2000/svg" xmlns:xlink="http://www.w3.org/1999/xlink" x="0px" y="0px"
	 viewBox="0 0 511.872 511.872" style="enable-background:new 0 0 511.872 511.872;" xml:space="preserve">
<g>
	<g>
		<path d="M255.936,231.942C114.815,231.942,0,346.756,0,487.877c0,2.21,1.789,3.999,3.999,3.999c2.21,0,3.999-1.789,3.999-3.999
			c0-136.715,111.222-247.938,247.938-247.938s247.938,111.222,247.938,247.938c0,2.21,1.788,3.999,3.999,3.999
			c2.209,0,3.999-1.789,3.999-3.998C511.872,346.756,397.056,231.942,255.936,231.942z"/>
	</g>
</g>
<g>
	<g>
		<path d="M471.459,382.31c-40.684-82.886-123.265-134.372-215.523-134.372c-92.281,0-174.87,51.502-215.539,134.403
			c-0.969,1.984-0.148,4.374,1.835,5.343c0.563,0.281,1.164,0.414,1.758,0.414c1.476,0,2.897-0.82,3.592-2.242
			c39.311-80.136,119.142-129.92,208.354-129.92c89.181,0,169.012,49.769,208.338,129.889c0.968,1.992,3.374,2.797,5.358,1.828
			C471.607,386.684,472.428,384.286,471.459,382.31z"/>
	</g>
</g>
<g>
	<g>
		<path d="M507.872,487.877H3.999c-2.21,0-3.999,1.788-3.999,3.999c0,2.21,1.789,3.999,3.999,3.999h503.874
			c2.209,0,3.999-1.789,3.998-3.999C511.871,489.665,510.082,487.877,507.872,487.877z"/>
	</g>
</g>
<g>
	<g>
		<path d="M507.873,483.878c-2.211,0-3.999,1.788-3.999,3.999v3.999c0,2.21,1.788,3.999,3.999,3.999
			c2.209,0,3.999-1.789,3.999-3.999v-3.999C511.872,485.666,510.083,483.878,507.873,483.878z"/>
	</g>
</g>
<g>
	<g>
		<path d="M3.999,483.878c-2.21,0-3.999,1.788-3.999,3.999v3.999c0,2.21,1.789,3.999,3.999,3.999c2.211,0,3.999-1.789,3.999-3.999
			v-3.999C7.998,485.666,6.209,483.878,3.999,483.878z"/>
	</g>
</g>
<g>
	<g>
		<path d="M82.879,349.842c-2.125-0.726-4.366,0.39-5.085,2.476c-13.653,39.669-21.003,81.213-21.838,123.484
			c-0.039,2.202,1.71,4.03,3.921,4.077c0.023,0,0.055,0,0.078,0c2.17,0,3.952-1.734,3.999-3.921
			c0.82-41.427,8.022-82.151,21.401-121.032C86.073,352.833,84.964,350.56,82.879,349.842z"/>
	</g>
</g>
<g>
	<g>
		<path d="M200.254,272.284c-1.866-1.149-4.334-0.563-5.498,1.327c-37.123,60.758-57.485,130.677-58.899,202.191
			c-0.039,2.202,1.711,4.03,3.921,4.077c0.023,0,0.055,0,0.078,0c2.171,0,3.952-1.734,3.998-3.92
			c1.383-70.092,21.347-138.621,57.728-198.177C202.731,275.899,202.137,273.431,200.254,272.284z"/>
	</g>
</g>
<g>
	<g>
		<path d="M284.046,266.182c-1.851-1.171-4.327-0.632-5.522,1.227c-39.6,62.243-61.297,134.302-62.766,208.393
			c-0.039,2.202,1.711,4.03,3.921,4.077c0.023,0,0.055,0,0.078,0c2.172,0,3.952-1.734,3.999-3.922
			c1.438-72.622,22.706-143.245,61.516-204.253C286.459,269.837,285.904,267.37,284.046,266.182z"/>
	</g>
</g>
<g>
	<g>
		<path d="M352.068,285.639c-1.922-1.07-4.366-0.399-5.443,1.539c-32.031,57.376-49.652,122.594-50.964,188.624
			c-0.047,2.202,1.71,4.03,3.921,4.077c0.023,0,0.055,0,0.078,0c2.171,0,3.952-1.734,3.998-3.921
			c1.281-64.718,18.558-128.655,49.949-184.876C354.685,289.146,353.99,286.717,352.068,285.639z"/>
	</g>
</g>
<g>
	<g>
		<path d="M411.444,326.863c-2.024-0.835-4.374,0.117-5.226,2.164c-19.339,46.582-29.648,95.967-30.656,146.775
			c-0.039,2.202,1.711,4.03,3.921,4.077c0.023,0,0.055,0,0.078,0c2.171,0,3.952-1.734,3.999-3.92
			c0.985-49.8,11.091-98.21,30.047-143.87C414.451,330.05,413.482,327.715,411.444,326.863z"/>
	</g>
</g>
<g>
	<g>
		<path d="M469.03,396.151c-2.117-0.461-4.28,0.905-4.749,3.069c-5.335,25.009-8.302,50.776-8.818,76.582
			c-0.047,2.202,1.711,4.03,3.921,4.077c0.023,0,0.055,0,0.078,0c2.172,0,3.953-1.734,3.999-3.921
			c0.5-25.298,3.413-50.549,8.646-75.067C472.568,398.728,471.185,396.603,469.03,396.151z"/>
	</g>
</g>
<g>
	<g>
		<path d="M255.934,127.968c-55.127,0-99.975,44.848-99.975,99.975c0,2.807,0.117,5.58,0.344,8.322
			c0.18,2.206,2.218,3.819,4.311,3.651c2.203-0.179,3.843-2.112,3.656-4.315c-0.21-2.523-0.312-5.077-0.312-7.658
			c0-50.718,41.263-91.977,91.977-91.977s91.977,41.259,91.977,91.977c0,2.581-0.101,5.135-0.312,7.658
			c-0.188,2.202,1.453,4.135,3.655,4.315c0.109,0.012,0.219,0.016,0.336,0.016c2.055,0,3.804-1.578,3.974-3.667
			c0.227-2.741,0.344-5.514,0.344-8.322C355.909,172.816,311.061,127.968,255.934,127.968z"/>
	</g>
</g>
<g>
	<g>
		<path d="M255.936,15.997c-2.21,0-3.999,1.788-3.999,3.999v79.979c0,2.21,1.789,3.999,3.999,3.999s3.999-1.788,3.999-3.999V19.996
			C259.935,17.785,258.146,15.997,255.936,15.997z"/>
	</g>
</g>
<g>
	<g>
		<path d="M195.412,115.119l-39.99-69.264c-1.102-1.921-3.546-2.565-5.46-1.464c-1.913,1.105-2.569,3.549-1.46,5.463l39.99,69.264
			c0.734,1.286,2.085,2,3.46,2c0.679,0,1.367-0.171,2-0.535C195.865,119.477,196.521,117.033,195.412,115.119z"/>
	</g>
</g>
<g>
	<g>
		<path d="M147.12,160.495l-69.264-39.99c-1.905-1.094-4.358-0.453-5.459,1.464c-1.109,1.914-0.454,4.359,1.46,5.464l69.264,39.99
			c0.633,0.363,1.32,0.535,2,0.535c1.374,0,2.725-0.714,3.46-2C149.69,164.045,149.034,161.6,147.12,160.495z"/>
	</g>
</g>
<g>
	<g>
		<path d="M127.983,223.936H48.004c-2.211,0-3.999,1.789-3.999,3.999c0,2.21,1.788,3.999,3.999,3.999h79.98
			c2.21,0,3.998-1.789,3.998-3.999C131.982,225.725,130.193,223.936,127.983,223.936z"/>
	</g>
</g>
<g>
	<g>
		<path d="M463.899,223.936H383.92c-2.211,0-3.999,1.789-3.999,3.999c0,2.21,1.788,3.999,3.999,3.999h79.979
			c2.21,0,3.999-1.789,3.999-3.999C467.898,225.725,466.109,223.936,463.899,223.936z"/>
	</g>
</g>
<g>
	<g>
		<path d="M439.492,121.961c-1.102-1.921-3.555-2.573-5.46-1.464l-69.264,39.99c-1.914,1.105-2.569,3.549-1.461,5.463
			c0.734,1.286,2.086,2,3.46,2c0.68,0,1.367-0.172,2-0.535l69.264-39.99C439.944,126.319,440.6,123.875,439.492,121.961z"/>
	</g>
</g>
<g>
	<g>
		<path d="M361.925,44.376c-1.906-1.098-4.358-0.453-5.46,1.464l-39.99,69.264c-1.108,1.914-0.452,4.359,1.461,5.464
			c0.633,0.364,1.319,0.535,1.999,0.535c1.375,0,2.727-0.715,3.461-2l39.989-69.264C364.494,47.926,363.838,45.481,361.925,44.376z"
			/>
	</g>
</g>
<g>
	<g>
		<path d="M255.842,159.952c-37.483,0-67.983,30.501-67.983,67.991c0,2.21,1.789,3.999,3.999,3.999c2.211,0,3.999-1.789,3.999-3.999
			c0-33.082,26.907-59.993,59.985-59.993c2.21,0,3.999-1.789,3.999-3.999C259.841,161.741,258.052,159.952,255.842,159.952z"/>
	</g>
</g>
<g>
</g>
<g>
</g>
<g>
</g>
<g>
</g>
<g>
</g>
<g>
</g>
<g>
</g>
<g>
</g>
<g>
</g>
<g>
</g>
<g>
</g>
<g>
</g>
<g>
</g>
<g>
</g>
<g>
</g>
</svg>
