<?xml version="1.0" encoding="iso-8859-1"?>
<!-- Generator: Adobe Illustrator 19.0.0, SVG Export Plug-In . SVG Version: 6.00 Build 0)  -->
<svg version="1.1" id="Capa_1" xmlns="http://www.w3.org/2000/svg" xmlns:xlink="http://www.w3.org/1999/xlink" x="0px" y="0px"
	 viewBox="0 0 511.995 511.995" style="enable-background:new 0 0 511.995 511.995;" xml:space="preserve">
<g>
	<g>
		<path d="M444.214,367.983h-0.086c-2.203,0-3.953,1.789-3.953,4s1.828,4,4.039,4c2.203,0,3.999-1.789,3.999-4
			S446.417,367.983,444.214,367.983z"/>
	</g>
</g>
<g>
	<g>
		<path d="M108.19,311.987h-0.086c-2.203,0-3.953,1.789-3.953,4s1.828,3.998,4.039,3.998c2.203,0,4-1.787,4-3.998
			S110.393,311.987,108.19,311.987z"/>
	</g>
</g>
<g>
	<g>
		<path d="M108.19,383.984h-0.086c-2.203,0-3.953,1.789-3.953,4s1.828,3.998,4.039,3.998c2.203,0,4-1.787,4-3.998
			S110.393,383.984,108.19,383.984z"/>
	</g>
</g>
<g>
	<g>
		<path d="M82.739,322.532h-0.086c-2.203,0-3.953,1.789-3.953,4s1.828,4,4.039,4c2.203,0,4-1.789,4-4S84.942,322.532,82.739,322.532
			z"/>
	</g>
</g>
<g>
	<g>
		<path d="M133.641,373.436h-0.086c-2.202,0-3.952,1.789-3.952,4s1.828,4,4.038,4c2.203,0,4-1.789,4-4
			S135.844,373.436,133.641,373.436z"/>
	</g>
</g>
<g>
	<g>
		<path d="M72.192,347.985h-0.086c-2.203,0-3.953,1.789-3.953,4s1.828,3.998,4.039,3.998c2.203,0,4-1.787,4-3.998
			S74.395,347.985,72.192,347.985z"/>
	</g>
</g>
<g>
	<g>
		<path d="M144.188,347.985h-0.086c-2.203,0-3.953,1.789-3.953,4s1.828,3.998,4.039,3.998c2.203,0,4-1.787,4-3.998
			S146.391,347.985,144.188,347.985z"/>
	</g>
</g>
<g>
	<g>
		<path d="M82.739,373.436h-0.086c-2.203,0-3.953,1.789-3.953,4s1.828,4,4.039,4c2.203,0,4-1.789,4-4S84.942,373.436,82.739,373.436
			z"/>
	</g>
</g>
<g>
	<g>
		<path d="M133.641,322.532h-0.086c-2.202,0-3.952,1.789-3.952,4s1.828,4,4.038,4c2.203,0,4-1.789,4-4
			S135.844,322.532,133.641,322.532z"/>
	</g>
</g>
<g>
	<g>
		<path d="M444.214,407.982h-0.086c-2.203,0-3.953,1.789-3.953,4c0,2.212,1.828,4,4.039,4c2.203,0,3.999-1.789,3.999-4
			C448.213,409.771,446.417,407.982,444.214,407.982z"/>
	</g>
</g>
<g>
	<g>
		<path d="M426.901,377.983h-0.086c-2.203,0-3.953,1.789-3.953,4s1.828,4,4.039,4c2.203,0,4-1.789,4-4
			S429.104,377.983,426.901,377.983z"/>
	</g>
</g>
<g>
	<g>
		<path d="M461.54,397.982h-0.086c-2.203,0-3.953,1.789-3.953,4c0,2.212,1.828,4,4.039,4c2.203,0,4-1.789,4-4
			S463.743,397.982,461.54,397.982z"/>
	</g>
</g>
<g>
	<g>
		<path d="M426.901,397.982h-0.086c-2.203,0-3.953,1.789-3.953,4c0,2.212,1.828,4,4.039,4c2.203,0,4-1.789,4-4
			S429.104,397.982,426.901,397.982z"/>
	</g>
</g>
<g>
	<g>
		<path d="M461.54,377.983h-0.086c-2.203,0-3.953,1.789-3.953,4s1.828,4,4.039,4c2.203,0,4-1.789,4-4
			S463.743,377.983,461.54,377.983z"/>
	</g>
</g>
<g>
	<g>
		<path d="M443.971,307.988c-46.317,0-83.996,37.685-83.996,83.994c0,2.211,1.789,4,4,4s4-1.79,4-4
			c0-41.901,34.093-75.994,75.996-75.994c2.211,0,4-1.789,4-4S446.182,307.988,443.971,307.988z"/>
	</g>
</g>
<g>
	<g>
		<path d="M107.995,291.98c-33.084,0-59.996,26.914-59.996,59.998s26.912,60.004,59.996,60.004c33.084,0,59.997-26.92,59.997-60.004
			S141.079,291.98,107.995,291.98z M107.995,403.981c-28.67,0-51.997-23.326-51.997-52.004c0-28.672,23.327-51.998,51.997-51.998
			c28.669,0,51.997,23.326,51.997,51.998C159.992,380.655,136.665,403.981,107.995,403.981z"/>
	</g>
</g>
<g>
	<g>
		<path d="M107.995,331.978c-11.031,0-19.999,8.978-19.999,20c0,11.029,8.967,20.005,19.999,20.005
			c11.031,0,19.999-8.976,19.999-20.005C127.994,340.956,119.026,331.978,107.995,331.978z M107.995,363.984
			c-6.617,0-11.999-5.391-11.999-12.006c0-6.617,5.382-12,11.999-12s12,5.382,12,12
			C119.995,358.593,114.612,363.984,107.995,363.984z"/>
	</g>
</g>
<g>
	<g>
		<path d="M443.972,355.984c-19.851,0-35.997,16.148-35.997,35.998c0,19.852,16.145,35.998,35.997,35.998
			c19.849,0,35.998-16.147,35.998-35.998C479.97,372.132,463.823,355.984,443.972,355.984z M443.972,419.98
			c-15.437,0-27.999-12.561-27.999-27.999c0-15.436,12.561-27.998,27.999-27.998c15.435,0,27.998,12.563,27.998,27.998
			C471.97,407.418,459.409,419.98,443.972,419.98z"/>
	</g>
</g>
<g>
	<g>
		<path d="M443.972,379.984c-6.616,0-12,5.384-12,11.998c0,6.617,5.384,12,12,12c6.616,0,11.999-5.383,11.999-12
			C455.971,385.368,450.588,379.984,443.972,379.984z M443.972,395.98c-2.202,0-4-1.797-4-4c0-2.201,1.798-3.998,4-3.998
			c2.203,0,4,1.797,4,3.998C447.972,394.184,446.175,395.98,443.972,395.98z"/>
	</g>
</g>
<g>
	<g>
		<path d="M155.898,219.991H59.997c-2.211,0-4,1.789-4,4s1.789,4,4,4h95.902c2.211,0,3.999-1.789,3.999-4
			C159.898,221.78,158.109,219.991,155.898,219.991z"/>
	</g>
</g>
<g>
	<g>
		<path d="M467.97,235.99c-2.211,0-4,1.789-4,4v79.995c0,2.211,1.789,4,4,4s4-1.789,4-4V239.99
			C471.97,237.779,470.181,235.99,467.97,235.99z"/>
	</g>
</g>
<g>
	<g>
		<path d="M499.968,315.987c-2.211,0-4,1.789-4,3.998v24c0,2.211,1.789,4,4,4c2.211,0,4-1.789,4-4v-24
			C503.968,317.776,502.179,315.987,499.968,315.987z"/>
	</g>
</g>
<g>
	<g>
		<path d="M275.98,68h-200c-2.211,0-4,1.789-4,4s1.789,4,4,4h200c2.209,0,3.998-1.789,3.998-4S278.189,68,275.98,68z"/>
	</g>
</g>
<g>
	<g>
		<path d="M295.95,207.524l-16-135.994c-0.258-2.195-2.313-3.78-4.438-3.5c-2.195,0.25-3.766,2.243-3.5,4.438l16,135.994
			c0.233,2.031,1.961,3.529,3.961,3.529c0.155,0,0.319-0.008,0.477-0.031C294.645,211.712,296.216,209.719,295.95,207.524z"/>
	</g>
</g>
<g>
	<g>
		<path d="M76.45,68.031c-2.172-0.272-4.188,1.305-4.438,3.5L56.028,207.204c-0.266,2.195,1.305,4.179,3.5,4.445
			c0.157,0.015,0.321,0.023,0.477,0.023c1.999,0,3.726-1.492,3.96-3.531L79.95,72.469C80.216,70.273,78.645,68.281,76.45,68.031z"/>
	</g>
</g>
<g>
	<g>
		<path d="M171.991,83.999c-2.211,0-3.999,1.789-3.999,4v135.992c0,2.211,1.788,4,3.999,4s4-1.789,4-3.999V87.999
			C175.991,85.788,174.202,83.999,171.991,83.999z"/>
	</g>
</g>
<g>
	<g>
		<path d="M156.001,83.999H90.238c-2.039,0-3.749,1.531-3.976,3.562L73.066,207.556c-0.125,1.125,0.242,2.265,1,3.109
			s1.836,1.326,2.977,1.326H156c2.211,0,3.999-1.787,4-3.998V87.999C160,85.788,158.212,83.999,156.001,83.999z M152,203.993H81.504
			l12.32-111.994H152V203.993z"/>
	</g>
</g>
<g>
	<g>
		<path d="M238.816,285.158l-63.997-63.996c-1.562-1.562-4.094-1.562-5.656,0s-1.562,4.094,0,5.656l63.997,63.997
			c0.781,0.78,1.805,1.172,2.828,1.172s2.047-0.39,2.828-1.173C240.378,289.251,240.378,286.72,238.816,285.158z"/>
	</g>
</g>
<g>
	<g>
		<path d="M62.824,221.163c-1.562-1.562-4.093-1.562-5.655,0L17.171,261.16c-1.562,1.562-1.562,4.094,0,5.656
			c0.781,0.781,1.805,1.172,2.828,1.172c1.024,0,2.047-0.39,2.828-1.171l39.997-39.999
			C64.386,225.257,64.386,222.725,62.824,221.163z"/>
	</g>
</g>
<g>
	<g>
		<path d="M291.978,283.987h-55.991c-2.211,0-4,1.789-4,4s1.789,4,4,4h55.991c2.211,0,4-1.789,4-4S294.189,283.987,291.978,283.987z
			"/>
	</g>
</g>
<g>
	<g>
		<path d="M355.976,363.983H227.989c-2.211,0-4,1.789-4,4s1.789,4,4,4h127.986c2.211,0,4.001-1.789,4.001-4
			S358.187,363.983,355.976,363.983z"/>
	</g>
</g>
<g>
	<g>
		<path d="M491.969,307.987c-2.211,0-4,1.789-4,4s1.789,4,4,4c2.202,0,3.999,1.797,3.999,3.998c0,2.211,1.789,4,4,4
			c2.211,0,4-1.789,4-4C503.968,313.37,498.585,307.987,491.969,307.987z"/>
	</g>
</g>
<g>
	<g>
		<path d="M491.969,307.987H475.97c-2.211,0-4,1.789-4,4s1.789,4,4,4h15.999c2.21,0,3.999-1.789,3.999-4
			S494.179,307.987,491.969,307.987z"/>
	</g>
</g>
<g>
	<g>
		<path d="M109.784,244.413c-1.976-0.969-4.375-0.188-5.367,1.789l-7.999,15.998c-0.984,1.975-0.188,4.383,1.788,5.367
			c0.578,0.281,1.187,0.422,1.789,0.422c1.46,0,2.875-0.812,3.578-2.211l8-16C112.557,247.803,111.761,245.397,109.784,244.413z"/>
	</g>
</g>
<g>
	<g>
		<path d="M68.481,251.909c-1.984-0.141-4.117,1.5-4.273,3.711l-1.266,17.853c-0.156,2.204,1.508,4.11,3.711,4.266
			c0.094,0.016,0.187,0.016,0.289,0.016c2.078,0,3.836-1.609,3.984-3.721l1.266-17.852
			C72.348,253.979,70.684,252.065,68.481,251.909z"/>
	</g>
</g>
<g>
	<g>
		<path d="M43.919,294.16l-5.656-16.982c-0.703-2.092-2.96-3.218-5.062-2.53c-2.093,0.704-3.226,2.967-2.531,5.062l5.656,16.981
			c0.563,1.672,2.117,2.734,3.797,2.734c0.422,0,0.844-0.063,1.265-0.203C43.481,298.517,44.614,296.254,43.919,294.16z"/>
	</g>
</g>
<g>
	<g>
		<path d="M26.677,323.079l-11.732-13.514c-1.46-1.672-3.976-1.859-5.648-0.406c-1.664,1.453-1.843,3.977-0.398,5.641l11.734,13.529
			c0.796,0.906,1.906,1.375,3.023,1.375c0.929,0,1.866-0.32,2.623-0.984C27.943,327.282,28.122,324.751,26.677,323.079z"/>
	</g>
</g>
<g>
	<g>
		<path d="M21.804,356.405l-16.015-8.006c-1.969-0.978-4.367-0.195-5.367,1.789c-0.984,1.975-0.188,4.375,1.789,5.366l16.015,8.007
			c0.578,0.28,1.187,0.422,1.789,0.422c1.461,0,2.875-0.812,3.578-2.211C24.577,359.796,23.781,357.389,21.804,356.405z"/>
	</g>
</g>
<g>
	<g>
		<path d="M30.061,389.061l-17.873-1.267c-2.023-0.133-4.117,1.483-4.273,3.703c-0.156,2.202,1.508,4.117,3.711,4.264l17.873,1.267
			c0.094,0.016,0.187,0.016,0.289,0.016c2.078,0,3.835-1.609,3.984-3.719C33.928,391.123,32.264,389.207,30.061,389.061z"/>
	</g>
</g>
<g>
	<g>
		<path d="M55.232,418.591c-0.704-2.093-2.954-3.219-5.062-2.531l-16.984,5.672c-2.093,0.689-3.226,2.953-2.531,5.056
			c0.563,1.676,2.125,2.731,3.797,2.731c0.421,0,0.843-0.071,1.266-0.213l16.983-5.653C54.794,422.95,55.927,420.685,55.232,418.591
			z"/>
	</g>
</g>
<g>
	<g>
		<path d="M84.739,433.712c-1.46-1.678-3.984-1.85-5.648-0.406L65.575,445.04c-1.664,1.453-1.843,3.977-0.398,5.641
			c0.796,0.922,1.906,1.384,3.023,1.384c0.929,0,1.867-0.32,2.625-0.978l13.516-11.734C86.005,437.9,86.184,435.376,84.739,433.712z
			"/>
	</g>
</g>
<g>
	<g>
		<path d="M117.784,436.386c-1.976-0.977-4.375-0.188-5.367,1.789l-8,16.016c-0.984,1.976-0.188,4.384,1.789,5.367
			c0.578,0.281,1.187,0.422,1.789,0.422c1.46,0,2.875-0.813,3.578-2.211l8-16.016C120.557,439.777,119.761,437.37,117.784,436.386z"
			/>
	</g>
</g>
<g>
	<g>
		<path d="M149.336,426.215c-2.023-0.156-4.117,1.5-4.273,3.709l-1.266,17.859c-0.156,2.203,1.508,4.117,3.711,4.272
			c0.094,0,0.187,0.009,0.289,0.009c2.078,0,3.836-1.609,3.984-3.72l1.266-17.858C153.203,428.283,151.539,426.371,149.336,426.215z
			"/>
	</g>
</g>
<g>
	<g>
		<path d="M185.334,424.255l-5.672-16.984c-0.703-2.1-2.969-3.218-5.062-2.522c-2.093,0.697-3.226,2.961-2.531,5.055l5.672,16.984
			c0.563,1.676,2.125,2.731,3.797,2.731c0.421,0,0.843-0.071,1.265-0.211C184.896,428.612,186.029,426.349,185.334,424.255z"/>
	</g>
</g>
<g>
	<g>
		<path d="M207.105,389.155l-11.732-13.517c-1.46-1.672-3.976-1.844-5.648-0.391c-1.664,1.447-1.843,3.969-0.398,5.641
			l11.733,13.515c0.796,0.906,1.906,1.375,3.023,1.375c0.929,0,1.867-0.32,2.624-0.984
			C208.371,393.346,208.55,390.827,207.105,389.155z"/>
	</g>
</g>
<g>
	<g>
		<path d="M213.778,348.407l-16.015-8c-1.968-0.969-4.366-0.189-5.366,1.789c-0.984,1.975-0.188,4.383,1.789,5.367l16.014,8
			c0.578,0.28,1.187,0.42,1.789,0.42c1.461,0,2.875-0.81,3.578-2.209C216.551,351.798,215.755,349.391,213.778,348.407z"/>
	</g>
</g>
<g>
	<g>
		<path d="M204.349,308.206l-17.843-1.266c-1.976-0.172-4.117,1.492-4.273,3.703c-0.156,2.204,1.508,4.11,3.711,4.266l17.843,1.266
			c0.094,0.016,0.187,0.016,0.289,0.016c2.077,0,3.835-1.61,3.983-3.719C208.215,310.268,206.551,308.362,204.349,308.206z"/>
	</g>
</g>
<g>
	<g>
		<path d="M185.333,277.191c-0.703-2.093-2.953-3.211-5.062-2.531l-16.983,5.656c-2.093,0.704-3.226,2.969-2.531,5.061
			c0.563,1.672,2.117,2.734,3.797,2.734c0.422,0,0.844-0.062,1.265-0.205l16.983-5.653
			C184.895,281.55,186.028,279.285,185.333,277.191z"/>
	</g>
</g>
<g>
	<g>
		<path d="M149.336,252.214c-13.219-5.475-27.107-8.248-41.295-8.248c-43.849,0-83.027,26.17-99.814,66.677
			c-22.788,55.012,3.422,118.313,58.426,141.102c13.219,5.477,27.108,8.25,41.295,8.25c43.849,0,83.027-26.172,99.814-66.678
			C230.551,338.313,204.341,275.011,149.336,252.214z M200.372,390.257c-15.546,37.506-51.818,61.738-92.425,61.738
			c-13.124,0-25.99-2.572-38.232-7.642c-50.927-21.098-75.2-79.706-54.098-130.647c15.545-37.506,51.817-61.74,92.424-61.74
			c13.125,0,25.991,2.57,38.232,7.641C197.2,280.716,221.473,339.321,200.372,390.257z"/>
	</g>
</g>
<g>
	<g>
		<path d="M150.829,253.292c-1.446-1.679-3.977-1.851-5.641-0.406l-13.53,11.72c-1.672,1.446-1.851,3.977-0.406,5.641
			c0.789,0.914,1.905,1.383,3.022,1.383c0.93,0,1.859-0.32,2.618-0.977l13.531-11.719
			C152.095,257.486,152.274,254.956,150.829,253.292z"/>
	</g>
</g>
<g>
	<g>
		<path d="M445.761,324.407c-1.975-0.969-4.375-0.189-5.366,1.789l-4,8c-0.984,1.975-0.189,4.383,1.789,5.367
			c0.577,0.28,1.186,0.422,1.788,0.422c1.462,0,2.875-0.812,3.578-2.211l4-8C448.533,327.798,447.739,325.391,445.761,324.407z"/>
	</g>
</g>
<g>
	<g>
		<path d="M415.963,336.313c-0.139-2.195-2.03-3.797-4.232-3.742c-2.211,0.133-3.884,2.031-3.75,4.242l0.547,8.922
			c0.133,2.117,1.889,3.75,3.991,3.75c0.079,0,0.165,0,0.241-0.008c2.211-0.134,3.884-2.031,3.75-4.242L415.963,336.313z"/>
	</g>
</g>
<g>
	<g>
		<path d="M396.825,365.225l-4.938-7.453c-1.227-1.836-3.711-2.334-5.547-1.125c-1.835,1.228-2.343,3.703-1.125,5.547l4.938,7.453
			c0.774,1.164,2.039,1.789,3.336,1.789c0.766,0,1.531-0.219,2.211-0.664C397.536,369.546,398.044,367.069,396.825,365.225z"/>
	</g>
</g>
<g>
	<g>
		<path d="M389.77,392.388l-7.999-3.982c-1.968-0.983-4.375-0.18-5.359,1.798c-0.983,1.973-0.18,4.373,1.797,5.356l7.999,3.984
			c0.57,0.289,1.178,0.422,1.781,0.422c1.469,0,2.883-0.813,3.578-2.219C392.55,395.771,391.747,393.372,389.77,392.388z"/>
	</g>
</g>
<g>
	<g>
		<path d="M397.239,419.428l-8.922,0.562c-2.203,0.139-3.882,2.039-3.741,4.241c0.133,2.125,1.888,3.748,3.991,3.748
			c0.078,0,0.164,0,0.25-0.006l8.922-0.561c2.203-0.14,3.882-2.039,3.742-4.242S399.661,419.374,397.239,419.428z"/>
	</g>
</g>
<g>
	<g>
		<path d="M422.768,440.228c-1.226-1.85-3.719-2.327-5.538-1.108l-7.452,4.953c-1.844,1.219-2.344,3.703-1.117,5.547
			c0.766,1.156,2.039,1.781,3.328,1.781c0.765,0,1.53-0.218,2.21-0.673l7.452-4.952
			C423.495,444.556,423.995,442.073,422.768,440.228z"/>
	</g>
</g>
<g>
	<g>
		<path d="M449.75,444.37c-1.966-0.984-4.38-0.187-5.357,1.797l-3.984,8.016c-0.984,1.984-0.18,4.375,1.797,5.359
			c0.57,0.289,1.178,0.422,1.781,0.422c1.469,0,2.883-0.813,3.578-2.219l3.982-8.017C452.531,447.745,451.728,445.353,449.75,444.37
			z"/>
	</g>
</g>
<g>
	<g>
		<path d="M479.415,438.198c-0.139-2.203-1.836-3.789-4.242-3.742c-2.203,0.139-3.883,2.039-3.742,4.242l0.562,8.938
			c0.133,2.125,1.889,3.75,3.992,3.75c0.078,0,0.164,0,0.25-0.008c2.203-0.139,3.883-2.039,3.742-4.242L479.415,438.198z"/>
	</g>
</g>
<g>
	<g>
		<path d="M502.741,421.747l-4.953-7.461c-1.234-1.851-3.727-2.344-5.546-1.117c-1.844,1.219-2.344,3.703-1.125,5.539l4.952,7.461
			c0.774,1.156,2.047,1.787,3.336,1.787c0.766,0,1.531-0.209,2.211-0.662C503.46,426.067,503.96,423.591,502.741,421.747z"/>
	</g>
</g>
<g>
	<g>
		<path d="M509.749,388.374l-8.016-3.984c-1.961-0.984-4.375-0.186-5.359,1.797c-0.984,1.984-0.18,4.375,1.797,5.359l8.017,3.982
			c0.569,0.289,1.178,0.422,1.78,0.422c1.468,0,2.882-0.812,3.578-2.219C512.53,391.749,511.727,389.358,509.749,388.374z"/>
	</g>
</g>
<g>
	<g>
		<path d="M499.14,355.96l-8.937,0.562c-2.203,0.14-3.883,2.039-3.742,4.242c0.133,2.125,1.89,3.75,3.992,3.75
			c0.078,0,0.164,0,0.25-0.009l8.937-0.562c2.203-0.139,3.883-2.039,3.742-4.241C503.243,357.499,501.554,355.837,499.14,355.96z"/>
	</g>
</g>
<g>
	<g>
		<path d="M509.647,374.376c-4.711-17.555-15.961-32.217-31.693-41.311c-10.328-5.953-22.054-9.095-33.912-9.095
			c-24.257,0-46.858,13.032-58.967,34.021c-18.74,32.462-7.577,74.113,24.883,92.863c10.335,5.97,22.076,9.117,33.943,9.117
			c24.248,0,46.833-13.031,58.948-34.003C511.944,410.25,514.349,391.922,509.647,374.376z M495.927,421.965
			c-10.693,18.506-30.63,30.006-52.026,30.006c-10.468,0-20.82-2.782-29.944-8.055c-28.64-16.53-38.489-53.285-21.96-81.926
			c10.695-18.521,30.631-30.021,52.045-30.021c10.46,0,20.803,2.773,29.91,8.033c13.882,8.014,23.811,20.951,27.967,36.442
			C506.069,391.926,503.944,408.09,495.927,421.965z"/>
	</g>
</g>
<g>
	<g>
		<path d="M479.282,334.313c-1.227-1.843-3.719-2.328-5.539-1.109l-7.453,4.953c-1.844,1.219-2.344,3.703-1.117,5.547
			c0.766,1.156,2.039,1.781,3.328,1.781c0.766,0,1.531-0.218,2.211-0.672l7.453-4.953
			C480.009,338.641,480.509,336.155,479.282,334.313z"/>
	</g>
</g>
<g>
	<g>
		<path d="M451.971,219.991c-2.211,0-3.999,1.789-3.999,4s1.788,4,3.999,4c6.616,0,11.999,5.383,11.999,12c0,2.211,1.789,4,4,4
			s4-1.789,4-4C471.97,228.96,463.001,219.991,451.971,219.991z"/>
	</g>
</g>
<g>
	<g>
		<path d="M451.971,219.991h-255.98c-2.21,0-3.999,1.789-3.999,4s1.789,4,3.999,4h255.98c2.211,0,4-1.789,4-4
			S454.182,219.991,451.971,219.991z"/>
	</g>
</g>
<g>
	<g>
		<path d="M278.794,206.462L265.726,87.561c-0.227-2.031-1.938-3.562-3.977-3.562H188c-2.211,0-4,1.789-4,4v119.994
			c0,2.211,1.789,3.998,4,3.998h86.942c0.062,0.008,0.117,0,0.156,0c2.21,0,4-1.787,4.001-3.998
			C279.099,207.446,278.997,206.931,278.794,206.462z M191.998,203.993V91.999h66.163l12.319,111.994H191.998z"/>
	</g>
</g>
<g>
	<g>
		<path d="M347.976,187.993c-2.212,0-4,1.789-4,4v23.998c0,2.211,1.788,4,4,4c2.21,0,3.999-1.789,3.998-3.999v-23.999
			C351.974,189.782,350.186,187.993,347.976,187.993z"/>
	</g>
</g>
<g>
	<g>
		<path d="M379.975,187.993c-2.211,0-3.998,1.789-3.998,4v23.998c0,2.211,1.787,4,3.998,4c2.21,0,4-1.789,4-3.999v-23.999
			C383.975,189.782,382.187,187.993,379.975,187.993z"/>
	</g>
</g>
<g>
	<g>
		<path d="M355.974,179.994c-6.616,0-11.998,5.382-11.998,11.999c0,2.211,1.788,4,4,4c2.21,0,3.999-1.789,3.998-4
			c0-2.203,1.798-4,4-4c2.212,0,4-1.789,4-3.999C359.974,181.783,358.186,179.994,355.974,179.994z"/>
	</g>
</g>
<g>
	<g>
		<path d="M371.977,179.994c-2.212,0-4,1.789-4,4c0,2.21,1.788,3.999,4,3.999c2.202,0,4,1.797,4,4c0,2.211,1.787,4,3.998,4
			c2.21,0,4-1.789,4-4C383.975,185.376,378.592,179.994,371.977,179.994z"/>
	</g>
</g>
<g>
	<g>
		<path d="M371.975,179.994h-16c-2.211,0-4,1.789-4,4c0,2.21,1.789,3.999,4,3.999h16c2.211,0,4-1.789,4-3.999
			C375.975,181.783,374.187,179.994,371.975,179.994z"/>
	</g>
</g>
<g>
	<g>
		<path d="M363.975,123.997c-2.211,0-4,1.789-4,4v55.997c0,2.21,1.789,3.999,4,3.999s4-1.789,4-3.999v-55.997
			C367.975,125.786,366.187,123.997,363.975,123.997z"/>
	</g>
</g>
<g>
	<g>
		<path d="M355.974,107.998c-2.212,0-4.109,1.781-4.109,4c0,2.202,1.68,3.991,3.891,3.991c1.453,0.196,4.219,2.961,4.219,12.008
			c0,2.211,1.789,4,4,4s4-1.789,3.999-4C367.974,108.225,356.465,107.998,355.974,107.998z"/>
	</g>
</g>
<g>
	<g>
		<path d="M291.978,235.99c-2.211,0-4,1.789-4,4v47.997c0,2.211,1.789,4,4,4s4-1.789,4-4V239.99
			C295.978,237.779,294.189,235.99,291.978,235.99z"/>
	</g>
</g>
<g>
	<g>
		<path d="M254.815,165.167c-1.562-1.562-4.094-1.562-5.656,0l-23.998,23.998c-1.562,1.562-1.562,4.094,0,5.656
			c0.781,0.781,1.805,1.172,2.828,1.172c1.023,0,2.047-0.391,2.828-1.172l23.998-23.998
			C256.377,169.261,256.377,166.729,254.815,165.167z"/>
	</g>
</g>
<g>
	<g>
		<path d="M254.815,181.166c-1.562-1.562-4.094-1.562-5.656,0l-8,7.999c-1.562,1.562-1.562,4.094,0,5.656
			c0.781,0.781,1.805,1.172,2.828,1.172s2.047-0.391,2.828-1.172l8-8C256.377,185.259,256.377,182.728,254.815,181.166z"/>
	</g>
</g>
<g>
	<g>
		<path d="M142.821,165.167c-1.562-1.562-4.094-1.562-5.656,0l-23.998,23.998c-1.562,1.562-1.562,4.094,0,5.656
			c0.781,0.781,1.805,1.172,2.828,1.172s2.046-0.391,2.828-1.172l23.998-23.998C144.383,169.261,144.383,166.729,142.821,165.167z"
			/>
	</g>
</g>
<g>
	<g>
		<path d="M142.821,181.166c-1.562-1.562-4.094-1.562-5.656,0l-7.999,7.999c-1.562,1.562-1.562,4.094,0,5.656
			c0.781,0.781,1.805,1.172,2.828,1.172c1.022,0,2.045-0.391,2.827-1.172l8-8C144.383,185.259,144.383,182.728,142.821,181.166z"/>
	</g>
</g>
<g>
	<g>
		<path d="M447.972,275.989c-4.413,0-8-3.594-8-8s3.587-8,8-8c2.21,0,3.999-1.789,3.999-4s-1.789-4-3.999-4c-8.819,0-16,7.172-16,16
			c0,8.828,7.181,15.998,16,15.998c2.21,0,3.999-1.787,3.999-3.998S450.182,275.989,447.972,275.989z"/>
	</g>
</g>
<g>
	<g>
		<path d="M451.971,251.989c-2.211,0-3.999,1.789-3.999,4v24c0,2.211,1.788,3.998,3.999,3.998s4-1.787,4-3.998v-24
			C455.971,253.778,454.182,251.989,451.971,251.989z"/>
	</g>
</g>
<g>
	<g>
		<path d="M451.971,251.988h-3.999c-2.211,0-4,1.789-4,4s1.789,4,4,4h3.999c2.211,0,4-1.789,4-4S454.182,251.988,451.971,251.988z"
			/>
	</g>
</g>
<g>
	<g>
		<path d="M451.971,275.989h-3.999c-2.211,0-4,1.789-4,4s1.789,3.998,4,3.998h3.999c2.211,0,4-1.787,4-3.998
			S454.182,275.989,451.971,275.989z"/>
	</g>
</g>
<g>
	<g>
		<path d="M443.972,275.294c-2.211,0-4,1.789-4,4v16.693c0,2.211,1.789,4,4,4c2.212,0,4-1.789,4-4v-16.693
			C447.972,277.083,446.184,275.294,443.972,275.294z"/>
	</g>
</g>
<g>
	<g>
		<path d="M342.803,237.163c-1.561-1.562-4.092-1.562-5.654,0l-8,8c-1.562,1.562-1.562,4.092,0,5.654
			c0.78,0.781,1.805,1.172,2.828,1.172c1.024,0,2.047-0.39,2.827-1.172l7.999-7.998
			C344.365,241.257,344.365,238.725,342.803,237.163z"/>
	</g>
</g>
<g>
	<g>
		<path d="M366.803,237.163c-1.561-1.562-4.093-1.562-5.655,0l-8,8c-1.562,1.562-1.562,4.092,0,5.654
			c0.78,0.781,1.805,1.172,2.827,1.172c1.024,0,2.047-0.39,2.828-1.172l8-7.998C368.365,241.257,368.365,238.725,366.803,237.163z"
			/>
	</g>
</g>
<g>
	<g>
		<path d="M390.802,237.163c-1.561-1.562-4.093-1.562-5.655,0l-7.999,8c-1.562,1.562-1.562,4.092,0,5.654
			c0.78,0.781,1.805,1.172,2.827,1.172c1.023,0,2.046-0.39,2.828-1.172l7.999-7.998
			C392.364,241.257,392.364,238.725,390.802,237.163z"/>
	</g>
</g>
<g>
	<g>
		<path d="M91.995,52.001c-6.616,0-11.999,5.383-11.999,12c0,2.211,1.789,3.999,4,3.999s4-1.789,3.999-3.999c0-2.203,1.797-4,4-4
			c2.211,0,4-1.789,4-4S94.206,52.001,91.995,52.001z"/>
	</g>
</g>
<g>
	<g>
		<path d="M259.98,52.001c-2.211,0-3.995,1.789-3.995,4s1.784,4,3.995,4c2.203,0,4,1.797,4,4c0,2.211,1.789,3.999,4,3.999
			s4-1.789,4-3.999C271.98,57.384,266.597,52.001,259.98,52.001z"/>
	</g>
</g>
<g>
	<g>
		<path d="M258.732,52.001H91.996c-2.211,0-4,1.789-4,4s1.789,4,4,4H258.73c2.211,0,4.002-1.789,4.002-4
			S260.943,52.001,258.732,52.001z"/>
	</g>
</g>
<g>
	<g>
		<path d="M379.975,307.987h-39.996c-2.211,0-4,1.789-4,4s1.789,4,4,4h39.996c2.21,0,4-1.789,4-4S382.187,307.987,379.975,307.987z"
			/>
	</g>
</g>
<g>
	<g>
		<path d="M342.803,309.159c-1.561-1.562-4.092-1.562-5.654,0l-24,23.998c-1.562,1.561-1.562,4.094,0,5.656
			c0.78,0.78,1.805,1.172,2.828,1.172c1.024,0,2.047-0.39,2.827-1.172l23.999-23.998
			C344.365,313.253,344.365,310.721,342.803,309.159z"/>
	</g>
</g>
<g>
	<g>
		<path d="M355.975,331.985h-39.997c-2.212,0-3.999,1.789-3.999,4s1.787,4,3.999,4h39.997c2.211,0,4-1.789,4-4
			S358.187,331.985,355.975,331.985z"/>
	</g>
</g>
<g>
</g>
<g>
</g>
<g>
</g>
<g>
</g>
<g>
</g>
<g>
</g>
<g>
</g>
<g>
</g>
<g>
</g>
<g>
</g>
<g>
</g>
<g>
</g>
<g>
</g>
<g>
</g>
<g>
</g>
</svg>
