<?xml version="1.0" encoding="iso-8859-1"?>
<!-- Generator: Adobe Illustrator 19.0.0, SVG Export Plug-In . SVG Version: 6.00 Build 0)  -->
<svg version="1.1" id="Capa_1" xmlns="http://www.w3.org/2000/svg" xmlns:xlink="http://www.w3.org/1999/xlink" x="0px" y="0px"
	 viewBox="0 0 511.875 511.875" style="enable-background:new 0 0 511.875 511.875;" xml:space="preserve">
<g>
	<g>
		<path d="M255.938,0c-2.21,0-3.999,1.789-3.999,3.999v503.876c0,2.219,1.789,4,3.999,4s3.999-1.782,3.999-4V3.999
			C259.937,1.789,258.148,0,255.938,0z"/>
	</g>
</g>
<g>
	<g>
		<path d="M287.93,71.989c-2.211,0-3.999,1.789-3.999,3.999c0,5.339-7.006,16.625-20.964,20.116
			c-2.139,0.535-3.444,2.706-2.905,4.847c0.453,1.819,2.077,3.03,3.874,3.03c0.32,0,0.648-0.039,0.969-0.121
			c17.635-4.405,27.024-19.018,27.024-27.872C291.928,73.778,290.139,71.989,287.93,71.989z"/>
	</g>
</g>
<g>
	<g>
		<path d="M287.93,32c-2.211,0-3.999,1.789-3.999,3.999c0,5.338-7.006,16.624-20.964,20.116c-2.139,0.534-3.444,2.706-2.905,4.846
			c0.453,1.82,2.077,3.03,3.874,3.03c0.32,0,0.648-0.039,0.969-0.12c17.635-4.405,27.024-19.019,27.024-27.872
			C291.928,33.788,290.139,32,287.93,32z"/>
	</g>
</g>
<g>
	<g>
		<path d="M287.93,16.003c-2.211,0-3.999,1.788-3.999,3.999v55.986c0,2.211,1.788,3.999,3.999,3.999c2.21,0,3.999-1.788,3.999-4
			V20.002C291.929,17.791,290.14,16.003,287.93,16.003z"/>
	</g>
</g>
<g>
	<g>
		<path d="M287.93,111.979c-2.211,0-3.999,1.789-3.999,3.999c0,5.338-7.006,16.624-20.964,20.116
			c-2.139,0.534-3.444,2.706-2.905,4.846c0.453,1.82,2.077,3.031,3.874,3.031c0.32,0,0.648-0.039,0.969-0.121
			c17.635-4.405,27.024-19.019,27.024-27.872C291.928,113.768,290.139,111.979,287.93,111.979z"/>
	</g>
</g>
<g>
	<g>
		<path d="M287.93,87.985c-2.211,0-3.999,1.789-3.999,3.999v23.994c0,2.21,1.788,3.999,3.999,3.999c2.21,0,3.999-1.789,3.999-3.999
			V91.984C291.929,89.774,290.14,87.985,287.93,87.985z"/>
	</g>
</g>
<g>
	<g>
		<path d="M287.93,151.968c-2.211,0-3.999,1.789-3.999,3.999c0,5.339-7.006,16.625-20.964,20.116
			c-2.139,0.535-3.444,2.707-2.905,4.847c0.453,1.82,2.077,3.03,3.874,3.03c0.32,0,0.648-0.039,0.969-0.121
			c17.635-4.405,27.024-19.019,27.024-27.872C291.928,153.757,290.139,151.968,287.93,151.968z"/>
	</g>
</g>
<g>
	<g>
		<path d="M287.93,127.975c-2.211,0-3.999,1.788-3.999,3.999v23.994c0,2.21,1.788,3.999,3.999,3.999c2.21,0,3.999-1.789,3.999-3.999
			v-23.994C291.929,129.763,290.14,127.975,287.93,127.975z"/>
	</g>
</g>
<g>
	<g>
		<path d="M287.93,191.959c-2.211,0-3.999,1.789-3.999,3.999c0,5.339-7.006,16.625-20.964,20.116
			c-2.139,0.535-3.444,2.706-2.905,4.847c0.453,1.819,2.077,3.03,3.874,3.03c0.32,0,0.648-0.039,0.969-0.121
			c17.635-4.405,27.024-19.018,27.024-27.872C291.928,193.748,290.139,191.959,287.93,191.959z"/>
	</g>
</g>
<g>
	<g>
		<path d="M287.93,167.965c-2.211,0-3.999,1.789-3.999,3.999v23.994c0,2.211,1.788,3.999,3.999,3.999
			c2.21,0,3.999-1.789,3.999-3.999v-23.994C291.929,169.754,290.14,167.965,287.93,167.965z"/>
	</g>
</g>
<g>
	<g>
		<path d="M248.909,96.104c-13.957-3.491-20.964-14.777-20.964-20.116c0-2.21-1.788-3.999-3.999-3.999
			c-2.21,0-3.999,1.789-3.999,3.999c0,8.853,9.396,23.467,27.024,27.872c0.329,0.082,0.657,0.121,0.977,0.121
			c1.789,0,3.421-1.211,3.874-3.03C252.36,98.81,251.055,96.639,248.909,96.104z"/>
	</g>
</g>
<g>
	<g>
		<path d="M248.909,56.114c-13.957-3.491-20.964-14.778-20.964-20.116c0-2.211-1.788-3.999-3.999-3.999
			c-2.21,0-3.999,1.789-3.999,3.999c0,8.853,9.396,23.467,27.024,27.872c0.329,0.082,0.657,0.121,0.977,0.121
			c1.789,0,3.421-1.21,3.874-3.031C252.36,58.821,251.055,56.649,248.909,56.114z"/>
	</g>
</g>
<g>
	<g>
		<path d="M223.945,16.003c-2.21,0-3.999,1.788-3.999,3.999v55.986c0,2.211,1.789,3.999,3.999,3.999c2.211,0,3.999-1.788,3.999-4
			V20.002C227.945,17.791,226.156,16.003,223.945,16.003z"/>
	</g>
</g>
<g>
	<g>
		<path d="M248.909,136.094c-13.957-3.491-20.964-14.778-20.964-20.116c0-2.21-1.788-3.999-3.999-3.999
			c-2.21,0-3.999,1.789-3.999,3.999c0,8.853,9.396,23.467,27.024,27.872c0.329,0.082,0.657,0.121,0.977,0.121
			c1.789,0,3.421-1.211,3.874-3.031C252.36,138.8,251.055,136.629,248.909,136.094z"/>
	</g>
</g>
<g>
	<g>
		<path d="M223.945,87.985c-2.21,0-3.999,1.789-3.999,3.999v23.994c0,2.21,1.789,3.999,3.999,3.999c2.211,0,3.999-1.789,3.999-3.999
			V91.984C227.945,89.774,226.156,87.985,223.945,87.985z"/>
	</g>
</g>
<g>
	<g>
		<path d="M248.909,176.083c-13.957-3.491-20.964-14.778-20.964-20.116c0-2.21-1.788-3.999-3.999-3.999
			c-2.21,0-3.999,1.789-3.999,3.999c0,8.853,9.396,23.467,27.024,27.872c0.329,0.082,0.657,0.121,0.977,0.121
			c1.789,0,3.421-1.21,3.874-3.03C252.36,178.79,251.055,176.618,248.909,176.083z"/>
	</g>
</g>
<g>
	<g>
		<path d="M223.945,127.975c-2.21,0-3.999,1.788-3.999,3.999v23.994c0,2.21,1.789,3.999,3.999,3.999
			c2.211,0,3.999-1.789,3.999-3.999v-23.994C227.945,129.763,226.156,127.975,223.945,127.975z"/>
	</g>
</g>
<g>
	<g>
		<path d="M248.909,216.074c-13.957-3.491-20.964-14.777-20.964-20.116c0-2.21-1.788-3.999-3.999-3.999
			c-2.21,0-3.999,1.789-3.999,3.999c0,8.853,9.396,23.467,27.024,27.872c0.329,0.082,0.657,0.121,0.977,0.121
			c1.789,0,3.421-1.211,3.874-3.03C252.36,218.78,251.055,216.609,248.909,216.074z"/>
	</g>
</g>
<g>
	<g>
		<path d="M223.945,167.965c-2.21,0-3.999,1.789-3.999,3.999v23.994c0,2.211,1.789,3.999,3.999,3.999
			c2.211,0,3.999-1.789,3.999-3.999v-23.994C227.945,169.754,226.156,167.965,223.945,167.965z"/>
	</g>
</g>
<g>
	<g>
		<path d="M287.93,231.949c-2.211,0-3.999,1.789-3.999,3.999c0,5.338-7.006,16.624-20.964,20.116
			c-2.139,0.535-3.444,2.706-2.905,4.846c0.453,1.82,2.077,3.027,3.874,3.027c0.32,0,0.648-0.035,0.969-0.117
			c17.635-4.405,27.024-19.019,27.024-27.872C291.928,233.738,290.139,231.949,287.93,231.949z"/>
	</g>
</g>
<g>
	<g>
		<path d="M287.93,207.955c-2.211,0-3.999,1.789-3.999,3.999v23.994c0,2.21,1.788,3.999,3.999,3.999c2.21,0,3.999-1.789,3.999-3.999
			v-23.994C291.929,209.744,290.14,207.955,287.93,207.955z"/>
	</g>
</g>
<g>
	<g>
		<path d="M248.909,256.064c-13.957-3.491-20.964-14.778-20.964-20.116c0-2.21-1.788-3.999-3.999-3.999
			c-2.21,0-3.999,1.789-3.999,3.999c0,8.853,9.396,23.467,27.024,27.872c0.329,0.082,0.657,0.117,0.977,0.117
			c1.789,0,3.421-1.207,3.874-3.027C252.36,258.77,251.055,256.599,248.909,256.064z"/>
	</g>
</g>
<g>
	<g>
		<path d="M223.945,207.955c-2.21,0-3.999,1.789-3.999,3.999v23.994c0,2.21,1.789,3.999,3.999,3.999
			c2.211,0,3.999-1.789,3.999-3.999v-23.994C227.945,209.744,226.156,207.955,223.945,207.955z"/>
	</g>
</g>
<g>
	<g>
		<path d="M271.934,276.917c-2.21,0-3.999,1.781-3.999,3.999v226.959c0,2.219,1.789,4,3.999,4c2.21,0,3.999-1.782,3.999-4.001
			V280.916C275.932,278.698,274.143,276.917,271.934,276.917z"/>
	</g>
</g>
<g>
	<g>
		<path d="M239.942,276.917c-2.21,0-3.999,1.797-3.999,3.999v226.959c0,2.219,1.789,4,3.999,4c2.211,0,3.999-1.782,3.999-4.001
			V280.916C243.94,278.714,242.153,276.917,239.942,276.917z"/>
	</g>
</g>
<g>
	<g>
		<path d="M287.93,265.436c-2.211,0-3.999,1.781-3.999,3.999v238.44c0,2.219,1.788,4,3.999,4c2.21,0,3.999-1.782,3.999-4.001
			V269.435C291.929,267.217,290.14,265.436,287.93,265.436z"/>
	</g>
</g>
<g>
	<g>
		<path d="M223.945,263.937c-2.21,0-3.999,1.796-3.999,3.998v239.94c0,2.219,1.789,4,3.999,4c2.211,0,3.999-1.782,3.999-4.001
			V267.935C227.945,265.733,226.156,263.937,223.945,263.937z"/>
	</g>
</g>
<g>
	<g>
		<path d="M335.917,159.959c-2.21,0-3.999,1.789-3.999,3.999v343.917c0,2.219,1.789,4,3.999,4c2.211,0,4-1.782,3.999-4V163.958
			C339.916,161.748,338.128,159.959,335.917,159.959z"/>
	</g>
</g>
<g>
	<g>
		<path d="M359.911,199.957c-2.21,0-3.999,1.789-3.999,3.999c0,8.892-0.992,17.121-12.966,20.116
			c-2.147,0.535-3.444,2.706-2.913,4.847c0.453,1.819,2.086,3.03,3.882,3.03c0.32,0,0.648-0.039,0.969-0.121
			c19.026-4.753,19.026-20.956,19.026-27.872C363.911,201.746,362.122,199.957,359.911,199.957z"/>
	</g>
</g>
<g>
	<g>
		<path d="M359.911,167.965c-2.21,0-3.999,1.789-3.999,3.999c0,8.892-0.992,17.121-12.966,20.116
			c-2.147,0.535-3.444,2.707-2.913,4.847c0.453,1.82,2.086,3.03,3.882,3.03c0.32,0,0.648-0.04,0.969-0.121
			c19.026-4.753,19.026-20.955,19.026-27.872C363.911,169.754,362.122,167.965,359.911,167.965z"/>
	</g>
</g>
<g>
	<g>
		<path d="M359.911,167.965c-2.21,0-3.999,1.789-3.999,3.999v31.992c0,2.21,1.789,3.999,3.999,3.999
			c2.211,0,3.999-1.789,3.999-3.999v-31.992C363.911,169.754,362.122,167.965,359.911,167.965z"/>
	</g>
</g>
<g>
	<g>
		<path d="M359.911,231.949c-2.21,0-3.999,1.789-3.999,3.999c0,8.892-0.992,17.12-12.966,20.116
			c-2.147,0.535-3.444,2.706-2.913,4.846c0.453,1.82,2.086,3.027,3.882,3.027c0.32,0,0.648-0.035,0.969-0.117
			c19.026-4.753,19.026-20.956,19.026-27.872C363.911,233.738,362.122,231.949,359.911,231.949z"/>
	</g>
</g>
<g>
	<g>
		<path d="M359.911,215.953c-2.21,0-3.999,1.789-3.999,3.999v15.996c0,2.21,1.789,3.999,3.999,3.999
			c2.211,0,3.999-1.789,3.999-3.999v-15.996C363.911,217.742,362.122,215.953,359.911,215.953z"/>
	</g>
</g>
<g>
	<g>
		<path d="M359.911,263.937c-2.21,0-3.999,1.796-3.999,3.998c0,8.896-0.992,17.121-12.966,20.121
			c-2.147,0.53-3.444,2.702-2.913,4.842c0.453,1.828,2.086,3.03,3.882,3.03c0.32,0,0.648-0.031,0.969-0.116
			c19.026-4.757,19.026-20.956,19.026-27.877C363.911,265.733,362.122,263.937,359.911,263.937z"/>
	</g>
</g>
<g>
	<g>
		<path d="M359.911,247.945c-2.21,0-3.999,1.788-3.999,3.999v15.991c0,2.219,1.789,4,3.999,4c2.211,0,3.999-1.781,3.999-4v-15.991
			C363.911,249.733,362.122,247.945,359.911,247.945z"/>
	</g>
</g>
<g>
	<g>
		<path d="M359.911,295.928c-2.21,0-3.999,1.797-3.999,3.999c0,8.896-0.992,17.121-12.966,20.12
			c-2.147,0.531-3.444,2.702-2.913,4.843c0.453,1.828,2.086,3.03,3.882,3.03c0.32,0,0.648-0.031,0.969-0.117
			c19.026-4.757,19.026-20.956,19.026-27.876C363.911,297.725,362.122,295.928,359.911,295.928z"/>
	</g>
</g>
<g>
	<g>
		<path d="M359.911,279.933c-2.21,0-3.999,1.796-3.999,3.998v15.996c0,2.219,1.789,3.999,3.999,3.999
			c2.211,0,3.999-1.78,3.999-3.999v-15.996C363.911,281.729,362.122,279.933,359.911,279.933z"/>
	</g>
</g>
<g>
	<g>
		<path d="M328.888,224.072c-11.974-2.995-12.965-11.223-12.965-20.116c0-2.21-1.789-3.999-4-3.999c-2.21,0-3.998,1.789-3.998,3.999
			c0,6.916,0,23.119,19.025,27.872c0.328,0.082,0.649,0.121,0.969,0.121c1.797,0,3.43-1.211,3.882-3.03
			C332.331,226.778,331.036,224.607,328.888,224.072z"/>
	</g>
</g>
<g>
	<g>
		<path d="M328.888,192.08c-11.974-2.995-12.965-11.224-12.965-20.116c0-2.21-1.789-3.999-4-3.999c-2.21,0-3.998,1.789-3.998,3.999
			c0,6.917,0,23.12,19.025,27.872c0.328,0.082,0.649,0.121,0.969,0.121c1.797,0,3.43-1.211,3.882-3.03
			C332.331,194.787,331.036,192.615,328.888,192.08z"/>
	</g>
</g>
<g>
	<g>
		<path d="M311.922,167.965c-2.21,0-3.998,1.789-3.998,3.999v31.992c0,2.21,1.788,3.999,3.998,3.999c2.211,0,4-1.789,4-3.999
			v-31.992C315.922,169.754,314.133,167.965,311.922,167.965z"/>
	</g>
</g>
<g>
	<g>
		<path d="M328.888,256.064c-11.974-2.995-12.965-11.224-12.965-20.116c0-2.21-1.789-3.999-4-3.999c-2.21,0-3.998,1.789-3.998,3.999
			c0,6.916,0,23.119,19.025,27.872c0.328,0.082,0.649,0.117,0.969,0.117c1.797,0,3.43-1.207,3.882-3.027
			C332.331,258.77,331.036,256.599,328.888,256.064z"/>
	</g>
</g>
<g>
	<g>
		<path d="M311.922,215.953c-2.21,0-3.998,1.789-3.998,3.999v15.996c0,2.21,1.788,3.999,3.998,3.999c2.211,0,4-1.789,4-3.999
			v-15.996C315.922,217.742,314.133,215.953,311.922,215.953z"/>
	</g>
</g>
<g>
	<g>
		<path d="M328.888,288.056c-11.974-3-12.965-11.225-12.965-20.121c0-2.202-1.789-3.998-4-3.998c-2.21,0-3.998,1.796-3.998,3.998
			c0,6.921,0,23.12,19.025,27.877c0.328,0.085,0.649,0.116,0.969,0.116c1.797,0,3.43-1.202,3.882-3.03
			C332.331,290.758,331.036,288.586,328.888,288.056z"/>
	</g>
</g>
<g>
	<g>
		<path d="M311.922,247.945c-2.21,0-3.998,1.788-3.998,3.999v15.991c0,2.219,1.788,4,3.998,4c2.211,0,4-1.781,4-4v-15.991
			C315.922,249.733,314.133,247.945,311.922,247.945z"/>
	</g>
</g>
<g>
	<g>
		<path d="M328.888,320.047c-11.974-2.999-12.965-11.224-12.965-20.12c0-2.202-1.789-3.999-4-3.999c-2.21,0-3.998,1.797-3.998,3.999
			c0,6.92,0,23.119,19.025,27.876c0.328,0.086,0.649,0.117,0.969,0.117c1.797,0,3.43-1.202,3.882-3.03
			C332.331,322.749,331.036,320.578,328.888,320.047z"/>
	</g>
</g>
<g>
	<g>
		<path d="M311.922,279.933c-2.21,0-3.998,1.796-3.998,3.998v15.996c0,2.219,1.788,3.999,3.998,3.999c2.211,0,4-1.78,4-3.999
			v-15.996C315.922,281.729,314.133,279.933,311.922,279.933z"/>
	</g>
</g>
<g>
	<g>
		<path d="M303.924,327.92c-2.21,0-3.998,1.797-3.998,3.999v175.956c0,2.219,1.788,4,3.998,4c2.211,0,4-1.782,4-4.001V331.919
			C307.924,329.717,306.135,327.92,303.924,327.92z"/>
	</g>
</g>
<g>
	<g>
		<path d="M367.909,327.92c-2.211,0-3.999,1.797-3.999,3.999v175.956c0,2.219,1.788,4,3.999,4c2.211,0,3.999-1.782,3.999-4.001
			V331.919C371.909,329.717,370.12,327.92,367.909,327.92z"/>
	</g>
</g>
<g>
	<g>
		<path d="M319.921,340.417c-2.21,0-3.998,1.781-3.998,3.999v163.459c0,2.219,1.788,4,3.998,4c2.211,0,4-1.782,4-4.001V344.416
			C323.921,342.198,322.132,340.417,319.921,340.417z"/>
	</g>
</g>
<g>
	<g>
		<path d="M351.914,340.417c-2.21,0-3.999,1.781-3.999,3.999v163.459c0,2.219,1.789,4,3.999,4c2.211,0,3.999-1.782,3.999-4.001
			V344.416C355.913,342.198,354.125,340.417,351.914,340.417z"/>
	</g>
</g>
<g>
	<g>
		<path d="M399.901,87.977c-2.211,0-3.999,1.789-3.999,3.999v415.899c0,2.219,1.788,4,3.999,4c2.21,0,3.999-1.782,3.999-4.001
			V91.976C403.901,89.766,402.112,87.977,399.901,87.977z"/>
	</g>
</g>
<g>
	<g>
		<path d="M423.896,127.975c-2.211,0-4,1.788-4,3.999c0,8.892-0.991,17.12-12.965,20.116c-2.148,0.535-3.444,2.706-2.913,4.846
			c0.452,1.821,2.085,3.031,3.882,3.031c0.32,0,0.648-0.039,0.969-0.121c19.025-4.753,19.025-20.956,19.025-27.872
			C427.893,129.763,426.106,127.975,423.896,127.975z"/>
	</g>
</g>
<g>
	<g>
		<path d="M423.896,95.983c-2.211,0-4,1.789-4,3.999c0,8.892-0.991,17.12-12.965,20.116c-2.148,0.535-3.444,2.706-2.913,4.846
			c0.452,1.82,2.085,3.031,3.882,3.031c0.32,0,0.648-0.039,0.969-0.121c19.025-4.753,19.025-20.956,19.025-27.872
			C427.893,97.772,426.106,95.983,423.896,95.983z"/>
	</g>
</g>
<g>
	<g>
		<path d="M423.896,95.983c-2.211,0-4,1.789-4,3.999v31.992c0,2.21,1.789,3.999,4,3.999c2.21,0,3.998-1.789,3.998-3.999V99.982
			C427.893,97.772,426.106,95.983,423.896,95.983z"/>
	</g>
</g>
<g>
	<g>
		<path d="M423.896,159.966c-2.211,0-4,1.789-4,3.999c0,8.892-0.991,17.121-12.965,20.116c-2.148,0.535-3.444,2.707-2.913,4.847
			c0.452,1.82,2.085,3.03,3.882,3.03c0.32,0,0.648-0.039,0.969-0.121c19.025-4.753,19.025-20.955,19.025-27.872
			C427.893,161.755,426.106,159.966,423.896,159.966z"/>
	</g>
</g>
<g>
	<g>
		<path d="M423.896,143.971c-2.211,0-4,1.788-4,3.999v15.996c0,2.21,1.789,3.999,4,3.999c2.21,0,3.998-1.789,3.998-3.999V147.97
			C427.893,145.759,426.106,143.971,423.896,143.971z"/>
	</g>
</g>
<g>
	<g>
		<path d="M423.896,191.959c-2.211,0-4,1.789-4,3.999c0,8.892-0.991,17.121-12.965,20.116c-2.148,0.535-3.444,2.706-2.913,4.847
			c0.452,1.819,2.085,3.03,3.882,3.03c0.32,0,0.648-0.039,0.969-0.121c19.025-4.753,19.025-20.955,19.025-27.872
			C427.893,193.748,426.106,191.959,423.896,191.959z"/>
	</g>
</g>
<g>
	<g>
		<path d="M423.896,175.963c-2.211,0-4,1.789-4,3.999v15.996c0,2.211,1.789,3.999,4,3.999c2.21,0,3.998-1.789,3.998-3.999v-15.996
			C427.893,177.752,426.106,175.963,423.896,175.963z"/>
	</g>
</g>
<g>
	<g>
		<path d="M423.896,223.951c-2.211,0-4,1.789-4,3.999c0,8.892-0.991,17.12-12.965,20.116c-2.148,0.534-3.444,2.706-2.913,4.846
			c0.452,1.82,2.085,3.031,3.882,3.031c0.32,0,0.648-0.039,0.969-0.121c19.025-4.753,19.025-20.956,19.025-27.872
			C427.893,225.74,426.106,223.951,423.896,223.951z"/>
	</g>
</g>
<g>
	<g>
		<path d="M423.896,207.955c-2.211,0-4,1.789-4,3.999v15.996c0,2.21,1.789,3.999,4,3.999c2.21,0,3.998-1.789,3.998-3.999v-15.996
			C427.893,209.744,426.106,207.955,423.896,207.955z"/>
	</g>
</g>
<g>
	<g>
		<path d="M392.872,152.09c-11.974-2.996-12.966-11.224-12.966-20.116c0-2.211-1.789-3.999-3.999-3.999
			c-2.211,0-3.999,1.788-3.999,3.999c0,6.916,0,23.12,19.026,27.872c0.328,0.082,0.649,0.121,0.969,0.121
			c1.796,0,3.429-1.211,3.882-3.031C396.317,154.797,395.02,152.625,392.872,152.09z"/>
	</g>
</g>
<g>
	<g>
		<path d="M392.872,120.098c-11.974-2.995-12.966-11.223-12.966-20.116c0-2.21-1.789-3.999-3.999-3.999
			c-2.211,0-3.999,1.789-3.999,3.999c0,6.916,0,23.119,19.026,27.872c0.328,0.082,0.649,0.121,0.969,0.121
			c1.796,0,3.429-1.211,3.882-3.031C396.317,122.804,395.02,120.633,392.872,120.098z"/>
	</g>
</g>
<g>
	<g>
		<path d="M375.908,95.983c-2.211,0-3.999,1.789-3.999,3.999v31.992c0,2.21,1.788,3.999,3.999,3.999c2.21,0,3.999-1.789,3.999-3.999
			V99.982C379.906,97.772,378.117,95.983,375.908,95.983z"/>
	</g>
</g>
<g>
	<g>
		<path d="M392.872,184.081c-11.974-2.995-12.966-11.224-12.966-20.116c0-2.21-1.789-3.999-3.999-3.999
			c-2.211,0-3.999,1.789-3.999,3.999c0,6.917,0,23.12,19.026,27.872c0.328,0.082,0.649,0.121,0.969,0.121
			c1.796,0,3.429-1.21,3.882-3.03C396.317,186.788,395.02,184.616,392.872,184.081z"/>
	</g>
</g>
<g>
	<g>
		<path d="M375.908,143.971c-2.211,0-3.999,1.788-3.999,3.999v15.996c0,2.21,1.788,3.999,3.999,3.999
			c2.21,0,3.999-1.789,3.999-3.999V147.97C379.906,145.759,378.117,143.971,375.908,143.971z"/>
	</g>
</g>
<g>
	<g>
		<path d="M392.872,216.074c-11.974-2.995-12.966-11.223-12.966-20.116c0-2.21-1.789-3.999-3.999-3.999
			c-2.211,0-3.999,1.789-3.999,3.999c0,6.916,0,23.119,19.026,27.872c0.328,0.082,0.649,0.121,0.969,0.121
			c1.796,0,3.429-1.211,3.882-3.03C396.317,218.78,395.02,216.609,392.872,216.074z"/>
	</g>
</g>
<g>
	<g>
		<path d="M375.908,175.963c-2.211,0-3.999,1.789-3.999,3.999v15.996c0,2.211,1.788,3.999,3.999,3.999
			c2.21,0,3.999-1.789,3.999-3.999v-15.996C379.906,177.752,378.117,175.963,375.908,175.963z"/>
	</g>
</g>
<g>
	<g>
		<path d="M392.872,248.066c-11.974-2.995-12.966-11.223-12.966-20.116c0-2.21-1.789-3.999-3.999-3.999
			c-2.211,0-3.999,1.789-3.999,3.999c0,6.916,0,23.119,19.026,27.872c0.328,0.082,0.649,0.121,0.969,0.121
			c1.796,0,3.429-1.211,3.882-3.031C396.317,250.772,395.02,248.601,392.872,248.066z"/>
	</g>
</g>
<g>
	<g>
		<path d="M375.908,207.955c-2.211,0-3.999,1.789-3.999,3.999v15.996c0,2.21,1.788,3.999,3.999,3.999
			c2.21,0,3.999-1.789,3.999-3.999v-15.996C379.906,209.744,378.117,207.955,375.908,207.955z"/>
	</g>
</g>
<g>
	<g>
		<path d="M383.906,268.435c-2.211,0-3.999,1.781-3.999,4v235.44c0,2.219,1.788,4,3.999,4c2.21,0,3.999-1.782,3.999-4.001V272.435
			C387.904,270.216,386.115,268.435,383.906,268.435z"/>
	</g>
</g>
<g>
	<g>
		<path d="M175.958,159.959c-2.211,0-3.999,1.789-3.999,3.999v343.917c0,2.219,1.788,4,3.999,4c2.209,0,3.999-1.782,3.999-4V163.958
			C179.958,161.748,178.169,159.959,175.958,159.959z"/>
	</g>
</g>
<g>
	<g>
		<path d="M199.953,199.957c-2.211,0-3.999,1.789-3.999,3.999c0,8.892-0.992,17.121-12.966,20.116
			c-2.139,0.535-3.444,2.706-2.905,4.847c0.453,1.819,2.077,3.03,3.874,3.03c0.32,0,0.648-0.039,0.968-0.121
			c19.027-4.753,19.027-20.956,19.027-27.872C203.951,201.746,202.163,199.957,199.953,199.957z"/>
	</g>
</g>
<g>
	<g>
		<path d="M199.953,167.965c-2.211,0-3.999,1.789-3.999,3.999c0,8.892-0.992,17.121-12.966,20.116
			c-2.139,0.535-3.444,2.707-2.905,4.847c0.453,1.82,2.077,3.03,3.874,3.03c0.32,0,0.648-0.04,0.968-0.121
			c19.027-4.753,19.027-20.955,19.027-27.872C203.951,169.754,202.163,167.965,199.953,167.965z"/>
	</g>
</g>
<g>
	<g>
		<path d="M199.953,167.965c-2.211,0-3.999,1.789-3.999,3.999v31.992c0,2.21,1.788,3.999,3.999,3.999
			c2.21,0,3.999-1.789,3.999-3.999v-31.992C203.951,169.754,202.163,167.965,199.953,167.965z"/>
	</g>
</g>
<g>
	<g>
		<path d="M199.953,231.949c-2.211,0-3.999,1.789-3.999,3.999c0,8.892-0.992,17.12-12.966,20.116
			c-2.139,0.535-3.444,2.706-2.905,4.846c0.453,1.82,2.077,3.027,3.874,3.027c0.32,0,0.648-0.035,0.968-0.117
			c19.027-4.753,19.027-20.956,19.027-27.872C203.951,233.738,202.163,231.949,199.953,231.949z"/>
	</g>
</g>
<g>
	<g>
		<path d="M199.953,215.953c-2.211,0-3.999,1.789-3.999,3.999v15.996c0,2.21,1.788,3.999,3.999,3.999
			c2.21,0,3.999-1.789,3.999-3.999v-15.996C203.951,217.742,202.163,215.953,199.953,215.953z"/>
	</g>
</g>
<g>
	<g>
		<path d="M199.953,263.937c-2.211,0-3.999,1.796-3.999,3.998c0,8.896-0.992,17.121-12.966,20.121
			c-2.139,0.53-3.444,2.702-2.905,4.842c0.453,1.828,2.077,3.03,3.874,3.03c0.32,0,0.648-0.031,0.968-0.116
			c19.027-4.757,19.027-20.956,19.027-27.877C203.951,265.733,202.163,263.937,199.953,263.937z"/>
	</g>
</g>
<g>
	<g>
		<path d="M199.953,247.945c-2.211,0-3.999,1.788-3.999,3.999v15.991c0,2.219,1.788,4,3.999,4c2.21,0,3.999-1.781,3.999-4v-15.991
			C203.951,249.733,202.163,247.945,199.953,247.945z"/>
	</g>
</g>
<g>
	<g>
		<path d="M199.953,295.928c-2.211,0-3.999,1.797-3.999,3.999c0,8.896-0.992,17.121-12.966,20.12
			c-2.139,0.531-3.444,2.702-2.905,4.843c0.453,1.828,2.077,3.03,3.874,3.03c0.32,0,0.648-0.031,0.968-0.117
			c19.027-4.757,19.027-20.956,19.027-27.876C203.951,297.725,202.163,295.928,199.953,295.928z"/>
	</g>
</g>
<g>
	<g>
		<path d="M199.953,279.933c-2.211,0-3.999,1.796-3.999,3.998v15.996c0,2.219,1.788,3.999,3.999,3.999
			c2.21,0,3.999-1.78,3.999-3.999v-15.996C203.951,281.729,202.163,279.933,199.953,279.933z"/>
	</g>
</g>
<g>
	<g>
		<path d="M168.928,224.072c-11.974-2.995-12.966-11.223-12.966-20.116c0-2.21-1.789-3.999-3.999-3.999
			c-2.21,0-3.999,1.789-3.999,3.999c0,6.916,0,23.119,19.026,27.872c0.329,0.082,0.657,0.121,0.977,0.121
			c1.788,0,3.421-1.211,3.874-3.03C172.38,226.778,171.076,224.607,168.928,224.072z"/>
	</g>
</g>
<g>
	<g>
		<path d="M168.928,192.08c-11.974-2.995-12.966-11.224-12.966-20.116c0-2.21-1.789-3.999-3.999-3.999
			c-2.21,0-3.999,1.789-3.999,3.999c0,6.917,0,23.12,19.026,27.872c0.329,0.082,0.657,0.121,0.977,0.121
			c1.788,0,3.421-1.211,3.874-3.03C172.38,194.787,171.076,192.615,168.928,192.08z"/>
	</g>
</g>
<g>
	<g>
		<path d="M151.964,167.965c-2.21,0-3.999,1.789-3.999,3.999v31.992c0,2.21,1.789,3.999,3.999,3.999s3.999-1.789,3.999-3.999
			v-31.992C155.963,169.754,154.174,167.965,151.964,167.965z"/>
	</g>
</g>
<g>
	<g>
		<path d="M168.928,256.064c-11.974-2.995-12.966-11.224-12.966-20.116c0-2.21-1.789-3.999-3.999-3.999
			c-2.21,0-3.999,1.789-3.999,3.999c0,6.916,0,23.119,19.026,27.872c0.329,0.082,0.657,0.117,0.977,0.117
			c1.788,0,3.421-1.207,3.874-3.027C172.38,258.77,171.076,256.599,168.928,256.064z"/>
	</g>
</g>
<g>
	<g>
		<path d="M151.964,215.953c-2.21,0-3.999,1.789-3.999,3.999v15.996c0,2.21,1.789,3.999,3.999,3.999s3.999-1.789,3.999-3.999
			v-15.996C155.963,217.742,154.174,215.953,151.964,215.953z"/>
	</g>
</g>
<g>
	<g>
		<path d="M168.928,288.056c-11.974-3-12.966-11.225-12.966-20.121c0-2.202-1.789-3.998-3.999-3.998
			c-2.21,0-3.999,1.796-3.999,3.998c0,6.921,0,23.12,19.026,27.877c0.329,0.085,0.657,0.116,0.977,0.116
			c1.788,0,3.421-1.202,3.874-3.03C172.38,290.758,171.076,288.586,168.928,288.056z"/>
	</g>
</g>
<g>
	<g>
		<path d="M151.964,247.945c-2.21,0-3.999,1.788-3.999,3.999v15.991c0,2.219,1.789,4,3.999,4s3.999-1.781,3.999-4v-15.991
			C155.963,249.733,154.174,247.945,151.964,247.945z"/>
	</g>
</g>
<g>
	<g>
		<path d="M168.928,320.047c-11.974-2.999-12.966-11.224-12.966-20.12c0-2.202-1.789-3.999-3.999-3.999
			c-2.21,0-3.999,1.797-3.999,3.999c0,6.92,0,23.119,19.026,27.876c0.329,0.086,0.657,0.117,0.977,0.117
			c1.788,0,3.421-1.202,3.874-3.03C172.38,322.749,171.076,320.578,168.928,320.047z"/>
	</g>
</g>
<g>
	<g>
		<path d="M151.964,279.933c-2.21,0-3.999,1.796-3.999,3.998v15.996c0,2.219,1.789,3.999,3.999,3.999s3.999-1.78,3.999-3.999
			v-15.996C155.963,281.729,154.174,279.933,151.964,279.933z"/>
	</g>
</g>
<g>
	<g>
		<path d="M143.966,327.92c-2.21,0-3.999,1.797-3.999,3.999v175.956c0,2.219,1.789,4,3.999,4s3.999-1.782,3.999-4.001V331.919
			C147.964,329.717,146.175,327.92,143.966,327.92z"/>
	</g>
</g>
<g>
	<g>
		<path d="M207.95,327.92c-2.21,0-3.998,1.797-3.998,3.999v175.956c0,2.219,1.788,4,3.998,4c2.211,0,3.999-1.782,3.999-4.001
			V331.919C211.948,329.717,210.161,327.92,207.95,327.92z"/>
	</g>
</g>
<g>
	<g>
		<path d="M159.961,340.417c-2.211,0-3.999,1.781-3.999,3.999v163.459c0,2.219,1.788,4,3.999,4c2.21,0,3.999-1.782,3.999-4.001
			V344.416C163.961,342.198,162.172,340.417,159.961,340.417z"/>
	</g>
</g>
<g>
	<g>
		<path d="M191.955,340.417c-2.211,0-3.999,1.781-3.999,3.999v163.459c0,2.219,1.788,4,3.999,4c2.21,0,3.999-1.782,3.999-4.001
			V344.416C195.953,342.198,194.164,340.417,191.955,340.417z"/>
	</g>
</g>
<g>
	<g>
		<path d="M111.974,87.977c-2.21,0-3.999,1.789-3.999,3.999v415.899c0,2.219,1.789,4,3.999,4c2.211,0,3.999-1.782,3.999-4.001
			V91.976C115.973,89.766,114.185,87.977,111.974,87.977z"/>
	</g>
</g>
<g>
	<g>
		<path d="M135.968,127.975c-2.21,0-3.999,1.788-3.999,3.999c0,8.892-0.992,17.12-12.965,20.116
			c-2.148,0.535-3.453,2.706-2.914,4.846c0.453,1.821,2.086,3.031,3.874,3.031c0.321,0,0.649-0.039,0.977-0.121
			c19.026-4.753,19.026-20.956,19.026-27.872C139.966,129.763,138.179,127.975,135.968,127.975z"/>
	</g>
</g>
<g>
	<g>
		<path d="M135.968,95.983c-2.21,0-3.999,1.789-3.999,3.999c0,8.892-0.992,17.12-12.965,20.116
			c-2.148,0.535-3.453,2.706-2.914,4.846c0.453,1.82,2.086,3.031,3.874,3.031c0.321,0,0.649-0.039,0.977-0.121
			c19.026-4.753,19.026-20.956,19.026-27.872C139.966,97.772,138.179,95.983,135.968,95.983z"/>
	</g>
</g>
<g>
	<g>
		<path d="M135.968,95.983c-2.21,0-3.999,1.789-3.999,3.999v31.992c0,2.21,1.789,3.999,3.999,3.999c2.211,0,3.999-1.789,3.999-3.999
			V99.982C139.966,97.772,138.179,95.983,135.968,95.983z"/>
	</g>
</g>
<g>
	<g>
		<path d="M135.968,159.966c-2.21,0-3.999,1.789-3.999,3.999c0,8.892-0.992,17.121-12.965,20.116
			c-2.148,0.535-3.453,2.707-2.914,4.847c0.453,1.82,2.086,3.03,3.874,3.03c0.321,0,0.649-0.039,0.977-0.121
			c19.026-4.753,19.026-20.955,19.026-27.872C139.966,161.755,138.179,159.966,135.968,159.966z"/>
	</g>
</g>
<g>
	<g>
		<path d="M135.968,143.971c-2.21,0-3.999,1.788-3.999,3.999v15.996c0,2.21,1.789,3.999,3.999,3.999
			c2.211,0,3.999-1.789,3.999-3.999V147.97C139.966,145.759,138.179,143.971,135.968,143.971z"/>
	</g>
</g>
<g>
	<g>
		<path d="M135.968,191.959c-2.21,0-3.999,1.789-3.999,3.999c0,8.892-0.992,17.121-12.965,20.116
			c-2.148,0.535-3.453,2.706-2.914,4.847c0.453,1.819,2.086,3.03,3.874,3.03c0.321,0,0.649-0.039,0.977-0.121
			c19.026-4.753,19.026-20.955,19.026-27.872C139.966,193.748,138.179,191.959,135.968,191.959z"/>
	</g>
</g>
<g>
	<g>
		<path d="M135.968,175.963c-2.21,0-3.999,1.789-3.999,3.999v15.996c0,2.211,1.789,3.999,3.999,3.999
			c2.211,0,3.999-1.789,3.999-3.999v-15.996C139.966,177.752,138.179,175.963,135.968,175.963z"/>
	</g>
</g>
<g>
	<g>
		<path d="M135.968,223.951c-2.21,0-3.999,1.789-3.999,3.999c0,8.892-0.992,17.12-12.965,20.116
			c-2.148,0.534-3.453,2.706-2.914,4.846c0.453,1.82,2.086,3.031,3.874,3.031c0.321,0,0.649-0.039,0.977-0.121
			c19.026-4.753,19.026-20.956,19.026-27.872C139.966,225.74,138.179,223.951,135.968,223.951z"/>
	</g>
</g>
<g>
	<g>
		<path d="M135.968,207.955c-2.21,0-3.999,1.789-3.999,3.999v15.996c0,2.21,1.789,3.999,3.999,3.999
			c2.211,0,3.999-1.789,3.999-3.999v-15.996C139.966,209.744,138.179,207.955,135.968,207.955z"/>
	</g>
</g>
<g>
	<g>
		<path d="M104.945,152.09c-11.974-2.996-12.966-11.224-12.966-20.116c0-2.211-1.788-3.999-3.998-3.999
			c-2.211,0-3.999,1.788-3.999,3.999c0,6.916,0,23.12,19.026,27.872c0.321,0.082,0.648,0.121,0.968,0.121
			c1.797,0,3.422-1.211,3.874-3.031C108.388,154.797,107.086,152.625,104.945,152.09z"/>
	</g>
</g>
<g>
	<g>
		<path d="M104.945,120.098c-11.974-2.995-12.966-11.223-12.966-20.116c0-2.21-1.788-3.999-3.998-3.999
			c-2.211,0-3.999,1.789-3.999,3.999c0,6.916,0,23.119,19.026,27.872c0.321,0.082,0.648,0.121,0.968,0.121
			c1.797,0,3.422-1.211,3.874-3.031C108.388,122.804,107.086,120.633,104.945,120.098z"/>
	</g>
</g>
<g>
	<g>
		<path d="M87.981,95.983c-2.211,0-3.999,1.789-3.999,3.999v31.992c0,2.21,1.788,3.999,3.999,3.999c2.21,0,3.998-1.789,3.998-3.999
			V99.982C91.979,97.772,90.19,95.983,87.981,95.983z"/>
	</g>
</g>
<g>
	<g>
		<path d="M104.945,184.081c-11.974-2.995-12.966-11.224-12.966-20.116c0-2.21-1.788-3.999-3.998-3.999
			c-2.211,0-3.999,1.789-3.999,3.999c0,6.917,0,23.12,19.026,27.872c0.321,0.082,0.648,0.121,0.968,0.121
			c1.797,0,3.422-1.21,3.874-3.03C108.388,186.788,107.086,184.616,104.945,184.081z"/>
	</g>
</g>
<g>
	<g>
		<path d="M87.981,143.971c-2.211,0-3.999,1.788-3.999,3.999v15.996c0,2.21,1.788,3.999,3.999,3.999c2.21,0,3.998-1.789,3.998-3.999
			V147.97C91.979,145.759,90.19,143.971,87.981,143.971z"/>
	</g>
</g>
<g>
	<g>
		<path d="M104.945,216.074c-11.974-2.995-12.966-11.223-12.966-20.116c0-2.21-1.788-3.999-3.998-3.999
			c-2.211,0-3.999,1.789-3.999,3.999c0,6.916,0,23.119,19.026,27.872c0.321,0.082,0.648,0.121,0.968,0.121
			c1.797,0,3.422-1.211,3.874-3.03C108.388,218.78,107.086,216.609,104.945,216.074z"/>
	</g>
</g>
<g>
	<g>
		<path d="M87.981,175.963c-2.211,0-3.999,1.789-3.999,3.999v15.996c0,2.211,1.788,3.999,3.999,3.999
			c2.21,0,3.998-1.789,3.998-3.999v-15.996C91.979,177.752,90.19,175.963,87.981,175.963z"/>
	</g>
</g>
<g>
	<g>
		<path d="M104.945,248.066c-11.974-2.995-12.966-11.223-12.966-20.116c0-2.21-1.788-3.999-3.998-3.999
			c-2.211,0-3.999,1.789-3.999,3.999c0,6.916,0,23.119,19.026,27.872c0.321,0.082,0.648,0.121,0.968,0.121
			c1.797,0,3.422-1.211,3.874-3.031C108.388,250.772,107.086,248.601,104.945,248.066z"/>
	</g>
</g>
<g>
	<g>
		<path d="M87.981,207.955c-2.211,0-3.999,1.789-3.999,3.999v15.996c0,2.21,1.788,3.999,3.999,3.999c2.21,0,3.998-1.789,3.998-3.999
			v-15.996C91.979,209.744,90.19,207.955,87.981,207.955z"/>
	</g>
</g>
<g>
	<g>
		<path d="M127.969,268.435c-2.21,0-3.999,1.781-3.999,4v235.44c0,2.219,1.789,4,3.999,4c2.211,0,3.999-1.782,3.999-4.001V272.435
			C131.969,270.216,130.18,268.435,127.969,268.435z"/>
	</g>
</g>
<g>
</g>
<g>
</g>
<g>
</g>
<g>
</g>
<g>
</g>
<g>
</g>
<g>
</g>
<g>
</g>
<g>
</g>
<g>
</g>
<g>
</g>
<g>
</g>
<g>
</g>
<g>
</g>
<g>
</g>
</svg>
