<?xml version="1.0" encoding="iso-8859-1"?>
<!-- Generator: Adobe Illustrator 19.0.0, SVG Export Plug-In . SVG Version: 6.00 Build 0)  -->
<svg version="1.1" id="Capa_1" xmlns="http://www.w3.org/2000/svg" xmlns:xlink="http://www.w3.org/1999/xlink" x="0px" y="0px"
	 viewBox="0 0 511.87 511.87" style="enable-background:new 0 0 511.87 511.87;" xml:space="preserve">
<g>
	<g>
		<path d="M335.424,67.351c-0.913-2.015-3.28-2.882-5.295-1.984c-89.462,40.67-82.378,154.742-82.3,155.883
			c0.156,2.109,1.905,3.718,3.983,3.718c0.102,0,0.195,0,0.29-0.009c2.211-0.156,3.866-2.07,3.71-4.272
			c-0.078-1.094-6.826-109.645,77.629-148.041C335.447,71.732,336.338,69.366,335.424,67.351z"/>
	</g>
</g>
<g>
	<g>
		<path d="M394.362,27.065c-2.796-2.796-7.975-4.101-16.293-4.101c-25.087,0-75.114,12.583-91.891,25.455
			c-10.474,8.021-17.198,19.643-18.925,32.718c-1.734,13.074,1.735,26.04,9.764,36.506c9.419,12.294,23.719,19.347,39.231,19.347
			c10.927,0,21.3-3.522,29.994-10.185c18.542-14.207,49.402-68.951,50.799-90.11C397.33,32.306,396.455,29.158,394.362,27.065z
			 M388.95,37.344c-2.436,20.182-31.335,70.67-47.565,83.12c-7.287,5.576-15.981,8.529-25.135,8.529
			c-13.004,0-24.994-5.905-32.89-16.207c-6.725-8.78-9.631-19.644-8.178-30.602c1.453-10.959,7.084-20.698,15.863-27.423
			c15.394-11.802,63.609-23.799,87.024-23.799c8.779,0,10.568,1.687,10.623,1.743C388.7,32.713,389.388,33.689,388.95,37.344z"/>
	</g>
</g>
<g>
	<g>
		<path d="M218.524,86.753c-6.936-2.96-20.48-4.725-36.226-4.725c-16.855,0-37.451,1.788-39.834,10.278
			c-3.39,12.162,33.656,51.347,48.91,57.892c4.327,1.851,8.888,2.788,13.559,2.788c13.84,0,26.298-8.217,31.742-20.94
			C244.15,114.566,236.011,94.243,218.524,86.753z M229.318,128.907c-4.179,9.771-13.755,16.082-24.385,16.082
			c-3.585,0-7.092-0.719-10.411-2.148c-15.473-6.631-45.02-42.005-44.513-48.027c1.555-1.93,12.895-4.788,32.289-4.788
			c14.285,0,27.275,1.608,33.078,4.085C228.81,99.86,235.066,115.473,229.318,128.907z"/>
	</g>
</g>
<g>
	<g>
		<path d="M197.263,105.897c-1.96-0.96-4.374-0.18-5.358,1.812c-0.976,1.976-0.172,4.374,1.812,5.358
			c22.033,10.911,45.746,36.826,45.746,67.912c0,2.21,1.789,3.999,3.999,3.999c2.211,0,3.999-1.789,3.999-3.998
			C247.461,146.48,221.445,117.878,197.263,105.897z"/>
	</g>
</g>
<g>
	<g>
		<path d="M188.195,320.963h-0.086c-2.202,0-3.952,1.78-3.952,3.999c0,2.202,1.828,3.999,4.038,3.999
			c2.203,0,3.999-1.797,3.999-3.999C192.194,322.743,190.398,320.963,188.195,320.963z"/>
	</g>
</g>
<g>
	<g>
		<path d="M220.187,288.971h-0.086c-2.202,0-3.952,1.781-3.952,3.999c0,2.203,1.828,3.999,4.038,3.999
			c2.203,0,3.999-1.796,3.999-3.999C224.186,290.752,222.39,288.971,220.187,288.971z"/>
	</g>
</g>
<g>
	<g>
		<path d="M236.183,272.975h-0.086c-2.202,0-3.952,1.781-3.952,3.999c0,2.203,1.828,3.999,4.038,3.999
			c2.203,0,3.999-1.796,3.999-3.999C240.182,274.756,238.386,272.975,236.183,272.975z"/>
	</g>
</g>
<g>
	<g>
		<path d="M252.179,288.971h-0.086c-2.203,0-3.952,1.781-3.952,3.999c0,2.203,1.827,3.999,4.038,3.999
			c2.202,0,3.999-1.796,3.999-3.999C256.178,290.752,254.381,288.971,252.179,288.971z"/>
	</g>
</g>
<g>
	<g>
		<path d="M252.179,256.976h-0.086c-2.203,0-3.952,1.788-3.952,3.998c0,2.211,1.827,4.003,4.038,4.003
			c2.202,0,3.999-1.792,3.999-4.003C256.178,258.764,254.381,256.976,252.179,256.976z"/>
	</g>
</g>
<g>
	<g>
		<path d="M268.175,272.975h-0.086c-2.203,0-3.952,1.781-3.952,3.999c0,2.203,1.827,3.999,4.038,3.999
			c2.202,0,3.999-1.796,3.999-3.999C272.174,274.756,270.377,272.975,268.175,272.975z"/>
	</g>
</g>
<g>
	<g>
		<path d="M284.171,288.971h-0.086c-2.203,0-3.952,1.781-3.952,3.999c0,2.203,1.827,3.999,4.038,3.999
			c2.202,0,3.998-1.796,3.998-3.999C288.169,290.752,286.373,288.971,284.171,288.971z"/>
	</g>
</g>
<g>
	<g>
		<path d="M204.191,304.967h-0.086c-2.202,0-3.952,1.78-3.952,3.999c0,2.203,1.828,3.999,4.038,3.999
			c2.203,0,3.999-1.796,3.999-3.999C208.19,306.747,206.394,304.967,204.191,304.967z"/>
	</g>
</g>
<g>
	<g>
		<path d="M220.187,320.963h-0.086c-2.202,0-3.952,1.78-3.952,3.999c0,2.202,1.828,3.999,4.038,3.999
			c2.203,0,3.999-1.797,3.999-3.999C224.186,322.743,222.39,320.963,220.187,320.963z"/>
	</g>
</g>
<g>
	<g>
		<path d="M236.183,304.967h-0.086c-2.202,0-3.952,1.78-3.952,3.999c0,2.203,1.828,3.999,4.038,3.999
			c2.203,0,3.999-1.796,3.999-3.999C240.182,306.747,238.386,304.967,236.183,304.967z"/>
	</g>
</g>
<g>
	<g>
		<path d="M252.179,320.963h-0.086c-2.203,0-3.952,1.78-3.952,3.999c0,2.202,1.827,3.999,4.038,3.999
			c2.202,0,3.999-1.797,3.999-3.999C256.178,322.743,254.381,320.963,252.179,320.963z"/>
	</g>
</g>
<g>
	<g>
		<path d="M268.175,304.967h-0.086c-2.203,0-3.952,1.78-3.952,3.999c0,2.203,1.827,3.999,4.038,3.999
			c2.202,0,3.999-1.796,3.999-3.999C272.174,306.747,270.377,304.967,268.175,304.967z"/>
	</g>
</g>
<g>
	<g>
		<path d="M284.171,320.963h-0.086c-2.203,0-3.952,1.78-3.952,3.999c0,2.202,1.827,3.999,4.038,3.999
			c2.202,0,3.998-1.797,3.998-3.999C288.169,322.743,286.373,320.963,284.171,320.963z"/>
	</g>
</g>
<g>
	<g>
		<path d="M300.167,304.967h-0.086c-2.203,0-3.953,1.78-3.953,3.999c0,2.203,1.828,3.999,4.039,3.999
			c2.203,0,3.998-1.796,3.998-3.999C304.165,306.747,302.369,304.967,300.167,304.967z"/>
	</g>
</g>
<g>
	<g>
		<path d="M316.164,320.963h-0.086c-2.203,0-3.953,1.78-3.953,3.999c0,2.202,1.828,3.999,4.039,3.999
			c2.202,0,3.998-1.797,3.998-3.999C320.162,322.743,318.366,320.963,316.164,320.963z"/>
	</g>
</g>
<g>
	<g>
		<path d="M300.167,336.959h-0.086c-2.203,0-3.953,1.78-3.953,3.999c0,2.202,1.828,3.999,4.039,3.999
			c2.203,0,3.998-1.796,3.998-3.999C304.165,338.739,302.369,336.959,300.167,336.959z"/>
	</g>
</g>
<g>
	<g>
		<path d="M268.175,336.959h-0.086c-2.203,0-3.952,1.78-3.952,3.999c0,2.202,1.827,3.999,4.038,3.999
			c2.202,0,3.999-1.796,3.999-3.999C272.174,338.739,270.377,336.959,268.175,336.959z"/>
	</g>
</g>
<g>
	<g>
		<path d="M236.183,336.959h-0.086c-2.202,0-3.952,1.78-3.952,3.999c0,2.202,1.828,3.999,4.038,3.999
			c2.203,0,3.999-1.796,3.999-3.999C240.182,338.739,238.386,336.959,236.183,336.959z"/>
	</g>
</g>
<g>
	<g>
		<path d="M204.191,336.959h-0.086c-2.202,0-3.952,1.78-3.952,3.999c0,2.202,1.828,3.999,4.038,3.999
			c2.203,0,3.999-1.796,3.999-3.999C208.19,338.739,206.394,336.959,204.191,336.959z"/>
	</g>
</g>
<g>
	<g>
		<path d="M172.198,336.959h-0.085c-2.203,0-3.952,1.78-3.952,3.999c0,2.202,1.828,3.999,4.038,3.999
			c2.203,0,3.999-1.796,3.998-3.999C176.197,338.739,174.401,336.959,172.198,336.959z"/>
	</g>
</g>
<g>
	<g>
		<path d="M332.159,336.959h-0.086c-2.202,0-3.952,1.78-3.952,3.999c0,2.202,1.828,3.999,4.038,3.999
			c2.203,0,3.999-1.796,3.999-3.999C336.158,338.739,334.362,336.959,332.159,336.959z"/>
	</g>
</g>
<g>
	<g>
		<path d="M348.147,352.939h-0.086c-2.202,0-3.952,1.797-3.952,4c0,2.218,1.828,3.998,4.038,3.998c2.202,0,3.999-1.78,3.999-3.998
			C352.146,354.736,350.349,352.939,348.147,352.939z"/>
	</g>
</g>
<g>
	<g>
		<path d="M316.164,352.939h-0.086c-2.203,0-3.953,1.797-3.953,4c0,2.218,1.828,3.998,4.039,3.998c2.202,0,3.998-1.78,3.998-3.998
			C320.162,354.736,318.366,352.939,316.164,352.939z"/>
	</g>
</g>
<g>
	<g>
		<path d="M510.152,376.871c-3.507-4.358-27.602-16.761-190.866,5.577c-2.194,0.297-3.725,2.311-3.42,4.499
			c0.297,2.187,2.351,3.702,4.498,3.421c83.574-11.435,177.518-17.917,183.478-8.686c-4.725,13.013-50.659,36.96-117.025,61.001
			c-60.172,21.791-122,38.225-143.823,38.225c-113.603,0-234.995-17.778-234.995-67.64c0-2.202-1.789-3.999-3.999-3.999
			s-3.999,1.797-3.999,3.999c0,68.264,169.933,75.638,242.993,75.638c46.675,0,255.138-68.046,268.361-104.49
			C512.332,381.714,511.91,379.043,510.152,376.871z"/>
	</g>
</g>
<g>
	<g>
		<path d="M299.744,371.84c-24.048-22.12-107.738-16.012-115.338-15.434c-9.31-1.187-125.718-15.246-168.551,22.307
			C5.335,387.93,0,399.551,0,413.267c0,2.218,1.789,3.999,3.999,3.999c2.21,0,3.999-1.781,3.999-3.999
			c0-11.466,4.296-20.808,13.122-28.54c40.965-35.912,161.451-20.494,162.669-20.322c0.282,0.032,0.563,0.032,0.852,0.016
			c24.291-2.031,91.352-3.562,109.691,13.309c2.757,2.546,4.195,5.327,4.39,8.482c-7.795,7.577-84.869,23.057-115.471,23.057H123.5
			c-2.21,0-3.999,1.797-3.999,3.999c0,2.218,1.789,3.999,3.999,3.999h59.751c22.073,0,123.493-14.73,123.491-30.306
			C306.742,381.212,304.39,376.119,299.744,371.84z"/>
	</g>
</g>
<g>
	<g>
		<path d="M254.467,234.138c-1.561-1.562-4.092-1.562-5.654,0L144.98,337.959c-1.562,1.562-1.562,4.093,0,5.655
			c0.781,0.781,1.804,1.172,2.827,1.172c1.024,0,2.046-0.391,2.827-1.172l103.833-103.821
			C256.029,238.231,256.029,235.7,254.467,234.138z"/>
	</g>
</g>
<g>
	<g>
		<path d="M373.914,353.595L254.467,234.137c-1.561-1.562-4.092-1.562-5.654,0c-1.562,1.562-1.562,4.093,0,5.655L368.259,359.25
			c0.781,0.781,1.805,1.172,2.827,1.172c1.024,0,2.047-0.39,2.828-1.172C375.476,357.689,375.476,355.157,373.914,353.595z"/>
	</g>
</g>
<g>
</g>
<g>
</g>
<g>
</g>
<g>
</g>
<g>
</g>
<g>
</g>
<g>
</g>
<g>
</g>
<g>
</g>
<g>
</g>
<g>
</g>
<g>
</g>
<g>
</g>
<g>
</g>
<g>
</g>
</svg>
