<?xml version="1.0" encoding="iso-8859-1"?>
<!-- Generator: Adobe Illustrator 19.0.0, SVG Export Plug-In . SVG Version: 6.00 Build 0)  -->
<svg version="1.1" id="Capa_1" xmlns="http://www.w3.org/2000/svg" xmlns:xlink="http://www.w3.org/1999/xlink" x="0px" y="0px"
	 viewBox="0 0 511.968 511.968" style="enable-background:new 0 0 511.968 511.968;" xml:space="preserve">
<g>
	<g>
		<path d="M212.042,180.003c-2.21,0-3.999,1.789-3.999,3.999v139.964c0,2.211,1.789,4,3.999,4c2.211,0,3.999-1.789,3.999-4V184.002
			C216.041,181.792,214.253,180.003,212.042,180.003z"/>
	</g>
</g>
<g>
	<g>
		<path d="M419.989,180.003c-2.21,0-3.998,1.789-3.998,3.999v231.941c0,2.211,1.788,4,3.998,4c2.211,0,4-1.789,4-4V184.002
			C423.989,181.792,422.2,180.003,419.989,180.003z"/>
	</g>
</g>
<g>
	<g>
		<path d="M340.189,160.556c-2.413-0.187-4.077,1.609-4.171,3.812c-0.101,2.202,1.602,4.076,3.812,4.17
			c52.12,2.367,75.653,11.388,76.161,15.457c-0.648,5.108-32.844,15.082-92.086,15.941c-2.211,0.032-3.976,1.852-3.945,4.054
			c0.031,2.194,1.82,3.944,4,3.944c0.014,0,0.038,0,0.053,0.001c10.241-0.149,99.976-2.085,99.976-23.932
			C423.989,165.765,359.848,161.446,340.189,160.556z"/>
	</g>
</g>
<g>
	<g>
		<path d="M348.883,168.109c-2.124-0.5-4.295,0.875-4.772,3.023c-0.493,2.147,0.867,4.288,3.023,4.772
			c18.604,4.193,20.752,7.958,20.885,7.958c-0.117,0.25-2.203,4.014-20.877,8.24c-2.157,0.484-3.508,2.624-3.016,4.78
			c0.414,1.859,2.07,3.116,3.897,3.116c0.289,0,0.586-0.031,0.883-0.1c18.738-4.234,27.095-9.139,27.095-15.895
			C376.001,177.232,367.636,172.326,348.883,168.109z"/>
	</g>
</g>
<g>
	<g>
		<path d="M308.079,199.937c-59.228-0.859-91.407-10.833-92.04-15.926c0.633-5.1,32.758-15.066,91.915-15.941
			c2.203-0.032,3.967-1.852,3.936-4.062c-0.031-2.187-1.819-3.937-3.998-3.937c-0.015,0-0.039,0-0.062,0
			c-10.209,0.148-99.788,2.117-99.788,23.931c0,21.847,89.697,23.784,99.929,23.932c0.016,0,0.039,0,0.055,0
			c2.179,0,3.967-1.75,3.996-3.943C312.054,201.789,310.289,199.968,308.079,199.937z"/>
	</g>
</g>
<g>
	<g>
		<path d="M419.989,411.945c-2.21,0-3.998,1.781-3.998,3.99c-0.68,5.438-36.585,16.004-99.975,16.004
			c-63.391,0-99.296-10.566-99.976-15.996c0-2.209-1.788-3.998-3.999-3.998c-2.21,0-3.999,1.789-3.999,3.998
			c0,18.98,70.631,23.994,107.974,23.994c37.342,0,107.973-5.014,107.973-23.994C423.989,413.734,422.2,411.945,419.989,411.945z"/>
	</g>
</g>
<g>
	<g>
		<path d="M479.927,201.889c-15.418-9.092-38.811,0.32-45.598,3.421c-2.015,0.913-2.897,3.288-1.984,5.295
			c0.922,2.023,3.288,2.89,5.296,1.984c12.169-5.554,28.617-9.482,38.217-3.812c8.037,4.749,12.114,16.598,12.114,35.21
			c0,41.388-34.397,84.175-54.9,105.997c-1.515,1.617-1.436,4.146,0.172,5.654c0.773,0.727,1.758,1.086,2.741,1.086
			c1.062,0,2.125-0.422,2.914-1.257c21.314-22.689,57.071-67.342,57.071-111.479C495.97,222.345,490.573,208.184,479.927,201.889z"
			/>
	</g>
</g>
<g>
	<g>
		<path d="M488.005,188.087c-17.3-10.185-38.6-5.693-53.416-0.164c-2.071,0.773-3.124,3.077-2.352,5.147
			c0.773,2.07,3.085,3.116,5.147,2.351c13.192-4.944,31.984-9.021,46.566-0.445c13.286,7.818,20.019,24.306,20.019,49.011
			c0,58.845-58.595,117.118-70.342,128.202c-1.608,1.515-1.679,4.044-0.164,5.646c0.781,0.836,1.843,1.258,2.905,1.258
			c0.984,0,1.969-0.359,2.744-1.094c17.096-16.121,72.856-73.441,72.856-134.012C511.968,216.244,503.907,197.437,488.005,188.087z"
			/>
	</g>
</g>
<g>
	<g>
		<path d="M308.018,88.027c-2.211,0-4,1.789-4,3.999v111.909c0,2.21,1.789,3.999,4,3.999c2.21,0,3.998-1.789,3.998-3.999V92.026
			C312.016,89.816,310.228,88.027,308.018,88.027z"/>
	</g>
</g>
<g>
	<g>
		<path d="M323.96,88.027c-2.211,0-4,1.789-4,3.999v111.909c0,2.21,1.789,3.999,4,3.999c2.21,0,3.998-1.789,3.998-3.999V92.026
			C327.958,89.816,326.17,88.027,323.96,88.027z"/>
	</g>
</g>
<g>
	<g>
		<path d="M339.955,72.03c-2.21,0-3.999,1.789-3.999,3.999v87.916c0,2.21,1.789,3.999,3.999,3.999c2.211,0,3.999-1.789,3.999-3.999
			V76.029C343.954,73.819,342.166,72.03,339.955,72.03z"/>
	</g>
</g>
<g>
	<g>
		<path d="M326.841,73.203c-1.562-1.562-4.093-1.562-5.655,0L305.19,89.199c-1.562,1.562-1.562,4.093,0,5.655
			c0.781,0.78,1.805,1.171,2.828,1.171s2.046-0.391,2.827-1.171l15.996-15.996C328.403,77.296,328.403,74.765,326.841,73.203z"/>
	</g>
</g>
<g>
	<g>
		<path d="M342.782,73.203c-1.561-1.562-4.092-1.562-5.654,0l-15.996,15.996c-1.562,1.562-1.562,4.093,0,5.655
			c0.781,0.78,1.805,1.171,2.828,1.171c1.022,0,2.045-0.391,2.827-1.171l15.995-15.996
			C344.344,77.296,344.344,74.765,342.782,73.203z"/>
	</g>
</g>
<g>
	<g>
		<path d="M339.954,72.03h-15.941c-2.21,0-3.999,1.789-3.999,3.999c0,2.211,1.789,3.999,3.999,3.999h15.942
			c2.211,0,3.999-1.788,3.998-3.999C343.953,73.819,342.165,72.03,339.954,72.03z"/>
	</g>
</g>
<g>
	<g>
		<path d="M76.709,149.175c-1.718-1.374-4.241-1.117-5.623,0.609L0.885,237.012c-1.383,1.719-1.11,4.242,0.609,5.624
			c0.742,0.594,1.624,0.883,2.507,0.883c1.164,0,2.327-0.508,3.116-1.493l70.201-87.227
			C78.701,153.08,78.428,150.558,76.709,149.175z"/>
	</g>
</g>
<g>
	<g>
		<path d="M214.682,352.953L67.875,224.203c-1.671-1.445-4.186-1.289-5.647,0.367c-1.453,1.664-1.289,4.187,0.367,5.647
			l146.807,128.75c0.766,0.664,1.703,0.992,2.64,0.992c1.109,0,2.218-0.461,3.007-1.36
			C216.501,356.935,216.337,354.412,214.682,352.953z"/>
	</g>
</g>
<g>
	<g>
		<path d="M214.448,312.752L77.654,211.527c-1.773-1.289-4.272-0.929-5.6,0.836c-1.312,1.781-0.937,4.28,0.835,5.6l136.794,101.224
			c0.719,0.523,1.554,0.781,2.382,0.781c1.219,0,2.43-0.562,3.218-1.616C216.595,316.57,216.22,314.072,214.448,312.752z"/>
	</g>
</g>
<g>
	<g>
		<path d="M69.156,226.421c-0.437-2.171-2.577-3.577-4.709-3.132l-61.235,12.31c-2.163,0.438-3.57,2.546-3.132,4.71
			c0.383,1.898,2.054,3.21,3.913,3.21c0.265,0,0.531-0.024,0.797-0.078l61.234-12.31C68.188,230.693,69.594,228.585,69.156,226.421z
			"/>
	</g>
</g>
<g>
	<g>
		<path d="M78.201,152.221c-0.039-2.211-2.14-3.702-4.069-3.929c-2.203,0.039-3.968,1.859-3.929,4.069l1.07,62.453
			c0.039,2.188,1.819,3.929,3.999,3.929c0.023,0,0.047,0,0.07,0c2.202-0.039,3.968-1.859,3.929-4.069L78.201,152.221z"/>
	</g>
</g>
<g>
	<g>
		<path d="M212.042,343.963c-2.21,0-3.999,1.787-3.999,3.998v67.982c0,2.211,1.789,4,3.999,4c2.211,0,3.999-1.789,3.999-4v-67.982
			C216.041,345.75,214.253,343.963,212.042,343.963z"/>
	</g>
</g>
<g>
	<g>
		<path d="M316.016,295.584c-11.029,0-19.996,8.967-19.996,19.994c0,11.029,8.967,19.996,19.996,19.996
			c11.028,0,19.994-8.967,19.994-19.996C336.01,304.551,327.043,295.584,316.016,295.584z M316.016,327.576
			c-6.616,0-11.998-5.383-11.998-11.998s5.382-11.996,11.998-11.996c6.615,0,11.996,5.381,11.996,11.996
			S322.631,327.576,316.016,327.576z"/>
	</g>
</g>
<g>
	<g>
		<path d="M316.016,247.885c-11.029,0-19.996,8.967-19.996,19.996c0,6.818,4.422,18.885,8.514,26.156
			c0.734,1.305,2.093,2.039,3.484,2.039c0.671,0,1.343-0.164,1.96-0.517c1.928-1.086,2.608-3.523,1.522-5.443
			c-3.982-7.084-7.482-17.472-7.482-22.236c0-6.618,5.382-11.998,11.998-11.998c6.615,0,11.996,5.381,11.996,11.998
			c0,4.537-3.507,14.84-7.498,22.057c-1.071,1.928-0.368,4.366,1.562,5.436c1.945,1.055,4.359,0.376,5.436-1.562
			c4.18-7.545,8.498-19.307,8.498-25.93C336.01,256.851,327.043,247.885,316.016,247.885z"/>
	</g>
</g>
<g>
	<g>
		<path d="M327.497,337.9c-1.092-1.935-3.56-2.607-5.443-1.521c-1.929,1.086-2.609,3.521-1.523,5.443
			c3.983,7.084,7.482,17.472,7.482,22.236c0,6.615-5.381,11.998-11.996,11.998c-6.616,0-11.998-5.383-11.998-11.998
			c0-4.537,3.508-14.84,7.498-22.057c1.07-1.93,0.367-4.368-1.562-5.436c-1.937-1.054-4.359-0.375-5.437,1.561
			c-4.178,7.545-8.498,19.309-8.498,25.932c0,11.029,8.967,19.994,19.996,19.994c11.028,0,19.994-8.964,19.995-19.994
			C336.011,357.24,331.591,345.173,327.497,337.9z"/>
	</g>
</g>
<g>
	<g>
		<path d="M302.582,294.936c-4.444-7.388-12.474-17.011-18.214-20.322c-4.632-2.68-10.022-3.383-15.168-2
			c-5.163,1.382-9.475,4.693-12.138,9.318c-5.514,9.543-2.234,21.799,7.311,27.32c5.912,3.406,18.573,5.607,26.915,5.701
			c0.016,0,0.031,0,0.047,0c2.186,0,3.975-1.764,4-3.949c0.024-2.211-1.75-4.024-3.952-4.047c-7.99-0.086-18.956-2.295-23.01-4.631
			c-5.726-3.313-7.694-10.67-4.382-16.395c1.6-2.78,4.186-4.764,7.279-5.592c3.07-0.836,6.319-0.399,9.1,1.195
			c3.928,2.271,11.106,10.457,15.355,17.525c1.139,1.898,3.608,2.492,5.49,1.367C303.105,299.286,303.714,296.827,302.582,294.936z"
			/>
	</g>
</g>
<g>
	<g>
		<path d="M376.983,334.847c-1.39-5.162-4.694-9.482-9.326-12.154c-5.912-3.404-18.565-5.607-26.899-5.701
			c-2.28-0.031-4.023,1.742-4.046,3.953c-0.024,2.209,1.75,4.022,3.952,4.045c7.982,0.086,18.94,2.297,22.994,4.641
			c2.781,1.599,4.765,4.185,5.593,7.287c0.828,3.092,0.406,6.319-1.203,9.09c-1.593,2.782-4.186,4.766-7.279,5.594
			c-3.092,0.844-6.334,0.399-9.107-1.195c-3.929-2.274-11.107-10.459-15.348-17.52c-1.14-1.898-3.593-2.476-5.49-1.367
			c-1.89,1.14-2.508,3.594-1.367,5.492c4.444,7.38,12.466,17.002,18.206,20.314c3.085,1.781,6.499,2.695,9.967,2.695
			c1.742,0,3.492-0.234,5.207-0.696c5.163-1.382,9.475-4.695,12.138-9.318C377.647,345.39,378.357,340.009,376.983,334.847z"/>
	</g>
</g>
<g>
	<g>
		<path d="M301.37,331.395c-1.897-1.117-4.35-0.492-5.482,1.406c-4.062,6.873-11.45,15.261-15.504,17.605
			c-2.789,1.593-6.014,2.007-9.107,1.195c-3.093-0.828-5.686-2.821-7.287-5.594c-1.601-2.772-2.03-6.006-1.203-9.098
			c0.828-3.101,2.812-5.687,5.585-7.279c3.936-2.273,14.621-4.391,22.861-4.539c2.21-0.039,3.968-1.867,3.929-4.068
			c-0.039-2.211-1.781-3.641-4.069-3.93c-8.623,0.156-20.972,2.296-26.72,5.607c-4.624,2.664-7.928,6.977-9.311,12.139
			c-1.382,5.162-0.664,10.543,2.008,15.168c2.663,4.623,6.975,7.935,12.138,9.318c1.726,0.461,3.476,0.688,5.209,0.688
			c3.467,0,6.888-0.906,9.965-2.687c5.905-3.406,14.145-13.269,18.394-20.447C303.9,334.973,303.268,332.52,301.37,331.395z"/>
	</g>
</g>
<g>
	<g>
		<path d="M374.987,281.939c-2.663-4.633-6.975-7.943-12.13-9.326c-5.154-1.375-10.559-0.672-15.199,2
			c-5.897,3.42-14.137,13.277-18.386,20.447c-1.125,1.898-0.492,4.357,1.406,5.482c1.897,1.11,4.349,0.492,5.482-1.406
			c4.062-6.866,11.45-15.254,15.504-17.604c2.781-1.601,6.038-2.039,9.115-1.195c3.092,0.828,5.677,2.813,7.279,5.592
			c1.601,2.774,2.023,5.999,1.195,9.1c-0.828,3.101-2.821,5.685-5.593,7.287c-3.937,2.273-14.613,4.388-22.838,4.529
			c-2.21,0.039-3.968,1.859-3.929,4.07c0.039,2.188,1.82,3.928,3.999,3.928c0.024,0,0.047,0,0.073,0.001
			c8.599-0.149,20.94-2.28,26.696-5.6c4.624-2.67,7.935-6.983,9.318-12.145C378.361,291.935,377.659,286.546,374.987,281.939z"/>
	</g>
</g>
<g>
</g>
<g>
</g>
<g>
</g>
<g>
</g>
<g>
</g>
<g>
</g>
<g>
</g>
<g>
</g>
<g>
</g>
<g>
</g>
<g>
</g>
<g>
</g>
<g>
</g>
<g>
</g>
<g>
</g>
</svg>
