<?xml version="1.0" encoding="iso-8859-1"?>
<!-- Generator: Adobe Illustrator 19.0.0, SVG Export Plug-In . SVG Version: 6.00 Build 0)  -->
<svg version="1.1" id="Capa_1" xmlns="http://www.w3.org/2000/svg" xmlns:xlink="http://www.w3.org/1999/xlink" x="0px" y="0px"
	 viewBox="0 0 511.841 511.841" style="enable-background:new 0 0 511.841 511.841;" xml:space="preserve">
<g>
	<g>
		<path d="M508.332,14.82c-1.562-1.562-4.093-1.562-5.655,0L129.42,388.082c-1.562,1.561-1.562,4.092,0,5.654
			c0.781,0.781,1.804,1.172,2.827,1.172c1.024,0,2.047-0.39,2.827-1.172L508.332,20.475
			C509.894,18.913,509.894,16.382,508.332,14.82z"/>
	</g>
</g>
<g>
	<g>
		<path d="M497.021,3.511c-1.561-1.562-4.092-1.562-5.654,0L118.111,376.772c-1.562,1.562-1.562,4.093,0,5.655
			c0.781,0.781,1.804,1.172,2.827,1.172s2.045-0.391,2.827-1.172L497.021,9.166C498.583,7.604,498.583,5.073,497.021,3.511z"/>
	</g>
</g>
<g>
	<g>
		<path d="M508.333,3.511c-4.694-4.687-12.302-4.671-16.965,0c-1.562,1.562-1.562,4.093,0,5.655c1.562,1.562,4.092,1.562,5.654,0
			s4.093-1.562,5.655,0s1.562,4.093,0,5.655c-1.562,1.563-1.562,4.093,0,5.655c0.781,0.781,1.805,1.171,2.827,1.171
			c1.023,0,2.047-0.391,2.829-1.172C513.011,15.797,513.011,8.19,508.333,3.511z"/>
	</g>
</g>
<g>
	<g>
		<path d="M190.139,502.678L9.169,321.708c-1.562-1.562-4.093-1.562-5.655,0c-1.562,1.561-1.562,4.092,0,5.654l180.971,180.97
			c0.78,0.781,1.804,1.172,2.827,1.172c1.023,0,2.046-0.391,2.827-1.172C191.701,506.771,191.701,504.24,190.139,502.678z"/>
	</g>
</g>
<g>
	<g>
		<path d="M26.134,293.426c-1.562-1.562-4.093-1.562-5.655,0L3.514,310.399c-1.562,1.561-1.562,4.092,0,5.654
			c0.781,0.781,1.805,1.172,2.828,1.172c1.022,0,2.046-0.391,2.827-1.172l16.965-16.973
			C27.696,297.519,27.696,294.988,26.134,293.426z"/>
	</g>
</g>
<g>
	<g>
		<path d="M218.413,485.713c-1.562-1.562-4.093-1.562-5.655,0l-16.964,16.965c-1.562,1.562-1.562,4.092,0,5.654
			c0.78,0.781,1.804,1.172,2.827,1.172c1.024,0,2.046-0.391,2.827-1.172l16.965-16.964
			C219.975,489.806,219.975,487.275,218.413,485.713z"/>
	</g>
</g>
<g>
	<g>
		<path d="M37.444,304.743c-1.562-1.562-4.093-1.562-5.655,0l-14.137,14.138c-1.562,1.561-1.562,4.092,0,5.654
			c0.781,0.781,1.804,1.172,2.827,1.172s2.045-0.39,2.827-1.172l14.138-14.137C39.006,308.836,39.006,306.305,37.444,304.743z"/>
	</g>
</g>
<g>
	<g>
		<path d="M48.753,316.053c-1.562-1.562-4.093-1.562-5.655,0L28.961,330.19c-1.562,1.562-1.562,4.093,0,5.655
			c0.781,0.781,1.804,1.172,2.827,1.172c1.024,0,2.047-0.391,2.827-1.172l14.138-14.137
			C50.315,320.146,50.315,317.615,48.753,316.053z"/>
	</g>
</g>
<g>
	<g>
		<path d="M60.063,327.362c-1.562-1.562-4.093-1.562-5.655,0L40.271,341.5c-1.562,1.561-1.562,4.092,0,5.654
			c0.781,0.781,1.804,1.172,2.827,1.172c1.023,0,2.047-0.39,2.827-1.172l14.138-14.137
			C61.625,331.455,61.625,328.924,60.063,327.362z"/>
	</g>
</g>
<g>
	<g>
		<path d="M71.372,338.672c-1.562-1.562-4.093-1.562-5.655,0L51.58,352.81c-1.562,1.561-1.562,4.092,0,5.654
			c0.781,0.781,1.804,1.172,2.827,1.172c1.024,0,2.047-0.391,2.827-1.172l14.138-14.137
			C72.934,342.765,72.934,340.234,71.372,338.672z"/>
	</g>
</g>
<g>
	<g>
		<path d="M82.682,349.982c-1.562-1.562-4.093-1.562-5.655,0L62.89,364.119c-1.562,1.561-1.562,4.092,0,5.654
			c0.781,0.781,1.805,1.172,2.827,1.172c1.023,0,2.047-0.39,2.828-1.172l14.137-14.137
			C84.244,354.074,84.244,351.544,82.682,349.982z"/>
	</g>
</g>
<g>
	<g>
		<path d="M93.991,361.291c-1.562-1.562-4.093-1.562-5.655,0l-14.137,14.138c-1.562,1.561-1.562,4.092,0,5.654
			c0.781,0.781,1.805,1.172,2.827,1.172c1.024,0,2.047-0.391,2.828-1.172l14.137-14.137
			C95.553,365.385,95.553,362.853,93.991,361.291z"/>
	</g>
</g>
<g>
	<g>
		<path d="M105.301,372.601c-1.562-1.562-4.092-1.562-5.654,0l-14.138,14.145c-1.562,1.562-1.562,4.092,0,5.654
			c0.781,0.781,1.805,1.172,2.827,1.172c1.023,0,2.047-0.39,2.828-1.172l14.137-14.145
			C106.863,376.693,106.863,374.163,105.301,372.601z"/>
	</g>
</g>
<g>
	<g>
		<path d="M116.611,383.918c-1.561-1.562-4.092-1.562-5.654,0l-14.138,14.138c-1.562,1.561-1.562,4.093,0,5.655
			c0.781,0.78,1.805,1.171,2.828,1.171c1.022,0,2.045-0.391,2.827-1.171l14.137-14.138
			C118.173,388.012,118.173,385.48,116.611,383.918z"/>
	</g>
</g>
<g>
	<g>
		<path d="M127.928,395.229c-1.561-1.562-4.092-1.562-5.654,0l-14.146,14.137c-1.562,1.562-1.562,4.092,0,5.654
			c0.781,0.781,1.805,1.172,2.828,1.172s2.046-0.391,2.827-1.172l14.145-14.137C129.49,399.321,129.49,396.791,127.928,395.229z"/>
	</g>
</g>
<g>
	<g>
		<path d="M139.238,406.538c-1.561-1.562-4.092-1.562-5.654,0l-14.138,14.137c-1.562,1.562-1.562,4.093,0,5.655
			c0.781,0.781,1.805,1.171,2.828,1.171c1.022,0,2.045-0.39,2.827-1.171l14.137-14.138C140.8,410.631,140.8,408.1,139.238,406.538z"
			/>
	</g>
</g>
<g>
	<g>
		<path d="M150.555,417.848c-1.561-1.562-4.092-1.562-5.654,0l-14.146,14.137c-1.562,1.562-1.562,4.093,0,5.655
			c0.781,0.78,1.805,1.171,2.828,1.171s2.046-0.391,2.827-1.171l14.145-14.138C152.117,421.941,152.117,419.41,150.555,417.848z"/>
	</g>
</g>
<g>
	<g>
		<path d="M161.865,429.157c-1.561-1.562-4.092-1.562-5.654,0l-14.145,14.137c-1.562,1.562-1.562,4.093,0,5.655
			c0.78,0.781,1.804,1.172,2.827,1.172s2.046-0.39,2.827-1.172l14.145-14.137C163.427,433.25,163.427,430.719,161.865,429.157z"/>
	</g>
</g>
<g>
	<g>
		<path d="M173.174,440.467c-1.561-1.562-4.092-1.562-5.654,0l-14.137,14.145c-1.562,1.562-1.562,4.093,0,5.655
			c0.78,0.781,1.804,1.171,2.827,1.171c1.023,0,2.046-0.39,2.827-1.171l14.137-14.146
			C174.736,444.56,174.736,442.029,173.174,440.467z"/>
	</g>
</g>
<g>
	<g>
		<path d="M184.485,451.784c-1.562-1.562-4.093-1.562-5.655,0l-14.137,14.138c-1.562,1.561-1.562,4.092,0,5.654
			c0.78,0.781,1.804,1.172,2.827,1.172c1.023,0,2.046-0.39,2.827-1.172l14.138-14.137
			C186.047,455.877,186.047,453.346,184.485,451.784z"/>
	</g>
</g>
<g>
	<g>
		<path d="M195.794,463.094c-1.562-1.562-4.093-1.562-5.655,0l-14.137,14.137c-1.562,1.562-1.562,4.093,0,5.655
			c0.781,0.781,1.804,1.172,2.827,1.172c1.024,0,2.046-0.391,2.827-1.172l14.138-14.137
			C197.356,467.187,197.356,464.656,195.794,463.094z"/>
	</g>
</g>
<g>
	<g>
		<path d="M207.104,474.403c-1.562-1.562-4.093-1.562-5.655,0l-14.137,14.138c-1.562,1.561-1.562,4.092,0,5.654
			c0.781,0.781,1.804,1.172,2.827,1.172s2.047-0.39,2.827-1.172l14.138-14.137C208.666,478.496,208.666,475.965,207.104,474.403z"/>
	</g>
</g>
<g>
	<g>
		<path d="M156.21,366.947l-11.317-11.31c-1.562-1.562-4.093-1.562-5.655,0c-1.562,1.562-1.562,4.092,0,5.654l11.317,11.311
			c0.781,0.78,1.805,1.171,2.828,1.171c1.022,0,2.046-0.391,2.827-1.171C157.772,371.04,157.772,368.509,156.21,366.947z"/>
	</g>
</g>
<g>
	<g>
		<path d="M7.997,318.881c0-1.062,0.414-2.07,1.172-2.828c1.563-1.554,1.563-4.085,0.008-5.654c-1.562-1.555-4.093-1.57-5.655,0
			C1.25,312.663,0,315.678,0,318.881c0,3.201,1.25,6.216,3.522,8.481c0.781,0.781,1.797,1.172,2.82,1.172
			c1.022,0,2.054-0.39,2.835-1.172c1.554-1.569,1.554-4.1-0.008-5.654C8.411,320.95,7.997,319.943,7.997,318.881z"/>
	</g>
</g>
<g>
	<g>
		<path d="M201.448,502.678c-1.561-1.562-4.092-1.562-5.654,0s-4.093,1.562-5.655,0c-1.561-1.562-4.092-1.562-5.654,0
			c-1.562,1.562-1.562,4.092,0,5.654c2.342,2.336,5.412,3.508,8.481,3.508c3.078,0,6.147-1.172,8.482-3.508
			C203.01,506.771,203.01,504.24,201.448,502.678z"/>
	</g>
</g>
<g>
</g>
<g>
</g>
<g>
</g>
<g>
</g>
<g>
</g>
<g>
</g>
<g>
</g>
<g>
</g>
<g>
</g>
<g>
</g>
<g>
</g>
<g>
</g>
<g>
</g>
<g>
</g>
<g>
</g>
</svg>
