<?xml version="1.0" encoding="iso-8859-1"?>
<!-- Generator: Adobe Illustrator 19.0.0, SVG Export Plug-In . SVG Version: 6.00 Build 0)  -->
<svg version="1.1" id="Capa_1" xmlns="http://www.w3.org/2000/svg" xmlns:xlink="http://www.w3.org/1999/xlink" x="0px" y="0px"
	 viewBox="0 0 511.868 511.868" style="enable-background:new 0 0 511.868 511.868;" xml:space="preserve">
<g>
	<g>
		<path d="M95.324,320.4c-1.562-1.562-4.093-1.562-5.655,0l-45.113,45.129c-1.562,1.562-1.562,4.093,0,5.655
			c0.781,0.781,1.804,1.172,2.827,1.172s2.046-0.391,2.827-1.172l45.114-45.129C96.886,324.493,96.886,321.962,95.324,320.4z"/>
	</g>
</g>
<g>
	<g>
		<path d="M123.598,348.674L95.324,320.4c-1.562-1.562-4.093-1.562-5.655,0c-1.562,1.562-1.562,4.093,0,5.655l28.274,28.273
			c0.781,0.781,1.804,1.172,2.827,1.172c1.024,0,2.047-0.39,2.828-1.172C125.16,352.767,125.16,350.236,123.598,348.674z"/>
	</g>
</g>
<g>
	<g>
		<path d="M146.342,461.662c-1.561-1.562-4.092-1.562-5.654,0c-67.632,67.639-116.51,35.007-121.685,31.195
			c-3.8-5.17-36.443-54.033,31.207-121.672c1.562-1.562,1.562-4.093,0-5.655c-1.562-1.562-4.092-1.562-5.654,0
			C5.457,404.614-1.171,438.418,0.153,459.897c1.46,23.619,12.391,37.709,12.856,38.303c0.195,0.25,0.418,0.468,0.664,0.656
			c0.586,0.468,14.684,11.403,38.299,12.856c1.605,0.094,3.28,0.156,5.022,0.156c21.537,0,53.182-8.373,89.348-44.551
			C147.904,465.756,147.904,463.224,146.342,461.662z"/>
	</g>
</g>
<g>
	<g>
		<path d="M193.815,301.092c-1.562-1.562-4.093-1.562-5.655,0l-47.582,47.582c-1.562,1.561-1.562,4.092,0,5.654
			c0.781,0.781,1.804,1.172,2.827,1.172c1.024,0,2.047-0.39,2.828-1.172l47.582-47.582
			C195.377,305.185,195.377,302.654,193.815,301.092z"/>
	</g>
</g>
<g>
	<g>
		<path d="M146.342,348.565c-1.561-1.562-4.092-1.562-5.654,0c-4.671,4.67-12.286,4.67-16.965,0c-1.562-1.562-4.097-1.562-5.659,0
			c-1.558,1.561-1.558,4.092,0.004,5.654c3.901,3.89,9.021,5.843,14.141,5.843c5.12,0,10.239-1.953,14.133-5.843
			C147.904,352.658,147.904,350.127,146.342,348.565z"/>
	</g>
</g>
<g>
	<g>
		<path d="M191.472,416.548c-1.562-1.562-4.093-1.562-5.655,0l-45.129,45.113c-1.562,1.562-1.562,4.093,0,5.655
			c0.781,0.781,1.804,1.172,2.827,1.172c1.023,0,2.046-0.391,2.827-1.172l45.13-45.113
			C193.034,420.641,193.034,418.11,191.472,416.548z"/>
	</g>
</g>
<g>
	<g>
		<path d="M191.471,416.547l-28.282-28.289c-1.563-1.562-4.093-1.562-5.655,0c-1.562,1.561-1.562,4.092,0,5.654l28.282,28.29
			c0.781,0.78,1.805,1.171,2.827,1.171c1.024,0,2.047-0.39,2.828-1.171C193.033,420.64,193.033,418.109,191.471,416.547z"/>
	</g>
</g>
<g>
	<g>
		<path d="M61.519,376.838c-1.561-1.562-4.092-1.562-5.654,0C-2.683,435.37,19.253,478.312,24.244,486.326
			c0.757,1.219,2.061,1.891,3.397,1.891c0.723,0,1.454-0.203,2.109-0.609c1.875-1.172,2.449-3.64,1.281-5.515
			c-4.429-7.108-23.783-45.332,30.488-99.6C63.081,380.932,63.081,378.4,61.519,376.838z"/>
	</g>
</g>
<g>
	<g>
		<path d="M210.778,318.057c-1.562-1.562-4.093-1.562-5.655,0l-47.589,47.581c-1.562,1.562-1.562,4.093,0,5.655
			c0.781,0.781,1.805,1.172,2.828,1.172s2.046-0.39,2.826-1.172l47.59-47.582C212.34,322.149,212.34,319.619,210.778,318.057z"/>
	</g>
</g>
<g>
	<g>
		<path d="M159.792,379.665c0-3.203,1.253-6.217,3.522-8.482c1.562-1.562,1.562-4.093,0.004-5.655c-1.563-1.562-4.097-1.562-5.659,0
			c-3.781,3.765-5.862,8.795-5.866,14.138c0,5.326,2.081,10.357,5.858,14.137c0.781,0.781,1.805,1.172,2.828,1.172
			s2.046-0.391,2.828-1.174c1.562-1.562,1.562-4.092,0-5.654C161.042,385.882,159.792,382.867,159.792,379.665z"/>
	</g>
</g>
<g>
	<g>
		<path d="M137.86,385.32c-1.562-1.562-4.093-1.562-5.655,0l-45.367,45.363c-0.75,0.75-1.754,1.172-2.82,1.172
			c-1.07,0-2.074-0.422-2.832-1.172c-1.558-1.561-1.558-4.092,0-5.654l45.364-45.363c1.562-1.562,1.562-4.093,0-5.655
			c-1.562-1.562-4.093-1.562-5.655,0l-45.363,45.364c-4.679,4.67-4.679,12.277,0,16.964c2.265,2.265,5.279,3.515,8.486,3.515
			c0,0,0.004,0,0.008-0.001c3.202,0,6.213-1.25,8.47-3.515l45.364-45.363C139.422,389.413,139.422,386.882,137.86,385.32z"/>
	</g>
</g>
<g>
	<g>
		<path d="M210.78,318.057l-16.965-16.965c-1.562-1.562-4.093-1.562-5.655,0c-1.562,1.562-1.562,4.092,0,5.654l16.964,16.965
			c0.781,0.781,1.805,1.172,2.827,1.172c1.024,0,2.047-0.39,2.829-1.172C212.342,322.149,212.342,319.619,210.78,318.057z"/>
	</g>
</g>
<g>
	<g>
		<path d="M380.619,114.276c-1.562-1.562-4.093-1.562-5.655,0l-181.15,181.162c-1.562,1.561-1.562,4.092,0,5.654
			c0.781,0.781,1.804,1.172,2.827,1.172c1.024,0,2.047-0.391,2.828-1.172l181.15-181.161
			C382.181,118.369,382.181,115.838,380.619,114.276z"/>
	</g>
</g>
<g>
	<g>
		<path d="M397.591,131.249c-1.561-1.562-4.092-1.562-5.654,0L210.779,312.402c-1.562,1.562-1.562,4.093,0,5.655
			c0.781,0.781,1.804,1.171,2.827,1.171c1.024,0,2.047-0.39,2.827-1.171l181.158-181.153
			C399.153,135.342,399.153,132.811,397.591,131.249z"/>
	</g>
</g>
<g>
	<g>
		<path d="M403.246,125.593l-16.965-16.972c-1.561-1.562-4.092-1.562-5.654,0c-1.562,1.562-1.562,4.092,0,5.654l16.964,16.973
			c0.781,0.781,1.805,1.172,2.828,1.172s2.046-0.39,2.827-1.172C404.808,129.685,404.808,127.155,403.246,125.593z"/>
	</g>
</g>
<g>
	<g>
		<path d="M510.695,63.375L448.484,1.172c-1.561-1.562-4.093-1.562-5.655,0c-1.562,1.562-1.562,4.093,0,5.655l62.212,62.203
			c0.781,0.781,1.805,1.172,2.828,1.172s2.045-0.391,2.826-1.172C512.257,67.468,512.257,64.937,510.695,63.375z"/>
	</g>
</g>
<g>
	<g>
		<path d="M510.696,63.374c-1.561-1.562-4.093-1.562-5.655,0l-11.309,11.31c-1.562,1.562-1.562,4.093,0,5.655
			c0.78,0.781,1.804,1.172,2.827,1.172c1.022,0,2.046-0.39,2.827-1.172l11.31-11.31C512.258,67.467,512.258,64.936,510.696,63.374z"
			/>
	</g>
</g>
<g>
	<g>
		<path d="M499.386,74.685l-62.211-62.203c-1.562-1.562-4.092-1.562-5.654,0c-1.562,1.561-1.562,4.092,0,5.654l62.211,62.203
			c0.78,0.781,1.804,1.172,2.827,1.172c1.022,0,2.046-0.39,2.827-1.171C500.948,78.778,500.948,76.247,499.386,74.685z"/>
	</g>
</g>
<g>
	<g>
		<path d="M448.485,1.172c-1.561-1.562-4.093-1.562-5.655,0l-11.309,11.31c-1.562,1.561-1.562,4.092,0,5.654
			c0.78,0.781,1.804,1.172,2.827,1.172c1.023,0,2.046-0.391,2.827-1.171l11.31-11.31C450.047,5.265,450.047,2.734,448.485,1.172z"/>
	</g>
</g>
<g>
	<g>
		<path d="M437.214,12.529c-1.539-1.602-4.069-1.617-5.654-0.094c-24.244,23.509-29.579,42.036-23.791,82.619
			c0.281,2,1.991,3.437,3.952,3.437c0.187,0,0.382-0.015,0.57-0.039c2.187-0.312,3.71-2.335,3.398-4.522
			c-5.406-37.905-0.797-54.189,21.439-75.747C438.714,16.645,438.753,14.114,437.214,12.529z"/>
	</g>
</g>
<g>
	<g>
		<path d="M499.33,74.638c-1.578-1.531-4.116-1.507-5.654,0.094c-21.573,22.252-37.85,26.845-75.739,21.44
			c-2.163-0.25-4.21,1.21-4.522,3.397c-0.312,2.179,1.203,4.21,3.39,4.522c9.748,1.39,18.223,2.14,25.799,2.14
			c23.962,0,38.95-7.505,56.812-25.938C500.955,78.707,500.916,76.177,499.33,74.638z"/>
	</g>
</g>
<g>
	<g>
		<path d="M413.313,81.59c-1.561-1.562-4.092-1.562-5.654,0l-27.032,27.032c-1.562,1.562-1.562,4.092,0,5.654
			c0.78,0.781,1.804,1.172,2.827,1.172c1.024,0,2.047-0.391,2.827-1.172l27.032-27.032C414.875,85.683,414.875,83.152,413.313,81.59
			z"/>
	</g>
</g>
<g>
	<g>
		<path d="M430.271,98.554c-1.562-1.562-4.093-1.562-5.655,0l-27.04,27.024c-1.562,1.562-1.562,4.093,0,5.655
			c0.781,0.781,1.805,1.172,2.828,1.172c1.022,0,2.046-0.391,2.827-1.172l27.04-27.024
			C431.833,102.646,431.833,100.116,430.271,98.554z"/>
	</g>
</g>
<g>
	<g>
		<path d="M420.202,97.304l-5.646-5.64c-1.562-1.562-4.1-1.562-5.662,0c-1.554,1.562-1.554,4.093,0.008,5.655l5.646,5.639
			c0.781,0.781,1.805,1.172,2.827,1.172c1.024,0,2.047-0.39,2.827-1.172C421.764,101.397,421.764,98.866,420.202,97.304z"/>
	</g>
</g>
<g>
	<g>
		<path d="M90.637,347.705c-1.562-1.562-4.093-1.562-5.655,0l-29.117,29.133c-1.562,1.562-1.562,4.093,0,5.655
			c0.781,0.781,1.804,1.172,2.827,1.172c1.024,0,2.047-0.39,2.827-1.171l29.118-29.135
			C92.199,351.798,92.199,349.267,90.637,347.705z"/>
	</g>
</g>
<g>
</g>
<g>
</g>
<g>
</g>
<g>
</g>
<g>
</g>
<g>
</g>
<g>
</g>
<g>
</g>
<g>
</g>
<g>
</g>
<g>
</g>
<g>
</g>
<g>
</g>
<g>
</g>
<g>
</g>
</svg>
