<?xml version="1.0" encoding="iso-8859-1"?>
<!-- Generator: Adobe Illustrator 19.0.0, SVG Export Plug-In . SVG Version: 6.00 Build 0)  -->
<svg version="1.1" id="Capa_1" xmlns="http://www.w3.org/2000/svg" xmlns:xlink="http://www.w3.org/1999/xlink" x="0px" y="0px"
	 viewBox="0 0 511.71 511.71" style="enable-background:new 0 0 511.71 511.71;" xml:space="preserve">
<g>
	<g>
		<path d="M455.789,121.977c-1.561-1.562-4.092-1.562-5.654,0L240.86,331.256c-1.562,1.562-1.562,4.093,0,5.655
			c0.781,0.78,1.804,1.171,2.827,1.171s2.046-0.391,2.828-1.171l209.274-209.279C457.351,126.07,457.351,123.539,455.789,121.977z"
			/>
	</g>
</g>
<g>
	<g>
		<path d="M235.204,342.565c-1.561-1.562-4.092-1.562-5.654,0L69.582,502.525c-1.562,1.562-1.562,4.092,0,5.654
			c0.782,0.781,1.805,1.172,2.828,1.172s2.047-0.391,2.828-1.172L235.204,348.22C236.766,346.658,236.766,344.127,235.204,342.565z"
			/>
	</g>
</g>
<g>
	<g>
		<path d="M433.17,121.976c-1.561-1.562-4.093-1.562-5.655,0L229.55,319.946c-1.562,1.562-1.562,4.093,0,5.655
			c0.781,0.781,1.804,1.171,2.827,1.171c1.024,0,2.047-0.39,2.827-1.171l197.966-197.97
			C434.732,126.069,434.732,123.538,433.17,121.976z"/>
	</g>
</g>
<g>
	<g>
		<path d="M223.895,331.255c-1.561-1.562-4.092-1.562-5.654,0L58.273,491.216c-1.562,1.561-1.562,4.092,0,5.654
			c0.781,0.781,1.804,1.172,2.827,1.172c1.024,0,2.047-0.391,2.828-1.172l159.967-159.96
			C225.457,335.348,225.457,332.817,223.895,331.255z"/>
	</g>
</g>
<g>
	<g>
		<path d="M246.515,342.565l-39.584-39.583c-1.562-1.562-4.093-1.562-5.655,0c-1.562,1.561-1.562,4.092,0,5.654l39.584,39.584
			c0.781,0.781,1.804,1.172,2.827,1.172s2.046-0.391,2.828-1.172C248.077,346.658,248.077,344.127,246.515,342.565z"/>
	</g>
</g>
<g>
	<g>
		<path d="M75.237,502.525c-1.562-1.562-4.093-1.562-5.655,0c-0.766,0.766-1.765,1.188-2.835,1.188
			c-1.063,0-2.062-0.422-2.828-1.188c-0.757-0.75-1.171-1.75-1.171-2.812c0-1.078,0.414-2.078,1.179-2.844
			c1.562-1.561,1.562-4.092,0-5.654s-4.093-1.562-5.655,0c-2.272,2.28-3.522,5.296-3.522,8.498c0,3.202,1.25,6.217,3.515,8.466
			c2.266,2.265,5.281,3.515,8.475,3.531c0.008,0,0.008,0,0.008,0c3.202,0,6.216-1.25,8.489-3.531
			C76.799,506.618,76.799,504.087,75.237,502.525z"/>
	</g>
</g>
<g>
	<g>
		<path d="M278.116,299.654l-11.325-11.31c-1.562-1.562-4.1-1.562-5.662,0c-1.554,1.562-1.554,4.093,0.008,5.655l11.325,11.31
			c0.78,0.781,1.804,1.171,2.827,1.171c1.023,0,2.046-0.39,2.827-1.171C279.678,303.747,279.678,301.216,278.116,299.654z"/>
	</g>
</g>
<g>
	<g>
		<path d="M438.592,104.794C331.556,13.613,256.708,0,221.615,0c-16.2,0-24.784,2.851-25.143,2.968
			c-1.773,0.601-2.898,2.367-2.687,4.233c0.211,1.866,1.687,3.335,3.562,3.53c1.008,0.109,102.459,11.817,206.644,116.01
			c0.765,0.774,1.788,1.172,2.827,1.172c0.656,0,1.32-0.164,1.93-0.5l29.18-16.074c1.149-0.633,1.913-1.789,2.046-3.093
			C440.107,106.934,439.592,105.645,438.592,104.794z M407.513,118.961C333.141,45.456,260.183,17.901,223.192,8.005
			c34.132,0.414,104.661,14.309,205.784,99.139L407.513,118.961z"/>
	</g>
</g>
<g>
	<g>
		<path d="M455.789,121.977l-16.964-16.964c-1.562-1.562-4.093-1.562-5.655,0c-1.562,1.561-1.562,4.092,0,5.654l16.965,16.965
			c0.78,0.781,1.804,1.171,2.827,1.171c1.024,0,2.047-0.39,2.827-1.171C457.351,126.07,457.351,123.539,455.789,121.977z"/>
	</g>
</g>
<g>
	<g>
		<path d="M427.515,150.251l-11.324-11.31c-1.562-1.562-4.101-1.562-5.663,0c-1.554,1.562-1.554,4.093,0.008,5.655l11.325,11.31
			c0.781,0.78,1.805,1.171,2.827,1.171c1.023,0,2.047-0.391,2.827-1.171C429.077,154.344,429.077,151.813,427.515,150.251z"/>
	</g>
</g>
<g>
</g>
<g>
</g>
<g>
</g>
<g>
</g>
<g>
</g>
<g>
</g>
<g>
</g>
<g>
</g>
<g>
</g>
<g>
</g>
<g>
</g>
<g>
</g>
<g>
</g>
<g>
</g>
<g>
</g>
</svg>
