<?xml version="1.0" encoding="iso-8859-1"?>
<!-- Generator: Adobe Illustrator 19.0.0, SVG Export Plug-In . SVG Version: 6.00 Build 0)  -->
<svg version="1.1" id="Capa_1" xmlns="http://www.w3.org/2000/svg" xmlns:xlink="http://www.w3.org/1999/xlink" x="0px" y="0px"
	 viewBox="0 0 511.871 511.871" style="enable-background:new 0 0 511.871 511.871;" xml:space="preserve">
<g>
	<g>
		<path d="M108.215,59.986h-0.086c-2.202,0-3.952,1.788-3.952,3.998c0,2.211,1.828,3.999,4.038,3.999
			c2.203,0,3.999-1.788,3.999-3.999C112.214,61.774,110.418,59.986,108.215,59.986z"/>
	</g>
</g>
<g>
	<g>
		<path d="M140.207,179.954h-0.086c-2.202,0-3.952,1.789-3.952,3.999c0,2.211,1.828,3.999,4.038,3.999c2.203,0,4-1.788,3.999-3.999
			C144.206,181.743,142.409,179.954,140.207,179.954z"/>
	</g>
</g>
<g>
	<g>
		<path d="M92.219,227.943h-0.086c-2.202,0-3.952,1.789-3.952,3.999c0,2.21,1.828,3.999,4.038,3.999
			c2.203,0,3.999-1.789,3.999-3.999C96.218,229.732,94.422,227.943,92.219,227.943z"/>
	</g>
</g>
<g>
	<g>
		<path d="M28.236,35.991H28.15c-2.202,0-3.952,1.788-3.952,3.999c0,2.21,1.828,3.999,4.038,3.999c2.202,0,3.999-1.789,3.999-3.999
			C32.235,37.78,30.438,35.991,28.236,35.991z"/>
	</g>
</g>
<g>
	<g>
		<path d="M28.236,203.949H28.15c-2.202,0-3.952,1.789-3.952,3.999c0,2.211,1.828,3.999,4.038,3.999
			c2.202,0,3.999-1.788,3.999-3.999C32.235,205.738,30.438,203.949,28.236,203.949z"/>
	</g>
</g>
<g>
	<g>
		<path d="M487.878,427.892H23.995c-2.21,0-3.999,1.789-3.999,3.999c0,2.211,1.789,3.999,3.999,3.999h463.882
			c2.21,0,3.999-1.788,4-3.999C491.877,429.681,490.088,427.892,487.878,427.892z"/>
	</g>
</g>
<g>
	<g>
		<path d="M487.878,467.882H23.995c-2.21,0-3.999,1.788-3.999,3.999c0,2.21,1.789,3.999,3.999,3.999h463.882
			c2.21,0,3.999-1.789,4-3.999C491.877,469.67,490.088,467.882,487.878,467.882z"/>
	</g>
</g>
<g>
	<g>
		<path d="M483.879,443.888H27.994c-2.21,0-3.999,1.789-3.999,3.999c0,2.211,1.789,3.999,3.999,3.999h455.884
			c2.211,0,3.999-1.788,4-3.999C487.878,445.677,486.09,443.888,483.879,443.888z"/>
	</g>
</g>
<g>
	<g>
		<path d="M23.995,467.882c-8.818,0-15.996-7.178-15.996-15.996s7.178-15.996,15.996-15.996c2.21,0,3.999-1.788,3.999-3.999
			c0-2.21-1.789-3.999-3.999-3.999c-13.231,0-23.994,10.763-23.994,23.994c0,13.231,10.763,23.994,23.994,23.994
			c2.21,0,3.999-1.789,3.999-3.999C27.994,469.67,26.205,467.882,23.995,467.882z"/>
	</g>
</g>
<g>
	<g>
		<path d="M487.877,427.892c-2.21,0-3.999,1.789-3.999,3.999c0,2.211,1.789,3.999,3.999,3.999c8.818,0,15.996,7.178,15.996,15.996
			s-7.178,15.996-15.996,15.996c-2.21,0-3.999,1.788-3.999,3.999c0,2.21,1.789,3.999,3.999,3.999
			c13.232,0,23.994-10.763,23.994-23.994C511.871,438.655,501.108,427.892,487.877,427.892z"/>
	</g>
</g>
<g>
	<g>
		<path d="M447.887,387.902H63.984c-2.211,0-3.999,1.788-3.999,3.998c0,2.211,1.789,4,3.999,4h383.903c2.211,0,3.999-1.789,3.999-4
			C451.886,389.691,450.098,387.902,447.887,387.902z"/>
	</g>
</g>
<g>
	<g>
		<path d="M443.888,403.907l-375.905-0.008c-2.21,0-3.999,1.788-3.999,3.998c0,2.211,1.789,3.999,3.999,3.999l375.905,0.008
			c2.211,0,3.999-1.788,3.999-3.999C447.887,405.694,446.099,403.907,443.888,403.907z"/>
	</g>
</g>
<g>
	<g>
		<path d="M63.985,387.902c-13.231,0-23.994,10.763-23.994,23.993c0,1.656,0.172,3.273,0.484,4.835
			c0.39,1.898,2.054,3.202,3.913,3.202c0.265,0,0.539-0.023,0.804-0.078c2.164-0.445,3.562-2.554,3.125-4.718
			c-0.219-1.046-0.328-2.132-0.328-3.241c0-8.817,7.178-15.995,15.996-15.995c2.21,0,3.999-1.789,3.999-4
			C67.984,389.691,66.195,387.902,63.985,387.902z"/>
	</g>
</g>
<g>
	<g>
		<path d="M447.888,387.902c-2.21,0-3.999,1.788-3.999,3.998c0,2.211,1.789,4,3.999,4c8.818,0,15.996,7.178,15.996,15.995
			c0,1.078-0.109,2.156-0.328,3.202c-0.438,2.164,0.953,4.282,3.116,4.726c0.273,0.055,0.539,0.078,0.812,0.078
			c1.859,0,3.522-1.304,3.914-3.194c0.32-1.579,0.484-3.203,0.484-4.812C471.882,398.665,461.119,387.902,447.888,387.902z"/>
	</g>
</g>
<g>
	<g>
		<path d="M407.898,347.913H103.974c-2.21,0-3.999,1.789-3.999,3.999c0,2.21,1.789,3.999,3.999,3.999h303.924
			c2.21,0,3.998-1.789,3.998-3.999C411.896,349.702,410.108,347.913,407.898,347.913z"/>
	</g>
</g>
<g>
	<g>
		<path d="M403.899,363.917l-295.926-0.008c-2.21,0-3.999,1.788-3.999,3.999c0,2.21,1.789,3.999,3.999,3.999l295.926,0.008
			c2.21,0,3.999-1.79,3.999-3.999C407.898,365.704,406.109,363.917,403.899,363.917z"/>
	</g>
</g>
<g>
	<g>
		<path d="M103.974,347.913c-13.231,0-23.994,10.763-23.994,23.994c0,1.655,0.172,3.272,0.484,4.834
			c0.391,1.898,2.055,3.203,3.913,3.203c0.266,0,0.539-0.024,0.805-0.078c2.164-0.446,3.562-2.555,3.124-4.718
			c-0.219-1.047-0.328-2.132-0.328-3.241c0-8.818,7.178-15.996,15.996-15.996c2.211,0,3.999-1.789,3.999-3.999
			C107.973,349.702,106.185,347.913,103.974,347.913z"/>
	</g>
</g>
<g>
	<g>
		<path d="M407.898,347.913c-2.211,0-3.999,1.789-3.999,3.999c0,2.21,1.788,3.999,3.999,3.999c8.817,0,15.996,7.178,15.996,15.996
			c0,1.078-0.109,2.155-0.328,3.202c-0.438,2.164,0.952,4.281,3.116,4.726c0.274,0.055,0.54,0.078,0.812,0.078
			c1.859,0,3.523-1.305,3.914-3.195c0.32-1.578,0.484-3.203,0.484-4.811C431.892,358.676,421.128,347.913,407.898,347.913z"/>
	</g>
</g>
<g>
	<g>
		<path d="M367.907,307.922H143.964c-2.21,0-3.999,1.789-3.999,3.999c0,2.211,1.789,3.999,3.999,3.999h223.944
			c2.211,0,3.999-1.788,3.998-3.999C371.906,309.711,370.118,307.922,367.907,307.922z"/>
	</g>
</g>
<g>
	<g>
		<path d="M363.909,323.926l-215.945-0.008c-2.21,0-3.999,1.789-3.999,3.999c0,2.21,1.789,3.999,3.999,3.999l215.945,0.008
			c2.21,0,3.999-1.789,3.999-3.999C367.908,325.715,366.119,323.926,363.909,323.926z"/>
	</g>
</g>
<g>
	<g>
		<path d="M143.965,307.923c-13.231,0-23.994,10.764-23.994,23.994c0,1.656,0.172,3.273,0.484,4.835
			c0.391,1.897,2.054,3.202,3.913,3.202c0.265,0,0.539-0.024,0.805-0.078c2.163-0.446,3.562-2.554,3.124-4.718
			c-0.219-1.046-0.328-2.132-0.328-3.241c0-8.818,7.178-15.996,15.996-15.996c2.21,0,3.999-1.788,3.999-3.999
			C147.964,309.712,146.175,307.923,143.965,307.923z"/>
	</g>
</g>
<g>
	<g>
		<path d="M367.908,307.921c-2.211,0-3.999,1.789-3.999,3.999c0,2.211,1.788,3.999,3.999,3.999c8.818,0,15.996,7.178,15.996,15.996
			c0,1.078-0.109,2.156-0.328,3.202c-0.438,2.164,0.953,4.281,3.116,4.726c0.273,0.055,0.539,0.078,0.812,0.078
			c1.859,0,3.523-1.304,3.914-3.194c0.32-1.579,0.484-3.203,0.484-4.812C391.902,318.686,381.138,307.921,367.908,307.921z"/>
	</g>
</g>
<g>
	<g>
		<path d="M363.909,163.959c-2.21,0-3.999,1.788-3.999,3.999v127.967c0,2.211,1.789,3.999,3.999,3.999s3.999-1.788,3.999-3.999
			V167.957C367.908,165.746,366.119,163.959,363.909,163.959z"/>
	</g>
</g>
<g>
	<g>
		<path d="M323.919,163.959c-2.211,0-4,1.788-4,3.999v127.967c0,2.211,1.789,3.999,4,3.999c2.21,0,3.998-1.788,3.998-3.999V167.957
			C327.917,165.746,326.129,163.959,323.919,163.959z"/>
	</g>
</g>
<g>
	<g>
		<path d="M307.923,147.962h-39.99c-2.211,0-3.999,1.788-3.999,3.999c0,2.21,1.788,3.999,3.999,3.999h39.99
			c2.21,0,3.998-1.789,3.998-3.999C311.921,149.751,310.133,147.962,307.923,147.962z"/>
	</g>
</g>
<g>
	<g>
		<path d="M307.923,107.973h-39.99c-2.211,0-3.999,1.789-3.999,3.999c0,2.211,1.788,3.999,3.999,3.999h39.99
			c2.21,0,3.998-1.788,3.998-3.999C311.921,109.762,310.133,107.973,307.923,107.973z"/>
	</g>
</g>
<g>
	<g>
		<path d="M307.924,107.973c-2.211,0-4,1.789-4,3.999c0,2.211,1.789,3.999,4,3.999c28.664,0,51.986,23.322,51.986,51.987
			c0,2.21,1.789,3.999,3.999,3.999s3.999-1.789,3.999-3.999C367.908,134.879,341.001,107.973,307.924,107.973z"/>
	</g>
</g>
<g>
	<g>
		<path d="M307.923,147.963c-2.211,0-4,1.788-4,3.999c0,2.21,1.789,3.999,4,3.999c6.615,0,11.996,5.381,11.996,11.997
			c0,2.21,1.789,3.999,4,3.999c2.21,0,3.998-1.789,3.998-3.999C327.917,156.929,318.951,147.963,307.923,147.963z"/>
	</g>
</g>
<g>
	<g>
		<path d="M307.923,123.969h-23.994c-2.211,0-3.999,1.789-3.999,3.999c0,2.21,1.788,3.999,3.999,3.999h23.994
			c2.21,0,3.998-1.789,3.998-3.999C311.921,125.758,310.133,123.969,307.923,123.969z"/>
	</g>
</g>
<g>
	<g>
		<path d="M347.913,165.207c-2.21,0-3.999,1.789-3.999,3.999v126.718c0,2.211,1.789,3.999,3.999,3.999
			c2.21,0,3.999-1.788,3.999-3.999V169.207C351.912,166.996,350.123,165.207,347.913,165.207z"/>
	</g>
</g>
<g>
	<g>
		<path d="M307.924,123.969c-2.211,0-4,1.789-4,3.999c0,2.21,1.789,3.999,4,3.999c19.845,0,35.99,16.144,35.99,35.991
			c0,2.21,1.789,3.999,3.999,3.999c2.21,0,3.999-1.789,3.999-3.999C351.912,143.706,332.175,123.969,307.924,123.969z"/>
	</g>
</g>
<g>
	<g>
		<path d="M259.935,107.973c-2.211,0-3.999,1.789-3.999,3.999v39.99c0,2.21,1.788,3.999,3.999,3.999c2.21,0,3.999-1.789,3.999-3.999
			v-39.99C263.934,109.762,262.145,107.973,259.935,107.973z"/>
	</g>
</g>
<g>
	<g>
		<path d="M259.935,147.962h-39.99c-2.21,0-3.999,1.788-3.999,3.999c0,2.21,1.789,3.999,3.999,3.999h39.99
			c2.21,0,3.999-1.789,3.999-3.999C263.934,149.751,262.145,147.962,259.935,147.962z"/>
	</g>
</g>
<g>
	<g>
		<path d="M219.945,107.973c-2.21,0-3.999,1.789-3.999,3.999v39.99c0,2.21,1.789,3.999,3.999,3.999c2.211,0,3.999-1.789,3.999-3.999
			v-39.99C223.944,109.762,222.156,107.973,219.945,107.973z"/>
	</g>
</g>
<g>
	<g>
		<path d="M259.935,107.973h-39.99c-2.21,0-3.999,1.789-3.999,3.999c0,2.211,1.789,3.999,3.999,3.999h39.99
			c2.21,0,3.999-1.788,3.999-3.999C263.934,109.762,262.145,107.973,259.935,107.973z"/>
	</g>
</g>
<g>
	<g>
		<path d="M235.941,139.965c-2.21,0-3.999,1.788-3.999,3.999v7.998c0,2.21,1.789,3.999,3.999,3.999s3.999-1.789,3.999-3.999v-7.998
			C239.94,141.753,238.151,139.965,235.941,139.965z"/>
	</g>
</g>
<g>
	<g>
		<path d="M243.939,107.973c-2.21,0-3.999,1.789-3.999,3.999v7.998c0,2.21,1.789,3.999,3.999,3.999c2.21,0,3.999-1.789,3.999-3.999
			v-7.998C247.938,109.762,246.149,107.973,243.939,107.973z"/>
	</g>
</g>
<g>
	<g>
		<path d="M207.917,151.486c-0.265-2.203-2.327-3.803-4.444-3.491L3.523,171.99c-2.194,0.256-3.757,2.249-3.491,4.443
			c0.242,2.031,1.969,3.522,3.96,3.522c0.164,0,0.32-0.008,0.484-0.032l199.949-23.992
			C206.621,155.673,208.182,153.681,207.917,151.486z"/>
	</g>
</g>
<g>
	<g>
		<path d="M204.425,108.004L4.476,84.011c-2.148-0.289-4.178,1.297-4.444,3.491c-0.266,2.195,1.297,4.186,3.491,4.444l199.95,23.994
			c0.164,0.023,0.32,0.031,0.484,0.031c1.992,0,3.718-1.492,3.96-3.522C208.182,110.254,206.62,108.263,204.425,108.004z"/>
	</g>
</g>
<g>
	<g>
		<path d="M139.965,127.967H3.999c-2.21,0-3.999,1.788-3.999,3.999c0,2.21,1.789,3.999,3.999,3.999h135.966
			c2.211,0,3.999-1.789,3.999-3.999C143.964,129.756,142.175,127.967,139.965,127.967z"/>
	</g>
</g>
<g>
	<g>
		<path d="M203.949,127.967h-39.99c-2.211,0-3.999,1.788-3.999,3.999c0,2.21,1.788,3.999,3.999,3.999h39.99
			c2.211,0,3.999-1.789,3.999-3.999C207.948,129.756,206.159,127.967,203.949,127.967z"/>
	</g>
</g>
<g>
	<g>
		<path d="M211.947,187.953c-8.256,0-11.997,15.34-11.997,19.995c0,6.616,5.382,11.997,11.997,11.997
			c6.616,0,11.997-5.381,11.997-11.997C223.944,203.293,220.203,187.953,211.947,187.953z M211.947,211.947
			c-2.202,0-3.999-1.796-3.999-3.999c0-3.304,2.281-9.747,3.999-11.661c1.711,1.921,3.999,8.357,3.999,11.661
			C215.946,210.15,214.15,211.947,211.947,211.947z"/>
	</g>
</g>
<g>
</g>
<g>
</g>
<g>
</g>
<g>
</g>
<g>
</g>
<g>
</g>
<g>
</g>
<g>
</g>
<g>
</g>
<g>
</g>
<g>
</g>
<g>
</g>
<g>
</g>
<g>
</g>
<g>
</g>
</svg>
