<?xml version="1.0" encoding="iso-8859-1"?>
<!-- Generator: Adobe Illustrator 19.0.0, SVG Export Plug-In . SVG Version: 6.00 Build 0)  -->
<svg version="1.1" id="Capa_1" xmlns="http://www.w3.org/2000/svg" xmlns:xlink="http://www.w3.org/1999/xlink" x="0px" y="0px"
	 viewBox="0 0 511.873 511.873" style="enable-background:new 0 0 511.873 511.873;" xml:space="preserve">
<g>
	<g>
		<path d="M484.113,187.953h-0.078c-2.203,0-3.952,1.789-3.952,3.999c0,2.211,1.827,3.999,4.03,3.999
			c2.218,0,3.999-1.788,3.999-3.999C488.112,189.742,486.331,187.953,484.113,187.953z"/>
	</g>
</g>
<g>
	<g>
		<path d="M420.128,187.953h-0.078c-2.202,0-3.951,1.789-3.951,3.999c0,2.211,1.827,3.999,4.029,3.999c2.219,0,4-1.788,4-3.999
			C424.128,189.742,422.347,187.953,420.128,187.953z"/>
	</g>
</g>
<g>
	<g>
		<path d="M348.147,187.953h-0.078c-2.202,0-3.952,1.789-3.952,3.999c0,2.211,1.828,3.999,4.03,3.999
			c2.218,0,3.999-1.788,3.999-3.999C352.146,189.742,350.365,187.953,348.147,187.953z"/>
	</g>
</g>
<g>
	<g>
		<path d="M284.164,187.953h-0.078c-2.203,0-3.952,1.789-3.952,3.999c0,2.211,1.827,3.999,4.03,3.999
			c2.217,0,3.998-1.788,3.998-3.999C288.162,189.742,286.382,187.953,284.164,187.953z"/>
	</g>
</g>
<g>
	<g>
		<path d="M220.183,187.953h-0.078c-2.21,0-3.96,1.789-3.96,3.999c0,2.211,1.832,3.999,4.038,3.999c2.211,0,3.999-1.788,3.999-3.999
			C224.182,189.742,222.394,187.953,220.183,187.953z"/>
	</g>
</g>
<g>
	<g>
		<path d="M156.2,187.953h-0.078c-2.211,0-3.96,1.789-3.96,3.999c0,2.211,1.831,3.999,4.038,3.999c2.21,0,3.999-1.788,3.999-3.999
			C160.199,189.742,158.41,187.953,156.2,187.953z"/>
	</g>
</g>
<g>
	<g>
		<path d="M92.215,187.953h-0.078c-2.21,0-3.96,1.789-3.96,3.999c0,2.211,1.832,3.999,4.038,3.999c2.211,0,3.999-1.788,3.999-3.999
			C96.214,189.742,94.426,187.953,92.215,187.953z"/>
	</g>
</g>
<g>
	<g>
		<path d="M28.232,187.953h-0.078c-2.21,0-3.96,1.789-3.96,3.999c0,2.211,1.831,3.999,4.038,3.999c2.21,0,3.999-1.788,3.999-3.999
			C32.231,189.742,30.442,187.953,28.232,187.953z"/>
	</g>
</g>
<g>
	<g>
		<path d="M484.113,387.903h-0.078c-2.203,0-3.952,1.788-3.952,3.998c0,2.211,1.827,4,4.03,4c2.218,0,3.999-1.789,3.999-4
			C488.112,389.691,486.331,387.903,484.113,387.903z"/>
	</g>
</g>
<g>
	<g>
		<path d="M348.147,387.903h-0.078c-2.202,0-3.952,1.788-3.952,3.998c0,2.211,1.828,4,4.03,4c2.218,0,3.999-1.789,3.999-4
			C352.146,389.691,350.365,387.903,348.147,387.903z"/>
	</g>
</g>
<g>
	<g>
		<path d="M284.164,387.903h-0.078c-2.203,0-3.952,1.788-3.952,3.998c0,2.211,1.827,4,4.03,4c2.217,0,3.998-1.789,3.998-4
			C288.162,389.691,286.382,387.903,284.164,387.903z"/>
	</g>
</g>
<g>
	<g>
		<path d="M220.183,387.903h-0.078c-2.21,0-3.96,1.788-3.96,3.998c0,2.211,1.832,4,4.038,4c2.211,0,3.999-1.789,3.999-4
			C224.182,389.691,222.394,387.903,220.183,387.903z"/>
	</g>
</g>
<g>
	<g>
		<path d="M156.2,387.903h-0.078c-2.211,0-3.96,1.788-3.96,3.998c0,2.211,1.831,4,4.038,4c2.21,0,3.999-1.789,3.999-4
			C160.199,389.691,158.41,387.903,156.2,387.903z"/>
	</g>
</g>
<g>
	<g>
		<path d="M92.215,387.903h-0.078c-2.21,0-3.96,1.788-3.96,3.998c0,2.211,1.832,4,4.038,4c2.211,0,3.999-1.789,3.999-4
			C96.214,389.691,94.426,387.903,92.215,387.903z"/>
	</g>
</g>
<g>
	<g>
		<path d="M28.232,387.903h-0.078c-2.21,0-3.96,1.788-3.96,3.998c0,2.211,1.831,4,4.038,4c2.21,0,3.999-1.789,3.999-4
			C32.231,389.691,30.442,387.903,28.232,387.903z"/>
	</g>
</g>
<g>
	<g>
		<path d="M131.967,339.915c-2.21,0-3.999,1.789-3.999,3.999v103.973c0,2.211,1.789,3.999,3.999,3.999
			c2.211,0,3.999-1.788,3.999-3.998V343.914C135.966,341.704,134.177,339.915,131.967,339.915z"/>
	</g>
</g>
<g>
	<g>
		<path d="M179.955,83.979c-2.211,0-3.999,1.789-3.999,3.999v359.909c0,2.211,1.789,3.999,3.999,3.999
			c2.21,0,3.999-1.788,3.999-3.999V87.978C183.954,85.768,182.166,83.979,179.955,83.979z"/>
	</g>
</g>
<g>
	<g>
		<path d="M195.951,73.826c-2.21,0-3.999,1.788-3.999,3.999v370.062c0,2.211,1.789,3.999,3.999,3.999
			c2.211,0,3.999-1.788,3.999-3.999V77.825C199.95,75.614,198.161,73.826,195.951,73.826z"/>
	</g>
</g>
<g>
	<g>
		<path d="M243.943,60.25c-2.21,0-3.999,1.789-3.999,3.999l-0.004,383.638c0,2.211,1.789,3.999,3.999,3.999
			c2.21,0,3.999-1.788,3.999-3.999l0.004-383.638C247.942,62.039,246.153,60.25,243.943,60.25z"/>
	</g>
</g>
<g>
	<g>
		<path d="M259.935,59.986c-2.211,0-3.999,1.788-3.999,3.998v383.903c0,2.211,1.788,3.999,3.999,3.999
			c2.21,0,3.999-1.788,3.999-3.999V63.984C263.934,61.774,262.145,59.986,259.935,59.986z"/>
	</g>
</g>
<g>
	<g>
		<path d="M307.923,73.826c-2.211,0-4,1.788-4,3.999v370.062c0,2.211,1.789,3.999,4,3.999c2.21,0,3.998-1.788,3.998-3.999V77.825
			C311.921,75.614,310.133,73.826,307.923,73.826z"/>
	</g>
</g>
<g>
	<g>
		<path d="M323.919,83.971c-2.211,0-4,1.789-4,3.999v359.917c0,2.211,1.789,3.999,4,3.999c2.21,0,3.998-1.788,3.998-3.999V87.97
			C327.917,85.76,326.129,83.971,323.919,83.971z"/>
	</g>
</g>
<g>
	<g>
		<path d="M371.907,179.955c-2.21,0-3.999,1.789-3.999,3.999v263.933c0,2.211,1.789,3.999,3.999,3.999
			c2.21,0,3.999-1.788,3.999-3.998V183.954C375.906,181.744,374.117,179.955,371.907,179.955z"/>
	</g>
</g>
<g>
	<g>
		<path d="M183.138,85.577c-1.321-1.766-3.835-2.117-5.601-0.797c-31.503,23.666-49.569,59.814-49.569,99.174
			c0,2.211,1.789,3.999,3.999,3.999c2.211,0,3.999-1.788,3.999-3.999c0-36.822,16.902-70.637,46.375-92.777
			C184.106,89.849,184.462,87.342,183.138,85.577z"/>
	</g>
</g>
<g>
	<g>
		<path d="M243.682,60.259c-17.468,1.148-34.156,5.87-49.601,14.032c-1.953,1.031-2.699,3.452-1.664,5.404
			c0.714,1.356,2.101,2.129,3.538,2.129c0.628,0,1.269-0.149,1.868-0.465c14.438-7.631,30.043-12.044,46.383-13.118
			c2.202-0.145,3.874-2.05,3.729-4.253C247.786,61.782,245.849,60.157,243.682,60.259z"/>
	</g>
</g>
<g>
	<g>
		<path d="M309.798,74.291c-15.441-8.162-32.132-12.884-49.608-14.032c-2.219-0.106-4.105,1.523-4.253,3.729
			c-0.145,2.203,1.526,4.108,3.729,4.253c16.343,1.074,31.957,5.487,46.398,13.118c0.593,0.317,1.234,0.465,1.859,0.465
			c1.437,0,2.827-0.774,3.546-2.129C312.5,77.743,311.75,75.322,309.798,74.291z"/>
	</g>
</g>
<g>
	<g>
		<path d="M326.34,84.772c-1.765-1.324-4.264-0.969-5.608,0.797c-1.32,1.765-0.969,4.273,0.797,5.6
			c29.477,22.147,46.379,55.967,46.379,92.785c0,2.211,1.789,3.999,3.999,3.999c2.21,0,3.999-1.788,3.998-3.999
			C375.905,144.597,357.839,108.446,326.34,84.772z"/>
	</g>
</g>
<g>
	<g>
		<path d="M179.955,443.888h-47.988c-2.21,0-3.999,1.789-3.999,3.999c0,2.211,1.789,3.999,3.999,3.999h47.988
			c2.21,0,3.999-1.788,3.999-3.999C183.954,445.677,182.165,443.888,179.955,443.888z"/>
	</g>
</g>
<g>
	<g>
		<path d="M243.939,443.888h-47.988c-2.21,0-3.999,1.789-3.999,3.999c0,2.211,1.789,3.999,3.999,3.999h47.988
			c2.21,0,3.999-1.788,3.999-3.999C247.938,445.677,246.149,443.888,243.939,443.888z"/>
	</g>
</g>
<g>
	<g>
		<path d="M307.923,443.888h-47.988c-2.211,0-3.999,1.789-3.999,3.999c0,2.211,1.788,3.999,3.999,3.999h47.988
			c2.21,0,3.998-1.788,3.998-3.999C311.921,445.677,310.133,443.888,307.923,443.888z"/>
	</g>
</g>
<g>
	<g>
		<path d="M371.907,443.888H323.92c-2.211,0-4,1.789-4,3.999c0,2.211,1.789,3.999,4,3.999h47.987c2.21,0,3.999-1.788,3.999-3.999
			C375.906,445.677,374.117,443.888,371.907,443.888z"/>
	</g>
</g>
<g>
	<g>
		<path d="M195.951,171.958h-16.012c-2.211,0-3.999,1.788-3.999,3.999c0,2.21,1.789,3.998,3.999,3.998h16.012
			c2.211,0,3.999-1.789,3.999-3.998C199.95,173.746,198.161,171.958,195.951,171.958z"/>
	</g>
</g>
<g>
	<g>
		<path d="M195.951,203.949h-16.012c-2.211,0-3.999,1.789-3.999,3.999c0,2.211,1.789,3.999,3.999,3.999h16.012
			c2.211,0,3.999-1.788,3.999-3.999C199.95,205.738,198.161,203.949,195.951,203.949z"/>
	</g>
</g>
<g>
	<g>
		<path d="M67.991,171.958H51.98c-2.211,0-3.999,1.788-3.999,3.999c0,2.21,1.788,3.998,3.999,3.998h16.011
			c2.211,0,3.999-1.789,3.999-3.998C71.99,173.746,70.201,171.958,67.991,171.958z"/>
	</g>
</g>
<g>
	<g>
		<path d="M67.991,203.949H51.98c-2.211,0-3.999,1.789-3.999,3.999c0,2.211,1.788,3.999,3.999,3.999h16.011
			c2.211,0,3.999-1.788,3.999-3.999C71.99,205.738,70.201,203.949,67.991,203.949z"/>
	</g>
</g>
<g>
	<g>
		<path d="M459.892,171.958H443.88c-2.21,0-3.998,1.788-3.998,3.999c0,2.21,1.788,3.998,3.998,3.998h16.012
			c2.211,0,3.999-1.789,3.999-3.998C463.891,173.746,462.103,171.958,459.892,171.958z"/>
	</g>
</g>
<g>
	<g>
		<path d="M459.892,203.949H443.88c-2.21,0-3.998,1.789-3.998,3.999c0,2.211,1.788,3.999,3.998,3.999h16.012
			c2.211,0,3.999-1.788,3.999-3.999C463.891,205.738,462.103,203.949,459.892,203.949z"/>
	</g>
</g>
<g>
	<g>
		<path d="M259.943,171.958h-16.012c-2.21,0-3.999,1.788-3.999,3.999c0,2.21,1.789,3.998,3.999,3.998h16.012
			c2.21,0,3.999-1.789,3.999-3.998C263.942,173.746,262.153,171.958,259.943,171.958z"/>
	</g>
</g>
<g>
	<g>
		<path d="M259.943,203.949h-16.012c-2.21,0-3.999,1.789-3.999,3.999c0,2.211,1.789,3.999,3.999,3.999h16.012
			c2.21,0,3.999-1.788,3.999-3.999C263.942,205.738,262.153,203.949,259.943,203.949z"/>
	</g>
</g>
<g>
	<g>
		<path d="M323.934,171.958h-16.011c-2.211,0-4,1.788-4,3.999c0,2.21,1.789,3.998,4,3.998h16.011c2.211,0,3.999-1.789,3.999-3.998
			C327.933,173.746,326.145,171.958,323.934,171.958z"/>
	</g>
</g>
<g>
	<g>
		<path d="M323.934,203.949h-16.011c-2.211,0-4,1.789-4,3.999c0,2.211,1.789,3.999,4,3.999h16.011c2.211,0,3.999-1.788,3.999-3.999
			C327.933,205.738,326.145,203.949,323.934,203.949z"/>
	</g>
</g>
<g>
	<g>
		<path d="M195.951,371.907h-16.012c-2.211,0-3.999,1.788-3.999,3.999c0,2.21,1.789,3.999,3.999,3.999h16.012
			c2.211,0,3.999-1.789,3.999-3.999C199.95,373.695,198.161,371.907,195.951,371.907z"/>
	</g>
</g>
<g>
	<g>
		<path d="M195.951,403.899h-16.012c-2.211,0-3.999,1.788-3.999,3.998c0,2.211,1.789,3.999,3.999,3.999h16.012
			c2.211,0,3.999-1.788,3.999-3.999C199.95,405.687,198.161,403.899,195.951,403.899z"/>
	</g>
</g>
<g>
	<g>
		<path d="M67.991,371.907H51.98c-2.211,0-3.999,1.788-3.999,3.999c0,2.21,1.788,3.999,3.999,3.999h16.011
			c2.211,0,3.999-1.789,3.999-3.999C71.99,373.695,70.201,371.907,67.991,371.907z"/>
	</g>
</g>
<g>
	<g>
		<path d="M67.991,403.899H51.98c-2.211,0-3.999,1.788-3.999,3.998c0,2.211,1.788,3.999,3.999,3.999h16.011
			c2.211,0,3.999-1.788,3.999-3.999C71.99,405.687,70.201,403.899,67.991,403.899z"/>
	</g>
</g>
<g>
	<g>
		<path d="M259.943,371.907h-16.012c-2.21,0-3.999,1.788-3.999,3.999c0,2.21,1.789,3.999,3.999,3.999h16.012
			c2.21,0,3.999-1.789,3.999-3.999C263.942,373.695,262.153,371.907,259.943,371.907z"/>
	</g>
</g>
<g>
	<g>
		<path d="M259.943,403.899h-16.012c-2.21,0-3.999,1.788-3.999,3.998c0,2.211,1.789,3.999,3.999,3.999h16.012
			c2.21,0,3.999-1.788,3.999-3.999C263.942,405.687,262.153,403.899,259.943,403.899z"/>
	</g>
</g>
<g>
	<g>
		<path d="M323.934,371.907h-16.011c-2.211,0-4,1.788-4,3.999c0,2.21,1.789,3.999,4,3.999h16.011c2.211,0,3.999-1.789,3.999-3.999
			C327.933,373.695,326.145,371.907,323.934,371.907z"/>
	</g>
</g>
<g>
	<g>
		<path d="M323.934,403.899h-16.011c-2.211,0-4,1.788-4,3.998c0,2.211,1.789,3.999,4,3.999h16.011c2.211,0,3.999-1.788,3.999-3.999
			C327.933,405.687,326.145,403.899,323.934,403.899z"/>
	</g>
</g>
<g>
	<g>
		<path d="M459.892,371.907H443.88c-2.21,0-3.998,1.788-3.998,3.999c0,2.21,1.788,3.999,3.998,3.999h16.012
			c2.211,0,3.999-1.789,3.999-3.999C463.891,373.695,462.103,371.907,459.892,371.907z"/>
	</g>
</g>
<g>
	<g>
		<path d="M459.892,403.899H443.88c-2.21,0-3.998,1.788-3.998,3.998c0,2.211,1.788,3.999,3.998,3.999h16.012
			c2.211,0,3.999-1.788,3.999-3.999C463.891,405.687,462.103,403.899,459.892,403.899z"/>
	</g>
</g>
<g>
	<g>
		<path d="M3.999,108.231c-2.21,0-3.999,1.789-3.999,3.999v335.649c0,2.211,1.789,3.999,3.999,3.999
			c2.211,0,3.999-1.788,3.999-3.999V112.23C7.998,110.02,6.209,108.231,3.999,108.231z"/>
	</g>
</g>
<g>
	<g>
		<path d="M51.992,108.231c-2.211,0-3.999,1.789-3.999,3.999v335.649c0,2.211,1.788,3.999,3.999,3.999
			c2.21,0,3.999-1.788,3.999-3.999V112.23C55.991,110.02,54.202,108.231,51.992,108.231z"/>
	</g>
</g>
<g>
	<g>
		<path d="M30.38,76.77c-1.761-1.312-4.272-0.942-5.596,0.824L0.79,109.844c-1.317,1.769-0.949,4.277,0.824,5.596
			c0.715,0.531,1.554,0.789,2.382,0.789c1.222,0,2.429-0.559,3.213-1.613l23.995-32.249C32.521,80.597,32.153,78.09,30.38,76.77z"/>
	</g>
</g>
<g>
	<g>
		<path d="M55.202,109.844l-23.998-32.25c-1.316-1.773-3.835-2.143-5.596-0.824c-1.773,1.321-2.14,3.827-0.824,5.597l23.998,32.249
			c0.784,1.054,1.991,1.613,3.214,1.613c0.827,0,1.667-0.258,2.382-0.789C56.151,114.12,56.518,111.613,55.202,109.844z"/>
	</g>
</g>
<g>
	<g>
		<path d="M51.991,443.88H3.999c-2.21,0-3.999,1.789-3.999,3.999c0,2.211,1.789,3.999,3.999,3.999h47.993
			c2.21,0,3.999-1.788,3.998-3.999C55.99,445.669,54.201,443.88,51.991,443.88z"/>
	</g>
</g>
<g>
	<g>
		<path d="M67.979,108.231c-2.21,0-3.999,1.789-3.999,3.999v335.649c0,2.211,1.789,3.999,3.999,3.999
			c2.211,0,3.999-1.788,3.999-3.999V112.23C71.978,110.02,70.189,108.231,67.979,108.231z"/>
	</g>
</g>
<g>
	<g>
		<path d="M115.971,108.231c-2.21,0-3.999,1.789-3.999,3.999v335.649c0,2.211,1.789,3.999,3.999,3.999
			c2.211,0,3.999-1.788,3.999-3.999V112.23C119.97,110.02,118.181,108.231,115.971,108.231z"/>
	</g>
</g>
<g>
	<g>
		<path d="M94.361,76.77c-1.77-1.312-4.277-0.942-5.597,0.824l-23.994,32.25c-1.316,1.769-0.948,4.277,0.824,5.596
			c0.715,0.531,1.554,0.789,2.382,0.789c1.222,0,2.429-0.559,3.214-1.613l23.995-32.249C96.501,80.597,96.133,78.09,94.361,76.77z"
			/>
	</g>
</g>
<g>
	<g>
		<path d="M119.181,109.844l-23.998-32.25c-1.32-1.773-3.831-2.143-5.596-0.824c-1.773,1.321-2.14,3.827-0.824,5.597l23.998,32.249
			c0.785,1.054,1.992,1.613,3.214,1.613c0.828,0,1.668-0.258,2.382-0.789C120.13,114.12,120.497,111.613,119.181,109.844z"/>
	</g>
</g>
<g>
	<g>
		<path d="M115.971,443.88H67.979c-2.21,0-3.999,1.789-3.999,3.999c0,2.211,1.789,3.999,3.999,3.999h47.992
			c2.211,0,3.999-1.788,3.999-3.999C119.97,445.669,118.181,443.88,115.971,443.88z"/>
	</g>
</g>
<g>
	<g>
		<path d="M395.901,108.231c-2.211,0-3.999,1.789-3.999,3.999v335.649c0,2.211,1.788,3.999,3.999,3.999
			c2.21,0,3.999-1.788,3.999-3.999V112.23C399.9,110.02,398.111,108.231,395.901,108.231z"/>
	</g>
</g>
<g>
	<g>
		<path d="M443.888,108.231c-2.21,0-3.998,1.789-3.998,3.999v335.649c0,2.211,1.788,3.999,3.998,3.999
			c2.211,0,3.999-1.788,3.999-3.999V112.23C447.887,110.02,446.099,108.231,443.888,108.231z"/>
	</g>
</g>
<g>
	<g>
		<path d="M422.285,76.77c-1.766-1.312-4.281-0.942-5.6,0.824l-23.994,32.25c-1.321,1.769-0.946,4.277,0.819,5.596
			c0.719,0.531,1.563,0.789,2.391,0.789c1.218,0,2.421-0.559,3.21-1.613l23.994-32.249C424.426,80.597,424.051,78.09,422.285,76.77z
			"/>
	</g>
</g>
<g>
	<g>
		<path d="M447.099,109.844l-23.994-32.25c-1.321-1.773-3.835-2.143-5.601-0.824c-1.764,1.321-2.139,3.827-0.819,5.597
			l23.993,32.249c0.789,1.054,1.992,1.613,3.21,1.613c0.828,0,1.672-0.258,2.391-0.789
			C448.043,114.12,448.418,111.613,447.099,109.844z"/>
	</g>
</g>
<g>
	<g>
		<path d="M443.888,443.88h-47.987c-2.211,0-3.999,1.789-3.999,3.999c0,2.211,1.788,3.999,3.999,3.999h47.987
			c2.211,0,3.999-1.788,3.999-3.999C447.887,445.669,446.099,443.88,443.888,443.88z"/>
	</g>
</g>
<g>
	<g>
		<path d="M459.884,108.231c-2.21,0-3.999,1.789-3.999,3.999v335.649c0,2.211,1.789,3.999,3.999,3.999
			c2.211,0,3.999-1.788,3.999-3.999V112.23C463.883,110.02,462.095,108.231,459.884,108.231z"/>
	</g>
</g>
<g>
	<g>
		<path d="M507.873,108.231c-2.211,0-3.999,1.789-3.999,3.999v335.649c0,2.211,1.788,3.999,3.999,3.999
			c2.209,0,3.999-1.788,3.999-3.999V112.23C511.872,110.02,510.083,108.231,507.873,108.231z"/>
	</g>
</g>
<g>
	<g>
		<path d="M486.269,76.77c-1.766-1.312-4.282-0.942-5.601,0.824l-23.994,32.25c-1.32,1.769-0.946,4.277,0.82,5.596
			c0.719,0.531,1.562,0.789,2.39,0.789c1.219,0,2.422-0.559,3.21-1.613l23.994-32.249C488.409,80.597,488.034,78.09,486.269,76.77z"
			/>
	</g>
</g>
<g>
	<g>
		<path d="M511.083,109.844l-23.994-32.25c-1.32-1.773-3.835-2.143-5.601-0.824c-1.764,1.321-2.139,3.827-0.819,5.597l23.993,32.249
			c0.789,1.054,1.992,1.613,3.211,1.613c0.828,0,1.67-0.258,2.39-0.789C512.028,114.12,512.402,111.613,511.083,109.844z"/>
	</g>
</g>
<g>
	<g>
		<path d="M507.873,443.88h-47.988c-2.21,0-3.999,1.789-3.999,3.999c0,2.211,1.789,3.999,3.999,3.999h47.988
			c2.209,0,3.999-1.788,3.999-3.999C511.872,445.669,510.083,443.88,507.873,443.88z"/>
	</g>
</g>
<g>
	<g>
		<path d="M383.904,163.96c-2.211,0-3.999,1.788-3.999,3.999v47.987c0,2.211,1.788,3.999,3.999,3.999
			c2.21,0,3.999-1.788,3.999-3.999v-47.987C387.903,165.748,386.114,163.96,383.904,163.96z"/>
	</g>
</g>
<g>
	<g>
		<path d="M391.902,211.947h-19.62c-2.21,0-3.999,1.789-3.999,3.999c0,2.211,1.789,3.999,3.999,3.999h19.62
			c2.21,0,3.999-1.788,3.999-3.999C395.901,213.736,394.112,211.947,391.902,211.947z"/>
	</g>
</g>
<g>
	<g>
		<path d="M391.902,187.953h-19.995c-2.21,0-3.999,1.789-3.999,3.999c0,2.211,1.789,3.999,3.999,3.999h19.995
			c2.21,0,3.999-1.788,3.999-3.999C395.901,189.742,394.112,187.953,391.902,187.953z"/>
	</g>
</g>
<g>
	<g>
		<path d="M391.902,163.959h-19.995c-2.21,0-3.999,1.788-3.999,3.999c0,2.21,1.789,3.999,3.999,3.999h19.995
			c2.21,0,3.999-1.789,3.999-3.999C395.901,165.747,394.112,163.959,391.902,163.959z"/>
	</g>
</g>
<g>
	<g>
		<path d="M383.904,363.909c-2.211,0-3.999,1.788-3.999,3.999v47.987c0,2.211,1.788,3.999,3.999,3.999
			c2.21,0,3.999-1.788,3.999-3.999v-47.987C387.903,365.697,386.114,363.909,383.904,363.909z"/>
	</g>
</g>
<g>
	<g>
		<path d="M391.902,411.896h-19.62c-2.21,0-3.999,1.789-3.999,3.999c0,2.211,1.789,3.999,3.999,3.999h19.62
			c2.21,0,3.999-1.788,3.999-3.999C395.901,413.685,394.112,411.896,391.902,411.896z"/>
	</g>
</g>
<g>
	<g>
		<path d="M391.902,387.903h-19.995c-2.21,0-3.999,1.788-3.999,3.998c0,2.211,1.789,4,3.999,4h19.995c2.21,0,3.999-1.789,3.999-4
			C395.901,389.691,394.112,387.903,391.902,387.903z"/>
	</g>
</g>
<g>
	<g>
		<path d="M391.902,363.909h-19.995c-2.21,0-3.999,1.788-3.999,3.999c0,2.21,1.789,3.999,3.999,3.999h19.995
			c2.21,0,3.999-1.789,3.999-3.999C395.901,365.697,394.112,363.909,391.902,363.909z"/>
	</g>
</g>
<g>
	<g>
		<path d="M139.965,259.935c-2.21,0-3.999,1.788-3.999,3.999v63.983c0,2.21,1.789,3.999,3.999,3.999
			c2.211,0,3.999-1.789,3.999-3.999v-63.983C143.964,261.723,142.175,259.935,139.965,259.935z"/>
	</g>
</g>
<g>
	<g>
		<path d="M155.961,323.918h-15.996c-2.21,0-3.999,1.789-3.999,3.999c0,2.21,1.789,3.999,3.999,3.999h15.996
			c2.21,0,3.999-1.789,3.999-3.999C159.96,325.707,158.171,323.918,155.961,323.918z"/>
	</g>
</g>
<g>
	<g>
		<path d="M155.961,259.935c-2.21,0-3.999,1.788-3.999,3.999v63.983c0,2.21,1.789,3.999,3.999,3.999c2.21,0,3.999-1.789,3.999-3.999
			v-63.983C159.96,261.723,158.171,259.935,155.961,259.935z"/>
	</g>
</g>
<g>
	<g>
		<path d="M155.961,259.935h-15.996c-2.21,0-3.999,1.788-3.999,3.999c0,2.21,1.789,3.998,3.999,3.998h15.996
			c2.21,0,3.999-1.788,3.999-3.998C159.96,261.723,158.171,259.935,155.961,259.935z"/>
	</g>
</g>
<g>
	<g>
		<path d="M166.786,253.109c-1.562-1.562-4.093-1.562-5.655,0l-7.998,7.997c-1.562,1.562-1.562,4.093,0,5.655
			c0.781,0.781,1.805,1.171,2.828,1.171s2.046-0.39,2.827-1.171l7.998-7.998C168.348,257.202,168.348,254.671,166.786,253.109z"/>
	</g>
</g>
<g>
	<g>
		<path d="M150.791,253.109c-1.562-1.562-4.093-1.562-5.655,0l-7.998,7.997c-1.562,1.562-1.562,4.093,0,5.655
			c0.781,0.781,1.804,1.171,2.827,1.171c1.024,0,2.047-0.39,2.828-1.171l7.998-7.998
			C152.353,257.202,152.353,254.671,150.791,253.109z"/>
	</g>
</g>
<g>
	<g>
		<path d="M166.786,317.092c-1.562-1.562-4.093-1.562-5.655,0l-7.998,7.998c-1.562,1.562-1.562,4.092,0,5.654
			c0.781,0.781,1.805,1.172,2.828,1.172s2.046-0.39,2.827-1.172l7.998-7.998C168.348,321.185,168.348,318.654,166.786,317.092z"/>
	</g>
</g>
<g>
	<g>
		<path d="M131.967,179.955c-2.21,0-3.999,1.789-3.999,3.999v63.984c0,2.21,1.789,3.999,3.999,3.999
			c2.211,0,3.999-1.789,3.999-3.999v-63.984C135.966,181.744,134.177,179.955,131.967,179.955z"/>
	</g>
</g>
<g>
</g>
<g>
</g>
<g>
</g>
<g>
</g>
<g>
</g>
<g>
</g>
<g>
</g>
<g>
</g>
<g>
</g>
<g>
</g>
<g>
</g>
<g>
</g>
<g>
</g>
<g>
</g>
<g>
</g>
</svg>
