<?xml version="1.0" encoding="iso-8859-1"?>
<!-- Generator: Adobe Illustrator 19.0.0, SVG Export Plug-In . SVG Version: 6.00 Build 0)  -->
<svg version="1.1" id="Capa_1" xmlns="http://www.w3.org/2000/svg" xmlns:xlink="http://www.w3.org/1999/xlink" x="0px" y="0px"
	 viewBox="0 0 511.997 511.997" style="enable-background:new 0 0 511.997 511.997;" xml:space="preserve">
<g>
	<g>
		<path d="M159.415,222.989c-1.118-1.897-3.562-2.522-5.476-1.429c-5.436,3.187-10.958,6.749-16.761,10.498
			c-26.384,17.019-59.22,38.21-117.549,43.529c-2.194,0.203-3.819,2.148-3.616,4.351c0.188,2.069,1.937,3.631,3.976,3.631
			c0.125,0,0.25-0.008,0.375-0.016c60.281-5.498,94.031-27.282,121.149-44.778c5.701-3.679,11.13-7.186,16.472-10.31
			C159.892,227.347,160.532,224.895,159.415,222.989z"/>
	</g>
</g>
<g>
	<g>
		<path d="M510.294,213.742c-73.348-51.456-164.809-30.453-208.744-20.362c-8.03,1.843-14.371,3.303-18.011,3.655
			c-12.388,1.289-24.698-3.788-36.64-14.879c-1.195-1.11-1.741-1.618-2.71-1.93c-0.961-0.335-2.023-0.257-2.937,0.172
			l-70.857,32.992c-1.999,0.93-2.874,3.312-1.937,5.311c0.937,2.016,3.335,2.883,5.311,1.938l68.483-31.883
			c13.45,12.2,27.588,17.628,42.068,16.246c4.147-0.414,10.388-1.843,19.019-3.827c42.24-9.693,129.537-29.742,199.512,17.16
			l-13.005,25.814c-19.548-6.116-117.727-33.914-189.943-0.094c-16.325,7.639-25.346,18.55-34.89,30.102
			c-16.621,20.113-33.805,40.911-93.586,50.886c-2.179,0.368-3.655,2.421-3.288,4.601c0.328,1.96,2.023,3.343,3.937,3.343
			c0.218,0,0.445-0.015,0.662-0.056c62.726-10.467,81.698-33.422,98.436-53.682c9.348-11.303,17.417-21.073,32.117-27.947
			c75.926-35.553,186.195,1.125,187.304,1.492c1.875,0.609,3.953-0.211,4.851-1.992l16.121-31.992
			C512.465,217.038,511.919,214.882,510.294,213.742z"/>
	</g>
</g>
<g>
	<g>
		<path d="M489.191,219.273c-65.523-37.522-145.597-19.128-184.087-10.294c-8.889,2.038-15.308,3.514-19.994,3.983
			c-14.591,1.382-28.814-3.007-42.256-13.294c-1.749-1.335-4.264-1.015-5.607,0.75c-1.335,1.757-1.007,4.264,0.75,5.608
			c15.098,11.552,31.251,16.519,47.902,14.895c5.194-0.515,11.825-2.039,21.003-4.147c37.49-8.607,115.494-26.501,178.322,9.435
			c0.625,0.359,1.303,0.531,1.983,0.531c1.383,0,2.733-0.719,3.467-2.015C491.776,222.811,491.112,220.367,489.191,219.273z"/>
	</g>
</g>
<g>
	<g>
		<path d="M231.569,173.324c-0.93-2.015-3.312-2.866-5.311-1.937l-23.994,11.169c-2,0.93-2.875,3.312-1.938,5.311
			c0.68,1.46,2.118,2.312,3.625,2.312c0.569,0,1.14-0.117,1.687-0.374l23.994-11.169
			C231.631,177.706,232.507,175.324,231.569,173.324z"/>
	</g>
</g>
<g>
	<g>
		<path d="M155.596,327.847C18.091,340.415,8.039,288.912,7.953,288.396c-0.336-2.163-2.367-3.616-4.515-3.358
			c-2.186,0.312-3.709,2.335-3.397,4.522s8.263,48.269,114.877,48.269c12.419,0,26.174-0.624,41.413-2.015
			c2.194-0.204,3.819-2.148,3.616-4.351C159.743,329.269,157.721,327.691,155.596,327.847z"/>
	</g>
</g>
<g>
	<g>
		<path d="M503.39,318.757l-16.199-23.994c-0.555-0.836-1.413-1.422-2.382-1.656c-2.273-0.547-57.408-13.074-217.195-0.094
			c-2.203,0.18-3.843,2.11-3.663,4.304c0.172,2.21,2.14,3.851,4.304,3.663c144.166-11.708,203.449-2.257,213.228-0.391l10.575,15.66
			c-22.72-1.999-86.431-7.256-128.147-7.256c-47.246,0-75.349,19.37-81.378,23.994h-86.58c-2.21,0-3.999,1.788-3.999,3.999
			c0,2.21,1.789,3.999,3.999,3.999h87.978c0.945,0,1.858-0.336,2.576-0.945c0.273-0.227,28.001-23.049,77.402-23.049
			c50.878,0,134.95,7.904,135.794,7.982c1.555,0.086,3.023-0.609,3.812-1.945C504.304,321.701,504.257,320.037,503.39,318.757z"/>
	</g>
</g>
<g>
	<g>
		<path d="M143.763,302.074c-0.704-2.093-2.953-3.218-5.062-2.531C73.218,321.374,6.578,285.851,5.907,285.484
			c-1.938-1.063-4.366-0.329-5.421,1.609c-1.054,1.937-0.336,4.365,1.602,5.42c2.155,1.172,41.607,22.236,90.633,22.236
			c15.504,0,31.968-2.108,48.512-7.614C143.325,306.432,144.458,304.167,143.763,302.074z"/>
	</g>
</g>
<g>
	<g>
		<path d="M172.872,213.095c-2.132-0.453-4.272,0.961-4.709,3.132l-16.121,79.98c-0.437,2.164,0.968,4.272,3.132,4.71
			c0.266,0.055,0.531,0.078,0.797,0.078c1.858,0,3.53-1.312,3.912-3.211l16.121-79.98
			C176.441,215.641,175.036,213.533,172.872,213.095z"/>
	</g>
</g>
<g>
	<g>
		<path d="M175.652,327.191L159.531,295.2c-1-1.992-3.436-2.765-5.366-1.773c-1.975,0.992-2.764,3.397-1.772,5.366l16.121,31.991
			c0.703,1.398,2.109,2.203,3.57,2.203c0.609,0,1.226-0.14,1.795-0.43C175.855,331.565,176.644,329.16,175.652,327.191z"/>
	</g>
</g>
<g>
	<g>
		<path d="M191.954,245.009c-8.818,0-15.996,7.178-15.996,15.996c0,8.818,7.178,15.996,15.996,15.996
			c8.817,0,15.996-7.178,15.996-15.996C207.95,252.187,200.772,245.009,191.954,245.009z M191.954,269.003
			c-4.413,0-7.998-3.585-7.998-7.998c0-4.413,3.585-7.998,7.998-7.998c4.413,0,7.998,3.585,7.998,7.998
			C199.952,265.418,196.367,269.003,191.954,269.003z"/>
	</g>
</g>
<g>
	<g>
		<path d="M245.596,225.889c-3.78-5.131-11.638-6.335-16.785-2.523c-0.187,0.141-18.065,15.895-12.161,23.916
			c0.906,1.211,2.718,2.663,6.225,2.663c6.312,0,16.816-4.78,20.205-7.287C248.4,238.722,249.525,231.2,245.596,225.889z
			 M238.325,236.231c-2.289,1.687-10.021,5.115-14.403,5.646c1.601-3.46,6.826-9.998,9.646-12.083
			c0.695-0.516,1.515-0.781,2.374-0.781c1.282,0,2.453,0.586,3.218,1.633C240.473,232.412,240.098,234.919,238.325,236.231z"/>
	</g>
</g>
<g>
	<g>
		<path d="M283.931,255.396c-2.211,0-3.999,1.79-3.999,4V281c0,2.211,1.788,3.999,3.999,3.999c2.21,0,3.999-1.788,3.999-3.999
			v-21.604C287.93,257.186,286.141,255.396,283.931,255.396z"/>
	</g>
</g>
<g>
</g>
<g>
</g>
<g>
</g>
<g>
</g>
<g>
</g>
<g>
</g>
<g>
</g>
<g>
</g>
<g>
</g>
<g>
</g>
<g>
</g>
<g>
</g>
<g>
</g>
<g>
</g>
<g>
</g>
</svg>
