<?xml version="1.0" encoding="iso-8859-1"?>
<!-- Generator: Adobe Illustrator 19.0.0, SVG Export Plug-In . SVG Version: 6.00 Build 0)  -->
<svg version="1.1" id="Capa_1" xmlns="http://www.w3.org/2000/svg" xmlns:xlink="http://www.w3.org/1999/xlink" x="0px" y="0px"
	 viewBox="0 0 511.871 511.871" style="enable-background:new 0 0 511.871 511.871;" xml:space="preserve">
<g>
	<g>
		<path d="M507.872,227.941H3.999c-2.21,0-3.999,1.789-3.999,3.999v95.976c0,2.21,1.789,3.999,3.999,3.999h503.874
			c2.209,0,3.999-1.789,3.998-3.999V231.94C511.871,229.73,510.082,227.941,507.872,227.941z M503.873,323.917H7.998v-87.978
			h495.875V323.917z"/>
	</g>
</g>
<g>
	<g>
		<path d="M507.872,339.913H3.999c-2.21,0-3.999,1.789-3.999,3.999v95.976c0,2.211,1.789,3.999,3.999,3.999h503.874
			c2.209,0,3.999-1.788,3.998-3.999v-95.976C511.871,341.702,510.082,339.913,507.872,339.913z M503.873,435.889H7.998v-87.978
			h495.875V435.889z"/>
	</g>
</g>
<g>
	<g>
		<path d="M11.998,179.954c-2.21,0-3.999,1.789-3.999,3.999v31.992c0,2.21,1.789,3.999,3.999,3.999c2.21,0,3.999-1.789,3.999-3.999
			v-31.992C15.997,181.743,14.208,179.954,11.998,179.954z"/>
	</g>
</g>
<g>
	<g>
		<path d="M75.982,179.954H11.998c-2.21,0-3.999,1.789-3.999,3.999c0,2.211,1.789,3.999,3.999,3.999h63.983
			c2.211,0,3.999-1.788,4-3.999C79.981,181.743,78.192,179.954,75.982,179.954z"/>
	</g>
</g>
<g>
	<g>
		<path d="M75.981,179.954c-2.21,0-3.999,1.789-3.999,3.999v31.992c0,2.21,1.789,3.999,3.999,3.999c2.211,0,3.999-1.789,3.999-3.999
			v-31.992C79.98,181.743,78.191,179.954,75.981,179.954z"/>
	</g>
</g>
<g>
	<g>
		<path d="M75.981,451.885c-2.21,0-3.999,1.788-3.999,3.999v7.998c0,2.21,1.789,3.999,3.999,3.999c2.211,0,3.999-1.789,3.999-3.999
			v-7.998C79.98,453.673,78.191,451.885,75.981,451.885z"/>
	</g>
</g>
<g>
	<g>
		<path d="M75.982,459.883H11.998c-2.21,0-3.999,1.788-3.999,3.999c0,2.21,1.789,3.999,3.999,3.999h63.983
			c2.211,0,3.999-1.789,4-3.999C79.981,461.671,78.192,459.883,75.982,459.883z"/>
	</g>
</g>
<g>
	<g>
		<path d="M11.998,451.885c-2.21,0-3.999,1.788-3.999,3.999v7.998c0,2.21,1.789,3.999,3.999,3.999c2.21,0,3.999-1.789,3.999-3.999
			v-7.998C15.997,453.673,14.208,451.885,11.998,451.885z"/>
	</g>
</g>
<g>
	<g>
		<path d="M435.89,179.954c-2.21,0-3.998,1.789-3.998,3.999v31.992c0,2.21,1.788,3.999,3.998,3.999c2.211,0,4-1.789,4-3.999v-31.992
			C439.89,181.743,438.101,179.954,435.89,179.954z"/>
	</g>
</g>
<g>
	<g>
		<path d="M499.874,179.954H435.89c-2.21,0-3.998,1.789-3.998,3.999c0,2.211,1.788,3.999,3.998,3.999h63.984
			c2.21,0,4-1.788,3.999-3.999C503.873,181.743,502.084,179.954,499.874,179.954z"/>
	</g>
</g>
<g>
	<g>
		<path d="M499.874,179.954c-2.211,0-3.999,1.789-3.999,3.999v31.992c0,2.21,1.788,3.999,3.999,3.999c2.21,0,4-1.789,3.999-3.999
			v-31.992C503.873,181.743,502.084,179.954,499.874,179.954z"/>
	</g>
</g>
<g>
	<g>
		<path d="M499.874,451.885c-2.211,0-3.999,1.788-3.999,3.999v7.998c0,2.21,1.788,3.999,3.999,3.999c2.21,0,4-1.789,3.999-3.999
			v-7.998C503.873,453.673,502.084,451.885,499.874,451.885z"/>
	</g>
</g>
<g>
	<g>
		<path d="M499.874,459.883H435.89c-2.21,0-3.998,1.788-3.998,3.999c0,2.21,1.788,3.999,3.998,3.999h63.984
			c2.21,0,4-1.789,3.999-3.999C503.873,461.671,502.084,459.883,499.874,459.883z"/>
	</g>
</g>
<g>
	<g>
		<path d="M435.89,451.885c-2.21,0-3.998,1.788-3.998,3.999v7.998c0,2.21,1.788,3.999,3.998,3.999c2.211,0,4-1.789,4-3.999v-7.998
			C439.89,453.673,438.101,451.885,435.89,451.885z"/>
	</g>
</g>
<g>
	<g>
		<path d="M43.99,267.931c-6.616,0-11.997,5.382-11.997,11.998c0,6.615,5.381,11.996,11.997,11.996
			c6.615,0,11.997-5.381,11.997-11.996C55.987,273.313,50.605,267.931,43.99,267.931z M43.99,283.927
			c-2.207,0-3.999-1.796-3.999-3.998c0-2.203,1.792-4,3.999-4c2.206,0,3.999,1.797,3.999,4
			C47.989,282.131,46.196,283.927,43.99,283.927z"/>
	</g>
</g>
<g>
	<g>
		<path d="M467.882,267.931c-6.615,0-11.997,5.382-11.997,11.998c0,6.615,5.382,11.996,11.997,11.996
			c6.616,0,11.997-5.381,11.997-11.996C479.879,273.313,474.497,267.931,467.882,267.931z M467.882,283.927
			c-2.202,0-3.999-1.796-3.999-3.998c0-2.203,1.797-4,3.999-4c2.203,0,3.999,1.797,3.999,4
			C471.881,282.131,470.085,283.927,467.882,283.927z"/>
	</g>
</g>
<g>
	<g>
		<path d="M43.99,379.904c-6.616,0-11.997,5.381-11.997,11.996c0,6.616,5.381,11.998,11.997,11.998
			c6.615,0,11.997-5.382,11.997-11.998C55.987,385.285,50.605,379.904,43.99,379.904z M43.99,395.9c-2.207,0-3.999-1.797-3.999-4
			c0-2.202,1.792-3.998,3.999-3.998c2.206,0,3.999,1.796,3.999,3.998C47.989,394.103,46.196,395.9,43.99,395.9z"/>
	</g>
</g>
<g>
	<g>
		<path d="M467.882,379.904c-6.615,0-11.997,5.381-11.997,11.996c0,6.616,5.382,11.998,11.997,11.998
			c6.616,0,11.997-5.382,11.997-11.998C479.879,385.285,474.497,379.904,467.882,379.904z M467.882,395.9
			c-2.202,0-3.999-1.797-3.999-4c0-2.202,1.797-3.998,3.999-3.998c2.203,0,3.999,1.796,3.999,3.998
			C471.881,394.103,470.085,395.9,467.882,395.9z"/>
	</g>
</g>
<g>
	<g>
		<path d="M209.667,174.12c-4.382-16.175-17.582-34.842-37.194-40.068c-13.141-3.515-34.393-2.085-61,24.525
			c-16.433,16.418-24.724,36.889-23.346,57.634c0.14,2.116,1.898,3.733,3.987,3.733c0.09,0,0.179,0,0.269-0.007
			c2.204-0.149,3.871-2.054,3.726-4.257c-1.226-18.409,6.242-36.686,21.019-51.448c18.929-18.933,37.353-26.697,53.287-22.448
			c16.445,4.382,27.876,20.917,31.535,34.429c0.574,2.133,2.776,3.398,4.905,2.812C208.987,178.447,210.245,176.252,209.667,174.12z
			"/>
	</g>
</g>
<g>
	<g>
		<path d="M168.704,148.181c-17.101-4.545-34.94,8.779-46.89,20.737c-17.586,17.574-20.046,35.46-19.011,47.363
			c0.179,2.085,1.925,3.655,3.979,3.655c0.117,0,0.231-0.008,0.35-0.015c2.199-0.187,3.827-2.132,3.636-4.327
			c-0.886-10.216,1.293-25.619,16.703-41.021c10.463-10.474,25.763-22.245,39.178-18.66c2.148,0.586,4.328-0.702,4.894-2.843
			C172.11,150.938,170.836,148.751,168.704,148.181z"/>
	</g>
</g>
<g>
	<g>
		<path d="M206.915,171.385c-2.109-0.585-4.327,0.672-4.905,2.82c-0.575,2.132,0.687,4.327,2.819,4.897
			c13.211,3.57,33.55,16.418,35.44,37.202c0.191,2.078,1.933,3.64,3.979,3.64c0.121,0,0.242-0.008,0.368-0.016
			c2.198-0.203,3.819-2.148,3.62-4.343C246.12,192.309,225.332,176.352,206.915,171.385z"/>
	</g>
</g>
<g>
	<g>
		<path d="M234.645,119.445c-0.793-2.055-3.085-3.062-5.147-2.289c-2.059,0.773-3.094,3.085-2.324,5.147
			c0.308,0.828,7.334,20.542-13.79,39.514c-1.644,1.477-1.781,4.007-0.305,5.647c0.789,0.883,1.883,1.328,2.976,1.328
			c0.953,0,1.91-0.336,2.672-1.023C244.088,144.993,235.039,120.476,234.645,119.445z"/>
	</g>
</g>
<g>
	<g>
		<path d="M405.508,149.321c-19.136-19.128-50.269-19.112-69.373,0.008c-1.562,1.562-1.562,4.093,0,5.655
			c1.562,1.562,4.093,1.562,5.655,0c16.002-15.996,42.043-16.012,58.063-0.008c7.756,7.756,12.027,18.065,12.027,29.039
			c0,10.966-4.271,21.276-12.027,29.032c-1.562,1.562-1.562,4.092,0,5.654c0.781,0.781,1.804,1.172,2.827,1.172
			c1.024,0,2.046-0.39,2.828-1.171c9.271-9.263,14.371-21.581,14.371-34.687C419.879,170.91,414.779,158.585,405.508,149.321z"/>
	</g>
</g>
<g>
	<g>
		<path d="M341.79,149.329c-1.562-1.562-4.093-1.562-5.655,0c-18.152,18.152-37.303,40.381-55.393,64.289
			c-1.335,1.765-0.984,4.272,0.773,5.6c0.726,0.546,1.57,0.812,2.414,0.812c1.211,0,2.405-0.547,3.187-1.586
			c17.87-23.619,36.78-45.566,54.674-63.46C343.352,153.422,343.352,150.891,341.79,149.329z"/>
	</g>
</g>
<g>
	<g>
		<path d="M408.531,175.674c-0.071-0.024-7.365-2.632-17.051-12.317c-9.693-9.686-12.294-16.973-12.317-17.043
			c-0.703-2.078-2.944-3.218-5.046-2.515c-2.093,0.695-3.233,2.96-2.538,5.053c0.117,0.359,3.069,8.998,14.246,20.159
			c11.161,11.162,19.792,14.122,20.151,14.247c0.422,0.141,0.844,0.203,1.266,0.203c1.656,0,3.21-1.054,3.772-2.71
			C411.725,178.666,410.608,176.4,408.531,175.674z"/>
	</g>
</g>
<g>
	<g>
		<path d="M430.767,92.203c-1.562-1.562-4.093-1.562-5.655,0l-36.631,36.631c-1.562,1.562-1.562,4.093,0,5.655
			c0.78,0.781,1.804,1.172,2.827,1.172c1.024,0,2.047-0.391,2.827-1.172l36.632-36.631
			C432.329,96.296,432.329,93.765,430.767,92.203z"/>
	</g>
</g>
<g>
	<g>
		<path d="M499.047,45.161c-1.562-1.562-4.092-1.562-5.654,0l-88.979,88.985c-1.562,1.562-1.562,4.093,0,5.655
			c0.781,0.78,1.805,1.171,2.828,1.171s2.046-0.391,2.827-1.171l88.978-88.985C500.609,49.254,500.609,46.723,499.047,45.161z"/>
	</g>
</g>
<g>
	<g>
		<path d="M470.711,94.748c-1.562-1.562-4.093-1.562-5.655,0l-50.019,50.019c-1.562,1.562-1.562,4.093,0,5.655
			c0.781,0.781,1.804,1.172,2.827,1.172c1.023,0,2.046-0.39,2.827-1.172l50.02-50.019C472.273,98.84,472.273,96.31,470.711,94.748z"
			/>
	</g>
</g>
<g>
	<g>
		<path d="M366.813,186.649c-12.262-7.366-13.942-12.755-14.051-13.138c-0.343-2.101-2.335-3.538-4.397-3.335
			c-2.194,0.258-3.772,2.234-3.522,4.429c0.172,1.467,1.821,9.262,17.847,18.901c0.648,0.382,1.359,0.57,2.062,0.57
			c1.351,0,2.679-0.688,3.428-1.937C369.321,190.242,368.704,187.789,366.813,186.649z"/>
	</g>
</g>
<g>
	<g>
		<path d="M446.638,140.066c-1.562-1.562-4.093-1.562-5.655,0l-20.636,20.635c-1.562,1.562-1.562,4.093,0,5.655
			c0.781,0.781,1.805,1.171,2.828,1.171c1.024,0,2.046-0.39,2.827-1.171l20.636-20.636C448.2,144.158,448.2,141.628,446.638,140.066
			z"/>
	</g>
</g>
<g>
	<g>
		<path d="M247.938,139.964c-8.822,0-15.996,8.747-15.996,19.495c0,10.747,7.174,19.495,15.996,19.495
			c4.827,0,39.99-5.991,39.99-19.495C287.928,145.954,252.765,139.964,247.938,139.964z M247.938,170.956
			c-4.335,0-7.998-5.265-7.998-11.497c0-6.233,3.663-11.497,7.998-11.497c7.838,0,31.211,7.28,31.992,11.466
			C279.149,163.676,255.776,170.956,247.938,170.956z"/>
	</g>
</g>
<g>
</g>
<g>
</g>
<g>
</g>
<g>
</g>
<g>
</g>
<g>
</g>
<g>
</g>
<g>
</g>
<g>
</g>
<g>
</g>
<g>
</g>
<g>
</g>
<g>
</g>
<g>
</g>
<g>
</g>
</svg>
