<?xml version="1.0" encoding="iso-8859-1"?>
<!-- Generator: Adobe Illustrator 19.0.0, SVG Export Plug-In . SVG Version: 6.00 Build 0)  -->
<svg version="1.1" id="Capa_1" xmlns="http://www.w3.org/2000/svg" xmlns:xlink="http://www.w3.org/1999/xlink" x="0px" y="0px"
	 viewBox="0 0 511.874 511.874" style="enable-background:new 0 0 511.874 511.874;" xml:space="preserve">
<g>
	<g>
		<path d="M253.029,229.217c-10.517-11.825-49.226-30.125-63.719-30.125c-3.37,0-5.87,0.913-7.432,2.718
			c-8.268,9.536,8.521,60.789,19.534,73.216c6.545,7.373,15.957,11.599,25.822,11.599c8.446,0,16.577-3.093,22.901-8.702
			c6.89-6.115,10.986-14.543,11.537-23.744C262.221,244.979,259.152,236.114,253.029,229.217z M253.688,253.704
			c-0.426,7.068-3.57,13.544-8.865,18.238c-10.529,9.348-28.099,8.287-37.428-2.227c-11.169-12.598-22.795-57.189-19.765-62.422
			c0.004,0,0.434-0.203,1.679-0.203c12.462,0,48.617,17.184,57.739,27.439C251.75,239.825,254.11,246.636,253.688,253.704z"/>
	</g>
</g>
<g>
	<g>
		<path d="M222.395,239.285c-1.976-0.992-4.374-0.179-5.366,1.789c-0.988,1.976-0.188,4.374,1.789,5.366
			c0.371,0.188,37.115,19.097,37.115,64.094c0,2.21,1.788,3.998,3.999,3.998c2.21,0,3.999-1.788,3.999-3.999
			C263.931,260.646,224.093,240.137,222.395,239.285z"/>
	</g>
</g>
<g>
	<g>
		<path d="M338.433,232.788c-1.227-2.835-4.218-4.28-8.889-4.28c-12.247,0-38.365,9.669-46.004,15.074
			c-5.233,3.702-8.717,9.216-9.795,15.535c-1.084,6.318,0.36,12.677,4.062,17.909c4.499,6.35,11.825,10.139,19.604,10.139
			c4.967,0,9.755-1.524,13.826-4.405C319.656,276.823,342.853,242.98,338.433,232.788z M306.627,276.228
			c-6.983,4.921-17.387,3.11-22.299-3.826c-2.461-3.485-3.43-7.725-2.703-11.936c0.726-4.209,3.039-7.888,6.522-10.356
			c6.53-4.607,31.203-13.605,41.396-13.605c0.688,0,1.188,0.047,1.531,0.101C330.621,243.479,314.891,270.394,306.627,276.228z"/>
	</g>
</g>
<g>
	<g>
		<path d="M311.436,252.658c-1.046-1.945-3.466-2.679-5.404-1.64c-0.937,0.5-23.134,12.575-41.481,41.372
			c-1.183,1.859-0.636,4.334,1.226,5.522c0.664,0.422,1.407,0.625,2.141,0.625c1.329,0,2.617-0.657,3.38-1.851
			c17.159-26.923,38.295-38.498,38.506-38.615C311.748,257.025,312.483,254.603,311.436,252.658z"/>
	</g>
</g>
<g>
	<g>
		<path d="M435.891,503.876H75.983c-2.211,0-3.999,1.788-3.999,3.998c0,2.211,1.788,4,3.999,4h359.908c2.211,0,4-1.79,4-4
			C439.891,505.664,438.102,503.876,435.891,503.876z"/>
	</g>
</g>
<g>
	<g>
		<path d="M93.767,472.306c-1.971-0.992-4.374-0.188-5.366,1.788l-15.995,31.992c-0.988,1.975-0.188,4.374,1.788,5.366
			c0.574,0.289,1.183,0.422,1.785,0.422c1.468,0,2.878-0.813,3.581-2.211l15.996-31.992
			C96.543,475.696,95.744,473.298,93.767,472.306z"/>
	</g>
</g>
<g>
	<g>
		<path d="M439.469,506.086l-15.996-31.992c-0.992-1.976-3.39-2.78-5.366-1.788c-1.976,0.992-2.772,3.389-1.788,5.365l15.995,31.992
			c0.703,1.399,2.109,2.211,3.577,2.211c0.609,0,1.219-0.133,1.789-0.422C439.657,510.46,440.452,508.062,439.469,506.086z"/>
	</g>
</g>
<g>
	<g>
		<path d="M419.895,471.883H91.978c-2.21,0-3.998,1.789-3.998,3.999c0,2.21,1.788,3.999,3.998,3.999h327.917
			c2.211,0,4-1.789,4-3.999C423.895,473.672,422.106,471.883,419.895,471.883z"/>
	</g>
</g>
<g>
	<g>
		<path d="M435.891,0.002H75.983c-2.211,0-3.999,1.789-3.999,3.999c0,2.21,1.788,3.999,3.999,3.999h359.908c2.211,0,4-1.789,4-3.999
			C439.891,1.791,438.102,0.002,435.891,0.002z"/>
	</g>
</g>
<g>
	<g>
		<path d="M437.68,0.425c-1.976-0.992-4.374-0.18-5.366,1.788l-15.995,31.992c-0.984,1.976-0.188,4.374,1.788,5.366
			c0.57,0.288,1.18,0.421,1.788,0.421c1.469,0,2.875-0.812,3.578-2.209l15.996-31.992C440.452,3.815,439.657,1.417,437.68,0.425z"/>
	</g>
</g>
<g>
	<g>
		<path d="M95.556,34.204L79.56,2.212c-0.988-1.968-3.397-2.78-5.366-1.788c-1.976,0.992-2.776,3.39-1.788,5.366l15.995,31.992
			c0.703,1.398,2.113,2.21,3.581,2.21c0.601,0,1.211-0.133,1.785-0.422C95.744,38.578,96.543,36.18,95.556,34.204z"/>
	</g>
</g>
<g>
	<g>
		<path d="M419.895,31.994H91.978c-2.21,0-3.998,1.789-3.998,3.999c0,2.21,1.788,3.999,3.998,3.999h327.917c2.211,0,4-1.788,4-3.999
			C423.895,33.782,422.106,31.994,419.895,31.994z"/>
	</g>
</g>
<g>
	<g>
		<path d="M95.724,458.48c-0.238-0.632-23.74-64.897-23.74-202.542c0-137.404,23.502-201.91,23.74-202.551
			c0.772-2.061-0.278-4.366-2.344-5.139c-2.057-0.805-4.374,0.273-5.147,2.335c-0.987,2.64-24.247,66.264-24.247,205.354
			s23.26,202.714,24.247,205.354c0.601,1.602,2.129,2.594,3.745,2.594c0.469,0,0.941-0.078,1.406-0.258
			C95.451,462.854,96.496,460.55,95.724,458.48z"/>
	</g>
</g>
<g>
	<g>
		<path d="M423.645,50.582c-0.781-2.062-3.078-3.124-5.155-2.335c-2.062,0.773-3.109,3.078-2.343,5.147
			c0.242,0.633,23.744,64.897,23.744,202.543c0,137.403-23.502,201.91-23.744,202.55c-0.765,2.063,0.281,4.367,2.343,5.14
			c0.468,0.18,0.937,0.258,1.405,0.258c1.625,0,3.141-0.992,3.75-2.595c0.983-2.64,24.243-66.265,24.243-205.354
			S424.628,53.222,423.645,50.582z"/>
	</g>
</g>
<g>
	<g>
		<path d="M115.972,471.883c-2.21,0-3.999,1.789-3.999,3.999v7.998c0,2.21,1.789,3.999,3.999,3.999c2.211,0,3.999-1.789,3.999-3.999
			v-7.998C119.971,473.672,118.183,471.883,115.972,471.883z"/>
	</g>
</g>
<g>
	<g>
		<path d="M155.962,471.883c-2.21,0-3.999,1.789-3.999,3.999v7.998c0,2.21,1.789,3.999,3.999,3.999c2.21,0,3.999-1.789,3.999-3.999
			v-7.998C159.961,473.672,158.172,471.883,155.962,471.883z"/>
	</g>
</g>
<g>
	<g>
		<path d="M195.953,471.883c-2.211,0-3.999,1.789-3.999,3.999v7.998c0,2.21,1.788,3.999,3.999,3.999c2.21,0,3.999-1.789,3.999-3.999
			v-7.998C199.952,473.672,198.163,471.883,195.953,471.883z"/>
	</g>
</g>
<g>
	<g>
		<path d="M235.942,471.883c-2.21,0-3.999,1.789-3.999,3.999v7.998c0,2.21,1.789,3.999,3.999,3.999c2.211,0,3.999-1.789,3.999-3.999
			v-7.998C239.941,473.672,238.153,471.883,235.942,471.883z"/>
	</g>
</g>
<g>
	<g>
		<path d="M275.932,471.883c-2.211,0-3.999,1.789-3.999,3.999v7.998c0,2.21,1.788,3.999,3.999,3.999c2.21,0,3.999-1.789,3.999-3.999
			v-7.998C279.931,473.672,278.142,471.883,275.932,471.883z"/>
	</g>
</g>
<g>
	<g>
		<path d="M315.922,471.883c-2.211,0-4,1.789-4,3.999v7.998c0,2.21,1.789,3.999,4,3.999c2.21,0,3.998-1.789,3.998-3.999v-7.998
			C319.92,473.672,318.132,471.883,315.922,471.883z"/>
	</g>
</g>
<g>
	<g>
		<path d="M355.912,471.883c-2.21,0-3.999,1.789-3.999,3.999v7.998c0,2.21,1.789,3.999,3.999,3.999c2.21,0,3.999-1.789,3.999-3.999
			v-7.998C359.911,473.672,358.122,471.883,355.912,471.883z"/>
	</g>
</g>
<g>
	<g>
		<path d="M395.902,471.883c-2.211,0-3.999,1.789-3.999,3.999v7.998c0,2.21,1.788,3.999,3.999,3.999c2.21,0,3.999-1.789,3.999-3.999
			v-7.998C399.901,473.672,398.112,471.883,395.902,471.883z"/>
	</g>
</g>
<g>
	<g>
		<path d="M115.972,23.996c-2.21,0-3.999,1.788-3.999,3.999v7.998c0,2.21,1.789,3.999,3.999,3.999c2.211,0,3.999-1.788,3.999-3.999
			v-7.998C119.971,25.784,118.183,23.996,115.972,23.996z"/>
	</g>
</g>
<g>
	<g>
		<path d="M155.962,23.996c-2.21,0-3.999,1.788-3.999,3.999v7.998c0,2.21,1.789,3.999,3.999,3.999c2.21,0,3.999-1.788,3.999-3.999
			v-7.998C159.961,25.784,158.172,23.996,155.962,23.996z"/>
	</g>
</g>
<g>
	<g>
		<path d="M195.953,23.996c-2.211,0-3.999,1.788-3.999,3.999v7.998c0,2.21,1.788,3.999,3.999,3.999c2.21,0,3.999-1.788,3.999-3.999
			v-7.998C199.952,25.784,198.163,23.996,195.953,23.996z"/>
	</g>
</g>
<g>
	<g>
		<path d="M235.942,23.996c-2.21,0-3.999,1.788-3.999,3.999v7.998c0,2.21,1.789,3.999,3.999,3.999c2.211,0,3.999-1.788,3.999-3.999
			v-7.998C239.941,25.784,238.153,23.996,235.942,23.996z"/>
	</g>
</g>
<g>
	<g>
		<path d="M275.932,23.996c-2.211,0-3.999,1.788-3.999,3.999v7.998c0,2.21,1.788,3.999,3.999,3.999c2.21,0,3.999-1.788,3.999-3.999
			v-7.998C279.931,25.784,278.142,23.996,275.932,23.996z"/>
	</g>
</g>
<g>
	<g>
		<path d="M315.922,23.996c-2.211,0-4,1.788-4,3.999v7.998c0,2.21,1.789,3.999,4,3.999c2.21,0,3.998-1.788,3.998-3.999v-7.998
			C319.92,25.784,318.132,23.996,315.922,23.996z"/>
	</g>
</g>
<g>
	<g>
		<path d="M355.912,23.996c-2.21,0-3.999,1.788-3.999,3.999v7.998c0,2.21,1.789,3.999,3.999,3.999c2.21,0,3.999-1.788,3.999-3.999
			v-7.998C359.911,25.784,358.122,23.996,355.912,23.996z"/>
	</g>
</g>
<g>
	<g>
		<path d="M395.902,23.996c-2.211,0-3.999,1.788-3.999,3.999v7.998c0,2.21,1.788,3.999,3.999,3.999c2.21,0,3.999-1.788,3.999-3.999
			v-7.998C399.901,25.784,398.112,23.996,395.902,23.996z"/>
	</g>
</g>
<g>
	<g>
		<path d="M374.738,249.091l-6.037-6.045l5.021-6.912c0.625-0.859,0.883-1.93,0.719-2.976c-0.172-1.047-0.75-1.992-1.601-2.609
			l-6.929-5.03l3.891-7.631c0.999-1.969,0.219-4.374-1.75-5.374l-7.623-3.89l2.632-8.123c0.679-2.101-0.461-4.35-2.562-5.038
			l-8.131-2.647l1.336-8.443c0.336-2.179-1.148-4.226-3.32-4.577l-8.442-1.335v-8.537c0-2.21-1.789-3.999-3.999-3.999h-8.553
			l-1.328-8.451c-0.172-1.046-0.743-1.983-1.601-2.608c-0.852-0.625-1.93-0.891-2.976-0.719l-8.451,1.344l-2.648-8.146
			c-0.687-2.102-2.952-3.233-5.037-2.562l-8.139,2.648l-3.874-7.607c-1-1.977-3.405-2.742-5.374-1.758l-7.639,3.882l-4.998-6.904
			c-1.305-1.781-3.813-2.179-5.593-0.883l-6.92,5.022l-6.034-6.045c-0.75-0.749-1.768-1.171-2.827-1.171h-0.004
			c-1.058,0-2.077,0.421-2.827,1.171l-6.058,6.045l-6.896-5.022c-0.86-0.625-1.925-0.882-2.976-0.718
			c-1.047,0.163-1.988,0.742-2.612,1.601l-5.034,6.912l-7.604-3.882c-1.965-1-4.378-0.219-5.382,1.742l-3.901,7.631l-8.123-2.632
			c-2.104-0.671-4.349,0.46-5.033,2.562l-2.656,8.131l-8.431-1.344c-2.223-0.305-4.233,1.148-4.577,3.327l-1.348,8.451h-8.537
			c-2.206,0-3.995,1.788-3.999,3.991l-0.016,8.553l-8.419,1.328c-2.18,0.343-3.668,2.39-3.328,4.569l1.324,8.475l-8.111,2.624
			c-2.096,0.679-3.249,2.929-2.573,5.03l2.628,8.154l-7.604,3.874c-1.964,1-2.749,3.406-1.749,5.374l3.87,7.623l-6.894,5.014
			c-1.785,1.297-2.183,3.788-0.89,5.577l4.994,6.912l-6.045,6.053c-0.75,0.75-1.172,1.766-1.172,2.828
			c0,1.062,0.422,2.077,1.172,2.827l6.045,6.037l-5.021,6.921c-1.297,1.788-0.898,4.288,0.886,5.584l6.913,5.022l-3.886,7.631
			c-1.004,1.969-0.223,4.374,1.745,5.373l7.623,3.891l-2.644,8.123c-0.683,2.093,0.465,4.349,2.562,5.037l8.135,2.656l-1.344,8.435
			c-0.168,1.054,0.09,2.125,0.711,2.983c0.625,0.86,1.562,1.43,2.613,1.602l8.454,1.336l-0.012,8.545
			c0,1.062,0.418,2.085,1.168,2.835c0.754,0.749,1.769,1.171,2.831,1.171h8.561l1.32,8.428c0.164,1.055,0.743,1.992,1.597,2.617
			c0.863,0.625,1.933,0.875,2.98,0.719l8.454-1.344l2.633,8.139c0.324,1.008,1.038,1.843,1.983,2.327
			c0.95,0.484,2.051,0.578,3.054,0.242l8.15-2.647l3.854,7.631c0.48,0.945,1.316,1.663,2.328,1.999
			c1.019,0.336,2.117,0.25,3.058-0.242l7.639-3.897l5.007,6.928c0.624,0.859,1.561,1.437,2.612,1.609
			c1.019,0.14,2.116-0.094,2.979-0.719l6.92-5.029l6.042,6.053c0.75,0.758,1.765,1.18,2.827,1.18c0.004,0,0.004,0,0.004,0
			c1.063,0,2.078-0.422,2.83-1.174l6.062-6.061l6.896,5.037c0.86,0.633,1.921,0.875,2.976,0.727c1.055-0.164,2-0.743,2.625-1.602
			l5.029-6.943l7.607,3.89c0.946,0.484,2.047,0.578,3.054,0.242c1.008-0.328,1.851-1.038,2.328-1.991l3.882-7.623l8.123,2.647
			c2.093,0.671,4.357-0.469,5.045-2.562l2.656-8.139l8.443,1.352c1.053,0.156,2.116-0.094,2.983-0.719
			c0.859-0.625,1.429-1.562,1.601-2.609l1.328-8.459l8.545,0.023c0.008,0,0.016,0,0.016,0c1.062,0,2.077-0.422,2.827-1.171
			c0.75-0.75,1.172-1.765,1.172-2.827v-8.584l8.427-1.305c1.055-0.164,1.992-0.735,2.617-1.594c0.633-0.858,0.891-1.936,0.719-2.983
			l-1.344-8.458l8.139-2.602c1.008-0.328,1.844-1.039,2.327-1.991c0.484-0.946,0.578-2.047,0.25-3.054l-2.655-8.178l7.631-3.859
			c0.945-0.483,1.664-1.319,1.992-2.327c0.335-1.015,0.25-2.109-0.234-3.062l-3.898-7.639l6.929-4.976
			c0.858-0.625,1.444-1.561,1.608-2.616c0.172-1.046-0.078-2.125-0.711-2.983l-5.053-6.952l6.045-6.053
			C376.3,253.184,376.3,250.653,374.738,249.091z M360.624,257.561c-1.39,1.391-1.562,3.585-0.406,5.179l4.694,6.467l-6.452,4.632
			c-1.601,1.156-2.124,3.303-1.226,5.069l3.632,7.123l-7.1,3.593c-1.758,0.891-2.609,2.929-2,4.804l2.477,7.615l-7.576,2.429
			c-1.882,0.61-3.046,2.492-2.734,4.437l1.25,7.881l-7.85,1.211c-1.953,0.305-3.39,1.983-3.39,3.952l0.008,8.005l-7.967-0.023
			c0,0,0,0-0.008,0c-1.968,0-3.647,1.43-3.944,3.375l-1.25,7.881l-7.857-1.258c-1.937-0.266-3.828,0.844-4.437,2.71l-2.476,7.592
			l-7.568-2.468c-1.883-0.61-3.921,0.234-4.804,1.992l-3.616,7.1l-7.092-3.633c-1.75-0.89-3.906-0.366-5.062,1.211l-4.687,6.475
			l-6.428-4.693c-1.586-1.18-3.796-0.993-5.186,0.398l-5.644,5.646l-5.628-5.639c-0.773-0.782-1.8-1.18-2.831-1.18
			c-0.82,0-1.647,0.25-2.353,0.763l-6.447,4.686l-4.663-6.451c-1.153-1.593-3.296-2.109-5.058-1.219l-7.115,3.625l-3.589-7.1
			c-0.887-1.758-2.941-2.609-4.804-2l-7.6,2.468l-2.452-7.584c-0.606-1.866-2.5-3.015-4.429-2.718l-7.877,1.25l-1.23-7.85
			c-0.305-1.945-1.983-3.383-3.952-3.383h-7.979l0.012-7.958c0.004-1.969-1.429-3.648-3.374-3.96l-7.877-1.25l1.25-7.85
			c0.309-1.946-0.836-3.828-2.706-4.437L157.639,302l2.468-7.576c0.61-1.867-0.234-3.905-1.988-4.796l-7.107-3.624l3.62-7.107
			c0.894-1.75,0.379-3.89-1.21-5.046l-6.44-4.679l4.683-6.451c1.156-1.594,0.981-3.788-0.41-5.179l-5.635-5.623l5.627-5.632
			c1.391-1.39,1.562-3.577,0.414-5.17l-4.655-6.444l6.425-4.67c1.589-1.155,2.105-3.288,1.214-5.045l-3.604-7.108l7.08-3.608
			c1.75-0.891,2.594-2.922,1.992-4.788l-2.448-7.592l7.561-2.453c1.866-0.601,3.019-2.475,2.718-4.42l-1.234-7.896l7.842-1.234
			c1.941-0.304,3.37-1.976,3.374-3.944l0.016-7.975h7.959c1.965,0,3.639-1.43,3.948-3.374l1.254-7.873l7.854,1.25
			c1.929,0.305,3.82-0.843,4.429-2.71l2.476-7.576l7.572,2.453c1.871,0.609,3.898-0.234,4.796-1.984l3.632-7.107l7.084,3.616
			c1.77,0.898,3.902,0.391,5.054-1.211l4.69-6.443l6.424,4.687c1.593,1.156,3.777,0.992,5.182-0.406l5.647-5.64l5.616,5.632
			c1.398,1.39,3.596,1.577,5.174,0.406l6.467-4.679l4.655,6.428c1.157,1.578,3.281,2.094,5.054,1.219l7.115-3.616l3.616,7.092
			c0.883,1.758,2.929,2.601,4.804,1.992l7.576-2.468l2.468,7.592c0.61,1.875,2.532,2.991,4.429,2.71l7.865-1.25l1.234,7.873
			c0.312,1.944,1.983,3.374,3.952,3.374h7.975v7.951c0,1.968,1.428,3.64,3.366,3.952l7.873,1.25l-1.242,7.857
			c-0.305,1.945,0.844,3.819,2.711,4.428l7.576,2.469l-2.461,7.576c-0.602,1.874,0.234,3.905,1.992,4.795l7.1,3.624l-3.616,7.116
			c-0.89,1.749-0.375,3.889,1.218,5.045l6.437,4.678l-4.671,6.436c-1.156,1.593-0.985,3.788,0.406,5.178l5.623,5.64L360.624,257.561
			z"/>
	</g>
</g>
<g>
	<g>
		<path d="M427.768,191.938h-55.86c-2.21,0-3.999,1.789-3.999,3.999c0,2.211,1.789,3.999,3.999,3.999h55.86c2.211,0,4-1.788,4-3.999
			C431.768,193.727,429.979,191.938,427.768,191.938z"/>
	</g>
</g>
<g>
	<g>
		<path d="M427.768,303.91h-55.86c-2.21,0-3.999,1.789-3.999,3.999c0,2.211,1.789,3.999,3.999,3.999h55.86c2.211,0,4-1.788,4-3.999
			C431.768,305.699,429.979,303.91,427.768,303.91z"/>
	</g>
</g>
<g>
	<g>
		<path d="M139.904,191.938h-55.86c-2.211,0-3.999,1.789-3.999,3.999c0,2.211,1.788,3.999,3.999,3.999h55.86
			c2.211,0,3.999-1.788,3.999-3.999C143.903,193.727,142.115,191.938,139.904,191.938z"/>
	</g>
</g>
<g>
	<g>
		<path d="M139.904,303.91h-55.86c-2.211,0-3.999,1.789-3.999,3.999c0,2.211,1.788,3.999,3.999,3.999h55.86
			c2.211,0,3.999-1.788,3.999-3.999C143.903,305.699,142.115,303.91,139.904,303.91z"/>
	</g>
</g>
<g>
	<g>
		<path d="M371.907,79.982H139.966c-2.21,0-3.999,1.789-3.999,3.999v15.996c0,2.21,1.789,3.999,3.999,3.999h231.942
			c2.21,0,3.999-1.789,3.998-3.999V83.981C375.906,81.771,374.117,79.982,371.907,79.982z M367.908,95.978H143.965V87.98h223.943
			V95.978z"/>
	</g>
</g>
<g>
	<g>
		<path d="M371.907,407.899H139.966c-2.21,0-3.999,1.789-3.999,3.999c0,2.211,1.789,3.999,3.999,3.999h231.942
			c2.21,0,3.999-1.788,3.998-3.999C375.906,409.688,374.117,407.899,371.907,407.899z"/>
	</g>
</g>
<g>
	<g>
		<path d="M307.925,423.895H203.951c-2.211,0-3.999,1.789-3.999,3.999c0,2.211,1.788,3.999,3.999,3.999h103.973
			c2.21,0,3.998-1.788,3.999-3.999C311.923,425.684,310.135,423.895,307.925,423.895z"/>
	</g>
</g>
<g>
</g>
<g>
</g>
<g>
</g>
<g>
</g>
<g>
</g>
<g>
</g>
<g>
</g>
<g>
</g>
<g>
</g>
<g>
</g>
<g>
</g>
<g>
</g>
<g>
</g>
<g>
</g>
<g>
</g>
</svg>
