<?xml version="1.0" encoding="iso-8859-1"?>
<!-- Generator: Adobe Illustrator 19.0.0, SVG Export Plug-In . SVG Version: 6.00 Build 0)  -->
<svg version="1.1" id="Capa_1" xmlns="http://www.w3.org/2000/svg" xmlns:xlink="http://www.w3.org/1999/xlink" x="0px" y="0px"
	 viewBox="0 0 511.872 511.872" style="enable-background:new 0 0 511.872 511.872;" xml:space="preserve">
<g>
	<g>
		<path d="M313.507,182.915c-1.14-1.898-3.593-2.5-5.49-1.367c-76.931,46.246-72.291,100.506-72.057,102.786
			c0.215,2.063,1.949,3.594,3.976,3.594c0.137,0,0.273-0.008,0.414-0.023c2.194-0.227,3.792-2.188,3.569-4.383
			c-0.054-0.514-4.401-51.463,68.221-95.116C314.03,187.266,314.647,184.813,313.507,182.915z"/>
	</g>
</g>
<g>
	<g>
		<path d="M372.657,143.035c-2.796-2.796-7.975-4.101-16.293-4.101c-25.087,0-75.115,12.583-91.891,25.455
			c-10.474,8.021-17.196,19.643-18.925,32.718c-1.73,13.074,1.738,26.04,9.759,36.506c9.424,12.294,23.724,19.347,39.236,19.347
			c10.927,0,21.308-3.523,30.001-10.185c18.542-14.207,49.394-68.951,50.792-90.11C375.625,148.276,374.75,145.128,372.657,143.035z
			 M367.245,153.314c-2.436,20.182-31.336,70.67-47.566,83.12c-7.287,5.576-15.981,8.529-25.134,8.529
			c-13.005,0-24.986-5.905-32.886-16.207c-6.726-8.78-9.631-19.644-8.182-30.602c1.448-10.959,7.08-20.698,15.863-27.423
			c15.394-11.802,63.616-23.799,87.024-23.799c8.787,0,10.567,1.687,10.631,1.743C367.003,148.683,367.69,149.659,367.245,153.314z"
			/>
	</g>
</g>
<g>
	<g>
		<path d="M212.814,186.726c-6.935-2.96-20.475-4.725-36.221-4.725c-16.858,0-37.455,1.788-39.837,10.278
			c-3.394,12.162,33.659,51.347,48.905,57.892c4.327,1.852,8.892,2.789,13.563,2.789c13.84,0,26.298-8.217,31.738-20.941
			C238.444,214.539,230.306,194.217,212.814,186.726z M223.613,228.88c-4.182,9.771-13.754,16.082-24.388,16.082
			c-3.585,0-7.088-0.718-10.412-2.148c-15.473-6.631-45.016-42.005-44.512-48.027c1.554-1.93,12.895-4.788,32.292-4.788
			c14.281,0,27.266,1.609,33.079,4.085C223.106,199.832,229.358,215.445,223.613,228.88z"/>
	</g>
</g>
<g>
	<g>
		<path d="M195.42,207.767l-3.862-1.897c-1.972-0.976-4.378-0.179-5.362,1.812c-0.981,1.976-0.168,4.374,1.808,5.358l3.897,1.913
			c21.702,10.639,36.042,17.661,36.042,52.979c0,2.211,1.789,4,3.999,4c2.21,0,3.999-1.789,3.999-4.001
			C235.941,227.621,218.059,218.866,195.42,207.767z"/>
	</g>
</g>
<g>
	<g>
		<path d="M231.942,367.908c-2.21,0-3.999,1.788-3.999,3.999V475.88c0,2.21,1.789,3.999,3.999,3.999c2.21,0,3.999-1.789,3.999-3.998
			V371.907C235.941,369.696,234.152,367.908,231.942,367.908z"/>
	</g>
</g>
<g>
	<g>
		<path d="M279.93,367.908c-2.211,0-3.999,1.788-3.999,3.999V475.88c0,2.21,1.788,3.999,3.999,3.999c2.21,0,3.999-1.789,3.999-3.998
			V371.907C283.929,369.696,282.14,367.908,279.93,367.908z"/>
	</g>
</g>
<g>
	<g>
		<path d="M231.942,31.992c-2.21,0-3.999,1.789-3.999,3.999v15.996c0,2.21,1.789,3.999,3.999,3.999c2.21,0,3.999-1.788,3.999-3.999
			V35.991C235.941,33.78,234.152,31.992,231.942,31.992z"/>
	</g>
</g>
<g>
	<g>
		<path d="M279.93,31.992c-2.211,0-3.999,1.789-3.999,3.999v15.996c0,2.21,1.788,3.999,3.999,3.999c2.21,0,3.999-1.788,3.999-3.999
			V35.991C283.929,33.78,282.14,31.992,279.93,31.992z"/>
	</g>
</g>
<g>
	<g>
		<path d="M455.886,63.984H39.991c-2.21,0-3.999,1.789-3.999,3.999v287.928c0,2.21,1.789,3.999,3.999,3.999h415.894
			c2.211,0,3.999-1.789,4-3.999V67.983C459.885,65.773,458.097,63.984,455.886,63.984z M451.886,351.912H43.99V71.982h407.896
			V351.912z"/>
	</g>
</g>
<g>
	<g>
		<path d="M259.135,505.474l-23.994-31.991c-1.324-1.774-3.835-2.141-5.596-0.805c-1.77,1.328-2.129,3.835-0.801,5.6l23.994,31.992
			c0.785,1.047,1.983,1.602,3.202,1.602c0.836,0,1.675-0.258,2.394-0.797C260.104,509.746,260.463,507.24,259.135,505.474z"/>
	</g>
</g>
<g>
	<g>
		<path d="M282.327,472.678c-1.758-1.32-4.273-0.961-5.592,0.805l-23.998,31.991c-1.328,1.766-0.969,4.273,0.801,5.601
			c0.719,0.539,1.558,0.797,2.394,0.797c1.219,0,2.417-0.555,3.202-1.602l23.998-31.992
			C284.46,476.513,284.1,474.005,282.327,472.678z"/>
	</g>
</g>
<g>
	<g>
		<path d="M227.943,23.995c-4.409,0-7.998-3.585-7.998-7.998c0-4.413,3.589-7.998,7.998-7.998c2.211,0,3.999-1.789,3.999-3.999
			c0-2.21-1.788-3.999-3.999-3.999c-8.822,0-15.996,7.178-15.996,15.996c0,8.818,7.174,15.996,15.996,15.996
			c2.211,0,3.999-1.789,3.999-3.999C231.942,25.783,230.154,23.995,227.943,23.995z"/>
	</g>
</g>
<g>
	<g>
		<path d="M239.94,23.995h-11.997c-2.21,0-3.999,1.788-3.999,3.999c0,2.21,1.789,3.999,3.999,3.999h11.997
			c2.21,0,3.999-1.789,3.999-3.999C243.939,25.783,242.15,23.995,239.94,23.995z"/>
	</g>
</g>
<g>
	<g>
		<path d="M283.929,0.001c-2.211,0-3.999,1.789-3.999,3.999c0,2.21,1.788,3.999,3.999,3.999c4.412,0,7.998,3.585,7.998,7.998
			c0,4.413-3.586,7.998-7.998,7.998c-2.211,0-3.999,1.788-3.999,3.999c0,2.21,1.788,3.999,3.999,3.999
			c8.826,0,15.996-7.179,15.996-15.996C299.925,7.179,292.755,0.001,283.929,0.001z"/>
	</g>
</g>
<g>
	<g>
		<path d="M283.929,23.995h-11.997c-2.21,0-3.999,1.788-3.999,3.999c0,2.21,1.789,3.999,3.999,3.999h11.997
			c2.21,0,3.999-1.789,3.999-3.999C287.928,25.783,286.139,23.995,283.929,23.995z"/>
	</g>
</g>
<g>
	<g>
		<path d="M283.929,0h-55.986c-2.21,0-3.999,1.789-3.999,3.999c0,2.21,1.789,3.999,3.999,3.999h55.986
			c2.21,0,3.999-1.789,3.999-3.999C287.928,1.789,286.139,0,283.929,0z"/>
	</g>
</g>
<g>
	<g>
		<path d="M255.936,367.908c-2.21,0-3.999,1.788-3.999,3.999V474.63c0,2.21,1.789,3.999,3.999,3.999s3.999-1.789,3.999-3.998
			V371.907C259.935,369.696,258.146,367.908,255.936,367.908z"/>
	</g>
</g>
<g>
	<g>
		<path d="M255.936,31.992c-2.21,0-3.999,1.789-3.999,3.999v15.996c0,2.21,1.789,3.999,3.999,3.999s3.999-1.788,3.999-3.999V35.991
			C259.935,33.78,258.146,31.992,255.936,31.992z"/>
	</g>
</g>
<g>
	<g>
		<path d="M63.985,247.938H39.991c-2.21,0-3.999,1.788-3.999,3.999c0,2.21,1.789,3.999,3.999,3.999h23.993
			c2.211,0,3.999-1.789,4-3.999C67.984,249.726,66.195,247.938,63.985,247.938z"/>
	</g>
</g>
<g>
	<g>
		<path d="M455.885,79.98H327.917c-2.21,0-3.998,1.789-3.998,3.999c0,2.21,1.788,3.999,3.998,3.999h127.968
			c2.211,0,3.999-1.789,3.999-3.999C459.884,81.769,458.096,79.98,455.885,79.98z"/>
	</g>
</g>
<g>
	<g>
		<path d="M455.885,191.952H439.89c-2.211,0-4,1.789-4,3.999c0,2.211,1.789,3.999,4,3.999h15.995c2.211,0,3.999-1.788,3.999-3.999
			C459.884,193.741,458.096,191.952,455.885,191.952z"/>
	</g>
</g>
<g>
	<g>
		<path d="M127.969,335.916H39.991c-2.21,0-3.999,1.788-3.999,3.999s1.789,3.999,3.999,3.999h87.977c2.211,0,4-1.788,4-3.999
			S130.179,335.916,127.969,335.916z"/>
	</g>
</g>
<g>
	<g>
		<path d="M127.968,335.916c-2.21,0-3.999,1.788-3.999,3.999s1.789,3.999,3.999,3.999c2.207,0,3.999,1.796,3.999,3.999
			c0,2.21,1.789,3.999,3.999,3.999c2.211,0,3.999-1.789,3.999-3.999C139.965,341.298,134.583,335.916,127.968,335.916z"/>
	</g>
</g>
<g>
	<g>
		<path d="M455.885,327.917h-31.991c-2.211,0-4,1.789-4,3.999c0,2.211,1.789,3.999,4,3.999h31.991c2.211,0,3.999-1.788,3.999-3.999
			C459.884,329.706,458.096,327.917,455.885,327.917z"/>
	</g>
</g>
<g>
	<g>
		<path d="M95.976,87.978H39.991c-2.21,0-3.999,1.789-3.999,3.999c0,2.21,1.789,3.999,3.999,3.999h55.985
			c2.211,0,3.999-1.789,3.999-3.999C99.975,89.767,98.187,87.978,95.976,87.978z"/>
	</g>
</g>
<g>
	<g>
		<path d="M415.896,119.978c-6.616,0-11.997-5.382-11.997-12.005c0-2.21-1.789-3.999-3.999-3.999H95.98
			c-2.21,0-3.999,1.789-3.999,3.999c0,6.623-5.384,12.005-12,12.005c-2.21,0-3.999,1.789-3.999,3.999v175.939
			c0,2.211,1.789,3.999,3.999,3.999c6.615,0,12,5.382,12,12.005c0,2.211,1.789,3.999,3.999,3.999H399.9
			c2.21,0,3.999-1.795,3.999-4.007c0-6.615,5.381-11.997,11.997-11.997c2.21,0,3.998-1.788,3.998-3.999V123.977
			C419.894,121.767,418.106,119.978,415.896,119.978z M411.896,296.317c-7.818,1.601-13.996,7.779-15.589,15.605l-296.73-0.008
			c-1.593-7.827-7.771-14.004-15.598-15.598V127.578c7.827-1.601,14.005-7.779,15.598-15.605h296.73
			c1.593,7.826,7.772,14.003,15.589,15.605V296.317z"/>
	</g>
</g>
<g>
	<g>
		<path d="M58.814,369.079l-15.996-15.996c-1.562-1.562-4.093-1.562-5.655,0s-1.562,4.093,0,5.655l15.996,15.996
			c0.781,0.781,1.805,1.172,2.828,1.172c1.023,0,2.046-0.391,2.827-1.172C60.376,373.173,60.376,370.641,58.814,369.079z"/>
	</g>
</g>
<g>
	<g>
		<path d="M215.946,367.908H55.987c-2.211,0-3.999,1.788-3.999,3.999c0,2.21,1.788,3.999,3.999,3.999h159.959
			c2.211,0,3.999-1.789,3.999-3.999C219.945,369.696,218.157,367.908,215.946,367.908z"/>
	</g>
</g>
<g>
	<g>
		<path d="M474.708,369.079l-15.996-15.996c-1.561-1.562-4.092-1.562-5.654,0s-1.562,4.093,0,5.655l15.996,15.996
			c0.781,0.781,1.804,1.172,2.827,1.172c1.024,0,2.046-0.391,2.827-1.172C476.27,373.173,476.27,370.641,474.708,369.079z"/>
	</g>
</g>
<g>
	<g>
		<path d="M474.708,81.152l-15.996-15.996c-1.561-1.562-4.092-1.562-5.654,0c-1.562,1.563-1.562,4.093,0,5.655l15.996,15.996
			c0.781,0.78,1.804,1.171,2.827,1.171c1.024,0,2.046-0.391,2.827-1.171C476.27,85.245,476.27,82.714,474.708,81.152z"/>
	</g>
</g>
<g>
	<g>
		<path d="M471.881,79.98c-2.21,0-3.999,1.789-3.999,3.999v287.928c0,2.21,1.789,3.999,3.999,3.999c2.21,0,3.999-1.789,3.999-3.999
			V83.979C475.88,81.769,474.091,79.98,471.881,79.98z"/>
	</g>
</g>
<g>
	<g>
		<path d="M471.881,367.908H295.925c-2.21,0-3.998,1.788-3.998,3.999c0,2.21,1.788,3.999,3.998,3.999h175.956
			c2.21,0,3.999-1.789,3.999-3.999C475.88,369.696,474.091,367.908,471.881,367.908z"/>
	</g>
</g>
<g>
</g>
<g>
</g>
<g>
</g>
<g>
</g>
<g>
</g>
<g>
</g>
<g>
</g>
<g>
</g>
<g>
</g>
<g>
</g>
<g>
</g>
<g>
</g>
<g>
</g>
<g>
</g>
<g>
</g>
</svg>
