<?xml version="1.0" encoding="iso-8859-1"?>
<!-- Generator: Adobe Illustrator 19.0.0, SVG Export Plug-In . SVG Version: 6.00 Build 0)  -->
<svg version="1.1" id="Capa_1" xmlns="http://www.w3.org/2000/svg" xmlns:xlink="http://www.w3.org/1999/xlink" x="0px" y="0px"
	 viewBox="0 0 511.872 511.872" style="enable-background:new 0 0 511.872 511.872;" xml:space="preserve">
<g>
	<g>
		<path d="M12.24,459.838h-0.086c-2.202,0-3.952,1.788-3.952,3.999c0,2.21,1.828,3.999,4.038,3.999c2.202,0,3.999-1.789,3.999-3.999
			C16.239,461.626,14.443,459.838,12.24,459.838z"/>
	</g>
</g>
<g>
	<g>
		<path d="M12.24,411.851h-0.086c-2.202,0-3.952,1.788-3.952,3.998c0,2.211,1.828,3.999,4.038,3.999
			c2.202,0,3.999-1.788,3.999-3.999C16.239,413.639,14.443,411.851,12.24,411.851z"/>
	</g>
</g>
<g>
	<g>
		<path d="M36.234,435.844h-0.086c-2.202,0-3.952,1.789-3.952,3.999c0,2.211,1.827,3.999,4.038,3.999
			c2.202,0,3.999-1.788,3.999-3.999C40.233,437.633,38.436,435.844,36.234,435.844z"/>
	</g>
</g>
<g>
	<g>
		<path d="M60.228,459.838h-0.086c-2.203,0-3.952,1.788-3.952,3.999c0,2.21,1.828,3.999,4.038,3.999
			c2.202,0,3.999-1.789,3.999-3.999C64.227,461.626,62.431,459.838,60.228,459.838z"/>
	</g>
</g>
<g>
	<g>
		<path d="M12.24,363.863h-0.086c-2.202,0-3.952,1.788-3.952,3.999c0,2.21,1.828,3.999,4.038,3.999c2.202,0,3.999-1.789,3.999-3.999
			C16.239,365.651,14.443,363.863,12.24,363.863z"/>
	</g>
</g>
<g>
	<g>
		<path d="M36.234,387.857h-0.086c-2.202,0-3.952,1.788-3.952,3.998c0,2.211,1.827,4,4.038,4c2.202,0,3.999-1.789,3.999-4
			C40.233,389.645,38.436,387.857,36.234,387.857z"/>
	</g>
</g>
<g>
	<g>
		<path d="M60.228,411.851h-0.086c-2.203,0-3.952,1.788-3.952,3.998c0,2.211,1.828,3.999,4.038,3.999
			c2.202,0,3.999-1.788,3.999-3.999C64.227,413.639,62.431,411.851,60.228,411.851z"/>
	</g>
</g>
<g>
	<g>
		<path d="M84.222,435.844h-0.086c-2.202,0-3.952,1.789-3.952,3.999c0,2.211,1.828,3.999,4.038,3.999
			c2.202,0,3.998-1.788,3.999-3.999C88.221,437.633,86.425,435.844,84.222,435.844z"/>
	</g>
</g>
<g>
	<g>
		<path d="M108.215,459.838h-0.086c-2.202,0-3.952,1.788-3.952,3.999c0,2.21,1.828,3.999,4.038,3.999
			c2.203,0,3.999-1.789,3.999-3.999C112.214,461.626,110.418,459.838,108.215,459.838z"/>
	</g>
</g>
<g>
	<g>
		<path d="M12.24,315.875h-0.086c-2.202,0-3.952,1.789-3.952,3.999c0,2.21,1.828,3.999,4.038,3.999c2.202,0,3.999-1.789,3.999-3.999
			C16.239,317.664,14.443,315.875,12.24,315.875z"/>
	</g>
</g>
<g>
	<g>
		<path d="M36.234,339.869h-0.086c-2.202,0-3.952,1.789-3.952,3.999c0,2.21,1.827,3.999,4.038,3.999
			c2.202,0,3.999-1.789,3.999-3.999C40.233,341.658,38.436,339.869,36.234,339.869z"/>
	</g>
</g>
<g>
	<g>
		<path d="M60.228,363.863h-0.086c-2.203,0-3.952,1.788-3.952,3.999c0,2.21,1.828,3.999,4.038,3.999
			c2.202,0,3.999-1.789,3.999-3.999C64.227,365.651,62.431,363.863,60.228,363.863z"/>
	</g>
</g>
<g>
	<g>
		<path d="M84.222,387.857h-0.086c-2.202,0-3.952,1.788-3.952,3.998c0,2.211,1.828,4,4.038,4c2.202,0,3.998-1.789,3.999-4
			C88.221,389.645,86.425,387.857,84.222,387.857z"/>
	</g>
</g>
<g>
	<g>
		<path d="M108.215,411.851h-0.086c-2.202,0-3.952,1.788-3.952,3.998c0,2.211,1.828,3.999,4.038,3.999
			c2.203,0,3.999-1.788,3.999-3.999C112.214,413.639,110.418,411.851,108.215,411.851z"/>
	</g>
</g>
<g>
	<g>
		<path d="M132.209,435.844h-0.086c-2.202,0-3.952,1.789-3.952,3.999c0,2.211,1.828,3.999,4.038,3.999
			c2.203,0,3.999-1.788,3.999-3.999C136.208,437.633,134.412,435.844,132.209,435.844z"/>
	</g>
</g>
<g>
	<g>
		<path d="M156.204,459.838h-0.086c-2.203,0-3.952,1.788-3.952,3.999c0,2.21,1.827,3.999,4.038,3.999
			c2.202,0,3.999-1.789,3.999-3.999C160.203,461.626,158.406,459.838,156.204,459.838z"/>
	</g>
</g>
<g>
	<g>
		<path d="M60.228,315.875h-0.086c-2.203,0-3.952,1.789-3.952,3.999c0,2.21,1.828,3.999,4.038,3.999
			c2.202,0,3.999-1.789,3.999-3.999C64.227,317.664,62.431,315.875,60.228,315.875z"/>
	</g>
</g>
<g>
	<g>
		<path d="M84.222,339.869h-0.086c-2.202,0-3.952,1.789-3.952,3.999c0,2.21,1.828,3.999,4.038,3.999
			c2.202,0,3.999-1.789,3.999-3.999C88.221,341.658,86.425,339.869,84.222,339.869z"/>
	</g>
</g>
<g>
	<g>
		<path d="M108.215,363.863h-0.086c-2.202,0-3.952,1.788-3.952,3.999c0,2.21,1.828,3.999,4.038,3.999
			c2.203,0,3.999-1.789,3.999-3.999C112.214,365.651,110.418,363.863,108.215,363.863z"/>
	</g>
</g>
<g>
	<g>
		<path d="M132.209,387.857h-0.086c-2.202,0-3.952,1.788-3.952,3.998c0,2.211,1.828,4,4.038,4c2.203,0,3.999-1.789,3.999-4
			C136.208,389.645,134.412,387.857,132.209,387.857z"/>
	</g>
</g>
<g>
	<g>
		<path d="M156.204,411.851h-0.086c-2.203,0-3.952,1.788-3.952,3.998c0,2.211,1.827,3.999,4.038,3.999
			c2.202,0,3.999-1.788,3.999-3.999C160.203,413.639,158.406,411.851,156.204,411.851z"/>
	</g>
</g>
<g>
	<g>
		<path d="M180.197,435.844h-0.086c-2.202,0-3.952,1.789-3.952,3.999c0,2.211,1.828,3.999,4.038,3.999
			c2.203,0,3.999-1.788,3.999-3.999C184.196,437.633,182.4,435.844,180.197,435.844z"/>
	</g>
</g>
<g>
	<g>
		<path d="M228.185,435.844h-0.086c-2.202,0-3.952,1.789-3.952,3.999c0,2.211,1.828,3.999,4.038,3.999
			c2.203,0,3.999-1.788,3.999-3.999C232.184,437.633,230.388,435.844,228.185,435.844z"/>
	</g>
</g>
<g>
	<g>
		<path d="M276.173,435.844h-0.086c-2.203,0-3.952,1.789-3.952,3.999c0,2.211,1.827,3.999,4.038,3.999
			c2.202,0,3.999-1.788,3.999-3.999C280.172,437.633,278.375,435.844,276.173,435.844z"/>
	</g>
</g>
<g>
	<g>
		<path d="M204.191,459.838h-0.086c-2.202,0-3.952,1.788-3.952,3.999c0,2.21,1.828,3.999,4.038,3.999
			c2.203,0,3.999-1.789,3.999-3.999C208.19,461.626,206.394,459.838,204.191,459.838z"/>
	</g>
</g>
<g>
	<g>
		<path d="M108.215,315.875h-0.086c-2.202,0-3.952,1.789-3.952,3.999c0,2.21,1.828,3.999,4.038,3.999
			c2.203,0,3.999-1.789,3.999-3.999C112.214,317.664,110.418,315.875,108.215,315.875z"/>
	</g>
</g>
<g>
	<g>
		<path d="M132.209,339.869h-0.086c-2.202,0-3.952,1.789-3.952,3.999c0,2.21,1.828,3.999,4.038,3.999
			c2.203,0,3.999-1.789,3.999-3.999C136.208,341.658,134.412,339.869,132.209,339.869z"/>
	</g>
</g>
<g>
	<g>
		<path d="M156.204,363.863h-0.086c-2.203,0-3.952,1.788-3.952,3.999c0,2.21,1.827,3.999,4.038,3.999
			c2.202,0,3.999-1.789,3.999-3.999C160.203,365.651,158.406,363.863,156.204,363.863z"/>
	</g>
</g>
<g>
	<g>
		<path d="M180.197,387.857h-0.086c-2.202,0-3.952,1.788-3.952,3.998c0,2.211,1.828,4,4.038,4c2.203,0,3.999-1.789,3.999-4
			C184.196,389.645,182.4,387.857,180.197,387.857z"/>
	</g>
</g>
<g>
	<g>
		<path d="M204.191,411.851h-0.086c-2.202,0-3.952,1.788-3.952,3.998c0,2.211,1.828,3.999,4.038,3.999
			c2.203,0,3.999-1.788,3.999-3.999C208.19,413.639,206.394,411.851,204.191,411.851z"/>
	</g>
</g>
<g>
	<g>
		<path d="M300.167,459.838h-0.086c-2.203,0-3.953,1.788-3.953,3.999c0,2.21,1.828,3.999,4.039,3.999
			c2.203,0,3.998-1.789,3.998-3.999C304.165,461.626,302.369,459.838,300.167,459.838z"/>
	</g>
</g>
<g>
	<g>
		<path d="M252.179,459.838h-0.086c-2.203,0-3.952,1.788-3.952,3.999c0,2.21,1.827,3.999,4.038,3.999
			c2.202,0,3.999-1.789,3.999-3.999C256.178,461.626,254.381,459.838,252.179,459.838z"/>
	</g>
</g>
<g>
	<g>
		<path d="M300.167,411.851h-0.086c-2.203,0-3.953,1.788-3.953,3.998c0,2.211,1.828,3.999,4.039,3.999
			c2.203,0,3.998-1.788,3.998-3.999C304.165,413.639,302.369,411.851,300.167,411.851z"/>
	</g>
</g>
<g>
	<g>
		<path d="M324.161,435.844h-0.086c-2.202,0-3.952,1.789-3.952,3.999c0,2.211,1.828,3.999,4.038,3.999
			c2.203,0,3.999-1.788,3.999-3.999C328.16,437.633,326.364,435.844,324.161,435.844z"/>
	</g>
</g>
<g>
	<g>
		<path d="M348.155,459.838h-0.086c-2.202,0-3.952,1.788-3.952,3.999c0,2.21,1.828,3.999,4.038,3.999
			c2.202,0,3.999-1.789,3.999-3.999C352.154,461.626,350.357,459.838,348.155,459.838z"/>
	</g>
</g>
<g>
	<g>
		<path d="M324.161,387.857h-0.086c-2.202,0-3.952,1.788-3.952,3.998c0,2.211,1.828,4,4.038,4c2.203,0,3.999-1.789,3.999-4
			C328.16,389.645,326.364,387.857,324.161,387.857z"/>
	</g>
</g>
<g>
	<g>
		<path d="M348.155,411.851h-0.086c-2.202,0-3.952,1.788-3.952,3.998c0,2.211,1.828,3.999,4.038,3.999
			c2.202,0,3.999-1.788,3.999-3.999C352.154,413.639,350.357,411.851,348.155,411.851z"/>
	</g>
</g>
<g>
	<g>
		<path d="M372.149,435.844h-0.086c-2.202,0-3.952,1.789-3.952,3.999c0,2.211,1.828,3.999,4.038,3.999
			c2.202,0,3.999-1.788,3.999-3.999C376.148,437.633,374.351,435.844,372.149,435.844z"/>
	</g>
</g>
<g>
	<g>
		<path d="M396.143,459.838h-0.086c-2.203,0-3.952,1.788-3.952,3.999c0,2.21,1.827,3.999,4.038,3.999
			c2.202,0,3.999-1.789,3.999-3.999C400.142,461.626,398.345,459.838,396.143,459.838z"/>
	</g>
</g>
<g>
	<g>
		<path d="M348.155,363.863h-0.086c-2.202,0-3.952,1.788-3.952,3.999c0,2.21,1.828,3.999,4.038,3.999
			c2.202,0,3.999-1.789,3.999-3.999C352.154,365.651,350.357,363.863,348.155,363.863z"/>
	</g>
</g>
<g>
	<g>
		<path d="M372.149,387.857h-0.086c-2.202,0-3.952,1.788-3.952,3.998c0,2.211,1.828,4,4.038,4c2.202,0,3.999-1.789,3.999-4
			C376.148,389.645,374.351,387.857,372.149,387.857z"/>
	</g>
</g>
<g>
	<g>
		<path d="M396.143,411.851h-0.086c-2.203,0-3.952,1.788-3.952,3.998c0,2.211,1.827,3.999,4.038,3.999
			c2.202,0,3.999-1.788,3.999-3.999C400.142,413.639,398.345,411.851,396.143,411.851z"/>
	</g>
</g>
<g>
	<g>
		<path d="M420.136,435.844h-0.086c-2.202,0-3.951,1.789-3.951,3.999c0,2.211,1.827,3.999,4.037,3.999c2.203,0,4-1.788,4-3.999
			C424.136,437.633,422.339,435.844,420.136,435.844z"/>
	</g>
</g>
<g>
	<g>
		<path d="M444.13,459.838h-0.086c-2.202,0-3.952,1.788-3.952,3.999c0,2.21,1.828,3.999,4.038,3.999
			c2.203,0,3.999-1.789,3.999-3.999C448.129,461.626,446.333,459.838,444.13,459.838z"/>
	</g>
</g>
<g>
	<g>
		<path d="M372.149,339.869h-0.086c-2.202,0-3.952,1.789-3.952,3.999c0,2.21,1.828,3.999,4.038,3.999
			c2.202,0,3.999-1.789,3.999-3.999C376.148,341.658,374.351,339.869,372.149,339.869z"/>
	</g>
</g>
<g>
	<g>
		<path d="M396.143,363.863h-0.086c-2.203,0-3.952,1.788-3.952,3.999c0,2.21,1.827,3.999,4.038,3.999
			c2.202,0,3.999-1.789,3.999-3.999C400.142,365.651,398.345,363.863,396.143,363.863z"/>
	</g>
</g>
<g>
	<g>
		<path d="M420.136,387.857h-0.086c-2.202,0-3.951,1.788-3.951,3.998c0,2.211,1.827,4,4.037,4c2.203,0,4-1.789,4-4
			C424.136,389.645,422.339,387.857,420.136,387.857z"/>
	</g>
</g>
<g>
	<g>
		<path d="M444.13,411.851h-0.086c-2.202,0-3.952,1.788-3.952,3.998c0,2.211,1.828,3.999,4.038,3.999
			c2.203,0,3.999-1.788,3.999-3.999C448.129,413.639,446.333,411.851,444.13,411.851z"/>
	</g>
</g>
<g>
	<g>
		<path d="M468.124,435.844h-0.086c-2.202,0-3.952,1.789-3.952,3.999c0,2.211,1.828,3.999,4.038,3.999c2.204,0,4-1.788,3.999-3.999
			C472.123,437.633,470.327,435.844,468.124,435.844z"/>
	</g>
</g>
<g>
	<g>
		<path d="M492.119,459.838h-0.086c-2.203,0-3.952,1.788-3.952,3.999c0,2.21,1.827,3.999,4.038,3.999
			c2.202,0,3.999-1.789,3.999-3.999C496.118,461.626,494.321,459.838,492.119,459.838z"/>
	</g>
</g>
<g>
	<g>
		<path d="M396.143,315.875h-0.086c-2.203,0-3.952,1.789-3.952,3.999c0,2.21,1.827,3.999,4.038,3.999
			c2.202,0,3.999-1.789,3.999-3.999C400.142,317.664,398.345,315.875,396.143,315.875z"/>
	</g>
</g>
<g>
	<g>
		<path d="M420.136,339.869h-0.086c-2.202,0-3.951,1.789-3.951,3.999c0,2.21,1.827,3.999,4.037,3.999c2.203,0,4-1.789,4-3.999
			C424.136,341.658,422.339,339.869,420.136,339.869z"/>
	</g>
</g>
<g>
	<g>
		<path d="M444.13,363.863h-0.086c-2.202,0-3.952,1.788-3.952,3.999c0,2.21,1.828,3.999,4.038,3.999
			c2.203,0,3.999-1.789,3.999-3.999C448.129,365.651,446.333,363.863,444.13,363.863z"/>
	</g>
</g>
<g>
	<g>
		<path d="M468.124,387.857h-0.086c-2.202,0-3.952,1.788-3.952,3.998c0,2.211,1.828,4,4.038,4c2.204,0,4-1.789,3.999-4
			C472.123,389.645,470.327,387.857,468.124,387.857z"/>
	</g>
</g>
<g>
	<g>
		<path d="M492.119,411.851h-0.086c-2.203,0-3.952,1.788-3.952,3.998c0,2.211,1.827,3.999,4.038,3.999
			c2.202,0,3.999-1.788,3.999-3.999C496.118,413.639,494.321,411.851,492.119,411.851z"/>
	</g>
</g>
<g>
	<g>
		<path d="M444.13,315.875h-0.086c-2.202,0-3.952,1.789-3.952,3.999c0,2.21,1.828,3.999,4.038,3.999
			c2.203,0,3.999-1.789,3.999-3.999C448.129,317.664,446.333,315.875,444.13,315.875z"/>
	</g>
</g>
<g>
	<g>
		<path d="M468.124,339.869h-0.086c-2.202,0-3.952,1.789-3.952,3.999c0,2.21,1.828,3.999,4.038,3.999
			c2.204,0,3.999-1.789,3.999-3.999C472.123,341.658,470.327,339.869,468.124,339.869z"/>
	</g>
</g>
<g>
	<g>
		<path d="M492.119,363.863h-0.086c-2.203,0-3.952,1.788-3.952,3.999c0,2.21,1.827,3.999,4.038,3.999
			c2.202,0,3.999-1.789,3.999-3.999C496.118,365.651,494.321,363.863,492.119,363.863z"/>
	</g>
</g>
<g>
	<g>
		<path d="M492.119,315.875h-0.086c-2.203,0-3.952,1.789-3.952,3.999c0,2.21,1.827,3.999,4.038,3.999
			c2.202,0,3.999-1.789,3.999-3.999C496.118,317.664,494.321,315.875,492.119,315.875z"/>
	</g>
</g>
<g>
	<g>
		<path d="M93.805,283.882H3.999c-2.21,0-3.999,1.789-3.999,4c0,2.21,1.789,3.998,3.999,3.998h89.806
			c2.21,0,3.999-1.788,3.999-3.998C97.804,285.671,96.015,283.882,93.805,283.882z"/>
	</g>
</g>
<g>
	<g>
		<path d="M75.981,267.886H3.999c-2.21,0-3.999,1.789-3.999,4c0,2.21,1.789,3.998,3.999,3.998h71.982
			c2.211,0,3.999-1.788,3.999-3.998C79.98,269.675,78.191,267.886,75.981,267.886z"/>
	</g>
</g>
<g>
	<g>
		<path d="M19.996,267.879c-2.21,0-3.999,1.789-3.999,4v15.996c0,2.21,1.789,3.998,3.999,3.998s3.999-1.789,3.999-3.998v-15.996
			C23.995,269.668,22.206,267.879,19.996,267.879z"/>
	</g>
</g>
<g>
	<g>
		<path d="M51.988,267.879c-2.211,0-3.999,1.789-3.999,4v15.996c0,2.21,1.788,3.998,3.999,3.998c2.21,0,3.999-1.789,3.999-3.998
			v-15.996C55.987,269.668,54.198,267.879,51.988,267.879z"/>
	</g>
</g>
<g>
	<g>
		<path d="M507.873,283.882h-89.806c-2.21,0-3.999,1.789-3.999,4c0,2.21,1.789,3.998,3.999,3.998h89.806
			c2.209,0,3.999-1.788,3.999-3.998C511.872,285.671,510.083,283.882,507.873,283.882z"/>
	</g>
</g>
<g>
	<g>
		<path d="M507.873,267.886h-71.982c-2.21,0-3.998,1.789-3.998,4c0,2.21,1.788,3.998,3.998,3.998h71.982
			c2.209,0,3.999-1.788,3.999-3.998C511.872,269.675,510.083,267.886,507.873,267.886z"/>
	</g>
</g>
<g>
	<g>
		<path d="M491.876,267.879c-2.211,0-3.999,1.789-3.999,4v15.996c0,2.21,1.788,3.998,3.999,3.998c2.21,0,3.999-1.789,3.999-3.998
			v-15.996C495.875,269.668,494.086,267.879,491.876,267.879z"/>
	</g>
</g>
<g>
	<g>
		<path d="M459.884,267.879c-2.21,0-3.999,1.789-3.999,4v15.996c0,2.21,1.789,3.998,3.999,3.998c2.211,0,3.999-1.789,3.999-3.998
			v-15.996C463.883,269.668,462.095,267.879,459.884,267.879z"/>
	</g>
</g>
<g>
	<g>
		<path d="M211.946,127.927H87.978c-2.21,0-3.999,1.788-3.999,3.999c0,2.21,1.789,3.999,3.999,3.999h123.969
			c2.211,0,3.999-1.789,3.998-3.999C215.945,129.715,214.157,127.927,211.946,127.927z"/>
	</g>
</g>
<g>
	<g>
		<path d="M211.946,103.933H87.978c-2.21,0-3.999,1.789-3.999,3.999c0,2.21,1.789,3.999,3.999,3.999h123.969
			c2.211,0,3.998-1.789,3.998-3.999C215.945,105.722,214.157,103.933,211.946,103.933z"/>
	</g>
</g>
<g>
	<g>
		<path d="M87.978,127.927c-4.413,0-7.998-3.589-7.998-7.998s3.585-7.998,7.998-7.998c2.211,0,3.999-1.789,3.999-3.999
			c0-2.21-1.789-3.999-3.999-3.999c-8.818,0-15.996,7.174-15.996,15.996c0,8.822,7.178,15.996,15.996,15.996
			c2.211,0,3.999-1.789,3.999-3.999C91.977,129.715,90.188,127.927,87.978,127.927z"/>
	</g>
</g>
<g>
	<g>
		<path d="M332.486,77.384l-91.312-58.63c-9.185-5.299-20.972-2.148-26.306,7.049c-5.28,9.193-2.117,20.987,6.647,26.017
			l36.006,27.306c1.75,1.324,4.258,0.992,5.601-0.769c1.336-1.761,0.993-4.268-0.773-5.604l-36.42-27.579
			c-5.366-3.104-7.217-10.005-4.132-15.375c3.124-5.374,10.021-7.221,15.215-4.214l91.148,58.532
			c0.672,0.43,1.422,0.633,2.164,0.633c1.312,0,2.6-0.648,3.365-1.84C334.883,81.051,334.345,78.579,332.486,77.384z"/>
	</g>
</g>
<g>
	<g>
		<path d="M211.947,87.937H103.974c-2.21,0-3.999,1.789-3.999,3.999s1.789,3.999,3.999,3.999h107.973
			c2.211,0,3.999-1.789,3.999-3.999S214.158,87.937,211.947,87.937z"/>
	</g>
</g>
<g>
	<g>
		<path d="M227.943,63.942H103.974c-2.21,0-3.999,1.789-3.999,3.999c0,2.211,1.789,3.999,3.999,3.999h123.969
			c2.211,0,3.999-1.788,3.999-3.999C231.942,65.731,230.154,63.942,227.943,63.942z"/>
	</g>
</g>
<g>
	<g>
		<path d="M358.995,168.353c-1.968-0.992-4.381-0.23-5.381,1.746c-11.895,23.319-35.569,37.807-61.781,37.807
			c-2.211,0-3.999,1.789-3.999,3.999s1.788,3.999,3.999,3.999c29.235,0,55.634-16.16,68.904-42.173
			C361.745,171.767,360.964,169.357,358.995,168.353z"/>
	</g>
</g>
<g>
	<g>
		<path d="M364.924,114.578c-5.937-16.105-17.559-29.375-32.719-37.365c-1.928-1.012-4.366-0.285-5.404,1.675
			c-1.031,1.953-0.281,4.37,1.671,5.401c13.411,7.068,23.697,18.807,28.954,33.054c0.593,1.617,2.124,2.617,3.749,2.617
			c0.461,0,0.93-0.078,1.383-0.246C364.635,118.948,365.689,116.648,364.924,114.578z"/>
	</g>
</g>
<g>
	<g>
		<path d="M103.974,87.937c-4.413,0-7.998-3.589-7.998-7.998s3.585-7.998,7.998-7.998c2.211,0,3.999-1.788,3.999-3.999
			c0-2.21-1.788-3.999-3.999-3.999c-8.818,0-15.996,7.174-15.996,15.996s7.178,15.996,15.996,15.996
			c2.211,0,3.999-1.789,3.999-3.999S106.185,87.937,103.974,87.937z"/>
	</g>
</g>
<g>
	<g>
		<path d="M211.947,167.917H103.974c-2.21,0-3.999,1.789-3.999,3.999c0,2.21,1.789,3.999,3.999,3.999h107.973
			c2.211,0,3.999-1.789,3.999-3.999C215.946,169.706,214.158,167.917,211.947,167.917z"/>
	</g>
</g>
<g>
	<g>
		<path d="M211.947,143.922H103.974c-2.21,0-3.999,1.788-3.999,3.999c0,2.21,1.789,3.999,3.999,3.999h107.973
			c2.211,0,3.999-1.788,3.999-3.999S214.158,143.922,211.947,143.922z"/>
	</g>
</g>
<g>
	<g>
		<path d="M103.974,167.917c-4.413,0-7.998-3.589-7.998-7.998s3.585-7.998,7.998-7.998c2.211,0,3.999-1.789,3.999-3.999
			c0-2.211-1.788-3.999-3.999-3.999c-8.818,0-15.996,7.174-15.996,15.996c0,8.822,7.178,15.996,15.996,15.996
			c2.211,0,3.999-1.789,3.999-3.999C107.973,169.706,106.185,167.917,103.974,167.917z"/>
	</g>
</g>
<g>
	<g>
		<path d="M227.943,207.906h-95.976c-2.21,0-3.999,1.789-3.999,3.999s1.789,3.999,3.999,3.999h95.976
			c2.211,0,3.999-1.788,3.999-3.999C231.942,209.695,230.154,207.906,227.943,207.906z"/>
	</g>
</g>
<g>
	<g>
		<path d="M211.947,183.912h-79.979c-2.21,0-3.999,1.789-3.999,3.999c0,2.211,1.789,3.999,3.999,3.999h79.979
			c2.211,0,3.999-1.788,3.999-3.999C215.946,185.701,214.158,183.912,211.947,183.912z"/>
	</g>
</g>
<g>
	<g>
		<path d="M131.967,207.906c-4.413,0-7.998-3.589-7.998-7.998s3.585-7.998,7.998-7.998c2.21,0,3.999-1.788,3.999-3.999
			c0-2.21-1.789-3.999-3.999-3.999c-8.818,0-15.996,7.174-15.996,15.996s7.178,15.996,15.996,15.996
			c2.211,0,3.999-1.788,3.999-3.999C135.966,209.695,134.177,207.906,131.967,207.906z"/>
	</g>
</g>
<g>
	<g>
		<path d="M379.905,103.933h-22.322c-2.211,0-3.999,1.789-3.999,3.999c0,2.21,1.788,3.999,3.999,3.999h22.322
			c2.21,0,3.999-1.789,3.999-3.999C383.904,105.722,382.115,103.933,379.905,103.933z"/>
	</g>
</g>
<g>
	<g>
		<path d="M379.905,175.914h-27.478c-2.211,0-3.999,1.788-3.999,3.999s1.788,3.999,3.999,3.999h27.478
			c2.21,0,3.999-1.789,3.999-3.999C383.904,177.703,382.115,175.914,379.905,175.914z"/>
	</g>
</g>
<g>
	<g>
		<path d="M419.894,87.937c-2.21,0-3.998,1.789-3.998,3.999v103.973c0,2.211,1.788,3.999,3.998,3.999c2.211,0,4-1.788,4-3.998
			V91.936C423.894,89.726,422.105,87.937,419.894,87.937z"/>
	</g>
</g>
<g>
	<g>
		<path d="M507.873,191.91h-87.979c-2.21,0-3.998,1.789-3.998,3.999c0,2.211,1.788,3.999,3.998,3.999h87.979
			c2.209,0,3.999-1.788,3.999-3.999C511.872,193.699,510.083,191.91,507.873,191.91z"/>
	</g>
</g>
<g>
	<g>
		<path d="M507.873,87.937h-87.979c-2.21,0-3.998,1.789-3.998,3.999s1.788,3.999,3.998,3.999h87.979
			c2.209,0,3.999-1.789,3.999-3.999S510.083,87.937,507.873,87.937z"/>
	</g>
</g>
<g>
	<g>
		<path d="M411.896,95.935h-23.993c-2.21,0-3.999,1.789-3.999,3.999c0,2.21,1.789,3.999,3.999,3.999h23.993c2.211,0,4-1.789,4-3.999
			C415.896,97.724,414.107,95.935,411.896,95.935z"/>
	</g>
</g>
<g>
	<g>
		<path d="M387.903,95.935c-2.21,0-3.999,1.789-3.999,3.999v87.977c0,2.211,1.789,3.999,3.999,3.999c2.21,0,3.999-1.788,3.999-3.998
			V99.934C391.902,97.724,390.113,95.935,387.903,95.935z"/>
	</g>
</g>
<g>
	<g>
		<path d="M413.568,183.912h-25.665c-2.21,0-3.999,1.789-3.999,3.999c0,2.211,1.789,3.999,3.999,3.999h25.665
			c2.211,0,3.999-1.788,3.999-3.999C417.567,185.701,415.779,183.912,413.568,183.912z"/>
	</g>
</g>
<g>
	<g>
		<path d="M395.901,112.04h-7.998c-2.21,0-3.999,1.789-3.999,3.999c0,2.21,1.789,3.999,3.999,3.999h7.998
			c2.21,0,3.999-1.789,3.999-3.999C399.9,113.829,398.111,112.04,395.901,112.04z"/>
	</g>
</g>
<g>
	<g>
		<path d="M395.901,136.034h-7.998c-2.21,0-3.999,1.788-3.999,3.999c0,2.21,1.789,3.999,3.999,3.999h7.998
			c2.21,0,3.999-1.789,3.999-3.999C399.9,137.822,398.111,136.034,395.901,136.034z"/>
	</g>
</g>
<g>
	<g>
		<path d="M395.901,168.026h-7.998c-2.21,0-3.999,1.789-3.999,3.999c0,2.21,1.789,3.999,3.999,3.999h7.998
			c2.21,0,3.999-1.789,3.999-3.999C399.9,169.815,398.111,168.026,395.901,168.026z"/>
	</g>
</g>
<g>
	<g>
		<path d="M291.833,207.906h-15.902c-2.211,0-3.999,1.789-3.999,3.999s1.788,3.999,3.999,3.999h15.902
			c2.21,0,3.999-1.788,3.999-3.999C295.832,209.695,294.043,207.906,291.833,207.906z"/>
	</g>
</g>
<g>
	<g>
		<path d="M258.685,416.952l-155.96-147.971c-1.593-1.507-4.131-1.46-5.647,0.148c-1.523,1.601-1.461,4.131,0.148,5.647
			l155.961,147.969c0.773,0.735,1.757,1.102,2.749,1.102c1.055,0,2.116-0.422,2.897-1.249
			C260.357,420.998,260.294,418.468,258.685,416.952z"/>
	</g>
</g>
<g>
	<g>
		<path d="M414.794,269.128c-1.515-1.624-4.053-1.655-5.647-0.148l-155.96,147.971c-1.609,1.515-1.671,4.045-0.148,5.646
			c0.781,0.836,1.842,1.25,2.897,1.25c0.992,0,1.976-0.367,2.749-1.101l155.961-147.971
			C416.255,273.26,416.317,270.73,414.794,269.128z"/>
	</g>
</g>
<g>
	<g>
		<path d="M507.872,487.691H3.999c-2.21,0-3.999,1.788-3.999,3.999c0,2.21,1.789,3.999,3.999,3.999h503.874
			c2.209,0,3.999-1.789,3.998-3.999C511.871,489.479,510.082,487.691,507.872,487.691z"/>
	</g>
</g>
<g>
	<g>
		<path d="M266.074,189.872c-0.953-0.949-2.686-2.086-5.576-2.086c-5.679,0-13.888,4.585-17.043,7.74
			c-4.678,4.679-4.678,12.286,0,16.965c2.265,2.265,5.28,3.515,8.482,3.515c3.202,0,6.217-1.25,8.483-3.515
			C263.716,209.199,271.917,195.71,266.074,189.872z M254.764,206.837c-1.514,1.507-4.139,1.507-5.654,0
			c-1.562-1.558-1.562-4.097,0-5.655c1.858-1.855,7.568-4.968,11.067-5.331C259.974,198.463,257.077,204.524,254.764,206.837z"/>
	</g>
</g>
<g>
	<g>
		<path d="M293.739,257.416c-3.155-3.155-11.364-7.74-17.042-7.74c-2.89,0-4.624,1.137-5.577,2.086
			c-5.843,5.838,2.358,19.319,5.655,22.615c2.264,2.265,5.279,3.515,8.482,3.515c3.201,0,6.217-1.25,8.482-3.515
			C298.418,269.698,298.418,262.095,293.739,257.416z M288.084,268.722c-1.515,1.516-4.139,1.516-5.655,0
			c-2.577-2.577-5.888-9.818-5.732-11.048c3.03,0,9.403,3.417,11.387,5.398C289.646,264.63,289.646,267.16,288.084,268.722z"/>
	</g>
</g>
<g>
	<g>
		<path d="M219.945,263.892c-8.255,0-11.997,15.336-11.997,19.998c0.016,6.608,5.397,11.99,11.997,11.99
			c6.616,0,11.997-5.382,11.997-11.998C231.942,279.228,228.201,263.892,219.945,263.892z M219.945,287.882
			c-2.202,0-3.991-1.797-3.999-4c0-3.304,2.289-9.739,3.999-11.66c1.719,1.913,3.999,8.357,3.999,11.66
			C223.944,286.085,222.148,287.882,219.945,287.882z"/>
	</g>
</g>
<g>
	<g>
		<path d="M259.935,343.868c-4.655,0-19.987,3.741-19.987,11.997c0,8.256,15.324,11.989,19.979,11.989h0.016
			c6.607,0,11.989-5.382,11.989-11.989C271.932,349.25,266.55,343.868,259.935,343.868z M259.928,359.856
			c-3.296,0-9.725-2.28-11.646-3.991c1.921-1.719,8.349-3.999,11.654-3.999c2.202,0,3.999,1.796,3.999,3.999
			C263.935,358.067,262.138,359.856,259.928,359.856z"/>
	</g>
</g>
<g>
</g>
<g>
</g>
<g>
</g>
<g>
</g>
<g>
</g>
<g>
</g>
<g>
</g>
<g>
</g>
<g>
</g>
<g>
</g>
<g>
</g>
<g>
</g>
<g>
</g>
<g>
</g>
<g>
</g>
</svg>
