<?xml version="1.0" encoding="iso-8859-1"?>
<!-- Generator: Adobe Illustrator 19.0.0, SVG Export Plug-In . SVG Version: 6.00 Build 0)  -->
<svg version="1.1" id="Capa_1" xmlns="http://www.w3.org/2000/svg" xmlns:xlink="http://www.w3.org/1999/xlink" x="0px" y="0px"
	 viewBox="0 0 511.872 511.872" style="enable-background:new 0 0 511.872 511.872;" xml:space="preserve">
<g>
	<g>
		<path d="M415.607,87.345c-0.914-2.006-3.281-2.897-5.296-1.983c-89.47,40.677-82.378,146.846-82.292,147.916
			c0.157,2.094,1.914,3.687,3.976,3.687c0.109,0,0.211,0,0.312-0.009c2.203-0.171,3.851-2.093,3.679-4.295
			c-0.07-1.016-6.802-101.631,77.637-140.02C415.63,91.726,416.521,89.361,415.607,87.345z"/>
	</g>
</g>
<g>
	<g>
		<path d="M474.545,47.059c-2.796-2.797-7.975-4.093-16.292-4.093c-25.088,0-75.115,12.582-91.892,25.446
			c-10.474,8.022-17.198,19.644-18.925,32.719c-1.733,13.075,1.735,26.04,9.764,36.514c9.419,12.294,23.72,19.339,39.231,19.339
			c10.928,0,21.3-3.514,29.994-10.177c18.542-14.215,49.402-68.959,50.8-90.118C477.514,52.309,476.639,49.152,474.545,47.059z
			 M469.133,57.338c-2.437,20.183-31.336,70.678-47.566,83.12c-7.287,5.584-15.981,8.529-25.135,8.529
			c-13.004,0-24.994-5.905-32.89-16.207c-6.725-8.779-9.63-19.644-8.178-30.602c1.453-10.958,7.085-20.69,15.863-27.415
			c15.394-11.809,63.609-23.798,87.025-23.798c8.779,0,10.568,1.679,10.623,1.741C468.883,52.714,469.571,53.691,469.133,57.338z"/>
	</g>
</g>
<g>
	<g>
		<path d="M298.706,106.746c-6.936-2.952-20.48-4.717-36.226-4.717c-16.854,0-37.451,1.781-39.833,10.279
			c-3.389,12.154,33.656,51.346,48.91,57.884c4.328,1.851,8.888,2.788,13.56,2.788c13.84,0,26.297-8.216,31.74-20.933
			C324.332,134.559,316.193,114.244,298.706,106.746z M309.5,148.901c-4.179,9.771-13.754,16.082-24.384,16.082
			c-3.586,0-7.093-0.719-10.412-2.14c-15.472-6.639-45.019-42.013-44.512-48.035c1.555-1.929,12.895-4.78,32.289-4.78
			c14.286,0,27.274,1.601,33.078,4.077C308.992,119.861,315.249,135.467,309.5,148.901z"/>
	</g>
</g>
<g>
	<g>
		<path d="M277.446,125.892c-1.968-0.969-4.367-0.172-5.358,1.812c-0.976,1.976-0.171,4.374,1.812,5.358
			c30.351,15.043,45.746,35.203,45.746,59.915c0,2.21,1.789,3.999,4,3.999c2.21,0,3.998-1.789,3.997-3.999
			C327.643,165.366,310.289,142.168,277.446,125.892z"/>
	</g>
</g>
<g>
	<g>
		<path d="M507.872,260.958H3.999c-2.21,0-3.999,1.789-3.999,4s1.789,3.998,3.999,3.998h503.874c2.209,0,3.998-1.787,3.998-3.998
			S510.082,260.958,507.872,260.958z"/>
	</g>
</g>
<g>
	<g>
		<path d="M507.872,436.915H3.999c-2.21,0-3.999,1.787-3.999,3.998s1.789,4,3.999,4h503.874c2.209,0,3.998-1.789,3.998-4
			S510.082,436.915,507.872,436.915z"/>
	</g>
</g>
<g>
	<g>
		<path d="M3.999,260.957c-2.21,0-3.999,1.789-3.999,4v175.956c0,2.211,1.789,4,3.999,4c2.211,0,3.999-1.789,3.999-4.001V264.957
			C7.998,262.746,6.209,260.957,3.999,260.957z"/>
	</g>
</g>
<g>
	<g>
		<path d="M507.873,260.957c-2.211,0-3.999,1.789-3.999,4v175.956c0,2.211,1.788,4,3.999,4c2.209,0,3.999-1.789,3.999-4.001V264.957
			C511.872,262.746,510.083,260.957,507.873,260.957z"/>
	</g>
</g>
<g>
	<g>
		<path d="M507.872,348.936H3.999c-2.21,0-3.999,1.789-3.999,3.998c0,2.211,1.789,4,3.999,4h503.874c2.209,0,3.999-1.789,3.998-4
			C511.871,350.725,510.082,348.936,507.872,348.936z"/>
	</g>
</g>
<g>
	<g>
		<path d="M75.981,292.95H3.999c-2.21,0-3.999,1.789-3.999,4c0,2.209,1.789,3.998,3.999,3.998h71.982
			c2.211,0,3.999-1.789,3.999-3.998C79.98,294.739,78.191,292.95,75.981,292.95z"/>
	</g>
</g>
<g>
	<g>
		<path d="M507.873,308.947H403.899c-2.211,0-3.999,1.789-3.999,4c0,2.209,1.788,3.998,3.999,3.998h103.974
			c2.209,0,3.999-1.789,3.999-3.998C511.872,310.736,510.083,308.947,507.873,308.947z"/>
	</g>
</g>
<g>
	<g>
		<path d="M403.899,308.947c-11.028,0-19.995,8.967-19.995,19.996c0,2.209,1.789,3.998,3.999,3.998c2.21,0,3.999-1.789,3.999-3.998
			c0-6.617,5.381-11.998,11.997-11.998c2.21,0,3.999-1.789,3.999-3.998C407.898,310.736,406.109,308.947,403.899,308.947z"/>
	</g>
</g>
<g>
	<g>
		<path d="M139.965,396.924H3.999c-2.21,0-3.999,1.789-3.999,3.998c0,2.211,1.789,4,3.999,4h135.966c2.211,0,3.999-1.789,3.999-4
			C143.964,398.713,142.175,396.924,139.965,396.924z"/>
	</g>
</g>
<g>
	<g>
		<path d="M155.961,380.928c-2.21,0-3.999,1.789-3.999,3.998c0,6.617-5.382,11.998-11.997,11.998c-2.21,0-3.999,1.789-3.999,3.998
			c0,2.211,1.789,4,3.999,4c11.029,0,19.995-8.966,19.995-19.996C159.96,382.717,158.171,380.928,155.961,380.928z"/>
	</g>
</g>
<g>
	<g>
		<path d="M507.873,412.921h-159.96c-2.21,0-3.999,1.789-3.999,3.998c0,2.211,1.789,4,3.999,4h159.96c2.209,0,3.999-1.789,3.999-4
			C511.872,414.71,510.083,412.921,507.873,412.921z"/>
	</g>
</g>
<g>
	<g>
		<path d="M507.873,380.928h-47.988c-2.21,0-3.999,1.789-3.999,3.998c0,2.211,1.789,4,3.999,4h47.988c2.209,0,3.999-1.789,3.999-4
			C511.872,382.717,510.083,380.928,507.873,380.928z"/>
	</g>
</g>
<g>
	<g>
		<path d="M19.996,444.913c-2.21,0-3.999,1.787-3.999,3.998v15.996c0,2.211,1.789,3.998,3.999,3.998s3.999-1.787,3.999-3.998
			v-15.996C23.995,446.7,22.206,444.913,19.996,444.913z"/>
	</g>
</g>
<g>
	<g>
		<path d="M107.974,460.91H19.996c-2.21,0-3.999,1.787-3.999,3.998s1.789,3.998,3.999,3.998h87.977c2.211,0,4-1.787,4-3.998
			S110.185,460.91,107.974,460.91z"/>
	</g>
</g>
<g>
	<g>
		<path d="M107.973,444.913c-2.21,0-3.999,1.787-3.999,3.998v15.996c0,2.211,1.789,3.998,3.999,3.998
			c2.211,0,3.999-1.787,3.999-3.998v-15.996C111.972,446.7,110.184,444.913,107.973,444.913z"/>
	</g>
</g>
<g>
	<g>
		<path d="M403.899,444.913c-2.211,0-3.999,1.787-3.999,3.998v15.996c0,2.211,1.788,3.998,3.999,3.998
			c2.21,0,3.999-1.787,3.999-3.998v-15.996C407.898,446.7,406.109,444.913,403.899,444.913z"/>
	</g>
</g>
<g>
	<g>
		<path d="M491.876,460.91h-87.978c-2.211,0-3.999,1.787-3.999,3.998s1.788,3.998,3.999,3.998h87.978
			c2.21,0,3.999-1.787,3.999-3.998S494.086,460.91,491.876,460.91z"/>
	</g>
</g>
<g>
	<g>
		<path d="M491.876,444.913c-2.211,0-3.999,1.787-3.999,3.998v15.996c0,2.211,1.788,3.998,3.999,3.998
			c2.21,0,3.999-1.787,3.999-3.998v-15.996C495.875,446.7,494.086,444.913,491.876,444.913z"/>
	</g>
</g>
<g>
	<g>
		<path d="M475.881,244.962H35.992c-2.21,0-3.999,1.789-3.999,3.999c0,2.21,1.789,3.999,3.999,3.999H475.88c2.211,0,4-1.789,4-3.999
			C479.88,246.751,478.092,244.962,475.881,244.962z"/>
	</g>
</g>
<g>
	<g>
		<path d="M35.992,244.962c-6.616,0-11.997,5.381-11.997,11.997c0,2.211,1.789,3.998,3.999,3.998c2.21,0,3.999-1.787,3.999-3.998
			c0-2.203,1.796-3.999,3.999-3.999c2.21,0,3.999-1.789,3.999-3.999C39.991,246.751,38.202,244.962,35.992,244.962z"/>
	</g>
</g>
<g>
	<g>
		<path d="M475.888,244.962c-2.21,0-3.999,1.789-3.999,3.999c0,2.21,1.789,3.999,3.999,3.999c2.203,0,3.999,1.796,3.999,3.999
			c0,2.211,1.788,3.998,3.999,3.998s3.999-1.787,3.999-3.998C487.885,250.344,482.503,244.962,475.888,244.962z"/>
	</g>
</g>
<g>
	<g>
		<path d="M123.476,139.153c-10.88-9.521-47.246-22.158-63.788-22.158c-5.163,0-8.506,1.249-10.209,3.796
			c-7.037,10.497,15.996,59.266,28.47,70.224c6.303,5.53,14.387,8.576,22.76,8.576c9.935,0,19.394-4.28,25.938-11.74
			C139.191,173.551,137.777,151.705,123.476,139.153z M120.634,182.572c-9.271,10.56-26.821,11.716-37.404,2.437
			c-12.653-11.114-29.727-53.908-27.36-59.485c0.007-0.008,0.843-0.531,3.819-0.531c14.59,0,49.05,11.88,58.516,20.174
			C129.187,154.806,130.272,171.59,120.634,182.572z"/>
	</g>
</g>
<g>
	<g>
		<path d="M93.015,156.109c-1.968-1.015-4.374-0.265-5.389,1.703c-1.023,1.96-0.257,4.374,1.703,5.397
			c0.469,0.242,46.637,24.72,46.637,69.756c0,2.21,1.789,3.999,3.999,3.999c2.211,0,3.999-1.788,3.998-3.999
			C143.963,183.118,95.093,157.187,93.015,156.109z"/>
	</g>
</g>
<g>
	<g>
		<path d="M218.477,155.228c-1.234-2.843-4.225-4.288-8.904-4.288c-12.247,0-38.365,9.669-46.004,15.066
			c-10.794,7.639-13.372,22.642-5.733,33.452c4.491,6.351,11.817,10.139,19.604,10.139c4.983,0,9.764-1.524,13.841-4.405
			C199.685,199.241,222.882,165.389,218.477,155.228z M186.657,198.661c-6.943,4.936-17.386,3.117-22.291-3.819
			c-5.093-7.209-3.375-17.214,3.827-22.307c6.514-4.608,31.187-13.598,41.38-13.598c0.695,0,1.195,0.047,1.539,0.094
			C210.659,165.897,194.913,192.819,186.657,198.661z"/>
	</g>
</g>
<g>
	<g>
		<path d="M191.475,175.098c-1.039-1.945-3.445-2.679-5.405-1.64c-0.937,0.5-23.134,12.567-41.481,41.364
			c-1.188,1.867-0.641,4.334,1.226,5.522c0.664,0.422,1.406,0.625,2.148,0.625c1.32,0,2.609-0.649,3.373-1.851
			c17.152-26.922,38.295-38.498,38.506-38.607C191.787,179.465,192.513,177.043,191.475,175.098z"/>
	</g>
</g>
<g>
</g>
<g>
</g>
<g>
</g>
<g>
</g>
<g>
</g>
<g>
</g>
<g>
</g>
<g>
</g>
<g>
</g>
<g>
</g>
<g>
</g>
<g>
</g>
<g>
</g>
<g>
</g>
<g>
</g>
</svg>
