<?xml version="1.0" encoding="iso-8859-1"?>
<!-- Generator: Adobe Illustrator 19.0.0, SVG Export Plug-In . SVG Version: 6.00 Build 0)  -->
<svg version="1.1" id="Capa_1" xmlns="http://www.w3.org/2000/svg" xmlns:xlink="http://www.w3.org/1999/xlink" x="0px" y="0px"
	 viewBox="0 0 511.873 511.873" style="enable-background:new 0 0 511.873 511.873;" xml:space="preserve">
<g>
	<g>
		<path d="M75.981,335.917H3.999c-2.21,0-3.999,1.788-3.999,3.999s1.789,3.999,3.999,3.999h71.982c2.21,0,3.999-1.788,3.999-3.999
			S78.191,335.917,75.981,335.917z"/>
	</g>
</g>
<g>
	<g>
		<path d="M86.806,329.091c-1.562-1.562-4.093-1.562-5.655,0l-7.998,7.998c-1.562,1.561-1.562,4.092,0,5.654
			c0.782,0.781,1.805,1.172,2.828,1.172s2.046-0.391,2.827-1.172l7.998-7.998C88.368,333.184,88.368,330.653,86.806,329.091z"/>
	</g>
</g>
<g>
	<g>
		<path d="M14.824,329.091c-1.561-1.562-4.092-1.562-5.654,0l-7.998,7.998c-1.562,1.561-1.562,4.092,0,5.654
			c0.781,0.781,1.804,1.172,2.827,1.172s2.046-0.391,2.827-1.172l7.998-7.998C16.386,333.184,16.386,330.653,14.824,329.091z"/>
	</g>
</g>
<g>
	<g>
		<path d="M75.981,303.924H3.999c-2.21,0-3.999,1.789-3.999,3.999c0,2.211,1.789,3.999,3.999,3.999h71.982
			c2.21,0,3.999-1.788,3.999-3.999C79.98,305.713,78.191,303.924,75.981,303.924z"/>
	</g>
</g>
<g>
	<g>
		<path d="M86.806,313.094l-7.998-7.998c-1.562-1.562-4.093-1.562-5.655,0c-1.562,1.561-1.562,4.093,0,5.655l7.998,7.998
			c0.782,0.78,1.805,1.171,2.828,1.171c1.023,0,2.046-0.39,2.827-1.171C88.368,317.187,88.368,314.656,86.806,313.094z"/>
	</g>
</g>
<g>
	<g>
		<path d="M14.825,313.094l-7.998-7.998c-1.562-1.562-4.093-1.562-5.655,0c-1.562,1.561-1.562,4.093,0,5.655l7.998,7.998
			c0.781,0.78,1.804,1.171,2.827,1.171c1.023,0,2.046-0.39,2.828-1.171C16.387,317.187,16.387,314.656,14.825,313.094z"/>
	</g>
</g>
<g>
	<g>
		<path d="M467.905,319.92H291.926c-2.211,0-3.999,1.789-3.999,3.999c0,2.211,1.788,3.999,3.999,3.999h175.979
			c2.211,0,3.999-1.788,3.999-3.999C471.904,321.709,470.116,319.92,467.905,319.92z"/>
	</g>
</g>
<g>
	<g>
		<path d="M243.938,319.92H11.997c-2.21,0-3.999,1.789-3.999,3.999c0,2.211,1.789,3.999,3.999,3.999h231.941
			c2.211,0,3.999-1.788,3.999-3.999C247.937,321.709,246.148,319.92,243.938,319.92z"/>
	</g>
</g>
<g>
	<g>
		<path d="M509.138,320.123l-47.965-15.996c-2.079-0.679-4.359,0.437-5.062,2.53c-0.696,2.094,0.437,4.36,2.53,5.062l47.965,15.996
			c0.422,0.141,0.844,0.203,1.266,0.203c1.67,0,3.233-1.062,3.796-2.733C512.364,323.09,511.231,320.826,509.138,320.123z"/>
	</g>
</g>
<g>
	<g>
		<path d="M511.668,322.654c-0.704-2.092-2.96-3.225-5.062-2.53l-47.965,15.996c-2.092,0.704-3.225,2.968-2.53,5.062
			c0.563,1.671,2.125,2.733,3.796,2.733c0.422,0,0.843-0.063,1.266-0.203l47.965-15.996
			C511.23,327.012,512.363,324.748,511.668,322.654z"/>
	</g>
</g>
<g>
	<g>
		<path d="M262.257,272.675l-56.063-40.041c-3.385-2.301-7.099-2.863-10.759-1.633c-7.557,2.562-13.29,12.782-16.488,19.952
			c-11.208-17.812-12.715-37.728-12.731-37.951c-0.098-1.367-0.886-2.597-2.093-3.245c-5.253-2.839-10.415-0.761-14.348,2.39
			c-2.253-10.786,0.32-21.432,2.816-31.781c3.862-15.988,7.853-32.518-10.533-43.809c-23.24-14.258-49.121,13.563-61.746,30.196
			c3.87-75.708,41.154-109.777,78.117-109.777c31.762,0,65.515,26.283,65.515,74.993c0,2.21,1.789,3.999,3.999,3.999
			c2.211,0,3.999-1.789,3.999-3.999c0-24.229-7.768-45.215-22.463-60.692c-13.454-14.172-32.063-22.299-51.05-22.299
			c-43.029,0-86.447,40.499-86.447,130.979c0,1.789,1.187,3.359,2.906,3.847c1.722,0.477,3.55-0.222,4.495-1.745
			c0.332-0.543,34.073-53.705,58.489-38.682c12.809,7.861,11.088,17.952,6.948,35.112c-3.128,12.949-6.67,27.625-0.57,42.938
			c0.547,1.374,1.808,2.331,3.276,2.495c1.464,0.188,2.909-0.496,3.741-1.722c0.042-0.062,3.858-5.327,7.271-5.725
			c0.965,7.564,4.734,28.172,18.281,45.316c0.913,1.152,2.394,1.711,3.827,1.461c1.449-0.258,2.64-1.285,3.105-2.68
			c2.093-6.31,8.334-19.99,14.254-21.994c0.887-0.301,2.027-0.457,3.62,0.617l55.985,39.994c0.703,0.5,1.515,0.742,2.32,0.742
			c1.25,0,2.476-0.586,3.257-1.672C264.472,276.454,264.058,273.962,262.257,272.675z"/>
	</g>
</g>
<g>
	<g>
		<path d="M302.518,49.129c-1.82-1.23-4.312-0.758-5.554,1.07l-81.713,120.626c-1.238,1.827-0.761,4.315,1.07,5.553
			c0.687,0.465,1.465,0.688,2.238,0.688c1.28,0,2.542-0.613,3.316-1.758l81.713-120.625
			C304.822,52.855,304.345,50.367,302.518,49.129z"/>
	</g>
</g>
<g>
	<g>
		<path d="M365.696,64.406l-15.995-7.998c-1.969-0.968-4.374-0.188-5.366,1.789c-0.984,1.976-0.188,4.378,1.789,5.366l8.841,4.42
			l-8.841,4.421c-1.086,0.547-1.875,1.559-2.125,2.75s0.055,2.433,0.828,3.374c3.788,4.593,8.561,12.927,7.264,15.977
			c-0.546,1.266-3.038,1.641-4.483,1.75c-2.203,0.168-3.851,2.089-3.687,4.292c0.164,2.096,1.914,3.694,3.983,3.694
			c0.109,0,0.211-0.004,0.313-0.012c7.193-0.551,10.075-3.89,11.231-6.592c2.726-6.413-1.953-15.059-5.475-20.214l11.723-5.862
			c1.352-0.68,2.211-2.062,2.211-3.578C367.907,66.468,367.048,65.086,365.696,64.406z"/>
	</g>
</g>
<g>
	<g>
		<path d="M336.516,97.321c-1.609-1.496-4.139-1.429-5.646,0.188c-1.515,1.608-1.429,4.139,0.18,5.65
			c0.351,0.332,35.013,33.441,28.898,76.231c-7.514,52.608-68.381,68.514-68.998,68.67c-0.696,0.175-1.344,0.538-1.852,1.05
			l-15.996,15.996c-1.562,1.562-1.562,4.093,0,5.655c0.781,0.781,1.805,1.172,2.828,1.172c1.024,0,2.046-0.391,2.828-1.172
			l15.254-15.254c8.763-2.538,66.17-21.186,73.856-74.985C374.584,133.542,338.071,98.777,336.516,97.321z"/>
	</g>
</g>
<g>
	<g>
		<path d="M275.93,263.935c-2.211,0-3.999,1.788-3.999,3.998v31.992c0,2.211,1.788,3.999,3.999,3.999
			c2.21,0,3.999-1.788,3.999-3.999v-31.992C279.929,265.723,278.14,263.935,275.93,263.935z"/>
	</g>
</g>
<g>
	<g>
		<path d="M259.934,271.933c-2.211,0-3.999,1.788-3.999,3.998v23.994c0,2.211,1.788,3.999,3.999,3.999
			c2.21,0,3.999-1.788,3.999-3.999v-23.994C263.933,273.721,262.144,271.933,259.934,271.933z"/>
	</g>
</g>
<g>
	<g>
		<path d="M267.932,303.925c-11.024,0-19.995,8.967-19.995,19.995c0,11.028,8.971,19.995,19.995,19.995
			c11.028,0,19.995-8.967,19.995-19.995C287.927,312.892,278.96,303.925,267.932,303.925z M267.932,335.916
			c-6.616,0-11.997-5.382-11.997-11.997c0-6.615,5.382-11.997,11.997-11.997c6.615,0,11.997,5.382,11.997,11.997
			C279.929,330.534,274.548,335.916,267.932,335.916z"/>
	</g>
</g>
<g>
	<g>
		<path d="M347.912,47.989c-2.21,0-3.999,1.789-3.999,3.999v7.998c0,2.211,1.789,3.999,3.999,3.999c2.21,0,3.999-1.788,3.999-3.999
			v-7.998C351.911,49.778,350.122,47.989,347.912,47.989z"/>
	</g>
</g>
<g>
	<g>
		<path d="M357.699,24.416c-1.976-0.976-4.366-0.183-5.366,1.789l-6.936,14.116c-0.984,1.976-0.188,4.378,1.789,5.366
			c0.578,0.285,1.186,0.422,1.788,0.422c1.461,0,2.874-0.808,3.577-2.211l6.936-14.116
			C360.471,27.806,359.675,25.404,357.699,24.416z"/>
	</g>
</g>
<g>
	<g>
		<path d="M290.655,47.005c-7.217-2.406-9.423-4.671-11.188-8.799c-1.852-4.347-0.023-8.295,0.039-8.424
			c0.983-1.976,0.188-4.378-1.789-5.366c-1.968-0.976-4.374-0.183-5.365,1.789c-0.148,0.293-3.522,7.209-0.312,14.961
			c2.679,6.475,6.407,10.201,16.085,13.423c0.422,0.141,0.844,0.207,1.266,0.207c1.671,0,3.234-1.058,3.795-2.734
			C293.881,49.965,292.749,47.7,290.655,47.005z"/>
	</g>
</g>
<g>
	<g>
		<path d="M358.737,25.167c-0.937-0.937-9.442-9.169-18.823-9.169c-6.49,0-12.559,3.941-15.995,6.678
			c-3.437-2.738-9.506-6.678-15.996-6.678c-6.609,0-12.779,4.081-16.184,6.826c-4.866-2.964-12.216-4.089-18.637,2.343
			c-1.562,1.562-1.562,4.093,0,5.655c0.781,0.781,1.805,1.172,2.828,1.172c1.024,0,2.046-0.391,2.827-1.172
			c4.734-4.722,9.131-1.172,10.341,0c1.562,1.558,4.085,1.57,5.647,0.004c1.921-1.898,8.014-6.83,13.177-6.83
			c5.162,0,11.254,4.932,13.176,6.83c1.547,1.554,4.093,1.554,5.64,0c1.921-1.898,8.013-6.83,13.176-6.83
			c5.163,0,11.255,4.932,13.177,6.83c1.562,1.554,4.084,1.558,5.646-0.012C360.299,29.251,360.299,26.725,358.737,25.167z"/>
	</g>
</g>
<g>
	<g>
		<path d="M267.932,343.915c-2.211,0-3.999,1.788-3.999,3.999v31.992c0,2.21,1.788,3.998,3.999,3.998
			c2.21,0,3.999-1.788,3.999-3.998v-31.992C271.931,345.703,270.142,343.915,267.932,343.915z"/>
	</g>
</g>
<g>
	<g>
		<path d="M404.467,411.936L288.223,395.23c-2.186-0.289-4.209,1.195-4.529,3.39c-0.312,2.186,1.203,4.218,3.39,4.53l116.244,16.706
			c0.195,0.023,0.383,0.039,0.578,0.039c1.952,0,3.663-1.437,3.952-3.429C408.17,414.28,406.655,412.248,404.467,411.936z"/>
	</g>
</g>
<g>
	<g>
		<path d="M248.772,388.653l-116.236-16.707c-2.222-0.257-4.21,1.211-4.53,3.39c-0.312,2.186,1.207,4.218,3.39,4.53l116.237,16.706
			c0.195,0.023,0.386,0.039,0.574,0.039c1.956,0,3.667-1.437,3.955-3.429C252.474,390.996,250.955,388.965,248.772,388.653z"/>
	</g>
</g>
<g>
	<g>
		<path d="M252.171,398.612c-0.316-2.188-2.324-3.687-4.53-3.39l-116.244,16.714c-2.187,0.312-3.702,2.343-3.39,4.53
			c0.289,1.992,1.999,3.429,3.956,3.429c0.187,0,0.379-0.016,0.574-0.039l116.244-16.714
			C250.968,402.83,252.483,400.799,252.171,398.612z"/>
	</g>
</g>
<g>
	<g>
		<path d="M407.858,375.337c-0.32-2.195-2.398-3.679-4.53-3.39l-116.244,16.707c-2.187,0.311-3.702,2.342-3.39,4.529
			c0.289,1.992,1.999,3.429,3.952,3.429c0.195,0,0.383-0.016,0.577-0.039l116.244-16.706
			C406.655,379.555,408.17,377.524,407.858,375.337z"/>
	</g>
</g>
<g>
	<g>
		<path d="M267.932,383.904c-6.616,0-11.997,5.382-11.997,11.998c0,6.615,5.382,11.996,11.997,11.996
			c6.615,0,11.997-5.381,11.997-11.996C279.929,389.286,274.548,383.904,267.932,383.904z M267.932,399.9
			c-2.203,0-3.999-1.796-3.999-3.998c0-2.203,1.796-4,3.999-4c2.202,0,3.999,1.797,3.999,4
			C271.931,398.104,270.134,399.9,267.932,399.9z"/>
	</g>
</g>
<g>
	<g>
		<path d="M267.932,407.898c-2.211,0-3.999,1.789-3.999,3.999v79.98c0,2.21,1.788,3.999,3.999,3.999c2.21,0,3.999-1.789,3.999-3.999
			v-79.98C271.931,409.687,270.142,407.898,267.932,407.898z"/>
	</g>
</g>
<g>
</g>
<g>
</g>
<g>
</g>
<g>
</g>
<g>
</g>
<g>
</g>
<g>
</g>
<g>
</g>
<g>
</g>
<g>
</g>
<g>
</g>
<g>
</g>
<g>
</g>
<g>
</g>
<g>
</g>
</svg>
