<?xml version="1.0" encoding="iso-8859-1"?>
<!-- Generator: Adobe Illustrator 19.0.0, SVG Export Plug-In . SVG Version: 6.00 Build 0)  -->
<svg version="1.1" id="Capa_1" xmlns="http://www.w3.org/2000/svg" xmlns:xlink="http://www.w3.org/1999/xlink" x="0px" y="0px"
	 viewBox="0 0 511.875 511.875" style="enable-background:new 0 0 511.875 511.875;" xml:space="preserve">
<g>
	<g>
		<path d="M307.932,475.888h-95.977c-2.21,0-3.999,1.788-3.999,3.999c0,2.21,1.789,3.999,3.999,3.999h95.977
			c2.21,0,3.998-1.789,3.998-3.999C311.93,477.676,310.142,475.888,307.932,475.888z"/>
	</g>
</g>
<g>
	<g>
		<path d="M191.945,191.605c-0.191-2.198-2.034-3.831-4.334-3.632c-2.199,0.195-3.827,2.137-3.632,4.335l23.994,271.935
			c0.183,2.077,1.929,3.647,3.979,3.647c0.117,0,0.234-0.008,0.355-0.015c2.199-0.195,3.827-2.132,3.632-4.335L191.945,191.605z"/>
	</g>
</g>
<g>
	<g>
		<path d="M324.162,187.964c-2.179-0.125-4.101,1.551-4.226,3.757L303.94,463.656c-0.133,2.204,1.547,4.101,3.758,4.226
			c0.078,0.008,0.156,0.008,0.234,0.008c2.101,0,3.865-1.64,3.991-3.765l15.996-271.935
			C328.044,189.987,326.365,188.093,324.162,187.964z"/>
	</g>
</g>
<g>
	<g>
		<path d="M380.421,203.985c-2.18-0.211-4.195,1.273-4.476,3.456l-31.992,247.937c-0.281,2.195,1.265,4.202,3.452,4.483
			c0.172,0.023,0.352,0.031,0.516,0.031c1.985,0,3.703-1.469,3.968-3.483l31.992-247.945
			C384.162,206.274,382.615,204.27,380.421,203.985z"/>
	</g>
</g>
<g>
	<g>
		<path d="M335.713,470.623c-0.696-2.092-2.937-3.241-5.053-2.53l-23.994,7.998c-2.093,0.703-3.225,2.968-2.531,5.062
			c0.563,1.671,2.117,2.733,3.797,2.733c0.414,0,0.843-0.062,1.265-0.203l23.994-7.998
			C335.283,474.981,336.416,472.717,335.713,470.623z"/>
	</g>
</g>
<g>
	<g>
		<path d="M213.221,476.091l-23.994-7.998c-2.116-0.711-4.362,0.437-5.057,2.53c-0.699,2.094,0.434,4.359,2.527,5.062l23.994,7.998
			c0.422,0.141,0.848,0.203,1.265,0.203c1.675,0,3.233-1.062,3.791-2.733C216.447,479.059,215.314,476.793,213.221,476.091z"/>
	</g>
</g>
<g>
	<g>
		<path d="M175.915,455.253l-39.99-247.937c-0.356-2.183-2.397-3.671-4.585-3.312c-2.179,0.352-3.664,2.406-3.312,4.585
			l39.99,247.945c0.316,1.96,2.014,3.358,3.944,3.358c0.211,0,0.426-0.016,0.641-0.054
			C174.782,459.486,176.266,457.441,175.915,455.253z"/>
	</g>
</g>
<g>
	<g>
		<path d="M191.808,190.86c-0.609-2.129-2.836-3.332-4.944-2.75l-55.986,15.996c-2.124,0.609-3.354,2.823-2.749,4.944
			c0.504,1.757,2.105,2.901,3.843,2.901c0.367,0,0.735-0.051,1.101-0.151l55.985-15.996
			C191.183,195.195,192.413,192.981,191.808,190.86z"/>
	</g>
</g>
<g>
	<g>
		<path d="M323.927,187.957H187.962c-2.21,0-3.999,1.789-3.999,3.999c0,2.211,1.789,3.999,3.999,3.999h135.965
			c2.211,0,3.999-1.788,3.999-3.999C327.926,189.746,326.138,187.957,323.927,187.957z"/>
	</g>
</g>
<g>
	<g>
		<path d="M381.006,204.105l-55.985-15.996c-2.1-0.585-4.335,0.622-4.944,2.75c-0.602,2.121,0.625,4.335,2.75,4.944l55.985,15.996
			c0.368,0.101,0.735,0.152,1.102,0.152c1.741,0,3.342-1.144,3.842-2.902C384.365,206.929,383.131,204.714,381.006,204.105z"/>
	</g>
</g>
<g>
	<g>
		<path d="M405.124,188.148l-71.286-22.791c-0.398-0.117-0.796-0.183-1.273-0.242c-1.202-0.304-2.444-0.496-3.663-0.656
			c-1.226-0.179-2.46-0.331-3.733-0.382c-0.203-0.035-1.039-0.113-1.242-0.113H187.961c-0.394,0-0.773,0.043-1.261,0.113
			c-1.246,0.05-2.487,0.203-3.772,0.382c-1.215,0.172-2.41,0.363-3.679,0.66c-0.231,0.032-1.07,0.196-1.297,0.27l-71.189,22.76
			c-2.105,0.672-3.264,2.921-2.589,5.026c0.668,2.101,2.898,3.273,5.026,2.589l71.111-22.717c0.145-0.02,0.808-0.137,0.949-0.172
			c0.922-0.227,1.86-0.363,2.785-0.5c1.004-0.137,1.996-0.265,2.906-0.304c0.351-0.007,0.691-0.047,1.011-0.109l135.981,0.016
			c0.164,0.027,0.859,0.101,1.023,0.109c0.938,0.023,1.866,0.151,2.835,0.292c0.961,0.129,1.906,0.265,2.828,0.492
			c0.313,0.082,0.633,0.133,0.875,0.133l71.185,22.76c0.407,0.132,0.813,0.191,1.219,0.191c1.694,0,3.264-1.081,3.802-2.781
			C408.39,191.069,407.226,188.82,405.124,188.148z"/>
	</g>
</g>
<g>
	<g>
		<path d="M126.806,205.125l-15.996-15.996c-1.562-1.562-4.093-1.562-5.655,0c-1.562,1.562-1.562,4.093,0,5.655l15.996,15.996
			c0.781,0.78,1.804,1.171,2.827,1.171s2.046-0.39,2.828-1.171C128.368,209.218,128.368,206.687,126.806,205.125z"/>
	</g>
</g>
<g>
	<g>
		<path d="M406.735,189.129c-1.562-1.562-4.092-1.562-5.654,0l-15.996,15.996c-1.562,1.562-1.562,4.093,0,5.655
			c0.78,0.78,1.804,1.171,2.827,1.171c1.022,0,2.046-0.39,2.827-1.171l15.996-15.996
			C408.297,193.222,408.297,190.691,406.735,189.129z"/>
	</g>
</g>
<g>
	<g>
		<path d="M351.842,455.112c-0.438-2.171-2.53-3.601-4.71-3.14l-39.989,7.998c-2.164,0.43-3.57,2.538-3.133,4.702
			c0.375,1.906,2.047,3.218,3.914,3.218c0.258,0,0.524-0.023,0.788-0.078l39.99-7.998
			C350.865,459.384,352.272,457.276,351.842,455.112z"/>
	</g>
</g>
<g>
	<g>
		<path d="M212.74,459.97l-39.99-7.998c-2.195-0.468-4.277,0.969-4.706,3.14c-0.433,2.164,0.972,4.272,3.136,4.702l39.99,7.998
			c0.266,0.055,0.532,0.078,0.789,0.078c1.868,0,3.539-1.312,3.917-3.218C216.309,462.508,214.904,460.4,212.74,459.97z"/>
	</g>
</g>
<g>
	<g>
		<path d="M307.932,459.892h-95.977c-2.21,0-3.999,1.788-3.999,3.999c0,2.21,1.789,3.999,3.999,3.999h95.977
			c2.21,0,3.998-1.789,3.998-3.999C311.93,461.68,310.142,459.892,307.932,459.892z"/>
	</g>
</g>
<g>
	<g>
		<path d="M367.386,166.254c-14.144-29.606-59.969-50.28-111.448-50.28c-51.46,0-97.276,20.671-111.417,50.265
			c-0.953,1.992-0.109,4.378,1.886,5.331c1.992,0.945,4.378,0.106,5.331-1.882c12.86-26.919,55.708-45.715,104.2-45.715
			c48.51,0,91.367,18.804,104.231,45.727c0.687,1.438,2.117,2.277,3.608,2.277c0.578,0,1.164-0.125,1.718-0.392
			C367.495,170.632,368.339,168.246,367.386,166.254z"/>
	</g>
</g>
<g>
	<g>
		<path d="M315.93,147.967H195.96c-2.21,0-3.999,1.789-3.999,3.999c0,2.21,1.789,3.999,3.999,3.999h119.97
			c2.21,0,3.998-1.788,3.998-3.999S318.14,147.967,315.93,147.967z"/>
	</g>
</g>
<g>
	<g>
		<path d="M299.934,427.9h-79.98c-2.21,0-3.999,1.789-3.999,3.999c0,2.211,1.789,3.999,3.999,3.999h79.98
			c2.21,0,3.998-1.788,3.998-3.999C303.932,429.689,302.144,427.9,299.934,427.9z"/>
	</g>
</g>
<g>
	<g>
		<path d="M243.94,339.923c-2.21,0-3.999,1.789-3.999,3.999v79.979c0,2.211,1.789,3.999,3.999,3.999c2.21,0,3.999-1.788,3.999-3.999
			v-79.979C247.939,341.712,246.15,339.923,243.94,339.923z"/>
	</g>
</g>
<g>
	<g>
		<path d="M275.94,339.923c-2.211,0-3.999,1.789-3.999,3.999v79.979c0,2.211,1.788,3.999,3.999,3.999
			c2.21,0,3.999-1.788,3.999-3.999v-79.979C279.939,341.712,278.15,339.923,275.94,339.923z"/>
	</g>
</g>
<g>
	<g>
		<path d="M275.94,339.922h-32c-2.21,0-3.999,1.789-3.999,3.999c0,2.21,1.789,3.999,3.999,3.999h32c2.21,0,3.999-1.789,3.999-3.999
			C279.939,341.711,278.15,339.922,275.94,339.922z"/>
	</g>
</g>
<g>
	<g>
		<path d="M259.936,275.938c-12.903,0-19.995,27.033-19.995,35.991c0,11.028,8.971,19.995,19.995,19.995
			c11.028,0,20.003-8.966,20.003-19.995C279.939,302.971,272.846,275.938,259.936,275.938z M259.936,323.926
			c-6.615,0-11.997-5.381-11.997-11.997c0-9.153,7.412-27.993,11.997-27.993c4.71,0,12.005,18.598,12.005,27.993
			C271.941,318.545,266.551,323.926,259.936,323.926z"/>
	</g>
</g>
<g>
	<g>
		<path d="M259.936,331.924c-2.211,0-3.999,1.789-3.999,3.999v7.998c0,2.21,1.788,3.999,3.999,3.999c2.21,0,3.999-1.789,3.999-3.999
			v-7.998C263.935,333.713,262.146,331.924,259.936,331.924z"/>
	</g>
</g>
<g>
	<g>
		<path d="M259.936,243.944c-28.661,0-51.979,23.326-51.979,51.99c0,14.739,6.304,28.853,17.297,38.717
			c1.652,1.476,4.179,1.343,5.647-0.304c1.476-1.64,1.339-4.171-0.305-5.647c-9.306-8.35-14.641-20.292-14.641-32.766
			c0-24.251,19.729-43.992,43.981-43.992c24.26,0,43.996,19.741,43.996,43.992c0,12.497-5.341,24.447-14.652,32.797
			c-1.648,1.475-1.781,3.999-0.305,5.647c0.789,0.882,1.875,1.327,2.977,1.327c0.953,0,1.905-0.336,2.67-1.023
			c10.997-9.856,17.308-23.985,17.308-38.748C311.93,267.27,288.608,243.944,259.936,243.944z"/>
	</g>
</g>
<g>
	<g>
		<path d="M467.891,331.924h-63.983c-2.211,0-3.999,1.789-3.999,3.999c0,2.21,1.788,3.999,3.999,3.999h63.983
			c2.211,0,3.999-1.789,3.999-3.999C471.89,333.713,470.102,331.924,467.891,331.924z"/>
	</g>
</g>
<g>
	<g>
		<path d="M107.982,331.924H43.999c-2.211,0-3.999,1.789-3.999,3.999c0,2.21,1.788,3.999,3.999,3.999h63.983
			c2.211,0,3.999-1.789,3.999-3.999C111.981,333.713,110.193,331.924,107.982,331.924z"/>
	</g>
</g>
<g>
	<g>
		<path d="M439.595,269.22c-0.844-2.038-3.188-3.007-5.226-2.163l-44.474,18.433c-2.046,0.844-3.007,3.187-2.163,5.226
			c0.632,1.538,2.124,2.468,3.694,2.468c0.508,0,1.032-0.094,1.532-0.305l44.473-18.433
			C439.47,273.602,440.438,271.259,439.595,269.22z"/>
	</g>
</g>
<g>
	<g>
		<path d="M124.158,381.145c-0.844-2.038-3.186-3.007-5.225-2.163L74.46,397.399c-2.039,0.844-3.007,3.187-2.164,5.226
			c0.636,1.538,2.128,2.468,3.694,2.468c0.512,0,1.031-0.093,1.531-0.305l44.473-18.417
			C124.033,385.527,125.002,383.184,124.158,381.145z"/>
	</g>
</g>
<g>
	<g>
		<path d="M121.993,285.521l-44.442-18.417c-2.038-0.844-4.382,0.117-5.225,2.163c-0.847,2.039,0.125,4.382,2.164,5.226
			l44.442,18.417c0.5,0.211,1.019,0.305,1.531,0.305c1.566,0,3.058-0.929,3.694-2.468
			C125.004,288.708,124.032,286.365,121.993,285.521z"/>
	</g>
</g>
<g>
	<g>
		<path d="M437.415,397.415l-44.441-18.417c-2.024-0.852-4.382,0.125-5.226,2.163c-0.852,2.039,0.125,4.382,2.163,5.226
			l44.442,18.417c0.5,0.211,1.014,0.305,1.53,0.305c1.563,0,3.055-0.93,3.696-2.468
			C440.422,400.602,439.454,398.259,437.415,397.415z"/>
	</g>
</g>
<g>
	<g>
		<path d="M235.946,427.9c-2.21,0-3.999,1.789-3.999,3.999v7.998c0,2.211,1.789,3.999,3.999,3.999c2.21,0,3.999-1.788,3.999-3.999
			v-7.998C239.945,429.689,238.156,427.9,235.946,427.9z"/>
	</g>
</g>
<g>
	<g>
		<path d="M259.936,427.9c-2.211,0-3.999,1.789-3.999,3.999v7.998c0,2.211,1.788,3.999,3.999,3.999c2.21,0,3.999-1.788,3.999-3.999
			v-7.998C263.935,429.689,262.146,427.9,259.936,427.9z"/>
	</g>
</g>
<g>
	<g>
		<path d="M283.938,427.9c-2.211,0-3.999,1.789-3.999,3.999v7.998c0,2.211,1.788,3.999,3.999,3.999c2.21,0,3.999-1.788,3.999-3.999
			v-7.998C287.937,429.689,286.148,427.9,283.938,427.9z"/>
	</g>
</g>
<g>
	<g>
		<path d="M198.584,97.898c-2.144-0.538-4.304,0.793-4.827,2.941c-1.187,4.897-1.792,9.97-1.796,15.086
			c0,2.21,1.788,4.003,3.995,4.003h0.004c2.206,0,3.999-1.789,3.998-3.995c0.004-4.483,0.531-8.928,1.57-13.208
			C202.048,100.581,200.731,98.418,198.584,97.898z"/>
	</g>
</g>
<g>
	<g>
		<path d="M255.906,51.992c-2.21,0-3.999,1.789-3.999,3.999c0,2.21,1.789,3.999,3.999,3.999c30.851,0,55.946,25.095,55.946,55.939
			c0,2.21,1.789,3.999,4,3.999c2.21,0,3.998-1.789,3.998-3.999C319.85,80.672,291.163,51.992,255.906,51.992z"/>
	</g>
</g>
<g>
	<g>
		<path d="M288.999,83.268c-10.997,0.472-22.119,0.714-33.05,0.714c-126.749,0-225.654-33.198-244.196-39.853
			c-0.074-0.028-0.801-0.282-0.879-0.305c-1.023-0.3-1.87-0.98-2.382-1.917s-0.629-2.015-0.328-3.034
			c0.304-1.031,0.984-1.879,1.921-2.39c0.925-0.508,2.007-0.633,3.527-0.145c18.429,6.62,116.724,39.646,242.337,39.646
			c2.21,0,3.999-1.788,3.999-3.999c0-2.21-1.789-3.999-3.999-3.999c-124.289,0-221.425-32.635-239.635-39.177
			c-0.075-0.027-0.856-0.3-0.93-0.32c-3.093-0.918-6.326-0.558-9.138,0.976C3.438,31,1.396,33.542,0.494,36.616
			c-0.906,3.07-0.558,6.311,0.977,9.123c1.538,2.815,4.077,4.862,7.58,5.92c18.76,6.733,118.825,40.322,246.898,40.322
			c11.048,0,22.279-0.242,33.394-0.723c2.203-0.094,3.913-1.961,3.819-4.167S291.202,83.108,288.999,83.268z"/>
	</g>
</g>
<g>
	<g>
		<path d="M510.802,35.031c-2.725-6.006-9.841-8.681-15.785-6.002c-0.68,0.281-72.536,28.149-179.401,36.565
			c-2.203,0.176-3.852,2.101-3.68,4.3c0.172,2.206,2.11,3.835,4.304,3.675c107.825-8.491,181.361-36.933,181.97-37.206
			c2.032-0.918,4.406-0.02,5.312,1.976c0.906,2.007,0.024,4.382-1.991,5.296c-0.594,0.273-69.881,27.969-176.667,37.287
			c-2.194,0.191-3.827,2.132-3.632,4.331c0.18,2.081,1.93,3.651,3.976,3.651c0.118,0,0.235-0.004,0.352-0.015
			c109.909-9.588,178.689-37.702,179.29-37.975C510.864,48.18,513.535,41.052,510.802,35.031z"/>
	</g>
</g>
<g>
</g>
<g>
</g>
<g>
</g>
<g>
</g>
<g>
</g>
<g>
</g>
<g>
</g>
<g>
</g>
<g>
</g>
<g>
</g>
<g>
</g>
<g>
</g>
<g>
</g>
<g>
</g>
<g>
</g>
</svg>
