<?xml version="1.0" encoding="iso-8859-1"?>
<!-- Generator: Adobe Illustrator 19.0.0, SVG Export Plug-In . SVG Version: 6.00 Build 0)  -->
<svg version="1.1" id="Capa_1" xmlns="http://www.w3.org/2000/svg" xmlns:xlink="http://www.w3.org/1999/xlink" x="0px" y="0px"
	 viewBox="0 0 511.873 511.873" style="enable-background:new 0 0 511.873 511.873;" xml:space="preserve">
<g>
	<g>
		<path d="M37.258,0.208c-2.109-0.703-4.358,0.433-5.057,2.526L0.208,98.711c-0.699,2.097,0.434,4.362,2.527,5.057
			c0.421,0.141,0.847,0.207,1.265,0.207c1.676,0,3.234-1.059,3.792-2.734L39.785,5.265C40.484,3.168,39.351,0.903,37.258,0.208z"/>
	</g>
</g>
<g>
	<g>
		<path d="M431.69,98.71L399.698,2.734c-0.704-2.092-2.954-3.229-5.062-2.526c-2.092,0.695-3.225,2.96-2.53,5.057l31.992,95.977
			c0.562,1.674,2.124,2.733,3.795,2.733c0.422,0,0.844-0.067,1.266-0.208C431.252,103.072,432.384,100.807,431.69,98.71z"/>
	</g>
</g>
<g>
	<g>
		<path d="M395.902,0.001H35.993c-2.21,0-3.999,1.789-3.999,3.999c0,2.21,1.789,3.999,3.999,3.999h359.909
			c2.21,0,3.999-1.789,3.999-3.999C399.901,1.79,398.112,0.001,395.902,0.001z"/>
	</g>
</g>
<g id="SVGCleanerId_0">
	<g>
		<path d="M427.893,95.977H4c-2.21,0-3.999,1.789-3.999,3.999c0,2.21,1.789,3.999,3.999,3.999h423.893c2.211,0,4-1.789,4-3.999
			C431.893,97.766,430.104,95.977,427.893,95.977z"/>
	</g>
</g>
<g>
	<g>
		<path d="M27.995,103.975c-2.21,0-3.999,1.789-3.999,3.999v391.9c0,2.211,1.789,4,3.999,4c2.21,0,3.999-1.789,3.999-3.999V107.974
			C31.994,105.764,30.205,103.975,27.995,103.975z"/>
	</g>
</g>
<g>
	<g>
		<path d="M43.991,103.975c-2.211,0-3.999,1.789-3.999,3.999v391.9c0,2.211,1.788,4,3.999,4c2.21,0,3.999-1.789,3.999-3.999V107.974
			C47.99,105.764,46.201,103.975,43.991,103.975z"/>
	</g>
</g>
<g>
	<g>
		<path d="M379.906,103.975c-2.21,0-3.999,1.789-3.999,3.999v391.9c0,2.211,1.789,4,3.999,4c2.21,0,3.999-1.789,3.999-3.999V107.974
			C383.905,105.764,382.116,103.975,379.906,103.975z"/>
	</g>
</g>
<g>
	<g>
		<path d="M395.902,103.975c-2.211,0-3.999,1.789-3.999,3.999v391.9c0,2.211,1.788,4,3.999,4c2.21,0,3.999-1.789,3.999-3.999
			V107.974C399.901,105.764,398.112,103.975,395.902,103.975z"/>
	</g>
</g>
<g>
	<g>
		<path d="M363.91,367.909H59.983c-2.211,0-3.999,1.788-3.999,3.999c0,2.21,1.788,3.999,3.999,3.999H363.91
			c2.21,0,3.999-1.789,3.999-3.999C367.909,369.697,366.12,367.909,363.91,367.909z"/>
	</g>
</g>
<g>
	<g>
		<path d="M363.91,399.9H59.983c-2.211,0-3.999,1.789-3.999,4c0,2.21,1.788,3.998,3.999,3.998H363.91
			c2.21,0,3.999-1.788,3.999-3.998C367.909,401.689,366.12,399.9,363.91,399.9z"/>
	</g>
</g>
<g>
	<g>
		<path d="M363.91,431.892H59.983c-2.211,0-3.999,1.789-3.999,3.999c0,2.21,1.788,3.999,3.999,3.999H363.91
			c2.21,0,3.999-1.789,3.999-3.999C367.909,433.681,366.12,431.892,363.91,431.892z"/>
	</g>
</g>
<g>
	<g>
		<path d="M363.91,463.884H59.983c-2.211,0-3.999,1.789-3.999,3.999c0,2.21,1.788,3.999,3.999,3.999H363.91
			c2.21,0,3.999-1.789,3.999-3.999C367.909,465.673,366.12,463.884,363.91,463.884z"/>
	</g>
</g>
<g>
	<g>
		<path d="M411.897,503.875H11.995c-2.21,0-3.999,1.788-3.999,3.998c0,2.211,1.789,4,3.999,4h399.902c2.211,0,4-1.79,4-4
			C415.897,505.663,414.108,503.875,411.897,503.875z"/>
	</g>
</g>
<g>
	<g>
		<path d="M91.978,367.909c-2.21,0-3.999,1.788-3.999,3.999V403.9c0,2.21,1.789,3.998,3.999,3.998c2.211,0,3.999-1.788,3.999-3.998
			v-31.992C95.977,369.697,94.189,367.909,91.978,367.909z"/>
	</g>
</g>
<g>
	<g>
		<path d="M171.958,367.909c-2.211,0-3.999,1.788-3.999,3.999V403.9c0,2.21,1.788,3.998,3.999,3.998c2.21,0,4-1.788,3.999-3.998
			v-31.992C175.957,369.697,174.168,367.909,171.958,367.909z"/>
	</g>
</g>
<g>
	<g>
		<path d="M251.938,367.909c-2.21,0-3.999,1.788-3.999,3.999V403.9c0,2.21,1.789,3.998,3.999,3.998c2.21,0,3.999-1.788,3.999-3.998
			v-31.992C255.937,369.697,254.148,367.909,251.938,367.909z"/>
	</g>
</g>
<g>
	<g>
		<path d="M331.917,367.909c-2.21,0-3.999,1.788-3.999,3.999V403.9c0,2.21,1.789,3.998,3.999,3.998c2.211,0,3.999-1.788,3.999-3.998
			v-31.992C335.916,369.697,334.128,367.909,331.917,367.909z"/>
	</g>
</g>
<g>
	<g>
		<path d="M131.968,399.9c-2.21,0-3.999,1.789-3.999,4v31.991c0,2.21,1.789,3.999,3.999,3.999c2.211,0,3.999-1.789,3.999-3.999
			V403.9C135.967,401.689,134.178,399.9,131.968,399.9z"/>
	</g>
</g>
<g>
	<g>
		<path d="M211.952,399.9c-2.21,0-3.999,1.789-3.999,4v31.991c0,2.21,1.789,3.999,3.999,3.999c2.211,0,3.999-1.789,3.999-3.999
			V403.9C215.951,401.689,214.163,399.9,211.952,399.9z"/>
	</g>
</g>
<g>
	<g>
		<path d="M291.928,399.9c-2.211,0-3.999,1.789-3.999,4v31.991c0,2.21,1.788,3.999,3.999,3.999c2.21,0,3.998-1.789,3.998-3.999
			V403.9C295.926,401.689,294.138,399.9,291.928,399.9z"/>
	</g>
</g>
<g>
	<g>
		<path d="M91.978,431.892c-2.21,0-3.999,1.789-3.999,3.999v31.992c0,2.21,1.789,3.999,3.999,3.999c2.211,0,3.999-1.789,3.999-3.999
			v-31.992C95.977,433.681,94.189,431.892,91.978,431.892z"/>
	</g>
</g>
<g>
	<g>
		<path d="M171.958,431.892c-2.211,0-3.999,1.789-3.999,3.999v31.992c0,2.21,1.788,3.999,3.999,3.999c2.21,0,4-1.789,3.999-3.999
			v-31.992C175.957,433.681,174.168,431.892,171.958,431.892z"/>
	</g>
</g>
<g>
	<g>
		<path d="M251.938,431.892c-2.21,0-3.999,1.789-3.999,3.999v31.992c0,2.21,1.789,3.999,3.999,3.999c2.21,0,3.999-1.789,3.999-3.999
			v-31.992C255.937,433.681,254.148,431.892,251.938,431.892z"/>
	</g>
</g>
<g>
	<g>
		<path d="M331.917,431.892c-2.21,0-3.999,1.789-3.999,3.999v31.992c0,2.21,1.789,3.999,3.999,3.999
			c2.211,0,3.999-1.789,3.999-3.999v-31.992C335.916,433.681,334.128,431.892,331.917,431.892z"/>
	</g>
</g>
<g>
	<g>
		<path d="M131.968,463.884c-2.21,0-3.999,1.789-3.999,3.999v31.991c0,2.211,1.789,4,3.999,4c2.211,0,3.999-1.789,3.999-4v-31.991
			C135.967,465.673,134.178,463.884,131.968,463.884z"/>
	</g>
</g>
<g>
	<g>
		<path d="M211.952,463.884c-2.21,0-3.999,1.789-3.999,3.999v31.991c0,2.211,1.789,4,3.999,4c2.211,0,3.999-1.789,3.999-4v-31.991
			C215.951,465.673,214.163,463.884,211.952,463.884z"/>
	</g>
</g>
<g>
	<g>
		<path d="M291.928,463.884c-2.211,0-3.999,1.789-3.999,3.999v31.991c0,2.211,1.788,4,3.999,4c2.21,0,3.998-1.789,3.998-4v-31.991
			C295.926,465.673,294.138,463.884,291.928,463.884z"/>
	</g>
</g>
<g>
	<g>
		<path d="M59.983,343.915c-2.211,0-3.999,1.788-3.999,3.999v7.998c0,2.21,1.788,3.999,3.999,3.999c2.21,0,3.998-1.789,3.999-3.999
			v-7.998C63.982,345.703,62.193,343.915,59.983,343.915z"/>
	</g>
</g>
<g>
	<g>
		<path d="M363.91,343.915H59.983c-2.211,0-3.999,1.788-3.999,3.999c0,2.21,1.788,3.999,3.999,3.999H363.91
			c2.21,0,3.999-1.789,3.999-3.999C367.909,345.703,366.12,343.915,363.91,343.915z"/>
	</g>
</g>
<g>
	<g>
		<path d="M363.91,343.915c-2.21,0-3.999,1.788-3.999,3.999v7.998c0,2.21,1.789,3.999,3.999,3.999s3.999-1.789,3.999-3.999v-7.998
			C367.909,345.703,366.12,343.915,363.91,343.915z"/>
	</g>
</g>
<g>
	<g>
		<path d="M83.98,343.915c-2.21,0-3.999,1.788-3.999,3.999v3.999c0,2.21,1.789,3.999,3.999,3.999c2.211,0,3.999-1.789,3.999-3.999
			v-3.999C87.979,345.703,86.19,343.915,83.98,343.915z"/>
	</g>
</g>
<g>
	<g>
		<path d="M115.972,343.915c-2.21,0-3.999,1.788-3.999,3.999v3.999c0,2.21,1.789,3.999,3.999,3.999c2.211,0,3.999-1.789,3.999-3.999
			v-3.999C119.971,345.703,118.182,343.915,115.972,343.915z"/>
	</g>
</g>
<g>
	<g>
		<path d="M147.964,343.915c-2.21,0-3.999,1.788-3.999,3.999v3.999c0,2.21,1.789,3.999,3.999,3.999c2.21,0,3.999-1.789,3.999-3.999
			v-3.999C151.963,345.703,150.174,343.915,147.964,343.915z"/>
	</g>
</g>
<g>
	<g>
		<path d="M179.956,343.915c-2.211,0-3.999,1.788-3.999,3.999v3.999c0,2.21,1.789,3.999,3.999,3.999c2.21,0,3.999-1.789,3.999-3.999
			v-3.999C183.955,345.703,182.167,343.915,179.956,343.915z"/>
	</g>
</g>
<g>
	<g>
		<path d="M211.948,343.915c-2.21,0-3.999,1.788-3.999,3.999v3.999c0,2.21,1.789,3.999,3.999,3.999c2.211,0,3.999-1.789,3.999-3.999
			v-3.999C215.947,345.703,214.159,343.915,211.948,343.915z"/>
	</g>
</g>
<g>
	<g>
		<path d="M243.94,343.915c-2.21,0-3.999,1.788-3.999,3.999v3.999c0,2.21,1.789,3.999,3.999,3.999c2.21,0,3.999-1.789,3.999-3.999
			v-3.999C247.939,345.703,246.15,343.915,243.94,343.915z"/>
	</g>
</g>
<g>
	<g>
		<path d="M275.932,343.915c-2.211,0-3.999,1.788-3.999,3.999v3.999c0,2.21,1.788,3.999,3.999,3.999c2.21,0,3.999-1.789,3.999-3.999
			v-3.999C279.931,345.703,278.142,343.915,275.932,343.915z"/>
	</g>
</g>
<g>
	<g>
		<path d="M307.924,343.915c-2.211,0-4,1.788-4,3.999v3.999c0,2.21,1.789,3.999,4,3.999c2.21,0,3.998-1.789,3.998-3.999v-3.999
			C311.922,345.703,310.134,343.915,307.924,343.915z"/>
	</g>
</g>
<g>
	<g>
		<path d="M339.916,343.915c-2.21,0-3.999,1.788-3.999,3.999v3.999c0,2.21,1.789,3.999,3.999,3.999c2.21,0,3.999-1.789,3.999-3.999
			v-3.999C343.915,345.703,342.127,343.915,339.916,343.915z"/>
	</g>
</g>
<g>
	<g>
		<path d="M67.985,167.958c-6.616,0-11.997,5.382-11.997,11.997c0,2.211,1.788,3.999,3.999,3.999c2.21,0,3.998-1.788,3.999-3.999
			c0-2.207,1.792-3.999,3.999-3.999c2.21,0,3.999-1.789,3.999-3.999C71.984,169.747,70.195,167.958,67.985,167.958z"/>
	</g>
</g>
<g>
	<g>
		<path d="M355.904,167.958c-2.21,0-3.999,1.789-3.999,3.999c0,2.21,1.789,3.999,3.999,3.999c2.21,0,3.999,1.793,3.999,3.999
			c0,2.211,1.789,3.999,3.999,3.999c2.21,0,3.999-1.788,3.999-3.999C367.901,173.339,362.52,167.958,355.904,167.958z"/>
	</g>
</g>
<g>
	<g>
		<path d="M203.951,215.946H67.977c-2.21,0-3.999,1.789-3.999,3.999c0,2.21,1.789,3.999,3.999,3.999H203.95c2.211,0,4-1.789,4-3.999
			C207.95,217.735,206.161,215.946,203.951,215.946z"/>
	</g>
</g>
<g>
	<g>
		<path d="M235.942,215.946h-16c-2.21,0-3.999,1.789-3.999,3.999c0,2.21,1.789,3.999,3.999,3.999h16c2.21,0,3.999-1.789,3.999-3.999
			C239.941,217.735,238.152,215.946,235.942,215.946z"/>
	</g>
</g>
<g>
	<g>
		<path d="M267.934,215.946h-15.996c-2.21,0-3.999,1.789-3.999,3.999c0,2.21,1.789,3.999,3.999,3.999h15.996
			c2.21,0,3.999-1.789,3.999-3.999C271.933,217.735,270.144,215.946,267.934,215.946z"/>
	</g>
</g>
<g>
	<g>
		<path d="M299.926,215.946H283.93c-2.211,0-3.999,1.789-3.999,3.999c0,2.21,1.788,3.999,3.999,3.999h15.996
			c2.21,0,3.998-1.789,3.998-3.999C303.924,217.735,302.136,215.946,299.926,215.946z"/>
	</g>
</g>
<g>
	<g>
		<path d="M355.904,215.946h-39.981c-2.211,0-4,1.789-4,3.999c0,2.21,1.789,3.999,4,3.999h39.981c2.21,0,3.999-1.789,3.999-3.999
			C359.903,217.735,358.114,215.946,355.904,215.946z"/>
	</g>
</g>
<g>
	<g>
		<path d="M363.902,207.948c-2.21,0-3.999,1.789-3.999,3.999c0,2.207-1.789,3.999-3.999,3.999c-2.21,0-3.999,1.789-3.999,3.999
			c0,2.21,1.789,3.999,3.999,3.999c6.616,0,11.997-5.381,11.997-11.997C367.901,209.737,366.112,207.948,363.902,207.948z"/>
	</g>
</g>
<g>
	<g>
		<path d="M67.984,215.946c-2.207,0-3.999-1.792-3.999-3.999c0-2.21-1.789-3.999-3.999-3.999c-2.211,0-3.999,1.789-3.999,3.999
			c0,6.616,5.381,11.997,11.997,11.997c2.211,0,3.999-1.789,3.999-3.999C71.983,217.735,70.194,215.946,67.984,215.946z"/>
	</g>
</g>
<g>
	<g>
		<path d="M203.951,167.959H67.977c-2.21,0-3.999,1.789-3.999,3.999c0,2.21,1.789,3.999,3.999,3.999H203.95c2.211,0,4-1.789,4-3.999
			C207.95,169.748,206.161,167.959,203.951,167.959z"/>
	</g>
</g>
<g>
	<g>
		<path d="M235.942,167.959h-16c-2.21,0-3.999,1.789-3.999,3.999c0,2.21,1.789,3.999,3.999,3.999h16c2.21,0,3.999-1.789,3.999-3.999
			C239.941,169.748,238.152,167.959,235.942,167.959z"/>
	</g>
</g>
<g>
	<g>
		<path d="M267.934,167.959h-15.996c-2.21,0-3.999,1.789-3.999,3.999c0,2.21,1.789,3.999,3.999,3.999h15.996
			c2.21,0,3.999-1.789,3.999-3.999C271.933,169.748,270.144,167.959,267.934,167.959z"/>
	</g>
</g>
<g>
	<g>
		<path d="M299.926,167.959H283.93c-2.211,0-3.999,1.789-3.999,3.999c0,2.21,1.788,3.999,3.999,3.999h15.996
			c2.21,0,3.998-1.789,3.998-3.999C303.924,169.748,302.136,167.959,299.926,167.959z"/>
	</g>
</g>
<g>
	<g>
		<path d="M355.904,167.959h-39.981c-2.211,0-4,1.789-4,3.999c0,2.21,1.789,3.999,4,3.999h39.981c2.21,0,3.999-1.789,3.999-3.999
			C359.903,169.748,358.114,167.959,355.904,167.959z"/>
	</g>
</g>
<g>
	<g>
		<path d="M203.95,183.954H75.982c-2.21,0-3.999,1.789-3.999,3.999c0,2.211,1.789,3.999,3.999,3.999H203.95
			c2.211,0,3.999-1.788,3.999-3.999C207.949,185.743,206.16,183.954,203.95,183.954z"/>
	</g>
</g>
<g>
	<g>
		<path d="M235.942,183.954h-16c-2.21,0-3.999,1.789-3.999,3.999c0,2.211,1.789,3.999,3.999,3.999h16
			c2.21,0,3.999-1.788,3.999-3.999C239.941,185.743,238.152,183.954,235.942,183.954z"/>
	</g>
</g>
<g>
	<g>
		<path d="M267.934,183.954h-15.996c-2.21,0-3.999,1.789-3.999,3.999c0,2.211,1.789,3.999,3.999,3.999h15.996
			c2.21,0,3.999-1.788,3.999-3.999C271.933,185.743,270.144,183.954,267.934,183.954z"/>
	</g>
</g>
<g>
	<g>
		<path d="M299.926,183.954H283.93c-2.211,0-3.999,1.789-3.999,3.999c0,2.211,1.788,3.999,3.999,3.999h15.996
			c2.21,0,3.998-1.788,3.998-3.999C303.924,185.743,302.136,183.954,299.926,183.954z"/>
	</g>
</g>
<g>
	<g>
		<path d="M347.914,183.954h-31.991c-2.211,0-4,1.789-4,3.999c0,2.211,1.789,3.999,4,3.999h31.991c2.21,0,3.999-1.788,3.999-3.999
			C351.913,185.743,350.124,183.954,347.914,183.954z"/>
	</g>
</g>
<g>
	<g>
		<path d="M59.987,175.956c-2.211,0-3.999,1.789-3.999,3.999v31.992c0,2.21,1.788,3.999,3.999,3.999c2.21,0,3.998-1.788,3.999-3.999
			v-31.992C63.986,177.745,62.197,175.956,59.987,175.956z"/>
	</g>
</g>
<g>
	<g>
		<path d="M363.902,175.956c-2.21,0-3.999,1.789-3.999,3.999v31.992c0,2.21,1.789,3.999,3.999,3.999c2.21,0,3.999-1.788,3.999-3.999
			v-31.992C367.901,177.745,366.112,175.956,363.902,175.956z"/>
	</g>
</g>
<g>
	<g>
		<path d="M59.987,183.954h-7.998c-2.211,0-3.999,1.789-3.999,3.999c0,2.211,1.788,3.999,3.999,3.999h7.998
			c2.21,0,3.998-1.788,3.999-3.999C63.986,185.743,62.197,183.954,59.987,183.954z"/>
	</g>
</g>
<g>
	<g>
		<path d="M59.987,199.95h-7.998c-2.211,0-3.999,1.789-3.999,3.999c0,2.21,1.788,3.999,3.999,3.999h7.998
			c2.21,0,3.998-1.788,3.999-3.999C63.986,201.739,62.197,199.95,59.987,199.95z"/>
	</g>
</g>
<g>
	<g>
		<path d="M371.908,184.126h-8.006c-2.21,0-3.999,1.789-3.999,3.999c0,2.211,1.789,3.999,3.999,3.999h8.006
			c2.21,0,3.999-1.788,3.999-3.999C375.907,185.915,374.118,184.126,371.908,184.126z"/>
	</g>
</g>
<g>
	<g>
		<path d="M371.908,199.95h-8.006c-2.21,0-3.999,1.789-3.999,3.999c0,2.21,1.789,3.999,3.999,3.999h8.006
			c2.21,0,3.999-1.788,3.999-3.999C375.907,201.739,374.118,199.95,371.908,199.95z"/>
	</g>
</g>
<g>
	<g>
		<path d="M211.948,159.96c-2.21,0-3.999,1.789-3.999,3.999v71.982c0,2.21,1.789,3.999,3.999,3.999c2.211,0,3.999-1.789,3.999-3.999
			v-71.982C215.947,161.749,214.159,159.96,211.948,159.96z"/>
	</g>
</g>
<g>
	<g>
		<path d="M255.088,257.475c-0.757-0.973-1.921-1.539-3.151-1.539h-79.979c-1.231,0-2.395,0.567-3.152,1.539
			c-0.757,0.969-1.027,2.235-0.726,3.429l15.996,63.984c0.445,1.781,2.043,3.03,3.878,3.03h47.988c1.836,0,3.433-1.249,3.877-3.03
			l15.996-63.984C256.115,259.709,255.846,258.444,255.088,257.475z M232.818,319.92h-41.739l-13.997-55.985h69.732L232.818,319.92z
			"/>
	</g>
</g>
<g>
	<g>
		<path d="M245.728,248.36c-0.687-0.344-17.035-8.42-33.781-8.42c-16.745,0-33.092,8.076-33.78,8.42
			c-1.977,0.987-2.773,3.385-1.789,5.361c0.988,1.977,3.398,2.781,5.362,1.793c0.152-0.074,15.383-7.576,30.207-7.576
			c14.825,0,30.056,7.502,30.208,7.576c0.571,0.285,1.179,0.422,1.781,0.422c1.469,0,2.882-0.812,3.581-2.215
			C248.501,251.746,247.704,249.348,245.728,248.36z"/>
	</g>
</g>
<g>
	<g>
		<path d="M243.94,159.96c-2.21,0-3.999,1.789-3.999,3.999v63.984c0,2.21,1.789,3.999,3.999,3.999c2.21,0,3.999-1.788,3.999-3.999
			v-63.984C247.939,161.749,246.15,159.96,243.94,159.96z"/>
	</g>
</g>
<g>
	<g>
		<path d="M275.932,159.96c-2.211,0-3.999,1.789-3.999,3.999v63.984c0,2.21,1.788,3.999,3.999,3.999c2.21,0,3.999-1.788,3.999-3.999
			v-63.984C279.931,161.749,278.142,159.96,275.932,159.96z"/>
	</g>
</g>
<g>
	<g>
		<path d="M307.924,159.96c-2.211,0-4,1.789-4,3.999v63.984c0,2.21,1.789,3.999,4,3.999c2.21,0,3.998-1.788,3.998-3.999v-63.984
			C311.922,161.749,310.134,159.96,307.924,159.96z"/>
	</g>
</g>
<g>
	<g>
		<path d="M419.895,183.954H403.9c-2.211,0-3.999,1.789-3.999,3.999c0,2.211,1.788,3.999,3.999,3.999h15.995
			c2.211,0,4-1.788,4-3.999C423.895,185.743,422.106,183.954,419.895,183.954z"/>
	</g>
</g>
<g>
	<g>
		<path d="M411.897,199.95H403.9c-2.211,0-3.999,1.789-3.999,3.999c0,2.21,1.788,3.999,3.999,3.999h7.997c2.211,0,4-1.788,4-3.999
			C415.897,201.739,414.108,199.95,411.897,199.95z"/>
	</g>
</g>
<g>
	<g>
		<path d="M419.895,183.954c-2.21,0-3.998,1.789-3.998,3.999c0,2.211,1.788,3.999,3.998,3.999c2.203,0,4,1.793,4,3.999
			c0,2.211,1.788,3.999,3.998,3.999c2.211,0,4-1.788,4-3.999C431.893,189.336,426.511,183.954,419.895,183.954z"/>
	</g>
</g>
<g>
	<g>
		<path d="M419.895,239.94c-2.202,0-3.998-1.793-3.998-3.999c0-2.21-1.789-3.999-4-3.999c-2.21,0-3.998,1.789-3.998,3.999
			c0,6.615,5.381,11.997,11.996,11.997c2.211,0,4-1.789,4-3.999S422.106,239.94,419.895,239.94z"/>
	</g>
</g>
<g>
	<g>
		<path d="M427.893,191.952c-2.21,0-3.998,1.789-3.998,3.999v31.992c0,2.21,1.788,3.999,3.998,3.999c2.211,0,4-1.788,4-3.999
			v-31.992C431.893,193.741,430.104,191.952,427.893,191.952z"/>
	</g>
</g>
<g>
	<g>
		<path d="M411.897,199.95c-2.21,0-3.998,1.789-3.998,3.999v31.992c0,2.21,1.788,3.999,3.998,3.999c2.211,0,4-1.789,4-3.999v-31.992
			C415.897,201.739,414.108,199.95,411.897,199.95z"/>
	</g>
</g>
<g>
	<g>
		<path d="M499.875,223.944h-71.982c-2.21,0-3.998,1.789-3.998,3.999c0,2.21,1.788,3.999,3.998,3.999h71.982
			c2.21,0,3.999-1.789,3.999-3.999C503.874,225.733,502.085,223.944,499.875,223.944z"/>
	</g>
</g>
<g>
	<g>
		<path d="M499.875,239.94h-79.98c-2.21,0-3.998,1.789-3.998,3.999s1.788,3.999,3.998,3.999h79.98c2.21,0,4-1.789,3.999-3.999
			C503.874,241.729,502.085,239.94,499.875,239.94z"/>
	</g>
</g>
<g>
	<g>
		<path d="M499.875,223.944c-2.211,0-3.999,1.789-3.999,3.999c0,2.21,1.788,3.999,3.999,3.999c2.202,0,3.999,1.792,3.999,3.999
			c0,2.206-1.797,3.999-3.999,3.999c-2.211,0-3.999,1.789-3.999,3.999s1.788,3.999,3.999,3.999c6.616,0,11.998-5.381,11.997-11.997
			C511.872,229.325,506.49,223.944,499.875,223.944z"/>
	</g>
</g>
<g>
	<g>
		<path d="M453.676,224.365c-1.976-0.98-4.374-0.187-5.366,1.789l-7.998,15.996c-0.983,1.976-0.188,4.378,1.789,5.366
			c0.57,0.285,1.179,0.422,1.788,0.422c1.469,0,2.875-0.808,3.578-2.211l7.997-15.996
			C456.448,227.755,455.652,225.353,453.676,224.365z"/>
	</g>
</g>
<g>
	<g>
		<path d="M469.672,224.365c-1.976-0.98-4.374-0.187-5.366,1.789l-7.998,15.996c-0.983,1.976-0.188,4.378,1.789,5.366
			c0.569,0.285,1.179,0.422,1.788,0.422c1.469,0,2.875-0.808,3.577-2.211l7.998-15.996
			C472.444,227.755,471.648,225.353,469.672,224.365z"/>
	</g>
</g>
<g>
	<g>
		<path d="M485.668,224.365c-1.984-0.98-4.374-0.187-5.366,1.789l-7.998,15.996c-0.984,1.976-0.188,4.378,1.788,5.366
			c0.57,0.285,1.18,0.422,1.789,0.422c1.469,0,2.874-0.808,3.577-2.211l7.998-15.996
			C488.44,227.755,487.644,225.353,485.668,224.365z"/>
	</g>
</g>
<g>
	<g>
		<path d="M427.893,95.977H4c-2.21,0-3.999,1.789-3.999,3.999c0,2.21,1.789,3.999,3.999,3.999h423.893c2.211,0,4-1.789,4-3.999
			C431.893,97.766,430.104,95.977,427.893,95.977z"/>
	</g>
</g>
<g>
	<g>
		<path d="M109.122,16.164c-2.124-0.632-4.346,0.566-4.979,2.683L84.949,82.831c-0.633,2.113,0.566,4.342,2.683,4.979
			c0.383,0.113,0.769,0.168,1.148,0.168c1.722,0,3.311-1.116,3.831-2.85l19.194-63.985C112.437,19.03,111.239,16.8,109.122,16.164z"
			/>
	</g>
</g>
<g>
	<g>
		<path d="M180.354,16.016c-2.21-0.172-4.155,1.386-4.377,3.581L169.58,83.58c-0.219,2.199,1.383,4.159,3.581,4.378
			c0.136,0.012,0.269,0.02,0.402,0.02c2.031,0,3.769-1.538,3.975-3.601l6.397-63.983C184.154,18.195,182.553,16.235,180.354,16.016z
			"/>
	</g>
</g>
<g>
	<g>
		<path d="M255.917,19.597c-0.219-2.195-2.105-3.745-4.378-3.581c-2.198,0.219-3.8,2.179-3.581,4.378l6.4,63.983
			c0.207,2.062,1.946,3.601,3.976,3.601c0.133,0,0.266-0.007,0.402-0.02c2.199-0.219,3.8-2.179,3.581-4.378L255.917,19.597z"/>
	</g>
</g>
<g>
	<g>
		<path d="M346.947,82.831l-19.199-63.984c-0.633-2.117-2.851-3.316-4.975-2.683c-2.118,0.636-3.321,2.866-2.68,4.979l19.199,63.984
			c0.514,1.734,2.108,2.851,3.826,2.851c0.375,0,0.765-0.054,1.149-0.168C346.385,87.173,347.587,84.944,346.947,82.831z"/>
	</g>
</g>
<g>
</g>
<g>
</g>
<g>
</g>
<g>
</g>
<g>
</g>
<g>
</g>
<g>
</g>
<g>
</g>
<g>
</g>
<g>
</g>
<g>
</g>
<g>
</g>
<g>
</g>
<g>
</g>
<g>
</g>
</svg>
