<?xml version="1.0" encoding="iso-8859-1"?>
<!-- Generator: Adobe Illustrator 19.0.0, SVG Export Plug-In . SVG Version: 6.00 Build 0)  -->
<svg version="1.1" id="Capa_1" xmlns="http://www.w3.org/2000/svg" xmlns:xlink="http://www.w3.org/1999/xlink" x="0px" y="0px"
	 viewBox="0 0 511.872 511.872" style="enable-background:new 0 0 511.872 511.872;" xml:space="preserve">
<g>
	<g>
		<path d="M375.906,39.99c-2.211,0-3.999,1.789-3.999,3.999v95.976c0,2.21,1.788,3.999,3.999,3.999c2.21,0,3.999-1.789,3.999-3.999
			V43.989C379.905,41.779,378.116,39.99,375.906,39.99z"/>
	</g>
</g>
<g>
	<g>
		<path d="M375.906,423.894c-2.211,0-3.999,1.789-3.999,3.999v79.979c0,2.211,1.788,4,3.999,4c2.21,0,3.999-1.79,3.999-4v-79.979
			C379.905,425.683,378.116,423.894,375.906,423.894z"/>
	</g>
</g>
<g>
	<g>
		<path d="M116.213,55.986h-0.086c-2.202,0-3.952,1.788-3.952,3.999s1.828,3.999,4.038,3.999c2.203,0,3.999-1.789,3.999-3.999
			C120.212,57.775,118.416,55.986,116.213,55.986z"/>
	</g>
</g>
<g>
	<g>
		<path d="M156.204,55.986h-0.086c-2.203,0-3.952,1.788-3.952,3.999s1.827,3.999,4.038,3.999c2.202,0,3.999-1.789,3.999-3.999
			C160.203,57.775,158.406,55.986,156.204,55.986z"/>
	</g>
</g>
<g>
	<g>
		<path d="M156.204,103.974h-0.086c-2.203,0-3.952,1.789-3.952,3.999c0,2.21,1.827,3.999,4.038,3.999
			c2.202,0,3.999-1.789,3.999-3.999C160.203,105.763,158.406,103.974,156.204,103.974z"/>
	</g>
</g>
<g>
	<g>
		<path d="M156.204,455.885h-0.086c-2.203,0-3.952,1.789-3.952,3.999c0,2.21,1.827,3.999,4.038,3.999
			c2.202,0,3.999-1.789,3.999-3.999C160.203,457.674,158.406,455.885,156.204,455.885z"/>
	</g>
</g>
<g>
	<g>
		<path d="M196.194,455.885h-0.086c-2.203,0-3.952,1.789-3.952,3.999c0,2.21,1.827,3.999,4.038,3.999
			c2.202,0,3.999-1.789,3.999-3.999C200.193,457.674,198.396,455.885,196.194,455.885z"/>
	</g>
</g>
<g>
	<g>
		<path d="M236.183,455.885h-0.086c-2.202,0-3.952,1.789-3.952,3.999c0,2.21,1.828,3.999,4.038,3.999
			c2.203,0,3.999-1.789,3.999-3.999C240.182,457.674,238.386,455.885,236.183,455.885z"/>
	</g>
</g>
<g>
	<g>
		<path d="M276.173,455.885h-0.086c-2.203,0-3.952,1.789-3.952,3.999c0,2.21,1.827,3.999,4.038,3.999
			c2.202,0,3.999-1.789,3.999-3.999C280.172,457.674,278.375,455.885,276.173,455.885z"/>
	</g>
</g>
<g>
	<g>
		<path d="M316.164,455.885h-0.086c-2.203,0-3.953,1.789-3.953,3.999c0,2.21,1.828,3.999,4.039,3.999
			c2.202,0,3.998-1.789,3.998-3.999C320.162,457.674,318.366,455.885,316.164,455.885z"/>
	</g>
</g>
<g>
	<g>
		<path d="M356.153,455.885h-0.086c-2.202,0-3.952,1.789-3.952,3.999c0,2.21,1.828,3.999,4.038,3.999
			c2.202,0,3.999-1.789,3.999-3.999C360.152,457.674,358.355,455.885,356.153,455.885z"/>
	</g>
</g>
<g>
	<g>
		<path d="M196.194,103.974h-0.086c-2.203,0-3.952,1.789-3.952,3.999c0,2.21,1.827,3.999,4.038,3.999
			c2.202,0,3.999-1.789,3.999-3.999C200.193,105.763,198.396,103.974,196.194,103.974z"/>
	</g>
</g>
<g>
	<g>
		<path d="M236.183,103.974h-0.086c-2.202,0-3.952,1.789-3.952,3.999c0,2.21,1.828,3.999,4.038,3.999
			c2.203,0,3.999-1.789,3.999-3.999C240.182,105.763,238.386,103.974,236.183,103.974z"/>
	</g>
</g>
<g>
	<g>
		<path d="M276.173,103.974h-0.086c-2.203,0-3.952,1.789-3.952,3.999c0,2.21,1.827,3.999,4.038,3.999
			c2.202,0,3.999-1.789,3.999-3.999C280.172,105.763,278.375,103.974,276.173,103.974z"/>
	</g>
</g>
<g>
	<g>
		<path d="M316.164,103.974h-0.086c-2.203,0-3.953,1.789-3.953,3.999c0,2.21,1.828,3.999,4.039,3.999
			c2.202,0,3.998-1.789,3.998-3.999C320.162,105.763,318.366,103.974,316.164,103.974z"/>
	</g>
</g>
<g>
	<g>
		<path d="M356.153,103.974h-0.086c-2.202,0-3.952,1.789-3.952,3.999c0,2.21,1.828,3.999,4.038,3.999
			c2.202,0,3.999-1.789,3.999-3.999C360.152,105.763,358.355,103.974,356.153,103.974z"/>
	</g>
</g>
<g>
	<g>
		<path d="M396.143,55.986h-0.086c-2.203,0-3.952,1.788-3.952,3.999s1.827,3.999,4.038,3.999c2.202,0,3.999-1.789,3.999-3.999
			C400.142,57.775,398.345,55.986,396.143,55.986z"/>
	</g>
</g>
<g>
	<g>
		<path d="M356.153,55.986h-0.086c-2.202,0-3.952,1.788-3.952,3.999s1.828,3.999,4.038,3.999c2.202,0,3.999-1.789,3.999-3.999
			C360.152,57.775,358.355,55.986,356.153,55.986z"/>
	</g>
</g>
<g>
	<g>
		<path d="M396.143,487.877h-0.086c-2.203,0-3.952,1.788-3.952,3.999c0,2.21,1.827,3.999,4.038,3.999
			c2.202,0,3.999-1.789,3.999-3.999C400.142,489.665,398.345,487.877,396.143,487.877z"/>
	</g>
</g>
<g>
	<g>
		<path d="M116.213,487.877h-0.086c-2.202,0-3.952,1.788-3.952,3.999c0,2.21,1.828,3.999,4.038,3.999
			c2.203,0,3.999-1.789,3.999-3.999C120.212,489.665,118.416,487.877,116.213,487.877z"/>
	</g>
</g>
<g>
	<g>
		<path d="M431.892,0H79.981c-2.211,0-3.999,1.789-3.999,3.999c0,2.21,1.788,3.999,3.999,3.999h351.911
			c2.21,0,3.998-1.789,3.998-3.999C435.89,1.789,434.102,0,431.892,0z"/>
	</g>
</g>
<g>
	<g>
		<path d="M431.892,15.997H79.981c-2.211,0-3.999,1.788-3.999,3.999c0,2.21,1.788,3.999,3.999,3.999h351.911
			c2.21,0,3.998-1.789,3.998-3.999C435.89,17.785,434.102,15.997,431.892,15.997z"/>
	</g>
</g>
<g>
	<g>
		<path d="M79.981,0c-2.211,0-3.999,1.789-3.999,3.999v15.997c0,2.21,1.788,3.999,3.999,3.999c2.21,0,3.999-1.789,3.999-3.999V3.999
			C83.98,1.789,82.191,0,79.981,0z"/>
	</g>
</g>
<g>
	<g>
		<path d="M431.892,0c-2.211,0-4,1.789-4,3.999v15.997c0,2.21,1.789,3.999,4,3.999c2.21,0,3.998-1.789,3.998-3.999V3.999
			C435.89,1.789,434.102,0,431.892,0z"/>
	</g>
</g>
<g>
	<g>
		<path d="M95.976,39.99c-2.21,0-3.999,1.789-3.999,3.999v463.883c0,2.211,1.789,4,3.999,4c2.211,0,3.999-1.79,3.999-4.001V43.989
			C99.975,41.779,98.187,39.99,95.976,39.99z"/>
	</g>
</g>
<g>
	<g>
		<path d="M135.966,39.99c-2.21,0-3.999,1.789-3.999,3.999v191.952c0,2.21,1.789,3.999,3.999,3.999c2.211,0,3.999-1.789,3.999-3.999
			V43.989C139.965,41.779,138.177,39.99,135.966,39.99z"/>
	</g>
</g>
<g>
	<g>
		<path d="M175.957,87.978c-2.211,0-3.999,1.789-3.999,3.999V475.88c0,2.21,1.788,3.999,3.999,3.999
			c2.209,0,3.999-1.789,3.999-3.999V91.977C179.956,89.767,178.167,87.978,175.957,87.978z"/>
	</g>
</g>
<g>
	<g>
		<path d="M375.906,79.98h-239.94c-2.21,0-3.999,1.789-3.999,3.999c0,2.21,1.789,3.999,3.999,3.999h239.94
			c2.21,0,3.999-1.789,3.999-3.999C379.905,81.769,378.116,79.98,375.906,79.98z"/>
	</g>
</g>
<g>
	<g>
		<path d="M375.906,479.879h-239.94c-2.21,0-3.999,1.788-3.999,3.999c0,2.21,1.789,3.999,3.999,3.999h239.94
			c2.21,0,3.999-1.789,3.999-3.999C379.905,481.667,378.116,479.879,375.906,479.879z"/>
	</g>
</g>
<g>
	<g>
		<path d="M215.946,87.978c-2.21,0-3.999,1.789-3.999,3.999V475.88c0,2.21,1.789,3.999,3.999,3.999c2.211,0,3.999-1.789,3.999-3.999
			V91.977C219.945,89.767,218.157,87.978,215.946,87.978z"/>
	</g>
</g>
<g>
	<g>
		<path d="M255.936,199.95c-2.21,0-3.999,1.789-3.999,3.999V475.88c0,2.21,1.789,3.999,3.999,3.999s3.999-1.789,3.999-3.998V203.949
			C259.935,201.739,258.146,199.95,255.936,199.95z"/>
	</g>
</g>
<g>
	<g>
		<path d="M295.925,87.978c-2.21,0-3.998,1.789-3.998,3.999V475.88c0,2.21,1.788,3.999,3.998,3.999c2.211,0,4-1.789,4-3.999V91.977
			C299.925,89.767,298.136,87.978,295.925,87.978z"/>
	</g>
</g>
<g>
	<g>
		<path d="M335.915,87.978c-2.21,0-3.999,1.789-3.999,3.999V475.88c0,2.21,1.789,3.999,3.999,3.999c2.211,0,4-1.789,3.999-3.999
			V91.977C339.914,89.767,338.126,87.978,335.915,87.978z"/>
	</g>
</g>
<g>
	<g>
		<path d="M415.896,39.99c-2.211,0-4,1.789-4,3.999v463.883c0,2.211,1.789,4,4,4c2.21,0,3.998-1.79,3.998-4.001V43.989
			C419.894,41.779,418.106,39.99,415.896,39.99z"/>
	</g>
</g>
<g>
	<g>
		<path d="M98.804,33.164L82.808,17.168c-1.562-1.562-4.093-1.562-5.655,0c-1.562,1.562-1.562,4.093,0,5.655l15.996,15.996
			c0.781,0.781,1.805,1.171,2.827,1.171c1.023,0,2.047-0.39,2.828-1.171C100.366,37.257,100.366,34.726,98.804,33.164z"/>
	</g>
</g>
<g>
	<g>
		<path d="M434.719,17.168c-1.562-1.562-4.093-1.562-5.655,0l-15.996,15.996c-1.562,1.562-1.562,4.093,0,5.655
			c0.781,0.781,1.805,1.171,2.828,1.171c1.022,0,2.046-0.39,2.827-1.171l15.996-15.996C436.281,21.261,436.281,18.73,434.719,17.168
			z"/>
	</g>
</g>
<g>
	<g>
		<path d="M415.896,31.992H95.976c-2.21,0-3.999,1.789-3.999,3.999s1.789,3.999,3.999,3.999h319.92c2.21,0,3.998-1.788,3.998-3.999
			S418.106,31.992,415.896,31.992z"/>
	</g>
</g>
<g>
	<g>
		<path d="M135.966,247.938c-2.21,0-3.999,1.788-3.999,3.999v55.985c0,2.211,1.789,3.999,3.999,3.999
			c2.211,0,3.999-1.788,3.999-3.999v-55.985C139.965,249.726,138.177,247.938,135.966,247.938z"/>
	</g>
</g>
<g>
	<g>
		<path d="M151.962,247.938c-2.21,0-3.999,1.788-3.999,3.999v55.985c0,2.211,1.789,3.999,3.999,3.999s3.999-1.788,3.999-3.999
			v-55.985C155.961,249.726,154.172,247.938,151.962,247.938z"/>
	</g>
</g>
<g>
	<g>
		<path d="M151.962,247.938h-15.996c-2.21,0-3.999,1.788-3.999,3.999c0,2.21,1.789,3.999,3.999,3.999h15.996
			c2.21,0,3.999-1.789,3.999-3.999C155.961,249.726,154.172,247.938,151.962,247.938z"/>
	</g>
</g>
<g>
	<g>
		<path d="M162.787,241.111c-1.561-1.562-4.092-1.562-5.654,0l-7.998,7.998c-1.562,1.562-1.562,4.093,0,5.655
			c0.781,0.781,1.804,1.172,2.827,1.172c1.024,0,2.046-0.391,2.827-1.172l7.998-7.998
			C164.349,245.204,164.349,242.673,162.787,241.111z"/>
	</g>
</g>
<g>
	<g>
		<path d="M146.791,241.111c-1.561-1.562-4.092-1.562-5.654,0l-7.998,7.998c-1.562,1.562-1.562,4.093,0,5.655
			c0.781,0.781,1.804,1.172,2.827,1.172c1.024,0,2.047-0.391,2.827-1.172l7.998-7.998
			C148.353,245.204,148.353,242.673,146.791,241.111z"/>
	</g>
</g>
<g>
	<g>
		<path d="M151.962,303.923h-15.996c-2.21,0-3.999,1.789-3.999,3.999c0,2.211,1.789,3.999,3.999,3.999h15.996
			c2.21,0,3.999-1.788,3.999-3.999C155.961,305.712,154.172,303.923,151.962,303.923z"/>
	</g>
</g>
<g>
	<g>
		<path d="M162.975,297.284c-1.561-1.562-4.092-1.562-5.654,0l-7.062,7.061c-1.562,1.562-1.562,4.093,0,5.655
			c0.781,0.781,1.805,1.172,2.828,1.172s2.046-0.39,2.827-1.172l7.061-7.061C164.537,301.377,164.537,298.846,162.975,297.284z"/>
	</g>
</g>
<g>
	<g>
		<path d="M135.966,319.919c-2.21,0-3.999,1.789-3.999,3.999v183.954c0,2.211,1.789,4,3.999,4c2.211,0,3.999-1.79,3.999-4.001
			V323.918C139.965,321.708,138.177,319.919,135.966,319.919z"/>
	</g>
</g>
<g>
	<g>
		<path d="M375.906,151.962c-6.615,0-11.997,5.381-11.997,11.997c0,2.21,1.788,3.999,3.999,3.999s3.999-1.789,3.999-3.999
			c0-2.207,1.796-3.999,3.999-3.999c2.202,0,3.999,1.792,3.999,3.999c0,2.21,1.788,3.999,3.999,3.999
			c2.21,0,3.999-1.789,3.999-3.999C387.903,157.343,382.521,151.962,375.906,151.962z"/>
	</g>
</g>
<g>
	<g>
		<path d="M383.904,191.952c-2.211,0-3.999,1.789-3.999,3.999c0,2.207-1.797,3.999-3.999,3.999c-2.203,0-3.999-1.792-3.999-3.999
			c0-2.21-1.788-3.999-3.999-3.999s-3.999,1.789-3.999,3.999c0,6.616,5.382,11.997,11.997,11.997s11.997-5.382,11.997-11.997
			C387.903,193.741,386.114,191.952,383.904,191.952z"/>
	</g>
</g>
<g>
	<g>
		<path d="M367.908,159.96c-2.211,0-3.999,1.789-3.999,3.999v31.992c0,2.211,1.788,3.999,3.999,3.999
			c2.211,0,3.999-1.788,3.999-3.999v-31.992C371.907,161.749,370.119,159.96,367.908,159.96z"/>
	</g>
</g>
<g>
	<g>
		<path d="M383.904,159.96c-2.211,0-3.999,1.789-3.999,3.999v31.992c0,2.211,1.788,3.999,3.999,3.999
			c2.21,0,3.999-1.788,3.999-3.999v-31.992C387.903,161.749,386.114,159.96,383.904,159.96z"/>
	</g>
</g>
<g>
	<g>
		<path d="M383.904,175.956h-15.996c-2.211,0-3.999,1.789-3.999,3.999c0,2.211,1.788,3.999,3.999,3.999h15.996
			c2.21,0,3.999-1.789,3.999-3.999C387.903,177.745,386.114,175.956,383.904,175.956z"/>
	</g>
</g>
<g>
	<g>
		<path d="M375.906,359.91c-6.615,0-11.997,5.382-11.997,11.997c0,2.21,1.788,3.999,3.999,3.999s3.999-1.789,3.999-3.999
			c0-2.203,1.796-3.999,3.999-3.999c2.202,0,3.999,1.796,3.999,3.999c0,2.21,1.788,3.999,3.999,3.999
			c2.21,0,3.999-1.789,3.999-3.999C387.903,365.292,382.521,359.91,375.906,359.91z"/>
	</g>
</g>
<g>
	<g>
		<path d="M383.904,399.899c-2.211,0-3.999,1.789-3.999,4c0,2.202-1.797,3.998-3.999,3.998c-2.203,0-3.999-1.796-3.999-3.998
			c0-2.211-1.788-4-3.999-4s-3.999,1.789-3.999,4c0,6.615,5.382,11.996,11.997,11.996s11.997-5.381,11.997-11.996
			C387.903,401.688,386.114,399.899,383.904,399.899z"/>
	</g>
</g>
<g>
	<g>
		<path d="M367.908,367.908c-2.211,0-3.999,1.788-3.999,3.999v31.992c0,2.21,1.788,3.998,3.999,3.998
			c2.211,0,3.999-1.788,3.999-3.998v-31.992C371.907,369.696,370.119,367.908,367.908,367.908z"/>
	</g>
</g>
<g>
	<g>
		<path d="M383.904,367.908c-2.211,0-3.999,1.788-3.999,3.999v31.992c0,2.21,1.788,3.998,3.999,3.998
			c2.21,0,3.999-1.788,3.999-3.998v-31.992C387.903,369.696,386.114,367.908,383.904,367.908z"/>
	</g>
</g>
<g>
	<g>
		<path d="M383.904,383.903h-15.996c-2.211,0-3.999,1.789-3.999,4c0,2.21,1.788,3.998,3.999,3.998h15.996
			c2.21,0,3.999-1.788,3.999-3.998C387.903,385.692,386.114,383.903,383.904,383.903z"/>
	</g>
</g>
<g>
	<g>
		<path d="M375.906,215.946c-2.211,0-3.999,1.789-3.999,3.999v127.968c0,2.21,1.788,3.999,3.999,3.999
			c2.21,0,3.999-1.789,3.999-3.999V219.945C379.905,217.735,378.116,215.946,375.906,215.946z"/>
	</g>
</g>
<g>
	<g>
		<path d="M351.912,159.968c-2.21,0-3.999,1.789-3.999,3.999v31.984c0,2.211,1.789,3.999,3.999,3.999
			c2.211,0,3.999-1.788,3.999-3.999v-31.984C355.911,161.757,354.123,159.968,351.912,159.968z"/>
	</g>
</g>
<g>
	<g>
		<path d="M359.91,159.968h-7.998c-2.21,0-3.999,1.789-3.999,3.999c0,2.21,1.789,3.999,3.999,3.999h7.998
			c2.211,0,3.999-1.789,3.999-3.999C363.909,161.757,362.121,159.968,359.91,159.968z"/>
	</g>
</g>
<g>
	<g>
		<path d="M359.91,191.952h-7.998c-2.21,0-3.999,1.789-3.999,3.999c0,2.211,1.789,3.999,3.999,3.999h7.998
			c2.211,0,3.999-1.788,3.999-3.999C363.909,193.741,362.121,191.952,359.91,191.952z"/>
	</g>
</g>
<g>
	<g>
		<path d="M351.912,367.908c-2.21,0-3.999,1.788-3.999,3.999v31.992c0,2.21,1.789,3.998,3.999,3.998
			c2.211,0,3.999-1.788,3.999-3.998v-31.992C355.911,369.696,354.123,367.908,351.912,367.908z"/>
	</g>
</g>
<g>
	<g>
		<path d="M359.91,399.899h-7.998c-2.21,0-3.999,1.789-3.999,4c0,2.21,1.789,3.998,3.999,3.998h7.998
			c2.211,0,3.999-1.788,3.999-3.998C363.909,401.688,362.121,399.899,359.91,399.899z"/>
	</g>
</g>
<g>
	<g>
		<path d="M359.91,367.908h-7.998c-2.21,0-3.999,1.788-3.999,3.999c0,2.21,1.789,3.999,3.999,3.999h7.998
			c2.211,0,3.999-1.789,3.999-3.999C363.909,369.696,362.121,367.908,359.91,367.908z"/>
	</g>
</g>
<g>
	<g>
		<path d="M279.226,148.537c-6.015-5.897-16.457-5.882-22.471-0.008l-0.82,0.808l-0.82-0.8c-6.013-5.897-16.456-5.897-22.486,0
			c-4.772,4.678-6.037,11.841-3.163,17.816c0.774,1.605,1.835,3.081,3.171,4.409l20.503,20.057c0.774,0.761,1.788,1.14,2.796,1.14
			s2.022-0.378,2.795-1.14l20.495-20.053c1.288-1.265,2.351-2.741,3.163-4.401C285.279,160.382,284.014,153.215,279.226,148.537z
			 M275.196,162.874c-0.406,0.82-0.929,1.55-1.562,2.171l-17.698,17.32l-17.683-17.3c-0.672-0.664-1.203-1.394-1.578-2.179
			c-1.39-2.887-0.765-6.358,1.555-8.639c1.506-1.473,3.506-2.285,5.646-2.285c2.133,0,4.132,0.812,5.648,2.293l3.624,3.53
			c1.546,1.516,4.022,1.516,5.584,0l3.616-3.538c3.007-2.94,8.271-2.952,11.286,0.004
			C275.962,156.528,276.587,159.996,275.196,162.874z"/>
	</g>
</g>
<g>
	<g>
		<path d="M255.936,87.978c-2.21,0-3.999,1.789-3.999,3.999v39.99c0,2.21,1.789,3.999,3.999,3.999s3.999-1.789,3.999-3.999v-39.99
			C259.935,89.767,258.146,87.978,255.936,87.978z"/>
	</g>
</g>
<g>
	<g>
		<path d="M439.89,503.874H71.983c-2.211,0-3.999,1.788-3.999,3.998c0,2.211,1.788,4,3.999,4H439.89c2.21,0,3.998-1.79,3.998-4
			C443.888,505.662,442.1,503.874,439.89,503.874z"/>
	</g>
</g>
<g>
</g>
<g>
</g>
<g>
</g>
<g>
</g>
<g>
</g>
<g>
</g>
<g>
</g>
<g>
</g>
<g>
</g>
<g>
</g>
<g>
</g>
<g>
</g>
<g>
</g>
<g>
</g>
<g>
</g>
</svg>
