<?xml version="1.0" encoding="iso-8859-1"?>
<!-- Generator: Adobe Illustrator 19.0.0, SVG Export Plug-In . SVG Version: 6.00 Build 0)  -->
<svg version="1.1" id="Capa_1" xmlns="http://www.w3.org/2000/svg" xmlns:xlink="http://www.w3.org/1999/xlink" x="0px" y="0px"
	 viewBox="0 0 511.871 511.871" style="enable-background:new 0 0 511.871 511.871;" xml:space="preserve">
<g>
	<g>
		<path d="M256.173,215.945h-0.078c-2.21,0-3.96,1.789-3.96,3.999c0,2.21,1.832,3.999,4.038,3.999c2.21,0,3.999-1.789,3.999-3.999
			C260.172,217.734,258.383,215.945,256.173,215.945z"/>
	</g>
</g>
<g>
	<g>
		<path d="M256.173,247.937h-0.078c-2.21,0-3.96,1.788-3.96,3.999c0,2.21,1.832,3.999,4.038,3.999c2.21,0,3.999-1.789,3.999-3.999
			C260.172,249.725,258.383,247.937,256.173,247.937z"/>
	</g>
</g>
<g>
	<g>
		<path d="M256.173,279.929h-0.078c-2.21,0-3.96,1.788-3.96,3.998c0,2.211,1.832,4,4.038,4c2.21,0,3.999-1.789,3.999-4
			C260.172,281.717,258.383,279.929,256.173,279.929z"/>
	</g>
</g>
<g>
	<g>
		<path d="M256.173,311.92h-0.078c-2.21,0-3.96,1.789-3.96,3.999c0,2.211,1.832,3.999,4.038,3.999c2.21,0,3.999-1.788,3.999-3.999
			C260.172,313.709,258.383,311.92,256.173,311.92z"/>
	</g>
</g>
<g>
	<g>
		<path d="M256.173,343.913h-0.078c-2.21,0-3.96,1.788-3.96,3.999c0,2.21,1.832,3.999,4.038,3.999c2.21,0,3.999-1.789,3.999-3.999
			C260.172,345.701,258.383,343.913,256.173,343.913z"/>
	</g>
</g>
<g>
	<g>
		<path d="M51.987,175.955h-7.998c-2.211,0-3.999,1.789-3.999,3.999c0,2.211,1.788,3.999,3.999,3.999h7.998
			c2.21,0,3.999-1.789,3.999-3.999C55.986,177.744,54.197,175.955,51.987,175.955z"/>
	</g>
</g>
<g>
	<g>
		<path d="M51.987,191.951h-7.998c-2.211,0-3.999,1.789-3.999,3.999c0,2.211,1.788,3.999,3.999,3.999h7.998
			c2.21,0,3.999-1.788,3.999-3.999C55.986,193.74,54.197,191.951,51.987,191.951z"/>
	</g>
</g>
<g>
	<g>
		<path d="M43.989,191.951c-2.207,0-3.999-1.792-3.999-3.999c0-2.206,1.792-3.999,3.999-3.999c2.21,0,3.999-1.788,3.999-3.999
			c0-2.21-1.789-3.999-3.999-3.999c-6.616,0-11.997,5.382-11.997,11.997c0,6.616,5.381,11.997,11.997,11.997
			c2.21,0,3.999-1.788,3.999-3.999C47.988,193.74,46.199,191.951,43.989,191.951z"/>
	</g>
</g>
<g>
	<g>
		<path d="M327.809,91.773c-0.125-2.206-2.015-3.866-4.209-3.784c-2.211,0.121-3.898,2.004-3.789,4.206
			c0.07,1.25,0.109,2.507,0.109,3.78c0,35.28-28.703,63.984-63.983,63.984c-35.28,0-63.984-28.704-63.984-63.984
			c0-1.296,0.035-2.585,0.109-3.862c0.129-2.206-1.554-4.097-3.761-4.222c-2.211-0.078-4.093,1.555-4.222,3.761
			c-0.082,1.426-0.125,2.87-0.125,4.323c0,39.69,32.293,71.982,71.982,71.982c39.693,0,71.981-32.293,71.982-71.982
			C327.918,94.562,327.879,93.164,327.809,91.773z"/>
	</g>
</g>
<g>
	<g>
		<path d="M59.985,167.957c-2.211,0-3.999,1.789-3.999,3.999v31.992c0,2.21,1.788,3.999,3.999,3.999c2.21,0,3.998-1.789,3.999-3.999
			v-31.992C63.984,169.746,62.195,167.957,59.985,167.957z"/>
	</g>
</g>
<g>
	<g>
		<path d="M173.299,240.174l-111.972-39.99c-2.073-0.766-4.37,0.339-5.108,2.421c-0.746,2.078,0.339,4.366,2.421,5.108
			l111.972,39.99c0.442,0.16,0.899,0.234,1.344,0.234c1.644,0,3.183-1.02,3.765-2.655
			C176.466,243.204,175.381,240.916,173.299,240.174z"/>
	</g>
</g>
<g>
	<g>
		<path d="M203.948,167.957H59.985c-2.211,0-3.999,1.789-3.999,3.999c0,2.21,1.788,3.999,3.999,3.999h143.963
			c2.211,0,3.999-1.789,3.999-3.999C207.947,169.746,206.158,167.957,203.948,167.957z"/>
	</g>
</g>
<g>
	<g>
		<path d="M467.882,175.955h-7.998c-2.21,0-3.999,1.789-3.999,3.999c0,2.211,1.789,3.999,3.999,3.999h7.998
			c2.211,0,3.999-1.789,3.999-3.999C471.88,177.744,470.092,175.955,467.882,175.955z"/>
	</g>
</g>
<g>
	<g>
		<path d="M467.882,191.951h-7.998c-2.21,0-3.999,1.789-3.999,3.999c0,2.211,1.789,3.999,3.999,3.999h7.998
			c2.211,0,3.999-1.788,3.999-3.999C471.88,193.74,470.092,191.951,467.882,191.951z"/>
	</g>
</g>
<g>
	<g>
		<path d="M467.882,175.955c-2.21,0-3.999,1.789-3.999,3.999c0,2.211,1.789,3.999,3.999,3.999c2.203,0,3.999,1.793,3.999,3.999
			c0,2.207-1.796,3.999-3.999,3.999c-2.21,0-3.999,1.789-3.999,3.999c0,2.211,1.789,3.999,3.999,3.999
			c6.616,0,11.997-5.382,11.997-11.997C479.879,181.336,474.496,175.955,467.882,175.955z"/>
	</g>
</g>
<g>
	<g>
		<path d="M267.932,399.898c-2.211,0-3.999,1.789-3.999,4v103.973c0,2.211,1.788,4,3.999,4c2.21,0,3.999-1.79,3.999-4V403.898
			C271.931,401.687,270.142,399.898,267.932,399.898z"/>
	</g>
</g>
<g>
	<g>
		<path d="M243.938,399.898c-2.21,0-3.999,1.789-3.999,4v103.973c0,2.211,1.789,4,3.999,4c2.21,0,3.999-1.79,3.999-4V403.898
			C247.937,401.687,246.148,399.898,243.938,399.898z"/>
	</g>
</g>
<g>
	<g>
		<path d="M451.885,167.957c-2.21,0-3.999,1.789-3.999,3.999v31.992c0,2.21,1.789,3.999,3.999,3.999
			c2.211,0,3.999-1.789,3.999-3.999v-31.992C455.884,169.746,454.096,167.957,451.885,167.957z"/>
	</g>
</g>
<g>
	<g>
		<path d="M455.65,202.604c-0.733-2.081-3.03-3.179-5.108-2.421l-111.971,39.99c-2.078,0.742-3.172,3.03-2.422,5.108
			c0.578,1.636,2.125,2.656,3.765,2.656c0.445,0,0.906-0.074,1.343-0.235l111.972-39.99
			C455.307,206.97,456.4,204.682,455.65,202.604z"/>
	</g>
</g>
<g>
	<g>
		<path d="M451.885,167.957H307.922c-2.211,0-4,1.789-4,3.999c0,2.21,1.789,3.999,4,3.999h143.963c2.211,0,3.999-1.789,3.999-3.999
			C455.884,169.746,454.096,167.957,451.885,167.957z"/>
	</g>
</g>
<g>
	<g>
		<path d="M259.649,178.47c-0.816-2.058-3.171-3.058-5.198-2.23l-19.995,7.998c-2.05,0.82-3.05,3.148-2.23,5.198
			c0.625,1.566,2.129,2.515,3.714,2.515c0.496,0,1-0.09,1.485-0.285l19.994-7.998C259.469,182.847,260.469,180.52,259.649,178.47z"
			/>
	</g>
</g>
<g>
	<g>
		<path d="M238.768,185.125l-23.994-23.994c-1.562-1.562-4.093-1.562-5.655,0s-1.562,4.093,0,5.655l23.994,23.994
			c0.781,0.78,1.804,1.171,2.827,1.171s2.046-0.391,2.828-1.171C240.33,189.218,240.33,186.687,238.768,185.125z"/>
	</g>
</g>
<g>
	<g>
		<path d="M277.415,184.238l-19.996-7.998c-2.042-0.832-4.381,0.171-5.197,2.23c-0.821,2.05,0.179,4.378,2.229,5.198l19.995,7.998
			c0.484,0.195,0.984,0.285,1.484,0.285c1.586,0,3.093-0.949,3.718-2.515C280.46,187.386,279.461,185.058,277.415,184.238z"/>
	</g>
</g>
<g>
	<g>
		<path d="M302.751,161.131c-1.562-1.562-4.093-1.562-5.655,0l-23.994,23.994c-1.562,1.562-1.562,4.093,0,5.655
			c0.781,0.78,1.805,1.171,2.828,1.171c1.024,0,2.046-0.391,2.827-1.171l23.994-23.994
			C304.313,165.224,304.313,162.693,302.751,161.131z"/>
	</g>
</g>
<g>
	<g>
		<path d="M171.956,239.939c-2.211,0-3.999,1.789-3.999,3.999V395.9c0,2.21,1.788,3.998,3.999,3.998c2.21,0,4-1.788,3.999-3.998
			V243.938C175.955,241.728,174.166,239.939,171.956,239.939z"/>
	</g>
</g>
<g>
	<g>
		<path d="M339.914,239.939c-2.21,0-3.999,1.789-3.999,3.999v143.964c0,2.21,1.789,3.998,3.999,3.998
			c2.21,0,3.999-1.788,3.999-3.998V243.938C343.913,241.728,342.125,239.939,339.914,239.939z"/>
	</g>
</g>
<g>
	<g>
		<path d="M340.29,58.977c-2.265-0.207-4.148,1.417-4.351,3.62c-0.196,2.198,1.422,4.143,3.616,4.346
			c6.203,0.562,10.638,1.128,13.81,1.636c-15.121,4.116-51.276,10.072-97.429,10.072s-82.308-5.956-97.433-10.072
			c3.171-0.508,7.611-1.078,13.817-1.644c2.203-0.202,3.82-2.148,3.621-4.346c-0.203-2.199-2.145-3.808-4.347-3.62
			c-23.791,2.183-27.63,4.444-27.63,9.013c0,12.079,73.97,18.667,111.972,18.667c38.006,0,111.972-6.588,111.972-18.667
			C367.908,63.405,364.064,61.144,340.29,58.977z"/>
	</g>
</g>
<g>
	<g>
		<path d="M255.935,0c-43.056,0-71.982,24.907-71.982,61.984c0,2.21,1.789,3.999,3.999,3.999c2.21,0,3.999-1.789,3.999-3.999
			c0-32.797,25.115-53.986,63.984-53.986c38.865,0,63.983,21.189,63.983,53.986c0,2.21,1.789,3.999,4,3.999
			c2.21,0,3.998-1.789,3.998-3.999C327.916,24.908,298.987,0,255.935,0z"/>
	</g>
</g>
<g>
	<g>
		<path d="M182.781,385.074c-1.562-1.562-4.093-1.562-5.655,0l-7.998,7.998c-1.562,1.562-1.562,4.093,0,5.655
			c0.781,0.78,1.805,1.171,2.828,1.171s2.046-0.391,2.827-1.171l7.998-7.998C184.343,389.167,184.343,386.636,182.781,385.074z"/>
	</g>
</g>
<g>
	<g>
		<path d="M190.779,393.072l-7.998-7.998c-1.562-1.562-4.093-1.562-5.655,0c-1.562,1.562-1.562,4.093,0,5.655l7.998,7.998
			c0.782,0.78,1.805,1.171,2.828,1.171c1.023,0,2.046-0.391,2.827-1.171C192.341,397.165,192.341,394.634,190.779,393.072z"/>
	</g>
</g>
<g>
	<g>
		<path d="M198.777,385.074c-1.562-1.562-4.093-1.562-5.655,0l-7.998,7.998c-1.562,1.562-1.562,4.093,0,5.655
			c0.782,0.78,1.805,1.171,2.828,1.171c1.023,0,2.046-0.391,2.827-1.171l7.998-7.998
			C200.339,389.167,200.339,386.636,198.777,385.074z"/>
	</g>
</g>
<g>
	<g>
		<path d="M206.775,393.072l-7.998-7.998c-1.562-1.562-4.093-1.562-5.655,0s-1.562,4.093,0,5.655l7.998,7.998
			c0.782,0.78,1.805,1.171,2.828,1.171s2.047-0.391,2.827-1.171C208.337,397.165,208.337,394.634,206.775,393.072z"/>
	</g>
</g>
<g>
	<g>
		<path d="M214.773,385.074c-1.562-1.562-4.093-1.562-5.655,0l-7.998,7.998c-1.562,1.562-1.562,4.093,0,5.655
			c0.782,0.78,1.805,1.171,2.828,1.171s2.047-0.391,2.827-1.171l7.998-7.998C216.335,389.167,216.335,386.636,214.773,385.074z"/>
	</g>
</g>
<g>
	<g>
		<path d="M222.772,393.072l-7.998-7.998c-1.562-1.562-4.093-1.562-5.655,0s-1.562,4.093,0,5.655l7.998,7.998
			c0.781,0.78,1.804,1.171,2.827,1.171c1.023,0,2.047-0.391,2.828-1.171C224.334,397.165,224.334,394.634,222.772,393.072z"/>
	</g>
</g>
<g>
	<g>
		<path d="M230.77,385.074c-1.562-1.562-4.093-1.562-5.655,0l-7.998,7.998c-1.562,1.562-1.562,4.093,0,5.655
			c0.781,0.78,1.804,1.171,2.827,1.171c1.023,0,2.047-0.391,2.828-1.171l7.998-7.998
			C232.332,389.167,232.332,386.636,230.77,385.074z"/>
	</g>
</g>
<g>
	<g>
		<path d="M238.768,393.072l-7.998-7.998c-1.562-1.562-4.093-1.562-5.655,0c-1.562,1.562-1.562,4.093,0,5.655l7.998,7.998
			c0.781,0.78,1.804,1.171,2.827,1.171s2.046-0.391,2.828-1.171C240.33,397.165,240.33,394.634,238.768,393.072z"/>
	</g>
</g>
<g>
	<g>
		<path d="M246.765,385.074c-1.561-1.562-4.092-1.562-5.654,0l-7.998,7.998c-1.562,1.562-1.562,4.093,0,5.655
			c0.781,0.78,1.804,1.171,2.827,1.171s2.046-0.391,2.827-1.171l7.998-7.998C248.327,389.167,248.327,386.636,246.765,385.074z"/>
	</g>
</g>
<g>
	<g>
		<path d="M254.763,393.072l-7.998-7.998c-1.561-1.562-4.092-1.562-5.654,0s-1.562,4.093,0,5.655l7.998,7.998
			c0.78,0.78,1.804,1.171,2.827,1.171c1.023,0,2.047-0.391,2.827-1.171C256.325,397.165,256.325,394.634,254.763,393.072z"/>
	</g>
</g>
<g>
	<g>
		<path d="M262.761,385.074c-1.561-1.562-4.092-1.562-5.654,0l-7.998,7.998c-1.562,1.562-1.562,4.093,0,5.655
			c0.78,0.78,1.804,1.171,2.827,1.171c1.023,0,2.047-0.391,2.827-1.171l7.998-7.998
			C264.323,389.167,264.323,386.636,262.761,385.074z"/>
	</g>
</g>
<g>
	<g>
		<path d="M270.759,393.072l-7.998-7.998c-1.561-1.562-4.092-1.562-5.654,0s-1.562,4.093,0,5.655l7.997,7.998
			c0.781,0.78,1.805,1.171,2.828,1.171c1.024,0,2.046-0.391,2.827-1.171C272.321,397.165,272.321,394.634,270.759,393.072z"/>
	</g>
</g>
<g>
	<g>
		<path d="M278.757,385.074c-1.561-1.562-4.093-1.562-5.655,0l-7.998,7.998c-1.562,1.562-1.562,4.093,0,5.655
			c0.781,0.78,1.805,1.171,2.828,1.171c1.024,0,2.046-0.391,2.827-1.171l7.998-7.998
			C280.319,389.167,280.319,386.636,278.757,385.074z"/>
	</g>
</g>
<g>
	<g>
		<path d="M286.755,393.072l-7.998-7.998c-1.561-1.562-4.093-1.562-5.655,0s-1.562,4.093,0,5.655l7.998,7.998
			c0.781,0.78,1.805,1.171,2.828,1.171c1.024,0,2.046-0.391,2.827-1.171C288.317,397.165,288.317,394.634,286.755,393.072z"/>
	</g>
</g>
<g>
	<g>
		<path d="M294.753,385.074c-1.562-1.562-4.093-1.562-5.655,0l-7.998,7.998c-1.562,1.562-1.562,4.093,0,5.655
			c0.781,0.78,1.805,1.171,2.828,1.171c1.024,0,2.046-0.391,2.827-1.171l7.998-7.998
			C296.315,389.167,296.315,386.636,294.753,385.074z"/>
	</g>
</g>
<g>
	<g>
		<path d="M302.751,393.072l-7.998-7.998c-1.562-1.562-4.093-1.562-5.655,0s-1.562,4.093,0,5.655l7.998,7.998
			c0.781,0.78,1.805,1.171,2.828,1.171s2.046-0.391,2.827-1.171C304.314,397.165,304.314,394.634,302.751,393.072z"/>
	</g>
</g>
<g>
	<g>
		<path d="M310.749,385.074c-1.562-1.562-4.093-1.562-5.655,0l-7.998,7.998c-1.562,1.562-1.562,4.093,0,5.655
			c0.781,0.78,1.805,1.171,2.828,1.171s2.046-0.391,2.827-1.171l7.998-7.998C312.311,389.167,312.311,386.636,310.749,385.074z"/>
	</g>
</g>
<g>
	<g>
		<path d="M318.747,393.072l-7.998-7.998c-1.562-1.562-4.093-1.562-5.655,0s-1.562,4.093,0,5.655l7.998,7.998
			c0.781,0.78,1.805,1.171,2.828,1.171s2.046-0.391,2.827-1.171C320.309,397.165,320.309,394.634,318.747,393.072z"/>
	</g>
</g>
<g>
	<g>
		<path d="M326.745,385.074c-1.562-1.562-4.093-1.562-5.655,0l-7.998,7.998c-1.562,1.562-1.562,4.093,0,5.655
			c0.781,0.78,1.805,1.171,2.828,1.171s2.046-0.391,2.827-1.171l7.998-7.998C328.307,389.167,328.307,386.636,326.745,385.074z"/>
	</g>
</g>
<g>
	<g>
		<path d="M334.743,393.072l-7.997-7.998c-1.562-1.562-4.093-1.562-5.655,0s-1.562,4.093,0,5.655l7.998,7.998
			c0.781,0.78,1.805,1.171,2.827,1.171c1.024,0,2.047-0.391,2.827-1.171C336.305,397.165,336.305,394.634,334.743,393.072z"/>
	</g>
</g>
<g>
	<g>
		<path d="M342.74,385.074c-1.561-1.562-4.092-1.562-5.654,0l-7.998,7.998c-1.562,1.562-1.562,4.093,0,5.655
			c0.781,0.78,1.805,1.171,2.827,1.171c1.024,0,2.047-0.391,2.827-1.171l7.998-7.998
			C344.302,389.167,344.302,386.636,342.74,385.074z"/>
	</g>
</g>
<g>
	<g>
		<path d="M296.035,114.509c-1.921-1.121-4.357-0.46-5.459,1.457c-7.139,12.337-20.41,19.999-34.64,19.999
			c-14.234,0-27.512-7.67-34.655-20.015c-1.102-1.91-3.55-2.574-5.464-1.457c-1.909,1.106-2.565,3.55-1.456,5.464
			c8.564,14.805,24.493,24.006,41.575,24.006c17.073,0,32.991-9.193,41.56-23.99C298.605,118.059,297.949,115.614,296.035,114.509z"
			/>
	</g>
</g>
<g>
	<g>
		<path d="M255.935,131.966c-2.21,0-3.999,1.788-3.999,3.999v7.998c0,2.21,1.789,3.999,3.999,3.999s3.999-1.789,3.999-3.999v-7.998
			C259.934,133.754,258.145,131.966,255.935,131.966z"/>
	</g>
</g>
<g>
	<g>
		<path d="M283.397,135.537l-3.999-6.928c-1.11-1.918-3.562-2.578-5.468-1.465c-1.913,1.105-2.57,3.549-1.468,5.463l3.999,6.928
			c0.75,1.281,2.093,1.999,3.468,1.999c0.687,0,1.374-0.172,1.999-0.534C283.842,139.895,284.499,137.45,283.397,135.537z"/>
	</g>
</g>
<g>
	<g>
		<path d="M237.939,127.143c-1.925-1.113-4.361-0.453-5.463,1.465l-3.983,6.904c-1.105,1.913-0.449,4.358,1.465,5.463
			c0.632,0.363,1.315,0.535,1.995,0.535c1.382,0,2.726-0.718,3.467-1.999l3.983-6.905
			C240.509,130.693,239.853,128.248,237.939,127.143z"/>
	</g>
</g>
<g>
</g>
<g>
</g>
<g>
</g>
<g>
</g>
<g>
</g>
<g>
</g>
<g>
</g>
<g>
</g>
<g>
</g>
<g>
</g>
<g>
</g>
<g>
</g>
<g>
</g>
<g>
</g>
<g>
</g>
</svg>
