<?xml version="1.0" encoding="iso-8859-1"?>
<!-- Generator: Adobe Illustrator 18.0.0, SVG Export Plug-In . SVG Version: 6.00 Build 0)  -->
<!DOCTYPE svg PUBLIC "-//W3C//DTD SVG 1.1//EN" "http://www.w3.org/Graphics/SVG/1.1/DTD/svg11.dtd">
<svg version="1.1" id="Capa_1" xmlns="http://www.w3.org/2000/svg" xmlns:xlink="http://www.w3.org/1999/xlink" x="0px" y="0px"
	 viewBox="0 0 437.688 437.688" style="enable-background:new 0 0 437.688 437.688;" xml:space="preserve">
<path d="M373.407,128.405c-27.199,0-86.642,37.126-110.941,53.087c0.011-0.313,1.304-14.171-13.354-24.721
	c0.989-1.85,1.505-3.928,1.505-6.195c0-9.164-8.26-20.149-19.398-25.195v-13.298c0-6.786,4.606-12.491,10.851-14.218
	c2.226,5.631,7.711,9.63,14.124,9.63c8.378,0,15.193-6.815,15.193-15.192c0-8.379-6.815-15.195-15.193-15.195
	c-6.766,0-12.508,4.447-14.469,10.571c-11.633,2.032-20.506,12.198-20.506,24.404v10.625c-0.788-0.068-1.58-0.114-2.377-0.114
	c-0.797,0-1.586,0.046-2.373,0.114v-10.625c0-12.205-8.872-22.368-20.505-24.401c-1.96-6.125-7.703-10.574-14.47-10.574
	c-8.377,0-15.193,6.816-15.193,15.195c0,8.377,6.816,15.192,15.193,15.192c6.42,0,11.909-4.009,14.131-9.647
	c6.243,1.729,10.844,7.449,10.844,14.235v13.296c-11.139,5.047-19.398,16.033-19.398,25.197c0,2.268,0.513,4.348,1.5,6.198
	c-14.807,10.842-13.359,24.402-13.35,24.717c-24.301-15.962-83.74-53.086-110.941-53.086c-35.444,0-64.28,28.836-64.28,64.28
	C0,226,25.476,253.472,57.97,256.653c7.8,20.905,27.702,33.869,48.829,33.869c5.971,0,12.037-1.035,17.957-3.218
	c11.787-4.347,25.213-22.475,36.644-41.619c-0.334,3.269-0.526,6.595-0.526,9.98c0,40.319,51.982,100.646,54.195,103.193
	c0.949,1.094,2.327,1.722,3.775,1.722c1.448,0,2.825-0.628,3.775-1.722c2.213-2.548,54.195-62.874,54.195-103.193
	c0-3.387-0.193-6.714-0.527-9.983c11.432,19.145,24.857,37.275,36.645,41.622c5.921,2.184,11.985,3.218,17.957,3.218
	c21.127,0,41.032-12.966,48.832-33.869c32.492-3.183,57.968-30.654,57.968-63.968C437.688,157.241,408.852,128.405,373.407,128.405z
	 M256.193,87.107c2.863,0,5.193,2.331,5.193,5.195c0,2.863-2.33,5.192-5.193,5.192S251,95.166,251,92.303
	C251,89.438,253.33,87.107,256.193,87.107z M181.494,97.495c-2.863,0-5.193-2.329-5.193-5.192c0-2.864,2.33-5.195,5.193-5.195
	s5.193,2.331,5.193,5.195C186.688,95.166,184.357,97.495,181.494,97.495z M266.814,255.666c0,4.704-0.854,9.788-2.33,15.074h-91.283
	c-1.476-5.285-2.328-10.369-2.328-15.074c0-1.948,0.074-3.873,0.197-5.778h95.547C266.74,251.793,266.814,253.718,266.814,255.666z
	 M250.9,301.592h-64.121c-3.892-6.872-7.428-13.938-10.172-20.852h84.469C258.33,287.654,254.793,294.72,250.9,301.592z
	 M172.291,239.888c1.374-7.548,3.704-14.587,6.814-20.85h79.477c3.11,6.264,5.44,13.303,6.814,20.85H172.291z M185.219,209.037
	c8.664-11.635,20.538-18.83,33.625-18.83c13.087,0,24.961,7.195,33.625,18.83H185.219z M218.842,132.594
	c12.361,0,21.775,11.984,21.775,17.982c0,0.441-0.057,0.854-0.221,1.257c-6.363-2.746-13.717-4.324-21.553-4.324
	c-7.836,0-15.19,1.578-21.554,4.324c-0.163-0.402-0.22-0.816-0.22-1.257C197.07,144.578,206.482,132.594,218.842,132.594z
	 M218.844,157.509c18.56,0,33.66,10.336,33.66,23.04c0,3.308-1.023,7.227-2.859,11.236c-8.932-7.322-19.488-11.578-30.801-11.578
	c-11.313,0-21.869,4.255-30.801,11.577c-1.833-4.012-2.86-7.931-2.859-11.235C185.184,167.845,200.283,157.509,218.844,157.509z
	 M10,192.686c0-29.931,24.35-54.28,54.28-54.28c21.632,0,72.68,30.153,102.156,49.28H62.587c-2.761,0-5,2.238-5,5
	c0,2.762,2.239,5,5,5h103.851c-29.477,19.128-80.525,49.281-102.157,49.281C34.35,246.967,10,222.616,10,192.686z M121.297,277.922
	c-20.505,7.563-43.199-1.931-52.466-21.263c27.132-3.337,77.115-33.796,102.071-49.962
	C157.986,233.155,136.15,272.445,121.297,277.922z M218.843,347.771c-5.519-6.77-16.2-20.423-26.087-36.18h52.168
	C235.038,327.348,224.359,341.002,218.843,347.771z M316.391,277.922c-14.844-5.473-36.683-44.764-49.602-71.224
	c24.958,16.168,74.939,46.625,102.069,49.962C359.593,275.989,336.898,285.487,316.391,277.922z M373.407,246.967
	c-21.63,0-72.679-30.153-102.155-49.281h103.851c2.762,0,5-2.238,5-5c0-2.762-2.238-5-5-5H271.252
	c29.477-19.127,80.525-49.28,102.155-49.28c29.931,0,54.281,24.35,54.281,54.28S403.338,246.967,373.407,246.967z"/>
<g>
</g>
<g>
</g>
<g>
</g>
<g>
</g>
<g>
</g>
<g>
</g>
<g>
</g>
<g>
</g>
<g>
</g>
<g>
</g>
<g>
</g>
<g>
</g>
<g>
</g>
<g>
</g>
<g>
</g>
</svg>
