<?xml version="1.0" encoding="iso-8859-1"?>
<!-- Generator: Adobe Illustrator 18.0.0, SVG Export Plug-In . SVG Version: 6.00 Build 0)  -->
<!DOCTYPE svg PUBLIC "-//W3C//DTD SVG 1.1//EN" "http://www.w3.org/Graphics/SVG/1.1/DTD/svg11.dtd">
<svg version="1.1" id="Capa_1" xmlns="http://www.w3.org/2000/svg" xmlns:xlink="http://www.w3.org/1999/xlink" x="0px" y="0px"
	 viewBox="0 0 433.258 433.258" style="enable-background:new 0 0 433.258 433.258;" xml:space="preserve">
<g>
	<g>
		<path d="M357.458,146.241h-11.886c-0.54-18.455-4.984-35.947-12.537-51.677l10.821-5.439c2.467-1.241,3.462-4.246,2.221-6.714
			c-1.239-2.467-4.244-3.461-6.713-2.221l-11.009,5.533c-12.719-21.926-31.732-39.759-54.542-51.034l6.083-11.188
			c1.319-2.427,0.422-5.463-2.004-6.781c-2.428-1.322-5.463-0.422-6.781,2.004l-6.458,11.879
			c-14.737-5.898-30.804-9.158-47.622-9.158c-0.001,0-0.001,0-0.001,0h-0.001h-0.001h-0.001c-0.006,0-0.012,0-0.018,0
			c-21.506,0-33.227,3.383-47.439,9.029l-6.389-11.75c-1.318-2.426-4.355-3.326-6.781-2.004c-2.426,1.318-3.323,4.354-2.004,6.781
			l6.004,11.043c-5.036,2.479-9.925,5.307-14.65,8.463c0.43-3.016,0.5-6.102,0.179-9.21c-0.769-7.431-3.641-14.151-7.982-19.61
			c2.805-2.891,3.705-3.792,3.99-4.067c1.672-1.4,2.285-3.79,1.349-5.878c-1.129-2.52-4.088-3.648-6.608-2.517
			c-0.898,0.403-1.061,0.487-5.941,5.53c-6.243-4.571-13.936-7.249-22.23-7.249c-1.298,0-12.085-0.507-23.505,8.203
			c-2.248-2.181-3.644-3.55-4.085-4.008c-1.4-1.673-3.793-2.286-5.883-1.349c-2.52,1.132-3.644,4.091-2.512,6.609
			c0.254,0.566,0.411,0.912,5.559,5.956c-5.539,7.546-8.046,16.75-7.076,26.126c0.769,7.436,3.644,14.159,7.988,19.62l-4.317,4.513
			c-1.908,1.996-1.837,5.161,0.159,7.069c0.969,0.926,2.212,1.386,3.454,1.386c1.317,0,2.633-0.518,3.615-1.545l4.3-4.494
			c12.749,9.236,26.221,7.029,26.264,7.025c-2.437,3.389-4.704,6.885-6.789,10.48L94.916,80.19c-2.469-1.24-5.473-0.246-6.713,2.221
			c-1.241,2.468-0.246,5.473,2.221,6.714l10.573,5.314C93.336,110.421,89.01,128,88.481,146.241H76.599c-2.762,0-5,2.238-5,5
			s2.238,5,5,5h11.975c0.831,17.436,5.17,34.275,12.585,49.648l-10.579,5.317c-2.467,1.241-3.462,4.246-2.221,6.714
			c0.878,1.746,2.641,2.755,4.471,2.755c0.755,0,1.521-0.172,2.242-0.534l10.78-5.418c5.391,9.252,11.953,17.863,19.599,25.608
			H111.1c-14.336,0-25.999,11.664-25.999,26.001c0,13.172,9.847,24.078,22.563,25.766l14.483,136.688
			c0.27,2.543,2.415,4.473,4.973,4.473h179.817c2.558,0,4.703-1.93,4.972-4.474l14.483-136.687
			c12.717-1.688,22.563-12.594,22.563-25.766c0-14.337-11.663-26.001-26-26.001h-14.351c7.687-7.786,14.277-16.448,19.686-25.757
			l11.073,5.566c0.721,0.362,1.487,0.534,2.242,0.534c1.83,0,3.593-1.009,4.471-2.755c1.241-2.468,0.246-5.473-2.221-6.713
			l-10.884-5.472c7.37-15.331,11.682-32.118,12.511-49.495h11.975c2.762,0,5-2.238,5-5S360.22,146.241,357.458,146.241z
			 M222.029,31.686c40.122,3.754,71.974,52.314,71.974,111.48c0,40.209-14.942,77.23-39.089,97.165h-32.885V31.686z M212.029,31.686
			v208.646h-32.885c-24.146-19.933-39.088-56.954-39.089-97.165C140.055,84.002,171.907,35.44,212.029,31.686z M108.506,10.006
			c14.201,0,26.014,10.67,27.477,24.82c0.666,6.438-0.9,12.765-4.43,18.09c-16.935-16.208-30.458-29.183-39.277-37.68
			C99.758,9.725,107.55,10.006,108.506,10.006z M108.428,65.337c-14.202,0-26.015-10.671-27.477-24.821
			c-0.664-6.42,0.891-12.729,4.4-18.044c7.561,7.293,19.705,18.93,39.274,37.657C117.951,65.271,109.384,65.337,108.428,65.337z
			 M98.424,150.049c0-39.148,21.208-84.071,70.544-108.469c-4.999,4.646-9.69,10.048-13.995,16.178
			c-16.068,22.88-24.918,53.212-24.918,85.408c0.001,38.44,12.973,74.372,34.483,97.165H140.11
			C113.595,217.726,98.424,184.924,98.424,150.049z M302.44,423.258H131.618l-13.874-130.926h198.568L302.44,423.258z
			 M322.956,250.332c8.822,0,16,7.178,16,16.001c0,8.822-7.178,16-16,16H111.1c-8.822,0-15.999-7.178-15.999-16
			c0-8.823,7.177-16.001,15.999-16.001H322.956z M293.947,240.332h-24.428c21.512-22.794,34.483-58.726,34.483-97.165
			c0-32.196-8.85-62.528-24.918-85.408c-4.277-6.09-8.935-11.461-13.897-16.087c41.468,18.499,70.446,60.116,70.446,108.378
			C335.633,184.924,320.461,217.727,293.947,240.332z"/>
	</g>
</g>
<g>
</g>
<g>
</g>
<g>
</g>
<g>
</g>
<g>
</g>
<g>
</g>
<g>
</g>
<g>
</g>
<g>
</g>
<g>
</g>
<g>
</g>
<g>
</g>
<g>
</g>
<g>
</g>
<g>
</g>
</svg>
