<?xml version="1.0" encoding="iso-8859-1"?>
<!-- Generator: Adobe Illustrator 18.0.0, SVG Export Plug-In . SVG Version: 6.00 Build 0)  -->
<!DOCTYPE svg PUBLIC "-//W3C//DTD SVG 1.1//EN" "http://www.w3.org/Graphics/SVG/1.1/DTD/svg11.dtd">
<svg version="1.1" id="Capa_1" xmlns="http://www.w3.org/2000/svg" xmlns:xlink="http://www.w3.org/1999/xlink" x="0px" y="0px"
	 viewBox="0 0 444.552 444.552" style="enable-background:new 0 0 444.552 444.552;" xml:space="preserve">
<path d="M373.835,200.483c-15.756,0-30.301,5.264-41.985,14.116l96.849-87.37l11.209-0.796c2.754-0.195,4.828-2.587,4.633-5.341
	c-0.195-2.755-2.6-4.837-5.342-4.633l-311.003,22.083c-2.754,0.195-4.829,2.587-4.633,5.341c0.187,2.635,2.382,4.646,4.982,4.646
	c0.119,0,13.322-0.934,13.322-0.934v40.145c0,9.54,2.275,17.285,5.7,23.497c-6.502-4.409-14.039-10.752-22.244-19.89
	c-31.688-35.294-70.78-81.563-70.792-81.577c-2.642-3.203-6.537-5.04-10.687-5.04H13.851C6.213,104.73,0,110.943,0,118.581
	c0,7.637,6.213,13.851,13.851,13.851H60.65c13.915,16.313,35.802,41.728,57.231,65.596c15.7,17.486,29.467,25.769,39.139,29.697
	v82.983c0,13.648,0,29.114,21.6,29.114c16.926,0,31.545-16.058,32.921-17.722l61.807-68.628l31.525,6.838
	c-0.457,3.218-0.708,6.501-0.708,9.843c0,38.415,31.254,69.669,69.67,69.669s69.67-31.254,69.67-69.669
	C443.504,231.737,412.25,200.483,373.835,200.483z M13.851,122.432c-2.123,0-3.851-1.728-3.851-3.851
	c0-2.124,1.728-3.851,3.851-3.851h29.993c1.153,0,2.237,0.511,2.973,1.403c0.042,0.05,2.986,3.531,5.332,6.299H13.851z
	 M203.862,315.694c-0.113,0.142-12.934,14.012-25.242,14.129c-11.174,0.106-11.6-3.65-11.6-19.114v-79.951
	c1.801,0.338,95.067,20.273,95.067,20.273S203.917,315.625,203.862,315.694z M175.815,222.086
	c-1.249-0.318-23.949-6.507-23.949-34.346v-40.855l260.629-18.506L282.879,245.309L175.815,222.086z M294.914,247.919l28.092-25.342
	c-7.349,7.846-12.902,17.383-16.012,27.962L294.914,247.919z M373.835,329.823c-32.902,0-59.67-26.768-59.67-59.669
	c0-2.616,0.188-5.188,0.516-7.715l20.853,4.522c-0.087,1.054-0.143,2.116-0.143,3.192c0,21.198,17.246,38.443,38.444,38.443
	c21.199,0,38.445-17.245,38.445-38.443c0-21.199-17.246-38.446-38.445-38.446c-16.65,0-30.857,10.643-36.189,25.481l-20.86-4.524
	c7.494-24.395,30.231-42.181,57.049-42.181c32.902,0,59.67,26.769,59.67,59.671C433.504,303.055,406.737,329.823,373.835,329.823z
	 M374.895,265.268l-27.361-5.935c4.267-10.333,14.447-17.626,26.301-17.626c15.685,0,28.445,12.762,28.445,28.446
	c0,15.684-12.761,28.443-28.445,28.443c-15.684,0-28.444-12.76-28.444-28.443c0-0.352,0.014-0.699,0.026-1.048
	c0,0,24.974,5.842,28.423,6.049c2.298,0.138,4.374-1.6,4.882-3.941C379.306,268.515,377.592,265.853,374.895,265.268z"/>
<g>
</g>
<g>
</g>
<g>
</g>
<g>
</g>
<g>
</g>
<g>
</g>
<g>
</g>
<g>
</g>
<g>
</g>
<g>
</g>
<g>
</g>
<g>
</g>
<g>
</g>
<g>
</g>
<g>
</g>
</svg>
