<?xml version="1.0" encoding="iso-8859-1"?>
<!-- Generator: Adobe Illustrator 18.0.0, SVG Export Plug-In . SVG Version: 6.00 Build 0)  -->
<!DOCTYPE svg PUBLIC "-//W3C//DTD SVG 1.1//EN" "http://www.w3.org/Graphics/SVG/1.1/DTD/svg11.dtd">
<svg version="1.1" id="Capa_1" xmlns="http://www.w3.org/2000/svg" xmlns:xlink="http://www.w3.org/1999/xlink" x="0px" y="0px"
	 viewBox="0 0 443.873 443.873" style="enable-background:new 0 0 443.873 443.873;" xml:space="preserve">
<g>
	<g>
		<g>
			<path d="M248.591,133.194h-53.329c-2.762,0-5-2.238-5-5V84.346c0-2.762,2.238-5,5-5h53.329c2.762,0,5,2.238,5,5v43.848
				C253.591,130.956,251.352,133.194,248.591,133.194z M200.262,123.194h43.329V89.346h-43.329V123.194z"/>
		</g>
		<path d="M313.535,438.205L301.838,168.68v-45.876c0-1.375-0.566-2.689-1.565-3.634c-0.998-0.943-2.32-1.427-3.716-1.358
			c-0.053-0.005-6.797,0.198-13.343-5.991c-8.485-8.021-12.971-23.278-12.971-44.123c0-2.762-2.238-5-5-5h-0.861v-3.426l2.313,0.492
			c1.493,0.288,2.979-0.176,3.805-0.724c1.12-0.743,1.893-1.905,2.146-3.225l8.99-46.828c0.514-2.673-1.206-5.266-3.869-5.833
			L263.468,0.11c-1.311-0.278-2.685-0.019-3.805,0.724c-1.12,0.743-1.893,1.905-2.147,3.225l-8.99,46.828
			c-0.514,2.673,1.206,5.266,3.869,5.833l1.986,0.423v5.556h-64.91v-5.556l1.986-0.423c2.663-0.567,4.383-3.16,3.869-5.833
			l-8.99-46.828c-0.253-1.319-1.026-2.482-2.147-3.225c-1.121-0.743-2.493-1.004-3.805-0.724l-14.299,3.045
			c-2.663,0.567-4.383,3.16-3.869,5.833l8.99,46.828c0.253,1.319,1.026,2.481,2.146,3.225c0.826,0.548,2.322,0.99,3.805,0.724
			l2.313-0.492v3.426h-0.861c-2.762,0-5,2.238-5,5c0,20.654-4.409,35.839-12.75,43.913c-6.563,6.352-13.342,6.196-13.563,6.201
			c-1.384-0.077-2.717,0.413-3.716,1.358c-0.999,0.944-1.565,2.259-1.565,3.634v45.876l-11.717,269.976
			c-0.06,1.362,0.44,2.689,1.384,3.675c0.943,0.985,2.248,1.542,3.611,1.542h71.345c2.605,0,4.774-2.001,4.983-4.598l10.305-127.767
			l10.305,127.767c0.209,2.597,2.378,4.598,4.983,4.598h71.345c0.007,0.001,0.015,0,0.02,0c2.762,0,5-2.238,5-5
			C313.579,438.646,313.564,438.423,313.535,438.205z M266.375,10.954l4.517,0.962l-7.104,37.005l-4.517-0.962L266.375,10.954z
			 M172.962,11.916l4.517-0.962l7.105,37.005l-4.517,0.962L172.962,11.916z M152.016,127.284c4.068-0.825,9.917-2.924,15.494-8.195
			c9.927-9.384,15.307-24.977,16.02-46.391h76.795c0.713,21.414,6.093,37.007,16.02,46.391c5.577,5.272,11.426,7.37,15.494,8.195
			v17.484H152.016V127.284z M140.516,433.873l0.477-10.998h61.919l-0.887,10.998H140.516z M216.927,249.121l-13.208,163.754h-62.292
			l10.377-239.09h48.835v46.053c0,8.007,6.515,14.52,14.521,14.52h1.767V249.121z M216.927,224.358h-1.767
			c-2.493,0-4.521-2.028-4.521-4.52v-46.053h6.288V224.358z M152.016,163.785v-9.017h139.822v9.017H152.016z M226.927,249.116
			v-75.331h65.123l10.377,239.09h-62.292L226.927,249.116z M241.828,433.873l-0.887-10.998h61.919l0.478,10.998H241.828z"/>
	</g>
</g>
<g>
</g>
<g>
</g>
<g>
</g>
<g>
</g>
<g>
</g>
<g>
</g>
<g>
</g>
<g>
</g>
<g>
</g>
<g>
</g>
<g>
</g>
<g>
</g>
<g>
</g>
<g>
</g>
<g>
</g>
</svg>
