<?xml version="1.0" encoding="iso-8859-1"?>
<!-- Generator: Adobe Illustrator 18.0.0, SVG Export Plug-In . SVG Version: 6.00 Build 0)  -->
<!DOCTYPE svg PUBLIC "-//W3C//DTD SVG 1.1//EN" "http://www.w3.org/Graphics/SVG/1.1/DTD/svg11.dtd">
<svg version="1.1" id="Capa_1" xmlns="http://www.w3.org/2000/svg" xmlns:xlink="http://www.w3.org/1999/xlink" x="0px" y="0px"
	 viewBox="0 0 396.339 396.339" style="enable-background:new 0 0 396.339 396.339;" xml:space="preserve">
<g>
	<path d="M391.339,161.797c2.761,0,5-2.238,5-5V122.32c0-2.761-2.239-5-5-5h-21.85V78.978c0-19.594-15.941-35.535-35.536-35.535
		s-35.536,15.941-35.536,35.535v38.342h-19.45V78.978c0-19.594-15.941-35.535-35.536-35.535c-19.595,0-35.536,15.941-35.536,35.535
		v38.342h-19.449V78.978c0-19.594-15.942-35.535-35.537-35.535c-19.595,0-35.536,15.941-35.536,35.535v38.342H97.923V78.978
		c0-19.594-15.941-35.535-35.537-35.535c-19.595,0-35.536,15.941-35.536,35.535v38.342H5c-2.761,0-5,2.239-5,5v34.477
		c0,2.762,2.239,5,5,5h21.85v93.43H5c-2.761,0-5,2.239-5,5v34.477c0,2.762,2.239,5,5,5h21.85v48.193c0,2.761,2.239,5,5,5h61.073
		c2.761,0,5-2.239,5-5v-48.193h19.449v48.193c0,2.761,2.239,5,5,5h61.073c2.761,0,5-2.239,5-5v-48.193h19.449v48.193
		c0,2.761,2.239,5,5,5h61.072c2.761,0,5-2.239,5-5v-48.193h19.45v48.193c0,2.761,2.239,5,5,5h61.072c2.761,0,5-2.239,5-5v-48.193
		h21.85c2.761,0,5-2.238,5-5v-34.477c0-2.761-2.239-5-5-5h-21.85v-93.43H391.339z M386.339,127.32v24.477h-16.85V127.32H386.339z
		 M278.967,161.797h19.45v93.43h-19.45V161.797z M298.417,127.32v24.477h-19.45V127.32H298.417z M188.445,161.797h19.449v93.43
		h-19.449V161.797z M207.895,127.32v24.477h-19.449V127.32H207.895z M97.923,161.797h19.449v93.43H97.923V161.797z M117.372,127.32
		v24.477H97.923V127.32H117.372z M10,151.797V127.32h16.85v24.477H10z M10,289.703v-24.477h16.85v24.477H10z M36.85,342.896V78.978
		c0-14.08,11.456-25.535,25.536-25.535c14.081,0,25.537,11.455,25.537,25.535v263.918H36.85z M97.923,289.703v-24.477h19.449v24.477
		H97.923z M127.372,342.896V78.978c0-14.08,11.456-25.535,25.536-25.535c14.081,0,25.537,11.455,25.537,25.535v263.918H127.372z
		 M188.445,289.703v-24.477h19.449v24.477H188.445z M268.967,342.896h-51.072V78.978c0-14.08,11.456-25.535,25.536-25.535
		c14.081,0,25.536,11.455,25.536,25.535V342.896z M278.967,289.703v-24.477h19.45v24.477H278.967z M308.417,342.896V78.978
		c0-14.08,11.456-25.535,25.536-25.535s25.536,11.455,25.536,25.535v263.918H308.417z M386.339,265.226v24.477h-16.85v-24.477
		H386.339z"/>
	<path d="M62.39,134.559c-1.32,0-2.61,0.53-3.54,1.46c-0.93,0.93-1.46,2.221-1.46,3.54c0,1.32,0.53,2.601,1.46,3.53
		c0.93,0.939,2.22,1.47,3.54,1.47c1.31,0,2.6-0.53,3.53-1.47c0.93-0.93,1.47-2.221,1.47-3.53c0-1.319-0.54-2.6-1.47-3.54
		C64.99,135.09,63.7,134.559,62.39,134.559z"/>
	<path d="M62.39,272.469c-1.32,0-2.61,0.53-3.54,1.46c-0.93,0.93-1.46,2.221-1.46,3.54c0,1.31,0.53,2.601,1.46,3.53
		c0.93,0.93,2.22,1.46,3.54,1.46c1.31,0,2.6-0.53,3.53-1.46c0.93-0.93,1.47-2.221,1.47-3.53c0-1.319-0.54-2.61-1.47-3.54
		C64.99,273,63.7,272.469,62.39,272.469z"/>
	<path d="M152.91,134.559c-1.32,0-2.61,0.53-3.54,1.46c-0.93,0.93-1.46,2.221-1.46,3.54c0,1.31,0.53,2.601,1.46,3.53
		c0.93,0.939,2.22,1.47,3.54,1.47c1.32,0,2.6-0.53,3.54-1.47c0.93-0.93,1.46-2.221,1.46-3.53c0-1.319-0.53-2.6-1.46-3.54
		C155.51,135.09,154.23,134.559,152.91,134.559z"/>
	<path d="M152.91,272.46c-1.32,0-2.61,0.54-3.54,1.47c-0.93,0.93-1.46,2.221-1.46,3.54c0,1.31,0.53,2.601,1.46,3.53
		c0.93,0.93,2.22,1.47,3.54,1.47c1.32,0,2.6-0.54,3.54-1.47c0.93-0.93,1.46-2.221,1.46-3.53c0-1.319-0.53-2.61-1.46-3.54
		C155.51,273,154.23,272.46,152.91,272.46z"/>
	<path d="M243.43,134.559c-1.32,0-2.61,0.53-3.53,1.46c-0.93,0.941-1.47,2.221-1.47,3.54c0,1.32,0.54,2.601,1.47,3.54
		c0.93,0.93,2.22,1.46,3.53,1.46c1.32,0,2.61-0.53,3.54-1.46c0.93-0.939,1.46-2.22,1.46-3.54c0-1.319-0.53-2.6-1.46-3.54
		C246.039,135.09,244.749,134.559,243.43,134.559z"/>
	<path d="M243.43,272.469c-1.32,0-2.6,0.53-3.53,1.46c-0.93,0.93-1.47,2.221-1.47,3.54c0,1.31,0.54,2.601,1.47,3.53
		c0.93,0.93,2.22,1.47,3.53,1.47c1.32,0,2.61-0.54,3.54-1.47c0.93-0.93,1.46-2.221,1.46-3.53c0-1.319-0.53-2.61-1.46-3.54
		S244.749,272.469,243.43,272.469z"/>
	<path d="M333.95,134.559c-1.31,0-2.6,0.53-3.53,1.46c-0.93,0.93-1.47,2.221-1.47,3.54c0,1.31,0.54,2.601,1.47,3.53
		c0.93,0.939,2.22,1.47,3.53,1.47c1.32,0,2.61-0.53,3.54-1.47c0.93-0.93,1.47-2.221,1.47-3.53c0-1.319-0.54-2.61-1.47-3.54
		S335.27,134.559,333.95,134.559z"/>
	<path d="M333.95,272.469c-1.31,0-2.6,0.53-3.53,1.46c-0.93,0.93-1.47,2.221-1.47,3.54c0,1.31,0.54,2.601,1.47,3.53
		c0.93,0.93,2.22,1.47,3.53,1.47c1.32,0,2.61-0.54,3.54-1.47c0.93-0.93,1.47-2.221,1.47-3.53c0-1.319-0.54-2.61-1.47-3.54
		S335.27,272.469,333.95,272.469z"/>
</g>
<g>
</g>
<g>
</g>
<g>
</g>
<g>
</g>
<g>
</g>
<g>
</g>
<g>
</g>
<g>
</g>
<g>
</g>
<g>
</g>
<g>
</g>
<g>
</g>
<g>
</g>
<g>
</g>
<g>
</g>
</svg>
