<?xml version="1.0" encoding="iso-8859-1"?>
<!-- Generator: Adobe Illustrator 18.0.0, SVG Export Plug-In . SVG Version: 6.00 Build 0)  -->
<!DOCTYPE svg PUBLIC "-//W3C//DTD SVG 1.1//EN" "http://www.w3.org/Graphics/SVG/1.1/DTD/svg11.dtd">
<svg version="1.1" id="Capa_1" xmlns="http://www.w3.org/2000/svg" xmlns:xlink="http://www.w3.org/1999/xlink" x="0px" y="0px"
	 viewBox="0 0 449.095 449.095" style="enable-background:new 0 0 449.095 449.095;" xml:space="preserve">
<path d="M410.136,283.593c-0.615-1.683-2.083-2.908-3.849-3.212c-13.518-2.329-32.522,1.888-33.363,2.076
	c-32.446,7.565-50.566,19.065-60.106,27.467V189.489c0-1.21-0.107-18.98-5.67-41.874c9.103-18.365,20.733-32.158,20.817-32.154
	l1.598,12.206c0.06,0.46,0.184,0.909,0.368,1.334c1.434,3.317,5.976,8.353,14.071,8.353c2.074,0,4.38-0.33,6.928-1.104
	c7.606-2.311,10.58-8.391,11.429-13.407c8.063-2.157,17.202-7.463,20.939-18.626c0.01-0.03,7.168-18.85-14.114-34.068
	c-0.362-0.259-6.392-2.762-11.92-0.277c2.609-4.83,2.335-12.773,1.409-18.455c-1.723-10.564-6.219-14.066-9.688-15.144
	c-11.159-3.461-23.257,13.825-25.234,20.188c-0.285,0.918-0.489,1.852-0.636,2.791c-5.928-7.991-12.078-6.527-13.284-6.433
	c-5.641-13.649-20.822-17.945-21.53-18.139c-0.429-0.117-5.593-1.561-11.451,3.262c0.139-0.941,0.221-1.894,0.221-2.855
	c0-6.662-6.423-26.765-18.109-26.765c-11.687,0-18.109,20.103-18.109,26.765c0,0.961,0.082,1.912,0.22,2.853
	c-2.501-1.923-5.746-3.439-10.137-3.439c-0.444,0-0.887,0.06-1.316,0.177c-4.578,1.249-11.521,4.636-16.692,10.541
	c-1.318-0.29-2.648-0.564-3.992-0.816c1.083-3.187,1.498-6.896,0.695-11.132c-0.007-0.037-2.413-16.313-22.99-18.233
	c-0.442-0.041-4.529,0.373-7.142,2.855c-1.276-5.514-9.513-19.699-18.976-17.697c-0.004,0.001-0.009,0.003-0.013,0.005
	c-9.448,2.019-11.215,18.313-10.145,23.871c-1.856-0.512-3.994-0.674-6.435-0.156c-0.435,0.093-0.855,0.242-1.251,0.446
	c-0.69,0.355-16.854,8.888-13.654,25.785c0.007,0.036,0.022,0.068,0.029,0.105c-6.563,1.709-12.508,3.595-17.735,5.637
	c1.005-2.029,1.586-4.304,1.586-6.717c0-8.378-6.817-15.194-15.195-15.194c-8.378,0-15.194,6.816-15.194,15.194
	c0,1.135,0.135,2.236,0.372,3.301l-5.676-0.74c0.482-1.34,0.762-2.775,0.762-4.28c0-7.005-5.7-12.704-12.705-12.704
	c-7.005,0-12.704,5.699-12.704,12.704c0,0.363,0.025,0.72,0.055,1.075l-8.417-1.097c-2.731-0.35-5.247,1.573-5.604,4.312
	c-0.357,2.738,1.574,5.248,4.312,5.604l40.71,5.306L65.011,76.729c-2.202,1.666-2.636,4.803-0.97,7.004
	c0.983,1.3,2.478,1.983,3.991,1.983c1.051,0,2.11-0.33,3.013-1.013l2.776-2.101c2.008,4.975,6.878,8.499,12.564,8.499
	c7.472,0,13.551-6.079,13.551-13.552c0-4.357-2.077-8.23-5.283-10.711l3.103-2.349c0,0,13.437,1.737,13.652,1.737
	c0.649,0,1.294-0.126,1.898-0.374c5.728-2.352,12.514-4.509,20.207-6.43c2.959,3.556,6.736,5.7,10.109,6.997
	c0.444,4.02,2.509,8.762,8.282,11.116c2.56,1.044,4.863,1.47,6.904,1.47c5.873-0.001,9.495-3.569,10.922-6.007
	c0.991-1.692,2.328-9.42,2.328-9.42c0.636-0.03,1.264-0.093,1.864-0.221c0.607-0.129,1.203-0.327,1.793-0.556
	c0,0,4.482,6.635,5.95,7.664c1.497,1.05,3.982,2.226,7.042,2.226c3.306-0.001,7.549-1.02,11.091-5.316
	c4.432-5.377,3.269-13.729,3.358-13.819c1.477,0.23,2.943,0.481,4.395,0.76c-0.899,2.562-1.521,8.669-1.52,8.706
	c0.257,11.741,7.378,19.512,14.444,23.976c-0.692,5.01,0.335,11.722,6.964,16.22c4.234,2.873,8.106,3.917,11.427,3.917
	c5.153,0,8.71-2.781,10.779-4.609c1.679-1.484,5.898-12.352,5.898-12.352c1.146,0.289,2.294,0.443,3.417,0.443
	s2.271-0.154,3.416-0.443c0,0,3.994,10.265,5.897,12.352c5.433,5.959,11.85,4.572,12.403,4.517
	c21.825,37.886,22.139,81.995,22.14,82.445v120.437c-9.544-8.402-27.673-19.905-60.144-27.477
	c-0.802-0.181-19.805-4.394-33.325-2.067c-1.766,0.304-3.234,1.529-3.849,3.212c-0.556,1.522-2.569,9.484,12.443,16.798
	c0.204,0.099,22.588,7.603,50.04,26.638h-33.037c-2.761,0-5,2.238-5,5c0,95.964,48.891,115.929,50.972,116.731
	c0.574,0.222,1.185,0.335,1.8,0.335h50.198c0.615,0,1.226-0.113,1.8-0.335c2.081-0.803,50.972-20.768,50.972-116.731
	c0-2.762-2.239-5-5-5h-33.032c27.385-18.977,49.832-26.539,50.036-26.638C412.704,293.078,410.692,285.116,410.136,283.593z
	 M65.268,50.153c-1.491,0-2.704-1.214-2.704-2.705s1.213-2.704,2.704-2.704c1.492,0,2.705,1.213,2.705,2.704
	S66.76,50.153,65.268,50.153z M86.386,81.102c-1.958,0-3.551-1.594-3.551-3.552c0-1.958,1.593-3.551,3.551-3.551
	s3.551,1.593,3.551,3.551C89.937,79.508,88.344,81.102,86.386,81.102z M97.71,54.363c-2.864,0-5.194-2.331-5.194-5.195
	c0-2.864,2.33-5.194,5.194-5.194c2.865,0,5.195,2.33,5.195,5.194C102.906,52.032,100.575,54.363,97.71,54.363z M183.543,29.026
	c1.615-2.92,1.91-3.443,3.227-3.932c2.582,0.345,11.097,2.089,13.056,10.163c0.428,6.459-2.451,9.724-2.487,9.767
	c-2.244,3.141-5.715,5.017-5.929,5.132c-0.916,0.449-4.916-3.078-5.529-3.602c-0.022-1.042-0.243-7.589-5.921-12.457
	C180.044,34.019,182.247,31.368,183.543,29.026z M165.017,47.797c-0.833-3.926,2.108-7.675,3.896-8.054
	c0.07-0.016,4.913-0.71,6.832,5.778c0.509,1.72-0.215,3.635-1.04,5.46c-1.076,2.382-3.048,2.628-3.223,2.628
	C169.349,53.61,165.77,51.346,165.017,47.797z M166.715,29.377c-2.15-1.089-5.795-3.726-6.534-7.205
	c-0.581-2.739,0.807-10.059,2.456-12.015c2.3,1.115,6.541,7.243,7.123,9.982C170.497,23.619,168.237,27.509,166.715,29.377z
	 M138.84,48.193c-1.493-8.189,5.613-13.245,7.803-14.589c1.411-0.084,3.069,0.976,4.549,2.283c2.063,1.823,5.234,3.14,5.344,3.177
	c-1.485,3.221-2.113,6.979-1.3,10.809c0.228,1.075,0.558,2.098,0.97,3.064c-0.347,0.738-1.01,5.508-3.588,5.458
	C152.478,58.392,141.386,57.859,138.84,48.193z M155.474,68.179c2.812-0.559,4.765-2.075,6.158-3.824l-0.929,4.106
	C158.648,69.844,155.543,68.213,155.474,68.179z M188.039,62.605l-2.664-3.575c1.494,0.801,3.234,1.378,5.221,1.378
	c0.715,0,1.467-0.091,2.244-0.256C192.761,60.252,190.109,63.556,188.039,62.605z M299.983,124.513
	c1.759,0.609,3.46,0.86,5.032,0.86c1.278-0.001,2.464-0.171,3.536-0.435c-1.919,3.087-3.711,6.143-5.279,8.906
	C302.282,130.773,301.188,127.654,299.983,124.513z M303.583,108.855c4.308,0,7.85-2.297,10.349-4.194
	c0.059,0.126,0.52,1.049,0.7,1.38l-8.196,9.11c-1.244,0.423-4.245,0.729-7.889-3.84c-1.152-1.444-1.475-2.899-1.395-4.203
	C299.439,108.355,301.593,108.855,303.583,108.855z M334.059,84.323c1.291,0.4,3.162,1.983,4.433,4.617
	c1.33,2.755,1.619,5.859,0.794,8.516c-1.494,4.808-6.592,8.131-10.415,8.037c-2.51-0.062-4.497-2.162-5.768-4.795
	c-1.33-2.756-1.783-5.915-0.793-8.516C325.735,83.177,333.679,84.205,334.059,84.323z M348.022,126.68
	c-5.59,1.701-7.888-0.254-8.674-1.306l-1.589-12.133c0.479-0.24,0.954-0.499,1.422-0.777c1.486,4.428,4.326,10.962,12.346,11.554
	C350.845,125.136,349.763,126.152,348.022,126.68z M364.361,78.964c2.539,1.846,12.783,10.179,9.416,22.179
	c-2.905,8.518-10.501,11.438-15.746,12.435c-2.305,0.39-5.159,0.513-5.348,0.508c-2-0.032-5.175-8.362-5.67-9.523
	c0.732-1.278,1.36-2.65,1.823-4.141c1.514-4.876,1.135-10.199-1.02-15.086c0.735-0.167,4.761-0.855,8.719-3.746
	C359.548,79.389,361.649,78.363,364.361,78.964z M333.3,59.425c1.533-4.934,10.083-14.072,12.715-13.604
	c2.439,1.115,4.305,13.485,2.773,18.415c-1.798,5.786-8.657,9.28-11.647,10.159C335.175,71.978,331.502,65.213,333.3,59.425z
	 M317.085,69.331c0.896,2.184,1.821,4.441,3.511,6.324c0.514,0.573,1.03,1.138,1.545,1.692c-4.125,2.531-7.721,6.521-9.381,11.868
	c-0.453,1.457-0.719,2.956-0.839,4.47c-1.042,0.669-7.631,7.012-10.191,4.532c-0.303-0.2-13.088-8.784-9.932-22.55
	c4.324-12.716,19.444-12.916,20.321-12.937C314.695,63.775,315.668,65.877,317.085,69.331z M279.616,49.357
	c1.669-2.354,3.929-4.594,6.696-4.828c2.249,0.763,9.797,3.767,13.489,10.527c-7.091,2.658-18.469,10.304-18.652,24.328
	c-0.393-0.529-2.922-4.188-3.805-5.24c0.326-1.451,0.506-2.96,0.506-4.518c0-5.494-2.194-10.414-5.419-14.108
	C273.062,55.144,277.493,52.35,279.616,49.357z M258.957,18.321c2.659,0.336,8.113,11.6,8.113,16.764
	c0,6.06-5.514,11.431-8.109,13.156c-2.596-1.726-8.109-7.097-8.109-13.156C250.852,29.918,256.311,18.645,258.957,18.321z
	 M231.603,44.525c2.77,0.232,4.324,1.95,6.701,4.828c1.503,1.82,3.994,5.348,7.189,6.164c-3.225,3.695-5.42,8.615-5.42,14.109
	c0,1.587,0.188,3.124,0.526,4.6c-0.783,0.978-1.464,2.033-2.131,3.074c-2.743,4.284-3.626,4.87-6.217,4.208
	c-0.051-0.015-15.146-4.196-16.216-18.599c0.105-3.784,1.297-6.867,2.992-9.357c0.003-0.005,0.006-0.01,0.009-0.014
	C222.942,47.812,229.503,45.23,231.603,44.525z M241.729,96.27c-1.753,2.021-10.265,0.044-11.265-4.921
	c1.187,0.253,2.299,0.376,3.334,0.376c6.291-0.001,9.882-4.244,12.109-7.532c0.306,0.332,0.618,0.654,0.939,0.964L241.729,96.27z
	 M250.074,69.627c0-5.962,5.459-10.992,8.888-10.992c3.429,0,8.888,5.03,8.888,10.992s-5.46,10.992-8.888,10.992
	C255.533,80.619,250.074,75.588,250.074,69.627z M271.077,85.158c0.374-0.361,0.737-0.738,1.09-1.128
	c2.251,3.222,6.05,8.052,11.635,8.129c0.414,0.889,0.867,1.745,1.346,2.571c-0.096,0.071-5.191,4.162-8.956,1.541L271.077,85.158z
	 M219.175,289.676c10.267,0.087,21.158,2.496,21.266,2.52c44.237,10.315,59.32,28.055,62.376,32.294v2.539h-17.919
	C252.814,302.257,219.97,290.172,219.175,289.676z M331.843,439.095h-48.051c-2.683-1.31-12.095-6.555-21.409-19.54
	c-8.251-11.503-17.773-31.137-21.159-62.66H374.41c-3.386,31.523-12.908,51.157-21.159,62.66
	C343.938,432.541,334.526,437.786,331.843,439.095z M375.243,346.895h-134.85c-0.193-3.185-0.333-6.464-0.398-9.866h135.646
	C375.575,340.431,375.436,343.711,375.243,346.895z M330.738,327.029h-17.92v-2.54c3.064-4.247,18.152-21.98,62.339-32.284
	c0.139-0.031,11.027-2.448,21.308-2.53C395.67,290.171,362.822,302.257,330.738,327.029z"/>
<g>
</g>
<g>
</g>
<g>
</g>
<g>
</g>
<g>
</g>
<g>
</g>
<g>
</g>
<g>
</g>
<g>
</g>
<g>
</g>
<g>
</g>
<g>
</g>
<g>
</g>
<g>
</g>
<g>
</g>
</svg>
