<?xml version="1.0" encoding="iso-8859-1"?>
<!-- Generator: Adobe Illustrator 18.0.0, SVG Export Plug-In . SVG Version: 6.00 Build 0)  -->
<!DOCTYPE svg PUBLIC "-//W3C//DTD SVG 1.1//EN" "http://www.w3.org/Graphics/SVG/1.1/DTD/svg11.dtd">
<svg version="1.1" id="Capa_1" xmlns="http://www.w3.org/2000/svg" xmlns:xlink="http://www.w3.org/1999/xlink" x="0px" y="0px"
	 viewBox="0 0 440.894 440.894" style="enable-background:new 0 0 440.894 440.894;" xml:space="preserve">
<path d="M300.308,275.51h-74.861v-60.499c37.401,0,55.987-16.468,65.946-30.32c10.723-14.917,13.298-29.754,13.402-30.379
	c0.239-1.431-0.155-2.895-1.08-4.012c-0.925-1.118-2.289-1.778-3.739-1.812c-33.704-0.757-54.98,15.941-66.827,29.904
	c-3,3.536-5.548,7.062-7.702,10.392v-59.518c4.596-0.474,11.774-1.655,19.045-4.601c30.312-4.086,45.477-17.516,46.337-41.049
	c1.105-30.173,13.41-45.623,13.521-45.758c1.225-1.478,1.495-3.525,0.697-5.271c-0.798-1.745-2.524-2.88-4.442-2.92
	c-11.006-0.229-20.747,0.604-27.227,1.388c3.382-8.662,7.134-12.544,7.2-12.611c1.656-1.596,2.011-4.114,0.859-6.104
	c-1.152-1.991-3.515-2.939-5.721-2.298c-0.522,0.151-10.816,3.239-22.772,13.591c-5.048-6.727-15.509-18.253-30.916-23.386
	l-0.006,0.018c-0.991-0.331-2.087-0.372-3.154-0.018c-15.415,5.135-25.868,16.661-30.914,23.388
	c-11.957-10.354-22.253-13.441-22.775-13.593c-2.192-0.636-4.521,0.309-5.682,2.275c-1.161,1.966-0.827,4.484,0.789,6.097
	c0.081,0.081,3.843,3.972,7.229,12.639c-6.479-0.784-16.22-1.617-27.225-1.385c-1.918,0.04-3.645,1.175-4.442,2.92
	c-0.799,1.746-0.527,3.794,0.698,5.271c0.124,0.149,12.408,15.299,13.521,45.758c0.863,23.535,16.029,36.966,46.344,41.052
	c7.268,2.943,14.442,4.124,19.037,4.598v59.518c-2.154-3.33-4.702-6.855-7.702-10.392c-11.583-13.653-32.195-29.929-64.607-29.929
	c-0.737,0-4.143-0.467-5.958,1.836c-0.897,1.139-1.319,2.581-1.08,4.012c0.104,0.625,2.68,15.462,13.402,30.378
	c9.958,13.852,28.332,30.321,65.945,30.321v60.499h-74.861c-11.486,0-20.831,9.345-20.831,20.832
	c0,10.233,7.42,18.745,17.157,20.487l11.339,97.969c-4.595,2.226-7.778,6.921-7.778,12.358c0,7.575,6.163,13.737,13.738,13.737
	h132.476c7.574,0,13.736-6.162,13.736-13.737c0-5.438-3.183-10.132-7.775-12.357l11.337-97.97
	c9.736-1.743,17.156-10.256,17.156-20.487C321.14,284.855,311.794,275.51,300.308,275.51z M293.396,158.577
	c-1.592,5.037-4.642,12.652-10.123,20.276c-10.709,14.896-25.91,23.481-45.252,25.641l17.591-11.242
	c2.327-1.487,3.008-4.579,1.521-6.905c-1.486-2.326-4.576-3.008-6.905-1.521l-17.449,11.151
	C242.042,181.018,260.683,160.284,293.396,158.577z M185.285,193.252l17.574,11.232c-38.392-4.345-51.482-33.209-55.406-45.913
	c20.925,1.047,38.547,9.787,52.437,26.02c3.339,3.903,6.079,7.828,8.289,11.425l-17.509-11.191
	c-2.326-1.488-5.418-0.808-6.905,1.521C182.277,188.673,182.957,191.764,185.285,193.252z M269.376,81.57
	c-2.329-17.068-1.319-30.223,0.845-39.998c4.116-0.608,11.857-1.567,21.249-1.855c-4.319,8.279-9.875,22.785-10.636,43.535
	c-0.326,8.924-2.869,19.07-16.426,25.683C269.154,101.418,270.833,92.243,269.376,81.57z M252.057,38.561
	c4.065-4.601,8.15-8.166,11.852-10.896c-4.43,11.452-7.973,29.372-4.44,55.257c1.334,9.773-0.591,17.735-5.721,23.664
	c-7.713,8.914-20.978,11.719-28.232,12.6C226.382,85.079,235.514,57.284,252.057,38.561z M160.06,83.252
	c-0.758-20.748-6.314-35.254-10.635-43.534c9.376,0.29,17.127,1.249,21.248,1.856c2.165,9.777,3.174,22.93,0.846,39.996
	c-1.455,10.667,0.22,19.837,4.958,27.351C162.94,102.306,160.386,92.171,160.06,83.252z M187.173,106.615
	c-5.15-5.933-7.082-13.903-5.746-23.693c3.528-25.856-0.004-43.766-4.427-55.219c15.214,11.305,37.028,36.954,38.381,91.495
	C208.151,118.334,194.93,115.552,187.173,106.615z M195.196,30.688c3.743-5.18,12.483-15.534,25.252-20.368
	c12.774,4.837,21.513,15.193,25.251,20.368c-0.214,0.232-17.331,17.71-25.257,49.643C214.49,51.749,195.41,30.921,195.196,30.688z
	 M286.686,430.894H154.21c-2.062,0-3.738-1.677-3.738-3.737c0-2.061,1.677-3.737,3.738-3.737h132.476
	c2.06,0,3.736,1.677,3.736,3.737C290.422,429.217,288.746,430.894,286.686,430.894z M282.74,413.42H158.158l-11.139-96.245h146.857
	L282.74,413.42z M300.308,307.175H140.585c-5.973,0-10.831-4.859-10.831-10.832c0-5.973,4.858-10.832,10.831-10.832h159.723
	c5.973,0,10.832,4.859,10.832,10.832C311.14,302.315,306.281,307.175,300.308,307.175z"/>
<g>
</g>
<g>
</g>
<g>
</g>
<g>
</g>
<g>
</g>
<g>
</g>
<g>
</g>
<g>
</g>
<g>
</g>
<g>
</g>
<g>
</g>
<g>
</g>
<g>
</g>
<g>
</g>
<g>
</g>
</svg>
