<?xml version="1.0" encoding="iso-8859-1"?>
<!-- Generator: Adobe Illustrator 18.0.0, SVG Export Plug-In . SVG Version: 6.00 Build 0)  -->
<!DOCTYPE svg PUBLIC "-//W3C//DTD SVG 1.1//EN" "http://www.w3.org/Graphics/SVG/1.1/DTD/svg11.dtd">
<svg version="1.1" id="Capa_1" xmlns="http://www.w3.org/2000/svg" xmlns:xlink="http://www.w3.org/1999/xlink" x="0px" y="0px"
	 viewBox="0 0 396.227 396.227" style="enable-background:new 0 0 396.227 396.227;" xml:space="preserve">
<g>
	<g>
		<g>
			<g>
				<g>
					<path d="M64.914,244.193c-1.32,0-2.61-0.53-3.54-1.461c-0.93-0.93-1.46-2.219-1.46-3.539c0-1.32,0.53-2.6,1.46-3.53
						s2.22-1.47,3.54-1.47c1.31,0,2.6,0.539,3.53,1.47c0.93,0.931,1.47,2.21,1.47,3.53c0,1.32-0.54,2.609-1.47,3.539
						C67.514,243.663,66.224,244.193,64.914,244.193z"/>
				</g>
				<g>
					<path d="M85.394,244.193c-1.32,0-2.601-0.53-3.53-1.461c-0.94-0.93-1.47-2.219-1.47-3.539c0-1.311,0.529-2.6,1.47-3.53
						c0.92-0.931,2.21-1.47,3.53-1.47c1.319,0,2.609,0.539,3.539,1.47c0.931,0.931,1.461,2.22,1.461,3.53
						c0,1.32-0.53,2.609-1.461,3.539C88.004,243.663,86.714,244.193,85.394,244.193z"/>
				</g>
				<g>
					<path d="M105.884,244.193c-1.319,0-2.609-0.53-3.54-1.461c-0.93-0.93-1.46-2.219-1.46-3.539c0-1.311,0.53-2.6,1.46-3.53
						c0.931-0.931,2.221-1.47,3.54-1.47c1.311,0,2.601,0.539,3.53,1.47c0.93,0.931,1.47,2.22,1.47,3.53
						c0,1.32-0.54,2.609-1.47,3.539C108.484,243.663,107.194,244.193,105.884,244.193z"/>
				</g>
				<g>
					<path d="M64.914,268.732c-1.32,0-2.61-0.529-3.54-1.459c-0.93-0.93-1.46-2.221-1.46-3.541c0-1.309,0.53-2.6,1.46-3.529
						c0.93-0.93,2.22-1.46,3.54-1.46c1.31,0,2.6,0.53,3.53,1.46c0.93,0.93,1.47,2.221,1.47,3.529c0,1.32-0.54,2.611-1.47,3.541
						C67.514,268.203,66.224,268.732,64.914,268.732z"/>
				</g>
				<g>
					<path d="M85.394,268.732c-1.32,0-2.601-0.529-3.53-1.459c-0.94-0.93-1.47-2.221-1.47-3.53c0-1.319,0.529-2.61,1.47-3.54
						c0.93-0.93,2.21-1.471,3.53-1.471c1.319,0,2.609,0.541,3.539,1.471c0.931,0.93,1.461,2.221,1.461,3.54
						c0,1.31-0.53,2.601-1.461,3.53C88.004,268.203,86.714,268.732,85.394,268.732z"/>
				</g>
				<g>
					<path d="M105.884,268.732c-1.319,0-2.609-0.529-3.54-1.459c-0.93-0.93-1.46-2.221-1.46-3.541c0-1.309,0.53-2.6,1.46-3.529
						c0.931-0.93,2.221-1.471,3.54-1.471c1.311,0,2.601,0.541,3.53,1.471c0.93,0.93,1.47,2.221,1.47,3.529
						c0,1.32-0.54,2.611-1.47,3.541C108.484,268.203,107.194,268.732,105.884,268.732z"/>
				</g>
				<g>
					<path d="M126.364,244.193c-1.32,0-2.61-0.53-3.54-1.461c-0.93-0.93-1.46-2.219-1.46-3.539c0-1.32,0.53-2.6,1.46-3.53
						c0.93-0.931,2.22-1.47,3.54-1.47c1.319,0,2.6,0.539,3.53,1.47c0.939,0.92,1.47,2.21,1.47,3.53c0,1.32-0.53,2.609-1.47,3.539
						C128.974,243.663,127.683,244.193,126.364,244.193z"/>
				</g>
				<g>
					<path d="M126.364,268.743c-1.32,0-2.601-0.54-3.54-1.47c-0.93-0.93-1.46-2.221-1.46-3.541c0-1.309,0.53-2.6,1.46-3.529
						c0.93-0.93,2.22-1.471,3.54-1.471c1.319,0,2.609,0.541,3.53,1.471c0.939,0.93,1.47,2.221,1.47,3.529
						c0,1.32-0.53,2.611-1.47,3.541C128.964,268.203,127.674,268.743,126.364,268.743z"/>
				</g>
				<g>
					<g>
						<path d="M64.914,293.283c-1.32,0-2.61-0.54-3.54-1.471c-0.93-0.93-1.46-2.219-1.46-3.529c0-1.32,0.53-2.609,1.46-3.54
							c0.93-0.931,2.22-1.46,3.54-1.46c1.31,0,2.6,0.529,3.53,1.46c0.93,0.931,1.47,2.22,1.47,3.54c0,1.311-0.54,2.6-1.47,3.529
							C67.514,292.743,66.224,293.283,64.914,293.283z"/>
					</g>
					<g>
						<path d="M85.394,293.283c-1.311,0-2.601-0.54-3.53-1.471c-0.94-0.93-1.47-2.219-1.47-3.529c0-1.32,0.529-2.609,1.47-3.54
							c0.93-0.931,2.21-1.46,3.53-1.46c1.319,0,2.609,0.529,3.539,1.46c0.931,0.931,1.461,2.22,1.461,3.54
							c0,1.311-0.53,2.6-1.461,3.529C88.004,292.743,86.714,293.283,85.394,293.283z"/>
					</g>
					<g>
						<path d="M105.884,293.283c-1.319,0-2.609-0.54-3.54-1.471c-0.93-0.93-1.46-2.219-1.46-3.529c0-1.32,0.53-2.609,1.46-3.54
							c0.931-0.931,2.221-1.46,3.54-1.46c1.311,0,2.601,0.529,3.53,1.46c0.93,0.931,1.47,2.22,1.47,3.54
							c0,1.311-0.54,2.6-1.47,3.529C108.484,292.743,107.194,293.283,105.884,293.283z"/>
					</g>
					<g>
						<path d="M126.364,293.283c-1.32,0-2.61-0.54-3.54-1.471c-0.93-0.93-1.46-2.219-1.46-3.529c0-1.32,0.53-2.609,1.46-3.54
							c0.93-0.931,2.22-1.46,3.54-1.46c1.319,0,2.6,0.529,3.53,1.46c0.939,0.931,1.47,2.22,1.47,3.54c0,1.311-0.53,2.6-1.47,3.529
							C128.974,292.743,127.683,293.283,126.364,293.283z"/>
					</g>
				</g>
			</g>
			<path d="M213.399,241.439c4.441-4.441,6.888-10.346,6.888-16.627c0-6.281-2.446-12.186-6.888-16.627
				c-9.169-9.166-24.087-9.168-33.254,0l-15.344,15.343v-89.526c0-11.602-9.439-21.041-21.043-21.041
				c-4.051,0-7.825,1.171-11.039,3.163v-10.325c0-11.601-9.438-21.041-21.041-21.041c-9.135,0-16.905,5.861-19.808,14.011
				c-3.46-2.498-7.692-3.987-12.276-3.987c-11.602,0-21.041,9.438-21.041,21.04v17.07c-3.215-1.993-6.989-3.164-11.041-3.164
				c-11.6,0-21.039,9.439-21.039,21.041v184.951l-6.96,54.877c-0.181,1.424,0.26,2.857,1.209,3.935
				c0.949,1.077,2.315,1.694,3.751,1.694h142.328c1.436,0,2.802-0.617,3.751-1.694c0.949-1.077,1.39-2.511,1.209-3.935l-6.96-54.877
				v-45.683L213.399,241.439z M100.638,105.799c0-6.088,4.953-11.041,11.041-11.041c6.088,0,11.041,4.953,11.041,11.041v98.42
				h-22.082V105.799z M68.554,115.822c0-6.088,4.953-11.04,11.041-11.04c6.089,0,11.043,4.952,11.043,11.04v88.396H68.554V115.822z
				 M36.474,150.77c0-6.088,4.952-11.041,11.039-11.041c6.088,0,11.041,4.953,11.041,11.041v53.449h-6.039c-2.762,0-5,2.238-5,5
				c0,2.761,2.238,5,5,5h86.246c2.762,0,5-2.239,5-5c0-2.762-2.238-5-5-5h-6.041v-70.217c0-6.088,4.952-11.041,11.039-11.041
				c6.089,0,11.043,4.953,11.043,11.041v101.597c0,2.761,2.238,5,5,5c1.381,0,2.631-0.56,3.535-1.464l0,0l23.879-23.879
				c5.27-5.268,13.844-5.268,19.113,0.002c2.553,2.552,3.958,5.945,3.958,9.555s-1.405,7.004-3.958,9.556l-50.059,50.061
				c-0.907,0.905-1.468,2.156-1.468,3.538v43.07H36.474V150.77z M35.879,341.037h119.518l3.342,26.348H32.537L35.879,341.037z
				 M30.147,386.227l1.121-8.842h128.738l1.121,8.842H30.147z"/>
		</g>
	</g>
	<g>
		<g>
			<g>
				<g>
					<path d="M331.312,159.436c1.32,0,2.611-0.53,3.541-1.461c0.93-0.93,1.459-2.219,1.459-3.539c0-1.32-0.529-2.6-1.459-3.53
						c-0.93-0.931-2.221-1.47-3.541-1.47c-1.309,0-2.6,0.539-3.529,1.47c-0.93,0.931-1.471,2.21-1.471,3.53
						c0,1.32,0.541,2.609,1.471,3.539C328.713,158.905,330.004,159.436,331.312,159.436z"/>
				</g>
				<g>
					<path d="M310.832,159.436c1.32,0,2.602-0.53,3.531-1.461c0.939-0.93,1.469-2.219,1.469-3.539c0-1.311-0.529-2.6-1.469-3.53
						c-0.92-0.931-2.211-1.47-3.531-1.47c-1.318,0-2.609,0.539-3.539,1.47c-0.93,0.931-1.461,2.22-1.461,3.53
						c0,1.32,0.531,2.609,1.461,3.539C308.223,158.905,309.514,159.436,310.832,159.436z"/>
				</g>
				<g>
					<path d="M290.344,159.436c1.318,0,2.609-0.53,3.539-1.461c0.93-0.93,1.461-2.219,1.461-3.539c0-1.311-0.531-2.6-1.461-3.53
						c-0.93-0.931-2.221-1.47-3.539-1.47c-1.311,0-2.602,0.539-3.531,1.47c-0.93,0.931-1.469,2.22-1.469,3.53
						c0,1.32,0.539,2.609,1.469,3.539C287.742,158.905,289.033,159.436,290.344,159.436z"/>
				</g>
				<g>
					<path d="M331.312,183.975c1.32,0,2.611-0.529,3.541-1.459c0.93-0.93,1.459-2.221,1.459-3.541c0-1.309-0.529-2.6-1.459-3.529
						c-0.93-0.93-2.221-1.46-3.541-1.46c-1.309,0-2.6,0.53-3.529,1.46c-0.93,0.93-1.471,2.221-1.471,3.529
						c0,1.32,0.541,2.611,1.471,3.541C328.713,183.445,330.004,183.975,331.312,183.975z"/>
				</g>
				<g>
					<path d="M310.832,183.975c1.32,0,2.602-0.529,3.531-1.459c0.939-0.93,1.469-2.221,1.469-3.53c0-1.319-0.529-2.61-1.469-3.54
						c-0.93-0.93-2.211-1.471-3.531-1.471c-1.318,0-2.609,0.541-3.539,1.471c-0.93,0.93-1.461,2.221-1.461,3.54
						c0,1.31,0.531,2.601,1.461,3.53C308.223,183.445,309.514,183.975,310.832,183.975z"/>
				</g>
				<g>
					<path d="M290.344,183.975c1.318,0,2.609-0.529,3.539-1.459c0.93-0.93,1.461-2.221,1.461-3.541c0-1.309-0.531-2.6-1.461-3.529
						c-0.93-0.93-2.221-1.471-3.539-1.471c-1.311,0-2.602,0.541-3.531,1.471c-0.93,0.93-1.469,2.221-1.469,3.529
						c0,1.32,0.539,2.611,1.469,3.541C287.742,183.445,289.033,183.975,290.344,183.975z"/>
				</g>
				<g>
					<path d="M269.863,159.436c1.32,0,2.609-0.53,3.539-1.461c0.93-0.93,1.461-2.219,1.461-3.539c0-1.32-0.531-2.6-1.461-3.53
						c-0.93-0.931-2.219-1.47-3.539-1.47c-1.32,0-2.6,0.539-3.531,1.47c-0.939,0.92-1.469,2.21-1.469,3.53
						c0,1.32,0.529,2.609,1.469,3.539C267.254,158.905,268.543,159.436,269.863,159.436z"/>
				</g>
				<g>
					<path d="M269.863,183.985c1.32,0,2.6-0.54,3.539-1.47c0.93-0.93,1.461-2.221,1.461-3.541c0-1.309-0.531-2.6-1.461-3.529
						s-2.219-1.471-3.539-1.471c-1.32,0-2.609,0.541-3.531,1.471c-0.939,0.93-1.469,2.221-1.469,3.529
						c0,1.32,0.529,2.611,1.469,3.541C267.264,183.445,268.553,183.985,269.863,183.985z"/>
				</g>
				<g>
					<g>
						<path d="M331.312,208.525c1.32,0,2.611-0.54,3.541-1.471c0.93-0.93,1.459-2.219,1.459-3.529c0-1.32-0.529-2.609-1.459-3.54
							c-0.93-0.931-2.221-1.46-3.541-1.46c-1.309,0-2.6,0.529-3.529,1.46c-0.93,0.931-1.471,2.22-1.471,3.54
							c0,1.311,0.541,2.6,1.471,3.529C328.713,207.985,330.004,208.525,331.312,208.525z"/>
					</g>
					<g>
						<path d="M310.832,208.525c1.311,0,2.602-0.54,3.531-1.471c0.939-0.93,1.469-2.219,1.469-3.529c0-1.32-0.529-2.609-1.469-3.54
							c-0.93-0.931-2.211-1.46-3.531-1.46c-1.318,0-2.609,0.529-3.539,1.46c-0.93,0.931-1.461,2.22-1.461,3.54
							c0,1.311,0.531,2.6,1.461,3.529C308.223,207.985,309.514,208.525,310.832,208.525z"/>
					</g>
					<g>
						<path d="M290.344,208.525c1.318,0,2.609-0.54,3.539-1.471c0.93-0.93,1.461-2.219,1.461-3.529c0-1.32-0.531-2.609-1.461-3.54
							c-0.93-0.931-2.221-1.46-3.539-1.46c-1.311,0-2.602,0.529-3.531,1.46c-0.93,0.931-1.469,2.22-1.469,3.54
							c0,1.311,0.539,2.6,1.469,3.529C287.742,207.985,289.033,208.525,290.344,208.525z"/>
					</g>
					<g>
						<path d="M269.863,208.525c1.32,0,2.609-0.54,3.539-1.471c0.93-0.93,1.461-2.219,1.461-3.529c0-1.32-0.531-2.609-1.461-3.54
							c-0.93-0.931-2.219-1.46-3.539-1.46c-1.32,0-2.6,0.529-3.531,1.46c-0.939,0.931-1.469,2.22-1.469,3.54
							c0,1.311,0.529,2.6,1.469,3.529C267.254,207.985,268.543,208.525,269.863,208.525z"/>
					</g>
				</g>
			</g>
			<path d="M231.426,205.28v45.683l-6.961,54.877c-0.18,1.424,0.26,2.857,1.209,3.935c0.949,1.077,2.316,1.694,3.752,1.694h142.328
				c1.436,0,2.801-0.617,3.75-1.694c0.949-1.077,1.391-2.511,1.209-3.935l-6.959-54.877V66.012c0-11.602-9.439-21.041-21.039-21.041
				c-4.053,0-7.827,1.171-11.041,3.164v-17.07c0-11.602-9.439-21.04-21.041-21.04c-4.584,0-8.817,1.489-12.277,3.987
				C301.453,5.861,293.683,0,284.549,0c-11.603,0-21.041,9.439-21.041,21.041v10.325c-3.215-1.992-6.988-3.163-11.039-3.163
				c-11.603,0-21.043,9.44-21.043,21.041v89.526l-15.344-15.343c-9.168-9.168-24.086-9.166-33.254,0
				c-4.441,4.441-6.889,10.346-6.889,16.627c0,6.281,2.447,12.186,6.889,16.627L231.426,205.28z M295.59,119.461h-22.082v-98.42
				c0-6.088,4.953-11.041,11.041-11.041c6.088,0,11.041,4.953,11.041,11.041V119.461z M327.674,119.461H305.59V31.065
				c0-6.088,4.953-11.04,11.043-11.04c6.088,0,11.041,4.952,11.041,11.04V119.461z M359.754,246.279H241.426v-43.07
				c0-1.382-0.561-2.633-1.469-3.538l-50.059-50.061c-2.553-2.552-3.959-5.946-3.959-9.556c0-3.609,1.406-7.003,3.959-9.555
				c5.27-5.27,13.844-5.27,19.113-0.002l23.879,23.879l0,0c0.904,0.904,2.154,1.464,3.535,1.464c2.762,0,5-2.239,5-5V49.244
				c0-6.088,4.953-11.041,11.043-11.041c6.086,0,11.039,4.953,11.039,11.041v70.217h-6.041c-2.762,0-5,2.238-5,5
				c0,2.761,2.238,5,5,5h86.246c2.762,0,5-2.239,5-5c0-2.762-2.238-5-5-5h-6.039V66.012c0-6.088,4.953-11.041,11.041-11.041
				c6.086,0,11.039,4.953,11.039,11.041V246.279z M363.689,282.627H237.488l3.342-26.348h119.518L363.689,282.627z M235.1,301.469
				l1.121-8.842h128.737l1.122,8.842H235.1z"/>
		</g>
	</g>
</g>
<g>
</g>
<g>
</g>
<g>
</g>
<g>
</g>
<g>
</g>
<g>
</g>
<g>
</g>
<g>
</g>
<g>
</g>
<g>
</g>
<g>
</g>
<g>
</g>
<g>
</g>
<g>
</g>
<g>
</g>
</svg>
