<?xml version="1.0" encoding="iso-8859-1"?>
<!-- Generator: Adobe Illustrator 18.0.0, SVG Export Plug-In . SVG Version: 6.00 Build 0)  -->
<!DOCTYPE svg PUBLIC "-//W3C//DTD SVG 1.1//EN" "http://www.w3.org/Graphics/SVG/1.1/DTD/svg11.dtd">
<svg version="1.1" id="Capa_1" xmlns="http://www.w3.org/2000/svg" xmlns:xlink="http://www.w3.org/1999/xlink" x="0px" y="0px"
	 viewBox="0 0 419.415 419.415" style="enable-background:new 0 0 419.415 419.415;" xml:space="preserve">
<path d="M271.09,0c-8.063,0-14.621,6.559-14.621,14.621V58.34l-32.141,93.975V14.621C224.329,6.559,217.77,0,209.708,0
	c-8.063,0-14.621,6.559-14.621,14.621v137.693l-32.141-93.975V14.621c0-8.062-6.56-14.621-14.621-14.621
	c-8.063,0-14.621,6.559-14.621,14.621v48.428c0,0.555,0.092,1.105,0.273,1.63l49.704,144.148c0.695,2.017,2.594,3.37,4.727,3.37
	h6.908v10.952h-0.023c-2.762,0-5,2.239-5,5v22.523h-6.672c-2.762,0-5,2.239-5,5v132.654c0,17.143,13.945,31.089,31.088,31.089
	c17.142,0,31.088-13.946,31.088-31.089V255.672c0-2.761-2.238-5-5-5h-6.672v-22.523c0-2.761-2.238-5-5-5h-0.025v-10.952h6.91
	c2.133,0,4.031-1.354,4.727-3.37l49.703-144.148c0.181-0.524,0.273-1.075,0.273-1.63V14.621C285.711,6.559,279.153,0,271.09,0z
	 M209.708,409.415c-11.628,0-21.088-9.46-21.088-21.089V277.711h42.176v110.615C230.795,399.955,221.335,409.415,209.708,409.415z
	 M230.795,267.711H188.62v-7.039h42.176V267.711z M200.292,250.672v-17.523h18.832v17.523H200.292z M275.711,62.211l-48.268,139.986
	h-8.346c-2.762,0-5,2.239-5,5v15.952h-8.783v-15.952c0-2.761-2.238-5-5-5h-8.344L143.704,62.211v-47.59
	c0-2.548,2.072-4.621,4.621-4.621c2.548,0,4.621,2.073,4.621,4.621v44.55c0,0.55,0.09,1.097,0.268,1.618l42.142,123.213
	c0.791,2.314,3.141,3.718,5.551,3.314c2.412-0.401,4.18-2.487,4.18-4.932V14.621c0-2.548,2.073-4.621,4.621-4.621
	c2.548,0,4.621,2.073,4.621,4.621v167.763c0,2.445,1.768,4.531,4.18,4.932c2.419,0.401,4.76-1.002,5.551-3.314L266.2,60.789
	c0.179-0.521,0.27-1.068,0.27-1.618v-44.55c0-2.548,2.073-4.621,4.621-4.621c2.548,0,4.621,2.073,4.621,4.621V62.211z"/>
<g>
</g>
<g>
</g>
<g>
</g>
<g>
</g>
<g>
</g>
<g>
</g>
<g>
</g>
<g>
</g>
<g>
</g>
<g>
</g>
<g>
</g>
<g>
</g>
<g>
</g>
<g>
</g>
<g>
</g>
</svg>
