<?xml version="1.0" encoding="iso-8859-1"?>
<!-- Generator: Adobe Illustrator 18.0.0, SVG Export Plug-In . SVG Version: 6.00 Build 0)  -->
<!DOCTYPE svg PUBLIC "-//W3C//DTD SVG 1.1//EN" "http://www.w3.org/Graphics/SVG/1.1/DTD/svg11.dtd">
<svg version="1.1" id="Capa_1" xmlns="http://www.w3.org/2000/svg" xmlns:xlink="http://www.w3.org/1999/xlink" x="0px" y="0px"
	 viewBox="0 0 421.67 421.67" style="enable-background:new 0 0 421.67 421.67;" xml:space="preserve">
<path d="M242.683,0c-9.529,0-17.895,4.564-22.547,11.393h-18.601C196.882,4.564,188.517,0,178.987,0
	c-14.578,0-26.438,10.681-26.438,23.81v46.605c0,2.761,2.238,5,5,5h37.876V406.26c0,8.497,6.912,15.41,15.409,15.41
	s15.41-6.913,15.41-15.41V75.416h37.875c2.762,0,5-2.239,5-5V23.81C269.12,10.681,257.261,0,242.683,0z M205.426,21.393h10.819
	v99.498h-10.819V21.393z M162.55,65.416V23.81c0-7.615,7.374-13.81,16.438-13.81c9.064,0,16.439,6.195,16.439,13.81v41.605H162.55z
	 M210.835,411.67c-2.982,0-5.409-2.427-5.409-5.41V130.891h10.819V406.26C216.245,409.243,213.818,411.67,210.835,411.67z
	 M259.12,65.416h-32.875V23.81c0-7.615,7.374-13.81,16.438-13.81c9.063,0,16.438,6.195,16.438,13.81V65.416z"/>
<g>
</g>
<g>
</g>
<g>
</g>
<g>
</g>
<g>
</g>
<g>
</g>
<g>
</g>
<g>
</g>
<g>
</g>
<g>
</g>
<g>
</g>
<g>
</g>
<g>
</g>
<g>
</g>
<g>
</g>
</svg>
