<?xml version="1.0" encoding="iso-8859-1"?>
<!-- Generator: Adobe Illustrator 18.0.0, SVG Export Plug-In . SVG Version: 6.00 Build 0)  -->
<!DOCTYPE svg PUBLIC "-//W3C//DTD SVG 1.1//EN" "http://www.w3.org/Graphics/SVG/1.1/DTD/svg11.dtd">
<svg version="1.1" id="Capa_1" xmlns="http://www.w3.org/2000/svg" xmlns:xlink="http://www.w3.org/1999/xlink" x="0px" y="0px"
	 viewBox="0 0 431.636 431.636" style="enable-background:new 0 0 431.636 431.636;" xml:space="preserve">
<path d="M273.416,128.663c-9.344-66.755-27.788-109.76-54.822-127.821c-1.631-1.088-3.821-1.157-5.552,0
	c-27.034,18.061-45.479,61.066-54.822,127.821c-6.861,49.02-6.051,93.539-6.042,93.983c0.055,2.722,2.277,4.899,4.999,4.899h35.473
	c3.361,0,6.225,3.891,8.149,7.887c-2.473,0.301-4.396,2.385-4.396,4.939v22.524h-6.672c-2.761,0-5,2.239-5,5v132.654
	c0,17.142,13.946,31.088,31.088,31.088s31.088-13.946,31.088-31.088V267.894c0-2.761-2.239-5-5-5h-6.672v-22.524
	c0-2.555-1.924-4.639-4.398-4.939c1.924-3.997,4.788-7.887,8.15-7.887h35.473c2.722,0,4.944-2.177,4.999-4.899
	C279.467,222.202,280.277,177.683,273.416,128.663z M215.819,421.636c-11.628,0-21.088-9.46-21.088-21.088V289.933h42.176v110.615
	C236.907,412.176,227.447,421.636,215.819,421.636z M236.907,279.933h-42.176v-7.039h42.176V279.933z M206.403,262.894v-17.524
	h18.832v17.524H206.403z M220.022,235.371h-8.408c-1.867-5.254-6.07-14.122-13.846-16.939c0.701-13.146,4.744-37.418,18.049-42.102
	c13.272,4.679,17.332,28.957,18.047,42.104C226.091,221.252,221.888,230.117,220.022,235.371z M243.805,217.545
	c-0.731-12.017-4.422-41.861-22.989-49.989v-66.993c0-2.761-2.239-5-5-5c-2.761,0-5,2.239-5,5v66.988
	c-18.564,8.127-22.254,37.974-22.986,49.994h-25.683c0.032-28,2.797-167.559,53.67-206.389
	c50.872,38.83,53.639,178.388,53.67,206.389H243.805z"/>
<g>
</g>
<g>
</g>
<g>
</g>
<g>
</g>
<g>
</g>
<g>
</g>
<g>
</g>
<g>
</g>
<g>
</g>
<g>
</g>
<g>
</g>
<g>
</g>
<g>
</g>
<g>
</g>
<g>
</g>
</svg>
