<?xml version="1.0" encoding="iso-8859-1"?>
<!-- Generator: Adobe Illustrator 18.0.0, SVG Export Plug-In . SVG Version: 6.00 Build 0)  -->
<!DOCTYPE svg PUBLIC "-//W3C//DTD SVG 1.1//EN" "http://www.w3.org/Graphics/SVG/1.1/DTD/svg11.dtd">
<svg version="1.1" id="Capa_1" xmlns="http://www.w3.org/2000/svg" xmlns:xlink="http://www.w3.org/1999/xlink" x="0px" y="0px"
	 viewBox="0 0 405.797 405.797" style="enable-background:new 0 0 405.797 405.797;" xml:space="preserve">
<path d="M348.868,128.617c-2.469,0-4.8,0.579-6.889,1.583c-2.445-21.519-9.821-43.376-21.388-62.899
	c-14.145-23.873-33.729-42.649-55.389-53.232C264.137,6.14,257.345,0,249.129,0H156.67c-8.217,0-15.01,6.14-16.076,14.069
	c-21.66,10.583-41.245,29.36-55.39,53.234C73.638,86.825,66.262,108.682,63.817,130.2c-2.089-1.004-4.42-1.583-6.889-1.583
	c-8.812,0-15.98,7.17-15.98,15.982v7.254c0,8.812,7.169,15.981,15.98,15.981c3.679,0,7.062-1.262,9.766-3.359l41.349,198.617
	l4.81,38.328c0.313,2.5,2.44,4.377,4.961,4.377h170.172c2.521,0,4.648-1.877,4.961-4.377l4.808-38.329l41.349-198.616
	c2.704,2.097,6.087,3.359,9.766,3.359c8.812,0,15.98-7.169,15.98-15.981v-7.254C364.849,135.787,357.68,128.617,348.868,128.617z
	 M156.67,10h92.459c3.438,0,6.236,2.799,6.236,6.239c0,3.44-2.798,6.238-6.236,6.238H156.67c-3.44,0-6.238-2.798-6.238-6.238
	C150.432,12.799,153.23,10,156.67,10z M142.574,24.269c2.8,4.895,8.063,8.209,14.096,8.209h92.459
	c6.031,0,11.294-3.313,14.094-8.208c38.699,20.278,67.653,68.679,69.561,116.515H73.014
	C74.921,92.948,103.875,44.545,142.574,24.269z M323.072,192.407H82.725l-8.665-41.623h257.678L323.072,192.407z M316.392,224.496
	H89.404l-4.598-22.089H320.99L316.392,224.496z M288.743,357.31H117.054L91.486,234.496H314.31L288.743,357.31z M62.911,151.852
	c0,3.298-2.684,5.981-5.982,5.981c-3.298,0-5.98-2.683-5.98-5.981v-7.254c0-3.298,2.683-5.982,5.98-5.982
	c3.299,0,5.982,2.683,5.982,5.982V151.852z M122.226,395.797l-3.575-28.487h168.497l-3.574,28.487H122.226z M354.849,151.852
	c0,3.298-2.683,5.981-5.98,5.981c-3.299,0-5.982-2.683-5.982-5.981v-7.254c0-3.298,2.684-5.982,5.982-5.982
	c3.298,0,5.98,2.683,5.98,5.982V151.852z"/>
<g>
</g>
<g>
</g>
<g>
</g>
<g>
</g>
<g>
</g>
<g>
</g>
<g>
</g>
<g>
</g>
<g>
</g>
<g>
</g>
<g>
</g>
<g>
</g>
<g>
</g>
<g>
</g>
<g>
</g>
</svg>
