<?xml version="1.0" encoding="iso-8859-1"?>
<!-- Generator: Adobe Illustrator 18.0.0, SVG Export Plug-In . SVG Version: 6.00 Build 0)  -->
<!DOCTYPE svg PUBLIC "-//W3C//DTD SVG 1.1//EN" "http://www.w3.org/Graphics/SVG/1.1/DTD/svg11.dtd">
<svg version="1.1" id="Capa_1" xmlns="http://www.w3.org/2000/svg" xmlns:xlink="http://www.w3.org/1999/xlink" x="0px" y="0px"
	 viewBox="0 0 442.611 442.611" style="enable-background:new 0 0 442.611 442.611;" xml:space="preserve">
<g>
	<g>
		<g>
			<g>
				<path d="M255.876,353.723h-25.197c-2.761,0-5-2.238-5-5c0-2.762,2.239-5,5-5h25.197c2.761,0,5,2.238,5,5
					C260.876,351.484,258.637,353.723,255.876,353.723z"/>
			</g>
			<g>
				<path d="M279.593,382.861h-79.27c-2.761,0-5-2.238-5-5s2.239-5,5-5h79.27c2.761,0,5,2.238,5,5S282.354,382.861,279.593,382.861z
					"/>
			</g>
			<g>
				<path d="M235.654,406.65h-52.995c-2.761,0-5-2.238-5-5c0-2.762,2.239-5,5-5h52.995c2.761,0,5,2.238,5,5
					C240.654,404.412,238.415,406.65,235.654,406.65z"/>
			</g>
		</g>
		<path d="M396.534,331.93c-18.963-30.241-44.396-36.921-59.041-38.049c6.702-5.446,16.095-9.652,20.289-11.178
			c1.991-0.721,3.311-2.618,3.297-4.735c-0.015-2.117-1.361-3.996-3.361-4.689c-12.162-4.219-23.397-6.603-33.546-7.749
			l-97.87-195.814l-0.014-24.594c0-1.65-0.814-3.193-2.175-4.125c-1.36-0.932-3.094-1.133-4.632-0.537
			c-1.806,0.7-3.718,1.055-5.684,1.055c-8.688,0-15.757-7.068-15.757-15.756c0-8.688,7.068-15.758,15.757-15.758
			c4.613,0,8.982,2.015,11.986,5.528c1.795,2.1,4.951,2.346,7.05,0.551c2.099-1.794,2.345-4.95,0.551-7.049
			C228.479,3.291,221.34,0,213.799,0c-14.202,0-25.757,11.555-25.757,25.758c0,14.202,11.555,25.756,25.757,25.756
			c0.836,0,1.667-0.04,2.49-0.118v18.347l-97.856,195.787c-10.149,1.146-21.385,3.529-33.547,7.749
			c-2,0.693-3.347,2.572-3.361,4.689c-0.014,2.117,1.307,4.015,3.297,4.735c4.196,1.52,13.596,5.72,20.3,11.177
			c-14.644,1.126-40.085,7.803-59.052,38.05c-1.164,1.857-0.967,4.241,0.446,5.917c2.065,2.449,5.141,1.605,5.784,1.324
			c0.172-0.074,16.225-6.938,35.907-6.881c2.954,61.265,61.518,110.321,133.094,110.321c71.576,0,130.14-49.057,133.094-110.321
			c19.603-0.054,35.734,6.82,35.908,6.881c2.189,0.765,4.813-0.194,5.784-1.324C397.518,336.185,397.698,333.786,396.534,331.93z
			 M226.303,92.082l21.485,42.986h-21.485V92.082z M226.303,145.068h26.483l59.798,119.643c-16.408-0.451-29.187,2.246-37.4,4.788
			c3.991-8.504,9.801-14.963,9.876-15.046c1.329-1.455,1.679-3.555,0.894-5.362c-0.784-1.807-2.557-2.985-4.527-3.009
			c-0.542-0.006-1.075-0.009-1.609-0.009c-27.789,0-44.407,8.668-53.515,16.027V145.068z M216.303,92.082v42.986h-21.485
			L216.303,92.082z M189.82,145.068h26.483v117.038c-9.287-7.498-26.379-16.356-55.124-16.024c-1.968,0.023-3.737,1.201-4.522,3.006
			c-0.786,1.805-0.438,3.904,0.885,5.36c0.079,0.087,5.889,6.547,9.88,15.05c-8.214-2.542-20.992-5.239-37.4-4.787L189.82,145.068z
			 M63.641,325.185c22.913-25.139,50.298-21.404,51.591-21.212c1.843,0.292,3.697-0.473,4.804-1.978
			c1.106-1.505,1.282-3.501,0.455-5.176c-3.813-7.72-12.441-13.791-19.851-17.843c43.874-11.136,72.24,3.285,72.536,3.441
			c1.701,0.901,3.768,0.75,5.316-0.395c1.549-1.144,2.303-3.075,1.939-4.966c-1.526-7.936-5.424-15.297-8.93-20.664
			c29.921,2.271,41.948,15.925,44.801,19.827v46.215H93.194C81.432,322.505,71.58,323.328,63.641,325.185z M332.421,372.861h-30.279
			c-2.761,0-5,2.238-5,5s2.239,5,5,5h23.844c-21.767,29.844-60.55,49.75-104.683,49.75c-30.96,0-59.274-9.81-80.94-25.961h20.391
			c2.761,0,5-2.238,5-5c0-2.762-2.239-5-5-5h-32.119c-12.49-12.17-21.769-26.798-26.648-42.928h105.469c2.761,0,5-2.238,5-5
			c0-2.762-2.239-5-5-5H99.565c-0.677-3.703-1.135-7.468-1.346-11.287h246.166C343.592,346.855,339.373,360.521,332.421,372.861z
			 M349.411,322.435H226.303V276.22c2.855-3.906,14.882-17.559,44.801-19.826c-3.507,5.367-7.404,12.729-8.931,20.664
			c-0.363,1.891,0.391,3.822,1.94,4.966c1.549,1.145,3.616,1.297,5.316,0.395c0.304-0.163,28.451-14.681,72.543-3.444
			c-7.411,4.051-16.044,10.124-19.858,17.846c-0.827,1.675-0.651,3.671,0.455,5.176c1.107,1.505,2.966,2.271,4.804,1.978
			c0.322-0.051,28.369-4.074,51.553,21.203C370.993,323.322,361.268,322.511,349.411,322.435z"/>
	</g>
</g>
<g>
</g>
<g>
</g>
<g>
</g>
<g>
</g>
<g>
</g>
<g>
</g>
<g>
</g>
<g>
</g>
<g>
</g>
<g>
</g>
<g>
</g>
<g>
</g>
<g>
</g>
<g>
</g>
<g>
</g>
</svg>
