<?xml version="1.0" encoding="iso-8859-1"?>
<!-- Generator: Adobe Illustrator 18.0.0, SVG Export Plug-In . SVG Version: 6.00 Build 0)  -->
<!DOCTYPE svg PUBLIC "-//W3C//DTD SVG 1.1//EN" "http://www.w3.org/Graphics/SVG/1.1/DTD/svg11.dtd">
<svg version="1.1" id="Capa_1" xmlns="http://www.w3.org/2000/svg" xmlns:xlink="http://www.w3.org/1999/xlink" x="0px" y="0px"
	 viewBox="0 0 422.999 422.999" style="enable-background:new 0 0 422.999 422.999;" xml:space="preserve">
<g>
	<g>
		<g>
			<g>
				<g>
					<path d="M146.433,239.936c-2.372,0-4.477-1.694-4.914-4.11l-13.769-76.009c-0.264-1.459,0.133-2.959,1.082-4.097
						c0.95-1.138,2.355-1.795,3.838-1.795h18.778c2.761,0,5,2.239,5,5c0,2.761-2.239,5-5,5h-12.791l12.701,70.118
						c0.492,2.717-1.312,5.318-4.028,5.811C147.029,239.908,146.729,239.936,146.433,239.936z"/>
				</g>
			</g>
			<g>
				<g>
					<path d="M276.567,239.936c-0.296,0-0.596-0.027-0.897-0.082c-2.717-0.492-4.521-3.094-4.028-5.811l12.7-70.118h-12.791
						c-2.762,0-5-2.239-5-5c0-2.761,2.238-5,5-5h18.778c1.482,0,2.888,0.657,3.838,1.795c0.95,1.138,1.347,2.638,1.082,4.097
						l-13.768,76.009C281.044,238.241,278.938,239.936,276.567,239.936z"/>
				</g>
			</g>
		</g>
		<path d="M367.673,134.349L260.946,60.709c-1.066-15.454-12.078-28.214-26.669-31.903v-6.029C234.277,10.218,224.058,0,211.499,0
			c-12.559,0-22.776,10.218-22.776,22.777v6.029c-14.589,3.688-25.601,16.445-26.669,31.898L55.327,134.349
			c-1.802,1.243-2.585,3.513-1.935,5.603c0.651,2.09,2.586,3.513,4.774,3.513h40.989l35.585,188.866
			c0.445,2.363,2.509,4.074,4.913,4.074h24.32v3.954c0,14.765,10.417,27.136,24.286,30.168v47.473c0,2.761,2.238,5,5,5h36.479
			c2.762,0,5-2.239,5-5v-47.472c13.869-3.031,24.286-15.403,24.286-30.169v-3.954h24.322c2.404,0,4.469-1.711,4.914-4.074
			l35.581-188.866h40.99c2.189,0,4.123-1.423,4.773-3.513C370.258,137.861,369.473,135.592,367.673,134.349z M198.722,22.777
			c0-7.045,5.731-12.777,12.776-12.777c7.046,0,12.778,5.732,12.778,12.777v4.949h-25.555V22.777z M197.407,37.727h28.184
			c12.32,0,22.624,8.801,24.954,20.445h-78.092C174.784,46.527,185.087,37.727,197.407,37.727z M109.333,143.464H206.5v162.084
			h-66.63L109.333,143.464z M198.261,412.999v-41.755h26.479v41.755H198.261z M249.025,340.358c0,11.517-9.368,20.886-20.884,20.886
			h-33.279c-11.518,0-20.888-9.369-20.888-20.886v-3.954h75.051V340.358z M279.202,326.404H143.8l-2.045-10.856h139.492
			L279.202,326.404z M283.132,305.548H216.5V143.464h97.167L283.132,305.548z M74.217,133.464l94.622-65.292h85.314l94.629,65.292
			H74.217z"/>
	</g>
</g>
<g>
</g>
<g>
</g>
<g>
</g>
<g>
</g>
<g>
</g>
<g>
</g>
<g>
</g>
<g>
</g>
<g>
</g>
<g>
</g>
<g>
</g>
<g>
</g>
<g>
</g>
<g>
</g>
<g>
</g>
</svg>
