<?xml version="1.0" encoding="iso-8859-1"?>
<!-- Generator: Adobe Illustrator 18.0.0, SVG Export Plug-In . SVG Version: 6.00 Build 0)  -->
<!DOCTYPE svg PUBLIC "-//W3C//DTD SVG 1.1//EN" "http://www.w3.org/Graphics/SVG/1.1/DTD/svg11.dtd">
<svg version="1.1" id="Capa_1" xmlns="http://www.w3.org/2000/svg" xmlns:xlink="http://www.w3.org/1999/xlink" x="0px" y="0px"
	 viewBox="0 0 438.127 438.127" style="enable-background:new 0 0 438.127 438.127;" xml:space="preserve">
<path d="M403.947,4.951c-0.683-1.411-1.948-2.335-3.365-2.667l0.005-0.022c-34.099-7.979-71.627,6.657-97.108,20.342
	c-31.273,16.795-62.124,42.043-82.526,67.539c-15.211,19.011-23.85,42.443-24.328,65.979c-0.444,21.898,6.15,42.117,18.634,57.436
	c-0.082,0.11-0.163,0.216-0.245,0.326c-13.938,18.886-24.954,39.373-32.844,61.026c-4.325-5.533-8.996-10.761-13.74-15.621
	c15.229-23.632,12.374-57.502-7.482-82.317c-14.273-17.838-35.849-35.499-57.715-47.241c-17.908-9.617-44.316-19.896-68.432-14.254
	l0.005,0.021c-1.417,0.332-2.684,1.256-3.366,2.668c-10.796,22.292-6.56,50.313-1.104,69.893
	c6.66,23.909,19.158,48.834,33.433,66.674c15.127,18.907,36.336,29.189,57.27,29.188c7.918,0,15.789-1.503,23.284-4.537
	c21.381,61.971,30.325,152.994,30.441,154.218c0.245,2.565,2.4,4.524,4.977,4.524h40.713c0.004,0,0.008,0.001,0.012,0.001
	c1.061,0,2.902-0.808,3.584-1.509c1.109-1.138,1.658-2.785,1.327-4.462c-0.09-0.456-8.986-46.287-6.215-102.516
	c1.425-28.924,6.234-64.337,18.898-97.884c12.676,5.743,25.935,8.653,39.279,8.653c7.686,0,15.401-0.963,23.046-2.9
	c21.989-5.573,41.775-18.721,57.22-38.021c20.401-25.499,38.27-61.138,47.796-95.333C413.161,76.295,419.21,36.468,403.947,4.951z
	 M390.254,10.616L348.284,63.07l-8.712-45.432C357.367,11.584,374.765,8.817,390.254,10.616z M330.067,21.163l10.004,52.171
	l-41.857,52.312l-15.132-78.921C298.135,36.37,314.152,27.554,330.067,21.163z M274.132,53.15l15.868,82.761l-18.012,22.51
	c-2.843,1.815-13.021,8.622-26.026,20.737L230.19,94.631C242.241,79.92,257.417,65.651,274.132,53.15z M222.098,105.781
	l15.263,81.795c-5.083,5.22-10.409,11.141-15.771,17.796C201.517,178.844,201.902,137.955,222.098,105.781z M161.106,252.117
	c-3.65-3.425-7.264-6.606-10.721-9.513l9.318-49.578C170.395,212.308,171.064,235.121,161.106,252.117z M151.7,181.475
	l-10.149,53.998c-8.192-6.35-14.497-10.53-16.614-11.899l-11.541-14.424l10.498-54.205
	C134.408,163.03,143.958,172.117,151.7,181.475z M97.385,205.148l-51.321-1.533c-4.256-10.762-7.5-21.844-9.388-32.59l34.277,1.087
	L97.385,205.148z M114.958,148.487l-9.764,50.413L78.76,165.863l6.461-33.689C95.292,136.374,105.391,141.972,114.958,148.487z
	 M75.718,128.631l-5.171,26.966l-25.261-31.57C54.723,123.417,65.099,125.156,75.718,128.631z M37.495,130.294l25.246,31.553
	l-27.433-0.87C34.25,149.861,34.831,139.363,37.495,130.294z M50.404,213.749l55.183,1.647c0,0,12.349,15.404,12.508,15.556
	c0.007,0.007,0.012,0.015,0.019,0.021c4.63,4.373,8.935,10.385,12.937,17.584l-60.874-1.872
	C62.749,237.081,55.981,225.776,50.404,213.749z M79.549,256.98l56.608,1.74c1.636,3.582,3.217,7.35,4.738,11.283
	C120.813,278.273,97.269,273.099,79.549,256.98z M168.967,332.174c-6.464-29.803-15.133-60.458-26.407-83.021
	c11.635,9.649,25.343,22.634,35.74,37.298C173.76,301.216,170.651,316.489,168.967,332.174z M224.367,240.263
	c-8.473,26.314-13.585,56.219-15.195,88.886c-2.273,46.139,2.984,84.622,5.338,98.978h-30.255c-0.795-7.478-2.6-23.197-5.6-42.878
	c-7.15-77.04,20.029-132.277,44.152-165.085c7.278-9.897,14.724-18.411,21.693-25.554
	C244.08,195.329,229.36,224.757,224.367,240.263z M241.805,222.442c2.599-6.076,5.483-12.06,8.666-17.907l91.813-2.815
	C314.383,230.288,276.342,238.286,241.805,222.442z M351.212,191.44l-94.782,2.907c6.399-10.199,13.835-19.849,22.496-28.634
	c0.016-0.016,18.886-23.559,18.886-23.559l84.221-2.667C373.506,158.53,362.918,176.46,351.212,191.44z M386.339,129.345
	l-80.313,2.544L347.88,79.58l53.093-1.685C398.229,94.825,393.14,112.386,386.339,129.345z M402.329,67.849l-46.234,1.467
	l41.969-52.451C403.215,31.581,404.332,49.161,402.329,67.849z"/>
<g>
</g>
<g>
</g>
<g>
</g>
<g>
</g>
<g>
</g>
<g>
</g>
<g>
</g>
<g>
</g>
<g>
</g>
<g>
</g>
<g>
</g>
<g>
</g>
<g>
</g>
<g>
</g>
<g>
</g>
</svg>
