<?xml version="1.0" encoding="iso-8859-1"?>
<!-- Generator: Adobe Illustrator 18.0.0, SVG Export Plug-In . SVG Version: 6.00 Build 0)  -->
<!DOCTYPE svg PUBLIC "-//W3C//DTD SVG 1.1//EN" "http://www.w3.org/Graphics/SVG/1.1/DTD/svg11.dtd">
<svg version="1.1" id="Capa_1" xmlns="http://www.w3.org/2000/svg" xmlns:xlink="http://www.w3.org/1999/xlink" x="0px" y="0px"
	 viewBox="0 0 432.725 432.725" style="enable-background:new 0 0 432.725 432.725;" xml:space="preserve">
<path d="M352.209,134.508V5.002c0-2.005-1.198-3.816-3.043-4.602c-1.847-0.781-3.981-0.391-5.426,1l-60.142,57.92L223.457,1.398
	C222.526,0.501,221.282,0,219.988,0H85.516c-2.039,0-3.874,1.238-4.637,3.13c-0.764,1.892-0.301,4.057,1.168,5.472l59.87,57.66
	l-59.87,57.66c-0.979,0.942-1.531,2.243-1.531,3.602v129.506c0,2.005,1.2,3.813,3.043,4.602c2.476,1.061,4.475-0.085,5.426-1
	l60.141-57.92l60.143,57.92c0.592,0.57,1.317,0.959,2.094,1.183v165.911c0,2.762,2.238,5,5,5s5-2.238,5-5V262.029h125.848
	c2.039,0,3.874-1.238,4.637-3.13c0.763-1.892,0.301-4.057-1.168-5.472l-59.871-57.66l59.871-57.658
	C351.656,137.167,352.209,135.866,352.209,134.508z M276.39,66.262l-41.394,39.865c-0.008-0.006-0.017-0.011-0.024-0.017
	c7.715-20.336,12.605-47.8,2.309-77.515L276.39,66.262z M194.608,131.014c0-5.513,2.239-10.702,6.307-14.616
	c4.115-3.964,9.602-6.147,15.447-6.147c11.995,0,21.754,9.314,21.754,20.764c0,5.511-2.238,10.702-6.304,14.618
	c-4.115,3.965-9.601,6.147-15.446,6.147h-0.004C204.366,151.779,194.608,142.464,194.608,131.014z M97.915,10h119.324
	c21.799,34.748,17.402,68.221,8.712,91.688c-3.027-0.932-6.248-1.438-9.59-1.438c-6.792,0-13.261,2.058-18.648,5.861L97.915,10z
	 M149.125,73.203l41.196,39.676c-21.009-7.39-49.374-12.078-80.068-2.238L149.125,73.203z M90.516,245.273v-114.89
	c36.169-21.024,71.02-16.805,95.481-8.42c-0.915,2.895-1.39,5.936-1.39,9.051c0,6.676,2.213,12.856,5.956,17.904L90.516,245.273z
	 M156.333,195.77l41.396-39.866c0.007,0.005,0.015,0.01,0.022,0.016c-7.714,20.338-12.604,47.806-2.303,77.518L156.333,195.77z
	 M334.81,252.029H215.485c-21.796-34.742-17.406-68.221-8.718-91.688c3.028,0.933,6.25,1.438,9.593,1.438c0,0,0.004,0,0.005,0h0.001
	c6.791,0,13.258-2.058,18.646-5.861L334.81,252.029z M283.599,188.825l-41.192-39.671c12.489,4.393,27.568,7.835,44.205,7.835
	c11.35,0,23.422-1.62,35.874-5.612L283.599,188.825z M342.209,131.648c-36.169,21.021-71.024,16.807-95.485,8.424
	c0.916-2.896,1.392-5.941,1.392-9.059c0-6.675-2.213-12.854-5.954-17.901l100.048-96.354V131.648z"/>
<g>
</g>
<g>
</g>
<g>
</g>
<g>
</g>
<g>
</g>
<g>
</g>
<g>
</g>
<g>
</g>
<g>
</g>
<g>
</g>
<g>
</g>
<g>
</g>
<g>
</g>
<g>
</g>
<g>
</g>
</svg>
