<?xml version="1.0" encoding="iso-8859-1"?>
<!-- Generator: Adobe Illustrator 18.0.0, SVG Export Plug-In . SVG Version: 6.00 Build 0)  -->
<!DOCTYPE svg PUBLIC "-//W3C//DTD SVG 1.1//EN" "http://www.w3.org/Graphics/SVG/1.1/DTD/svg11.dtd">
<svg version="1.1" id="Capa_1" xmlns="http://www.w3.org/2000/svg" xmlns:xlink="http://www.w3.org/1999/xlink" x="0px" y="0px"
	 viewBox="0 0 425.303 425.303" style="enable-background:new 0 0 425.303 425.303;" xml:space="preserve">
<g>
	<g>
		<path d="M192.253,169.951c-0.579,0-1.165-0.028-1.744-0.082c-4.901-0.461-9.329-2.804-12.468-6.595
			c-3.139-3.791-4.614-8.579-4.152-13.479c0.896-9.522,8.776-16.703,18.331-16.703c0.579,0,1.165,0.028,1.743,0.082
			c4.901,0.461,9.329,2.803,12.469,6.594c3.14,3.792,4.615,8.579,4.154,13.48C209.688,162.77,201.807,169.951,192.253,169.951z
			 M183.845,150.731c-0.258,2.237,0.463,4.431,1.899,6.165c1.436,1.734,3.461,2.806,5.703,3.017c4.703,0.448,8.747-2.98,9.182-7.602
			c0.211-2.241-0.463-4.431-1.899-6.165c-1.436-1.734-3.467-2.753-5.704-3.017C190.924,142.882,184.674,143.535,183.845,150.731z"/>
	</g>
	<path d="M376.792,393.866c-8.657-87.771-47.74-153.947-79.002-194.007c-32.966-42.243-63.604-64.57-66.457-66.607
		c-2.74-2.285-5.354-4.311-7.861-6.134c-0.932-11.848-4.513-69.618,9.212-120.823c0.493-1.84-0.102-3.8-1.535-5.055
		c-1.432-1.255-3.453-1.587-5.213-0.857c-0.751,0.312-18.604,7.861-35.836,26.631c-14.913,16.245-31.933,44.144-31.45,86.423
		c-3.594-2.259-6.815-5.199-9.693-8.858c-22.312-28.364-14.555-88.026-14.475-88.625c0.179-1.321-0.178-2.66-0.989-3.717
		c-3.55-4.62-7.571-6.904-11.907-6.796c-6.269,0.16-9.961,3.902-11.123,7.317c-22.729,66.806,16.073,139.956,16.744,141.391
		c-10.604,5.787-13.7,20.591-13.003,28.783c-1.713,34.117-13.727,96.89-61.059,202.616c-1.083,2.421-12.245,25.516,4.354,36.169
		c0.816,0.524,1.754,0.747,2.696,0.747c0.884,0,1.786-0.219,2.648-0.659c7.049-3.596,35.564-46.75,56.35-82.932
		c15.989-27.832,34.517-63.332,44.887-94.294c1.531,0.388,3.37,0.815,5.49,1.235l-1.679,6.409c-0.7,2.671,0.899,5.404,3.57,6.104
		c0.425,0.111,0.851,0.164,1.27,0.164c2.218,0,4.245-1.488,4.833-3.734l1.942-7.416c3.082,0.339,6.42,0.58,9.941,0.657l0.23,7.938
		c0.079,2.711,2.301,4.855,4.995,4.855c0.049,0,0.099,0,0.148-0.002c2.76-0.08,4.933-2.383,4.853-5.143l-0.23-7.905
		c2.918-0.218,5.908-0.571,8.941-1.092l1.841,7.966c0.534,2.312,2.592,3.875,4.867,3.875c0.373,0,0.752-0.042,1.13-0.129
		c2.691-0.622,4.368-3.307,3.746-5.997l-1.841-7.968c3.469-1.023,6.948-2.303,10.396-3.879l4.119,6.822
		c0.939,1.556,2.591,2.417,4.285,2.417c0.88,0,1.771-0.233,2.58-0.721c2.364-1.427,3.123-4.501,1.696-6.865l-3.874-6.416
		c2.374-1.501,4.709-3.188,6.997-5.043c30.511,32.825,49.87,66.169,61.369,90.451c12.68,26.776,18.302,47.529,20.008,54.583
		c-5.039,5.429-7.88,12.585-7.88,20.063c0,16.263,13.23,29.494,29.493,29.494c16.263,0,29.493-13.231,29.493-29.494
		C376.814,395.809,376.859,394.541,376.792,393.866z M197.171,34.1c8.311-9.125,16.886-15.419,23.155-19.338
		c-9.465,42.721-8.453,86.368-7.354,105.542c-19.568-8.297-32.176-7.509-40.18-1.737c-1.391-0.21-2.736-0.49-4.048-0.827
		C167.337,84.494,176.891,56.368,197.171,34.1z M111.571,332.064c-22.5,39.378-44.378,70.896-51.682,79.138
		c-4.82-4.972,1.334-19.22,2.385-21.568c48.127-107.503,60.246-171.668,61.937-206.564c0.01-0.208-0.473-15.263,7.361-19.933
		c12.84,25.418,26.009,43.311,30.157,48.713C158.742,238.005,141.007,280.547,111.571,332.064z M134.233,145.476
		c-14.725-32.898-29.135-81.855-14.527-128.775c0.553-1.055,1.389-1.244,2.136-1.263c0.636-0.041,2.12,0.464,2.458,1.441
		c-1.313,11.81-5.77,65.171,16.787,93.869c6.018,7.656,13.464,12.937,22.208,15.804c-8.893,9.014-8.618,18.475-8.592,18.745
		l3.449,35.994c0.097,1.015,0.502,1.975,1.161,2.753c7.814,9.232,18.479,14.793,28.818,18.144l-19.027,2.826
		C163.874,198.079,147.704,175.573,134.233,145.476z M232.15,227.169l-3.584-5.935c-1.428-2.364-4.502-3.123-6.865-1.696
		c-2.364,1.427-3.123,4.501-1.696,6.865l3.27,5.416c-2.461,1.058-4.943,1.955-7.427,2.701l-1.382-5.983
		c-0.621-2.69-3.308-4.371-5.997-3.746c-2.691,0.622-4.368,3.307-3.746,5.997l1.377,5.962c-2.348,0.382-4.67,0.653-6.948,0.835
		l-0.186-6.384c-0.08-2.761-2.396-4.933-5.143-4.853c-2.76,0.08-4.933,2.383-4.853,5.143l0.185,6.358
		c-2.462-0.061-4.823-0.208-7.051-0.414l1.659-6.334c0.7-2.671-0.899-5.404-3.57-6.104c-2.673-0.702-5.405,0.898-6.104,3.57
		l-1.96,7.483c-1.951-0.363-3.643-0.734-5.063-1.073c2.034-7.118,3.55-13.911,4.384-20.202l49.142-7.299
		c5.919,5.264,11.504,10.605,16.792,15.978C235.673,224.801,233.928,226.049,232.15,227.169z M347.321,415.303
		c-10.748,0-19.493-8.745-19.493-19.494c0-5.622,2.429-10.972,6.665-14.677l-0.009-0.01c1.301-1.14,1.988-2.908,1.626-4.726
		c-0.201-1.008-5.109-25.082-21.219-59.187c-14.83-31.396-42.383-77.489-89.429-118.779c-0.96-0.843-2.197-1.285-3.484-1.239
		c-0.367,0.013-36.091,1.102-54.026-18.465l-3.244-33.857c0.259-1.743,1.908-9.46,11.184-16.308
		c16.345-11.957,49.395,12.663,49.507,12.741c0.312,0.22,31.528,22.447,64.508,64.71c30.448,39.017,68.512,103.451,76.934,188.836
		C366.873,395.18,363.435,415.303,347.321,415.303z"/>
</g>
<g>
</g>
<g>
</g>
<g>
</g>
<g>
</g>
<g>
</g>
<g>
</g>
<g>
</g>
<g>
</g>
<g>
</g>
<g>
</g>
<g>
</g>
<g>
</g>
<g>
</g>
<g>
</g>
<g>
</g>
</svg>
