<?xml version="1.0" encoding="iso-8859-1"?>
<!-- Generator: Adobe Illustrator 18.0.0, SVG Export Plug-In . SVG Version: 6.00 Build 0)  -->
<!DOCTYPE svg PUBLIC "-//W3C//DTD SVG 1.1//EN" "http://www.w3.org/Graphics/SVG/1.1/DTD/svg11.dtd">
<svg version="1.1" id="Capa_1" xmlns="http://www.w3.org/2000/svg" xmlns:xlink="http://www.w3.org/1999/xlink" x="0px" y="0px"
	 viewBox="0 0 436.747 436.747" style="enable-background:new 0 0 436.747 436.747;" xml:space="preserve">
<path d="M298.27,0c-2.762,0-5,2.239-5,5v18.01h-16.633V5c0-2.761-2.238-5-5-5s-5,2.239-5,5v18.01h-16.633V5c0-2.761-2.238-5-5-5
	c-2.762,0-5,2.239-5,5v18.01h-16.632V5c0-2.761-2.238-5-5-5c-2.761,0-5,2.239-5,5v18.01h-16.632V5c0-2.761-2.239-5-5-5
	c-2.761,0-5,2.239-5,5v18.01h-16.633V5c0-2.761-2.239-5-5-5c-2.761,0-5,2.239-5,5v18.01h-16.632V5c0-2.761-2.239-5-5-5
	c-2.761,0-5,2.239-5,5v37.924c0,2.761,2.239,5,5,5h64.487v373.413c0,8.497,6.913,15.409,15.41,15.409
	c8.496,0,15.408-6.913,15.408-15.409V47.924h64.488c2.762,0,5-2.239,5-5V5C303.27,2.239,301.032,0,298.27,0z M218.374,426.747
	c-2.983,0-5.41-2.427-5.41-5.409v-287.26h10.818v287.26C223.782,424.32,221.356,426.747,218.374,426.747z M223.782,124.077h-10.818
	V47.924h10.818V124.077z M293.27,37.924H143.476V33.01H293.27V37.924z"/>
<g>
</g>
<g>
</g>
<g>
</g>
<g>
</g>
<g>
</g>
<g>
</g>
<g>
</g>
<g>
</g>
<g>
</g>
<g>
</g>
<g>
</g>
<g>
</g>
<g>
</g>
<g>
</g>
<g>
</g>
</svg>
