<?xml version="1.0" encoding="iso-8859-1"?>
<!-- Generator: Adobe Illustrator 18.0.0, SVG Export Plug-In . SVG Version: 6.00 Build 0)  -->
<!DOCTYPE svg PUBLIC "-//W3C//DTD SVG 1.1//EN" "http://www.w3.org/Graphics/SVG/1.1/DTD/svg11.dtd">
<svg version="1.1" id="Capa_1" xmlns="http://www.w3.org/2000/svg" xmlns:xlink="http://www.w3.org/1999/xlink" x="0px" y="0px"
	 viewBox="0 0 437.853 437.853" style="enable-background:new 0 0 437.853 437.853;" xml:space="preserve">
<path d="M301.681,0c-2.761,0-5,2.239-5,5v16.539L274.2,81.901c-2.708-1.077-5.657-2.063-8.797-2.959l13.381-55.327
	c0.093-0.385,0.14-0.779,0.14-1.175V5c0-2.761-2.239-5-5-5c-2.761,0-5,2.239-5,5v16.844l-13.24,54.748
	c-3.443-0.697-7.031-1.303-10.751-1.797l6.825-51.7c0.029-0.217,0.043-0.436,0.043-0.654V5c0-2.761-2.239-5-5-5s-5,2.239-5,5v17.111
	l-6.818,51.646c-3.62-0.285-7.311-0.481-11.056-0.571V5c0-2.761-2.239-5-5-5c-2.761,0-5,2.239-5,5v68.187
	c-3.745,0.09-7.437,0.284-11.056,0.57l-6.819-51.645V5c0-2.761-2.239-5-5-5s-5,2.239-5,5v17.44c0,0.219,0.014,0.438,0.043,0.654
	l6.827,51.705c-3.717,0.495-7.31,1.095-10.751,1.792L168.93,21.844V5c0-2.761-2.239-5-5-5c-2.761,0-5,2.239-5,5v17.44
	c0,0.396,0.047,0.79,0.14,1.175l13.383,55.333c-3.142,0.897-6.083,1.888-8.794,2.967l-22.487-60.377V5c0-2.761-2.239-5-5-5
	s-5,2.239-5,5v17.44c0,0.596,0.106,1.187,0.314,1.745l38.422,103.162c0.34,0.724,0.482,1.005,1.027,1.643
	c0.025,0.029,32.581,33.551,32.581,33.551v259.902c0,8.498,6.913,15.41,15.41,15.41s15.41-6.912,15.41-15.41V162.541l32.509-33.461
	c0.621-0.737,0.785-0.981,1.1-1.733l38.421-103.162c0.208-0.559,0.314-1.149,0.314-1.745V5C306.681,2.239,304.442,0,301.681,0z
	 M243.626,84.692c3.365,0.444,6.609,0.979,9.712,1.598l-4.674,19.327c-2.469-0.439-5.05-0.726-7.681-0.907L243.626,84.692z
	 M233.674,83.676l-2.735,20.716c-1.397-0.008-2.783-0.009-4.143-0.009l-2.869,0.004V83.19
	C227.232,83.272,230.485,83.438,233.674,83.676z M213.928,83.19v21.197l-2.871-0.004c-1.359,0-2.744,0.001-4.141,0.009
	l-2.735-20.716C207.37,83.437,210.623,83.271,213.928,83.19z M194.229,84.691l2.643,20.018c-2.63,0.181-5.212,0.468-7.681,0.907
	l-4.674-19.327C187.619,85.671,190.863,85.135,194.229,84.691z M174.797,88.643l4.823,19.941c-1.796,0.897-3.41,1.989-4.795,3.312
	l-7.682-20.626C169.495,90.32,172.053,89.442,174.797,88.643z M218.927,427.853c-2.983,0-5.41-2.427-5.41-5.41V197.771h10.819
	v224.672C224.337,425.426,221.91,427.853,218.927,427.853z M225.751,157.027c-0.907,0.934-1.414,2.183-1.414,3.484v27.259h-10.819
	v-27.259c0-1.301-0.507-2.551-1.414-3.484l-32.387-33.335c1.012-7.254,8.522-9.31,31.341-9.31l7.87,0.013l7.87-0.013
	c22.818,0,30.329,2.057,31.34,9.311L225.751,157.027z M263.028,111.897c-1.384-1.323-2.998-2.414-4.794-3.312l4.823-19.94
	c2.745,0.799,5.302,1.677,7.653,2.628L263.028,111.897z"/>
<g>
</g>
<g>
</g>
<g>
</g>
<g>
</g>
<g>
</g>
<g>
</g>
<g>
</g>
<g>
</g>
<g>
</g>
<g>
</g>
<g>
</g>
<g>
</g>
<g>
</g>
<g>
</g>
<g>
</g>
</svg>
