<?xml version="1.0" encoding="iso-8859-1"?>
<!-- Generator: Adobe Illustrator 18.0.0, SVG Export Plug-In . SVG Version: 6.00 Build 0)  -->
<!DOCTYPE svg PUBLIC "-//W3C//DTD SVG 1.1//EN" "http://www.w3.org/Graphics/SVG/1.1/DTD/svg11.dtd">
<svg version="1.1" id="Capa_1" xmlns="http://www.w3.org/2000/svg" xmlns:xlink="http://www.w3.org/1999/xlink" x="0px" y="0px"
	 viewBox="0 0 441.014 441.014" style="enable-background:new 0 0 441.014 441.014;" xml:space="preserve">
<path d="M257.175,320.493H235.85V72.937c28.562-12.021,26.151-57.869,26.151-57.942C262.001,6.727,255.274,0,247.005,0h-52.997
	c-8.269,0-14.995,6.727-14.995,14.995c0,0.09-2.792,44.963,26.15,57.94v247.558h-21.325c-10.006,0-18.146,8.14-18.146,18.145v97.376
	c0,2.761,2.238,5,5,5c2.762,0,5-2.239,5-5V346.54h21.217v89.474c0,2.761,2.238,5,5,5c2.762,0,5-2.239,5-5V346.54h27.194v89.474
	c0,2.761,2.238,5,5,5c2.762,0,5-2.239,5-5V346.54h21.217v89.474c0,2.761,2.238,5,5,5c2.762,0,5-2.239,5-5v-97.376
	C275.321,328.633,267.181,320.493,257.175,320.493z M189.013,14.995c0-2.754,2.241-4.995,4.995-4.995h52.997
	c2.755,0,4.996,2.241,4.996,4.995s-2.241,4.996-4.996,4.996h-52.997C191.254,19.991,189.013,17.75,189.013,14.995z M194.008,29.991
	h52.997c0.821,0,1.624-0.078,2.407-0.209c-4.844,11.458-15.976,19.497-28.906,19.497c-12.93,0-24.061-8.038-28.905-19.497
	C192.385,29.913,193.187,29.991,194.008,29.991z M196.182,51.215c6.84,5.065,15.242,8.063,24.324,8.063
	c9.107,0,17.532-3.014,24.383-8.104c-3.264,6.016-8.134,11.26-15.417,13.551c-2.147,0.675-3.493,2.668-3.477,4.807v7.053h-10.865
	v-7.053c0-2.133-1.351-4.112-3.494-4.777C204.342,62.491,199.459,57.244,196.182,51.215z M225.85,86.585v153.498h-10.686V86.585
	H225.85z M175.977,336.54c0.93-3.476,4.097-6.047,7.861-6.047h26.324l0,0h0.001c2.762,0,5-2.238,5-5v-75.41h10.686v75.4
	c0,0.003-0.001,0.007-0.001,0.01c0,2.762,2.238,5,5,5h26.326c3.765,0,6.933,2.571,7.861,6.047H175.977z"/>
<g>
</g>
<g>
</g>
<g>
</g>
<g>
</g>
<g>
</g>
<g>
</g>
<g>
</g>
<g>
</g>
<g>
</g>
<g>
</g>
<g>
</g>
<g>
</g>
<g>
</g>
<g>
</g>
<g>
</g>
</svg>
