<?xml version="1.0" encoding="iso-8859-1"?>
<!-- Generator: Adobe Illustrator 18.0.0, SVG Export Plug-In . SVG Version: 6.00 Build 0)  -->
<!DOCTYPE svg PUBLIC "-//W3C//DTD SVG 1.1//EN" "http://www.w3.org/Graphics/SVG/1.1/DTD/svg11.dtd">
<svg version="1.1" id="Capa_1" xmlns="http://www.w3.org/2000/svg" xmlns:xlink="http://www.w3.org/1999/xlink" x="0px" y="0px"
	 viewBox="0 0 437.245 437.245" style="enable-background:new 0 0 437.245 437.245;" xml:space="preserve">
<g>
	<g>
		<path d="M222.924,170.948c-7.798,0-14.142-6.344-14.142-14.142c0-7.798,6.344-14.142,14.142-14.142
			c7.798,0,14.143,6.344,14.143,14.142C237.067,164.604,230.722,170.948,222.924,170.948z M222.924,152.665
			c-2.284,0-4.142,1.858-4.142,4.142c0,2.284,1.857,4.142,4.142,4.142s4.143-1.858,4.143-4.142
			C227.067,154.523,225.208,152.665,222.924,152.665z"/>
	</g>
	<g>
		<path d="M129.662,407.072c-2.247,0-4.473-0.309-6.615-0.919c-8.492-2.417-15.058-9.216-18.487-19.146
			c-3.212-9.301-3.284-20.38-0.205-31.197c5.675-19.947,20.389-33.879,35.781-33.879c2.247,0,4.473,0.309,6.616,0.919
			c8.491,2.416,15.056,9.215,18.484,19.146c3.212,9.301,3.285,20.381,0.207,31.198C159.768,393.141,145.054,407.072,129.662,407.072
			z M140.135,331.931c-10.599,0-21.847,11.442-26.163,26.616c-2.524,8.866-2.51,17.814,0.04,25.196
			c2.332,6.753,6.512,11.296,11.771,12.792c1.253,0.356,2.558,0.537,3.879,0.537c10.599,0,21.847-11.442,26.163-26.616
			c2.523-8.866,2.509-17.814-0.041-25.197c-2.332-6.753-6.512-11.296-11.769-12.792
			C142.762,332.111,141.456,331.931,140.135,331.931z"/>
	</g>
	<g>
		<g>
			<path d="M307.753,407.072c0,0-0.001,0-0.002,0c-15.392-0.001-30.105-13.933-35.781-33.879
				c-3.077-10.816-3.004-21.896,0.208-31.197c3.429-9.931,9.993-16.73,18.484-19.146c2.143-0.61,4.369-0.919,6.616-0.919
				c15.393,0,30.106,13.932,35.782,33.879c3.078,10.816,3.005,21.896-0.207,31.197c-3.429,9.931-9.995,16.73-18.487,19.146
				C312.225,406.763,310,407.072,307.753,407.072z M297.279,331.931c-1.321,0-2.627,0.181-3.88,0.537
				c-5.257,1.496-9.436,6.039-11.768,12.792c-2.55,7.383-2.565,16.331-0.041,25.196c4.316,15.173,15.565,26.616,26.163,26.616h0.001
				c1.32,0,2.624-0.181,3.876-0.537c5.26-1.497,9.44-6.04,11.772-12.792c2.55-7.382,2.565-16.331,0.041-25.196
				C319.125,343.373,307.877,331.931,297.279,331.931z"/>
		</g>
		<path d="M353.744,349.554c-12.905-47.228-52.278-57.322-52.278-57.322c-8.273-3.41-10.694-18.768-10.922-24.616
			c-1.727-57.715-23.815-97.642-34.123-113.244c22.936-41.173,21.771-79.811,16.624-105.204c-5.7-28.12-17.122-46.118-17.606-46.871
			c-1.062-1.654-2.997-2.535-4.939-2.243c-1.944,0.288-3.54,1.688-4.077,3.579l-24.911,87.628L196.599,3.634
			c-0.534-1.877-2.11-3.272-4.038-3.573c-1.934-0.301-3.855,0.547-4.936,2.172c-0.491,0.739-12.105,18.427-17.989,46.239
			c-5.173,24.448-6.594,61.407,14.506,101.343c-7.857,10.826-35.338,53.151-37.27,117.77c-0.203,5.59-2.74,22.129-11.411,25.117
			c-22.631,4.84-43.406,27.764-51.792,57.224c-11.178,39.293,2.706,77.798,30.951,85.835c3.522,1.003,7.099,1.484,10.692,1.484
			c44.395,0,61.145-59.371,61.306-59.977c14.798-5.946,10.925-28.345,7.171-50.053c-1.645-9.506-3.345-19.336-3.762-28.221
			c-2.99-63.859,19.978-96.321,28.68-106.231c8.701,9.911,31.669,42.372,28.679,106.231c-0.417,8.885-2.117,18.715-3.762,28.221
			c-3.764,21.761-7.643,44.213,7.283,50.093c0.126,0.468,14.633,59.566,61.193,59.566c3.592,0,7.172-0.481,10.692-1.483
			C351.039,427.353,364.512,388.962,353.744,349.554z M252.621,18.402c3.478,7.588,7.81,18.874,10.623,32.754
			c6.661,32.856,2.146,64.567-13.403,94.373c-3.951-4.542-16.187-18.873-20.606-27.103l-2.524-8.878L252.621,18.402z
			 M194.252,31.948l24.425,85.913l-10.225,5.724C194.954,90.168,193.335,55.031,194.252,31.948z M181.389,368.441l0.002,0.021
			c-1.818,0.4-3.347,1.787-3.802,3.72c-0.329,1.395-0.693,2.794-1.081,4.16c-9.673,33.989-36.203,56.332-59.151,49.802
			c-22.941-6.528-33.205-39.344-24.069-73.48c10.828-40.46,45.565-50.561,45.567-50.562c16.496-5.81,17.905-31.248,18.013-34.185
			c0.489-16.38,2.75-31.301,5.923-44.582l25.556,4.88c-5.74,17.808-9.712,41.259-8.307,71.248c0.445,9.508,2.199,19.65,3.896,29.458
			C187.861,351.611,189.804,366.622,181.389,368.441z M191.785,218.69l-26.446-5.05c7.67-26.635,18.586-45.451,24.471-54.366
			c3.958,5.654,12.705,17.618,21.704,26.455C206.754,190.976,198.627,201.592,191.785,218.69z M222.091,181.91
			c-19.591-19.058-27.62-33.99-27.622-33.993c-17.063-30.722-22.155-63.33-15.133-96.979c1.324-6.346,2.984-12.144,4.736-17.299
			c-0.857,25.26,1.57,63.025,17.383,99.062c1.61,3.67,5.567,3.134,7.013,2.335l14.275-7.991
			c6.836,10.628,19.444,24.942,20.779,26.449c1.079,1.366,17.955,23.175,28.579,60.14l-26.463,5.053
			C239.881,204.075,237.067,196.478,222.091,181.91z M320.057,425.772c-22.941,6.528-49.478-15.812-59.15-49.802
			c-0.387-1.36-0.751-2.76-1.082-4.163l-0.107,0.025c-0.523-1.655-1.875-2.999-3.693-3.392c-8.415-1.818-6.472-16.829-2.547-39.522
			c1.697-9.808,3.451-19.95,3.897-29.458c1.405-29.99-2.569-53.438-8.31-71.248l25.582-4.884
			c3.163,13.278,5.411,28.216,5.901,44.619c0.106,2.93,1.529,28.785,18.424,34.307c0.517,0.169,33.749,10.635,45.153,50.036
			C353.951,386.236,342.999,419.244,320.057,425.772z"/>
	</g>
</g>
<g>
</g>
<g>
</g>
<g>
</g>
<g>
</g>
<g>
</g>
<g>
</g>
<g>
</g>
<g>
</g>
<g>
</g>
<g>
</g>
<g>
</g>
<g>
</g>
<g>
</g>
<g>
</g>
<g>
</g>
</svg>
