<?xml version="1.0" encoding="iso-8859-1"?>
<!-- Generator: Adobe Illustrator 18.0.0, SVG Export Plug-In . SVG Version: 6.00 Build 0)  -->
<!DOCTYPE svg PUBLIC "-//W3C//DTD SVG 1.1//EN" "http://www.w3.org/Graphics/SVG/1.1/DTD/svg11.dtd">
<svg version="1.1" id="Capa_1" xmlns="http://www.w3.org/2000/svg" xmlns:xlink="http://www.w3.org/1999/xlink" x="0px" y="0px"
	 viewBox="0 0 407.681 407.681" style="enable-background:new 0 0 407.681 407.681;" xml:space="preserve">
<g>
	<g>
		<g>
			<g>
				<path d="M203.84,198.963c-10.389,0-18.841-8.452-18.841-18.841c0-10.39,8.452-18.842,18.841-18.842
					c10.391,0,18.842,8.452,18.842,18.842C222.682,190.511,214.231,198.963,203.84,198.963z M203.84,171.28
					c-4.875,0-8.842,3.967-8.842,8.842s3.967,8.841,8.842,8.841c4.876,0,8.842-3.966,8.842-8.841S208.716,171.28,203.84,171.28z"/>
			</g>
			<path d="M203.84,93.098c-61.063,0-110.743,49.679-110.743,110.743c0,61.064,49.68,110.742,110.743,110.742
				c61.065,0,110.745-49.679,110.745-110.742C314.585,142.776,264.905,93.098,203.84,93.098z M203.836,227.491
				c-6.83,0-12.389-5.557-12.389-12.389v-4.873c0-1.789-0.955-3.441-2.506-4.334c-0.771-0.443-1.633-0.666-2.493-0.666
				c-0.868,0-1.735,0.226-2.512,0.677l-4.199,2.439c-1.875,1.083-4.011,1.655-6.178,1.655c-4.419,0-8.539-2.375-10.744-6.186
				c-3.407-5.926-1.373-13.523,4.532-16.934l4.211-2.429c1.547-0.894,2.501-2.544,2.501-4.331c0-1.788-0.954-3.439-2.503-4.332
				l-4.207-2.426c-5.908-3.412-7.943-11.01-4.54-16.926c2.211-3.826,6.329-6.203,10.749-6.203c2.156,0,4.293,0.575,6.18,1.664
				l4.211,2.43c1.547,0.893,3.453,0.893,5-0.001c1.547-0.894,2.498-2.544,2.498-4.329v-4.857c0-6.831,5.559-12.389,12.389-12.389
				c6.832,0,12.389,5.558,12.389,12.389v4.857c0,1.785,0.953,3.437,2.5,4.33c1.547,0.893,3.453,0.893,5,0l4.205-2.428
				c1.893-1.09,4.035-1.666,6.195-1.666c4.42,0,8.533,2.374,10.736,6.203c3.416,5.914,1.381,13.508-4.533,16.924l-4.211,2.428
				c-1.549,0.893-2.504,2.544-2.504,4.332c0,1.787,0.953,3.438,2.502,4.331l4.209,2.428c5.916,3.417,7.951,11.011,4.539,16.921
				c-2.215,3.824-6.332,6.199-10.75,6.199c-2.156,0-4.289-0.578-6.184-1.68l-4.209-2.424c-1.549-0.892-3.453-0.891-4.998,0.004
				c-1.545,0.893-2.498,2.543-2.498,4.328v4.873C216.225,221.934,210.669,227.491,203.836,227.491z M208.841,304.458V291.88
				l16.193-16.194c4.609,2.544,10.07,2.235,10.598,2.196c5.381-0.401,10.561-2.84,14.59-6.866
				c7.996-7.998,17.268-24.884,12.838-37.383c-0.523-1.477-1.68-2.535-3.051-3.022l0.008-0.021
				c-12.498-4.43-29.383,4.843-37.383,12.841c-4.027,4.027-6.465,9.209-6.865,14.588c-0.287,3.845,0.5,7.466,2.205,10.587
				l-9.133,9.133v-40.834c8.875-2.037,15.762-9.343,17.135-18.45c2.588,1.018,5.35,1.547,8.139,1.547
				c7.973,0,15.408-4.287,19.406-11.193c5.6-9.699,3.092-21.895-5.408-28.685c8.504-6.79,11.012-18.987,5.412-28.679
				c-3.977-6.914-11.41-11.209-19.398-11.209c-2.789,0-5.557,0.527-8.152,1.543c-1.627-10.754-10.934-19.025-22.137-19.025
				c-11.201,0-20.508,8.27-22.136,19.025c-2.591-1.016-5.354-1.543-8.142-1.543c-7.979,0-15.416,4.292-19.412,11.209
				c-5.582,9.703-3.072,21.894,5.416,28.678c-8.484,6.781-10.995,18.973-5.409,28.691c3.994,6.901,11.431,11.188,19.406,11.188
				c2.79,0,5.552-0.525,8.141-1.537c1.377,9.105,8.265,16.408,17.14,18.442v40.833l-9.142-9.143
				c4.14-7.649,2.493-18.021-4.651-25.166c-7.998-7.998-24.885-17.27-37.383-12.841l0.008,0.022
				c-1.371,0.487-2.528,1.544-3.053,3.022c-4.426,12.5,4.846,29.385,12.843,37.382c4.572,4.572,10.472,6.902,16.132,6.902
				c3.184,0,6.287-0.752,9.041-2.243l16.205,16.206v12.577c-53.236-2.614-95.743-46.745-95.743-100.617
				c0-55.551,45.194-100.743,100.743-100.743c55.551,0,100.745,45.192,100.745,100.743
				C304.585,257.713,262.077,301.844,208.841,304.458z M225.741,258.761c0.223-2.992,1.631-5.926,3.963-8.258
				c6.211-6.21,17.182-11.6,24.436-10.992c0.609,7.257-4.781,18.224-10.99,24.434c-2.334,2.334-7.16,4.731-10.291,3.916l9.82-9.82
				c1.953-1.952,1.953-5.118,0-7.07c-1.951-1.953-5.119-1.953-7.07,0l-9.82,9.82C225.708,260.137,225.688,259.459,225.741,258.761z
				 M165,258.04l9.824,9.824c-3.387,0.43-7.293-0.921-10.291-3.92c-6.209-6.209-11.6-17.177-10.991-24.433
				c7.256-0.608,18.224,4.781,24.433,10.99c3,3,4.351,6.905,3.921,10.292l-9.823-9.824c-1.953-1.952-5.117-1.952-7.072,0
				C163.048,252.922,163.048,256.088,165,258.04z"/>
		</g>
		<path d="M350.102,85.716c-1.244-17.572-6.307-47.542-7.959-50.307V5c0-2.761-2.238-5-5-5c-9.676,0-14.721,2.924-19.172,5.503
			c-4.006,2.322-7.17,4.155-14.16,4.155c-6.988,0-10.152-1.834-14.158-4.155C285.202,2.924,280.157,0,270.479,0
			c-9.674,0-14.717,2.923-19.166,5.503c-4.006,2.322-7.17,4.156-14.16,4.156c-6.986,0-10.148-1.834-14.154-4.155
			C218.55,2.924,213.505,0,203.828,0c-9.676,0-14.721,2.924-19.17,5.503c-4.004,2.322-7.168,4.155-14.154,4.155
			c-6.986,0-10.15-1.834-14.154-4.155C151.899,2.924,146.856,0,137.179,0c-9.675,0-14.719,2.924-19.169,5.504
			c-4.004,2.321-7.166,4.155-14.151,4.155c-6.985,0-10.148-1.834-14.152-4.155C85.256,2.924,80.213,0,70.539,0c-2.762,0-5,2.239-5,5
			v30.409c-3.046,5.542-6.677,35.588-7.96,50.307c-1.765,20.242-4.726,62.506-4.726,118.125s2.258,97.956,4.726,118.124
			c2.669,21.815,3.497,35.566,7.96,50.307v30.409c0,2.762,2.238,5,5,5c9.676,0,14.721-2.924,19.172-5.504
			c4.006-2.321,7.17-4.154,14.158-4.154c6.989,0,10.153,1.834,14.159,4.154c4.451,2.58,9.496,5.504,19.173,5.504
			c9.676,0,14.721-2.924,19.17-5.504c4.006-2.321,7.169-4.154,14.156-4.154c6.987,0,10.15,1.833,14.156,4.154
			c4.449,2.58,9.494,5.504,19.17,5.504c9.674,0,14.719-2.924,19.168-5.504c4.006-2.32,7.168-4.154,14.156-4.154
			c6.986,0,10.15,1.833,14.154,4.154c4.451,2.58,9.494,5.504,19.17,5.504s14.719-2.924,19.168-5.504
			c4.004-2.321,7.168-4.154,14.152-4.154c6.986,0,10.148,1.833,14.152,4.154c4.451,2.58,9.494,5.504,19.168,5.504
			c2.762,0,5-2.238,5-5v-30.408c3.555-6.542,6.676-35.588,7.959-50.308c1.766-20.241,4.725-62.503,4.725-118.124
			S351.538,105.984,350.102,85.716z M75.539,10.389c3.791,0.658,6.25,2.084,9.151,3.766c4.45,2.58,9.493,5.504,19.168,5.504
			s14.718-2.924,19.167-5.503C127.03,11.833,130.194,10,137.179,10c6.987,0,10.151,1.833,14.155,4.155
			c4.451,2.579,9.494,5.503,19.17,5.503s14.719-2.924,19.17-5.503c4.004-2.322,7.168-4.155,14.154-4.155
			c6.987,0,10.151,1.833,14.155,4.155c4.451,2.579,9.494,5.503,19.17,5.503c9.678,0,14.723-2.924,19.174-5.504
			c4.006-2.321,7.168-4.154,14.152-4.154c6.99,0,10.154,1.833,14.16,4.155c4.451,2.579,9.496,5.503,19.172,5.503
			c9.678,0,14.723-2.924,19.174-5.503c2.902-1.682,5.363-3.108,9.158-3.767v22.013H75.539V10.389z M73.44,42.401h260.803
			c0.57,1.984,1.23,5.254,1.936,9.694H71.504C72.209,47.656,72.869,44.385,73.44,42.401z M332.143,397.292
			c-3.791-0.658-6.25-2.084-9.152-3.766c-4.449-2.58-9.492-5.504-19.168-5.504c-9.674,0-14.717,2.924-19.168,5.504
			c-4.004,2.32-7.166,4.154-14.152,4.154s-10.148-1.834-14.154-4.155c-4.449-2.579-9.494-5.503-19.17-5.503
			s-14.721,2.924-19.172,5.504c-4.004,2.32-7.166,4.154-14.153,4.154c-6.988,0-10.15-1.834-14.156-4.155
			c-4.449-2.579-9.494-5.503-19.17-5.503c-9.676,0-14.721,2.924-19.17,5.503c-4.006,2.321-7.169,4.155-14.156,4.155
			c-6.988,0-10.152-1.834-14.158-4.155c-4.451-2.579-9.496-5.503-19.174-5.503c-9.676,0-14.721,2.924-19.172,5.503
			c-2.903,1.683-5.364,3.108-9.158,3.767v-22.013h256.604V397.292z M73.438,365.279c-0.57-1.986-1.229-5.257-1.934-9.694h264.674
			c-0.703,4.438-1.363,7.708-1.934,9.694H73.438z M337.585,345.585H70.098c-3.432-27.193-7.244-77.839-7.244-141.744
			c0-63.912,3.813-114.557,7.245-141.746h267.484c3.432,27.188,7.244,77.833,7.244,141.746
			C344.827,267.747,341.016,318.393,337.585,345.585z"/>
	</g>
</g>
<g>
</g>
<g>
</g>
<g>
</g>
<g>
</g>
<g>
</g>
<g>
</g>
<g>
</g>
<g>
</g>
<g>
</g>
<g>
</g>
<g>
</g>
<g>
</g>
<g>
</g>
<g>
</g>
<g>
</g>
</svg>
