<?xml version="1.0" encoding="iso-8859-1"?>
<!-- Generator: Adobe Illustrator 18.0.0, SVG Export Plug-In . SVG Version: 6.00 Build 0)  -->
<!DOCTYPE svg PUBLIC "-//W3C//DTD SVG 1.1//EN" "http://www.w3.org/Graphics/SVG/1.1/DTD/svg11.dtd">
<svg version="1.1" id="Capa_1" xmlns="http://www.w3.org/2000/svg" xmlns:xlink="http://www.w3.org/1999/xlink" x="0px" y="0px"
	 viewBox="0 0 413.281 413.281" style="enable-background:new 0 0 413.281 413.281;" xml:space="preserve">
<g>
	<g>
		<g>
			<path d="M147.641,313.42c-1.32,0-2.61-0.54-3.54-1.47c-0.931-0.93-1.46-2.21-1.46-3.53c0-1.319,0.529-2.61,1.46-3.54
				c0.93-0.93,2.22-1.46,3.54-1.46c1.311,0,2.6,0.53,3.529,1.46c0.931,0.93,1.471,2.221,1.471,3.54c0,1.31-0.54,2.601-1.471,3.53
				C150.241,312.88,148.952,313.42,147.641,313.42z"/>
		</g>
		<path d="M376.583,97.491c-1.611-5.539-5.283-10.119-10.339-12.896c0,0-149.645-82.168-149.89-82.255
			C213.323,0.807,209.954,0,206.563,0c-3.604,0-7.184,0.921-10.356,2.663L47.037,84.595c-5.056,2.777-8.727,7.357-10.339,12.896
			c-1.611,5.539-0.969,11.374,1.808,16.429c3.795,6.91,11.054,11.203,18.943,11.203c3.611,0,7.201-0.923,10.382-2.67l14.877-8.171
			v294c0,2.762,2.238,5,5,5h237.865c2.762,0,5-2.238,5-5v-294l14.877,8.171c3.181,1.747,6.771,2.67,10.382,2.67c0.001,0,0,0,0.001,0
			c7.889,0,15.147-4.293,18.941-11.202C377.552,108.865,378.194,103.03,376.583,97.491z M124.878,403.281h-32.17v-29.467h32.17
			V403.281z M124.878,363.814h-32.17v-50.396h32.17V363.814z M124.878,303.418h-32.17v-50.395h32.17V303.418z M124.878,243.023
			h-32.17v-50.395h32.17V243.023z M227.407,175.093v228.187h-41.533V175.093H227.407z M175.874,403.281h-40.996V175.093h40.996
			V403.281z M278.403,403.281h-40.996V175.093h40.996V403.281z M320.573,403.281h-32.17v-29.467h32.17V403.281z M320.573,363.814
			h-32.17v-50.396h32.17V363.814z M320.573,303.418h-32.17v-50.395h32.17V303.418z M320.573,243.023h-32.17v-50.395h32.17V243.023z
			 M320.573,182.628h-32.17v-12.534c0-2.761-2.238-5-5-5H129.878c-2.762,0-5,2.239-5,5v12.534h-32.17v-50.395h227.865V182.628z
			 M320.573,122.232H92.708v-13.444l67.275-36.951h93.314l67.275,36.951V122.232z M178.19,61.837l28.45-15.626l28.45,15.626H178.19z
			 M366.01,109.106c-2.038,3.711-5.938,6.017-10.178,6.016c-1.933,0-3.858-0.496-5.567-1.435L209.048,36.125
			c-0.75-0.412-1.578-0.618-2.407-0.618c-0.829,0-1.657,0.206-2.407,0.618L63.016,113.688c-1.734,0.952-3.607,1.435-5.567,1.435
			c-4.24,0-8.14-2.305-10.179-6.017c-1.49-2.715-1.836-5.848-0.971-8.822c0.865-2.975,2.837-5.434,5.552-6.925L201.02,11.428
			c1.727-0.948,3.59-1.428,5.543-1.428c1.969,0,3.926,0.506,5.659,1.465c0.214,0.118,149.207,81.895,149.207,81.895
			c2.715,1.491,4.686,3.95,5.552,6.925C367.846,103.258,367.501,106.391,366.01,109.106z"/>
	</g>
</g>
<g>
</g>
<g>
</g>
<g>
</g>
<g>
</g>
<g>
</g>
<g>
</g>
<g>
</g>
<g>
</g>
<g>
</g>
<g>
</g>
<g>
</g>
<g>
</g>
<g>
</g>
<g>
</g>
<g>
</g>
</svg>
