<?xml version="1.0" encoding="iso-8859-1"?>
<!-- Generator: Adobe Illustrator 18.0.0, SVG Export Plug-In . SVG Version: 6.00 Build 0)  -->
<!DOCTYPE svg PUBLIC "-//W3C//DTD SVG 1.1//EN" "http://www.w3.org/Graphics/SVG/1.1/DTD/svg11.dtd">
<svg version="1.1" id="Capa_1" xmlns="http://www.w3.org/2000/svg" xmlns:xlink="http://www.w3.org/1999/xlink" x="0px" y="0px"
	 viewBox="0 0 440.971 440.971" style="enable-background:new 0 0 440.971 440.971;" xml:space="preserve">
<g>
	<path d="M242.82,335.771c-2.384-1.395-5.446-0.593-6.84,1.79l-15.495,26.481l-15.494-26.481c-1.394-2.383-4.457-3.186-6.84-1.79
		c-2.384,1.395-3.185,4.457-1.79,6.84l19.81,33.857c0.928,1.587,2.596,2.472,4.31,2.476l0,0.001c0.002,0,0.003-0.001,0.005-0.001
		c0.001,0,0.003,0.001,0.005,0.001l0-0.001c1.714-0.004,3.382-0.889,4.31-2.476l19.811-33.856
		C246.005,340.228,245.204,337.165,242.82,335.771z"/>
	<path d="M274.338,321.972c-0.131-2.663-2.328-4.755-4.994-4.755h-33.515V72.986c24.6-10.614,26.15-57.953,26.15-57.991
		C261.979,6.727,255.252,0,246.984,0h-52.997c-8.269,0-14.996,6.727-14.996,14.995c0,0.105,1.556,47.381,26.15,57.99v244.232
		h-33.514c-2.666,0-4.863,2.092-4.994,4.755c-0.151,3.076-3.365,75.685,25.38,105.874c7.453,7.828,18.184,13.125,28.473,13.125
		c10.289,0,21.019-5.297,28.472-13.124C277.702,397.658,274.489,325.048,274.338,321.972z M215.111,86.585h10.853l-0.087,153.497
		h-10.745L215.111,86.585z M188.991,14.995c0-2.754,2.241-4.995,4.996-4.995h52.997c2.754,0,4.995,2.241,4.995,4.995
		s-2.241,4.996-4.995,4.996h-52.997C191.233,19.991,188.991,17.75,188.991,14.995z M191.578,29.779
		c0.786,0.128,1.587,0.212,2.409,0.212h52.997c0.821,0,1.622-0.084,2.408-0.212c-4.844,11.461-15.975,19.5-28.907,19.5
		C207.553,49.278,196.422,41.239,191.578,29.779z M196.175,51.226c6.837,5.059,15.235,8.053,24.31,8.053
		c9.076,0,17.474-2.995,24.312-8.054c-3.264,5.999-8.113,11.225-15.348,13.5c-2.147,0.675-3.492,2.668-3.476,4.807l-0.004,7.053
		H215.11l-0.001-7.053c0.001-2.133-1.351-4.112-3.495-4.778C204.328,62.493,199.452,57.25,196.175,51.226z M241.71,420.957
		c-6.011,6.311-12.97,9.594-21.224,10.009c-8.253-0.415-15.213-3.698-21.225-10.009c-21.884-22.974-22.956-77.342-22.757-93.74
		h33.638c2.761,0,5-2.239,5-5c0-0.003-0.001-0.006-0.001-0.01l-0.009-72.125h10.738l-0.041,72.135h0.001c0,2.761,2.239,5,5,5h33.637
		C264.666,343.615,263.594,397.984,241.71,420.957z"/>
</g>
<g>
</g>
<g>
</g>
<g>
</g>
<g>
</g>
<g>
</g>
<g>
</g>
<g>
</g>
<g>
</g>
<g>
</g>
<g>
</g>
<g>
</g>
<g>
</g>
<g>
</g>
<g>
</g>
<g>
</g>
</svg>
