<?xml version="1.0" encoding="iso-8859-1"?>
<!-- Generator: Adobe Illustrator 18.0.0, SVG Export Plug-In . SVG Version: 6.00 Build 0)  -->
<!DOCTYPE svg PUBLIC "-//W3C//DTD SVG 1.1//EN" "http://www.w3.org/Graphics/SVG/1.1/DTD/svg11.dtd">
<svg version="1.1" id="Capa_1" xmlns="http://www.w3.org/2000/svg" xmlns:xlink="http://www.w3.org/1999/xlink" x="0px" y="0px"
	 viewBox="0 0 436.795 436.795" style="enable-background:new 0 0 436.795 436.795;" xml:space="preserve">
<path d="M275.652,329.916c-0.108-23.288-17.144-44.248-41.11-51.261V78.015c27.146-10.437,28.175-62.19,28.175-62.246
	C262.716,7.074,255.644,0,246.951,0h-57.102c-8.695,0-15.77,7.074-15.77,15.769c0,0.141,0.08,49.074,28.174,62.246v200.641
	c-23.965,7.014-40.998,27.975-41.109,51.26l-8.992,101.439c-0.124,1.397,0.345,2.782,1.292,3.817
	c0.947,1.035,2.285,1.624,3.688,1.624h122.532c1.403,0,2.741-0.589,3.689-1.624c0.947-1.035,1.416-2.42,1.292-3.817L275.652,329.916
	z M184.079,15.769c0-3.181,2.588-5.769,5.77-5.769h57.102c3.179,0,5.766,2.588,5.766,5.769c0,3.181-2.587,5.769-5.766,5.769h-57.102
	C186.667,21.538,184.079,18.95,184.079,15.769z M186.632,31.206c1.038,0.216,2.114,0.332,3.216,0.332h57.102
	c1.101,0,2.175-0.115,3.212-0.331c-5.129,12.828-17.433,21.889-31.767,21.889C204.063,53.096,191.76,44.034,186.632,31.206z
	 M191.059,53.434c7.537,6.043,17.027,9.662,27.337,9.662c10.312,0,19.805-3.62,27.343-9.666
	c-3.546,7.183-9.036,13.607-17.567,16.291c-2.148,0.676-3.493,2.669-3.478,4.809h-0.152v7.987h-12.289v-7.987h-0.033
	c0-2.133-1.351-4.112-3.495-4.777C200.137,67.087,194.619,60.643,191.059,53.434z M224.542,92.517v125.936h-12.289V92.517H224.542z
	 M162.594,426.795c0,0,8.548-96.505,8.548-96.652c0-9.948,4.099-19.563,10.893-27.247c3.023,20.522,8.895,72.41-3.49,102.412
	c-1.054,2.552,0.162,5.475,2.714,6.529c0.624,0.258,1.271,0.38,1.906,0.38c1.964,0,3.827-1.165,4.624-3.094
	c15.143-36.68,5.536-100.089,3.143-114.099c3.505-2.419,7.361-4.425,11.483-5.902l2.937,118.217
	c0.067,2.718,2.292,4.876,4.996,4.876c3.492,0,5.069-2.364,5-5.124l-3.095-124.604v-54.035h12.289v54.075l-3.094,124.565
	c-0.069,2.76,1.407,5.124,5,5.124c2.704,0,4.929-2.158,4.996-4.876l2.936-118.217c4.123,1.477,7.98,3.483,11.485,5.903
	c-2.394,14.01-11.999,77.418,3.142,114.098c0.797,1.929,2.659,3.094,4.624,3.094c0.636,0,1.282-0.122,1.906-0.38
	c2.552-1.054,3.768-3.977,2.714-6.529c-12.374-29.976-6.508-81.879-3.487-102.409c6.792,7.683,10.89,17.297,10.89,27.243
	c0,0.147,8.548,96.652,8.548,96.652H162.594z"/>
<g>
</g>
<g>
</g>
<g>
</g>
<g>
</g>
<g>
</g>
<g>
</g>
<g>
</g>
<g>
</g>
<g>
</g>
<g>
</g>
<g>
</g>
<g>
</g>
<g>
</g>
<g>
</g>
<g>
</g>
</svg>
