<?xml version="1.0" encoding="iso-8859-1"?>
<!-- Generator: Adobe Illustrator 18.0.0, SVG Export Plug-In . SVG Version: 6.00 Build 0)  -->
<!DOCTYPE svg PUBLIC "-//W3C//DTD SVG 1.1//EN" "http://www.w3.org/Graphics/SVG/1.1/DTD/svg11.dtd">
<svg version="1.1" id="Capa_1" xmlns="http://www.w3.org/2000/svg" xmlns:xlink="http://www.w3.org/1999/xlink" x="0px" y="0px"
	 viewBox="0 0 447.329 447.329" style="enable-background:new 0 0 447.329 447.329;" xml:space="preserve">
<g>
	<g>
		<path d="M228.664,118.104v-5.568c0-2.762-2.238-5-5-5s-5,2.238-5,5v5.568c-9.466,2.703-16.527,12.898-16.527,25.035
			c0,14.193,9.657,25.74,21.527,25.74s21.527-11.547,21.527-25.74C245.192,131.002,238.13,120.807,228.664,118.104z
			 M223.664,158.879c-6.248,0-11.527-7.207-11.527-15.74c0-8.533,5.279-15.744,11.527-15.744s11.527,7.211,11.527,15.744
			C235.192,151.672,229.912,158.879,223.664,158.879z"/>
		<g>
			<path d="M159.841,122.661c-3.073-11.828-12.4-20.088-22.681-20.088c-0.997,0-1.99,0.09-2.972,0.25l-2.052-4.602
				c-1.125-2.521-4.08-3.652-6.604-2.529c-2.521,1.125-3.654,4.082-2.529,6.604l2.115,4.742c-2.352,2.004-4.288,4.619-5.681,7.75
				c-2.494,5.607-2.943,12.25-1.266,18.703c3.073,11.828,12.4,20.088,22.681,20.088c1.562,0,3.118-0.197,4.626-0.59
				c5.776-1.5,10.427-5.629,13.095-11.627C161.069,135.756,161.519,129.114,159.841,122.661z M149.437,137.297
				c-1.404,3.158-3.702,5.293-6.472,6.014c-0.688,0.178-1.397,0.268-2.111,0.268c-5.637,0-11.104-5.299-13.003-12.604
				c-1.11-4.271-0.853-8.576,0.725-12.123c1.404-3.156,3.702-5.291,6.474-6.01c0.688-0.18,1.397-0.27,2.111-0.27
				c5.636,0,11.105,5.301,13.003,12.604C151.273,129.446,151.015,133.752,149.437,137.297z"/>
			<path d="M327.891,114.788c-1.393-3.131-3.33-5.746-5.682-7.75l2.115-4.742c1.125-2.521-0.008-5.479-2.529-6.604
				c-2.522-1.123-5.478,0.008-6.604,2.529l-2.052,4.602c-0.982-0.16-1.975-0.25-2.97-0.25c-10.282,0-19.609,8.26-22.683,20.088
				c-1.678,6.453-1.228,13.096,1.267,18.701c2.667,5.998,7.317,10.127,13.094,11.627c1.509,0.393,3.065,0.59,4.627,0.59
				c10.28,0,19.608-8.26,22.681-20.088C330.833,127.038,330.384,120.395,327.891,114.788z M319.478,130.975
				c-1.898,7.305-7.366,12.604-13.003,12.604c-0.714,0-1.424-0.09-2.112-0.27c-2.768-0.719-5.067-2.854-6.472-6.01
				c-1.577-3.547-1.835-7.852-0.726-12.123c1.898-7.303,7.367-12.604,13.005-12.604c0.714,0,1.424,0.09,2.114,0.27
				c2.768,0.719,5.065,2.854,6.469,6.01C320.331,122.399,320.588,126.704,319.478,130.975z"/>
		</g>
		<g>
			<path d="M205.707,54.491c-1.068-3.641-2.88-6.744-5.282-9.156l2.347-3.547c1.523-2.305,0.892-5.406-1.411-6.93
				c-2.304-1.521-5.405-0.891-6.929,1.412l-2.742,4.145c-1.439-0.352-2.914-0.549-4.423-0.549c-9.384,0-18.486,6.859-22.65,17.07
				c-5.357,13.143-0.777,27.48,10.21,31.963c2.22,0.904,4.577,1.365,7.006,1.365c9.383,0,18.485-6.859,22.649-17.068
				C207,67.022,207.436,60.379,205.707,54.491z M195.222,69.419c-2.605,6.385-8.11,10.846-13.39,10.846
				c-1.127,0-2.213-0.211-3.229-0.625c-5.783-2.359-7.948-11.027-4.728-18.928c2.605-6.387,8.111-10.846,13.391-10.846
				c1.127,0,2.213,0.209,3.228,0.623c2.649,1.082,4.645,3.502,5.618,6.818C197.205,61.032,196.89,65.333,195.222,69.419z"/>
			<path d="M282.71,56.934c-4.164-10.209-13.267-17.068-22.65-17.068c-1.509,0-2.984,0.197-4.423,0.549l-2.742-4.145
				c-1.523-2.305-4.624-2.936-6.929-1.412c-2.303,1.523-2.935,4.625-1.411,6.93l2.347,3.547c-2.402,2.412-4.214,5.516-5.282,9.156
				c-1.728,5.889-1.293,12.531,1.226,18.705c4.164,10.209,13.267,17.068,22.649,17.068c2.429,0,4.786-0.461,7.006-1.365
				C283.488,84.417,288.068,70.079,282.71,56.934z M268.723,79.639c-1.016,0.414-2.102,0.625-3.229,0.625
				c-5.279,0-10.785-4.461-13.39-10.846c-1.668-4.086-1.983-8.387-0.891-12.111c0.974-3.316,2.969-5.736,5.618-6.818
				c1.015-0.414,2.101-0.623,3.227-0.623c5.279,0,10.786,4.459,13.391,10.846C276.671,68.612,274.506,77.28,268.723,79.639z"/>
		</g>
		<g>
			<path d="M182.903,187.229c-0.953-3.246-2.499-6.068-4.526-8.352l2.264-2.959c1.678-2.193,1.26-5.332-0.934-7.01
				c-2.194-1.678-5.331-1.26-7.01,0.934l-2.748,3.592c-1.767-0.547-3.604-0.83-5.486-0.83c-9.382,0-18.484,6.859-22.65,17.068
				c-5.358,13.145-0.777,27.482,10.209,31.963c2.221,0.906,4.578,1.367,7.008,1.367c9.382,0,18.484-6.859,22.65-17.07
				C184.197,199.76,184.632,193.118,182.903,187.229z M172.419,202.155c-2.605,6.387-8.112,10.848-13.391,10.848
				c-1.127,0-2.214-0.211-3.23-0.625c-5.783-2.359-7.948-11.027-4.727-18.928c2.605-6.385,8.111-10.846,13.391-10.846
				c1.126,0,2.213,0.211,3.228,0.625c2.649,1.08,4.645,3.502,5.618,6.816C174.402,193.77,174.086,198.071,172.419,202.155z"/>
			<path d="M305.517,189.672c-4.164-10.209-13.267-17.068-22.649-17.068c-1.884,0-3.721,0.283-5.487,0.83l-2.748-3.592
				c-1.678-2.193-4.814-2.611-7.01-0.934c-2.193,1.678-2.611,4.816-0.934,7.01l2.264,2.959c-2.027,2.283-3.573,5.105-4.526,8.352
				c-1.729,5.889-1.294,12.531,1.224,18.703c4.166,10.209,13.268,17.068,22.65,17.07c0.001,0,0.001,0,0.001,0
				c2.429,0,4.786-0.461,7.005-1.365C306.294,217.155,310.875,202.817,305.517,189.672z M291.529,212.377
				c-1.015,0.414-2.101,0.625-3.227,0.625h-0.001c-5.279-0.002-10.786-4.461-13.392-10.848c-1.667-4.084-1.982-8.385-0.889-12.109
				c0.974-3.314,2.969-5.736,5.618-6.816c1.015-0.414,2.102-0.625,3.229-0.625c5.279,0,10.785,4.459,13.39,10.844
				C299.479,201.35,297.314,210.018,291.529,212.377z"/>
		</g>
		<path d="M364.287,160.1c3.99-5.574,8.514-11.891,8.514-19.314c0-7.422-4.523-13.738-8.514-19.313
			c-2.744-3.834-5.337-7.453-6.14-10.783c-0.852-3.531-0.189-8.059,0.514-12.852c1.024-6.996,2.084-14.23-1.186-20.621
			c-3.295-6.436-9.798-9.828-16.086-13.109c-4.273-2.231-8.311-4.336-10.615-7.057c-2.29-2.705-3.691-7.031-5.174-11.611
			c-2.079-6.424-4.436-13.705-10.215-18.057c-5.675-4.273-12.922-4.531-19.931-4.781c-4.884-0.174-9.496-0.338-12.814-1.848
			c-3.172-1.443-6.253-4.752-9.515-8.254c-4.612-4.953-9.842-10.568-16.968-12.092c-6.821-1.465-13.446,1.289-19.85,3.955
			c-4.575,1.904-8.897,3.703-12.645,3.703s-8.069-1.799-12.645-3.703c-6.402-2.666-13.021-5.42-19.85-3.957
			c-7.128,1.527-12.357,7.141-16.97,12.094c-3.262,3.504-6.342,6.811-9.513,8.254c-3.318,1.51-7.931,1.674-12.814,1.848
			c-7.009,0.25-14.256,0.508-19.932,4.781c-5.777,4.352-8.135,11.633-10.214,18.057c-1.482,4.58-2.884,8.906-5.174,11.611
			c-2.305,2.721-6.342,4.826-10.615,7.057c-6.289,3.281-12.792,6.674-16.087,13.111c-3.27,6.389-2.21,13.623-1.186,20.619
			c0.702,4.793,1.365,9.32,0.514,12.852c-0.802,3.33-3.395,6.949-6.139,10.783c-3.99,5.574-8.514,11.891-8.514,19.313
			c0,7.424,4.523,13.74,8.514,19.314c2.744,3.832,5.337,7.453,6.14,10.785c0.851,3.527,0.188,8.055-0.515,12.848
			c-1.024,6.996-2.084,14.232,1.187,20.623c3.294,6.436,9.798,9.828,16.088,13.109c4.273,2.23,8.31,4.336,10.613,7.055
			c2.291,2.705,3.691,7.031,5.174,11.613c2.181,6.736,4.436,13.703,10.212,18.053c2.174,1.637,5.258,1.236,6.939-0.904
			c0.064-0.082,6.099-7.484,15.281-10.15c3.472,4.557,11.276,14.221,21.243,24.32c1.578,1.6,3.531,1.508,4.373,1.395
			c1.721-0.234,2.964-1.299,3.667-2.758c0.059-0.123,2.63-5.326,7.588-11.248l17.148,27.324v59.346h-50.305c-2.762,0-5,2.238-5,5
			v24.758c0,2.762,2.238,5,5,5h9.073l9.91,66.795c0.364,2.451,2.469,4.266,4.946,4.266h83.719c2.478,0,4.582-1.814,4.946-4.266
			l9.91-66.795h9.073c2.762,0,5-2.238,5-5V346.51c0-2.762-2.238-5-5-5h-50.303v-59.346l17.13-27.295
			c4.961,5.912,7.547,11.1,7.604,11.219c0.703,1.459,2.074,2.463,3.667,2.758c1.447,0.266,3.427-0.449,4.373-1.395
			c10.032-10.033,17.772-19.766,21.244-24.322c9.222,2.672,15.225,10.084,15.28,10.152c1.683,2.139,4.766,2.539,6.939,0.904
			c5.776-4.35,8.031-11.316,10.212-18.053c1.482-4.582,2.883-8.908,5.173-11.613c2.305-2.719,6.341-4.826,10.614-7.055
			c6.289-3.281,12.792-6.674,16.089-13.111c3.269-6.389,2.209-13.623,1.185-20.619c-0.702-4.795-1.364-9.322-0.513-12.852
			C358.95,167.553,361.543,163.932,364.287,160.1z M261.211,437.329h-75.094l-9.059-61.06h93.211L261.211,437.329z M284.453,366.268
			H162.875V351.51h121.578V366.268z M229.915,278.067c-0.5,0.797-0.765,1.719-0.765,2.658v60.785H218.18v-60.785
			c0-0.94-0.265-1.861-0.765-2.658l-19.148-30.512c2.256-1.895,4.767-3.67,7.524-5.184l13.592,22.531
			c0.938,1.557,2.592,2.418,4.286,2.418c0.879,0,1.77-0.232,2.578-0.721c0.722-0.436,1.273-1.035,1.68-1.709l0.019,0.012
			l13.577-22.508c2.754,1.518,5.264,3.295,7.521,5.191L229.915,278.067z M215.243,238.678c2.649-0.641,5.451-1.016,8.421-1.016
			c2.966,0,5.767,0.379,8.417,1.023l-8.417,13.953L215.243,238.678z M356.157,154.278c-3.182,4.443-6.471,9.039-7.729,14.262
			c-1.305,5.408-0.469,11.119,0.34,16.643c0.834,5.693,1.621,11.072-0.191,14.615c-1.844,3.602-6.686,6.127-11.813,8.803
			c-4.939,2.576-10.048,5.242-13.619,9.457c-3.566,4.211-5.341,9.693-7.057,14.996c-1.176,3.631-2.308,7.127-3.876,9.791
			c-4.121-3.723-11.163-8.75-20.314-10.234c-1.872-0.295-3.754,0.477-4.861,2.018c-0.08,0.111-7.184,9.945-17.645,21.072
			c-6.39-9.816-21.515-28.037-45.727-28.037c-24.213,0-39.337,18.221-45.727,28.035c-10.461-11.125-17.564-20.959-17.645-21.07
			c-1.107-1.541-2.986-2.313-4.861-2.018c-9.151,1.484-16.193,6.512-20.314,10.234c-1.568-2.664-2.7-6.16-3.876-9.791
			c-1.716-5.303-3.49-10.785-7.058-14.998c-3.57-4.213-8.679-6.879-13.618-9.455c-5.127-2.676-9.969-5.201-11.812-8.801
			c-1.814-3.547-1.027-8.924-0.193-14.617c0.81-5.523,1.646-11.234,0.342-16.641c-1.26-5.225-4.549-9.82-7.731-14.264
			c-3.417-4.771-6.644-9.279-6.644-13.492c0-4.211,3.227-8.719,6.644-13.49c3.182-4.443,6.471-9.039,7.73-14.262
			c1.305-5.41,0.469-11.121-0.341-16.645c-0.834-5.691-1.621-11.068,0.193-14.615c1.843-3.6,6.684-6.127,11.81-8.801
			c4.94-2.576,10.05-5.242,13.621-9.459c3.565-4.211,5.341-9.693,7.057-14.994c1.781-5.502,3.464-10.699,6.715-13.148
			c3.162-2.379,8.56-2.572,14.273-2.775c5.643-0.201,11.477-0.41,16.599-2.74c4.988-2.268,8.903-6.473,12.69-10.539
			c3.958-4.25,7.696-8.264,11.747-9.131c3.772-0.807,8.696,1.24,13.911,3.41c5.281,2.199,10.742,4.471,16.487,4.471
			s11.206-2.273,16.487-4.471c5.214-2.17,10.139-4.219,13.912-3.41c4.049,0.867,7.787,4.881,11.745,9.131
			c3.787,4.066,7.702,8.271,12.691,10.541c5.122,2.328,10.956,2.537,16.599,2.738c5.714,0.203,11.111,0.396,14.272,2.775
			c3.252,2.449,4.935,7.646,6.716,13.148c1.716,5.301,3.491,10.783,7.057,14.994c3.571,4.217,8.68,6.883,13.621,9.459
			c5.125,2.674,9.967,5.201,11.81,8.801c1.813,3.545,1.026,8.922,0.192,14.615c-0.809,5.523-1.645,11.234-0.341,16.643
			c1.26,5.225,4.549,9.82,7.73,14.264c3.417,4.771,6.645,9.279,6.645,13.49C362.801,144.999,359.574,149.506,356.157,154.278z"/>
	</g>
</g>
<g>
</g>
<g>
</g>
<g>
</g>
<g>
</g>
<g>
</g>
<g>
</g>
<g>
</g>
<g>
</g>
<g>
</g>
<g>
</g>
<g>
</g>
<g>
</g>
<g>
</g>
<g>
</g>
<g>
</g>
</svg>
