<?xml version="1.0" encoding="iso-8859-1"?>
<!-- Generator: Adobe Illustrator 18.0.0, SVG Export Plug-In . SVG Version: 6.00 Build 0)  -->
<!DOCTYPE svg PUBLIC "-//W3C//DTD SVG 1.1//EN" "http://www.w3.org/Graphics/SVG/1.1/DTD/svg11.dtd">
<svg version="1.1" id="Capa_1" xmlns="http://www.w3.org/2000/svg" xmlns:xlink="http://www.w3.org/1999/xlink" x="0px" y="0px"
	 viewBox="0 0 467.868 467.868" style="enable-background:new 0 0 467.868 467.868;" xml:space="preserve">
<path d="M467.868,212.174c0-25.926-21.092-47.018-47.016-47.018c-14.712,0-28.16,6.938-36.86,17.944l-0.164-4.476
	c-0.098-2.688-2.306-4.817-4.996-4.817h-40.966l-32.506-21.341v-83.38c0-2.761-2.238-5-5-5h-26.57c-2.762,0-5,2.239-5,5v81.141
	c-61.568,1.227-77.702,25.943-77.702,25.943c-0.449,0.718-0.737,1.549-0.77,2.454l-1.405,38.435h-65.139L72.877,167.89
	l-2.953-41.344c-0.141-1.971-1.429-3.674-3.287-4.346c-1.859-0.671-3.937-0.187-5.307,1.239L1.394,185.848
	c-1.371,1.427-1.771,3.529-1.02,5.36c0.751,1.831,2.511,3.047,4.489,3.101l43.098,1.181l136.68,138.425l-2.365,64.685
	c-0.049,1.357,0.455,2.676,1.397,3.652c0.942,0.978,2.241,1.53,3.6,1.53h199.604c1.358,0,2.657-0.552,3.6-1.53
	c0.942-0.977,1.446-2.295,1.397-3.652l-3.054-83.492l65.337-69.748C463,236.486,467.868,224.703,467.868,212.174z M47.9,185.485
	l-31.465-0.862l44.315-46.143l2.139,29.947L47.9,185.485z M185.143,320.191L56.938,190.349l11.384-12.955L186.2,291.268
	L185.143,320.191z M186.692,277.839l-52.565-50.78h54.422L186.692,277.839z M305.361,164.428l14.286,9.379h-14.286V164.428z
	 M278.79,74.086h16.57v120.111h-16.57V74.086z M268.79,160.228v13.579h-60.014C218.312,167.999,236.489,160.9,268.79,160.228z
	 M200.136,183.807h68.654v15.39c0,2.761,2.238,5,5,5h26.57c2.762,0,5-2.239,5-5v-15.39h68.652l1.216,33.252H198.921L200.136,183.807
	z M198.555,227.059h177.039l0.493,13.48H198.062L198.555,227.059z M197.697,250.539h178.756l3.95,108.021H193.748L197.697,250.539z
	 M192.46,393.783l0.922-25.222h187.386l0.922,25.222H192.46z M388.306,301.031l-3.542-96.858
	c3.709-16.845,18.794-29.016,36.089-29.016c20.41,0,37.016,16.606,37.016,37.018c0,9.887-3.674,18.269-10.841,26.173
	C446.991,238.387,388.306,301.031,388.306,301.031z"/>
<g>
</g>
<g>
</g>
<g>
</g>
<g>
</g>
<g>
</g>
<g>
</g>
<g>
</g>
<g>
</g>
<g>
</g>
<g>
</g>
<g>
</g>
<g>
</g>
<g>
</g>
<g>
</g>
<g>
</g>
</svg>
